<svg width="512" height="512" viewBox="0 0 512 512" fill="none" xmlns="http://www.w3.org/2000/svg">
 <g clip-path="url(#clip0_2_317)">
  <path d="M238.78 75.66C238.82 75.65 242.12 74.22 250.34 73.83C249.97 81.97 248.56 85.29 248.51 85.4L247.56 87.45H259.33L261.58 87.44L260.64 85.39C260.62 85.36 259.15 82.06 258.77 73.83C267.03 74.21 270.35 75.65 270.38 75.66L272.43 76.61L272.42 62.61L270.38 63.55C270.34 63.55 267.01 65.03 258.76 65.42C259.15 57.17 260.62 53.85 260.64 53.82L261.61 51.75L247.6 51.76L248.51 53.8C248.52 53.84 249.96 57.16 250.34 65.41C242.12 65.01 238.82 63.55 238.81 63.55L236.74 62.57V76.57L238.78 75.66V75.66Z" fill="white"/>
  <path d="M483.12 161.52H26.05V174.36H483.12V161.52Z" fill="white"/>
  <path d="M199.7 106.35C220.92 106.35 231.51 121.25 231.51 121.25H247.49C247.49 121.25 236.2 93.35 200.13 93.35C154.21 93.35 143.21 122.83 70.13 122.83C51.85 122.83 26.74 120.66 26.05 120.66L26.04 133.21C26.04 133.21 40.17 135.8 69.3 135.8C151.97 135.8 158.17 106.35 199.7 106.35V106.35Z" fill="white"/>
  <path d="M261.68 121.25H277.66C277.66 121.25 288.25 106.35 309.46 106.35C351 106.35 357.2 135.8 439.87 135.8C469 135.8 483.12 133.2 483.12 133.2V120.66C482.43 120.66 457.31 122.83 439.04 122.83C365.95 122.83 354.96 93.35 309.04 93.35C272.97 93.35 261.68 121.25 261.68 121.25Z" fill="white"/>
  <path d="M437.28 383.47L419.65 409.98L402.03 383.47C400.37 381.03 397.05 380.4 394.61 382.06C392.16 383.71 391.54 387.04 393.19 389.48L414.31 420.52V440.88C414.31 443.83 416.7 446.22 419.65 446.22C422.61 446.22 425 443.83 425 440.88V420.52L446.11 389.48C447.78 387.04 447.14 383.71 444.7 382.06C442.27 380.4 438.94 381.03 437.28 383.47V383.47Z" fill="white"/>
  <path d="M263.22 381.59C260.27 381.59 257.88 383.98 257.88 386.93C257.88 386.93 257.86 414.89 257.86 423.08C257.86 430.04 250.51 436.15 241.25 436.15C231.28 436.15 224.64 429.33 224.64 422.96C224.64 414.77 224.62 386.93 224.62 386.93C224.62 383.98 222.23 381.59 219.28 381.59C216.32 381.59 213.94 383.98 213.94 386.93C213.94 386.93 213.95 414.64 213.95 422.06C213.95 436.89 226.65 446.83 241.25 446.83C255.83 446.83 268.54 436.92 268.54 422.06C268.54 419 268.56 386.93 268.56 386.93C268.56 383.98 266.17 381.59 263.22 381.59Z" fill="white"/>
  <path d="M111.76 255.01C111.71 249.28 111.68 244.22 111.68 241.76C111.69 239.77 111.7 233.71 122.51 233.63L128.81 233.58H128.98C138.08 233.58 141.38 238.87 141.41 243.85C141.44 246.73 140.35 249.35 138.37 251.24C135.88 253.6 131.98 254.86 127.1 254.9L111.76 255.01ZM145.72 259C149.89 255.05 152.15 249.64 152.11 243.76C152.02 233.68 144.76 222.89 128.98 222.89H128.73L122.44 222.94C109.24 223.03 101.02 230.24 100.99 241.74C100.97 249.44 101.31 281.1 101.32 282.44C101.35 285.38 103.73 287.73 106.66 287.73H106.73C109.68 287.7 112.05 285.28 112.01 282.33C112.01 282.17 111.85 265.7 111.85 265.7L127.17 265.59C134.81 265.54 141.23 263.26 145.72 259V259Z" fill="white"/>
  <path d="M367.05 233.35C370.01 233.35 372.4 230.95 372.4 228C372.4 225.05 370.01 222.65 367.05 222.65H331C328.05 222.65 325.67 225.04 325.66 227.99C325.66 229.33 325.58 260.99 325.66 268.69C325.77 280.19 334.05 287.34 347.25 287.34H367.05C370.01 287.34 372.4 284.94 372.4 281.99C372.4 279.03 370.01 276.64 367.05 276.64H347.25C336.43 276.64 336.37 270.58 336.35 268.58C336.33 266.77 336.32 263.52 336.32 259.64H362.02C364.97 259.64 367.37 257.25 367.37 254.29C367.37 251.34 364.97 248.95 362.02 248.95H336.32C336.32 243.15 336.33 237.36 336.33 233.35H367.05V233.35Z" fill="white"/>
  <path d="M64.67 381.6H47.31C34.12 381.6 25.85 388.74 25.74 400.23C25.66 407.92 25.74 439.56 25.74 440.9C25.74 443.84 28.13 446.23 31.08 446.23H31.09C34.04 446.22 36.43 443.82 36.42 440.87C36.42 440.68 36.39 429.58 36.39 418.82H61.46C64.42 418.82 66.81 416.43 66.81 413.48C66.81 410.53 64.42 408.13 61.46 408.13H36.39C36.39 404.77 36.4 401.97 36.42 400.34C36.44 398.35 36.5 392.29 47.31 392.29H64.67C67.62 392.29 70.01 389.9 70.01 386.95C70.01 383.99 67.62 381.6 64.67 381.6V381.6Z" fill="white"/>
  <path d="M205 250.51C202.53 253.02 198.54 254.37 193.48 254.41L178.14 254.52C178.09 248.79 178.07 243.73 178.07 241.28C178.07 239.28 178.09 233.22 188.9 233.14L195.2 233.09H195.37C204.47 233.09 207.76 238.38 207.8 243.36C207.81 245.31 207.34 248.13 205 250.51ZM195.37 222.4H195.12L188.83 222.45C175.62 222.55 167.4 229.75 167.37 241.25C167.36 248.96 167.69 280.61 167.71 281.96C167.74 284.89 170.12 287.25 173.05 287.25H173.11C176.06 287.22 178.43 284.8 178.4 281.84C178.4 281.68 178.23 265.21 178.23 265.21L193.56 265.1C203.61 265.03 209.47 261.21 212.62 258.01C216.45 254.12 218.54 248.89 218.49 243.28C218.41 233.19 211.14 222.4 195.37 222.4V222.4Z" fill="white"/>
  <path d="M275.51 276.64H257.83C247.01 276.64 246.95 270.58 246.93 268.59C246.85 260.95 246.93 228.34 246.93 228.01C246.94 225.06 244.55 222.66 241.6 222.65H241.58C238.64 222.65 236.25 225.04 236.24 227.99C236.23 229.33 236.16 260.99 236.24 268.7C236.35 280.19 244.63 287.34 257.83 287.34H275.51C278.46 287.34 280.85 284.94 280.85 281.99C280.85 279.04 278.46 276.64 275.51 276.64V276.64Z" fill="white"/>
  <path d="M302.95 281.99V228C302.95 225.05 300.56 222.66 297.61 222.66C294.66 222.66 292.26 225.05 292.26 228V281.99C292.26 284.94 294.66 287.33 297.61 287.33C300.56 287.33 302.95 284.94 302.95 281.99Z" fill="white"/>
  <path d="M201.75 312.62C204.7 312.62 207.09 310.24 207.09 307.29C207.09 304.34 204.7 301.95 201.75 301.95H171.4C168.46 301.95 166.07 304.34 166.06 307.28C166.06 308.62 165.99 340.22 166.06 347.91C166.18 359.38 174.44 366.51 187.62 366.51H201.75C204.7 366.51 207.09 364.12 207.09 361.18C207.09 358.23 204.7 355.84 201.75 355.84H187.62C176.82 355.84 176.76 349.78 176.73 347.8C176.72 345.98 176.71 342.74 176.7 338.87H197.35C200.29 338.87 202.68 336.48 202.68 333.53C202.68 330.59 200.29 328.2 197.35 328.2H176.7C176.71 322.41 176.72 316.63 176.73 312.62H201.75V312.62Z" fill="white"/>
  <path d="M142.23 301.95C139.29 301.95 136.9 304.34 136.9 307.29V361.18C136.9 364.12 139.29 366.51 142.23 366.51C145.18 366.51 147.57 364.12 147.57 361.18V307.29C147.57 304.34 145.18 301.95 142.23 301.95Z" fill="white"/>
  <path d="M326.83 435.54H306.03C295.22 435.54 295.15 429.48 295.13 427.49C295.06 419.87 295.13 387.28 295.13 386.96C295.14 384.01 292.76 381.61 289.81 381.6H289.79C286.85 381.6 284.46 383.99 284.45 386.93C284.45 388.28 284.37 419.91 284.45 427.6C284.57 439.09 292.84 446.23 306.03 446.23H326.83C329.77 446.23 332.17 443.84 332.17 440.89C332.17 437.93 329.77 435.54 326.83 435.54V435.54Z" fill="white"/>
  <path d="M416.83 276.64H402.22V233.35H416.83C429.78 233.35 436.35 240.63 436.35 255C436.35 269.36 429.78 276.64 416.83 276.64ZM416.83 222.66H396.88C393.92 222.66 391.53 225.05 391.53 228V281.99C391.53 284.94 393.92 287.34 396.88 287.34H416.83C435.75 287.34 447.04 275.25 447.04 255C447.04 234.75 435.75 222.66 416.83 222.66V222.66Z" fill="white"/>
  <path d="M380.64 381H330.55C327.6 381 325.21 383.39 325.21 386.34C325.21 389.29 327.6 391.68 330.55 391.68H350.25V440.89C350.25 443.84 352.64 446.23 355.6 446.23C358.54 446.23 360.94 443.84 360.94 440.89V391.68H380.64C383.59 391.68 385.97 389.29 385.97 386.34C385.97 383.39 383.59 381 380.64 381V381Z" fill="white"/>
  <path d="M45.2 255.86C48.48 246.74 51.28 239.07 51.97 237.36C53.54 233.53 55.1 233.53 55.78 233.53C56.83 233.53 58.03 233.53 59.59 237.36C60.28 239.07 63.08 246.74 66.36 255.86H45.2ZM81.63 287.89C82.24 287.89 82.84 287.79 83.45 287.57C86.25 286.57 87.72 283.48 86.72 280.67C86.1 278.93 71.47 237.9 69.59 233.28C66.73 226.28 62.09 222.73 55.78 222.73C52.23 222.73 45.72 224.1 41.97 233.28C40.09 237.9 25.46 278.93 24.84 280.67C23.84 283.48 25.3 286.57 28.12 287.57C30.92 288.57 34.01 287.11 35.01 284.3C36.73 279.47 39 273.13 41.32 266.66H70.24C72.56 273.13 74.83 279.47 76.55 284.3C77.34 286.51 79.41 287.89 81.63 287.89V287.89Z" fill="white"/>
  <path d="M107.99 312.61C111.66 312.61 114.99 313.99 114.99 313.99C117.7 315.16 120.84 313.91 122.01 311.2C123.17 308.49 121.92 305.35 119.21 304.19C118.68 303.96 113.82 301.95 107.99 301.95C89.11 301.95 77.84 314.01 77.84 334.22C77.84 354.43 89.11 366.5 107.99 366.5C113.82 366.5 118.68 364.48 119.22 364.25C121.91 363.09 123.15 359.97 122 357.27C120.85 354.56 117.73 353.3 115.02 354.44C115.02 354.44 111.66 355.83 107.99 355.83C95.07 355.83 88.52 348.56 88.52 334.22C88.52 319.88 95.07 312.61 107.99 312.61V312.61Z" fill="white"/>
  <path d="M320.18 312.61C323.85 312.61 327.17 313.99 327.17 313.99C329.88 315.16 333.03 313.91 334.19 311.2C335.36 308.5 334.11 305.35 331.4 304.19C330.86 303.96 326.01 301.94 320.18 301.94C301.3 301.94 290.04 314.01 290.04 334.22C290.04 354.43 301.3 366.5 320.18 366.5C326.01 366.5 330.86 364.48 331.4 364.25C334.1 363.09 335.34 359.97 334.19 357.27C333.04 354.56 329.91 353.3 327.2 354.44C327.2 354.44 323.85 355.83 320.18 355.83C307.26 355.83 300.7 348.56 300.7 334.22C300.7 319.89 307.26 312.61 320.18 312.61V312.61Z" fill="white"/>
  <path d="M181.49 392.28C186.85 392.28 191.95 395.17 191.95 395.17C194.53 396.67 197.8 395.82 199.29 393.27C200.78 390.72 199.92 387.45 197.37 385.96C196.61 385.51 189.66 381.6 181.49 381.6C162.59 381.6 151.31 393.67 151.31 413.91C151.31 434.14 162.59 446.22 181.49 446.22C189.6 446.22 196.58 442.31 197.35 441.87C199.9 440.39 200.76 437.14 199.3 434.59C197.84 432.04 194.57 431.15 192.01 432.61C192.01 432.61 186.81 435.54 181.49 435.54C168.55 435.54 161.99 428.26 161.99 413.91C161.99 399.56 168.55 392.28 181.49 392.28Z" fill="white"/>
  <path d="M270.07 301.95C267.12 301.95 264.73 304.34 264.73 307.29V330.85L265.1 346.94L263.84 344.88C259.88 339.38 241.48 313.77 234.75 304.36C233.99 303.29 232.13 301.95 230.08 301.95C227.13 301.95 224.74 304.34 224.74 307.29V361.18C224.74 364.12 227.13 366.51 230.08 366.51C233.02 366.51 235.41 364.12 235.41 361.18V336.14L235.07 321.58L236.34 323.64C240.39 329.27 258.76 354.84 265.39 364.11C266.15 365.18 268.09 366.51 270.07 366.51C273.01 366.51 275.4 364.12 275.4 361.18V307.29C275.4 304.34 273.01 301.95 270.07 301.95V301.95Z" fill="white"/>
  <path d="M97.45 414.47C100.74 405.35 103.53 397.69 104.23 395.98C105.79 392.15 107.36 392.15 108.03 392.15C109.08 392.15 110.27 392.15 111.84 395.98C112.53 397.69 115.32 405.35 118.6 414.47H97.45V414.47ZM121.82 391.9C118.97 384.91 114.33 381.36 108.03 381.36C104.48 381.36 97.97 382.73 94.23 391.9C92.36 396.52 77.74 437.51 77.12 439.25C76.12 442.06 77.58 445.14 80.38 446.14C83.19 447.15 86.28 445.68 87.28 442.88C89 438.05 91.26 431.72 93.58 425.26H122.48C124.8 431.72 127.06 438.05 128.78 442.88C129.57 445.08 131.65 446.46 133.86 446.46C134.46 446.46 135.07 446.36 135.67 446.14C138.48 445.14 139.94 442.06 138.94 439.25C138.32 437.51 123.71 396.52 121.82 391.9V391.9Z" fill="white"/>
  <path d="M386.3 312.63C389.25 312.63 391.64 310.24 391.64 307.29C391.64 304.34 389.25 301.95 386.3 301.95H355.95C353.01 301.95 350.62 304.33 350.61 307.27C350.61 308.62 350.53 340.22 350.61 347.9C350.73 359.38 358.99 366.51 372.17 366.51H386.3C389.25 366.51 391.64 364.12 391.64 361.18C391.64 358.23 389.25 355.84 386.3 355.84H372.17C361.37 355.84 361.31 349.78 361.29 347.8C361.27 345.98 361.25 338.87 361.25 338.87H381.9C384.85 338.87 387.23 336.48 387.23 333.53C387.23 330.59 384.85 328.2 381.9 328.2H361.25L361.28 312.63H386.3V312.63Z" fill="white"/>
  <path d="M424.18 356.82C418.78 356.82 414.21 354.88 411.66 351.52C410.55 350.06 409.02 349.25 407.35 349.25C404.61 349.25 401.68 351.35 401.68 354.47C401.68 358.85 409.17 366.66 424.1 366.66C439 366.66 447.04 357.2 447.04 348.3C447.04 341.36 442.46 335.22 434.17 330.97C432.06 329.91 429.4 328.69 426.83 327.51L426.41 327.32C424.14 326.28 421.99 325.3 420.33 324.47C416.76 322.74 414.54 320.15 414.54 317.71C414.54 314.53 417.95 311.24 423.65 311.24C427.82 311.24 431.12 312.46 433.46 314.86C434.77 316.24 436.39 317 438.01 317C440.98 317 443.5 314.57 443.5 311.71C443.5 307.59 436.63 301.9 423.74 301.9C410.83 301.9 404.08 310.01 404.08 318.04C404.08 324.53 408.43 330.24 415.74 333.32C420.3 335.24 424.85 337.57 429.09 339.8C433.4 342.04 436.09 345.41 436.09 348.61C436.09 350.74 433.91 356.82 424.18 356.82V356.82Z" fill="white"/>
  <path d="M46.11 356.82C40.7 356.82 36.14 354.88 33.58 351.51C32.47 350.06 30.94 349.25 29.27 349.25C26.54 349.25 23.61 351.35 23.61 354.47C23.61 358.85 31.1 366.66 46.02 366.66C60.93 366.66 68.96 357.2 68.96 348.3C68.96 341.37 64.39 335.21 56.09 330.97C53.83 329.83 50.87 328.49 48.5 327.4L48.36 327.33C46.07 326.29 43.93 325.3 42.26 324.47C38.69 322.74 36.47 320.15 36.47 317.71C36.47 314.53 39.88 311.24 45.58 311.24C49.74 311.24 53.05 312.46 55.38 314.86C56.7 316.24 58.31 317 59.93 317C62.9 317 65.42 314.58 65.42 311.71C65.42 307.59 58.55 301.9 45.67 301.9C32.76 301.9 26 310.01 26 318.04C26 324.53 30.36 330.24 37.67 333.32C42.21 335.23 46.77 337.56 51.01 339.8C55.33 342.04 58.02 345.41 58.02 348.61C58.02 350.74 55.83 356.82 46.11 356.82V356.82Z" fill="white"/>
  <path d="M467.72 407.15C456.29 407.15 447.04 416.4 447.04 427.82C447.04 439.24 456.29 448.49 467.72 448.49C479.13 448.49 488.39 439.24 488.39 427.82C488.39 416.4 479.13 407.15 467.72 407.15Z" fill="#8BC751"/>
 </g>
 <defs>
  <clipPath id="clip0_2_317">
   <rect width="512" height="512" fill="white"/>
  </clipPath>
 </defs>
</svg>
