<svg width="459" height="1519" viewBox="0 0 459 1519" fill="none" xmlns="http://www.w3.org/2000/svg">
    <g filter="url(#filter0_f_1_20)">
        <path fill-rule="evenodd" clip-rule="evenodd" d="M335.234 798.285C321.323 708.756 382.483 653.971 416.212 589.598C438.17 547.689 469.059 520.52 497.945 487.743C522.963 459.353 546.707 432.019 575.042 409.365C611.962 379.848 642.413 328.859 689.79 334.363C738.314 340.001 781.697 398.53 826.586 438.591C881.792 487.859 952.727 518.465 984.105 597.02C1015.34 675.219 995.144 758.354 984.661 834.332C974.813 905.705 954.473 968.591 925.167 1024.17C894.229 1082.84 861.24 1141.81 809.748 1166.04C756.064 1191.31 692.043 1195.09 630.864 1162.66C571.033 1130.95 528.392 1051.96 478.499 990.465C427.999 928.222 348.349 882.695 335.234 798.285Z" fill="url(#paint0_linear_1_20)"/>
    </g>
    <defs>
        <filter id="filter0_f_1_20" x="0.209961" y="0.951477" width="1333.6" height="1518.04" filterUnits="userSpaceOnUse" color-interpolation-filters="sRGB">
            <feFlood flood-opacity="0" result="BackgroundImageFix"/>
            <feBlend mode="normal" in="SourceGraphic" in2="BackgroundImageFix" result="shape"/>
            <feGaussianBlur stdDeviation="166.5" result="effect1_foregroundBlur_1_20"/>
        </filter>
        <linearGradient id="paint0_linear_1_20" x1="356.005" y1="870.734" x2="1007.07" y2="668.787" gradientUnits="userSpaceOnUse">
            <stop stop-color="#7DFF00"/>
            <stop offset="1" stop-color="#7EE819" stop-opacity="0"/>
        </linearGradient>
    </defs>
</svg>
