<svg width="222" height="226" viewBox="0 0 222 226" fill="none" xmlns="http://www.w3.org/2000/svg">
    <path d="M107.739 47.3549C109.311 47.3549 110.885 47.3549 112.457 47.3549C112.457 47.3549 111.573 45.4759 111.431 40.5559C116.369 40.6929 118.254 41.5579 118.254 41.5579C118.254 39.9859 118.254 38.4139 118.254 36.841C118.254 36.841 116.368 37.7269 111.43 37.8669C111.571 32.9289 112.457 31.0439 112.457 31.0439C110.885 31.0439 109.311 31.0439 107.739 31.0439C107.739 31.0439 108.605 32.9289 108.743 37.8659C103.822 37.7229 101.945 36.841 101.945 36.841C101.945 38.4139 101.945 39.9859 101.945 41.5579C101.945 41.5579 103.822 40.6959 108.742 40.5569C108.603 45.4759 107.739 47.3549 107.739 47.3549Z" fill="white"/>
    <path d="M169.304 70.7709C169.319 85.1869 169.281 96.1499 169.294 110.565C169.311 127.628 169.293 162.537 169.29 169.707C162.543 167.975 155.517 166.479 148.645 166.269C135.469 165.864 120.602 169.586 110.282 178.52C110.243 178.553 110.206 178.588 110.168 178.623C100.521 170.182 86.966 166.486 74.607 166.328C66.731 166.226 58.69 167.766 50.935 169.503C50.922 155.435 50.91 140.751 50.897 126.718C50.881 107.974 50.936 71.8289 50.936 70.7739C50.935 69.8419 47.254 68.4619 47.255 69.3919C47.268 83.8139 47.28 96.1629 47.294 110.585C47.311 129.329 47.255 169.618 47.255 170.673C47.255 171.513 49.609 171.337 50.047 171.232C57.153 169.523 64.613 168.794 71.902 168.665C84.662 168.436 98.965 171.222 108.439 180.569C109.158 181.279 111.181 181.279 111.9 180.569C121.508 171.087 135.693 168.252 148.646 168.598C155.851 168.791 163.262 169.685 170.243 171.549C170.679 171.665 172.945 171.823 172.944 170.991C172.929 156.576 172.915 141.47 172.901 127.053C172.881 108.24 172.945 70.4889 172.944 69.3909C172.943 68.4579 169.303 69.8409 169.304 70.7709Z" fill="white"/>
    <path d="M66.286 58.029C73.017 52.922 77.877 47.269 86.381 47.269C90.723 47.269 93.629 51.698 93.629 54.404C93.629 56.289 93.123 60.086 88.921 60.086C85.244 60.086 84.179 55.613 85.675 53.139C80.253 53.139 79.962 61.535 88.988 61.535C92.853 61.535 96.834 59.292 96.834 54.632C96.834 51.496 94.61 46.026 86.367 46.026C77.328 46.026 71.552 50.64 64.251 56.11C56.713 61.756 49.904 63.295 40.617 62.345V63.723C40.624 63.724 40.63 63.725 40.637 63.726C40.637 79.113 40.63 160.434 40.63 161.01C40.63 161.942 44.22 163.323 44.22 162.392C44.221 148.472 44.226 72.3 44.227 64.151C52.216 64.748 59.856 62.908 66.286 58.029Z" fill="white"/>
    <path d="M179.445 62.3439C170.158 63.2929 163.348 61.7549 155.811 56.1089C148.51 50.6389 142.734 46.0249 133.695 46.0249C125.452 46.0249 123.227 51.4959 123.227 54.6309C123.227 59.2909 127.208 61.5339 131.074 61.5339C140.099 61.5339 139.808 53.1379 134.387 53.1379C135.882 55.6129 134.818 60.0849 131.141 60.0849C126.939 60.0849 126.433 56.2879 126.433 54.4029C126.433 51.6969 129.337 47.2679 133.68 47.2679C142.183 47.2679 147.043 52.9199 153.775 58.0279C160.204 62.9069 167.844 64.7469 175.836 64.1489C175.837 72.2989 175.842 148.47 175.843 162.39C175.843 163.321 179.433 161.94 179.433 161.008C179.433 160.432 179.427 79.1109 179.426 63.7239C179.433 63.7229 179.44 63.7219 179.447 63.7209V62.3439H179.445Z" fill="white"/>
    <path d="M95.306 108.009C93.084 103.832 85.278 87.811 81.944 81.011C79.702 76.438 76.645 74.7 74.325 74.15C72.731 73.773 64.846 74.156 62.977 74.163V74.289C65.372 75.301 70.144 80.596 71.993 84.597C73.238 87.289 80.703 102.594 83.295 107.5C85.872 112.381 91.536 114.156 93.938 114.451C95.042 114.587 96.19 114.583 97.334 114.557C85.687 129.925 74.959 144.123 76.179 142.439C72.367 147.128 68.733 149.012 65.173 150.091L65.191 150.759C74.497 150.759 81.112 143.905 82.263 142.409C84.289 139.776 94.595 125.984 105.266 111.863V145.217H114.47V101.449C116.436 103.03 118.734 105.513 120.393 108.494C121.283 110.094 125.779 120.64 128.743 124.73C131.231 128.166 135.082 128.705 138.708 128.712C131.966 137.6 125.054 146.7 120.264 152.942C118.621 155.082 116.965 157.154 115.128 159.08C114.398 159.846 110.561 164.199 107.101 164.199C103.304 164.199 100.874 161.23 100.874 158.288C100.874 155.096 102.6 151.773 106.353 150.938C109.918 150.146 112.852 152.042 113.4 152.607C113.4 152.607 117.003 151.594 117.004 151.562C114.953 149.73 109.394 148.654 106.123 149.212C101.06 150.075 96.601 153.454 96.601 158.589C96.601 162.044 100.082 165.751 107.043 165.751C115.413 165.751 120.962 159.368 122.806 157.366C123.705 156.391 144.417 128.88 156.273 113.327H156.253C156.536 112.949 156.773 112.631 156.951 112.388C158.633 110.094 164.597 102.8 161.841 99.6L154.923 99.593V99.981C158.446 102.009 153.172 109.689 150.427 113.328H150.379C147.437 117.203 144.07 121.642 140.603 126.214C139.816 125.431 139.301 124.467 138.762 123.447C137.121 120.336 132.493 111.271 130.097 106.293C128.507 102.99 125.408 99.77 122.271 99.605C119.69 99.471 117.066 99.71 114.47 99.735V99.731C119.331 93.355 123.758 87.612 126.889 83.681C128.57 81.57 130.188 79.468 132.025 77.542C132.755 76.776 136.592 72.423 140.051 72.423C143.848 72.423 146.279 75.392 146.279 78.334C146.279 81.526 144.553 84.85 140.8 85.684C137.235 86.476 134.301 84.58 133.753 84.015C133.753 84.015 130.15 85.027 130.149 85.06C132.2 86.892 137.758 87.968 141.031 87.41C146.094 86.548 150.552 83.168 150.552 78.033C150.552 74.578 147.071 70.871 140.11 70.871C131.739 70.871 126.191 77.255 124.347 79.256C123.705 79.952 119.802 85.016 114.471 92.003V54.339H105.267V104.1C103.244 106.765 101.172 109.495 99.112 112.213C97.573 111.203 96.276 109.834 95.306 108.009Z" fill="white"/>
    <path d="M33.967 174.491L37.832 178.843L37.309 179.308C37.017 178.96 36.721 178.822 36.42 178.894C36.118 178.966 35.89 179.267 35.736 179.796L34.018 185.361L34.111 185.465L38.925 183.838C39.06 183.79 39.213 183.725 39.383 183.646C39.553 183.567 39.673 183.496 39.743 183.434C39.904 183.273 39.974 183.072 39.956 182.83C39.937 182.588 39.789 182.251 39.513 181.819L40.051 181.341L42.521 184.123L41.983 184.601C41.69 184.452 41.408 184.371 41.14 184.36C40.871 184.349 40.472 184.436 39.941 184.622L31.441 187.489C30.064 187.946 28.921 188.091 28.015 187.924C27.109 187.757 26.341 187.319 25.713 186.611C25.164 185.993 24.86 185.389 24.8 184.8C24.74 184.211 24.93 183.722 25.368 183.332C25.717 183.022 26.097 182.858 26.51 182.84C26.922 182.822 27.296 183.002 27.633 183.382C27.899 183.681 28.042 184.004 28.064 184.349C28.086 184.695 27.963 185.049 27.697 185.411C27.512 185.646 27.426 185.844 27.435 186.005C27.444 186.166 27.52 186.326 27.662 186.486C27.919 186.775 28.309 186.924 28.833 186.931C29.356 186.939 29.908 186.837 30.487 186.626L33.552 176.734C33.637 176.408 33.668 176.096 33.643 175.797C33.619 175.498 33.547 175.222 33.43 174.97L33.967 174.491Z" fill="white"/>
    <path d="M49.314 189.9L48.875 190.47C48.608 190.315 48.344 190.259 48.083 190.302C47.822 190.345 47.59 190.499 47.387 190.763L44.702 194.249L50.232 198.509L52.917 195.023C53.112 194.77 53.203 194.516 53.189 194.261C53.174 194.006 53.057 193.76 52.836 193.522L53.275 192.952L57.205 195.979L56.766 196.549C56.448 196.372 56.167 196.311 55.922 196.366C55.677 196.422 55.463 196.58 55.278 196.842L49.021 204.998C48.817 205.262 48.716 205.492 48.718 205.686C48.719 205.881 48.847 206.151 49.101 206.499L48.662 207.069L44.732 204.042L45.171 203.472C45.561 203.621 45.853 203.674 46.047 203.629C46.241 203.585 46.44 203.431 46.643 203.167L49.584 199.349L44.054 195.089L41.113 198.908C40.899 199.164 40.801 199.405 40.821 199.63C40.841 199.856 40.97 200.12 41.209 200.421L40.77 200.992L36.824 197.953L37.263 197.383C37.632 197.515 37.919 197.564 38.123 197.528C38.327 197.492 38.531 197.342 38.735 197.078L45.007 188.933C45.202 188.68 45.288 188.421 45.263 188.158C45.239 187.895 45.126 187.653 44.927 187.431L45.366 186.861L49.314 189.9Z" fill="white"/>
    <path d="M61.331 198.232L65.691 200.639L65.343 201.269C65.037 201.161 64.761 201.15 64.516 201.235C64.271 201.32 64.048 201.559 63.847 201.951L59.053 210.636C58.822 211.026 58.736 211.348 58.794 211.601C58.852 211.854 59.012 212.076 59.273 212.265L58.925 212.895L54.565 210.488L54.913 209.858C55.194 209.983 55.462 210.001 55.717 209.913C55.971 209.825 56.208 209.582 56.427 209.185L61.221 200.5C61.422 200.108 61.495 199.783 61.44 199.524C61.385 199.265 61.233 199.044 60.984 198.861L61.331 198.232Z" fill="white"/>
    <path d="M69.993 202.887L75.032 204.831C76.363 205.345 77.32 205.893 77.903 206.475C78.486 207.057 78.796 207.763 78.833 208.592C78.836 208.808 78.823 209.017 78.794 209.22C78.765 209.423 78.718 209.612 78.65 209.786C78.343 210.582 77.828 211.148 77.105 211.484C76.382 211.819 75.549 211.913 74.607 211.763L74.535 211.95C75.562 212.475 76.277 213.176 76.682 214.054C77.086 214.931 77.119 215.812 76.778 216.695C76.346 217.815 75.629 218.496 74.628 218.738C73.627 218.981 72.386 218.816 70.906 218.245L64.953 215.948L65.212 215.276C65.525 215.354 65.794 215.333 66.019 215.213C66.244 215.092 66.417 214.877 66.537 214.566L70.238 204.975C70.341 204.671 70.352 204.401 70.273 204.163C70.193 203.925 70.014 203.724 69.734 203.559L69.993 202.887ZM71.1 211.074L69.048 216.392L70.131 216.809C71.022 217.167 71.781 217.218 72.41 216.959C73.038 216.702 73.515 216.15 73.842 215.304C74.192 214.396 74.155 213.592 73.732 212.893C73.309 212.194 72.662 211.676 71.791 211.34L71.1 211.074ZM73.325 205.309L71.482 210.086L72.484 210.473C73.201 210.75 73.852 210.747 74.437 210.466C75.021 210.184 75.455 209.697 75.736 209.006C76.026 208.217 76.036 207.536 75.768 206.961C75.499 206.386 74.895 205.917 73.955 205.554L73.325 205.309Z" fill="white"/>
    <path d="M84.803 208.255L94.511 210.196C94.812 210.256 95.026 210.276 95.153 210.253C95.28 210.23 95.39 210.154 95.485 210.024L95.975 210.122L95.273 213.633L94.567 213.492C94.506 212.705 94.294 212.101 93.929 211.682C93.564 211.262 92.865 210.949 91.832 210.743L88.557 210.088L87.569 215.03L89.746 215.465C90.332 215.596 90.778 215.589 91.086 215.442C91.394 215.296 91.592 215.004 91.679 214.567L92.385 214.708L91.679 218.238L90.973 218.097C91.016 217.678 90.944 217.339 90.758 217.08C90.571 216.822 90.295 216.656 89.929 216.583L87.36 216.069L86.227 221.736L90.935 222.677C91.654 222.821 92.336 222.722 92.982 222.383C93.628 222.043 94.088 221.527 94.362 220.834L95.068 220.975L94.374 224.446L82.057 221.984L82.198 221.278C82.53 221.318 82.801 221.253 83.012 221.084C83.222 220.916 83.377 220.617 83.476 220.188L85.421 210.46C85.494 210.026 85.464 209.697 85.333 209.474C85.201 209.25 84.977 209.079 84.66 208.962L84.803 208.255Z" fill="white"/>
    <path d="M101.19 225.161L101.21 224.441C101.49 224.422 101.723 224.318 101.908 224.129C102.094 223.941 102.198 223.667 102.221 223.307L102.431 215.49C102.455 214.103 102.948 213.016 103.91 212.228C104.871 211.44 106.205 211.069 107.911 211.115C109.471 211.157 110.684 211.654 111.553 212.604C112.421 213.555 112.838 214.656 112.805 215.909C112.776 216.976 112.528 217.889 112.061 218.65C111.593 219.411 110.935 219.96 110.085 220.297C109.788 220.422 109.492 220.514 109.197 220.573C108.902 220.632 108.614 220.657 108.335 220.65C107.748 220.634 107.207 220.553 106.71 220.406C106.214 220.259 105.75 220.02 105.319 219.688L105.219 223.387C105.198 223.693 105.287 223.959 105.488 224.184C105.689 224.409 105.942 224.54 106.248 224.575L106.228 225.295L101.19 225.161ZM105.468 214.152L105.377 217.551C105.35 218.057 105.549 218.473 105.974 218.797C106.399 219.122 106.884 219.292 107.431 219.307C108.083 219.338 108.58 219.108 108.92 218.617C109.26 218.126 109.449 217.188 109.486 215.801C109.524 214.402 109.399 213.462 109.112 212.98C108.824 212.499 108.335 212.229 107.643 212.17C107.057 212.128 106.553 212.291 106.129 212.66C105.705 213.029 105.485 213.525 105.468 214.152Z" fill="white"/>
    <path d="M129.414 220.781L130.129 221.475C129.235 222.465 128.379 223.197 127.56 223.672C126.741 224.148 125.875 224.444 124.962 224.563C122.899 224.83 121.137 224.355 119.676 223.139C118.214 221.923 117.351 220.284 117.083 218.221C116.815 216.145 117.224 214.365 118.309 212.88C119.394 211.395 120.876 210.531 122.754 210.289C123.15 210.238 123.524 210.213 123.873 210.215C124.222 210.217 124.597 210.246 124.994 210.302C125.338 210.365 125.608 210.404 125.806 210.419C126.002 210.434 126.18 210.425 126.336 210.391C126.391 210.398 126.452 210.38 126.521 210.337C126.589 210.295 126.671 210.227 126.767 210.134C126.792 210.118 126.816 210.094 126.839 210.064C126.861 210.034 126.885 210.005 126.907 209.975L127.622 209.883L128.045 213.155L127.331 213.247C126.976 212.58 126.411 212.062 125.637 211.691C124.864 211.321 124.053 211.19 123.207 211.3C123.09 211.328 122.969 211.358 122.845 211.387C122.721 211.417 122.589 211.46 122.449 211.519C121.454 211.93 120.797 212.617 120.477 213.579C120.158 214.541 120.134 216.026 120.408 218.035C120.657 219.966 121.183 221.333 121.987 222.137C122.79 222.941 123.925 223.247 125.393 223.057C126.081 222.968 126.75 222.744 127.404 222.384C128.055 222.022 128.725 221.488 129.414 220.781Z" fill="white"/>
    <path d="M132.627 208.943L137.367 207.416L137.588 208.102C137.227 208.373 137.013 208.599 136.945 208.782C136.877 208.965 136.891 209.202 136.985 209.494L139.278 216.614L139.374 216.583L143.36 208.407L143.078 207.532C142.984 207.24 142.828 207.028 142.61 206.895C142.391 206.762 142.114 206.715 141.776 206.753L141.555 206.068L146.295 204.541L146.517 205.226C146.215 205.379 146.019 205.572 145.925 205.805C145.832 206.038 145.835 206.307 145.933 206.612L149.084 216.397C149.187 216.714 149.344 216.94 149.555 217.075C149.767 217.21 150.037 217.245 150.367 217.181L150.588 217.866L145.848 219.393L145.627 218.708C145.906 218.576 146.104 218.394 146.218 218.16C146.332 217.928 146.336 217.646 146.23 217.316L143.894 210.063L143.798 210.094L139.819 218.288L140.137 219.278C140.223 219.587 140.374 219.808 140.592 219.94C140.81 220.073 141.092 220.112 141.439 220.056L141.66 220.742L136.92 222.269L136.699 221.583C136.991 221.447 137.187 221.261 137.286 221.026C137.386 220.791 137.385 220.515 137.282 220.197L134.131 210.412C134.021 210.111 133.86 209.894 133.648 209.759C133.436 209.624 133.17 209.58 132.849 209.628L132.627 208.943Z" fill="white"/>
    <path d="M149.846 202.573L150.548 202.191C150.751 202.202 150.947 202.178 151.137 202.121C151.325 202.064 151.549 201.965 151.807 201.825L159.818 197.466C160.047 197.357 160.238 197.234 160.391 197.097C160.545 196.96 160.69 196.794 160.827 196.598L161.512 196.225L163.233 199.387L162.601 199.731C161.939 199.241 161.292 198.952 160.66 198.863C160.028 198.774 159.406 198.896 158.798 199.227L157.639 199.858L162.973 209.661C163.12 209.96 163.301 210.146 163.516 210.219C163.73 210.292 164.024 210.281 164.396 210.184L164.741 210.817L160.366 213.197L160.022 212.565C160.316 212.268 160.481 212.023 160.519 211.827C160.557 211.631 160.497 211.388 160.337 211.095L155.003 201.293L154.019 201.828C153.282 202.229 152.763 202.721 152.464 203.301C152.164 203.881 152.077 204.578 152.2 205.391L151.568 205.735L149.846 202.573Z" fill="white"/>
    <path d="M165.102 194.228L172.832 188.041C173.071 187.849 173.224 187.698 173.288 187.586C173.352 187.474 173.364 187.341 173.325 187.185L173.716 186.872L175.952 189.667L175.39 190.117C174.748 189.657 174.15 189.431 173.593 189.441C173.037 189.45 172.348 189.784 171.526 190.442L168.919 192.529L172.068 196.464L173.801 195.077C174.278 194.712 174.559 194.366 174.645 194.035C174.732 193.705 174.635 193.366 174.357 193.018L174.919 192.568L177.169 195.379L176.606 195.829C176.313 195.526 176.007 195.364 175.689 195.34C175.372 195.317 175.067 195.422 174.776 195.655L172.73 197.292L176.341 201.805L180.089 198.805C180.661 198.347 181.026 197.761 181.181 197.048C181.335 196.335 181.236 195.65 180.882 194.994L181.444 194.544L183.657 197.308L173.85 205.157L173.4 204.595C173.643 204.366 173.768 204.116 173.775 203.847C173.781 203.577 173.652 203.266 173.387 202.914L167.188 195.169C166.903 194.834 166.632 194.645 166.376 194.602C166.119 194.56 165.845 194.622 165.551 194.788L165.102 194.228Z" fill="white"/>
    <path d="M177.216 183.734L177.747 183.136C177.942 183.077 178.119 182.989 178.277 182.871C178.435 182.753 178.611 182.584 178.806 182.365L184.863 175.545C185.041 175.365 185.179 175.184 185.277 175.003C185.375 174.822 185.455 174.617 185.516 174.386L186.035 173.803L188.726 176.194L188.248 176.732C187.459 176.496 186.752 176.443 186.127 176.575C185.502 176.707 184.959 177.032 184.499 177.55L183.622 178.537L191.967 185.948C192.207 186.179 192.441 186.293 192.667 186.289C192.893 186.285 193.166 186.175 193.483 185.957L194.021 186.436L190.714 190.16L190.176 189.682C190.352 189.303 190.424 189.015 190.394 188.819C190.364 188.622 190.223 188.413 189.974 188.192L181.629 180.781L180.886 181.618C180.328 182.246 180.007 182.884 179.922 183.531C179.838 184.178 179.992 184.864 180.384 185.586L179.906 186.125L177.216 183.734Z" fill="white"/>
    <path d="M7.439 156.059L5.65 150.506L6.326 150.289C6.452 150.726 6.67 150.971 6.979 151.026C7.288 151.081 7.623 150.896 7.983 150.471L11.864 146.041L11.821 145.907L6.694 145.473C6.549 145.464 6.381 145.461 6.191 145.467C6.001 145.472 5.86 145.489 5.771 145.518C5.556 145.601 5.408 145.758 5.325 145.988C5.243 146.218 5.241 146.587 5.32 147.095L4.625 147.319L3.48199 143.77L4.17699 143.546C4.38699 143.801 4.615 143.988 4.858 144.106C5.102 144.224 5.508 144.304 6.075 144.346L15.126 145.117C16.59 145.249 17.707 145.574 18.477 146.091C19.247 146.608 19.778 147.319 20.069 148.221C20.323 149.01 20.356 149.687 20.169 150.253C19.982 150.818 19.605 151.192 19.039 151.375C18.588 151.52 18.168 151.519 17.78 151.37C17.391 151.221 17.119 150.906 16.963 150.422C16.84 150.041 16.84 149.686 16.962 149.359C17.084 149.032 17.343 148.755 17.739 148.529C18.006 148.387 18.168 148.24 18.226 148.088C18.284 147.936 18.28 147.758 18.214 147.555C18.095 147.186 17.795 146.893 17.313 146.677C16.832 146.46 16.279 146.333 15.655 146.295L8.747 154.164C8.534 154.429 8.377 154.704 8.277 154.989C8.177 155.274 8.13 155.556 8.134 155.835L7.439 156.059Z" fill="white"/>
    <path d="M2.232 138.206L1.534 133.284L2.257 133.181C2.371 133.502 2.533 133.732 2.744 133.871C2.955 134.01 3.22101 134.05 3.54001 133.991L7.13601 133.481C7.05801 132.736 6.788 132.134 6.326 131.673C5.865 131.212 5.188 130.869 4.295 130.645C2.797 130.291 1.819 129.9 1.362 129.472C0.905004 129.044 0.621003 128.44 0.510003 127.659C0.476003 127.421 0.461006 127.19 0.463006 126.967C0.466006 126.744 0.481004 126.536 0.508004 126.343L3.74201 125.885L3.84401 126.599C3.63901 126.696 3.488 126.835 3.391 127.017C3.294 127.2 3.259 127.384 3.285 127.569C3.315 127.781 3.40701 127.974 3.56101 128.147C3.71601 128.321 3.95601 128.5 4.28301 128.683C5.57501 129.417 6.35 129.918 6.607 130.185C6.863 130.453 7.087 130.775 7.277 131.153L7.418 131.133C7.425 130.795 7.446 130.441 7.482 130.071C7.519 129.701 7.576 129.363 7.655 129.054C7.846 128.379 8.16701 127.821 8.61601 127.379C9.06601 126.938 9.794 126.51 10.801 126.097C11.643 125.775 12.125 125.585 12.247 125.528C12.369 125.471 12.466 125.409 12.539 125.345C12.892 125.133 13.165 124.848 13.36 124.49C13.555 124.132 13.64 123.765 13.614 123.391L14.398 123.28C14.527 123.518 14.633 123.763 14.717 124.014C14.8 124.265 14.862 124.53 14.902 124.807C15.007 125.548 14.962 126.216 14.766 126.81C14.571 127.405 14.233 127.892 13.754 128.27C13.597 128.414 13.426 128.536 13.243 128.636C13.059 128.737 12.486 128.956 11.523 129.295C10.627 129.625 9.983 129.922 9.59 130.187C9.197 130.452 8.883 130.763 8.647 131.121C8.447 131.446 8.307 131.8 8.224 132.183C8.142 132.566 8.135 132.948 8.202 133.33L13.867 132.527C14.202 132.48 14.452 132.363 14.617 132.178C14.782 131.992 14.868 131.731 14.874 131.392L15.597 131.289L16.295 136.211L15.572 136.314C15.487 136.002 15.336 135.777 15.118 135.64C14.901 135.502 14.624 135.457 14.289 135.504L3.96401 136.968C3.64401 137.027 3.39901 137.149 3.22701 137.336C3.05601 137.522 2.96501 137.778 2.95601 138.103L2.232 138.206Z" fill="white"/>
    <path d="M14.278 118.874L13.548 118.855C13.529 118.574 13.423 118.34 13.232 118.155C13.041 117.97 12.763 117.865 12.398 117.842L4.468 117.631C3.062 117.607 1.959 117.113 1.159 116.149C0.358998 115.185 -0.018002 113.849 0.027998 112.138C0.069998 110.575 0.571998 109.359 1.535 108.489C2.499 107.619 3.616 107.201 4.887 107.235C5.969 107.264 6.896 107.512 7.668 107.981C8.44 108.45 8.998 109.109 9.34 109.961C9.467 110.258 9.561 110.555 9.621 110.851C9.681 111.147 9.707 111.435 9.7 111.715C9.684 112.303 9.602 112.845 9.454 113.343C9.306 113.84 9.063 114.305 8.726 114.737L12.478 114.837C12.789 114.858 13.058 114.769 13.287 114.567C13.516 114.366 13.648 114.112 13.683 113.806L14.413 113.826L14.278 118.874ZM3.108 114.586L6.556 114.678C7.07 114.705 7.491 114.506 7.82 114.08C8.15 113.655 8.321 113.168 8.336 112.62C8.367 111.966 8.133 111.469 7.635 111.127C7.137 110.787 6.185 110.597 4.779 110.56C3.359 110.522 2.405 110.647 1.918 110.935C1.43 111.223 1.156 111.713 1.097 112.407C1.055 112.994 1.22 113.5 1.595 113.925C1.97 114.35 2.473 114.569 3.108 114.586Z" fill="white"/>
    <path d="M13.95 105.029C13.922 104.738 13.794 104.446 13.567 104.153C13.339 103.859 13.045 103.576 12.682 103.305L4.906 97.7389C4.748 97.6279 4.575 97.5379 4.388 97.4689C4.201 97.4009 3.98301 97.3359 3.73301 97.2759C3.57301 97.2459 3.44401 97.3139 3.34401 97.4789C3.24501 97.6439 3.184 97.8609 3.161 98.1279L2.443 97.9939C2.503 97.4479 2.482 96.9519 2.38 96.5039C2.278 96.0559 2.094 95.6589 1.828 95.3099L1.96 94.6009L13.851 91.4719C14.63 91.2779 15.249 91.0759 15.707 90.8689C16.165 90.6619 16.506 90.4029 16.729 90.0909L17.447 90.2249L16.398 95.8609L15.68 95.7269C15.752 95.4139 15.694 95.1349 15.506 94.8889C15.318 94.6429 15.064 94.4909 14.745 94.4309C14.692 94.4209 14.591 94.4259 14.443 94.4459C14.295 94.4659 14.178 94.4819 14.093 94.4929L12.683 94.8629L11.513 101.15L12.595 101.881C13.132 102.253 13.561 102.366 13.883 102.222C14.206 102.078 14.467 101.726 14.668 101.165L15.386 101.298L14.667 105.161L13.95 105.029ZM5.488 96.8279L10.488 100.348L10.568 100.363L11.521 95.2389L11.461 95.2279L5.503 96.7489L5.488 96.8279Z" fill="white"/>
    <path d="M2.09299 82.6419C1.69599 82.5089 1.39799 82.2479 1.19999 81.8579C1.00199 81.4679 0.968992 81.0759 1.09999 80.6839C1.22699 80.3039 1.48299 80.0159 1.86999 79.8209C2.25699 79.6259 2.65499 79.5969 3.06499 79.7339C3.47599 79.8709 3.77399 80.1299 3.96099 80.5089C4.14799 80.8879 4.17599 81.2749 4.04399 81.6679C3.90899 82.0739 3.65199 82.3719 3.27399 82.5629C2.89699 82.7519 2.50299 82.7789 2.09299 82.6419ZM3.38099 78.7819C2.97899 78.6619 2.68399 78.4049 2.49399 78.0109C2.30499 77.6169 2.26999 77.2209 2.38799 76.8239C2.52799 76.4479 2.78699 76.1609 3.16699 75.9639C3.54699 75.7669 3.94199 75.7359 4.35299 75.8739C4.76399 76.0119 5.06199 76.2689 5.24899 76.6479C5.43699 77.0279 5.46399 77.4139 5.33299 77.8069C5.19699 78.2129 4.94099 78.5109 4.56299 78.7019C4.18499 78.8929 3.79199 78.9189 3.38099 78.7819ZM6.74899 77.7929L7.44199 78.0239C7.40899 78.3789 7.45799 78.6599 7.58799 78.8649C7.71899 79.0709 7.93199 79.2229 8.22699 79.3219L18.118 82.6249C18.439 82.7319 18.72 82.7339 18.961 82.6309C19.202 82.5279 19.391 82.3379 19.526 82.0589L20.219 82.2899L18.638 87.0239L17.945 86.7929C18.013 86.5059 17.983 86.2419 17.856 86.0019C17.73 85.7619 17.5 85.5869 17.166 85.4759L7.27499 82.1729C6.95399 82.0659 6.67099 82.0699 6.42599 82.1849C6.18099 82.3009 5.99199 82.4919 5.86099 82.7569L5.16799 82.5259L6.74899 77.7929Z" fill="white"/>
    <path d="M11.285 66.9879L11.935 67.3209C11.831 67.6129 11.826 67.8839 11.918 68.1339C12.011 68.3839 12.208 68.5859 12.509 68.7399L16.483 70.7709L19.667 64.5409L15.692 62.5099C15.403 62.3619 15.133 62.3179 14.882 62.3769C14.632 62.4369 14.409 62.5969 14.215 62.8579L13.565 62.5249L15.827 58.0979L16.477 58.4309C16.361 58.7769 16.354 59.0659 16.456 59.2979C16.558 59.5299 16.756 59.7139 17.051 59.8499L26.346 64.5779C26.647 64.7319 26.894 64.7909 27.087 64.7539C27.28 64.7179 27.525 64.5429 27.822 64.2289L28.472 64.5619L26.21 68.9889L25.56 68.6559C25.634 68.2439 25.631 67.9459 25.55 67.7619C25.469 67.5779 25.279 67.4089 24.977 67.2549L20.623 65.0299L17.439 71.2599L21.793 73.4849C22.088 73.6509 22.346 73.7039 22.566 73.6439C22.787 73.5839 23.024 73.4089 23.278 73.1189L23.928 73.4509L21.657 77.8959L21.007 77.5629C21.069 77.1749 21.063 76.8819 20.988 76.6869C20.914 76.4909 20.726 76.3159 20.425 76.1629L11.139 71.4169C10.85 71.2699 10.577 71.2309 10.321 71.3029C10.065 71.3749 9.845 71.5289 9.663 71.7659L9.013 71.4329L11.285 66.9879Z" fill="white"/>
    <path d="M35.758 49.7479L36.764 49.7399C36.84 51.0809 36.757 52.2119 36.517 53.1319C36.276 54.0519 35.875 54.8769 35.311 55.6069C34.037 57.2569 32.445 58.1649 30.534 58.3269C28.623 58.4899 26.832 57.9269 25.162 56.6379C23.481 55.3409 22.493 53.7769 22.198 51.9449C21.903 50.1139 22.335 48.4469 23.494 46.9449C23.739 46.6279 23.986 46.3459 24.236 46.0989C24.486 45.8529 24.772 45.6099 25.094 45.3689C25.384 45.1709 25.604 45.0069 25.754 44.8779C25.904 44.7499 26.024 44.6179 26.111 44.4819C26.154 44.4479 26.185 44.3919 26.203 44.3129C26.221 44.2339 26.23 44.1269 26.232 43.9929C26.237 43.9639 26.238 43.9299 26.232 43.8919C26.227 43.8539 26.222 43.8169 26.217 43.7789L26.658 43.2069L29.308 45.2519L28.867 45.8229C28.136 45.5969 27.363 45.6249 26.547 45.9059C25.732 46.1879 25.062 46.6679 24.54 47.3449C24.477 47.4489 24.413 47.5549 24.346 47.6629C24.279 47.7719 24.217 47.8969 24.159 48.0379C23.747 49.0369 23.773 49.9939 24.237 50.9089C24.701 51.8249 25.751 52.9049 27.387 54.1499C28.95 55.3569 30.305 55.9629 31.453 55.9709C32.6 55.9789 33.627 55.3949 34.534 54.2209C34.958 53.6709 35.273 53.0359 35.478 52.3159C35.684 51.5989 35.777 50.7419 35.758 49.7479Z" fill="white"/>
    <path d="M35.274 34.3199L35.771 34.8549C35.553 35.1309 35.455 35.3979 35.476 35.6559C35.497 35.9139 35.659 36.1969 35.963 36.5049L38.504 39.2399L39.811 38.0259C41.172 36.7619 42.453 36.0939 43.653 36.0219C44.853 35.9499 45.887 36.3789 46.752 37.3109C47.553 38.1729 47.911 39.1969 47.827 40.3829C47.743 41.5689 47.133 42.6889 45.997 43.7439L41.282 48.1229L40.785 47.5879C41.012 47.3409 41.11 47.0839 41.08 46.8159C41.05 46.5479 40.893 46.2519 40.608 45.9249L33.759 38.5519C33.465 38.2349 33.189 38.0569 32.934 38.0169C32.678 37.9769 32.41 38.0519 32.128 38.2389L31.631 37.7039L35.274 34.3199ZM39.235 40.0279L43.487 44.6069L44.398 43.7609C45.151 43.0799 45.51 42.3959 45.474 41.7089C45.438 41.0219 45.089 40.3219 44.426 39.6089C43.708 38.8359 42.998 38.4059 42.297 38.3189C41.596 38.2319 40.874 38.5249 40.13 39.1959L39.235 40.0279Z" fill="white"/>
    <path d="M44.886 26.008L49.041 23.278L49.442 23.888C49.2 24.128 49.061 24.373 49.025 24.623C48.989 24.873 49.067 25.13 49.256 25.394L51.251 28.429C51.891 28.041 52.321 27.539 52.542 26.925C52.762 26.311 52.783 25.553 52.605 24.65C52.287 23.144 52.224 22.093 52.416 21.497C52.608 20.901 53.033 20.387 53.692 19.954C53.893 19.822 54.095 19.71 54.298 19.617C54.501 19.524 54.695 19.45 54.881 19.391L56.675 22.121L56.072 22.517C55.897 22.373 55.706 22.296 55.5 22.286C55.293 22.276 55.112 22.323 54.956 22.425C54.777 22.543 54.642 22.708 54.551 22.922C54.459 23.136 54.401 23.429 54.374 23.803C54.261 25.285 54.138 26.199 54.005 26.546C53.873 26.892 53.676 27.232 53.415 27.565L53.493 27.684C53.802 27.546 54.131 27.414 54.481 27.289C54.831 27.164 55.162 27.072 55.475 27.013C56.167 26.898 56.808 26.95 57.4 27.168C57.991 27.387 58.688 27.863 59.491 28.598C60.142 29.223 60.519 29.577 60.623 29.663C60.727 29.749 60.824 29.81 60.913 29.849C61.255 30.078 61.629 30.203 62.037 30.227C62.444 30.251 62.812 30.171 63.139 29.988L63.574 30.649C63.414 30.868 63.238 31.068 63.046 31.251C62.854 31.434 62.641 31.602 62.407 31.756C61.781 32.167 61.158 32.41 60.537 32.487C59.915 32.564 59.331 32.466 58.785 32.194C58.588 32.113 58.405 32.011 58.236 31.887C58.067 31.763 57.624 31.339 56.906 30.612C56.226 29.942 55.682 29.487 55.275 29.244C54.868 29.002 54.452 28.85 54.028 28.789C53.649 28.747 53.268 28.77 52.887 28.859C52.506 28.948 52.157 29.105 51.84 29.328L54.982 34.109C55.168 34.392 55.38 34.568 55.618 34.638C55.856 34.708 56.129 34.674 56.438 34.535L56.839 35.145L52.684 37.875L52.283 37.265C52.529 37.055 52.667 36.822 52.7 36.566C52.732 36.311 52.655 36.042 52.469 35.759L46.742 27.044C46.552 26.78 46.337 26.61 46.095 26.535C45.853 26.46 45.584 26.487 45.286 26.618L44.886 26.008Z" fill="white"/>
    <path d="M61.884 15.536L66.495 13.625L66.775 14.3C66.437 14.602 66.242 14.847 66.191 15.036C66.139 15.226 66.173 15.465 66.292 15.752L69.197 22.762L69.289 22.723L72.575 14.158L72.218 13.296C72.099 13.009 71.925 12.807 71.695 12.689C71.466 12.572 71.183 12.546 70.849 12.611L70.57 11.937L75.181 10.026L75.461 10.701C75.173 10.879 74.993 11.089 74.919 11.331C74.846 11.574 74.872 11.845 74.996 12.145L78.989 21.779C79.118 22.092 79.295 22.307 79.518 22.427C79.742 22.547 80.015 22.562 80.339 22.471L80.619 23.146L76.008 25.057L75.728 24.382C75.997 24.227 76.178 24.028 76.272 23.783C76.366 23.539 76.346 23.255 76.211 22.929L73.252 15.788L73.16 15.826L69.882 24.41L70.286 25.385C70.398 25.69 70.568 25.901 70.798 26.018C71.028 26.135 71.313 26.152 71.655 26.069L71.935 26.744L67.324 28.655L67.044 27.98C67.325 27.82 67.505 27.617 67.584 27.372C67.663 27.127 67.638 26.848 67.509 26.536L63.516 16.903C63.379 16.608 63.2 16.401 62.976 16.281C62.753 16.161 62.483 16.138 62.165 16.211L61.884 15.536Z" fill="white"/>
    <path d="M82.038 7.95196L86.935 6.98796L87.076 7.70496C86.685 7.93396 86.446 8.13596 86.358 8.31096C86.27 8.48596 86.256 8.72796 86.316 9.03296L87.781 16.478L87.879 16.459L92.79 8.70996L92.61 7.79396C92.55 7.48896 92.419 7.25596 92.217 7.09596C92.015 6.93596 91.743 6.85496 91.403 6.85296L91.262 6.13596L96.159 5.17196L96.3 5.88896C95.983 6.00696 95.764 6.17696 95.645 6.40096C95.525 6.62396 95.497 6.89496 95.56 7.21396L97.574 17.446C97.639 17.778 97.77 18.025 97.965 18.186C98.16 18.347 98.426 18.415 98.761 18.391L98.902 19.107L94.005 20.071L93.864 19.354C94.158 19.255 94.375 19.095 94.515 18.875C94.655 18.655 94.692 18.372 94.624 18.026L93.131 10.442L93.033 10.461L88.126 18.23L88.33 19.265C88.379 19.586 88.505 19.827 88.707 19.987C88.909 20.148 89.185 20.221 89.537 20.206L89.678 20.923L84.781 21.887L84.64 21.17C84.947 21.068 85.163 20.905 85.289 20.68C85.415 20.456 85.446 20.178 85.38 19.846L83.366 9.61396C83.29 9.29796 83.155 9.05896 82.96 8.89796C82.765 8.73696 82.504 8.66096 82.179 8.66896L82.038 7.95196ZM88.566 3.54396C89.484 3.36296 90.218 3.06396 90.77 2.64596C91.321 2.22696 91.565 1.85796 91.502 1.53996C91.483 1.44696 91.435 1.37396 91.356 1.32096C91.277 1.26796 91.186 1.25096 91.081 1.27196C91.015 1.28496 90.949 1.31196 90.882 1.35296C90.815 1.39396 90.71 1.46296 90.565 1.55996C90.255 1.78596 89.957 1.85896 89.669 1.77796C89.38 1.69696 89.21 1.52396 89.158 1.25796C89.109 1.00596 89.169 0.776957 89.34 0.570957C89.51 0.364957 89.773 0.226959 90.127 0.157959C90.638 0.0569591 91.096 0.118957 91.501 0.341957C91.906 0.565957 92.154 0.909959 92.246 1.37396C92.397 2.14396 92.139 2.90496 91.47 3.65696C90.801 4.40896 89.928 4.89096 88.853 5.10196C87.765 5.31596 86.769 5.20196 85.864 4.75996C84.959 4.31796 84.438 3.71096 84.3 2.93796C84.196 2.47596 84.288 2.06496 84.578 1.70496C84.868 1.34496 85.275 1.11296 85.8 1.00996C86.143 0.955958 86.436 0.987959 86.677 1.10596C86.918 1.22396 87.064 1.40896 87.113 1.66096C87.152 1.92896 87.053 2.15496 86.818 2.33896C86.582 2.52396 86.284 2.56796 85.925 2.47296C85.741 2.44096 85.611 2.41796 85.534 2.40596C85.456 2.39396 85.391 2.39196 85.339 2.40296C85.221 2.42596 85.136 2.47696 85.083 2.55596C85.03 2.63596 85.02 2.72096 85.051 2.80996C85.109 3.17096 85.496 3.42596 86.213 3.57396C86.93 3.72196 87.714 3.71196 88.566 3.54396Z" fill="white"/>
    <path d="M124.355 5.22095L129.239 6.15395L129.101 6.87094C128.76 6.87494 128.49 6.95395 128.29 7.10895C128.09 7.26395 127.967 7.50195 127.919 7.82295L127.237 11.3899C127.967 11.5569 128.625 11.4969 129.211 11.2089C129.796 10.9219 130.34 10.3919 130.841 9.61995C131.661 8.31695 132.348 7.51895 132.901 7.22495C133.454 6.93195 134.117 6.85795 134.892 7.00595C135.128 7.05095 135.351 7.11095 135.561 7.18595C135.772 7.26095 135.963 7.34195 136.137 7.42995L135.524 10.6379L134.816 10.5029C134.791 10.2779 134.708 10.0899 134.566 9.93895C134.424 9.78795 134.262 9.69495 134.079 9.65995C133.869 9.61995 133.656 9.64495 133.442 9.73495C133.227 9.82495 132.981 9.99495 132.702 10.2439C131.589 11.2289 130.864 11.7999 130.528 11.9559C130.192 12.1119 129.814 12.2189 129.395 12.2759L129.369 12.4159C129.686 12.5319 130.015 12.6669 130.352 12.8209C130.69 12.9749 130.992 13.1389 131.258 13.3139C131.834 13.7129 132.259 14.1969 132.531 14.7659C132.803 15.3349 132.971 16.1619 133.037 17.2479C133.068 18.1489 133.092 18.6659 133.107 18.7999C133.122 18.9339 133.149 19.0459 133.186 19.1349C133.272 19.5369 133.454 19.8879 133.729 20.1889C134.005 20.4889 134.325 20.6889 134.687 20.7849L134.539 21.5619C134.271 21.6069 134.006 21.6289 133.741 21.6259C133.476 21.6229 133.206 21.5959 132.93 21.5429C132.195 21.4019 131.577 21.1439 131.078 20.7659C130.578 20.3879 130.227 19.9119 130.024 19.3349C129.939 19.1399 129.878 18.9389 129.843 18.7319C129.807 18.5259 129.785 17.9119 129.776 16.8919C129.755 15.9369 129.682 15.2319 129.558 14.7739C129.435 14.3159 129.243 13.9189 128.981 13.5789C128.738 13.2849 128.448 13.0369 128.113 12.8349C127.777 12.6329 127.418 12.5029 127.035 12.4429L125.961 18.0629C125.898 18.3949 125.927 18.6689 126.049 18.8849C126.171 19.1009 126.391 19.2669 126.709 19.3829L126.572 20.1009L121.688 19.1679L121.826 18.4509C122.148 18.4719 122.41 18.4009 122.611 18.2399C122.812 18.0789 122.944 17.8319 123.007 17.4999L124.964 7.25695C125.012 6.93595 124.975 6.66395 124.855 6.44095C124.734 6.21795 124.521 6.04995 124.216 5.93695L124.355 5.22095Z" fill="white"/>
    <path d="M136.963 21.46C137.254 21.484 137.565 21.41 137.894 21.238C138.224 21.067 138.554 20.826 138.885 20.518L145.741 13.852C145.879 13.716 145.998 13.562 146.098 13.391C146.199 13.22 146.301 13.016 146.405 12.781C146.463 12.629 146.419 12.49 146.274 12.363C146.129 12.236 145.927 12.137 145.668 12.068L145.927 11.385C146.453 11.541 146.947 11.609 147.405 11.587C147.863 11.565 148.288 11.455 148.677 11.255L149.352 11.511L150.323 23.769C150.377 24.57 150.465 25.215 150.588 25.702C150.71 26.19 150.904 26.571 151.172 26.846L150.913 27.529L145.553 25.497L145.812 24.814C146.107 24.94 146.392 24.933 146.667 24.791C146.941 24.649 147.137 24.427 147.252 24.123C147.272 24.073 147.284 23.973 147.291 23.823C147.297 23.674 147.303 23.556 147.307 23.471L147.193 22.017L141.214 19.751L140.303 20.686C139.842 21.148 139.654 21.55 139.739 21.893C139.823 22.236 140.123 22.556 140.639 22.853L140.38 23.536L136.706 22.143L136.963 21.46ZM146.536 14.587L142.185 18.883L142.156 18.959L147.03 20.806L147.051 20.749L146.611 14.616L146.536 14.587Z" fill="white"/>
    <path d="M157.968 14.871L158.667 15.264C158.765 15.444 158.889 15.598 159.038 15.729C159.186 15.859 159.39 15.997 159.646 16.141L167.615 20.618C167.83 20.754 168.036 20.85 168.234 20.908C168.432 20.965 168.651 20.998 168.89 21.009L169.572 21.392L167.783 24.576L167.154 24.222C167.222 23.391 167.126 22.682 166.867 22.094C166.607 21.506 166.174 21.042 165.568 20.701L164.415 20.053L158.87 29.923C158.692 30.211 158.63 30.466 158.681 30.689C158.732 30.912 158.898 31.156 159.178 31.422L158.82 32.059L154.468 29.614L154.826 28.977C155.235 29.067 155.533 29.076 155.72 29.002C155.907 28.928 156.083 28.745 156.249 28.45L161.793 18.58L160.814 18.03C160.081 17.617 159.386 17.441 158.732 17.5C158.078 17.56 157.436 17.862 156.808 18.409L156.178 18.055L157.968 14.871Z" fill="white"/>
    <path d="M178.145 27.944C179.717 29.188 180.591 30.79 180.77 32.751C180.948 34.712 180.399 36.499 179.124 38.11C177.865 39.701 176.27 40.6339 174.34 40.9089C172.41 41.1839 170.648 40.691 169.056 39.43C167.452 38.161 166.565 36.5569 166.394 34.6199C166.223 32.6829 166.768 30.918 168.027 29.327C169.293 27.707 170.897 26.7609 172.842 26.4889C174.787 26.2169 176.554 26.702 178.145 27.944ZM177.478 28.7869C176.379 27.9349 175.302 27.7249 174.245 28.1559C173.188 28.5869 171.985 29.666 170.636 31.393C169.284 33.101 168.522 34.511 168.349 35.624C168.174 36.737 168.633 37.7249 169.723 38.5869C170.802 39.4409 171.866 39.6579 172.914 39.2369C173.963 38.8159 175.163 37.7519 176.515 36.0449C177.874 34.3269 178.643 32.904 178.82 31.776C178.997 30.648 178.548 29.6509 177.478 28.7869Z" fill="white"/>
    <path d="M188.752 37.7799L191.959 41.2569L185.938 52.2939C185.616 52.8629 185.448 53.2729 185.431 53.5249C185.414 53.7769 185.486 54.0279 185.646 54.2809L185.109 54.7759L182.581 52.0359L187.962 42.1899L187.799 42.0129C186.625 42.7149 185.345 43.4319 183.959 44.1639C182.574 44.8959 181.484 45.4109 180.69 45.7069C179.576 46.1349 178.685 46.3469 178.02 46.3429C177.354 46.3389 176.776 46.0719 176.287 45.5419C175.925 45.1489 175.743 44.7429 175.744 44.3249C175.744 43.9069 175.898 43.5549 176.207 43.2709C176.465 43.0329 176.773 42.9129 177.13 42.9099C177.487 42.9079 177.797 43.0499 178.06 43.3339C178.115 43.3929 178.165 43.4689 178.213 43.5609C178.261 43.6529 178.312 43.7569 178.363 43.8729C178.514 44.2959 178.601 44.5249 178.624 44.5599C178.645 44.5939 178.675 44.6309 178.712 44.6699C178.929 44.9059 179.312 44.9519 179.861 44.8099C180.41 44.6669 181.399 44.2539 182.831 43.5699C184.125 42.9389 185.259 42.3479 186.231 41.7959C187.203 41.2439 187.889 40.7849 188.287 40.4189C188.615 40.1159 188.786 39.7979 188.802 39.4659C188.818 39.1329 188.698 38.8199 188.447 38.5259L188.216 38.2759L188.752 37.7799Z" fill="white"/>
    <path d="M199.257 49.9819L201.917 54.2049L201.3 54.5939C200.946 54.3119 200.671 54.1609 200.476 54.1419C200.28 54.1229 200.05 54.1969 199.788 54.3619L193.368 58.4069L193.421 58.4919L202.418 60.2869L203.207 59.7889C203.471 59.6229 203.641 59.4169 203.717 59.1719C203.794 58.9259 203.772 58.6439 203.652 58.3249L204.27 57.9359L206.93 62.1589L206.312 62.5479C206.088 62.2939 205.851 62.1519 205.599 62.1209C205.348 62.0899 205.085 62.1609 204.81 62.3329L195.988 67.8919C195.701 68.0719 195.518 68.2829 195.438 68.5229C195.357 68.7629 195.389 69.0349 195.533 69.3389L194.915 69.7289L192.254 65.5059L192.872 65.1169C193.07 65.3549 193.298 65.4999 193.554 65.5519C193.811 65.6039 194.087 65.5359 194.385 65.3479L200.925 61.2269L200.872 61.1419L191.858 59.3579L190.965 59.9209C190.683 60.0829 190.503 60.2859 190.427 60.5319C190.35 60.7779 190.381 61.0619 190.521 61.3849L189.903 61.7739L187.243 57.5509L187.86 57.1619C188.066 57.4119 188.296 57.5549 188.55 57.5919C188.805 57.6289 189.075 57.5569 189.363 57.3769L198.185 51.8179C198.453 51.6329 198.626 51.4219 198.707 51.1809C198.787 50.9409 198.765 50.6709 198.64 50.3699L199.257 49.9819Z" fill="white"/>
    <path d="M209.882 68.026L211.717 72.668L211.038 72.937C210.874 72.671 210.668 72.49 210.42 72.395C210.171 72.299 209.899 72.317 209.602 72.449L199.149 76.581L201.331 82.099L211.783 77.967C212.072 77.853 212.277 77.682 212.399 77.454C212.519 77.226 212.549 76.945 212.49 76.61L213.17 76.341L215.005 80.983L214.325 81.252C214.152 80.961 213.945 80.777 213.704 80.7C213.462 80.623 213.19 80.644 212.889 80.763L203.362 84.53C203.097 84.634 202.901 84.744 202.772 84.86C202.643 84.976 202.527 85.197 202.424 85.526C202.244 86.028 202.041 86.417 201.817 86.693C201.591 86.969 201.302 87.177 200.95 87.316C200.196 87.614 199.407 87.542 198.585 87.098C197.763 86.654 197.164 85.96 196.791 85.015C196.663 84.692 196.556 84.31 196.469 83.87C196.383 83.43 196.314 82.961 196.263 82.464C196.24 82.186 196.226 81.911 196.221 81.64C196.215 81.369 196.218 80.952 196.227 80.387C196.242 79.835 196.226 79.335 196.179 78.887C196.133 78.438 196.063 78.095 195.97 77.86C195.901 77.686 195.817 77.565 195.717 77.497C195.617 77.428 195.517 77.414 195.416 77.454C195.349 77.466 195.303 77.498 195.279 77.551C195.257 77.603 195.262 77.673 195.297 77.76L195.411 77.995L195.4 78.021C195.446 78.175 195.44 78.317 195.383 78.448C195.325 78.578 195.215 78.676 195.051 78.74C194.875 78.81 194.695 78.795 194.51 78.696C194.325 78.596 194.18 78.431 194.073 78.2C193.961 77.914 193.974 77.646 194.116 77.397C194.257 77.147 194.472 76.965 194.762 76.851C195.354 76.617 195.947 76.738 196.542 77.214C197.137 77.69 197.593 78.383 197.908 79.293C198.073 79.745 198.198 80.246 198.284 80.793C198.369 81.341 198.427 82.019 198.455 82.827C198.516 84.01 198.561 84.714 198.592 84.939C198.623 85.164 198.675 85.37 198.749 85.556C198.892 85.916 199.122 86.177 199.44 86.339C199.758 86.5 200.086 86.514 200.426 86.38C200.804 86.231 201.049 85.969 201.162 85.593C201.275 85.217 201.256 84.837 201.103 84.452L196.674 73.248L197.353 72.979C197.487 73.242 197.678 73.425 197.93 73.527C198.181 73.629 198.47 73.615 198.797 73.485L208.495 69.652C208.804 69.515 209.018 69.322 209.139 69.074C209.26 68.826 209.28 68.566 209.202 68.295L209.882 68.026Z" fill="white"/>
    <path d="M217.787 92.1799L217.071 92.3279C216.948 91.9989 216.77 91.7759 216.54 91.6599C216.309 91.5439 215.982 91.5359 215.561 91.6379L211.905 92.3939L212.266 94.1409C212.643 95.9599 212.55 97.4019 211.991 98.4659C211.43 99.5299 210.527 100.191 209.283 100.448C208.131 100.686 207.069 100.462 206.098 99.7759C205.127 99.0889 204.485 97.9869 204.171 96.4689L202.867 90.1679L203.583 90.0199C203.677 90.3419 203.846 90.5589 204.091 90.6719C204.335 90.7849 204.67 90.8049 205.097 90.7299L214.951 88.6919C215.375 88.6049 215.67 88.4619 215.837 88.2629C216.003 88.0649 216.078 87.7969 216.064 87.4589L216.78 87.3109L217.787 92.1799ZM210.852 92.6109L204.733 93.8769L204.985 95.0939C205.177 96.0909 205.576 96.7529 206.182 97.0779C206.787 97.4029 207.568 97.4669 208.521 97.2689C209.554 97.0559 210.29 96.6709 210.728 96.1169C211.166 95.5629 211.29 94.7929 211.1 93.8089L210.852 92.6109Z" fill="white"/>
    <path d="M219.86 104.132L220.084 109.098L219.354 109.131C219.272 108.8 219.132 108.555 218.936 108.397C218.739 108.238 218.479 108.173 218.155 108.201L214.527 108.365C214.534 109.114 214.745 109.74 215.16 110.242C215.575 110.745 216.217 111.151 217.084 111.46C218.541 111.957 219.477 112.439 219.891 112.909C220.304 113.378 220.53 114.007 220.565 114.795C220.576 115.035 220.569 115.267 220.545 115.488C220.521 115.71 220.486 115.915 220.441 116.105L217.178 116.251L217.145 115.53C217.358 115.453 217.522 115.329 217.636 115.157C217.75 114.984 217.803 114.805 217.794 114.618C217.785 114.404 217.711 114.203 217.574 114.016C217.437 113.828 217.215 113.627 216.907 113.414C215.691 112.559 214.968 111.986 214.738 111.696C214.509 111.405 214.317 111.063 214.164 110.668L214.022 110.674C213.983 111.01 213.927 111.361 213.856 111.725C213.784 112.09 213.694 112.421 213.585 112.721C213.33 113.374 212.958 113.9 212.468 114.296C211.979 114.692 211.212 115.048 210.171 115.362C209.301 115.602 208.803 115.745 208.677 115.791C208.55 115.836 208.448 115.888 208.369 115.945C207.998 116.122 207.698 116.38 207.47 116.717C207.242 117.054 207.121 117.412 207.112 117.787L206.322 117.823C206.216 117.573 206.134 117.32 206.074 117.061C206.015 116.803 205.979 116.534 205.967 116.253C205.934 115.505 206.043 114.845 206.294 114.272C206.546 113.699 206.929 113.247 207.441 112.917C207.611 112.789 207.793 112.684 207.986 112.602C208.178 112.519 208.769 112.356 209.76 112.111C210.684 111.869 211.354 111.634 211.77 111.408C212.186 111.182 212.529 110.902 212.798 110.569C213.028 110.264 213.202 109.925 213.321 109.552C213.439 109.178 213.483 108.799 213.452 108.412L207.737 108.669C207.399 108.684 207.138 108.776 206.957 108.945C206.775 109.114 206.665 109.366 206.626 109.702L205.897 109.735L205.673 104.769L206.402 104.736C206.457 105.055 206.586 105.293 206.79 105.451C206.993 105.609 207.264 105.68 207.602 105.665L218.02 105.197C218.343 105.169 218.6 105.071 218.789 104.902C218.977 104.733 219.092 104.487 219.132 104.164L219.86 104.132Z" fill="white"/>
    <path d="M220.317 122.247L219.72 127.203L218.994 127.116C218.897 126.673 218.779 126.383 218.64 126.245C218.499 126.107 218.276 126.019 217.966 125.982L210.433 125.074L210.421 125.174L216.273 132.239L217.2 132.35C217.509 132.388 217.77 132.335 217.985 132.192C218.2 132.049 218.36 131.817 218.467 131.493L219.193 131.58L218.596 136.536L217.87 136.449C217.856 136.111 217.762 135.85 217.586 135.668C217.41 135.486 217.162 135.375 216.84 135.335L206.486 134.088C206.15 134.047 205.875 134.095 205.662 134.231C205.447 134.367 205.301 134.598 205.221 134.925L204.495 134.838L205.092 129.882L205.818 129.969C205.822 130.279 205.906 130.535 206.073 130.737C206.239 130.939 206.497 131.061 206.846 131.103L214.521 132.028L214.533 131.928L208.661 124.861L207.614 124.735C207.293 124.683 207.025 124.728 206.81 124.871C206.595 125.013 206.44 125.253 206.345 125.592L205.62 125.505L206.217 120.549L206.942 120.636C206.944 120.959 207.033 121.216 207.208 121.405C207.382 121.594 207.638 121.709 207.974 121.75L218.328 122.997C218.651 123.022 218.92 122.967 219.135 122.831C219.348 122.695 219.501 122.472 219.594 122.16L220.317 122.247Z" fill="white"/>
    <path d="M217.382 142.243L215.905 147.011L215.207 146.795C215.191 146.342 215.127 146.036 215.015 145.875C214.902 145.714 214.697 145.587 214.4 145.495L207.152 143.249L207.123 143.345L211.61 151.346L212.502 151.622C212.799 151.714 213.065 151.709 213.303 151.608C213.539 151.506 213.74 151.306 213.904 151.007L214.601 151.223L213.124 155.991L212.426 155.775C212.473 155.44 212.427 155.167 212.287 154.955C212.146 154.744 211.922 154.59 211.612 154.494L201.651 151.408C201.328 151.308 201.048 151.305 200.814 151.401C200.579 151.496 200.393 151.697 200.255 152.004L199.557 151.788L201.035 147.02L201.732 147.236C201.68 147.542 201.717 147.808 201.845 148.037C201.972 148.266 202.204 148.432 202.54 148.536L209.924 150.824L209.953 150.728L205.446 142.721L204.438 142.409C204.131 142.3 203.86 142.296 203.624 142.398C203.387 142.5 203.191 142.708 203.037 143.024L202.339 142.808L203.817 138.04L204.514 138.256C204.458 138.574 204.499 138.842 204.637 139.06C204.775 139.277 205.005 139.436 205.328 139.537L215.289 142.623C215.603 142.706 215.877 142.701 216.112 142.605C216.346 142.51 216.538 142.317 216.684 142.027L217.382 142.243ZM218.162 150.081C217.885 150.974 217.8 151.763 217.906 152.447C218.013 153.131 218.221 153.52 218.532 153.616C218.622 153.644 218.71 153.636 218.794 153.593C218.879 153.549 218.937 153.476 218.968 153.374C218.989 153.31 218.996 153.239 218.992 153.161C218.987 153.082 218.976 152.957 218.96 152.784C218.908 152.404 218.985 152.106 219.194 151.891C219.402 151.676 219.635 151.608 219.894 151.688C220.139 151.764 220.312 151.926 220.412 152.174C220.513 152.422 220.51 152.718 220.402 153.063C220.248 153.561 219.976 153.935 219.588 154.185C219.198 154.435 218.778 154.49 218.326 154.351C217.576 154.119 217.03 153.53 216.685 152.583C216.341 151.637 216.331 150.641 216.656 149.594C216.984 148.534 217.557 147.712 218.377 147.126C219.195 146.54 219.978 146.37 220.723 146.615C221.179 146.742 221.496 147.019 221.676 147.446C221.856 147.872 221.866 148.341 221.708 148.851C221.592 149.179 221.425 149.421 221.207 149.577C220.988 149.733 220.756 149.773 220.511 149.697C220.257 149.604 220.105 149.41 220.055 149.115C220.004 148.82 220.107 148.536 220.361 148.265C220.476 148.119 220.558 148.015 220.606 147.953C220.654 147.89 220.685 147.834 220.701 147.783C220.737 147.668 220.732 147.569 220.687 147.485C220.642 147.401 220.573 147.352 220.478 147.337C220.133 147.216 219.725 147.436 219.254 147.997C218.783 148.556 218.418 149.251 218.162 150.081Z" fill="white"/>
</svg>
