<?xml version="1.0" encoding="UTF-8"?>
<!DOCTYPE svg PUBLIC "-//W3C//DTD SVG 1.1//EN" "http://www.w3.org/Graphics/SVG/1.1/DTD/svg11.dtd">
<!-- Creator: CorelDRAW 2020 -->
<svg xmlns="http://www.w3.org/2000/svg" xml:space="preserve" width="443px" height="200px" version="1.1" style="shape-rendering:geometricPrecision; text-rendering:geometricPrecision; image-rendering:optimizeQuality; fill-rule:evenodd; clip-rule:evenodd"
viewBox="0 0 443 200"
 xmlns:xlink="http://www.w3.org/1999/xlink"
 xmlns:xodm="http://www.corel.com/coreldraw/odm/2003">
 <defs>
  <style type="text/css">
   <![CDATA[
    .fil1 {fill:#8BC751;fill-rule:nonzero}
    .fil2 {fill:white;fill-rule:nonzero}
    .fil0 {fill:white;fill-rule:nonzero}
   ]]>
  </style>
 </defs>
 <g id="Слой_x0020_1">
  <metadata id="CorelCorpID_0Corel-Layer"/>
  <g id="_1270917112">
   <path class="fil0" d="M325.94 14.59c0.02,-0.01 1.56,-0.67 5.39,-0.85 -0.17,3.79 -0.83,5.34 -0.85,5.39l-0.44 0.96 5.48 0 1.06 -0.01 -0.44 -0.95c-0.01,-0.02 -0.7,-1.56 -0.88,-5.39 3.86,0.17 5.41,0.84 5.42,0.85l0.96 0.44 -0.01 -6.53 -0.95 0.44c-0.02,0 -1.57,0.69 -5.42,0.87 0.18,-3.85 0.87,-5.4 0.88,-5.41l0.45 -0.96 -6.53 0 0.42 0.95c0,0.02 0.67,1.57 0.85,5.42 -3.83,-0.19 -5.37,-0.87 -5.38,-0.87l-0.96 -0.45 0 6.52 0.95 -0.42z"/>
   <polygon class="fil0" points="439.92,54.64 226.71,54.64 226.71,60.63 439.92,60.63 "/>
   <path class="fil0" d="M307.71 28.9c9.9,0 14.84,6.95 14.84,6.95l7.45 0c0,0 -5.26,-13.01 -22.09,-13.01 -21.42,0 -26.55,13.75 -60.64,13.75 -8.52,0 -20.24,-1.01 -20.56,-1.01l0 5.85c0,0 6.58,1.21 20.17,1.21 38.56,0 41.46,-13.74 60.83,-13.74z"/>
   <path class="fil0" d="M336.62 35.85l7.46 0c0,0 4.93,-6.95 14.83,-6.95 19.38,0 22.27,13.74 60.83,13.74 13.59,0 20.18,-1.21 20.18,-1.21l-0.01 -5.85c-0.32,0 -12.03,1.01 -20.56,1.01 -34.09,0 -39.22,-13.75 -60.64,-13.75 -16.82,0 -22.09,13.01 -22.09,13.01z"/>
   <path class="fil0" d="M418.53 158.17l-8.22 12.37 -8.22 -12.37c-0.78,-1.14 -2.33,-1.43 -3.46,-0.66 -1.14,0.77 -1.44,2.33 -0.66,3.46l9.85 14.48 0 9.5c0,1.38 1.11,2.49 2.49,2.49 1.38,0 2.49,-1.11 2.49,-2.49l0 -9.5 9.85 -14.48c0.78,-1.13 0.48,-2.69 -0.66,-3.46 -1.13,-0.77 -2.68,-0.48 -3.46,0.66z"/>
   <path class="fil0" d="M337.34 157.3c-1.38,0 -2.49,1.11 -2.49,2.48 0,0 -0.01,13.05 -0.01,16.87 0,3.24 -3.43,6.09 -7.75,6.09 -4.65,0 -7.75,-3.18 -7.75,-6.15 0,-3.82 -0.01,-16.81 -0.01,-16.81 0,-1.37 -1.11,-2.48 -2.49,-2.48 -1.38,0 -2.49,1.11 -2.49,2.49 0,0 0.01,12.92 0.01,16.38 0,6.92 5.92,11.56 12.73,11.56 6.8,0 12.73,-4.63 12.73,-11.56 0,-1.42 0.01,-16.38 0.01,-16.38 0,-1.38 -1.11,-2.49 -2.49,-2.49z"/>
   <path class="fil0" d="M266.69 98.25c-0.02,-2.67 -0.04,-5.03 -0.04,-6.18 0,-0.93 0.01,-3.76 5.05,-3.8l2.94 -0.02 0.08 0c4.25,0 5.78,2.47 5.8,4.79 0.01,1.35 -0.49,2.57 -1.42,3.45 -1.16,1.1 -2.98,1.69 -5.26,1.71l-7.15 0.05zm15.84 1.86c1.95,-1.84 3,-4.37 2.98,-7.11 -0.04,-4.7 -3.43,-9.74 -10.79,-9.74l-0.11 0 -2.94 0.03c-6.16,0.04 -9.99,3.4 -10.01,8.77 0,3.59 0.15,18.36 0.16,18.99 0.01,1.37 1.13,2.46 2.49,2.46l0.03 0c1.38,-0.01 2.48,-1.14 2.47,-2.52 0,-0.07 -0.08,-7.75 -0.08,-7.75l7.15 -0.06c3.56,-0.02 6.55,-1.08 8.65,-3.07z"/>
   <path class="fil0" d="M385.77 88.14c1.38,0 2.5,-1.11 2.5,-2.49 0,-1.38 -1.12,-2.49 -2.5,-2.49l-16.81 0c-1.38,0 -2.49,1.11 -2.5,2.49 0,0.62 -0.03,15.39 0,18.98 0.06,5.37 3.92,8.7 10.08,8.7l9.23 0c1.38,0 2.5,-1.12 2.5,-2.49 0,-1.38 -1.12,-2.5 -2.5,-2.5l-9.23 0c-5.05,0 -5.08,-2.83 -5.09,-3.76 -0.01,-0.85 -0.01,-2.36 -0.01,-4.17l11.99 0c1.37,0 2.49,-1.12 2.49,-2.5 0,-1.37 -1.12,-2.49 -2.49,-2.49l-11.99 0c0,-2.7 0,-5.4 0.01,-7.28l14.32 0z"/>
   <path class="fil0" d="M244.72 157.3l-8.09 0c-6.15,0 -10.01,3.33 -10.07,8.69 -0.03,3.59 0,18.34 0,18.97 0.01,1.37 1.12,2.49 2.49,2.49l0.01 0c1.38,-0.01 2.49,-1.13 2.49,-2.5 0,-0.09 -0.02,-5.27 -0.02,-10.29l11.7 0c1.38,0 2.49,-1.12 2.49,-2.49 0,-1.38 -1.11,-2.49 -2.49,-2.49l-11.7 0c0,-1.58 0.01,-2.88 0.02,-3.64 0,-0.93 0.04,-3.76 5.08,-3.76l8.09 0c1.38,0 2.5,-1.11 2.5,-2.49 0,-1.38 -1.12,-2.49 -2.5,-2.49z"/>
   <path class="fil0" d="M310.18 96.15c-1.15,1.17 -3.01,1.8 -5.37,1.82l-7.15 0.05c-0.03,-2.67 -0.04,-5.03 -0.04,-6.18 0,-0.93 0.01,-3.76 5.05,-3.79l2.94 -0.03 0.08 0c4.25,0 5.78,2.47 5.8,4.8 0.01,0.9 -0.21,2.22 -1.31,3.33zm-4.49 -13.11l-0.12 0 -2.93 0.02c-6.16,0.05 -10,3.41 -10.01,8.77 0,3.6 0.15,18.36 0.16,18.99 0.01,1.37 1.12,2.47 2.49,2.47l0.02 0c1.38,-0.02 2.49,-1.15 2.47,-2.52 0,-0.08 -0.07,-7.76 -0.07,-7.76l7.15 -0.05c4.68,-0.03 7.42,-1.82 8.89,-3.31 1.78,-1.82 2.76,-4.26 2.74,-6.87 -0.04,-4.71 -3.43,-9.74 -10.79,-9.74z"/>
   <path class="fil0" d="M343.07 108.34l-8.24 0c-5.05,0 -5.08,-2.83 -5.09,-3.76 -0.04,-3.56 0,-18.77 0,-18.92 0.01,-1.38 -1.11,-2.5 -2.49,-2.5l0 0c-1.38,0 -2.49,1.11 -2.5,2.49 0,0.62 -0.03,15.39 0,18.98 0.06,5.37 3.92,8.7 10.08,8.7l8.24 0c1.38,0 2.5,-1.12 2.5,-2.5 0,-1.37 -1.12,-2.49 -2.5,-2.49z"/>
   <path class="fil0" d="M355.87 110.83l0 -25.18c0,-1.38 -1.11,-2.49 -2.49,-2.49 -1.38,0 -2.49,1.11 -2.49,2.49l0 25.18c0,1.38 1.11,2.5 2.49,2.5 1.38,0 2.49,-1.12 2.49,-2.5z"/>
   <path class="fil0" d="M308.67 125.12c1.37,0 2.49,-1.11 2.49,-2.48 0,-1.38 -1.12,-2.49 -2.49,-2.49l-14.16 0c-1.37,0 -2.49,1.11 -2.49,2.48 0,0.63 -0.03,15.37 0,18.95 0.05,5.35 3.91,8.68 10.06,8.68l6.59 0c1.37,0 2.49,-1.11 2.49,-2.49 0,-1.37 -1.12,-2.49 -2.49,-2.49l-6.59 0c-5.04,0 -5.07,-2.82 -5.08,-3.75 -0.01,-0.85 -0.01,-2.36 -0.02,-4.16l9.63 0c1.38,0 2.49,-1.12 2.49,-2.49 0,-1.38 -1.11,-2.49 -2.49,-2.49l-9.63 0c0.01,-2.7 0.01,-5.4 0.01,-7.27l11.68 0z"/>
   <path class="fil0" d="M280.9 120.15c-1.37,0 -2.48,1.11 -2.48,2.49l0 25.13c0,1.38 1.11,2.49 2.48,2.49 1.38,0 2.49,-1.11 2.49,-2.49l0 -25.13c0,-1.38 -1.11,-2.49 -2.49,-2.49z"/>
   <path class="fil0" d="M367.01 182.46l-9.7 0c-5.04,0 -5.07,-2.83 -5.08,-3.76 -0.04,-3.55 0,-18.75 0,-18.9 0,-1.38 -1.11,-2.5 -2.49,-2.5l0 0c-1.38,0 -2.49,1.11 -2.5,2.49 0,0.62 -0.03,15.38 0,18.97 0.06,5.35 3.92,8.69 10.07,8.69l9.7 0c1.37,0 2.49,-1.12 2.49,-2.5 0,-1.37 -1.12,-2.49 -2.49,-2.49z"/>
   <path class="fil0" d="M409 108.34l-6.82 0 0 -20.2 6.82 0c6.03,0 9.1,3.4 9.1,10.1 0,6.7 -3.07,10.1 -9.1,10.1zm0 -25.18l-9.31 0c-1.38,0 -2.5,1.11 -2.5,2.49l0 25.19c0,1.37 1.12,2.49 2.5,2.49l9.31 0c8.82,0 14.09,-5.64 14.09,-15.09 0,-9.44 -5.27,-15.08 -14.09,-15.08z"/>
   <path class="fil0" d="M392.11 157.02l-23.36 0c-1.38,0 -2.49,1.11 -2.49,2.49 0,1.38 1.11,2.49 2.49,2.49l9.19 0 0 22.95c0,1.38 1.11,2.5 2.49,2.5 1.37,0 2.49,-1.12 2.49,-2.5l0 -22.95 9.19 0c1.38,0 2.49,-1.11 2.49,-2.49 0,-1.38 -1.11,-2.49 -2.49,-2.49z"/>
   <path class="fil0" d="M235.64 98.65c1.53,-4.26 2.84,-7.84 3.16,-8.63 0.73,-1.79 1.46,-1.79 1.78,-1.79 0.49,0 1.04,0 1.77,1.79 0.33,0.79 1.63,4.37 3.16,8.63l-9.87 0zm17 14.93c0.28,0 0.56,-0.04 0.84,-0.14 1.31,-0.47 1.99,-1.91 1.53,-3.22 -0.29,-0.81 -7.11,-19.95 -7.99,-22.11 -1.33,-3.26 -3.5,-4.92 -6.44,-4.92 -1.66,0 -4.7,0.64 -6.44,4.92 -0.88,2.16 -7.7,21.3 -8,22.11 -0.46,1.31 0.22,2.75 1.53,3.22 1.31,0.47 2.75,-0.22 3.22,-1.53 0.8,-2.25 1.86,-5.21 2.94,-8.22l13.49 0c1.08,3.01 2.14,5.97 2.95,8.22 0.36,1.03 1.33,1.67 2.37,1.67z"/>
   <path class="fil0" d="M264.93 125.12c1.71,0 3.26,0.64 3.26,0.64 1.27,0.55 2.73,-0.04 3.28,-1.3 0.54,-1.26 -0.04,-2.73 -1.31,-3.27 -0.24,-0.11 -2.51,-1.05 -5.23,-1.05 -8.8,0 -14.06,5.63 -14.06,15.06 0,9.43 5.26,15.06 14.06,15.06 2.72,0 4.99,-0.95 5.24,-1.05 1.26,-0.54 1.83,-2 1.3,-3.26 -0.54,-1.26 -2,-1.85 -3.26,-1.32 0,0 -1.57,0.65 -3.28,0.65 -6.03,0 -9.08,-3.39 -9.08,-10.08 0,-6.69 3.05,-10.08 9.08,-10.08z"/>
   <path class="fil0" d="M363.91 125.12c1.71,0 3.26,0.64 3.26,0.64 1.27,0.55 2.73,-0.04 3.28,-1.3 0.54,-1.26 -0.04,-2.73 -1.31,-3.27 -0.25,-0.11 -2.51,-1.05 -5.23,-1.05 -8.81,0 -14.06,5.63 -14.06,15.06 0,9.43 5.25,15.06 14.06,15.06 2.72,0 4.98,-0.95 5.23,-1.05 1.26,-0.55 1.84,-2 1.31,-3.26 -0.54,-1.26 -2,-1.85 -3.26,-1.32 0,0 -1.57,0.65 -3.28,0.65 -6.03,0 -9.09,-3.39 -9.09,-10.08 0,-6.69 3.06,-10.08 9.09,-10.08z"/>
   <path class="fil0" d="M299.21 162.28c2.51,0 4.88,1.35 4.88,1.35 1.21,0.7 2.73,0.3 3.43,-0.89 0.69,-1.19 0.29,-2.71 -0.9,-3.41 -0.35,-0.21 -3.59,-2.03 -7.41,-2.03 -8.81,0 -14.07,5.63 -14.07,15.07 0,9.44 5.26,15.07 14.07,15.07 3.79,0 7.05,-1.82 7.4,-2.03 1.19,-0.69 1.59,-2.2 0.91,-3.39 -0.68,-1.19 -2.2,-1.61 -3.4,-0.93 0,0 -2.42,1.37 -4.91,1.37 -6.03,0 -9.09,-3.4 -9.09,-10.09 0,-6.69 3.06,-10.09 9.09,-10.09z"/>
   <path class="fil0" d="M340.53 120.15c-1.37,0 -2.49,1.11 -2.49,2.49l0 10.99 0.18 7.5 -0.59 -0.96c-1.85,-2.57 -10.43,-14.51 -13.57,-18.9 -0.36,-0.5 -1.22,-1.12 -2.18,-1.12 -1.37,0 -2.49,1.11 -2.49,2.49l0 25.13c0,1.38 1.12,2.49 2.49,2.49 1.37,0 2.49,-1.11 2.49,-2.49l0 -11.68 -0.16 -6.79 0.59 0.96c1.89,2.63 10.46,14.56 13.55,18.88 0.36,0.5 1.26,1.12 2.18,1.12 1.38,0 2.49,-1.11 2.49,-2.49l0 -25.13c0,-1.38 -1.11,-2.49 -2.49,-2.49z"/>
   <path class="fil0" d="M260.02 172.63c1.53,-4.25 2.83,-7.83 3.16,-8.62 0.72,-1.79 1.46,-1.79 1.77,-1.79 0.49,0 1.05,0 1.78,1.79 0.32,0.79 1.62,4.37 3.15,8.62l-9.86 0zm11.36 -10.53c-1.33,-3.26 -3.49,-4.91 -6.43,-4.91 -1.65,0 -4.69,0.63 -6.44,4.91 -0.87,2.16 -7.69,21.28 -7.98,22.09 -0.47,1.31 0.21,2.75 1.52,3.22 1.31,0.47 2.75,-0.22 3.22,-1.53 0.8,-2.25 1.86,-5.2 2.94,-8.22l13.48 0c1.08,3.02 2.14,5.97 2.94,8.22 0.37,1.03 1.34,1.67 2.37,1.67 0.28,0 0.56,-0.04 0.84,-0.14 1.31,-0.47 2,-1.91 1.53,-3.22 -0.29,-0.81 -7.11,-19.93 -7.99,-22.09z"/>
   <path class="fil0" d="M394.75 125.13c1.38,0 2.49,-1.12 2.49,-2.49 0,-1.38 -1.11,-2.49 -2.49,-2.49l-14.16 0c-1.37,0 -2.48,1.11 -2.48,2.48 -0.01,0.62 -0.04,15.37 0,18.95 0.05,5.35 3.9,8.68 10.05,8.68l6.59 0c1.38,0 2.49,-1.11 2.49,-2.49 0,-1.37 -1.11,-2.49 -2.49,-2.49l-6.59 0c-5.04,0 -5.07,-2.82 -5.08,-3.75 0,-0.85 -0.01,-4.16 -0.01,-4.16l9.63 0c1.37,0 2.49,-1.12 2.49,-2.49 0,-1.38 -1.12,-2.49 -2.49,-2.49l-9.63 0 0.01 -7.26 11.67 0z"/>
   <path class="fil0" d="M412.42 145.74c-2.52,0 -4.65,-0.9 -5.84,-2.47 -0.51,-0.68 -1.23,-1.06 -2.01,-1.06 -1.28,0 -2.64,0.98 -2.64,2.43 0,2.05 3.49,5.69 10.45,5.69 6.95,0 10.71,-4.41 10.71,-8.57 0,-3.23 -2.14,-6.1 -6.01,-8.08 -0.98,-0.49 -2.22,-1.06 -3.42,-1.61l-0.2 -0.09c-1.06,-0.49 -2.06,-0.94 -2.83,-1.33 -1.67,-0.81 -2.7,-2.02 -2.7,-3.15 0,-1.49 1.58,-3.02 4.25,-3.02 1.94,0 3.48,0.57 4.57,1.69 0.61,0.64 1.37,1 2.12,1 1.39,0 2.56,-1.14 2.56,-2.47 0,-1.92 -3.2,-4.58 -9.21,-4.58 -6.03,0 -9.17,3.79 -9.17,7.53 0,3.03 2.03,5.69 5.44,7.13 2.12,0.89 4.25,1.98 6.22,3.02 2.01,1.04 3.27,2.62 3.27,4.11 0,0.99 -1.02,3.83 -5.56,3.83z"/>
   <path class="fil0" d="M236.07 145.74c-2.53,0 -4.66,-0.9 -5.85,-2.48 -0.51,-0.67 -1.23,-1.05 -2.01,-1.05 -1.27,0 -2.64,0.98 -2.64,2.43 0,2.05 3.49,5.69 10.45,5.69 6.96,0 10.71,-4.41 10.71,-8.57 0,-3.23 -2.14,-6.1 -6.01,-8.08 -1.05,-0.53 -2.43,-1.16 -3.54,-1.66l-0.07 -0.03c-1.06,-0.49 -2.06,-0.95 -2.84,-1.34 -1.67,-0.81 -2.7,-2.02 -2.7,-3.15 0,-1.49 1.59,-3.02 4.25,-3.02 1.94,0 3.48,0.57 4.57,1.69 0.61,0.64 1.37,1 2.12,1 1.39,0 2.56,-1.14 2.56,-2.47 0,-1.92 -3.2,-4.58 -9.21,-4.58 -6.02,0 -9.17,3.79 -9.17,7.53 0,3.03 2.03,5.69 5.44,7.13 2.12,0.89 4.24,1.98 6.22,3.02 2.02,1.04 3.27,2.62 3.27,4.11 0,0.99 -1.02,3.83 -5.55,3.83z"/>
   <path class="fil1" d="M432.73 169.22c-5.33,0 -9.64,4.31 -9.64,9.64 0,5.33 4.31,9.64 9.64,9.64 5.32,0 9.64,-4.31 9.64,-9.64 0,-5.33 -4.32,-9.64 -9.64,-9.64z"/>
   <path class="fil2" d="M71.16 182.18l8.19 1.64c0.26,0.05 0.44,0.07 0.55,0.05 0.1,-0.02 0.2,-0.08 0.28,-0.19l0.41 0.08 -0.59 2.96 -0.6 -0.12c-0.05,-0.66 -0.23,-1.17 -0.54,-1.53 -0.31,-0.35 -0.9,-0.61 -1.77,-0.78l-2.76 -0.56 -0.83 4.17 1.83 0.37c0.5,0.11 0.87,0.1 1.13,-0.02 0.26,-0.12 0.43,-0.37 0.5,-0.74l0.6 0.12 -0.6 2.98 -0.59 -0.12c0.04,-0.36 -0.03,-0.64 -0.18,-0.86 -0.16,-0.22 -0.39,-0.36 -0.7,-0.42l-2.17 -0.43 -0.96 4.78 3.97 0.79c0.61,0.13 1.19,0.04 1.73,-0.24 0.55,-0.29 0.94,-0.73 1.17,-1.31l0.59 0.12 -0.58 2.92 -10.4 -2.07 0.12 -0.6c0.28,0.04 0.51,-0.02 0.69,-0.16 0.18,-0.14 0.31,-0.39 0.39,-0.76l1.65 -8.21c0.06,-0.36 0.03,-0.63 -0.08,-0.82 -0.11,-0.2 -0.3,-0.34 -0.57,-0.44l0.12 -0.6z"/>
   <path class="fil2" d="M88.6 187.16l-0.08 2.87c-0.02,0.42 0.15,0.78 0.51,1.05 0.35,0.27 0.76,0.42 1.22,0.42 0.56,0.03 0.98,-0.16 1.26,-0.57 0.29,-0.42 0.45,-1.21 0.48,-2.38 0.03,-1.18 -0.07,-1.97 -0.32,-2.38 -0.24,-0.41 -0.65,-0.63 -1.24,-0.68 -0.49,-0.04 -0.92,0.1 -1.27,0.41 -0.36,0.32 -0.55,0.73 -0.56,1.26zm-3.61 9.29l0.01 -0.61c0.24,-0.02 0.44,-0.1 0.6,-0.26 0.15,-0.16 0.24,-0.39 0.26,-0.7l0.18 -6.59c0.02,-1.17 0.43,-2.09 1.25,-2.75 0.81,-0.67 1.93,-0.98 3.37,-0.94 1.32,0.03 2.34,0.45 3.07,1.25 0.74,0.8 1.09,1.74 1.06,2.8 -0.03,0.89 -0.24,1.66 -0.63,2.31 -0.39,0.64 -0.95,1.1 -1.66,1.38 -0.25,0.1 -0.51,0.19 -0.75,0.24 -0.25,0.05 -0.5,0.07 -0.73,0.06 -0.5,-0.01 -0.95,-0.08 -1.37,-0.2 -0.42,-0.13 -0.81,-0.33 -1.18,-0.61l-0.08 3.12c-0.02,0.26 0.06,0.48 0.22,0.67 0.17,0.19 0.39,0.3 0.65,0.33l-0.02 0.61 -4.25 -0.11z"/>
   <path class="fil2" d="M108.8 192.75l0.6 0.59c-0.75,0.84 -1.47,1.45 -2.16,1.85 -0.69,0.4 -1.42,0.65 -2.19,0.75 -1.74,0.23 -3.23,-0.17 -4.46,-1.2 -1.24,-1.02 -1.97,-2.41 -2.2,-4.15 -0.22,-1.75 0.12,-3.25 1.04,-4.5 0.92,-1.26 2.17,-1.99 3.75,-2.19 0.34,-0.04 0.65,-0.07 0.95,-0.07 0.29,0.01 0.61,0.04 0.94,0.08 0.29,0.06 0.52,0.09 0.69,0.1 0.16,0.01 0.31,0.01 0.45,-0.02 0.04,0 0.09,-0.01 0.15,-0.05 0.06,-0.03 0.13,-0.09 0.21,-0.17 0.02,-0.02 0.04,-0.04 0.06,-0.06 0.02,-0.02 0.04,-0.05 0.06,-0.08l0.6 -0.07 0.36 2.75 -0.6 0.09c-0.31,-0.57 -0.78,-1.01 -1.43,-1.32 -0.66,-0.31 -1.34,-0.42 -2.05,-0.32 -0.1,0.01 -0.21,0.04 -0.31,0.06 -0.11,0.03 -0.22,0.07 -0.33,0.11 -0.84,0.35 -1.4,0.94 -1.67,1.75 -0.26,0.8 -0.29,2.06 -0.06,3.76 0.21,1.62 0.66,2.78 1.34,3.46 0.67,0.67 1.63,0.93 2.87,0.77 0.58,-0.07 1.14,-0.26 1.7,-0.56 0.54,-0.31 1.11,-0.76 1.69,-1.36z"/>
   <g>
    <path class="fil2" d="M90.51 46.43l3.99 0c0,0 -0.75,-1.59 -0.87,-5.74 4.17,0.11 5.76,0.85 5.76,0.85l0 -3.98c0,0 -1.59,0.74 -5.76,0.86 0.12,-4.16 0.87,-5.75 0.87,-5.75l-3.99 0c0,0 0.73,1.59 0.85,5.75 -4.15,-0.12 -5.74,-0.86 -5.74,-0.86l0 3.98c0,0 1.59,-0.73 5.74,-0.85 -0.12,4.15 -0.85,5.74 -0.85,5.74z"/>
    <path class="fil2" d="M142.46 66.18c0.01,12.16 -0.02,21.42 -0.01,33.58 0.01,14.4 0,43.85 0,49.9 -5.7,-1.46 -11.62,-2.72 -17.42,-2.9 -11.12,-0.34 -23.66,2.8 -32.37,10.34 -0.03,0.02 -0.06,0.05 -0.1,0.09 -8.14,-7.13 -19.58,-10.24 -30,-10.38 -6.64,-0.08 -13.43,1.21 -19.97,2.68 -0.01,-11.87 -0.02,-24.26 -0.04,-36.1 -0.01,-15.82 0.04,-46.32 0.04,-47.2 0,-0.79 -3.11,-1.96 -3.11,-1.17 0.01,12.16 0.02,22.59 0.03,34.76 0.02,15.81 -0.03,49.81 -0.03,50.7 0,0.71 1.99,0.56 2.36,0.47 5.99,-1.45 12.29,-2.06 18.44,-2.17 10.76,-0.19 22.83,2.16 30.82,10.05 0.61,0.59 2.32,0.59 2.92,0 8.11,-8.01 20.08,-10.4 31.01,-10.11 6.08,0.17 12.33,0.92 18.22,2.5 0.37,0.09 2.28,0.22 2.28,-0.47 -0.01,-12.17 -0.02,-24.91 -0.04,-37.08 -0.01,-15.88 0.04,-47.73 0.04,-48.65 0,-0.79 -3.07,0.38 -3.07,1.16z"/>
    <path class="fil2" d="M55.54 55.43c5.68,-4.31 9.78,-9.08 16.95,-9.08 3.67,0 6.12,3.74 6.12,6.02 0,1.6 -0.42,4.8 -3.97,4.8 -3.11,0 -4,-3.78 -2.74,-5.87 -4.58,0 -4.82,7.09 2.79,7.09 3.27,0 6.63,-1.89 6.63,-5.83 0,-2.64 -1.88,-7.25 -8.84,-7.25 -7.63,0 -12.5,3.89 -18.66,8.5 -6.36,4.76 -12.11,6.06 -19.94,5.26l0 1.17 0.01 0c0,12.98 0,81.59 0,82.08 0,0.79 3.03,1.95 3.03,1.17 0,-11.75 0,-76.02 0,-82.89 6.75,0.5 13.19,-1.05 18.62,-5.17z"/>
    <path class="fil2" d="M151.02 59.07c-7.84,0.8 -13.58,-0.49 -19.95,-5.26 -6.15,-4.61 -11.03,-8.51 -18.66,-8.51 -6.95,0 -8.83,4.62 -8.83,7.26 0,3.94 3.36,5.83 6.62,5.83 7.62,0 7.37,-7.09 2.8,-7.09 1.26,2.09 0.36,5.87 -2.74,5.87 -3.55,0 -3.97,-3.21 -3.97,-4.8 0,-2.28 2.45,-6.02 6.11,-6.02 7.18,0 11.28,4.77 16.96,9.08 5.42,4.12 11.87,5.67 18.61,5.17 0,6.87 0.01,71.14 0.01,82.89 0,0.78 3.03,-0.39 3.03,-1.17 0,-0.48 -0.01,-69.1 -0.01,-82.08l0.02 0 0 -1.17z"/>
    <path class="fil2" d="M80.02 97.6c-1.87,-3.52 -8.46,-17.04 -11.27,-22.78 -1.89,-3.86 -4.47,-5.32 -6.43,-5.79 -1.34,-0.31 -8,0 -9.57,0.01l0 0.11c2.02,0.86 6.04,5.32 7.6,8.7 1.05,2.27 7.35,15.18 9.54,19.32 2.18,4.12 6.96,5.62 8.98,5.87 0.93,0.11 1.9,0.11 2.86,0.09 -9.82,12.96 -18.87,24.95 -17.85,23.52 -3.21,3.96 -6.28,5.55 -9.28,6.46l0.01 0.56c7.86,0 13.44,-5.78 14.41,-7.04 1.71,-2.23 10.4,-13.86 19.41,-25.77l0 28.13 7.76 0 0 -36.93c1.66,1.34 3.6,3.44 5,5.95 0.75,1.35 4.55,10.25 7.05,13.7 2.1,2.9 5.34,3.35 8.4,3.36 -5.68,7.5 -11.52,15.18 -15.56,20.44 -1.39,1.81 -2.78,3.56 -4.33,5.19 -0.62,0.64 -3.85,4.31 -6.77,4.31 -3.21,0 -5.25,-2.5 -5.25,-4.99 0,-2.69 1.45,-5.49 4.61,-6.2 3.01,-0.67 5.49,0.94 5.95,1.41 0,0 3.04,-0.86 3.04,-0.88 -1.73,-1.55 -6.42,-2.46 -9.18,-1.98 -4.27,0.73 -8.03,3.58 -8.03,7.91 0,2.91 2.93,6.04 8.81,6.04 7.06,0 11.74,-5.38 13.3,-7.07 0.76,-0.83 18.23,-24.04 28.23,-37.16l-0.01 0c0.24,-0.32 0.43,-0.59 0.59,-0.79 1.41,-1.94 6.45,-8.09 4.12,-10.79l-5.83 -0.01 0 0.33c2.97,1.71 -1.48,8.19 -3.8,11.26l-0.04 0c-2.48,3.27 -5.32,7.01 -8.25,10.87 -0.66,-0.66 -1.1,-1.47 -1.55,-2.33 -1.38,-2.62 -5.29,-10.28 -7.31,-14.47 -1.34,-2.79 -3.96,-5.51 -6.6,-5.65 -2.18,-0.11 -4.4,0.09 -6.59,0.11 4.1,-5.38 7.84,-10.23 10.48,-13.54 1.42,-1.79 2.79,-3.56 4.34,-5.18 0.61,-0.65 3.85,-4.32 6.77,-4.32 3.2,0 5.25,2.5 5.25,4.98 0,2.7 -1.45,5.5 -4.62,6.2 -3.01,0.67 -5.48,-0.93 -5.95,-1.4 0,0 -3.04,0.85 -3.04,0.88 1.73,1.54 6.42,2.45 9.19,1.98 4.27,-0.72 8.03,-3.58 8.03,-7.91 0,-2.92 -2.94,-6.04 -8.81,-6.04 -7.07,0 -11.75,5.38 -13.3,7.07 -0.54,0.59 -3.84,4.86 -8.34,10.76l0 -31.78 -7.76 0 0 41.98c-1.71,2.25 -3.46,4.56 -5.2,6.85 -1.3,-0.85 -2.39,-2.01 -3.21,-3.55z"/>
   </g>
   <path class="fil2" d="M28.27 153.7l3.26 3.67 -0.44 0.39c-0.25,-0.29 -0.5,-0.41 -0.75,-0.35 -0.26,0.06 -0.45,0.31 -0.58,0.76l-1.45 4.69 0.08 0.09 4.06 -1.37c0.12,-0.04 0.25,-0.09 0.39,-0.16 0.14,-0.06 0.25,-0.13 0.3,-0.17 0.14,-0.14 0.2,-0.31 0.18,-0.52 -0.01,-0.2 -0.14,-0.49 -0.37,-0.85l0.45 -0.4 2.09 2.34 -0.46 0.41c-0.25,-0.13 -0.48,-0.2 -0.71,-0.21 -0.22,-0.01 -0.56,0.07 -1.01,0.23l-7.17 2.41c-1.16,0.38 -2.13,0.51 -2.89,0.37 -0.77,-0.14 -1.41,-0.51 -1.94,-1.11 -0.47,-0.52 -0.72,-1.03 -0.78,-1.52 -0.04,-0.5 0.12,-0.92 0.49,-1.25 0.29,-0.26 0.61,-0.4 0.96,-0.41 0.34,-0.02 0.66,0.13 0.95,0.46 0.22,0.25 0.34,0.52 0.36,0.81 0.02,0.3 -0.09,0.59 -0.31,0.9 -0.16,0.2 -0.23,0.36 -0.22,0.5 0.01,0.14 0.07,0.27 0.19,0.41 0.22,0.24 0.55,0.36 0.99,0.37 0.44,0.01 0.91,-0.08 1.39,-0.25l2.59 -8.35c0.07,-0.28 0.1,-0.54 0.08,-0.79 -0.02,-0.25 -0.08,-0.49 -0.18,-0.7l0.45 -0.4z"/>
   <path class="fil2" d="M41.22 166.7l-0.37 0.48c-0.23,-0.13 -0.45,-0.18 -0.67,-0.15 -0.22,0.04 -0.42,0.18 -0.59,0.4l-2.26 2.94 4.66 3.6 2.27 -2.95c0.16,-0.21 0.24,-0.42 0.23,-0.65 -0.01,-0.21 -0.11,-0.41 -0.3,-0.62l0.37 -0.48 3.32 2.56 -0.37 0.47c-0.27,-0.14 -0.51,-0.19 -0.72,-0.15 -0.2,0.05 -0.38,0.19 -0.54,0.4l-5.28 6.89c-0.17,0.22 -0.25,0.41 -0.25,0.57 0,0.17 0.1,0.4 0.32,0.69l-0.37 0.49 -3.32 -2.56 0.37 -0.48c0.33,0.12 0.58,0.17 0.74,0.13 0.16,-0.04 0.33,-0.16 0.51,-0.39l2.48 -3.22 -4.67 -3.59 -2.48 3.21c-0.18,0.23 -0.26,0.43 -0.25,0.62 0.02,0.19 0.13,0.41 0.33,0.67l-0.37 0.48 -3.33 -2.57 0.37 -0.48c0.31,0.12 0.55,0.15 0.73,0.12 0.17,-0.02 0.34,-0.16 0.51,-0.37l5.3 -6.88c0.16,-0.22 0.23,-0.43 0.21,-0.65 -0.02,-0.22 -0.12,-0.43 -0.28,-0.62l0.37 -0.48 3.33 2.57z"/>
   <path class="fil2" d="M51.36 173.73l3.68 2.03 -0.29 0.53c-0.27,-0.09 -0.5,-0.1 -0.7,-0.03 -0.21,0.07 -0.4,0.27 -0.57,0.61l-4.04 7.32c-0.2,0.33 -0.27,0.6 -0.22,0.82 0.05,0.21 0.18,0.4 0.4,0.56l-0.29 0.53 -3.68 -2.03 0.3 -0.53c0.23,0.1 0.46,0.12 0.67,0.05 0.22,-0.08 0.42,-0.29 0.6,-0.62l4.04 -7.33c0.18,-0.33 0.24,-0.6 0.19,-0.82 -0.05,-0.22 -0.18,-0.4 -0.38,-0.56l0.29 -0.53z"/>
   <path class="fil2" d="M61.48 179.7l-1.56 4.03 0.85 0.32c0.6,0.24 1.15,0.24 1.64,0 0.5,-0.24 0.87,-0.65 1.1,-1.23 0.24,-0.67 0.26,-1.24 0.03,-1.73 -0.23,-0.48 -0.74,-0.88 -1.53,-1.18l-0.53 -0.21zm-1.88 4.86l-1.73 4.49 0.91 0.35c0.75,0.3 1.4,0.35 1.93,0.13 0.52,-0.22 0.93,-0.68 1.2,-1.4 0.3,-0.76 0.27,-1.44 -0.09,-2.04 -0.36,-0.58 -0.9,-1.02 -1.63,-1.3l-0.59 -0.23zm-0.93 -6.91l4.25 1.65c1.12,0.43 1.93,0.89 2.42,1.39 0.49,0.48 0.75,1.08 0.79,1.78 0,0.18 -0.01,0.36 -0.04,0.53 -0.02,0.17 -0.06,0.33 -0.12,0.48 -0.26,0.67 -0.69,1.14 -1.3,1.43 -0.61,0.28 -1.32,0.36 -2.11,0.23l-0.06 0.16c0.86,0.45 1.47,1.03 1.81,1.78 0.34,0.74 0.37,1.48 0.08,2.22 -0.36,0.95 -0.97,1.52 -1.81,1.73 -0.85,0.2 -1.89,0.06 -3.14,-0.42l-5.03 -1.93 0.23 -0.57c0.26,0.07 0.48,0.05 0.67,-0.05 0.19,-0.11 0.34,-0.29 0.44,-0.54l3.12 -8.11c0.09,-0.25 0.1,-0.48 0.03,-0.68 -0.07,-0.2 -0.22,-0.37 -0.45,-0.51l0.22 -0.57z"/>
   <path class="fil2" d="M111.51 182.76l4 -1.28 0.19 0.58c-0.31,0.22 -0.49,0.42 -0.54,0.57 -0.06,0.15 -0.05,0.35 0.03,0.6l1.94 6.01 0.07 -0.03 3.37 -6.9 -0.24 -0.73c-0.08,-0.25 -0.21,-0.43 -0.4,-0.54 -0.18,-0.12 -0.41,-0.16 -0.7,-0.12l-0.18 -0.58 4 -1.29 0.18 0.58c-0.25,0.13 -0.42,0.29 -0.5,0.49 -0.07,0.19 -0.07,0.42 0.01,0.68l2.66 8.25c0.08,0.27 0.22,0.46 0.4,0.58 0.18,0.11 0.4,0.14 0.68,0.09l0.19 0.57 -4 1.29 -0.19 -0.57c0.24,-0.12 0.4,-0.27 0.5,-0.47 0.1,-0.19 0.1,-0.43 0.01,-0.71l-1.97 -6.12 -0.08 0.02 -3.36 6.92 0.27 0.83c0.08,0.27 0.2,0.45 0.38,0.56 0.19,0.11 0.43,0.15 0.72,0.1l0.19 0.58 -4 1.29 -0.19 -0.58c0.24,-0.11 0.41,-0.27 0.49,-0.47 0.09,-0.2 0.09,-0.43 0,-0.7l-2.66 -8.26c-0.09,-0.25 -0.22,-0.43 -0.4,-0.54 -0.18,-0.12 -0.41,-0.16 -0.68,-0.12l-0.19 -0.58z"/>
   <path class="fil2" d="M126.04 177.39l0.59 -0.33c0.17,0.02 0.34,-0.01 0.5,-0.05 0.16,-0.05 0.35,-0.13 0.57,-0.25l6.75 -3.68c0.2,-0.09 0.36,-0.19 0.49,-0.31 0.13,-0.12 0.25,-0.26 0.37,-0.42l0.58 -0.32 1.44 2.67 -0.53 0.29c-0.56,-0.41 -1.1,-0.66 -1.64,-0.73 -0.53,-0.08 -1.05,0.03 -1.56,0.3l-0.98 0.54 4.5 8.27c0.12,0.25 0.28,0.41 0.46,0.47 0.17,0.06 0.42,0.05 0.74,-0.03l0.29 0.53 -3.69 2.01 -0.29 -0.53c0.24,-0.25 0.39,-0.46 0.42,-0.62 0.03,-0.17 -0.02,-0.38 -0.15,-0.62l-4.51 -8.27 -0.82 0.45c-0.63,0.34 -1.07,0.75 -1.32,1.24 -0.25,0.49 -0.33,1.08 -0.22,1.77l-0.54 0.29 -1.45 -2.67z"/>
   <path class="fil2" d="M138.91 170.35l6.53 -5.22c0.2,-0.17 0.33,-0.29 0.38,-0.38 0.05,-0.1 0.06,-0.21 0.03,-0.34l0.33 -0.27 1.89 2.36 -0.48 0.38c-0.54,-0.39 -1.04,-0.58 -1.51,-0.57 -0.47,0.01 -1.05,0.29 -1.75,0.85l-2.2 1.76 2.66 3.32 1.46 -1.17c0.41,-0.31 0.64,-0.61 0.72,-0.88 0.07,-0.29 -0.01,-0.57 -0.25,-0.86l0.48 -0.38 1.89 2.37 -0.47 0.38c-0.25,-0.25 -0.5,-0.39 -0.77,-0.41 -0.27,-0.03 -0.53,0.07 -0.78,0.26l-1.72 1.39 3.05 3.8 3.16 -2.53c0.48,-0.38 0.79,-0.88 0.92,-1.48 0.13,-0.6 0.05,-1.18 -0.25,-1.74l0.47 -0.38 1.87 2.34 -8.27 6.62 -0.38 -0.47c0.2,-0.19 0.31,-0.41 0.31,-0.63 0.01,-0.24 -0.1,-0.5 -0.33,-0.79l-5.23 -6.54c-0.24,-0.28 -0.47,-0.44 -0.69,-0.48 -0.21,-0.03 -0.44,0.03 -0.69,0.16l-0.38 -0.47z"/>
   <path class="fil2" d="M149.14 161.49l0.45 -0.5c0.16,-0.05 0.31,-0.12 0.44,-0.23 0.13,-0.1 0.28,-0.24 0.45,-0.42l5.11 -5.75c0.15,-0.15 0.26,-0.31 0.35,-0.46 0.08,-0.16 0.14,-0.33 0.2,-0.52l0.44 -0.49 2.26 2.01 -0.4 0.46c-0.66,-0.2 -1.26,-0.25 -1.79,-0.14 -0.52,0.12 -0.98,0.39 -1.37,0.82l-0.74 0.84 7.04 6.25c0.2,0.19 0.4,0.3 0.59,0.29 0.19,0 0.42,-0.1 0.69,-0.28l0.45 0.4 -2.79 3.15 -0.45 -0.41c0.15,-0.32 0.21,-0.56 0.18,-0.72 -0.02,-0.17 -0.14,-0.35 -0.35,-0.53l-7.04 -6.26 -0.63 0.71c-0.47,0.53 -0.74,1.07 -0.81,1.61 -0.07,0.55 0.06,1.13 0.39,1.74l-0.4 0.45 -2.27 -2.02z"/>
   <path class="fil2" d="M5.89 138.14l-1.51 -4.68 0.57 -0.18c0.11,0.36 0.29,0.57 0.55,0.62 0.26,0.04 0.54,-0.11 0.85,-0.47l3.27 -3.74 -0.04 -0.11 -4.32 -0.37c-0.12,0 -0.27,-0.01 -0.43,0 -0.15,0 -0.28,0.01 -0.35,0.04 -0.18,0.07 -0.31,0.2 -0.38,0.4 -0.07,0.19 -0.07,0.5 0,0.93l-0.59 0.19 -0.96 -3 0.58 -0.18c0.18,0.21 0.37,0.37 0.58,0.47 0.21,0.1 0.55,0.16 1.03,0.2l7.63 0.65c1.24,0.12 2.18,0.39 2.83,0.82 0.65,0.44 1.1,1.04 1.34,1.8 0.22,0.67 0.24,1.23 0.09,1.72 -0.16,0.47 -0.48,0.79 -0.96,0.94 -0.37,0.12 -0.73,0.12 -1.06,0 -0.33,-0.13 -0.55,-0.39 -0.69,-0.81 -0.1,-0.31 -0.1,-0.62 0,-0.89 0.11,-0.28 0.32,-0.51 0.66,-0.7 0.22,-0.12 0.36,-0.24 0.41,-0.37 0.05,-0.13 0.05,-0.28 -0.01,-0.45 -0.1,-0.31 -0.35,-0.56 -0.76,-0.74 -0.4,-0.18 -0.87,-0.29 -1.4,-0.32l-5.83 6.64c-0.18,0.22 -0.31,0.45 -0.4,0.69 -0.08,0.24 -0.12,0.48 -0.11,0.72l-0.59 0.18z"/>
   <path class="fil2" d="M1.49 123.08l-0.59 -4.15 0.61 -0.09c0.1,0.27 0.24,0.46 0.42,0.58 0.17,0.12 0.4,0.16 0.67,0.1l3.03 -0.43c-0.06,-0.62 -0.29,-1.13 -0.68,-1.52 -0.39,-0.39 -0.96,-0.68 -1.71,-0.87 -1.27,-0.3 -2.1,-0.63 -2.48,-0.99 -0.39,-0.36 -0.63,-0.87 -0.72,-1.53 -0.03,-0.2 -0.04,-0.39 -0.04,-0.58 0,-0.19 0.02,-0.36 0.04,-0.53l2.73 -0.38 0.08 0.59c-0.17,0.09 -0.3,0.21 -0.38,0.36 -0.08,0.15 -0.11,0.31 -0.09,0.47 0.03,0.17 0.11,0.34 0.24,0.49 0.13,0.14 0.33,0.29 0.61,0.45 1.09,0.61 1.74,1.04 1.95,1.26 0.22,0.23 0.41,0.5 0.57,0.82l0.12 -0.02c0,-0.28 0.02,-0.58 0.05,-0.9 0.03,-0.31 0.08,-0.59 0.15,-0.85 0.16,-0.57 0.43,-1.04 0.81,-1.42 0.38,-0.37 1,-0.73 1.84,-1.07 0.71,-0.28 1.12,-0.44 1.22,-0.49 0.11,-0.05 0.19,-0.09 0.25,-0.15 0.3,-0.18 0.53,-0.42 0.69,-0.72 0.17,-0.3 0.24,-0.62 0.22,-0.93l0.66 -0.09c0.11,0.2 0.2,0.4 0.27,0.62 0.07,0.21 0.12,0.43 0.15,0.67 0.09,0.62 0.06,1.19 -0.11,1.69 -0.16,0.5 -0.45,0.9 -0.86,1.22 -0.13,0.13 -0.27,0.23 -0.43,0.32 -0.15,0.08 -0.63,0.26 -1.45,0.55 -0.75,0.28 -1.29,0.53 -1.63,0.76 -0.33,0.22 -0.59,0.48 -0.79,0.78 -0.17,0.28 -0.29,0.57 -0.36,0.9 -0.07,0.32 -0.08,0.64 -0.02,0.96l4.78 -0.67c0.28,-0.05 0.49,-0.14 0.63,-0.29 0.14,-0.16 0.21,-0.39 0.22,-0.67l0.61 -0.09 0.59 4.16 -0.61 0.09c-0.08,-0.27 -0.2,-0.46 -0.38,-0.58 -0.19,-0.11 -0.42,-0.15 -0.7,-0.11l-8.71 1.24c-0.27,0.05 -0.48,0.15 -0.63,0.31 -0.14,0.15 -0.22,0.37 -0.23,0.64l-0.61 0.09z"/>
   <path class="fil2" d="M2.23 103.15l2.91 0.08c0.43,0.02 0.79,-0.15 1.07,-0.5 0.28,-0.37 0.42,-0.77 0.43,-1.24 0.03,-0.55 -0.17,-0.97 -0.59,-1.26 -0.42,-0.28 -1.22,-0.44 -2.41,-0.47 -1.2,-0.04 -2,0.07 -2.41,0.31 -0.41,0.25 -0.65,0.66 -0.69,1.24 -0.04,0.5 0.1,0.93 0.42,1.28 0.31,0.36 0.74,0.55 1.27,0.56zm9.43 3.62l-0.62 -0.02c-0.02,-0.23 -0.1,-0.43 -0.27,-0.59 -0.16,-0.15 -0.39,-0.24 -0.7,-0.27l-6.69 -0.17c-1.19,-0.02 -2.12,-0.44 -2.79,-1.25 -0.68,-0.81 -0.99,-1.94 -0.96,-3.39 0.04,-1.31 0.47,-2.34 1.28,-3.07 0.81,-0.74 1.75,-1.09 2.82,-1.06 0.92,0.03 1.7,0.23 2.35,0.63 0.65,0.39 1.12,0.95 1.41,1.67 0.11,0.25 0.19,0.5 0.24,0.75 0.05,0.25 0.07,0.49 0.06,0.73 -0.01,0.49 -0.08,0.95 -0.2,1.37 -0.13,0.42 -0.33,0.81 -0.61,1.18l3.16 0.08c0.26,0.02 0.49,-0.05 0.68,-0.23 0.19,-0.17 0.3,-0.38 0.33,-0.63l0.62 0.01 -0.11 4.26z"/>
   <path class="fil2" d="M4.24 88.17l4.22 2.97 0.07 0.01 0.8 -4.33 -0.05 0 -5.03 1.28 -0.01 0.07zm7.14 6.91c-0.02,-0.24 -0.13,-0.48 -0.32,-0.73 -0.19,-0.25 -0.44,-0.49 -0.75,-0.72l-6.56 -4.7c-0.13,-0.09 -0.28,-0.16 -0.44,-0.22 -0.16,-0.06 -0.34,-0.11 -0.55,-0.16 -0.13,-0.03 -0.25,0.03 -0.33,0.17 -0.08,0.14 -0.14,0.32 -0.15,0.55l-0.61 -0.12c0.05,-0.46 0.03,-0.88 -0.05,-1.26 -0.09,-0.37 -0.24,-0.71 -0.46,-1l0.11 -0.6 10.03 -2.64c0.66,-0.17 1.17,-0.33 1.56,-0.51 0.39,-0.18 0.68,-0.39 0.87,-0.66l0.6 0.11 -0.88 4.76 -0.61 -0.11c0.06,-0.27 0.01,-0.5 -0.15,-0.71 -0.16,-0.2 -0.37,-0.33 -0.64,-0.38 -0.04,-0.02 -0.13,-0.01 -0.26,0.01 -0.12,0.02 -0.22,0.03 -0.29,0.04l-1.19 0.31 -0.99 5.31 0.92 0.61c0.45,0.32 0.81,0.41 1.08,0.29 0.27,-0.12 0.5,-0.42 0.67,-0.89l0.6 0.11 -0.6 3.26 -0.61 -0.12z"/>
   <path class="fil2" d="M5.3 72.11l0.59 0.19c-0.03,0.3 0.01,0.54 0.12,0.71 0.11,0.17 0.29,0.3 0.54,0.38l8.35 2.79c0.27,0.1 0.51,0.1 0.71,0.01 0.2,-0.09 0.36,-0.25 0.48,-0.48l0.58 0.19 -1.34 4 -0.58 -0.2c0.06,-0.24 0.04,-0.46 -0.08,-0.67 -0.1,-0.2 -0.29,-0.35 -0.58,-0.45l-8.34 -2.78c-0.27,-0.09 -0.51,-0.09 -0.72,0.01 -0.2,0.1 -0.37,0.26 -0.48,0.49l-0.58 -0.2 1.33 -3.99zm-2.84 0.84c-0.34,-0.11 -0.58,-0.33 -0.74,-0.66 -0.16,-0.33 -0.2,-0.67 -0.09,-1 0.11,-0.32 0.33,-0.56 0.65,-0.72 0.33,-0.17 0.66,-0.2 1,-0.08 0.35,0.11 0.6,0.33 0.76,0.65 0.16,0.32 0.18,0.64 0.07,0.98 -0.12,0.34 -0.33,0.59 -0.65,0.75 -0.32,0.17 -0.65,0.19 -1,0.08zm-1.08 3.25c-0.34,-0.11 -0.59,-0.33 -0.76,-0.66 -0.16,-0.33 -0.19,-0.66 -0.08,-0.99 0.1,-0.32 0.32,-0.57 0.65,-0.73 0.32,-0.17 0.66,-0.19 1.01,-0.07 0.34,0.11 0.59,0.33 0.75,0.65 0.16,0.31 0.18,0.64 0.07,0.98 -0.11,0.34 -0.33,0.59 -0.65,0.75 -0.32,0.16 -0.65,0.18 -0.99,0.07z"/>
   <path class="fil2" d="M9.13 62.99l0.55 0.29c-0.08,0.24 -0.09,0.46 -0.01,0.68 0.07,0.21 0.24,0.38 0.5,0.51l3.34 1.71 2.69 -5.26 -3.35 -1.7c-0.24,-0.13 -0.47,-0.17 -0.68,-0.12 -0.21,0.05 -0.4,0.18 -0.57,0.4l-0.54 -0.27 1.91 -3.74 0.54 0.28c-0.1,0.3 -0.1,0.53 -0.02,0.73 0.09,0.2 0.26,0.35 0.51,0.47l7.84 3.99c0.25,0.13 0.46,0.18 0.62,0.15 0.17,-0.04 0.37,-0.19 0.62,-0.45l0.56 0.28 -1.91 3.74 -0.56 -0.29c0.07,-0.34 0.07,-0.59 0,-0.75 -0.07,-0.15 -0.23,-0.29 -0.49,-0.42l-3.67 -1.88 -2.69 5.25 3.68 1.88c0.25,0.14 0.46,0.19 0.65,0.13 0.19,-0.05 0.38,-0.19 0.6,-0.43l0.55 0.27 -1.92 3.75 -0.54 -0.28c0.05,-0.33 0.04,-0.57 -0.02,-0.74 -0.07,-0.16 -0.22,-0.31 -0.48,-0.44l-7.83 -4c-0.25,-0.12 -0.48,-0.16 -0.69,-0.1 -0.22,0.06 -0.4,0.19 -0.56,0.39l-0.54 -0.28 1.91 -3.75z"/>
   <path class="fil2" d="M29.78 48.44l0.85 0c0.06,1.13 -0.01,2.08 -0.21,2.86 -0.2,0.78 -0.54,1.47 -1.02,2.09 -1.07,1.39 -2.41,2.16 -4.03,2.29 -1.61,0.14 -3.12,-0.34 -4.53,-1.43 -1.42,-1.08 -2.25,-2.4 -2.5,-3.95 -0.25,-1.54 0.12,-2.95 1.09,-4.22 0.21,-0.27 0.42,-0.51 0.63,-0.71 0.21,-0.21 0.45,-0.42 0.72,-0.62 0.25,-0.16 0.43,-0.3 0.56,-0.42 0.13,-0.1 0.23,-0.22 0.3,-0.33 0.04,-0.03 0.06,-0.07 0.08,-0.14 0.01,-0.07 0.02,-0.16 0.02,-0.27 0.01,-0.02 0.01,-0.05 0,-0.09 0,-0.03 -0.01,-0.06 -0.01,-0.09l0.37 -0.49 2.24 1.73 -0.37 0.48c-0.62,-0.19 -1.27,-0.16 -1.96,0.07 -0.69,0.24 -1.25,0.64 -1.7,1.22 -0.05,0.08 -0.1,0.18 -0.16,0.27 -0.05,0.09 -0.11,0.19 -0.16,0.31 -0.34,0.85 -0.32,1.65 0.07,2.43 0.39,0.77 1.28,1.68 2.66,2.73 1.32,1.02 2.46,1.53 3.43,1.54 0.97,0 1.83,-0.49 2.6,-1.48 0.36,-0.46 0.62,-1 0.79,-1.61 0.18,-0.6 0.26,-1.33 0.24,-2.17z"/>
   <path class="fil2" d="M32.71 40.24l3.59 3.87 0.77 -0.72c0.64,-0.57 0.94,-1.15 0.91,-1.73 -0.03,-0.58 -0.33,-1.17 -0.88,-1.77 -0.61,-0.65 -1.21,-1.02 -1.8,-1.09 -0.59,-0.07 -1.2,0.18 -1.83,0.74l-0.76 0.7zm-3.34 -4.81l0.42 0.45c-0.18,0.23 -0.26,0.46 -0.25,0.68 0.02,0.22 0.16,0.45 0.41,0.71l2.15 2.31 1.1 -1.03c1.15,-1.06 2.23,-1.62 3.24,-1.69 1.02,-0.05 1.89,0.3 2.62,1.09 0.67,0.73 0.98,1.59 0.9,2.59 -0.07,1 -0.58,1.95 -1.54,2.84l-3.98 3.69 -0.42 -0.45c0.2,-0.21 0.28,-0.43 0.25,-0.65 -0.02,-0.23 -0.15,-0.48 -0.4,-0.75l-5.78 -6.22c-0.24,-0.27 -0.48,-0.42 -0.7,-0.45 -0.21,-0.03 -0.43,0.03 -0.67,0.18l-0.42 -0.44 3.07 -2.86z"/>
   <path class="fil2" d="M37.48 28.41l3.51 -2.3 0.34 0.52c-0.21,0.2 -0.32,0.4 -0.36,0.62 -0.03,0.2 0.04,0.43 0.2,0.64l1.68 2.56c0.54,-0.32 0.91,-0.75 1.09,-1.26 0.19,-0.52 0.21,-1.16 0.06,-1.92 -0.27,-1.28 -0.32,-2.16 -0.16,-2.66 0.16,-0.51 0.52,-0.94 1.07,-1.3 0.17,-0.12 0.34,-0.21 0.52,-0.29 0.16,-0.07 0.33,-0.14 0.48,-0.19l1.52 2.31 -0.51 0.33c-0.15,-0.12 -0.31,-0.19 -0.48,-0.2 -0.18,-0.01 -0.33,0.04 -0.46,0.12 -0.15,0.1 -0.27,0.24 -0.34,0.42 -0.08,0.18 -0.13,0.43 -0.15,0.74 -0.1,1.26 -0.2,2.02 -0.32,2.32 -0.1,0.29 -0.27,0.58 -0.49,0.85l0.07 0.11c0.25,-0.12 0.54,-0.23 0.83,-0.33 0.29,-0.11 0.57,-0.19 0.84,-0.23 0.58,-0.11 1.12,-0.06 1.62,0.12 0.5,0.19 1.09,0.59 1.76,1.21 0.55,0.52 0.87,0.82 0.96,0.9 0.09,0.07 0.17,0.12 0.24,0.16 0.29,0.19 0.61,0.29 0.95,0.31 0.35,0.03 0.66,-0.04 0.93,-0.2l0.37 0.56c-0.14,0.19 -0.28,0.35 -0.45,0.51 -0.16,0.15 -0.33,0.3 -0.54,0.43 -0.52,0.34 -1.05,0.55 -1.57,0.61 -0.53,0.07 -1.02,-0.02 -1.48,-0.25 -0.17,-0.06 -0.32,-0.15 -0.46,-0.26 -0.15,-0.1 -0.52,-0.46 -1.13,-1.07 -0.57,-0.57 -1.03,-0.95 -1.37,-1.15 -0.34,-0.21 -0.69,-0.34 -1.05,-0.39 -0.32,-0.04 -0.64,-0.02 -0.97,0.06 -0.32,0.07 -0.61,0.2 -0.88,0.4l2.65 4.03c0.16,0.24 0.34,0.39 0.54,0.45 0.2,0.05 0.43,0.03 0.69,-0.09l0.34 0.51 -3.51 2.31 -0.33 -0.52c0.2,-0.18 0.32,-0.37 0.35,-0.59 0.02,-0.21 -0.04,-0.44 -0.2,-0.68l-4.83 -7.35c-0.16,-0.23 -0.34,-0.37 -0.55,-0.43 -0.2,-0.07 -0.43,-0.04 -0.68,0.07l-0.34 -0.52z"/>
   <path class="fil2" d="M51.82 19.58l3.89 -1.62 0.24 0.58c-0.28,0.25 -0.45,0.46 -0.49,0.62 -0.05,0.16 -0.02,0.36 0.08,0.6l2.45 5.91 0.08 -0.02 2.78 -7.23 -0.31 -0.73c-0.1,-0.25 -0.24,-0.41 -0.44,-0.51 -0.19,-0.1 -0.43,-0.12 -0.71,-0.07l-0.24 -0.57 3.9 -1.61 0.23 0.57c-0.24,0.14 -0.39,0.32 -0.46,0.53 -0.06,0.21 -0.04,0.43 0.07,0.69l3.37 8.12c0.11,0.27 0.26,0.45 0.45,0.55 0.19,0.1 0.41,0.12 0.68,0.04l0.24 0.57 -3.89 1.61 -0.23 -0.57c0.22,-0.13 0.38,-0.3 0.46,-0.5 0.08,-0.21 0.06,-0.45 -0.05,-0.73l-2.5 -6.02 -0.08 0.03 -2.77 7.25 0.35 0.82c0.09,0.25 0.23,0.44 0.42,0.54 0.2,0.09 0.44,0.11 0.73,0.04l0.24 0.56 -3.89 1.62 -0.24 -0.57c0.24,-0.14 0.39,-0.31 0.46,-0.51 0.06,-0.21 0.04,-0.45 -0.07,-0.71l-3.37 -8.13c-0.11,-0.25 -0.27,-0.42 -0.46,-0.52 -0.18,-0.1 -0.41,-0.12 -0.68,-0.06l-0.24 -0.57z"/>
   <path class="fil2" d="M74.34 9.46c0.77,-0.15 1.39,-0.41 1.86,-0.76 0.46,-0.35 0.67,-0.66 0.62,-0.93 -0.02,-0.08 -0.06,-0.14 -0.13,-0.19 -0.06,-0.04 -0.14,-0.06 -0.23,-0.04 -0.06,0.02 -0.11,0.03 -0.17,0.08 -0.06,0.02 -0.15,0.08 -0.27,0.17 -0.26,0.18 -0.51,0.25 -0.75,0.18 -0.25,-0.07 -0.39,-0.21 -0.43,-0.44 -0.04,-0.21 0.01,-0.41 0.15,-0.58 0.14,-0.17 0.36,-0.29 0.67,-0.35 0.43,-0.08 0.81,-0.02 1.16,0.16 0.33,0.19 0.54,0.48 0.62,0.87 0.13,0.65 -0.09,1.29 -0.65,1.93 -0.57,0.64 -1.3,1.03 -2.21,1.21 -0.92,0.19 -1.76,0.09 -2.52,-0.28 -0.77,-0.38 -1.2,-0.88 -1.32,-1.54 -0.09,-0.39 -0.01,-0.74 0.23,-1.04 0.25,-0.3 0.59,-0.51 1.03,-0.59 0.29,-0.05 0.54,-0.01 0.74,0.08 0.21,0.1 0.33,0.26 0.37,0.47 0.03,0.23 -0.05,0.42 -0.25,0.58 -0.2,0.15 -0.45,0.18 -0.75,0.11 -0.15,-0.03 -0.27,-0.05 -0.33,-0.06 -0.07,-0.01 -0.12,-0.01 -0.16,0 -0.11,0.01 -0.18,0.06 -0.22,0.13 -0.05,0.07 -0.06,0.14 -0.03,0.21 0.05,0.31 0.38,0.52 0.98,0.65 0.6,0.12 1.27,0.12 1.99,-0.03zm-5.51 3.72l4.13 -0.81 0.12 0.6c-0.33,0.19 -0.53,0.37 -0.61,0.51 -0.07,0.15 -0.08,0.35 -0.03,0.61l1.23 6.28 0.09 -0.01 4.14 -6.54 -0.15 -0.77c-0.05,-0.26 -0.16,-0.46 -0.34,-0.59 -0.16,-0.14 -0.39,-0.21 -0.68,-0.21l-0.12 -0.6 4.14 -0.82 0.11 0.61c-0.27,0.1 -0.45,0.24 -0.55,0.43 -0.1,0.19 -0.12,0.42 -0.07,0.69l1.7 8.63c0.05,0.27 0.16,0.49 0.33,0.62 0.16,0.14 0.39,0.19 0.67,0.18l0.12 0.6 -4.13 0.81 -0.12 -0.6c0.24,-0.08 0.43,-0.22 0.55,-0.41 0.12,-0.18 0.15,-0.42 0.09,-0.71l-1.26 -6.4 -0.08 0.02 -4.14 6.55 0.17 0.88c0.04,0.27 0.15,0.47 0.32,0.6 0.17,0.14 0.4,0.2 0.7,0.19l0.11 0.6 -4.12 0.82 -0.13 -0.6c0.27,-0.09 0.44,-0.23 0.56,-0.42 0.1,-0.19 0.13,-0.42 0.07,-0.71l-1.7 -8.63c-0.06,-0.27 -0.18,-0.47 -0.34,-0.6 -0.16,-0.14 -0.39,-0.2 -0.66,-0.2l-0.12 -0.6z"/>
   <path class="fil2" d="M104.53 10.88l4.12 0.78 -0.11 0.61c-0.29,0.01 -0.52,0.06 -0.69,0.2 -0.17,0.13 -0.27,0.33 -0.31,0.6l-0.57 3.01c0.61,0.14 1.17,0.09 1.66,-0.15 0.5,-0.24 0.96,-0.7 1.38,-1.34 0.69,-1.11 1.27,-1.78 1.74,-2.02 0.46,-0.25 1.02,-0.32 1.67,-0.19 0.2,0.03 0.39,0.09 0.57,0.16 0.18,0.06 0.34,0.13 0.48,0.2l-0.51 2.71 -0.6 -0.12c-0.02,-0.19 -0.09,-0.35 -0.21,-0.48 -0.12,-0.13 -0.26,-0.2 -0.41,-0.23 -0.18,-0.03 -0.36,-0.01 -0.54,0.06 -0.18,0.08 -0.39,0.22 -0.62,0.44 -0.94,0.82 -1.56,1.3 -1.84,1.43 -0.28,0.14 -0.6,0.23 -0.95,0.27l-0.03 0.13c0.27,0.1 0.55,0.21 0.83,0.34 0.29,0.13 0.55,0.27 0.77,0.41 0.48,0.34 0.84,0.75 1.07,1.23 0.23,0.48 0.37,1.18 0.43,2.09 0.02,0.76 0.05,1.2 0.06,1.31 0.01,0.11 0.03,0.21 0.06,0.28 0.08,0.35 0.23,0.64 0.46,0.89 0.24,0.26 0.51,0.43 0.81,0.51l-0.12 0.65c-0.23,0.04 -0.45,0.06 -0.68,0.06 -0.22,0 -0.45,-0.02 -0.68,-0.07 -0.62,-0.12 -1.14,-0.34 -1.56,-0.66 -0.43,-0.32 -0.72,-0.72 -0.89,-1.21 -0.07,-0.16 -0.13,-0.33 -0.16,-0.51 -0.03,-0.17 -0.04,-0.68 -0.05,-1.55 -0.02,-0.81 -0.08,-1.4 -0.19,-1.78 -0.1,-0.39 -0.26,-0.72 -0.48,-1.01 -0.21,-0.25 -0.45,-0.46 -0.74,-0.63 -0.28,-0.17 -0.58,-0.28 -0.9,-0.33l-0.91 4.74c-0.05,0.28 -0.03,0.51 0.07,0.7 0.11,0.18 0.29,0.32 0.56,0.42l-0.11 0.6 -4.13 -0.79 0.12 -0.61c0.27,0.03 0.49,-0.04 0.66,-0.17 0.17,-0.13 0.28,-0.34 0.34,-0.63l1.65 -8.64c0.04,-0.27 0.01,-0.5 -0.09,-0.69 -0.1,-0.18 -0.29,-0.32 -0.54,-0.42l0.11 -0.6z"/>
   <path class="fil2" d="M123.25 18.78l-3.67 3.62 -0.03 0.07 4.11 1.55 0.03 -0.04 -0.38 -5.17 -0.06 -0.03zm-8.08 5.8c0.25,0.02 0.51,-0.04 0.79,-0.19 0.28,-0.14 0.55,-0.35 0.83,-0.6l5.79 -5.63c0.11,-0.12 0.22,-0.25 0.3,-0.39 0.09,-0.15 0.17,-0.32 0.26,-0.52 0.05,-0.13 0.01,-0.24 -0.11,-0.35 -0.12,-0.11 -0.29,-0.19 -0.51,-0.25l0.22 -0.58c0.44,0.13 0.86,0.19 1.24,0.18 0.39,-0.02 0.75,-0.11 1.08,-0.28l0.56 0.21 0.83 10.35c0.04,0.67 0.12,1.21 0.22,1.63 0.1,0.41 0.26,0.73 0.49,0.96l-0.22 0.58 -4.52 -1.72 0.22 -0.58c0.25,0.11 0.49,0.1 0.72,-0.01 0.23,-0.13 0.4,-0.31 0.49,-0.57 0.02,-0.05 0.03,-0.12 0.04,-0.25 0,-0.12 0.01,-0.22 0.01,-0.3l-0.1 -1.22 -5.04 -1.92 -0.77 0.79c-0.39,0.39 -0.55,0.73 -0.48,1.02 0.08,0.29 0.33,0.56 0.76,0.81l-0.22 0.58 -3.09 -1.17 0.21 -0.58z"/>
   <path class="fil2" d="M132.89 19.02l0.59 0.33c0.09,0.15 0.2,0.28 0.32,0.39 0.12,0.11 0.3,0.23 0.51,0.35l6.73 3.78c0.18,0.11 0.35,0.19 0.51,0.24 0.17,0.05 0.36,0.08 0.56,0.09l0.57 0.32 -1.5 2.69 -0.54 -0.3c0.06,-0.7 -0.02,-1.3 -0.24,-1.8 -0.22,-0.49 -0.58,-0.89 -1.09,-1.18l-0.97 -0.54 -4.68 8.33c-0.16,0.24 -0.21,0.46 -0.16,0.64 0.04,0.19 0.18,0.4 0.42,0.62l-0.31 0.54 -3.67 -2.06 0.3 -0.54c0.35,0.07 0.6,0.09 0.76,0.02 0.16,-0.06 0.3,-0.22 0.44,-0.47l4.68 -8.32 -0.82 -0.47c-0.62,-0.34 -1.21,-0.5 -1.76,-0.45 -0.55,0.05 -1.1,0.31 -1.62,0.78l-0.54 -0.3 1.51 -2.69z"/>
   <path class="fil2" d="M149.35 30.76c-0.92,-0.72 -1.83,-0.9 -2.72,-0.54 -0.89,0.37 -1.91,1.28 -3.05,2.74 -1.14,1.44 -1.78,2.63 -1.93,3.57 -0.14,0.94 0.24,1.77 1.16,2.5 0.91,0.72 1.81,0.9 2.7,0.54 0.88,-0.35 1.89,-1.25 3.04,-2.69 1.14,-1.45 1.79,-2.65 1.94,-3.6 0.15,-0.95 -0.23,-1.79 -1.14,-2.52zm0.57 -0.71c1.32,1.05 2.06,2.39 2.21,4.06 0.16,1.65 -0.31,3.15 -1.38,4.51 -1.07,1.35 -2.42,2.13 -4.04,2.37 -1.63,0.23 -3.12,-0.19 -4.46,-1.25 -1.35,-1.07 -2.1,-2.43 -2.25,-4.06 -0.14,-1.64 0.32,-3.12 1.38,-4.47 1.07,-1.36 2.42,-2.16 4.06,-2.39 1.64,-0.23 3.13,0.18 4.48,1.23z"/>
   <path class="fil2" d="M158.87 38.35l2.71 2.93 -5.09 9.31c-0.27,0.48 -0.41,0.83 -0.42,1.04 -0.02,0.21 0.04,0.42 0.18,0.64l-0.46 0.42 -2.13 -2.31 4.54 -8.31 -0.13 -0.15c-1,0.59 -2.08,1.19 -3.25,1.81 -1.16,0.62 -2.09,1.06 -2.75,1.31 -0.95,0.36 -1.7,0.53 -2.26,0.53 -0.56,0 -1.04,-0.23 -1.46,-0.67 -0.3,-0.34 -0.46,-0.68 -0.46,-1.03 0,-0.36 0.13,-0.65 0.4,-0.89 0.21,-0.2 0.47,-0.3 0.77,-0.3 0.3,0 0.56,0.11 0.79,0.35 0.04,0.05 0.08,0.11 0.13,0.19 0.03,0.08 0.08,0.17 0.12,0.27 0.13,0.36 0.2,0.55 0.22,0.57 0.02,0.04 0.05,0.07 0.08,0.1 0.18,0.2 0.5,0.24 0.97,0.12 0.46,-0.12 1.3,-0.47 2.5,-1.05 1.09,-0.53 2.05,-1.03 2.87,-1.49 0.82,-0.47 1.4,-0.86 1.73,-1.17 0.28,-0.25 0.43,-0.52 0.44,-0.8 0.01,-0.29 -0.09,-0.55 -0.3,-0.79l-0.19 -0.21 0.45 -0.42z"/>
   <path class="fil2" d="M167.73 48.64l2.25 3.57 -0.52 0.32c-0.3,-0.24 -0.53,-0.36 -0.7,-0.38 -0.17,-0.01 -0.36,0.05 -0.58,0.19l-5.42 3.41 0.04 0.07 7.6 1.52 0.67 -0.42c0.22,-0.14 0.36,-0.32 0.43,-0.52 0.06,-0.21 0.04,-0.45 -0.06,-0.72l0.52 -0.33 2.25 3.56 -0.52 0.34c-0.19,-0.22 -0.4,-0.34 -0.61,-0.37 -0.21,-0.02 -0.43,0.04 -0.66,0.18l-7.45 4.7c-0.24,0.15 -0.39,0.32 -0.46,0.52 -0.07,0.21 -0.04,0.44 0.08,0.69l-0.52 0.33 -2.25 -3.56 0.53 -0.33c0.16,0.2 0.35,0.32 0.57,0.37 0.21,0.04 0.45,-0.02 0.7,-0.17l5.52 -3.48 -0.04 -0.07 -7.61 -1.51 -0.75 0.48c-0.25,0.14 -0.39,0.31 -0.46,0.51 -0.06,0.21 -0.04,0.45 0.08,0.72l-0.52 0.33 -2.25 -3.56 0.52 -0.33c0.18,0.21 0.37,0.33 0.59,0.36 0.21,0.03 0.44,-0.03 0.68,-0.18l7.45 -4.69c0.22,-0.16 0.37,-0.33 0.44,-0.54 0.06,-0.2 0.05,-0.42 -0.06,-0.68l0.52 -0.33z"/>
   <path class="fil2" d="M176.7 63.87l1.54 3.91 -0.57 0.23c-0.14,-0.23 -0.31,-0.38 -0.52,-0.46 -0.21,-0.08 -0.44,-0.06 -0.69,0.04l-8.82 3.49 1.84 4.65 8.82 -3.47c0.24,-0.1 0.42,-0.25 0.52,-0.44 0.1,-0.19 0.13,-0.43 0.08,-0.71l0.57 -0.22 1.55 3.91 -0.58 0.23c-0.14,-0.25 -0.32,-0.4 -0.52,-0.47 -0.2,-0.06 -0.43,-0.05 -0.69,0.06l-8.03 3.17c-0.23,0.09 -0.39,0.18 -0.5,0.28 -0.11,0.1 -0.21,0.29 -0.29,0.56 -0.16,0.43 -0.33,0.76 -0.52,0.98 -0.19,0.23 -0.43,0.42 -0.73,0.53 -0.64,0.25 -1.3,0.2 -1.99,-0.18 -0.7,-0.38 -1.2,-0.96 -1.52,-1.76 -0.11,-0.27 -0.2,-0.6 -0.27,-0.97 -0.07,-0.37 -0.13,-0.76 -0.18,-1.18 -0.02,-0.24 -0.03,-0.47 -0.03,-0.7 0,-0.23 0,-0.58 0,-1.05 0.02,-0.47 0,-0.89 -0.03,-1.27 -0.04,-0.38 -0.1,-0.67 -0.18,-0.87 -0.06,-0.14 -0.13,-0.24 -0.22,-0.3 -0.08,-0.06 -0.16,-0.07 -0.25,-0.04 -0.06,0.01 -0.09,0.04 -0.12,0.08 -0.01,0.05 -0.01,0.1 0.02,0.18l0.1 0.2 -0.01 0.02c0.04,0.13 0.03,0.25 -0.02,0.36 -0.04,0.11 -0.14,0.19 -0.27,0.25 -0.16,0.05 -0.31,0.04 -0.46,-0.04 -0.16,-0.08 -0.28,-0.23 -0.37,-0.42 -0.1,-0.24 -0.09,-0.46 0.04,-0.67 0.11,-0.22 0.29,-0.37 0.54,-0.46 0.5,-0.2 1,-0.1 1.5,0.3 0.5,0.4 0.89,0.99 1.16,1.75 0.14,0.38 0.24,0.81 0.31,1.27 0.07,0.46 0.12,1.04 0.14,1.72 0.06,0.99 0.09,1.59 0.12,1.78 0.03,0.19 0.07,0.36 0.13,0.52 0.12,0.3 0.32,0.52 0.59,0.66 0.26,0.13 0.54,0.14 0.83,0.03 0.32,-0.12 0.52,-0.34 0.62,-0.66 0.09,-0.32 0.08,-0.64 -0.05,-0.96l-3.74 -9.46 0.58 -0.22c0.11,0.21 0.27,0.37 0.48,0.46 0.21,0.08 0.46,0.07 0.73,-0.04l8.19 -3.23c0.26,-0.12 0.44,-0.28 0.54,-0.49 0.1,-0.21 0.12,-0.43 0.05,-0.66l0.58 -0.22z"/>
   <path class="fil2" d="M177.51 84.61l-5.16 1.07 0.21 1.02c0.17,0.84 0.5,1.41 1.01,1.68 0.52,0.27 1.17,0.33 1.98,0.16 0.87,-0.18 1.49,-0.5 1.86,-0.97 0.37,-0.47 0.48,-1.12 0.31,-1.95l-0.21 -1.01zm5.86 -0.37l-0.61 0.13c-0.1,-0.28 -0.25,-0.47 -0.44,-0.57 -0.2,-0.09 -0.47,-0.09 -0.83,-0.02l-3.09 0.64 0.31 1.48c0.32,1.54 0.24,2.75 -0.23,3.65 -0.48,0.9 -1.24,1.46 -2.29,1.67 -0.97,0.2 -1.86,0.01 -2.69,-0.56 -0.82,-0.59 -1.36,-1.51 -1.62,-2.8l-1.1 -5.31 0.6 -0.13c0.08,0.27 0.22,0.46 0.43,0.55 0.21,0.1 0.49,0.11 0.85,0.05l8.32 -1.71c0.35,-0.08 0.6,-0.2 0.74,-0.37 0.14,-0.17 0.2,-0.39 0.19,-0.67l0.61 -0.13 0.85 4.1z"/>
   <path class="fil2" d="M185.11 94.33l0.19 4.2 -0.61 0.02c-0.07,-0.28 -0.19,-0.49 -0.35,-0.62 -0.17,-0.13 -0.39,-0.19 -0.66,-0.17l-3.06 0.14c0,0.64 0.18,1.16 0.53,1.59 0.35,0.42 0.89,0.76 1.63,1.03 1.22,0.42 2.01,0.82 2.36,1.22 0.35,0.39 0.54,0.92 0.57,1.59 0.01,0.2 0,0.4 -0.02,0.58 -0.02,0.19 -0.04,0.36 -0.09,0.53l-2.75 0.12 -0.03 -0.61c0.18,-0.06 0.32,-0.17 0.42,-0.32 0.09,-0.14 0.14,-0.3 0.13,-0.45 -0.01,-0.19 -0.07,-0.35 -0.18,-0.51 -0.12,-0.16 -0.31,-0.33 -0.57,-0.51 -1.02,-0.72 -1.63,-1.2 -1.83,-1.44 -0.19,-0.25 -0.35,-0.54 -0.48,-0.88l-0.12 0.01c-0.03,0.29 -0.08,0.58 -0.14,0.88 -0.06,0.32 -0.14,0.59 -0.23,0.85 -0.22,0.55 -0.53,0.99 -0.94,1.33 -0.42,0.33 -1.06,0.63 -1.94,0.89 -0.73,0.21 -1.15,0.33 -1.26,0.37 -0.11,0.03 -0.19,0.08 -0.26,0.13 -0.31,0.15 -0.57,0.37 -0.76,0.65 -0.19,0.28 -0.29,0.59 -0.3,0.9l-0.67 0.03c-0.09,-0.21 -0.15,-0.42 -0.21,-0.64 -0.05,-0.21 -0.08,-0.45 -0.09,-0.68 -0.02,-0.63 0.07,-1.19 0.28,-1.67 0.21,-0.49 0.53,-0.87 0.96,-1.14 0.15,-0.11 0.3,-0.2 0.47,-0.27 0.16,-0.07 0.66,-0.22 1.5,-0.42 0.77,-0.2 1.34,-0.4 1.69,-0.59 0.35,-0.19 0.64,-0.42 0.87,-0.71 0.19,-0.25 0.34,-0.54 0.44,-0.85 0.1,-0.33 0.13,-0.64 0.11,-0.97l-4.82 0.22c-0.29,0.01 -0.51,0.09 -0.66,0.23 -0.15,0.15 -0.25,0.36 -0.28,0.64l-0.62 0.03 -0.18 -4.19 0.61 -0.03c0.05,0.27 0.16,0.47 0.33,0.6 0.17,0.14 0.4,0.2 0.68,0.18l8.79 -0.39c0.27,-0.03 0.49,-0.11 0.65,-0.25 0.16,-0.15 0.26,-0.35 0.29,-0.62l0.61 -0.03z"/>
   <path class="fil2" d="M185.5 109.62l-0.5 4.18 -0.62 -0.08c-0.08,-0.37 -0.18,-0.61 -0.3,-0.73 -0.11,-0.12 -0.3,-0.2 -0.56,-0.23l-6.36 -0.76 -0.01 0.08 4.94 5.97 0.78 0.09c0.26,0.03 0.48,-0.01 0.66,-0.13 0.19,-0.13 0.32,-0.32 0.41,-0.59l0.61 0.07 -0.5 4.18 -0.61 -0.07c-0.01,-0.29 -0.09,-0.51 -0.24,-0.66 -0.16,-0.16 -0.36,-0.25 -0.64,-0.28l-8.73 -1.06c-0.29,-0.03 -0.51,0.01 -0.69,0.12 -0.19,0.12 -0.31,0.32 -0.38,0.6l-0.61 -0.08 0.5 -4.18 0.62 0.07c0,0.26 0.07,0.48 0.21,0.65 0.14,0.17 0.36,0.27 0.66,0.31l6.47 0.77 0.02 -0.08 -4.96 -5.96 -0.89 -0.11c-0.27,-0.04 -0.49,0 -0.68,0.12 -0.17,0.12 -0.31,0.32 -0.39,0.61l-0.61 -0.08 0.5 -4.18 0.62 0.07c0,0.27 0.07,0.5 0.22,0.65 0.15,0.16 0.36,0.26 0.64,0.29l8.74 1.06c0.28,0.02 0.51,-0.03 0.68,-0.14 0.18,-0.12 0.31,-0.3 0.39,-0.57l0.61 0.08z"/>
   <path class="fil2" d="M183.68 133.1c-0.23,0.75 -0.3,1.42 -0.22,1.99 0.09,0.58 0.27,0.91 0.53,0.99 0.08,0.03 0.16,0.02 0.23,-0.01 0.07,-0.04 0.12,-0.1 0.14,-0.19 0.02,-0.05 0.03,-0.12 0.02,-0.18 0,-0.07 -0.01,-0.17 -0.03,-0.32 -0.04,-0.32 0.03,-0.57 0.2,-0.75 0.18,-0.19 0.37,-0.24 0.59,-0.17 0.21,0.06 0.36,0.2 0.44,0.41 0.09,0.2 0.08,0.46 -0.01,0.74 -0.13,0.42 -0.36,0.75 -0.68,0.95 -0.33,0.21 -0.69,0.26 -1.07,0.14 -0.63,-0.19 -1.09,-0.69 -1.38,-1.48 -0.29,-0.81 -0.3,-1.65 -0.03,-2.53 0.28,-0.9 0.76,-1.59 1.46,-2.08 0.68,-0.49 1.35,-0.64 1.97,-0.43 0.39,0.1 0.66,0.33 0.81,0.7 0.15,0.36 0.16,0.75 0.03,1.18 -0.1,0.28 -0.24,0.48 -0.43,0.62 -0.18,0.13 -0.38,0.16 -0.58,0.1 -0.22,-0.09 -0.35,-0.25 -0.39,-0.5 -0.04,-0.24 0.04,-0.48 0.26,-0.71 0.09,-0.13 0.17,-0.21 0.2,-0.27 0.04,-0.05 0.07,-0.09 0.09,-0.14 0.03,-0.09 0.02,-0.18 -0.02,-0.25 -0.03,-0.07 -0.09,-0.11 -0.17,-0.12 -0.29,-0.1 -0.64,0.08 -1.04,0.55 -0.39,0.47 -0.7,1.06 -0.92,1.76zm-0.66 -6.61l-1.24 4.02 -0.59 -0.18c-0.01,-0.38 -0.07,-0.64 -0.16,-0.78 -0.1,-0.13 -0.27,-0.24 -0.52,-0.32l-6.12 -1.9 -0.02 0.09 3.78 6.75 0.76 0.23c0.25,0.08 0.47,0.07 0.67,-0.01 0.2,-0.09 0.37,-0.25 0.51,-0.51l0.59 0.18 -1.25 4.03 -0.59 -0.19c0.04,-0.28 0.01,-0.5 -0.11,-0.69 -0.12,-0.17 -0.31,-0.3 -0.58,-0.39l-8.4 -2.6c-0.27,-0.08 -0.51,-0.09 -0.71,-0.01 -0.19,0.08 -0.35,0.25 -0.47,0.52l-0.59 -0.19 1.25 -4.03 0.59 0.19c-0.04,0.26 -0.01,0.48 0.1,0.67 0.1,0.2 0.3,0.33 0.58,0.43l6.23 1.93 0.03 -0.08 -3.81 -6.76 -0.85 -0.26c-0.25,-0.1 -0.49,-0.1 -0.68,-0.01 -0.2,0.08 -0.37,0.26 -0.5,0.53l-0.59 -0.18 1.25 -4.03 0.59 0.19c-0.05,0.26 -0.02,0.49 0.1,0.67 0.12,0.18 0.31,0.32 0.58,0.41l8.41 2.6c0.26,0.07 0.49,0.06 0.69,-0.02 0.2,-0.07 0.36,-0.24 0.49,-0.48l0.58 0.18z"/>
  </g>
 </g>
</svg>
