<svg width="443" height="200" viewBox="0 0 443 200" fill="none" xmlns="http://www.w3.org/2000/svg">
 <g clip-path="url(#clip0_2_248)">
  <path d="M325.94 14.5899C325.96 14.5799 327.5 13.9199 331.33 13.7399C331.16 17.5299 330.5 19.0799 330.48 19.1299L330.04 20.0899H335.52L336.58 20.0799L336.14 19.1299C336.13 19.1099 335.44 17.5699 335.26 13.7399C339.12 13.9099 340.67 14.5799 340.68 14.5899L341.64 15.0299L341.63 8.49994L340.68 8.93994C340.66 8.93994 339.11 9.62994 335.26 9.80994C335.44 5.95994 336.13 4.40994 336.14 4.39994L336.59 3.43994H330.06L330.48 4.38994C330.48 4.40994 331.15 5.95994 331.33 9.80994C327.5 9.61994 325.96 8.93994 325.95 8.93994L324.99 8.48994V15.0099L325.94 14.5899V14.5899Z" fill="white"/>
  <path d="M439.92 54.6399H226.71V60.6299H439.92V54.6399Z" fill="white"/>
  <path d="M307.71 28.9C317.61 28.9 322.55 35.85 322.55 35.85H330C330 35.85 324.74 22.84 307.91 22.84C286.49 22.84 281.36 36.59 247.27 36.59C238.75 36.59 227.03 35.58 226.71 35.58V41.43C226.71 41.43 233.29 42.64 246.88 42.64C285.44 42.64 288.34 28.9 307.71 28.9V28.9Z" fill="white"/>
  <path d="M336.62 35.85H344.08C344.08 35.85 349.01 28.9 358.91 28.9C378.29 28.9 381.18 42.64 419.74 42.64C433.33 42.64 439.92 41.43 439.92 41.43L439.91 35.58C439.59 35.58 427.88 36.59 419.35 36.59C385.26 36.59 380.13 22.84 358.71 22.84C341.89 22.84 336.62 35.85 336.62 35.85V35.85Z" fill="white"/>
  <path d="M418.53 158.17L410.31 170.54L402.09 158.17C401.31 157.03 399.76 156.74 398.63 157.51C397.49 158.28 397.19 159.84 397.97 160.97L407.82 175.45V184.95C407.82 186.33 408.93 187.44 410.31 187.44C411.69 187.44 412.8 186.33 412.8 184.95V175.45L422.65 160.97C423.43 159.84 423.13 158.28 421.99 157.51C420.86 156.74 419.31 157.03 418.53 158.17Z" fill="white"/>
  <path d="M337.34 157.3C335.96 157.3 334.85 158.41 334.85 159.78C334.85 159.78 334.84 172.83 334.84 176.65C334.84 179.89 331.41 182.74 327.09 182.74C322.44 182.74 319.34 179.56 319.34 176.59C319.34 172.77 319.33 159.78 319.33 159.78C319.33 158.41 318.22 157.3 316.84 157.3C315.46 157.3 314.35 158.41 314.35 159.79C314.35 159.79 314.36 172.71 314.36 176.17C314.36 183.09 320.28 187.73 327.09 187.73C333.89 187.73 339.82 183.1 339.82 176.17C339.82 174.75 339.83 159.79 339.83 159.79C339.83 158.41 338.72 157.3 337.34 157.3Z" fill="white"/>
  <path d="M266.69 98.2499C266.67 95.5799 266.65 93.2199 266.65 92.0699C266.65 91.1399 266.66 88.3099 271.7 88.2699L274.64 88.2499H274.72C278.97 88.2499 280.5 90.7199 280.52 93.0399C280.53 94.3899 280.03 95.6099 279.1 96.4899C277.94 97.5899 276.12 98.1799 273.84 98.1999L266.69 98.2499ZM282.53 100.11C284.48 98.2699 285.53 95.7399 285.51 92.9999C285.47 88.2999 282.08 83.2599 274.72 83.2599H274.61L271.67 83.2899C265.51 83.3299 261.68 86.6899 261.66 92.0599C261.66 95.6499 261.81 110.42 261.82 111.05C261.83 112.42 262.95 113.51 264.31 113.51H264.34C265.72 113.5 266.82 112.37 266.81 110.99C266.81 110.92 266.73 103.24 266.73 103.24L273.88 103.18C277.44 103.16 280.43 102.1 282.53 100.11Z" fill="white"/>
  <path d="M385.77 88.1399C387.15 88.1399 388.27 87.0299 388.27 85.6499C388.27 84.2699 387.15 83.1599 385.77 83.1599H368.96C367.58 83.1599 366.47 84.2699 366.46 85.6499C366.46 86.2699 366.43 101.04 366.46 104.63C366.52 110 370.38 113.33 376.54 113.33H385.77C387.15 113.33 388.27 112.21 388.27 110.84C388.27 109.46 387.15 108.34 385.77 108.34H376.54C371.49 108.34 371.46 105.51 371.45 104.58C371.44 103.73 371.44 102.22 371.44 100.41H383.43C384.8 100.41 385.92 99.2899 385.92 97.9099C385.92 96.5399 384.8 95.4199 383.43 95.4199H371.44C371.44 92.7199 371.44 90.0199 371.45 88.1399H385.77V88.1399Z" fill="white"/>
  <path d="M244.72 157.3H236.63C230.48 157.3 226.62 160.63 226.56 165.99C226.53 169.58 226.56 184.33 226.56 184.96C226.57 186.33 227.68 187.45 229.05 187.45H229.06C230.44 187.44 231.55 186.32 231.55 184.95C231.55 184.86 231.53 179.68 231.53 174.66H243.23C244.61 174.66 245.72 173.54 245.72 172.17C245.72 170.79 244.61 169.68 243.23 169.68H231.53C231.53 168.1 231.54 166.8 231.55 166.04C231.55 165.11 231.59 162.28 236.63 162.28H244.72C246.1 162.28 247.22 161.17 247.22 159.79C247.22 158.41 246.1 157.3 244.72 157.3V157.3Z" fill="white"/>
  <path d="M310.18 96.1499C309.03 97.3199 307.17 97.9499 304.81 97.9699L297.66 98.0199C297.63 95.3499 297.62 92.9899 297.62 91.8399C297.62 90.9099 297.63 88.0799 302.67 88.0499L305.61 88.0199H305.69C309.94 88.0199 311.47 90.4899 311.49 92.8199C311.5 93.7199 311.28 95.0399 310.18 96.1499V96.1499ZM305.69 83.0399H305.57L302.64 83.0599C296.48 83.1099 292.64 86.4699 292.63 91.8299C292.63 95.4299 292.78 110.19 292.79 110.82C292.8 112.19 293.91 113.29 295.28 113.29H295.3C296.68 113.27 297.79 112.14 297.77 110.77C297.77 110.69 297.7 103.01 297.7 103.01L304.85 102.96C309.53 102.93 312.27 101.14 313.74 99.6499C315.52 97.8299 316.5 95.3899 316.48 92.7799C316.44 88.0699 313.05 83.0399 305.69 83.0399V83.0399Z" fill="white"/>
  <path d="M343.07 108.34H334.83C329.78 108.34 329.75 105.51 329.74 104.58C329.7 101.02 329.74 85.8099 329.74 85.6599C329.75 84.2799 328.63 83.1599 327.25 83.1599C325.87 83.1599 324.76 84.2699 324.75 85.6499C324.75 86.2699 324.72 101.04 324.75 104.63C324.81 110 328.67 113.33 334.83 113.33H343.07C344.45 113.33 345.57 112.21 345.57 110.83C345.57 109.46 344.45 108.34 343.07 108.34Z" fill="white"/>
  <path d="M355.87 110.83V85.6499C355.87 84.2699 354.76 83.1599 353.38 83.1599C352 83.1599 350.89 84.2699 350.89 85.6499V110.83C350.89 112.21 352 113.33 353.38 113.33C354.76 113.33 355.87 112.21 355.87 110.83V110.83Z" fill="white"/>
  <path d="M308.67 125.12C310.04 125.12 311.16 124.01 311.16 122.64C311.16 121.26 310.04 120.15 308.67 120.15H294.51C293.14 120.15 292.02 121.26 292.02 122.63C292.02 123.26 291.99 138 292.02 141.58C292.07 146.93 295.93 150.26 302.08 150.26H308.67C310.04 150.26 311.16 149.15 311.16 147.77C311.16 146.4 310.04 145.28 308.67 145.28H302.08C297.04 145.28 297.01 142.46 297 141.53C296.99 140.68 296.99 139.17 296.98 137.37H306.61C307.99 137.37 309.1 136.25 309.1 134.88C309.1 133.5 307.99 132.39 306.61 132.39H296.98C296.99 129.69 296.99 126.99 296.99 125.12H308.67V125.12Z" fill="white"/>
  <path d="M280.9 120.15C279.53 120.15 278.42 121.26 278.42 122.64V147.77C278.42 149.15 279.53 150.26 280.9 150.26C282.28 150.26 283.39 149.15 283.39 147.77V122.64C283.39 121.26 282.28 120.15 280.9 120.15V120.15Z" fill="white"/>
  <path d="M367.01 182.46H357.31C352.27 182.46 352.24 179.63 352.23 178.7C352.19 175.15 352.23 159.95 352.23 159.8C352.23 158.42 351.12 157.3 349.74 157.3C348.36 157.3 347.25 158.41 347.24 159.79C347.24 160.41 347.21 175.17 347.24 178.76C347.3 184.11 351.16 187.45 357.31 187.45H367.01C368.38 187.45 369.5 186.33 369.5 184.95C369.5 183.58 368.38 182.46 367.01 182.46Z" fill="white"/>
  <path d="M409 108.34H402.18V88.1399H409C415.03 88.1399 418.1 91.5399 418.1 98.2399C418.1 104.94 415.03 108.34 409 108.34V108.34ZM409 83.1599H399.69C398.31 83.1599 397.19 84.2699 397.19 85.6499V110.84C397.19 112.21 398.31 113.33 399.69 113.33H409C417.82 113.33 423.09 107.69 423.09 98.2399C423.09 88.7999 417.82 83.1599 409 83.1599V83.1599Z" fill="white"/>
  <path d="M392.11 157.02H368.75C367.37 157.02 366.26 158.13 366.26 159.51C366.26 160.89 367.37 162 368.75 162H377.94V184.95C377.94 186.33 379.05 187.45 380.43 187.45C381.8 187.45 382.92 186.33 382.92 184.95V162H392.11C393.49 162 394.6 160.89 394.6 159.51C394.6 158.13 393.49 157.02 392.11 157.02Z" fill="white"/>
  <path d="M235.64 98.6499C237.17 94.3899 238.48 90.8099 238.8 90.0199C239.53 88.2299 240.26 88.2299 240.58 88.2299C241.07 88.2299 241.62 88.2299 242.35 90.0199C242.68 90.8099 243.98 94.3899 245.51 98.6499H235.64ZM252.64 113.58C252.92 113.58 253.2 113.54 253.48 113.44C254.79 112.97 255.47 111.53 255.01 110.22C254.72 109.41 247.9 90.2699 247.02 88.1099C245.69 84.8499 243.52 83.1899 240.58 83.1899C238.92 83.1899 235.88 83.8299 234.14 88.1099C233.26 90.2699 226.44 109.41 226.14 110.22C225.68 111.53 226.36 112.97 227.67 113.44C228.98 113.91 230.42 113.22 230.89 111.91C231.69 109.66 232.75 106.7 233.83 103.69H247.32C248.4 106.7 249.46 109.66 250.27 111.91C250.63 112.94 251.6 113.58 252.64 113.58Z" fill="white"/>
  <path d="M264.93 125.12C266.64 125.12 268.19 125.76 268.19 125.76C269.46 126.31 270.92 125.72 271.47 124.46C272.01 123.2 271.43 121.73 270.16 121.19C269.92 121.08 267.65 120.14 264.93 120.14C256.13 120.14 250.87 125.77 250.87 135.2C250.87 144.63 256.13 150.26 264.93 150.26C267.65 150.26 269.92 149.31 270.17 149.21C271.43 148.67 272 147.21 271.47 145.95C270.93 144.69 269.47 144.1 268.21 144.63C268.21 144.63 266.64 145.28 264.93 145.28C258.9 145.28 255.85 141.89 255.85 135.2C255.85 128.51 258.9 125.12 264.93 125.12V125.12Z" fill="white"/>
  <path d="M363.91 125.12C365.62 125.12 367.17 125.76 367.17 125.76C368.44 126.31 369.9 125.72 370.45 124.46C370.99 123.2 370.41 121.73 369.14 121.19C368.89 121.08 366.63 120.14 363.91 120.14C355.1 120.14 349.85 125.77 349.85 135.2C349.85 144.63 355.1 150.26 363.91 150.26C366.63 150.26 368.89 149.31 369.14 149.21C370.4 148.66 370.98 147.21 370.45 145.95C369.91 144.69 368.45 144.1 367.19 144.63C367.19 144.63 365.62 145.28 363.91 145.28C357.88 145.28 354.82 141.89 354.82 135.2C354.82 128.51 357.88 125.12 363.91 125.12V125.12Z" fill="white"/>
  <path d="M299.21 162.28C301.72 162.28 304.09 163.63 304.09 163.63C305.3 164.33 306.82 163.93 307.52 162.74C308.21 161.55 307.81 160.03 306.62 159.33C306.27 159.12 303.03 157.3 299.21 157.3C290.4 157.3 285.14 162.93 285.14 172.37C285.14 181.81 290.4 187.44 299.21 187.44C303 187.44 306.26 185.62 306.61 185.41C307.8 184.72 308.2 183.21 307.52 182.02C306.84 180.83 305.32 180.41 304.12 181.09C304.12 181.09 301.7 182.46 299.21 182.46C293.18 182.46 290.12 179.06 290.12 172.37C290.12 165.68 293.18 162.28 299.21 162.28Z" fill="white"/>
  <path d="M340.53 120.15C339.16 120.15 338.04 121.26 338.04 122.64V133.63L338.22 141.13L337.63 140.17C335.78 137.6 327.2 125.66 324.06 121.27C323.7 120.77 322.84 120.15 321.88 120.15C320.51 120.15 319.39 121.26 319.39 122.64V147.77C319.39 149.15 320.51 150.26 321.88 150.26C323.25 150.26 324.37 149.15 324.37 147.77V136.09L324.21 129.3L324.8 130.26C326.69 132.89 335.26 144.82 338.35 149.14C338.71 149.64 339.61 150.26 340.53 150.26C341.91 150.26 343.02 149.15 343.02 147.77V122.64C343.02 121.26 341.91 120.15 340.53 120.15V120.15Z" fill="white"/>
  <path d="M260.02 172.63C261.55 168.38 262.85 164.8 263.18 164.01C263.9 162.22 264.64 162.22 264.95 162.22C265.44 162.22 266 162.22 266.73 164.01C267.05 164.8 268.35 168.38 269.88 172.63H260.02V172.63ZM271.38 162.1C270.05 158.84 267.89 157.19 264.95 157.19C263.3 157.19 260.26 157.82 258.51 162.1C257.64 164.26 250.82 183.38 250.53 184.19C250.06 185.5 250.74 186.94 252.05 187.41C253.36 187.88 254.8 187.19 255.27 185.88C256.07 183.63 257.13 180.68 258.21 177.66H271.69C272.77 180.68 273.83 183.63 274.63 185.88C275 186.91 275.97 187.55 277 187.55C277.28 187.55 277.56 187.51 277.84 187.41C279.15 186.94 279.84 185.5 279.37 184.19C279.08 183.38 272.26 164.26 271.38 162.1Z" fill="white"/>
  <path d="M394.75 125.13C396.13 125.13 397.24 124.01 397.24 122.64C397.24 121.26 396.13 120.15 394.75 120.15H380.59C379.22 120.15 378.11 121.26 378.11 122.63C378.1 123.25 378.07 138 378.11 141.58C378.16 146.93 382.01 150.26 388.16 150.26H394.75C396.13 150.26 397.24 149.15 397.24 147.77C397.24 146.4 396.13 145.28 394.75 145.28H388.16C383.12 145.28 383.09 142.46 383.08 141.53C383.08 140.68 383.07 137.37 383.07 137.37H392.7C394.07 137.37 395.19 136.25 395.19 134.88C395.19 133.5 394.07 132.39 392.7 132.39H383.07L383.08 125.13H394.75V125.13Z" fill="white"/>
  <path d="M412.42 145.74C409.9 145.74 407.77 144.84 406.58 143.27C406.07 142.59 405.35 142.21 404.57 142.21C403.29 142.21 401.93 143.19 401.93 144.64C401.93 146.69 405.42 150.33 412.38 150.33C419.33 150.33 423.09 145.92 423.09 141.76C423.09 138.53 420.95 135.66 417.08 133.68C416.1 133.19 414.86 132.62 413.66 132.07L413.46 131.98C412.4 131.49 411.4 131.04 410.63 130.65C408.96 129.84 407.93 128.63 407.93 127.5C407.93 126.01 409.51 124.48 412.18 124.48C414.12 124.48 415.66 125.05 416.75 126.17C417.36 126.81 418.12 127.17 418.87 127.17C420.26 127.17 421.43 126.03 421.43 124.7C421.43 122.78 418.23 120.12 412.22 120.12C406.19 120.12 403.05 123.91 403.05 127.65C403.05 130.68 405.08 133.34 408.49 134.78C410.61 135.67 412.74 136.76 414.71 137.8C416.72 138.84 417.98 140.42 417.98 141.91C417.98 142.9 416.96 145.74 412.42 145.74V145.74Z" fill="white"/>
  <path d="M236.07 145.74C233.54 145.74 231.41 144.84 230.22 143.26C229.71 142.59 228.99 142.21 228.21 142.21C226.94 142.21 225.57 143.19 225.57 144.64C225.57 146.69 229.06 150.33 236.02 150.33C242.98 150.33 246.73 145.92 246.73 141.76C246.73 138.53 244.59 135.66 240.72 133.68C239.67 133.15 238.29 132.52 237.18 132.02L237.11 131.99C236.05 131.5 235.05 131.04 234.27 130.65C232.6 129.84 231.57 128.63 231.57 127.5C231.57 126.01 233.16 124.48 235.82 124.48C237.76 124.48 239.3 125.05 240.39 126.17C241 126.81 241.76 127.17 242.51 127.17C243.9 127.17 245.07 126.03 245.07 124.7C245.07 122.78 241.87 120.12 235.86 120.12C229.84 120.12 226.69 123.91 226.69 127.65C226.69 130.68 228.72 133.34 232.13 134.78C234.25 135.67 236.37 136.76 238.35 137.8C240.37 138.84 241.62 140.42 241.62 141.91C241.62 142.9 240.6 145.74 236.07 145.74V145.74Z" fill="white"/>
  <path d="M432.73 169.22C427.4 169.22 423.09 173.53 423.09 178.86C423.09 184.19 427.4 188.5 432.73 188.5C438.05 188.5 442.37 184.19 442.37 178.86C442.37 173.53 438.05 169.22 432.73 169.22V169.22Z" fill="#8BC751"/>
  <path d="M71.16 182.18L79.35 183.82C79.61 183.87 79.79 183.89 79.9 183.87C80 183.85 80.1 183.79 80.18 183.68L80.59 183.76L80 186.72L79.4 186.6C79.35 185.94 79.17 185.43 78.86 185.07C78.55 184.72 77.96 184.46 77.09 184.29L74.33 183.73L73.5 187.9L75.33 188.27C75.83 188.38 76.2 188.37 76.46 188.25C76.72 188.13 76.89 187.88 76.96 187.51L77.56 187.63L76.96 190.61L76.37 190.49C76.41 190.13 76.34 189.85 76.19 189.63C76.03 189.41 75.8 189.27 75.49 189.21L73.32 188.78L72.36 193.56L76.33 194.35C76.94 194.48 77.52 194.39 78.06 194.11C78.61 193.82 79 193.38 79.23 192.8L79.82 192.92L79.24 195.84L68.84 193.77L68.96 193.17C69.24 193.21 69.47 193.15 69.65 193.01C69.83 192.87 69.96 192.62 70.04 192.25L71.69 184.04C71.75 183.68 71.72 183.41 71.61 183.22C71.5 183.02 71.31 182.88 71.04 182.78L71.16 182.18V182.18Z" fill="white"/>
  <path d="M88.6 187.16L88.52 190.03C88.5 190.45 88.67 190.81 89.03 191.08C89.38 191.35 89.79 191.5 90.25 191.5C90.81 191.53 91.23 191.34 91.51 190.93C91.8 190.51 91.96 189.72 91.99 188.55C92.02 187.37 91.92 186.58 91.67 186.17C91.43 185.76 91.02 185.54 90.43 185.49C89.94 185.45 89.51 185.59 89.16 185.9C88.8 186.22 88.61 186.63 88.6 187.16V187.16ZM84.99 196.45L85 195.84C85.24 195.82 85.44 195.74 85.6 195.58C85.75 195.42 85.84 195.19 85.86 194.88L86.04 188.29C86.06 187.12 86.47 186.2 87.29 185.54C88.1 184.87 89.22 184.56 90.66 184.6C91.98 184.63 93 185.05 93.73 185.85C94.47 186.65 94.82 187.59 94.79 188.65C94.76 189.54 94.55 190.31 94.16 190.96C93.77 191.6 93.21 192.06 92.5 192.34C92.25 192.44 91.99 192.53 91.75 192.58C91.5 192.63 91.25 192.65 91.02 192.64C90.52 192.63 90.07 192.56 89.65 192.44C89.23 192.31 88.84 192.11 88.47 191.83L88.39 194.95C88.37 195.21 88.45 195.43 88.61 195.62C88.78 195.81 89 195.92 89.26 195.95L89.24 196.56L84.99 196.45V196.45Z" fill="white"/>
  <path d="M108.8 192.75L109.4 193.34C108.65 194.18 107.93 194.79 107.24 195.19C106.55 195.59 105.82 195.84 105.05 195.94C103.31 196.17 101.82 195.77 100.59 194.74C99.35 193.72 98.62 192.33 98.39 190.59C98.17 188.84 98.51 187.34 99.43 186.09C100.35 184.83 101.6 184.1 103.18 183.9C103.52 183.86 103.83 183.83 104.13 183.83C104.42 183.84 104.74 183.87 105.07 183.91C105.36 183.97 105.59 184 105.76 184.01C105.92 184.02 106.07 184.02 106.21 183.99C106.25 183.99 106.3 183.98 106.36 183.94C106.42 183.91 106.49 183.85 106.57 183.77C106.59 183.75 106.61 183.73 106.63 183.71C106.65 183.69 106.67 183.66 106.69 183.63L107.29 183.56L107.65 186.31L107.05 186.4C106.74 185.83 106.27 185.39 105.62 185.08C104.96 184.77 104.28 184.66 103.57 184.76C103.47 184.77 103.36 184.8 103.26 184.82C103.15 184.85 103.04 184.89 102.93 184.93C102.09 185.28 101.53 185.87 101.26 186.68C101 187.48 100.97 188.74 101.2 190.44C101.41 192.06 101.86 193.22 102.54 193.9C103.21 194.57 104.17 194.83 105.41 194.67C105.99 194.6 106.55 194.41 107.11 194.11C107.65 193.8 108.22 193.35 108.8 192.75V192.75Z" fill="white"/>
  <path d="M90.51 46.4299H94.5C94.5 46.4299 93.75 44.8399 93.63 40.6899C97.8 40.7999 99.39 41.5399 99.39 41.5399V37.5599C99.39 37.5599 97.8 38.2999 93.63 38.4199C93.75 34.2599 94.5 32.6699 94.5 32.6699H90.51C90.51 32.6699 91.24 34.2599 91.36 38.4199C87.21 38.2999 85.62 37.5599 85.62 37.5599V41.5399C85.62 41.5399 87.21 40.8099 91.36 40.6899C91.24 44.8399 90.51 46.4299 90.51 46.4299Z" fill="white"/>
  <path d="M142.46 66.1799C142.47 78.3399 142.44 87.5999 142.45 99.7599C142.46 114.16 142.45 143.61 142.45 149.66C136.75 148.2 130.83 146.94 125.03 146.76C113.91 146.42 101.37 149.56 92.66 157.1C92.63 157.12 92.6 157.15 92.56 157.19C84.42 150.06 72.98 146.95 62.56 146.81C55.92 146.73 49.13 148.02 42.59 149.49C42.58 137.62 42.57 125.23 42.55 113.39C42.54 97.5699 42.59 67.0699 42.59 66.1899C42.59 65.3999 39.48 64.2299 39.48 65.0199C39.49 77.1799 39.5 87.6099 39.51 99.7799C39.53 115.59 39.48 149.59 39.48 150.48C39.48 151.19 41.47 151.04 41.84 150.95C47.83 149.5 54.13 148.89 60.28 148.78C71.04 148.59 83.11 150.94 91.1 158.83C91.71 159.42 93.42 159.42 94.02 158.83C102.13 150.82 114.1 148.43 125.03 148.72C131.11 148.89 137.36 149.64 143.25 151.22C143.62 151.31 145.53 151.44 145.53 150.75C145.52 138.58 145.51 125.84 145.49 113.67C145.48 97.7899 145.53 65.9399 145.53 65.0199C145.53 64.2299 142.46 65.3999 142.46 66.1799V66.1799Z" fill="white"/>
  <path d="M55.54 55.4299C61.22 51.1199 65.32 46.3499 72.49 46.3499C76.16 46.3499 78.61 50.0899 78.61 52.3699C78.61 53.9699 78.19 57.1699 74.64 57.1699C71.53 57.1699 70.64 53.3899 71.9 51.2999C67.32 51.2999 67.08 58.3899 74.69 58.3899C77.96 58.3899 81.32 56.4999 81.32 52.5599C81.32 49.9199 79.44 45.3099 72.48 45.3099C64.85 45.3099 59.98 49.1999 53.82 53.8099C47.46 58.5699 41.71 59.8699 33.88 59.0699V60.2399H33.89C33.89 73.2199 33.89 141.83 33.89 142.32C33.89 143.11 36.92 144.27 36.92 143.49C36.92 131.74 36.92 67.4699 36.92 60.5999C43.67 61.0999 50.11 59.5499 55.54 55.4299V55.4299Z" fill="white"/>
  <path d="M151.02 59.0699C143.18 59.8699 137.44 58.5799 131.07 53.8099C124.92 49.1999 120.04 45.2999 112.41 45.2999C105.46 45.2999 103.58 49.9199 103.58 52.5599C103.58 56.4999 106.94 58.3899 110.2 58.3899C117.82 58.3899 117.57 51.2999 113 51.2999C114.26 53.3899 113.36 57.1699 110.26 57.1699C106.71 57.1699 106.29 53.9599 106.29 52.3699C106.29 50.0899 108.74 46.3499 112.4 46.3499C119.58 46.3499 123.68 51.1199 129.36 55.4299C134.78 59.5499 141.23 61.0999 147.97 60.5999C147.97 67.4699 147.98 131.74 147.98 143.49C147.98 144.27 151.01 143.1 151.01 142.32C151.01 141.84 151 73.2199 151 60.2399H151.02V59.0699V59.0699Z" fill="white"/>
  <path d="M80.02 97.5999C78.15 94.0799 71.56 80.5599 68.75 74.8199C66.86 70.9599 64.28 69.4999 62.32 69.0299C60.98 68.7199 54.32 69.0299 52.75 69.0399V69.1499C54.77 70.0099 58.79 74.4699 60.35 77.8499C61.4 80.1199 67.7 93.0299 69.89 97.1699C72.07 101.29 76.85 102.79 78.87 103.04C79.8 103.15 80.77 103.15 81.73 103.13C71.91 116.09 62.86 128.08 63.88 126.65C60.67 130.61 57.6 132.2 54.6 133.11L54.61 133.67C62.47 133.67 68.05 127.89 69.02 126.63C70.73 124.4 79.42 112.77 88.43 100.86V128.99H96.19V92.0599C97.85 93.3999 99.79 95.4999 101.19 98.0099C101.94 99.3599 105.74 108.26 108.24 111.71C110.34 114.61 113.58 115.06 116.64 115.07C110.96 122.57 105.12 130.25 101.08 135.51C99.69 137.32 98.3 139.07 96.75 140.7C96.13 141.34 92.9 145.01 89.98 145.01C86.77 145.01 84.73 142.51 84.73 140.02C84.73 137.33 86.18 134.53 89.34 133.82C92.35 133.15 94.83 134.76 95.29 135.23C95.29 135.23 98.33 134.37 98.33 134.35C96.6 132.8 91.91 131.89 89.15 132.37C84.88 133.1 81.12 135.95 81.12 140.28C81.12 143.19 84.05 146.32 89.93 146.32C96.99 146.32 101.67 140.94 103.23 139.25C103.99 138.42 121.46 115.21 131.46 102.09H131.45C131.69 101.77 131.88 101.5 132.04 101.3C133.45 99.3599 138.49 93.2099 136.16 90.5099L130.33 90.4999V90.8299C133.3 92.5399 128.85 99.0199 126.53 102.09H126.49C124.01 105.36 121.17 109.1 118.24 112.96C117.58 112.3 117.14 111.49 116.69 110.63C115.31 108.01 111.4 100.35 109.38 96.16C108.04 93.37 105.42 90.6499 102.78 90.5099C100.6 90.3999 98.38 90.5999 96.19 90.6199C100.29 85.2399 104.03 80.3899 106.67 77.0799C108.09 75.2899 109.46 73.5199 111.01 71.8999C111.62 71.2499 114.86 67.5799 117.78 67.5799C120.98 67.5799 123.03 70.0799 123.03 72.5599C123.03 75.2599 121.58 78.0599 118.41 78.7599C115.4 79.4299 112.93 77.8299 112.46 77.3599C112.46 77.3599 109.42 78.2099 109.42 78.2399C111.15 79.7799 115.84 80.6899 118.61 80.2199C122.88 79.4999 126.64 76.6399 126.64 72.3099C126.64 69.3899 123.7 66.2699 117.83 66.2699C110.76 66.2699 106.08 71.6499 104.53 73.3399C103.99 73.9299 100.69 78.1999 96.19 84.0999V52.3199H88.43V94.2999C86.72 96.5499 84.97 98.8599 83.23 101.15C81.93 100.3 80.84 99.1399 80.02 97.5999V97.5999Z" fill="white"/>
  <path d="M28.27 153.7L31.53 157.37L31.09 157.76C30.84 157.47 30.59 157.35 30.34 157.41C30.08 157.47 29.89 157.72 29.76 158.17L28.31 162.86L28.39 162.95L32.45 161.58C32.57 161.54 32.7 161.49 32.84 161.42C32.98 161.36 33.09 161.29 33.14 161.25C33.28 161.11 33.34 160.94 33.32 160.73C33.31 160.53 33.18 160.24 32.95 159.88L33.4 159.48L35.49 161.82L35.03 162.23C34.78 162.1 34.55 162.03 34.32 162.02C34.1 162.01 33.76 162.09 33.31 162.25L26.14 164.66C24.98 165.04 24.01 165.17 23.25 165.03C22.48 164.89 21.84 164.52 21.31 163.92C20.84 163.4 20.59 162.89 20.53 162.4C20.49 161.9 20.65 161.48 21.02 161.15C21.31 160.89 21.63 160.75 21.98 160.74C22.32 160.72 22.64 160.87 22.93 161.2C23.15 161.45 23.27 161.72 23.29 162.01C23.31 162.31 23.2 162.6 22.98 162.91C22.82 163.11 22.75 163.27 22.76 163.41C22.77 163.55 22.83 163.68 22.95 163.82C23.17 164.06 23.5 164.18 23.94 164.19C24.38 164.2 24.85 164.11 25.33 163.94L27.92 155.59C27.99 155.31 28.02 155.05 28 154.8C27.98 154.55 27.92 154.31 27.82 154.1L28.27 153.7V153.7Z" fill="white"/>
  <path d="M41.22 166.7L40.85 167.18C40.62 167.05 40.4 167 40.18 167.03C39.96 167.07 39.76 167.21 39.59 167.43L37.33 170.37L41.99 173.97L44.26 171.02C44.42 170.81 44.5 170.6 44.49 170.37C44.48 170.16 44.38 169.96 44.19 169.75L44.56 169.27L47.88 171.83L47.51 172.3C47.24 172.16 47 172.11 46.79 172.15C46.59 172.2 46.41 172.34 46.25 172.55L40.97 179.44C40.8 179.66 40.72 179.85 40.72 180.01C40.72 180.18 40.82 180.41 41.04 180.7L40.67 181.19L37.35 178.63L37.72 178.15C38.05 178.27 38.3 178.32 38.46 178.28C38.62 178.24 38.79 178.12 38.97 177.89L41.45 174.67L36.78 171.08L34.3 174.29C34.12 174.52 34.04 174.72 34.05 174.91C34.07 175.1 34.18 175.32 34.38 175.58L34.01 176.06L30.68 173.49L31.05 173.01C31.36 173.13 31.6 173.16 31.78 173.13C31.95 173.11 32.12 172.97 32.29 172.76L37.59 165.88C37.75 165.66 37.82 165.45 37.8 165.23C37.78 165.01 37.68 164.8 37.52 164.61L37.89 164.13L41.22 166.7V166.7Z" fill="white"/>
  <path d="M51.36 173.73L55.04 175.76L54.75 176.29C54.48 176.2 54.25 176.19 54.05 176.26C53.84 176.33 53.65 176.53 53.48 176.87L49.44 184.19C49.24 184.52 49.17 184.79 49.22 185.01C49.27 185.22 49.4 185.41 49.62 185.57L49.33 186.1L45.65 184.07L45.95 183.54C46.18 183.64 46.41 183.66 46.62 183.59C46.84 183.51 47.04 183.3 47.22 182.97L51.26 175.64C51.44 175.31 51.5 175.04 51.45 174.82C51.4 174.6 51.27 174.42 51.07 174.26L51.36 173.73V173.73Z" fill="white"/>
  <path d="M61.48 179.7L59.92 183.73L60.77 184.05C61.37 184.29 61.92 184.29 62.41 184.05C62.91 183.81 63.28 183.4 63.51 182.82C63.75 182.15 63.77 181.58 63.54 181.09C63.31 180.61 62.8 180.21 62.01 179.91L61.48 179.7ZM59.6 184.56L57.87 189.05L58.78 189.4C59.53 189.7 60.18 189.75 60.71 189.53C61.23 189.31 61.64 188.85 61.91 188.13C62.21 187.37 62.18 186.69 61.82 186.09C61.46 185.51 60.92 185.07 60.19 184.79L59.6 184.56V184.56ZM58.67 177.65L62.92 179.3C64.04 179.73 64.85 180.19 65.34 180.69C65.83 181.17 66.09 181.77 66.13 182.47C66.13 182.65 66.12 182.83 66.09 183C66.07 183.17 66.03 183.33 65.97 183.48C65.71 184.15 65.28 184.62 64.67 184.91C64.06 185.19 63.35 185.27 62.56 185.14L62.5 185.3C63.36 185.75 63.97 186.33 64.31 187.08C64.65 187.82 64.68 188.56 64.39 189.3C64.03 190.25 63.42 190.82 62.58 191.03C61.73 191.23 60.69 191.09 59.44 190.61L54.41 188.68L54.64 188.11C54.9 188.18 55.12 188.16 55.31 188.06C55.5 187.95 55.65 187.77 55.75 187.52L58.87 179.41C58.96 179.16 58.97 178.93 58.9 178.73C58.83 178.53 58.68 178.36 58.45 178.22L58.67 177.65V177.65Z" fill="white"/>
  <path d="M111.51 182.76L115.51 181.48L115.7 182.06C115.39 182.28 115.21 182.48 115.16 182.63C115.1 182.78 115.11 182.98 115.19 183.23L117.13 189.24L117.2 189.21L120.57 182.31L120.33 181.58C120.25 181.33 120.12 181.15 119.93 181.04C119.75 180.92 119.52 180.88 119.23 180.92L119.05 180.34L123.05 179.05L123.23 179.63C122.98 179.76 122.81 179.92 122.73 180.12C122.66 180.31 122.66 180.54 122.74 180.8L125.4 189.05C125.48 189.32 125.62 189.51 125.8 189.63C125.98 189.74 126.2 189.77 126.48 189.72L126.67 190.29L122.67 191.58L122.48 191.01C122.72 190.89 122.88 190.74 122.98 190.54C123.08 190.35 123.08 190.11 122.99 189.83L121.02 183.71L120.94 183.73L117.58 190.65L117.85 191.48C117.93 191.75 118.05 191.93 118.23 192.04C118.42 192.15 118.66 192.19 118.95 192.14L119.14 192.72L115.14 194.01L114.95 193.43C115.19 193.32 115.36 193.16 115.44 192.96C115.53 192.76 115.53 192.53 115.44 192.26L112.78 184C112.69 183.75 112.56 183.57 112.38 183.46C112.2 183.34 111.97 183.3 111.7 183.34L111.51 182.76V182.76Z" fill="white"/>
  <path d="M126.04 177.39L126.63 177.06C126.8 177.08 126.97 177.05 127.13 177.01C127.29 176.96 127.48 176.88 127.7 176.76L134.45 173.08C134.65 172.99 134.81 172.89 134.94 172.77C135.07 172.65 135.19 172.51 135.31 172.35L135.89 172.03L137.33 174.7L136.8 174.99C136.24 174.58 135.7 174.33 135.16 174.26C134.63 174.18 134.11 174.29 133.6 174.56L132.62 175.1L137.12 183.37C137.24 183.62 137.4 183.78 137.58 183.84C137.75 183.9 138 183.89 138.32 183.81L138.61 184.34L134.92 186.35L134.63 185.82C134.87 185.57 135.02 185.36 135.05 185.2C135.08 185.03 135.03 184.82 134.9 184.58L130.39 176.31L129.57 176.76C128.94 177.1 128.5 177.51 128.25 178C128 178.49 127.92 179.08 128.03 179.77L127.49 180.06L126.04 177.39V177.39Z" fill="white"/>
  <path d="M138.91 170.35L145.44 165.13C145.64 164.96 145.77 164.84 145.82 164.75C145.87 164.65 145.88 164.54 145.85 164.41L146.18 164.14L148.07 166.5L147.59 166.88C147.05 166.49 146.55 166.3 146.08 166.31C145.61 166.32 145.03 166.6 144.33 167.16L142.13 168.92L144.79 172.24L146.25 171.07C146.66 170.76 146.89 170.46 146.97 170.19C147.04 169.9 146.96 169.62 146.72 169.33L147.2 168.95L149.09 171.32L148.62 171.7C148.37 171.45 148.12 171.31 147.85 171.29C147.58 171.26 147.32 171.36 147.07 171.55L145.35 172.94L148.4 176.74L151.56 174.21C152.04 173.83 152.35 173.33 152.48 172.73C152.61 172.13 152.53 171.55 152.23 170.99L152.7 170.61L154.57 172.95L146.3 179.57L145.92 179.1C146.12 178.91 146.23 178.69 146.23 178.47C146.24 178.23 146.13 177.97 145.9 177.68L140.67 171.14C140.43 170.86 140.2 170.7 139.98 170.66C139.77 170.63 139.54 170.69 139.29 170.82L138.91 170.35V170.35Z" fill="white"/>
  <path d="M149.14 161.49L149.59 160.99C149.75 160.94 149.9 160.87 150.03 160.76C150.16 160.66 150.31 160.52 150.48 160.34L155.59 154.59C155.74 154.44 155.85 154.28 155.94 154.13C156.02 153.97 156.08 153.8 156.14 153.61L156.58 153.12L158.84 155.13L158.44 155.59C157.78 155.39 157.18 155.34 156.65 155.45C156.13 155.57 155.67 155.84 155.28 156.27L154.54 157.11L161.58 163.36C161.78 163.55 161.98 163.66 162.17 163.65C162.36 163.65 162.59 163.55 162.86 163.37L163.31 163.77L160.52 166.92L160.07 166.51C160.22 166.19 160.28 165.95 160.25 165.79C160.23 165.62 160.11 165.44 159.9 165.26L152.86 159L152.23 159.71C151.76 160.24 151.49 160.78 151.42 161.32C151.35 161.87 151.48 162.45 151.81 163.06L151.41 163.51L149.14 161.49V161.49Z" fill="white"/>
  <path d="M5.89 138.14L4.38 133.46L4.95 133.28C5.06 133.64 5.24 133.85 5.5 133.9C5.76 133.94 6.04 133.79 6.35 133.43L9.62 129.69L9.58 129.58L5.26 129.21C5.14 129.21 4.99 129.2 4.83 129.21C4.68 129.21 4.55 129.22 4.48 129.25C4.3 129.32 4.17 129.45 4.1 129.65C4.03 129.84 4.03 130.15 4.1 130.58L3.51 130.77L2.55 127.77L3.13 127.59C3.31 127.8 3.5 127.96 3.71 128.06C3.92 128.16 4.26 128.22 4.74 128.26L12.37 128.91C13.61 129.03 14.55 129.3 15.2 129.73C15.85 130.17 16.3 130.77 16.54 131.53C16.76 132.2 16.78 132.76 16.63 133.25C16.47 133.72 16.15 134.04 15.67 134.19C15.3 134.31 14.94 134.31 14.61 134.19C14.28 134.06 14.06 133.8 13.92 133.38C13.82 133.07 13.82 132.76 13.92 132.49C14.03 132.21 14.24 131.98 14.58 131.79C14.8 131.67 14.94 131.55 14.99 131.42C15.04 131.29 15.04 131.14 14.98 130.97C14.88 130.66 14.63 130.41 14.22 130.23C13.82 130.05 13.35 129.94 12.82 129.91L6.99 136.55C6.81 136.77 6.68 137 6.59 137.24C6.51 137.48 6.47 137.72 6.48 137.96L5.89 138.14V138.14Z" fill="white"/>
  <path d="M1.49 123.08L0.9 118.93L1.51 118.84C1.61 119.11 1.75 119.3 1.93 119.42C2.1 119.54 2.33 119.58 2.6 119.52L5.63 119.09C5.57 118.47 5.34 117.96 4.95 117.57C4.56 117.18 3.99 116.89 3.24 116.7C1.97 116.4 1.14 116.07 0.76 115.71C0.37 115.35 0.13 114.84 0.04 114.18C0.01 113.98 0 113.79 0 113.6C0 113.41 0.02 113.24 0.04 113.07L2.77 112.69L2.85 113.28C2.68 113.37 2.55 113.49 2.47 113.64C2.39 113.79 2.36 113.95 2.38 114.11C2.41 114.28 2.49 114.45 2.62 114.6C2.75 114.74 2.95 114.89 3.23 115.05C4.32 115.66 4.97 116.09 5.18 116.31C5.4 116.54 5.59 116.81 5.75 117.13L5.87 117.11C5.87 116.83 5.89 116.53 5.92 116.21C5.95 115.9 6 115.62 6.07 115.36C6.23 114.79 6.5 114.32 6.88 113.94C7.26 113.57 7.88 113.21 8.72 112.87C9.43 112.59 9.84 112.43 9.94 112.38C10.05 112.33 10.13 112.29 10.19 112.23C10.49 112.05 10.72 111.81 10.88 111.51C11.05 111.21 11.12 110.89 11.1 110.58L11.76 110.49C11.87 110.69 11.96 110.89 12.03 111.11C12.1 111.32 12.15 111.54 12.18 111.78C12.27 112.4 12.24 112.97 12.07 113.47C11.91 113.97 11.62 114.37 11.21 114.69C11.08 114.82 10.94 114.92 10.78 115.01C10.63 115.09 10.15 115.27 9.33 115.56C8.58 115.84 8.04 116.09 7.7 116.32C7.37 116.54 7.11 116.8 6.91 117.1C6.74 117.38 6.62 117.67 6.55 118C6.48 118.32 6.47 118.64 6.53 118.96L11.31 118.29C11.59 118.24 11.8 118.15 11.94 118C12.08 117.84 12.15 117.61 12.16 117.33L12.77 117.24L13.36 121.4L12.75 121.49C12.67 121.22 12.55 121.03 12.37 120.91C12.18 120.8 11.95 120.76 11.67 120.8L2.96 122.04C2.69 122.09 2.48 122.19 2.33 122.35C2.19 122.5 2.11 122.72 2.1 122.99L1.49 123.08V123.08Z" fill="white"/>
  <path d="M2.23 103.15L5.14 103.23C5.57 103.25 5.93 103.08 6.21 102.73C6.49 102.36 6.63 101.96 6.64 101.49C6.67 100.94 6.47 100.52 6.05 100.23C5.63 99.95 4.83 99.79 3.64 99.76C2.44 99.72 1.64 99.83 1.23 100.07C0.82 100.32 0.58 100.73 0.54 101.31C0.5 101.81 0.64 102.24 0.96 102.59C1.27 102.95 1.7 103.14 2.23 103.15V103.15ZM11.66 106.77L11.04 106.75C11.02 106.52 10.94 106.32 10.77 106.16C10.61 106.01 10.38 105.92 10.07 105.89L3.38 105.72C2.19 105.7 1.26 105.28 0.59 104.47C-0.0899999 103.66 -0.4 102.53 -0.37 101.08C-0.33 99.77 0.1 98.74 0.91 98.01C1.72 97.27 2.66 96.92 3.73 96.95C4.65 96.98 5.43 97.18 6.08 97.58C6.73 97.97 7.2 98.53 7.49 99.25C7.6 99.5 7.68 99.75 7.73 100C7.78 100.25 7.8 100.49 7.79 100.73C7.78 101.22 7.71 101.68 7.59 102.1C7.46 102.52 7.26 102.91 6.98 103.28L10.14 103.36C10.4 103.38 10.63 103.31 10.82 103.13C11.01 102.96 11.12 102.75 11.15 102.5L11.77 102.51L11.66 106.77V106.77Z" fill="white"/>
  <path d="M4.24 88.1699L8.46 91.1399L8.53 91.1499L9.33 86.8199H9.28L4.25 88.0999L4.24 88.1699V88.1699ZM11.38 95.0799C11.36 94.8399 11.25 94.5999 11.06 94.3499C10.87 94.0999 10.62 93.8599 10.31 93.6299L3.75 88.9299C3.62 88.8399 3.47 88.7699 3.31 88.7099C3.15 88.6499 2.97 88.5999 2.76 88.5499C2.63 88.5199 2.51 88.5799 2.43 88.7199C2.35 88.8599 2.29 89.0399 2.28 89.2699L1.67 89.1499C1.72 88.6899 1.7 88.2699 1.62 87.8899C1.53 87.5199 1.38 87.1799 1.16 86.8899L1.27 86.2899L11.3 83.6499C11.96 83.4799 12.47 83.3199 12.86 83.1399C13.25 82.9599 13.54 82.7499 13.73 82.4799L14.33 82.5899L13.45 87.3499L12.84 87.2399C12.9 86.9699 12.85 86.7399 12.69 86.5299C12.53 86.3299 12.32 86.1999 12.05 86.1499C12.01 86.1299 11.92 86.1399 11.79 86.1599C11.67 86.1799 11.57 86.1899 11.5 86.1999L10.31 86.5099L9.32 91.8199L10.24 92.4299C10.69 92.7499 11.05 92.8399 11.32 92.7199C11.59 92.5999 11.82 92.2999 11.99 91.8299L12.59 91.9399L11.99 95.1999L11.38 95.0799V95.0799Z" fill="white"/>
  <path d="M5.3 72.11L5.89 72.3C5.86 72.6 5.9 72.84 6.01 73.01C6.12 73.18 6.3 73.31 6.55 73.39L14.9 76.18C15.17 76.28 15.41 76.28 15.61 76.19C15.81 76.1 15.97 75.94 16.09 75.71L16.67 75.9L15.33 79.9L14.75 79.6999C14.81 79.4599 14.79 79.24 14.67 79.03C14.57 78.83 14.38 78.68 14.09 78.58L5.75 75.8C5.48 75.71 5.24 75.7099 5.03 75.8099C4.83 75.9099 4.66 76.07 4.55 76.3L3.97 76.1L5.3 72.11V72.11ZM2.46 72.9499C2.12 72.8399 1.88 72.62 1.72 72.29C1.56 71.96 1.52 71.62 1.63 71.29C1.74 70.97 1.96 70.73 2.28 70.57C2.61 70.4 2.94 70.3699 3.28 70.4899C3.63 70.5999 3.88 70.82 4.04 71.14C4.2 71.46 4.22 71.78 4.11 72.12C3.99 72.46 3.78 72.71 3.46 72.87C3.14 73.04 2.81 73.0599 2.46 72.9499V72.9499ZM1.38 76.1999C1.04 76.0899 0.790001 75.87 0.620001 75.54C0.460001 75.21 0.430001 74.88 0.540001 74.55C0.640001 74.23 0.860001 73.98 1.19 73.82C1.51 73.65 1.85 73.63 2.2 73.75C2.54 73.86 2.79 74.08 2.95 74.4C3.11 74.71 3.13 75.0399 3.02 75.3799C2.91 75.7199 2.69 75.9699 2.37 76.1299C2.05 76.2899 1.72 76.3099 1.38 76.1999V76.1999Z" fill="white"/>
  <path d="M9.13 62.99L9.68 63.28C9.6 63.52 9.59 63.74 9.67 63.96C9.74 64.17 9.91 64.34 10.17 64.47L13.51 66.18L16.2 60.92L12.85 59.22C12.61 59.09 12.38 59.05 12.17 59.1C11.96 59.15 11.77 59.28 11.6 59.5L11.06 59.23L12.97 55.49L13.51 55.77C13.41 56.07 13.41 56.3 13.49 56.5C13.58 56.7 13.75 56.85 14 56.97L21.84 60.96C22.09 61.09 22.3 61.14 22.46 61.11C22.63 61.07 22.83 60.92 23.08 60.66L23.64 60.94L21.73 64.68L21.17 64.39C21.24 64.05 21.24 63.8 21.17 63.64C21.1 63.49 20.94 63.35 20.68 63.22L17.01 61.34L14.32 66.59L18 68.47C18.25 68.61 18.46 68.66 18.65 68.6C18.84 68.55 19.03 68.41 19.25 68.17L19.8 68.44L17.88 72.19L17.34 71.91C17.39 71.58 17.38 71.34 17.32 71.17C17.25 71.01 17.1 70.86 16.84 70.73L9.01 66.73C8.76 66.61 8.53 66.57 8.32 66.63C8.1 66.69 7.92 66.82 7.76 67.02L7.22 66.74L9.13 62.99V62.99Z" fill="white"/>
  <path d="M29.78 48.4399H30.63C30.69 49.5699 30.62 50.5199 30.42 51.2999C30.22 52.0799 29.88 52.7699 29.4 53.3899C28.33 54.7799 26.99 55.5499 25.37 55.6799C23.76 55.8199 22.25 55.3399 20.84 54.2499C19.42 53.1699 18.59 51.8499 18.34 50.2999C18.09 48.7599 18.46 47.3499 19.43 46.0799C19.64 45.8099 19.85 45.5699 20.06 45.3699C20.27 45.1599 20.51 44.9499 20.78 44.7499C21.03 44.5899 21.21 44.4499 21.34 44.3299C21.47 44.2299 21.57 44.1099 21.64 43.9999C21.68 43.9699 21.7 43.9299 21.72 43.8599C21.73 43.7899 21.74 43.6999 21.74 43.5899C21.75 43.5699 21.75 43.5399 21.74 43.4999C21.74 43.4699 21.73 43.4399 21.73 43.4099L22.1 42.9199L24.34 44.6499L23.97 45.1299C23.35 44.9399 22.7 44.9699 22.01 45.1999C21.32 45.4399 20.76 45.8399 20.31 46.4199C20.26 46.4999 20.21 46.5999 20.15 46.6899C20.1 46.7799 20.04 46.8799 19.99 46.9999C19.65 47.8499 19.67 48.6499 20.06 49.4299C20.45 50.1999 21.34 51.1099 22.72 52.1599C24.04 53.1799 25.18 53.6899 26.15 53.6999C27.12 53.6999 27.98 53.2099 28.75 52.2199C29.11 51.7599 29.37 51.2199 29.54 50.6099C29.72 50.0099 29.8 49.2799 29.78 48.4399V48.4399Z" fill="white"/>
  <path d="M32.71 40.2399L36.3 44.1099L37.07 43.3899C37.71 42.8199 38.01 42.2399 37.98 41.6599C37.95 41.0799 37.65 40.4899 37.1 39.8899C36.49 39.2399 35.89 38.8699 35.3 38.7999C34.71 38.7299 34.1 38.9799 33.47 39.5399L32.71 40.2399ZM29.37 35.4299L29.79 35.8799C29.61 36.1099 29.53 36.3399 29.54 36.5599C29.56 36.7799 29.7 37.0099 29.95 37.2699L32.1 39.5799L33.2 38.5499C34.35 37.4899 35.43 36.9299 36.44 36.8599C37.46 36.8099 38.33 37.1599 39.06 37.9499C39.73 38.6799 40.04 39.5399 39.96 40.5399C39.89 41.5399 39.38 42.4899 38.42 43.3799L34.44 47.0699L34.02 46.6199C34.22 46.4099 34.3 46.1899 34.27 45.9699C34.25 45.7399 34.12 45.4899 33.87 45.2199L28.09 38.9999C27.85 38.7299 27.61 38.5799 27.39 38.5499C27.18 38.5199 26.96 38.5799 26.72 38.7299L26.3 38.2899L29.37 35.4299V35.4299Z" fill="white"/>
  <path d="M37.48 28.41L40.99 26.11L41.33 26.63C41.12 26.83 41.01 27.03 40.97 27.25C40.94 27.45 41.01 27.68 41.17 27.89L42.85 30.45C43.39 30.13 43.76 29.7 43.94 29.19C44.13 28.67 44.15 28.03 44 27.27C43.73 25.99 43.68 25.11 43.84 24.61C44 24.1 44.36 23.67 44.91 23.31C45.08 23.19 45.25 23.1 45.43 23.02C45.59 22.95 45.76 22.88 45.91 22.83L47.43 25.14L46.92 25.47C46.77 25.35 46.61 25.28 46.44 25.27C46.26 25.26 46.11 25.31 45.98 25.39C45.83 25.49 45.71 25.63 45.64 25.81C45.56 25.99 45.51 26.24 45.49 26.55C45.39 27.81 45.29 28.57 45.17 28.87C45.07 29.16 44.9 29.45 44.68 29.72L44.75 29.83C45 29.71 45.29 29.6 45.58 29.5C45.87 29.39 46.15 29.31 46.42 29.27C47 29.16 47.54 29.21 48.04 29.39C48.54 29.58 49.13 29.98 49.8 30.6C50.35 31.12 50.67 31.42 50.76 31.5C50.85 31.57 50.93 31.62 51 31.66C51.29 31.85 51.61 31.95 51.95 31.97C52.3 32 52.61 31.93 52.88 31.77L53.25 32.33C53.11 32.52 52.97 32.68 52.8 32.84C52.64 32.99 52.47 33.14 52.26 33.27C51.74 33.61 51.21 33.82 50.69 33.88C50.16 33.95 49.67 33.86 49.21 33.63C49.04 33.57 48.89 33.48 48.75 33.37C48.6 33.27 48.23 32.91 47.62 32.3C47.05 31.73 46.59 31.35 46.25 31.15C45.91 30.94 45.56 30.81 45.2 30.76C44.88 30.72 44.56 30.74 44.23 30.82C43.91 30.89 43.62 31.02 43.35 31.22L46 35.25C46.16 35.49 46.34 35.64 46.54 35.7C46.74 35.75 46.97 35.73 47.23 35.61L47.57 36.12L44.06 38.43L43.73 37.91C43.93 37.73 44.05 37.54 44.08 37.32C44.1 37.11 44.04 36.88 43.88 36.64L39.05 29.29C38.89 29.06 38.71 28.92 38.5 28.86C38.3 28.79 38.07 28.82 37.82 28.93L37.48 28.41V28.41Z" fill="white"/>
  <path d="M51.82 19.5799L55.71 17.9599L55.95 18.5399C55.67 18.7899 55.5 18.9999 55.46 19.1599C55.41 19.3199 55.44 19.5199 55.54 19.7599L57.99 25.6699L58.07 25.6499L60.85 18.4199L60.54 17.6899C60.44 17.4399 60.3 17.2799 60.1 17.1799C59.91 17.0799 59.67 17.0599 59.39 17.1099L59.15 16.5399L63.05 14.9299L63.28 15.4999C63.04 15.6399 62.89 15.8199 62.82 16.0299C62.76 16.2399 62.78 16.4599 62.89 16.7199L66.26 24.8399C66.37 25.1099 66.52 25.2899 66.71 25.3899C66.9 25.4899 67.12 25.5099 67.39 25.4299L67.63 25.9999L63.74 27.6099L63.51 27.0399C63.73 26.9099 63.89 26.7399 63.97 26.5399C64.05 26.3299 64.03 26.0899 63.92 25.8099L61.42 19.7899L61.34 19.8199L58.57 27.0699L58.92 27.8899C59.01 28.1399 59.15 28.3299 59.34 28.4299C59.54 28.5199 59.78 28.5399 60.07 28.4699L60.31 29.0299L56.42 30.6499L56.18 30.0799C56.42 29.9399 56.57 29.7699 56.64 29.5699C56.7 29.3599 56.68 29.1199 56.57 28.8599L53.2 20.7299C53.09 20.4799 52.93 20.3099 52.74 20.2099C52.56 20.1099 52.33 20.0899 52.06 20.1499L51.82 19.5799V19.5799Z" fill="white"/>
  <path d="M74.34 9.45995C75.11 9.30995 75.73 9.04995 76.2 8.69995C76.66 8.34995 76.87 8.03995 76.82 7.76995C76.8 7.68995 76.76 7.62995 76.69 7.57995C76.63 7.53995 76.55 7.51995 76.46 7.53995C76.4 7.55995 76.35 7.56995 76.29 7.61995C76.23 7.63995 76.14 7.69995 76.02 7.78995C75.76 7.96995 75.51 8.03995 75.27 7.96995C75.02 7.89995 74.88 7.75995 74.84 7.52995C74.8 7.31995 74.85 7.11995 74.99 6.94995C75.13 6.77995 75.35 6.65995 75.66 6.59995C76.09 6.51995 76.47 6.57995 76.82 6.75995C77.15 6.94995 77.36 7.23995 77.44 7.62995C77.57 8.27995 77.35 8.91995 76.79 9.55995C76.22 10.2 75.49 10.59 74.58 10.77C73.66 10.96 72.82 10.86 72.06 10.49C71.29 10.11 70.86 9.60995 70.74 8.94995C70.65 8.55995 70.73 8.20995 70.97 7.90995C71.22 7.60995 71.56 7.39995 72 7.31995C72.29 7.26995 72.54 7.30995 72.74 7.39995C72.95 7.49995 73.07 7.65995 73.11 7.86995C73.14 8.09995 73.06 8.28995 72.86 8.44995C72.66 8.59995 72.41 8.62995 72.11 8.55995C71.96 8.52995 71.84 8.50995 71.78 8.49995C71.71 8.48995 71.66 8.48995 71.62 8.49995C71.51 8.50995 71.44 8.55995 71.4 8.62995C71.35 8.69995 71.34 8.76995 71.37 8.83995C71.42 9.14995 71.75 9.35995 72.35 9.48995C72.95 9.60995 73.62 9.60995 74.34 9.45995V9.45995ZM68.83 13.18L72.96 12.37L73.08 12.97C72.75 13.16 72.55 13.34 72.47 13.48C72.4 13.63 72.39 13.83 72.44 14.09L73.67 20.37L73.76 20.36L77.9 13.82L77.75 13.05C77.7 12.79 77.59 12.59 77.41 12.46C77.25 12.32 77.02 12.25 76.73 12.25L76.61 11.65L80.75 10.83L80.86 11.44C80.59 11.54 80.41 11.68 80.31 11.87C80.21 12.06 80.19 12.29 80.24 12.56L81.94 21.19C81.99 21.46 82.1 21.68 82.27 21.81C82.43 21.95 82.66 22 82.94 21.99L83.06 22.59L78.93 23.4L78.81 22.8C79.05 22.72 79.24 22.58 79.36 22.39C79.48 22.21 79.51 21.97 79.45 21.68L78.19 15.28L78.11 15.3L73.97 21.85L74.14 22.73C74.18 23 74.29 23.2 74.46 23.33C74.63 23.47 74.86 23.53 75.16 23.52L75.27 24.12L71.15 24.94L71.02 24.34C71.29 24.25 71.46 24.11 71.58 23.92C71.68 23.73 71.71 23.5 71.65 23.21L69.95 14.58C69.89 14.31 69.77 14.11 69.61 13.98C69.45 13.84 69.22 13.78 68.95 13.78L68.83 13.18V13.18Z" fill="white"/>
  <path d="M104.53 10.8799L108.65 11.6599L108.54 12.2699C108.25 12.2799 108.02 12.3299 107.85 12.4699C107.68 12.5999 107.58 12.7999 107.54 13.0699L106.97 16.0799C107.58 16.2199 108.14 16.1699 108.63 15.9299C109.13 15.6899 109.59 15.2299 110.01 14.5899C110.7 13.4799 111.28 12.8099 111.75 12.5699C112.21 12.3199 112.77 12.2499 113.42 12.3799C113.62 12.4099 113.81 12.4699 113.99 12.5399C114.17 12.5999 114.33 12.6699 114.47 12.7399L113.96 15.4499L113.36 15.3299C113.34 15.1399 113.27 14.9799 113.15 14.8499C113.03 14.7199 112.89 14.6499 112.74 14.6199C112.56 14.5899 112.38 14.6099 112.2 14.6799C112.02 14.7599 111.81 14.8999 111.58 15.1199C110.64 15.9399 110.02 16.4199 109.74 16.5499C109.46 16.6899 109.14 16.7799 108.79 16.8199L108.76 16.9499C109.03 17.0499 109.31 17.1599 109.59 17.2899C109.88 17.4199 110.14 17.5599 110.36 17.6999C110.84 18.0399 111.2 18.4499 111.43 18.9299C111.66 19.4099 111.8 20.1099 111.86 21.0199C111.88 21.7799 111.91 22.2199 111.92 22.3299C111.93 22.4399 111.95 22.5399 111.98 22.6099C112.06 22.9599 112.21 23.2499 112.44 23.4999C112.68 23.7599 112.95 23.9299 113.25 24.0099L113.13 24.6599C112.9 24.6999 112.68 24.7199 112.45 24.7199C112.23 24.7199 112 24.6999 111.77 24.6499C111.15 24.5299 110.63 24.3099 110.21 23.9899C109.78 23.6699 109.49 23.2699 109.32 22.7799C109.25 22.6199 109.19 22.4499 109.16 22.2699C109.13 22.0999 109.12 21.5899 109.11 20.7199C109.09 19.9099 109.03 19.3199 108.92 18.9399C108.82 18.5499 108.66 18.2199 108.44 17.9299C108.23 17.6799 107.99 17.4699 107.7 17.2999C107.42 17.1299 107.12 17.0199 106.8 16.9699L105.89 21.7099C105.84 21.9899 105.86 22.2199 105.96 22.4099C106.07 22.5899 106.25 22.7299 106.52 22.8299L106.41 23.4299L102.28 22.6399L102.4 22.0299C102.67 22.0599 102.89 21.9899 103.06 21.8599C103.23 21.7299 103.34 21.5199 103.4 21.2299L105.05 12.5899C105.09 12.3199 105.06 12.0899 104.96 11.8999C104.86 11.7199 104.67 11.5799 104.42 11.4799L104.53 10.8799V10.8799Z" fill="white"/>
  <path d="M123.25 18.78L119.58 22.4L119.55 22.47L123.66 24.02L123.69 23.98L123.31 18.81L123.25 18.78ZM115.17 24.58C115.42 24.6 115.68 24.54 115.96 24.39C116.24 24.25 116.51 24.04 116.79 23.79L122.58 18.16C122.69 18.04 122.8 17.91 122.88 17.77C122.97 17.62 123.05 17.45 123.14 17.25C123.19 17.12 123.15 17.01 123.03 16.9C122.91 16.79 122.74 16.71 122.52 16.65L122.74 16.07C123.18 16.2 123.6 16.26 123.98 16.25C124.37 16.23 124.73 16.14 125.06 15.97L125.62 16.18L126.45 26.53C126.49 27.2 126.57 27.74 126.67 28.16C126.77 28.57 126.93 28.89 127.16 29.12L126.94 29.7L122.42 27.98L122.64 27.4C122.89 27.51 123.13 27.5 123.36 27.39C123.59 27.26 123.76 27.08 123.85 26.82C123.87 26.77 123.88 26.7 123.89 26.57C123.89 26.45 123.9 26.35 123.9 26.27L123.8 25.05L118.76 23.13L117.99 23.92C117.6 24.31 117.44 24.65 117.51 24.94C117.59 25.23 117.84 25.5 118.27 25.75L118.05 26.33L114.96 25.16L115.17 24.58V24.58Z" fill="white"/>
  <path d="M132.89 19.0199L133.48 19.3499C133.57 19.4999 133.68 19.6299 133.8 19.7399C133.92 19.8499 134.1 19.9699 134.31 20.0899L141.04 23.8699C141.22 23.9799 141.39 24.0599 141.55 24.1099C141.72 24.1599 141.91 24.1899 142.11 24.1999L142.68 24.5199L141.18 27.2099L140.64 26.9099C140.7 26.2099 140.62 25.6099 140.4 25.1099C140.18 24.6199 139.82 24.2199 139.31 23.9299L138.34 23.3899L133.66 31.7199C133.5 31.9599 133.45 32.1799 133.5 32.3599C133.54 32.5499 133.68 32.7599 133.92 32.9799L133.61 33.5199L129.94 31.4599L130.24 30.9199C130.59 30.9899 130.84 31.0099 131 30.9399C131.16 30.8799 131.3 30.7199 131.44 30.4699L136.12 22.1499L135.3 21.6799C134.68 21.3399 134.09 21.1799 133.54 21.2299C132.99 21.2799 132.44 21.5399 131.92 22.0099L131.38 21.7099L132.89 19.0199V19.0199Z" fill="white"/>
  <path d="M149.35 30.7599C148.43 30.0399 147.52 29.8599 146.63 30.2199C145.74 30.5899 144.72 31.4999 143.58 32.9599C142.44 34.3999 141.8 35.5899 141.65 36.5299C141.51 37.4699 141.89 38.2999 142.81 39.0299C143.72 39.7499 144.62 39.9299 145.51 39.5699C146.39 39.2199 147.4 38.3199 148.55 36.8799C149.69 35.4299 150.34 34.2299 150.49 33.2799C150.64 32.3299 150.26 31.4899 149.35 30.7599V30.7599ZM149.92 30.0499C151.24 31.0999 151.98 32.4399 152.13 34.1099C152.29 35.7599 151.82 37.2599 150.75 38.6199C149.68 39.9699 148.33 40.7499 146.71 40.9899C145.08 41.2199 143.59 40.7999 142.25 39.7399C140.9 38.6699 140.15 37.3099 140 35.6799C139.86 34.0399 140.32 32.5599 141.38 31.2099C142.45 29.8499 143.8 29.0499 145.44 28.8199C147.08 28.5899 148.57 28.9999 149.92 30.0499V30.0499Z" fill="white"/>
  <path d="M158.87 38.35L161.58 41.28L156.49 50.59C156.22 51.07 156.08 51.42 156.07 51.63C156.05 51.84 156.11 52.05 156.25 52.27L155.79 52.69L153.66 50.38L158.2 42.07L158.07 41.92C157.07 42.51 155.99 43.11 154.82 43.73C153.66 44.35 152.73 44.79 152.07 45.04C151.12 45.4 150.37 45.57 149.81 45.57C149.25 45.57 148.77 45.34 148.35 44.9C148.05 44.56 147.89 44.22 147.89 43.87C147.89 43.51 148.02 43.22 148.29 42.98C148.5 42.78 148.76 42.68 149.06 42.68C149.36 42.68 149.62 42.79 149.85 43.03C149.89 43.08 149.93 43.14 149.98 43.22C150.01 43.3 150.06 43.39 150.1 43.49C150.23 43.85 150.3 44.04 150.32 44.06C150.34 44.1 150.37 44.13 150.4 44.16C150.58 44.36 150.9 44.4 151.37 44.28C151.83 44.16 152.67 43.81 153.87 43.23C154.96 42.7 155.92 42.2 156.74 41.74C157.56 41.27 158.14 40.88 158.47 40.57C158.75 40.32 158.9 40.05 158.91 39.77C158.92 39.48 158.82 39.22 158.61 38.98L158.42 38.77L158.87 38.35V38.35Z" fill="white"/>
  <path d="M167.73 48.6399L169.98 52.2099L169.46 52.5299C169.16 52.2899 168.93 52.1699 168.76 52.1499C168.59 52.1399 168.4 52.1999 168.18 52.3399L162.76 55.7499L162.8 55.8199L170.4 57.3399L171.07 56.9199C171.29 56.7799 171.43 56.5999 171.5 56.3999C171.56 56.1899 171.54 55.9499 171.44 55.6799L171.96 55.3499L174.21 58.9099L173.69 59.2499C173.5 59.0299 173.29 58.9099 173.08 58.8799C172.87 58.8599 172.65 58.9199 172.42 59.0599L164.97 63.7599C164.73 63.9099 164.58 64.0799 164.51 64.2799C164.44 64.4899 164.47 64.7199 164.59 64.9699L164.07 65.2999L161.82 61.7399L162.35 61.4099C162.51 61.6099 162.7 61.7299 162.92 61.7799C163.13 61.8199 163.37 61.7599 163.62 61.6099L169.14 58.1299L169.1 58.0599L161.49 56.5499L160.74 57.0299C160.49 57.1699 160.35 57.3399 160.28 57.5399C160.22 57.7499 160.24 57.9899 160.36 58.2599L159.84 58.5899L157.59 55.0299L158.11 54.6999C158.29 54.9099 158.48 55.0299 158.7 55.0599C158.91 55.0899 159.14 55.0299 159.38 54.8799L166.83 50.1899C167.05 50.0299 167.2 49.8599 167.27 49.6499C167.33 49.4499 167.32 49.2299 167.21 48.9699L167.73 48.6399V48.6399Z" fill="white"/>
  <path d="M176.7 63.8699L178.24 67.7799L177.67 68.0099C177.53 67.7799 177.36 67.6299 177.15 67.5499C176.94 67.4699 176.71 67.4899 176.46 67.5899L167.64 71.0799L169.48 75.7299L178.3 72.2599C178.54 72.1599 178.72 72.0099 178.82 71.8199C178.92 71.6299 178.95 71.3899 178.9 71.1099L179.47 70.8899L181.02 74.7999L180.44 75.0299C180.3 74.7799 180.12 74.6299 179.92 74.5599C179.72 74.4999 179.49 74.5099 179.23 74.6199L171.2 77.7899C170.97 77.8799 170.81 77.9699 170.7 78.0699C170.59 78.1699 170.49 78.3599 170.41 78.6299C170.25 79.0599 170.08 79.3899 169.89 79.6099C169.7 79.8399 169.46 80.0299 169.16 80.1399C168.52 80.3899 167.86 80.3399 167.17 79.9599C166.47 79.5799 165.97 78.9999 165.65 78.1999C165.54 77.9299 165.45 77.5999 165.38 77.2299C165.31 76.8599 165.25 76.4699 165.2 76.0499C165.18 75.8099 165.17 75.5799 165.17 75.3499C165.17 75.1199 165.17 74.7699 165.17 74.2999C165.19 73.8299 165.17 73.4099 165.14 73.0299C165.1 72.6499 165.04 72.3599 164.96 72.1599C164.9 72.0199 164.83 71.9199 164.74 71.8599C164.66 71.7999 164.58 71.7899 164.49 71.8199C164.43 71.8299 164.4 71.8599 164.37 71.8999C164.36 71.9499 164.36 71.9999 164.39 72.0799L164.49 72.2799L164.48 72.2999C164.52 72.4299 164.51 72.5499 164.46 72.6599C164.42 72.7699 164.32 72.8499 164.19 72.9099C164.03 72.9599 163.88 72.9499 163.73 72.8699C163.57 72.7899 163.45 72.6399 163.36 72.4499C163.26 72.2099 163.27 71.9899 163.4 71.7799C163.51 71.5599 163.69 71.4099 163.94 71.3199C164.44 71.1199 164.94 71.2199 165.44 71.6199C165.94 72.0199 166.33 72.6099 166.6 73.3699C166.74 73.7499 166.84 74.1799 166.91 74.6399C166.98 75.0999 167.03 75.6799 167.05 76.3599C167.11 77.3499 167.14 77.9499 167.17 78.1399C167.2 78.3299 167.24 78.4999 167.3 78.6599C167.42 78.9599 167.62 79.1799 167.89 79.3199C168.15 79.4499 168.43 79.4599 168.72 79.3499C169.04 79.2299 169.24 79.0099 169.34 78.6899C169.43 78.3699 169.42 78.0499 169.29 77.7299L165.55 68.2699L166.13 68.0499C166.24 68.2599 166.4 68.4199 166.61 68.5099C166.82 68.5899 167.07 68.5799 167.34 68.4699L175.53 65.2399C175.79 65.1199 175.97 64.9599 176.07 64.7499C176.17 64.5399 176.19 64.3199 176.12 64.0899L176.7 63.8699V63.8699Z" fill="white"/>
  <path d="M177.51 84.61L172.35 85.68L172.56 86.7C172.73 87.54 173.06 88.11 173.57 88.38C174.09 88.65 174.74 88.71 175.55 88.54C176.42 88.36 177.04 88.04 177.41 87.57C177.78 87.1 177.89 86.45 177.72 85.62L177.51 84.61V84.61ZM183.37 84.24L182.76 84.37C182.66 84.09 182.51 83.9 182.32 83.8C182.12 83.71 181.85 83.71 181.49 83.78L178.4 84.42L178.71 85.9C179.03 87.44 178.95 88.65 178.48 89.55C178 90.45 177.24 91.01 176.19 91.22C175.22 91.42 174.33 91.23 173.5 90.66C172.68 90.07 172.14 89.15 171.88 87.86L170.78 82.55L171.38 82.42C171.46 82.69 171.6 82.88 171.81 82.97C172.02 83.07 172.3 83.08 172.66 83.02L180.98 81.31C181.33 81.23 181.58 81.11 181.72 80.94C181.86 80.77 181.92 80.55 181.91 80.27L182.52 80.14L183.37 84.24V84.24Z" fill="white"/>
  <path d="M185.11 94.33L185.3 98.53L184.69 98.55C184.62 98.27 184.5 98.06 184.34 97.93C184.17 97.8 183.95 97.74 183.68 97.76L180.62 97.9C180.62 98.54 180.8 99.06 181.15 99.49C181.5 99.91 182.04 100.25 182.78 100.52C184 100.94 184.79 101.34 185.14 101.74C185.49 102.13 185.68 102.66 185.71 103.33C185.72 103.53 185.71 103.73 185.69 103.91C185.67 104.1 185.65 104.27 185.6 104.44L182.85 104.56L182.82 103.95C183 103.89 183.14 103.78 183.24 103.63C183.33 103.49 183.38 103.33 183.37 103.18C183.36 102.99 183.3 102.83 183.19 102.67C183.07 102.51 182.88 102.34 182.62 102.16C181.6 101.44 180.99 100.96 180.79 100.72C180.6 100.47 180.44 100.18 180.31 99.84L180.19 99.85C180.16 100.14 180.11 100.43 180.05 100.73C179.99 101.05 179.91 101.32 179.82 101.58C179.6 102.13 179.29 102.57 178.88 102.91C178.46 103.24 177.82 103.54 176.94 103.8C176.21 104.01 175.79 104.13 175.68 104.17C175.57 104.2 175.49 104.25 175.42 104.3C175.11 104.45 174.85 104.67 174.66 104.95C174.47 105.23 174.37 105.54 174.36 105.85L173.69 105.88C173.6 105.67 173.54 105.46 173.48 105.24C173.43 105.03 173.4 104.79 173.39 104.56C173.37 103.93 173.46 103.37 173.67 102.89C173.88 102.4 174.2 102.02 174.63 101.75C174.78 101.64 174.93 101.55 175.1 101.48C175.26 101.41 175.76 101.26 176.6 101.06C177.37 100.86 177.94 100.66 178.29 100.47C178.64 100.28 178.93 100.05 179.16 99.76C179.35 99.51 179.5 99.22 179.6 98.91C179.7 98.58 179.73 98.27 179.71 97.94L174.89 98.16C174.6 98.17 174.38 98.25 174.23 98.39C174.08 98.54 173.98 98.75 173.95 99.03L173.33 99.06L173.15 94.87L173.76 94.84C173.81 95.11 173.92 95.31 174.09 95.44C174.26 95.58 174.49 95.64 174.77 95.62L183.56 95.23C183.83 95.2 184.05 95.12 184.21 94.98C184.37 94.83 184.47 94.63 184.5 94.36L185.11 94.33V94.33Z" fill="white"/>
  <path d="M185.5 109.62L185 113.8L184.38 113.72C184.3 113.35 184.2 113.11 184.08 112.99C183.97 112.87 183.78 112.79 183.52 112.76L177.16 112L177.15 112.08L182.09 118.05L182.87 118.14C183.13 118.17 183.35 118.13 183.53 118.01C183.72 117.88 183.85 117.69 183.94 117.42L184.55 117.49L184.05 121.67L183.44 121.6C183.43 121.31 183.35 121.09 183.2 120.94C183.04 120.78 182.84 120.69 182.56 120.66L173.83 119.6C173.54 119.57 173.32 119.61 173.14 119.72C172.95 119.84 172.83 120.04 172.76 120.32L172.15 120.24L172.65 116.06L173.27 116.13C173.27 116.39 173.34 116.61 173.48 116.78C173.62 116.95 173.84 117.05 174.14 117.09L180.61 117.86L180.63 117.78L175.67 111.82L174.78 111.71C174.51 111.67 174.29 111.71 174.1 111.83C173.93 111.95 173.79 112.15 173.71 112.44L173.1 112.36L173.6 108.18L174.22 108.25C174.22 108.52 174.29 108.75 174.44 108.9C174.59 109.06 174.8 109.16 175.08 109.19L183.82 110.25C184.1 110.27 184.33 110.22 184.5 110.11C184.68 109.99 184.81 109.81 184.89 109.54L185.5 109.62V109.62Z" fill="white"/>
  <path d="M183.68 133.1C183.45 133.85 183.38 134.52 183.46 135.09C183.55 135.67 183.73 136 183.99 136.08C184.07 136.11 184.15 136.1 184.22 136.07C184.29 136.03 184.34 135.97 184.36 135.88C184.38 135.83 184.39 135.76 184.38 135.7C184.38 135.63 184.37 135.53 184.35 135.38C184.31 135.06 184.38 134.81 184.55 134.63C184.73 134.44 184.92 134.39 185.14 134.46C185.35 134.52 185.5 134.66 185.58 134.87C185.67 135.07 185.66 135.33 185.57 135.61C185.44 136.03 185.21 136.36 184.89 136.56C184.56 136.77 184.2 136.82 183.82 136.7C183.19 136.51 182.73 136.01 182.44 135.22C182.15 134.41 182.14 133.57 182.41 132.69C182.69 131.79 183.17 131.1 183.87 130.61C184.55 130.12 185.22 129.97 185.84 130.18C186.23 130.28 186.5 130.51 186.65 130.88C186.8 131.24 186.81 131.63 186.68 132.06C186.58 132.34 186.44 132.54 186.25 132.68C186.07 132.81 185.87 132.84 185.67 132.78C185.45 132.69 185.32 132.53 185.28 132.28C185.24 132.04 185.32 131.8 185.54 131.57C185.63 131.44 185.71 131.36 185.74 131.3C185.78 131.25 185.81 131.21 185.83 131.16C185.86 131.07 185.85 130.98 185.81 130.91C185.78 130.84 185.72 130.8 185.64 130.79C185.35 130.69 185 130.87 184.6 131.34C184.21 131.81 183.9 132.4 183.68 133.1ZM183.02 126.49L181.78 130.51L181.19 130.33C181.18 129.95 181.12 129.69 181.03 129.55C180.93 129.42 180.76 129.31 180.51 129.23L174.39 127.33L174.37 127.42L178.15 134.17L178.91 134.4C179.16 134.48 179.38 134.47 179.58 134.39C179.78 134.3 179.95 134.14 180.09 133.88L180.68 134.06L179.43 138.09L178.84 137.9C178.88 137.62 178.85 137.4 178.73 137.21C178.61 137.04 178.42 136.91 178.15 136.82L169.75 134.22C169.48 134.14 169.24 134.13 169.04 134.21C168.85 134.29 168.69 134.46 168.57 134.73L167.98 134.54L169.23 130.51L169.82 130.7C169.78 130.96 169.81 131.18 169.92 131.37C170.02 131.57 170.22 131.7 170.5 131.8L176.73 133.73L176.76 133.65L172.95 126.89L172.1 126.63C171.85 126.53 171.61 126.53 171.42 126.62C171.22 126.7 171.05 126.88 170.92 127.15L170.33 126.97L171.58 122.94L172.17 123.13C172.12 123.39 172.15 123.62 172.27 123.8C172.39 123.98 172.58 124.12 172.85 124.21L181.26 126.81C181.52 126.88 181.75 126.87 181.95 126.79C182.15 126.72 182.31 126.55 182.44 126.31L183.02 126.49V126.49Z" fill="white"/>
 </g>
 <defs>
  <clipPath id="clip0_2_248">
   <rect width="443" height="200" fill="white"/>
  </clipPath>
 </defs>
</svg>
