<svg width="13" height="12" viewBox="0 0 13 12" fill="none" xmlns="http://www.w3.org/2000/svg">
    <path d="M11 5C11 8.5 6.5 11.5 6.5 11.5C6.5 11.5 2 8.5 2 5C2 3.80653 2.47411 2.66193 3.31802 1.81802C4.16193 0.974106 5.30653 0.5 6.5 0.5C7.69347 0.5 8.83807 0.974106 9.68198 1.81802C10.5259 2.66193 11 3.80653 11 5Z" stroke="#F5F5F5" stroke-linecap="round" stroke-linejoin="round"/>
    <path d="M6.5 6.5C7.32843 6.5 8 5.82843 8 5C8 4.17157 7.32843 3.5 6.5 3.5C5.67157 3.5 5 4.17157 5 5C5 5.82843 5.67157 6.5 6.5 6.5Z" stroke="#F5F5F5" stroke-linecap="round" stroke-linejoin="round"/>
</svg>
