<svg width="13" height="12" viewBox="0 0 13 12" fill="none" xmlns="http://www.w3.org/2000/svg">
    <g clip-path="url(#clip0_1_173)">
        <path d="M8.025 2.5C8.51336 2.59528 8.96219 2.83413 9.31403 3.18597C9.66587 3.53781 9.90471 3.98663 10 4.475M8.025 0.5C9.03963 0.612718 9.98579 1.06709 10.7081 1.7885C11.4304 2.50992 11.886 3.4555 12 4.47M11.5 8.46V9.96C11.5006 10.0993 11.472 10.2371 11.4163 10.3647C11.3605 10.4923 11.2786 10.6068 11.176 10.7009C11.0734 10.7951 10.9523 10.8667 10.8204 10.9114C10.6885 10.956 10.5487 10.9725 10.41 10.96C8.87141 10.7928 7.3935 10.2671 6.095 9.425C4.88691 8.65733 3.86267 7.63309 3.095 6.425C2.24999 5.1206 1.72412 3.6355 1.56 2.09C1.5475 1.95173 1.56393 1.81238 1.60825 1.68081C1.65256 1.54924 1.72378 1.42834 1.81738 1.32581C1.91098 1.22328 2.0249 1.14135 2.15189 1.08526C2.27889 1.02917 2.41617 1.00013 2.555 1H4.055C4.29765 0.997612 4.53289 1.08354 4.71688 1.24177C4.90086 1.39999 5.02104 1.61972 5.055 1.86C5.11831 2.34003 5.23572 2.81136 5.405 3.265C5.47227 3.44396 5.48683 3.63846 5.44695 3.82544C5.40707 4.01242 5.31443 4.18406 5.18 4.32L4.545 4.955C5.25677 6.20677 6.29322 7.24322 7.545 7.955L8.18 7.32C8.31594 7.18557 8.48757 7.09292 8.67456 7.05305C8.86154 7.01317 9.05603 7.02773 9.235 7.095C9.68863 7.26428 10.16 7.38169 10.64 7.445C10.8829 7.47926 11.1047 7.6016 11.2633 7.78875C11.4218 7.97589 11.5061 8.21479 11.5 8.46Z" stroke="#F5F5F5" stroke-linecap="round" stroke-linejoin="round"/>
    </g>
    <defs>
        <clipPath id="clip0_1_173">
            <rect width="12" height="12" fill="white" transform="translate(0.5)"/>
        </clipPath>
    </defs>
</svg>
