<svg width="283" height="123" viewBox="0 0 283 123" fill="none" xmlns="http://www.w3.org/2000/svg">
    <path d="M81.3705 20.1143C81.379 20.1115 82.1486 19.7785 84.0682 19.6869C83.9816 21.5867 83.6529 22.3612 83.6408 22.3875L83.4207 22.866H86.1667L86.6935 22.8631L86.4734 22.3846C86.4699 22.3775 86.1263 21.6073 86.0368 19.6869C87.965 19.7743 88.7402 20.1108 88.7466 20.1129L89.2258 20.3358L89.2251 17.0673L88.7466 17.2853C88.7373 17.2874 87.9621 17.631 86.034 17.7226C86.1263 15.7958 86.4699 15.0206 86.4734 15.0142L86.7006 14.5315L83.43 14.5329L83.6408 15.0093C83.6437 15.0185 83.9794 15.7937 84.0682 17.7212C82.15 17.6274 81.3797 17.2874 81.3754 17.2853L80.8927 17.0581L80.8934 20.3259L81.3705 20.1143Z" fill="#F5F5F5"/>
    <path d="M138.419 40.1607H31.7006V43.158H138.419V40.1607Z" fill="#F5F5F5"/>
    <path d="M72.2461 27.2787C77.1999 27.2787 79.6719 30.7573 79.6719 30.7573H83.4025C83.4025 30.7573 80.7673 24.2445 72.3462 24.2445C61.6242 24.2445 59.0564 31.1258 41.9927 31.1258C37.7261 31.1258 31.8629 30.6196 31.701 30.6196L31.7003 33.5487C31.7003 33.5487 34.9972 34.1543 41.7996 34.1543C61.1003 34.1543 62.5478 27.2787 72.2461 27.2787Z" fill="#F5F5F5"/>
    <path d="M86.7164 30.7573H90.447C90.447 30.7573 92.919 27.2787 97.8728 27.2787C107.57 27.2787 109.018 34.1543 128.319 34.1543C135.122 34.1543 138.419 33.5487 138.419 33.5487L138.418 30.6196C138.256 30.6196 132.393 31.1265 128.126 31.1265C111.062 31.1265 108.495 24.2445 97.7727 24.2445C89.3516 24.2445 86.7164 30.7573 86.7164 30.7573Z" fill="#F5F5F5"/>
    <path d="M127.716 91.9809L123.6 98.17L119.484 91.9809C119.097 91.4116 118.321 91.2639 117.752 91.6508C117.182 92.0377 117.035 92.8137 117.422 93.3837L122.352 100.63V105.385C122.352 106.074 122.911 106.632 123.6 106.632C124.289 106.632 124.847 106.074 124.847 105.385V100.63L129.778 93.3837C130.166 92.8137 130.018 92.0377 129.448 91.6508C128.88 91.2632 128.103 91.4116 127.716 91.9809Z" fill="#F5F5F5"/>
    <path d="M87.0755 91.5428C86.3876 91.5428 85.8296 92.1001 85.8289 92.7887C85.8289 92.7887 85.8239 99.3171 85.8239 101.228C85.8239 102.854 84.108 104.28 81.9456 104.28C79.6185 104.28 78.068 102.688 78.068 101.201C78.068 99.2887 78.063 92.7887 78.063 92.7887C78.063 92.1001 77.5043 91.5428 76.8157 91.5428C76.1264 91.5428 75.5691 92.1008 75.5691 92.7894C75.5691 92.7894 75.5733 99.2582 75.5733 100.991C75.5733 104.452 78.5372 106.774 81.9456 106.774C85.3497 106.774 88.3179 104.46 88.3179 100.991C88.3179 100.277 88.3228 92.7894 88.3228 92.7894C88.3228 92.1008 87.7641 91.5428 87.0755 91.5428Z" fill="#F5F5F5"/>
    <path d="M51.7118 61.987C51.7011 60.6495 51.694 59.4689 51.6947 58.8953C51.6954 58.4303 51.699 57.0147 54.2221 56.9956L55.6944 56.9835H55.7342C57.859 56.9835 58.6278 58.2202 58.6364 59.3816C58.642 60.0546 58.3893 60.6666 57.925 61.1067C57.3436 61.6576 56.4335 61.9537 55.294 61.9615L51.7118 61.987ZM59.6423 62.9185C60.6156 61.9977 61.1445 60.734 61.1332 59.361C61.1133 57.0069 59.4166 54.4874 55.7342 54.4874H55.676L54.2064 54.5002C51.124 54.5222 49.2043 56.204 49.1979 58.8896C49.1944 60.6872 49.2725 68.0789 49.2746 68.3927C49.2824 69.0784 49.839 69.6279 50.5226 69.6279H50.5376C51.2262 69.6201 51.7799 69.0564 51.7714 68.3664C51.7714 68.3302 51.7338 64.4838 51.7338 64.4838L55.3111 64.4576C57.0951 64.4455 58.593 63.9131 59.6423 62.9185Z" fill="#F5F5F5"/>
    <path d="M111.318 56.9305C112.008 56.9305 112.567 56.3718 112.567 55.6825C112.567 54.9931 112.008 54.4337 111.318 54.4337H102.902C102.213 54.4337 101.655 54.991 101.653 55.6796C101.653 55.9927 101.635 63.3851 101.653 65.1834C101.68 67.8683 103.613 69.5359 106.695 69.5359H111.318C112.008 69.5359 112.567 68.9772 112.567 68.2878C112.567 67.5971 112.008 67.0391 111.318 67.0391H106.695C104.17 67.0391 104.154 65.6228 104.149 65.1571C104.145 64.7333 104.144 63.9758 104.143 63.0699H110.145C110.833 63.0699 111.392 62.5112 111.392 61.8212C111.392 61.1318 110.833 60.5731 110.145 60.5731H104.143C104.144 59.2193 104.145 57.8676 104.147 56.9305H111.318Z" fill="#F5F5F5"/>
    <path d="M40.7184 91.5449H36.6662C33.5865 91.5449 31.6555 93.2117 31.6285 95.8938C31.6101 97.6899 31.6278 105.076 31.6285 105.389C31.63 106.077 32.188 106.634 32.8752 106.634H32.878C33.5673 106.631 34.1239 106.072 34.1225 105.383C34.1225 105.339 34.1161 102.746 34.1154 100.234H39.9701C40.6595 100.234 41.2175 99.6756 41.2175 98.987C41.2175 98.2976 40.6595 97.7396 39.9701 97.7396H34.1154C34.1161 96.953 34.119 96.3006 34.1225 95.9194C34.1268 95.4544 34.1424 94.0395 36.6662 94.0395H40.7184C41.4077 94.0395 41.9664 93.4815 41.9664 92.7922C41.9664 92.1028 41.4077 91.5449 40.7184 91.5449Z" fill="#F5F5F5"/>
    <path d="M73.4823 60.9371C72.9052 61.5242 71.9737 61.8395 70.7938 61.848L67.2123 61.8742C67.2002 60.536 67.1945 59.3554 67.1952 58.7811C67.196 58.3161 67.1988 56.9005 69.7226 56.8828L71.1935 56.87H71.2347C73.3588 56.87 74.1276 58.106 74.1369 59.2688C74.1397 59.7225 74.0297 60.3813 73.4823 60.9371ZM71.2347 54.3732H71.1751L69.707 54.3853C66.623 54.4087 64.7041 56.0905 64.6977 58.7761C64.6949 60.5744 64.7716 67.9661 64.7751 68.2799C64.7829 68.9642 65.3395 69.5151 66.0232 69.5151H66.0359C66.726 69.5073 67.2783 68.9429 67.2719 68.2529C67.2712 68.216 67.2329 64.3703 67.2329 64.3703L70.8116 64.3448C73.1579 64.3284 74.5266 63.4346 75.2621 62.6878C76.1566 61.7798 76.6436 60.558 76.6322 59.2482C76.6138 56.8941 74.9164 54.3732 71.2347 54.3732Z" fill="#F5F5F5"/>
    <path d="M89.9457 67.0391H85.8182C83.2916 67.0391 83.2767 65.6228 83.2725 65.1578C83.254 63.3752 83.2717 55.762 83.2725 55.6853C83.2746 54.996 82.7159 54.4358 82.0273 54.4337H82.0237C81.3365 54.4337 80.7778 54.991 80.7757 55.6796C80.7749 55.9927 80.7579 63.3851 80.7757 65.1834C80.8026 67.8676 82.7358 69.5359 85.8182 69.5359H89.9457C90.6351 69.5359 91.1931 68.9772 91.1931 68.2871C91.1931 67.5978 90.6351 67.0391 89.9457 67.0391Z" fill="#F5F5F5"/>
    <path d="M96.353 68.2874V55.6827C96.353 54.9926 95.7943 54.4339 95.105 54.4339C94.4156 54.4339 93.8569 54.9926 93.8569 55.6827V68.2874C93.8569 68.9767 94.4156 69.5354 95.105 69.5354C95.7943 69.5354 96.353 68.9767 96.353 68.2874Z" fill="#F5F5F5"/>
    <path d="M72.7246 75.44C73.4132 75.44 73.9705 74.8827 73.9705 74.1941C73.9705 73.5062 73.4132 72.9482 72.7246 72.9482H65.6374C64.9502 72.9482 64.3936 73.5048 64.3915 74.192C64.3915 74.5043 64.3744 81.8833 64.3915 83.6772C64.4185 86.3565 66.3473 88.022 69.4248 88.022H72.7246C73.4132 88.022 73.9705 87.464 73.9705 86.7761C73.9705 86.0874 73.4132 85.5294 72.7246 85.5294H69.4248C66.9032 85.5294 66.8883 84.116 66.8833 83.6517C66.8791 83.2279 66.8776 82.4718 66.8762 81.5681H71.6959C72.3831 81.5681 72.9411 81.0101 72.9411 80.3222C72.9411 79.6342 72.3831 79.0762 71.6959 79.0762H66.8762C66.8776 77.7245 66.8791 76.3757 66.8812 75.44H72.7246Z" fill="#F5F5F5"/>
    <path d="M58.8277 72.9484C58.1397 72.9484 57.5825 73.5064 57.5825 74.1943V86.7763C57.5825 87.4642 58.1397 88.0215 58.8277 88.0215C59.5163 88.0215 60.0736 87.4642 60.0736 86.7763V74.1943C60.0736 73.5064 59.5163 72.9484 58.8277 72.9484Z" fill="#F5F5F5"/>
    <path d="M101.927 104.138H97.0711C94.5473 104.138 94.5317 102.724 94.5274 102.259C94.5097 100.479 94.5274 92.8712 94.5274 92.7952C94.5289 92.1059 93.9723 91.5465 93.2837 91.5451H93.2801C92.5936 91.5451 92.0349 92.1017 92.0335 92.7896C92.0321 93.1026 92.015 100.488 92.0335 102.284C92.0612 104.966 93.9915 106.633 97.0711 106.633H101.927C102.615 106.633 103.174 106.075 103.174 105.386C103.174 104.696 102.615 104.138 101.927 104.138Z" fill="#F5F5F5"/>
    <path d="M122.942 67.0393H119.53V56.93H122.942C125.965 56.93 127.498 58.631 127.498 61.9847C127.498 65.3383 125.965 67.0393 122.942 67.0393ZM122.942 54.4339H118.283C117.592 54.4339 117.033 54.9926 117.033 55.682V68.2874C117.033 68.9767 117.592 69.5354 118.283 69.5354H122.942C127.358 69.5354 129.995 66.7127 129.995 61.9847C129.995 57.2573 127.358 54.4339 122.942 54.4339Z" fill="#F5F5F5"/>
    <path d="M114.491 91.4031H102.796C102.108 91.4031 101.55 91.9618 101.55 92.6497C101.55 93.3398 102.108 93.8978 102.796 93.8978H107.396V105.386C107.396 106.075 107.954 106.633 108.644 106.633C109.331 106.633 109.89 106.075 109.89 105.386V93.8978H114.491C115.179 93.8978 115.737 93.3398 115.737 92.6497C115.737 91.9618 115.179 91.4031 114.491 91.4031Z" fill="#F5F5F5"/>
    <path d="M36.1715 62.1873C36.9389 60.0575 37.5913 58.2664 37.7539 57.8674C38.1195 56.9729 38.4851 56.9729 38.6427 56.9729C38.889 56.9729 39.1673 56.9729 39.5322 57.8674C39.6941 58.2664 40.3472 60.0575 41.1139 62.1873H36.1715ZM44.6792 69.6635C44.8197 69.6635 44.9617 69.6408 45.103 69.5904C45.7575 69.3568 46.0997 68.6355 45.8662 67.9795C45.7213 67.5728 42.3059 57.9931 41.8665 56.9147C41.1998 55.2804 40.1151 54.4513 38.6427 54.4513C37.8142 54.4513 36.2936 54.7714 35.4189 56.9147C34.9802 57.9931 31.5648 67.5728 31.4185 67.9795C31.1857 68.6355 31.5271 69.3568 32.1838 69.5904C32.8384 69.8246 33.5597 69.4817 33.7932 68.8265C34.1957 67.6991 34.7246 66.2182 35.2663 64.7089H42.0198C42.5608 66.2182 43.0904 67.6991 43.4922 68.8265C43.676 69.3419 44.1609 69.6635 44.6792 69.6635Z" fill="#F5F5F5"/>
    <path d="M50.8333 75.4373C51.6902 75.4373 52.4662 75.7582 52.4662 75.7582C53.1001 76.0308 53.8328 75.7398 54.1054 75.1072C54.378 74.4754 54.0855 73.742 53.4523 73.4701C53.328 73.4169 52.1936 72.9462 50.8333 72.9462C46.4254 72.9462 43.7945 75.7632 43.7945 80.4827C43.7945 85.2009 46.4254 88.0193 50.8333 88.0193C52.1936 88.0193 53.328 87.5479 53.4537 87.4932C54.0834 87.2228 54.3723 86.4944 54.104 85.8633C53.8363 85.2314 53.1065 84.9375 52.4733 85.2023C52.4733 85.2023 51.6895 85.5267 50.8333 85.5267C47.8162 85.5267 46.287 83.83 46.287 80.4827C46.287 77.1348 47.8162 75.4373 50.8333 75.4373Z" fill="#F5F5F5"/>
    <path d="M100.375 75.4368C101.231 75.4368 102.008 75.7591 102.008 75.7591C102.64 76.0318 103.375 75.74 103.647 75.1074C103.919 74.4756 103.626 73.7423 102.994 73.4704C102.869 73.4164 101.736 72.9457 100.375 72.9457C95.9676 72.9457 93.3366 75.7627 93.3366 80.4823C93.3366 85.2011 95.9676 88.0188 100.375 88.0188C101.736 88.0188 102.869 87.5474 102.995 87.4927C103.625 87.2223 103.914 86.4939 103.646 85.8628C103.377 85.2316 102.647 84.937 102.015 85.2025C102.015 85.2025 101.231 85.5263 100.375 85.5263C97.3576 85.5263 95.8277 83.8295 95.8277 80.4823C95.8277 77.135 97.3576 75.4368 100.375 75.4368Z" fill="#F5F5F5"/>
    <path d="M67.9928 94.0381C69.2451 94.0381 70.4349 94.7118 70.4349 94.7118C71.0384 95.0632 71.8008 94.8637 72.1487 94.2681C72.4966 93.6732 72.2957 92.91 71.7014 92.5621C71.5233 92.4578 69.9018 91.5434 67.9928 91.5434C63.5814 91.5434 60.9475 94.3632 60.9475 99.0877C60.9475 103.812 63.5814 106.632 67.9928 106.632C69.8862 106.632 71.5176 105.719 71.6965 105.616C72.2914 105.271 72.4923 104.512 72.1508 103.917C71.8101 103.321 71.0476 103.114 70.4506 103.454C70.4506 103.454 69.2359 104.138 67.9928 104.138C64.9728 104.138 63.4415 102.439 63.4415 99.0877C63.4415 95.7376 64.9728 94.0381 67.9928 94.0381Z" fill="#F5F5F5"/>
    <path d="M88.6742 72.9484C87.9856 72.9484 87.4276 73.5064 87.4276 74.1943V79.6955L87.5156 83.4517L87.2203 82.9718C86.2967 81.6868 82.0003 75.7086 80.4292 73.5107C80.251 73.2608 79.8158 72.9484 79.338 72.9484C78.6494 72.9484 78.0921 73.5064 78.0921 74.1943V86.7763C78.0921 87.4642 78.6494 88.0215 79.338 88.0215C80.0245 88.0215 80.5833 87.4642 80.5833 86.7763V80.9308L80.5037 77.5302L80.7998 78.0116C81.7461 79.3271 86.0347 85.2968 87.5817 87.4599C87.7606 87.7098 88.2121 88.0215 88.6742 88.0215C89.3622 88.0215 89.9202 87.4642 89.9202 86.7763V74.1943C89.9202 73.5064 89.3622 72.9484 88.6742 72.9484Z" fill="#F5F5F5"/>
    <path d="M48.3729 99.2175C49.1404 97.0899 49.7921 95.3002 49.9546 94.9012C50.3188 94.0074 50.6852 94.0074 50.842 94.0074C51.0877 94.0074 51.366 94.0074 51.7309 94.9012C51.8927 95.3002 52.5451 97.0899 53.3112 99.2175H48.3729ZM54.063 93.9492C53.3963 92.3164 52.313 91.4879 50.842 91.4879C50.0143 91.4879 48.4943 91.8073 47.6204 93.9499C47.1824 95.0268 43.7705 104.598 43.6257 105.004C43.3914 105.661 43.7322 106.381 44.3874 106.614C45.0427 106.848 45.764 106.506 45.9975 105.851C46.3993 104.724 46.9268 103.246 47.4685 101.738H54.2163C54.7566 103.246 55.2855 104.724 55.6873 105.851C55.8711 106.366 56.356 106.687 56.8735 106.687C57.0141 106.687 57.1561 106.664 57.2967 106.614C57.9512 106.381 58.2934 105.661 58.0598 105.004C57.915 104.598 54.5031 95.0268 54.063 93.9492Z" fill="#F5F5F5"/>
    <path d="M115.814 75.4402C116.502 75.4402 117.059 74.8822 117.059 74.1943C117.059 73.5057 116.502 72.9477 115.814 72.9477H108.726C108.041 72.9477 107.483 73.5043 107.48 74.1908C107.48 74.5038 107.462 81.8828 107.48 83.6768C107.508 86.356 109.437 88.0215 112.514 88.0215H115.814C116.502 88.0215 117.059 87.4635 117.059 86.7756C117.059 86.0877 116.502 85.5297 115.814 85.5297H112.514C109.991 85.5297 109.977 84.1155 109.972 83.6519C109.969 83.2274 109.964 81.5683 109.964 81.5683H114.784C115.473 81.5683 116.03 81.0103 116.03 80.3217C116.03 79.6337 115.473 79.0757 114.784 79.0757H109.964L109.97 75.4402H115.814Z" fill="#F5F5F5"/>
    <path d="M124.658 85.7577C123.396 85.7577 122.329 85.3062 121.734 84.5203C121.475 84.1795 121.117 83.9921 120.726 83.9921C120.088 83.9921 119.404 84.482 119.404 85.2089C119.404 86.2319 121.152 88.0571 124.637 88.0571C128.116 88.0571 129.995 85.8471 129.995 83.7685C129.995 82.1499 128.926 80.7144 126.989 79.7241C126.496 79.4756 125.875 79.1916 125.275 78.9162L125.177 78.8714C124.647 78.6279 124.146 78.3993 123.758 78.2062C122.925 77.8023 122.407 77.1967 122.407 76.6274C122.407 75.8848 123.202 75.1174 124.533 75.1174C125.506 75.1174 126.277 75.402 126.824 75.9622C127.13 76.2838 127.507 76.462 127.886 76.462C128.58 76.462 129.166 75.8947 129.166 75.226C129.166 74.2648 127.563 72.9351 124.555 72.9351C121.54 72.9351 119.964 74.8306 119.964 76.704C119.964 78.2197 120.98 79.553 122.687 80.2721C123.752 80.7208 124.814 81.2632 125.802 81.7843C126.81 82.3075 127.438 83.0955 127.438 83.8409C127.438 84.3393 126.927 85.7577 124.658 85.7577Z" fill="#F5F5F5"/>
    <path d="M36.3854 85.7577C35.1224 85.7577 34.0561 85.3062 33.4605 84.5196C33.2014 84.1802 32.8436 83.9914 32.4545 83.9914C31.8149 83.9914 31.1312 84.4812 31.1312 85.2096C31.1312 86.2319 32.8805 88.0571 36.3634 88.0571C39.8441 88.0571 41.7211 85.8471 41.7211 83.7685C41.7211 82.1506 40.6534 80.7137 38.7153 79.7241C38.1864 79.4571 37.4964 79.1433 36.9427 78.8892L36.91 78.8736C36.3768 78.6308 35.8756 78.4001 35.4852 78.2055C34.6524 77.8023 34.1349 77.1967 34.1349 76.6274C34.1349 75.8855 34.93 75.1174 36.2611 75.1174C37.2337 75.1174 38.0047 75.402 38.5499 75.9622C38.8566 76.2838 39.2343 76.4613 39.612 76.4613C40.3063 76.4613 40.8934 75.8954 40.8934 75.226C40.8934 74.2648 39.2904 72.9351 36.2817 72.9351C33.2674 72.9351 31.6899 74.8306 31.6899 76.704C31.6899 78.219 32.708 79.5523 34.4139 80.2721C35.4752 80.7187 36.538 81.2625 37.529 81.7843C38.5378 82.3075 39.1654 83.0955 39.1654 83.8409C39.1654 84.3386 38.655 85.7577 36.3854 85.7577Z" fill="#F5F5F5"/>
    <path d="M134.821 97.5088C132.155 97.5088 129.995 99.6698 129.995 102.336C129.995 105.001 132.155 107.162 134.821 107.162C137.487 107.162 139.649 105.001 139.649 102.336C139.649 99.6698 137.487 97.5088 134.821 97.5088Z" fill="#8AC650"/>
    <path d="M220.493 33.0948C221.164 33.0948 221.836 33.0948 222.507 33.0948C222.507 33.0948 222.129 32.2931 222.069 30.1937C224.176 30.2522 224.981 30.6213 224.981 30.6213C224.981 29.951 224.981 29.2798 224.981 28.6086C224.981 28.6086 224.175 28.9871 222.069 29.0468C222.129 26.9394 222.507 26.1355 222.507 26.1355C221.836 26.1355 221.165 26.1355 220.493 26.1355C220.493 26.1355 220.863 26.9394 220.922 29.0464C218.822 28.9854 218.021 28.6086 218.021 28.6086C218.021 29.2798 218.021 29.951 218.021 30.6213C218.021 30.6213 218.822 30.2535 220.922 30.1942C220.862 32.2931 220.493 33.0948 220.493 33.0948Z" fill="#F5F5F5"/>
    <path d="M246.763 43.0861C246.769 49.2373 246.753 53.9151 246.758 60.0658C246.766 67.3464 246.758 82.2418 246.757 85.3011C243.878 84.5621 240.88 83.9238 237.948 83.8342C232.326 83.6618 225.982 85.2495 221.579 89.0615C221.562 89.0756 221.546 89.0906 221.53 89.1055C217.414 85.5038 211.63 83.9268 206.357 83.8593C202.996 83.8158 199.565 84.4733 196.255 85.2141C196.25 79.2114 196.245 72.9459 196.24 66.9582C196.233 58.9603 196.256 43.5376 196.256 43.0874C196.255 42.6898 194.685 42.1009 194.685 42.4982C194.691 48.6519 194.696 53.9211 194.702 60.0748C194.709 68.0723 194.685 85.2632 194.685 85.7137C194.685 86.0722 195.69 85.9966 195.876 85.9518C198.908 85.2226 202.091 84.9116 205.201 84.8565C210.646 84.7588 216.749 85.9476 220.791 89.9358C221.098 90.2388 221.961 90.2388 222.268 89.9358C226.368 85.89 232.42 84.6803 237.947 84.8279C241.021 84.9103 244.184 85.2922 247.163 86.0871C247.349 86.137 248.315 86.2044 248.315 85.8494C248.308 79.6983 248.303 73.2527 248.297 67.1015C248.288 59.0742 248.315 42.9662 248.315 42.4977C248.315 42.0992 246.763 42.6893 246.763 43.0861Z" fill="#F5F5F5"/>
    <path d="M202.806 37.6489C205.677 35.4698 207.752 33.0577 211.38 33.0577C213.233 33.0577 214.472 34.9475 214.472 36.1021C214.472 36.9065 214.256 38.5266 212.463 38.5266C210.895 38.5266 210.441 36.618 211.078 35.5628C208.765 35.5628 208.64 39.1453 212.492 39.1453C214.141 39.1453 215.84 38.1878 215.84 36.1994C215.84 34.8618 214.891 32.5273 211.373 32.5273C207.517 32.5273 205.052 34.4961 201.937 36.8301C198.721 39.2396 195.815 39.8958 191.852 39.4905V40.0789C191.856 40.0793 191.858 40.0798 191.861 40.0802C191.86 46.6461 191.858 81.3445 191.858 81.5903C191.858 81.9875 193.39 82.5772 193.39 82.1795C193.391 76.24 193.392 43.739 193.393 40.2615C196.802 40.5163 200.062 39.7307 202.806 37.6489Z" fill="#F5F5F5"/>
    <path d="M251.089 39.4905C247.127 39.8954 244.221 39.2396 241.005 36.8301C237.89 34.4961 235.425 32.5273 231.568 32.5273C228.051 32.5273 227.102 34.8622 227.102 36.1994C227.102 38.1878 228.8 39.1453 230.45 39.1453C234.301 39.1453 234.177 35.5628 231.863 35.5628C232.502 36.6184 232.048 38.5266 230.478 38.5266C228.686 38.5266 228.47 36.9065 228.47 36.1021C228.47 34.9475 229.709 33.0577 231.562 33.0577C235.19 33.0577 237.264 35.4694 240.137 37.6489C242.879 39.7307 246.139 40.5163 249.55 40.2611C249.55 43.7386 249.552 76.2396 249.552 82.1791C249.552 82.5768 251.084 81.9871 251.084 81.5898C251.084 81.3441 251.082 46.6457 251.082 40.0798C251.084 40.0793 251.088 40.0789 251.09 40.0785V39.4905H251.089Z" fill="#F5F5F5"/>
    <path d="M215.188 58.9751C214.24 57.1929 210.91 50.3569 209.487 47.4554C208.531 45.5041 207.226 44.7625 206.236 44.5283C205.556 44.367 202.191 44.5308 201.394 44.5334V44.5872C202.416 45.019 204.452 47.2783 205.241 48.9855C205.772 50.1341 208.958 56.665 210.063 58.7584C211.163 60.8406 213.58 61.598 214.606 61.7239C215.077 61.7823 215.566 61.7806 216.054 61.7695C211.085 68.3265 206.507 74.3846 207.028 73.6661C205.401 75.6668 203.85 76.4707 202.332 76.9311L202.339 77.2161C206.31 77.2161 209.132 74.292 209.624 73.6537C210.488 72.5298 214.886 66.6449 219.439 60.6196V74.8514H223.366V56.1761C224.206 56.8507 225.186 57.9101 225.893 59.1821C226.273 59.8648 228.192 64.3647 229.456 66.1098C230.518 67.5759 232.161 67.8063 233.708 67.8089C230.831 71.6017 227.882 75.4842 225.839 78.1472C225.138 79.0603 224.431 79.9444 223.647 80.7662C223.335 81.0935 221.698 82.9504 220.222 82.9504C218.602 82.9504 217.565 81.6836 217.565 80.4282C217.565 79.0663 218.302 77.6484 219.903 77.2921C221.424 76.9541 222.676 77.7631 222.91 78.0042C222.91 78.0042 224.447 77.572 224.448 77.5583C223.572 76.7766 221.201 76.318 219.805 76.5556C217.644 76.9239 215.742 78.3661 215.742 80.5571C215.742 82.0313 217.227 83.6131 220.197 83.6131C223.769 83.6131 226.137 80.8891 226.924 80.0353C227.307 79.6192 236.145 67.8802 241.204 61.2443H241.195C241.316 61.0826 241.417 60.9469 241.493 60.8432C242.21 59.8644 244.755 56.7521 243.579 55.3867L240.628 55.3841V55.5493C242.131 56.4146 239.88 59.692 238.709 61.2447H238.688C237.433 62.8981 235.996 64.7918 234.517 66.7426C234.182 66.4089 233.961 65.9972 233.731 65.562C233.031 64.2345 231.057 60.3666 230.035 58.2425C229.356 56.8332 228.034 55.4592 226.695 55.3892C225.594 55.3316 224.474 55.4336 223.367 55.4447V55.4426C225.441 52.722 227.329 50.2715 228.665 48.5942C229.383 47.6939 230.073 46.797 230.857 45.9748C231.169 45.6479 232.806 43.7905 234.281 43.7905C235.902 43.7905 236.939 45.0574 236.939 46.3127C236.939 47.6751 236.202 49.093 234.601 49.4489C233.08 49.7872 231.828 48.9778 231.594 48.7372C231.594 48.7372 230.057 49.169 230.056 49.183C230.932 49.9643 233.303 50.4234 234.699 50.1858C236.86 49.8175 238.762 48.3753 238.762 46.1843C238.762 44.7101 237.277 43.1283 234.307 43.1283C230.735 43.1283 228.367 45.8523 227.58 46.7061C227.307 47.0031 225.641 49.1643 223.367 52.1451V36.0747H219.439V57.3076C218.577 58.4443 217.692 59.6101 216.813 60.7694C216.156 60.3376 215.602 59.7539 215.188 58.9751Z" fill="#F5F5F5"/>
    <path d="M188.16 86.5789L189.619 88.2613L189.383 88.4657C189.27 88.3791 189.161 88.3343 189.054 88.3304C188.948 88.3266 188.82 88.3889 188.672 88.5173L186.808 90.1336C186.18 90.6781 185.862 91.1577 185.856 91.5728C185.849 91.988 186.036 92.4151 186.417 92.8546C186.834 93.3351 187.247 93.5962 187.657 93.6376C188.068 93.679 188.491 93.5109 188.927 93.1324L191.099 91.2498C191.22 91.144 191.285 91.0348 191.289 90.9217C191.295 90.8091 191.251 90.6725 191.158 90.5125L191.394 90.3081L192.382 91.4482L192.146 91.6526C192.009 91.5387 191.883 91.4781 191.766 91.4713C191.649 91.4645 191.531 91.5118 191.414 91.6138L189.268 93.4737C188.92 93.7677 188.598 93.9649 188.302 94.0647C188.007 94.1645 187.71 94.1876 187.411 94.1334C187.087 94.0775 186.778 93.9606 186.483 93.7831C186.188 93.6056 185.917 93.3794 185.671 93.1038C185.35 92.733 185.111 92.3626 184.954 91.9927C184.797 91.6228 184.732 91.2588 184.757 90.8999C184.771 90.5906 184.854 90.3132 185.003 90.067C185.153 89.8213 185.356 89.587 185.614 89.3639L187.779 87.4869C187.922 87.3623 188.002 87.2466 188.018 87.1412C188.033 87.0358 188.002 86.9164 187.925 86.7828L188.16 86.5789Z" fill="#F5F5F5"/>
    <path d="M194.49 93.3784L195.873 94.3986L196.299 99.5006L196.379 99.5599L198.168 97.1358C198.261 97.0104 198.296 96.8879 198.275 96.7685C198.254 96.649 198.179 96.5235 198.05 96.3926L198.235 96.1421L199.486 97.065L199.301 97.3159C199.141 97.2267 198.999 97.1917 198.875 97.2114C198.751 97.231 198.645 97.3014 198.556 97.4222L195.457 101.622L195.069 101.337L194.556 95.1274L194.483 95.0737L192.196 98.1731C192.107 98.2939 192.069 98.4155 192.085 98.5379C192.1 98.6604 192.176 98.7867 192.314 98.9164L192.128 99.1673L190.878 98.2444L191.063 97.9939C191.223 98.0831 191.365 98.1181 191.489 98.098C191.612 98.0784 191.719 98.008 191.808 97.8872L194.409 94.3628C194.517 94.2058 194.562 94.0675 194.546 93.9476C194.529 93.8273 194.449 93.7219 194.305 93.6302L194.49 93.3784Z" fill="#F5F5F5"/>
    <path d="M202.112 98.4673L204.14 99.4734L204.002 99.7525C203.861 99.7085 203.737 99.7064 203.629 99.7465C203.521 99.7862 203.428 99.8929 203.349 100.067L201.439 103.912C201.347 104.086 201.317 104.227 201.35 104.337C201.384 104.447 201.462 104.542 201.584 104.622L201.446 104.901L199.418 103.895L199.557 103.616C199.687 103.667 199.808 103.672 199.92 103.632C200.032 103.591 200.131 103.482 200.218 103.306L202.128 99.4602C202.207 99.287 202.23 99.144 202.199 99.0314C202.166 98.9187 202.092 98.8236 201.975 98.7463L202.112 98.4673Z" fill="#F5F5F5"/>
    <path d="M206.576 100.643L209.098 101.378L209.006 101.694C208.833 101.638 208.684 101.626 208.561 101.659C208.438 101.693 208.358 101.77 208.323 101.892C208.308 101.942 208.301 102.001 208.299 102.07C208.298 102.138 208.307 102.206 208.326 102.271L209.052 105.918L209.183 105.956L211.633 103.172C211.69 103.104 211.73 103.053 211.754 103.018C211.776 102.982 211.794 102.946 211.805 102.906C211.837 102.796 211.81 102.689 211.724 102.585C211.637 102.482 211.503 102.404 211.323 102.351L211.41 102.052L213.164 102.564L213.077 102.863C212.893 102.845 212.733 102.872 212.599 102.944C212.464 103.017 212.322 103.136 212.173 103.302L208.458 107.504L208.126 107.407L207.023 101.774C206.968 101.529 206.901 101.347 206.822 101.228C206.742 101.109 206.632 101.014 206.489 100.942L206.576 100.643Z" fill="#F5F5F5"/>
    <path d="M215.729 102.954L220.218 103.261C220.357 103.271 220.455 103.267 220.51 103.251C220.566 103.234 220.611 103.196 220.645 103.134L220.872 103.15L220.766 104.696L220.44 104.674C220.365 104.339 220.234 104.091 220.044 103.931C219.855 103.771 219.521 103.674 219.043 103.641L217.529 103.538L217.38 105.714L218.386 105.783C218.658 105.807 218.858 105.78 218.988 105.7C219.119 105.621 219.19 105.485 219.204 105.292L219.53 105.314L219.424 106.869L219.097 106.847C219.091 106.664 219.038 106.522 218.939 106.422C218.84 106.321 218.706 106.265 218.537 106.253L217.349 106.172L217.178 108.668L219.355 108.817C219.687 108.839 219.989 108.76 220.259 108.579C220.53 108.398 220.706 108.151 220.788 107.839L221.115 107.861L221.011 109.39L215.316 109.001L215.336 108.69C215.488 108.689 215.607 108.646 215.691 108.562C215.776 108.479 215.828 108.342 215.847 108.152L216.14 103.868C216.147 103.678 216.114 103.538 216.041 103.45C215.969 103.361 215.857 103.3 215.708 103.266L215.729 102.954Z" fill="#F5F5F5"/>
    <path d="M224.311 103.245L226.958 102.88C227.63 102.787 228.154 102.791 228.529 102.89C228.903 102.99 229.2 103.188 229.418 103.484C229.487 103.585 229.544 103.691 229.59 103.801C229.636 103.911 229.667 104.023 229.683 104.138C229.733 104.504 229.668 104.832 229.488 105.122C229.308 105.412 229.049 105.641 228.711 105.81L228.714 105.897L230.285 107.769C230.388 107.9 230.495 107.993 230.603 108.048C230.711 108.103 230.839 108.129 230.985 108.127L231.028 108.435L229.299 108.674L227.453 106.464C227.358 106.355 227.262 106.275 227.163 106.224C227.064 106.173 226.918 106.162 226.726 106.188L226.556 106.212L226.819 108.124C226.848 108.33 226.898 108.46 226.97 108.514C227.041 108.568 227.164 108.607 227.339 108.629L227.381 108.938L225.139 109.247L225.097 108.938C225.275 108.856 225.386 108.776 225.431 108.7C225.475 108.623 225.488 108.494 225.469 108.31L224.882 104.056C224.858 103.879 224.812 103.76 224.746 103.699C224.679 103.639 224.549 103.59 224.354 103.553L224.311 103.245ZM226.174 103.451L226.492 105.758L227.285 105.649C227.609 105.604 227.853 105.467 228.017 105.237C228.181 105.008 228.24 104.724 228.193 104.387C228.133 103.993 227.986 103.712 227.751 103.544C227.517 103.375 227.174 103.319 226.723 103.375L226.174 103.451Z" fill="#F5F5F5"/>
    <path d="M236.736 100.516L237.198 101.849L236.864 101.965C236.643 101.645 236.37 101.43 236.043 101.32C235.716 101.21 235.364 101.221 234.986 101.352C234.689 101.455 234.479 101.616 234.36 101.834C234.24 102.053 234.227 102.262 234.322 102.461C234.402 102.653 234.547 102.791 234.759 102.873C234.97 102.955 235.255 102.996 235.613 102.993C236.647 102.996 237.345 103.095 237.709 103.293C238.072 103.491 238.324 103.791 238.464 104.195C238.653 104.74 238.6 105.258 238.305 105.748C238.01 106.238 237.565 106.586 236.969 106.793C236.837 106.838 236.709 106.874 236.583 106.899C236.457 106.925 236.151 106.957 235.665 106.998C235.505 107.017 235.38 107.051 235.291 107.1C235.203 107.149 235.154 107.218 235.146 107.306C235.143 107.314 235.141 107.318 235.142 107.321C235.143 107.324 235.144 107.328 235.146 107.334L234.88 107.426L234.289 106.027L234.624 105.911C234.879 106.165 235.201 106.34 235.591 106.437C235.98 106.535 236.35 106.522 236.699 106.401C236.945 106.316 237.156 106.189 237.332 106.021C237.508 105.854 237.624 105.665 237.68 105.456C237.699 105.382 237.704 105.3 237.695 105.208C237.686 105.117 237.666 105.018 237.635 104.913C237.608 104.836 237.557 104.762 237.482 104.691C237.405 104.62 237.311 104.558 237.196 104.506C237.086 104.465 236.954 104.436 236.8 104.419C236.647 104.401 236.399 104.388 236.055 104.379C235.317 104.378 234.761 104.286 234.386 104.102C234.011 103.917 233.751 103.615 233.605 103.195C233.45 102.748 233.48 102.303 233.696 101.862C233.912 101.421 234.28 101.11 234.802 100.929C234.973 100.869 235.144 100.831 235.315 100.815C235.486 100.799 235.675 100.803 235.882 100.829C236.073 100.86 236.21 100.857 236.293 100.819C236.376 100.781 236.426 100.714 236.444 100.616L236.736 100.516Z" fill="#F5F5F5"/>
    <path d="M239.862 98.9254L241.857 97.8574L242.005 98.1322C241.888 98.221 241.814 98.3212 241.784 98.4322C241.754 98.5431 241.786 98.6809 241.881 98.8465L243.908 102.632C243.995 102.808 244.093 102.914 244.202 102.951C244.311 102.988 244.434 102.979 244.57 102.926L244.717 103.2L242.721 104.268L242.574 103.994C242.692 103.918 242.766 103.822 242.797 103.707C242.828 103.593 242.798 103.449 242.705 103.276L240.678 99.4899C240.583 99.3248 240.48 99.2228 240.37 99.1836C240.26 99.1443 240.139 99.1503 240.008 99.2006L239.862 98.9254Z" fill="#F5F5F5"/>
    <path d="M244.128 96.3875L244.416 96.1652C244.507 96.1537 244.592 96.1277 244.672 96.0876C244.752 96.0475 244.845 95.9869 244.95 95.9054L248.231 93.3713C248.326 93.3055 248.402 93.2368 248.462 93.1652C248.522 93.0939 248.576 93.0103 248.624 92.9143L248.905 92.6975L249.857 93.9306L249.598 94.1308C249.276 93.9712 248.972 93.8978 248.687 93.9102C248.402 93.9225 248.135 94.0254 247.885 94.2178L247.411 94.5843L250.364 98.4071C250.447 98.5248 250.539 98.591 250.638 98.6055C250.738 98.62 250.866 98.5914 251.025 98.5193L251.216 98.7659L249.425 100.15L249.234 99.903C249.347 99.7507 249.405 99.6308 249.41 99.5429C249.415 99.4554 249.373 99.3543 249.285 99.2404L246.332 95.4177L245.929 95.7287C245.627 95.9621 245.427 96.2168 245.331 96.4921C245.233 96.7677 245.237 97.0771 245.34 97.4197L245.081 97.6198L244.128 96.3875Z" fill="#F5F5F5"/>
    <path d="M250.711 91.2162L252.488 89.1361L252.726 89.3388C252.636 89.4698 252.587 89.5713 252.579 89.6439C252.57 89.716 252.589 89.7727 252.638 89.8141C252.673 89.8444 252.716 89.8683 252.764 89.8862C252.813 89.9041 252.867 89.9105 252.926 89.9041L255.081 89.9404L255.181 89.8231L254.638 87.9004C254.608 87.7942 254.587 87.7293 254.577 87.705C254.568 87.6807 254.556 87.6632 254.543 87.6516C254.473 87.5915 254.396 87.5774 254.312 87.609C254.227 87.641 254.12 87.7246 253.989 87.8594L253.752 87.6568L254.856 86.3647L255.094 86.5674C255.03 86.7044 254.991 86.8303 254.976 86.945C254.961 87.0603 254.97 87.187 255.003 87.3269L255.662 90.2335L257.28 91.6169C257.403 91.7218 257.506 91.77 257.59 91.7615C257.673 91.753 257.792 91.6988 257.945 91.5989L258.182 91.8016L256.694 93.5429L256.457 93.3403C256.543 93.2221 256.578 93.1009 256.563 92.9763C256.548 92.8517 256.492 92.7442 256.395 92.6533L254.769 91.2644L251.803 91.2166C251.577 91.2149 251.402 91.2286 251.279 91.2585C251.154 91.2879 251.047 91.3391 250.954 91.4116L250.711 91.2162Z" fill="#F5F5F5"/>
    <path d="M176.862 77.2337L176.32 75.0956L176.622 75.0188C176.684 75.1455 176.761 75.2342 176.855 75.285C176.948 75.3358 177.09 75.3371 177.28 75.2884L179.671 74.6817C180.477 74.4773 180.976 74.1927 181.169 73.8279C181.362 73.4631 181.388 73.0014 181.247 72.4428C181.092 71.8318 180.841 71.4171 180.493 71.1986C180.146 70.9802 179.693 70.9418 179.133 71.0838L176.348 71.7909C176.191 71.8305 176.085 71.8992 176.029 71.997C175.974 72.0947 175.951 72.235 175.962 72.4181L175.66 72.4949L175.292 71.0463L175.595 70.9695C175.665 71.1312 175.751 71.2409 175.852 71.2985C175.953 71.3565 176.079 71.3663 176.231 71.3279L178.983 70.6294C179.426 70.5232 179.802 70.4912 180.111 70.5334C180.42 70.5761 180.694 70.687 180.937 70.8671C181.2 71.0604 181.424 71.301 181.607 71.5886C181.789 71.8762 181.93 72.1971 182.025 72.5504C182.144 73.0214 182.19 73.4558 182.163 73.8526C182.136 74.2499 182.03 74.6015 181.846 74.9087C181.694 75.1762 181.496 75.3862 181.251 75.5381C181.007 75.69 180.72 75.8077 180.389 75.8914L177.612 76.5962C177.427 76.6427 177.304 76.7102 177.243 76.7968C177.182 76.8834 177.156 77.0033 177.164 77.1556L176.862 77.2337Z" fill="#F5F5F5"/>
    <path d="M174.743 67.0465L174.664 64.8063L174.975 64.7953C175.003 64.9382 175.06 65.0474 175.147 65.1225C175.233 65.1976 175.371 65.2288 175.561 65.216L177.482 65.1481L177.48 65.0854L175.538 62.8295C175.46 62.742 175.388 62.6725 175.322 62.6208C175.257 62.5688 175.199 62.544 175.147 62.5457C175.084 62.5543 175.031 62.5948 174.991 62.6686C174.95 62.7424 174.923 62.8423 174.911 62.9686L174.599 62.9797L174.522 60.7933L174.833 60.7822C174.926 61.1095 175.004 61.3365 175.07 61.4632C175.135 61.59 175.221 61.718 175.33 61.846L176.82 63.5681L179.41 61.6121C179.697 61.4039 179.896 61.2243 180.006 61.0732C180.116 60.9222 180.202 60.7374 180.263 60.5194L180.574 60.5083L180.674 63.3428L180.363 63.3535C180.362 63.1674 180.306 63.033 180.193 62.9494C180.08 62.8666 179.943 62.885 179.779 63.0044L177.677 64.5802L178.139 65.1251L179.852 65.0649C180.048 65.0641 180.187 65.0231 180.268 64.942C180.349 64.8614 180.395 64.7483 180.407 64.6041L180.719 64.593L180.798 66.8336L180.487 66.8442C180.47 66.7068 180.417 66.5989 180.328 66.5212C180.238 66.4436 180.096 66.4077 179.9 66.4145L175.608 66.5656C175.418 66.5784 175.281 66.6253 175.197 66.7064C175.114 66.7875 175.065 66.8971 175.053 67.0358L174.743 67.0465Z" fill="#F5F5F5"/>
    <path d="M174.812 57.0019L175.254 54.3923C175.366 53.7296 175.525 53.2364 175.732 52.9117C175.939 52.5878 176.217 52.3668 176.564 52.249C176.682 52.214 176.8 52.1914 176.919 52.1812C177.037 52.1709 177.154 52.1752 177.267 52.1944C177.632 52.2563 177.925 52.4154 178.147 52.6723C178.37 52.9292 178.512 53.2424 178.572 53.6119L178.656 53.6353L180.911 52.7111C181.067 52.6522 181.187 52.5797 181.273 52.4939C181.358 52.4082 181.42 52.2951 181.462 52.156L181.769 52.2081L181.48 53.9127L178.821 54.9965C178.688 55.0532 178.583 55.1206 178.506 55.1987C178.429 55.2768 178.373 55.4108 178.341 55.5998L178.313 55.7688L180.216 56.0909C180.421 56.1259 180.56 56.1174 180.633 56.0658C180.706 56.0141 180.78 55.9096 180.854 55.7513L181.161 55.8034L180.787 58.0136L180.479 57.9615C180.453 57.7687 180.411 57.6394 180.351 57.5745C180.292 57.5097 180.172 57.4589 179.991 57.4222L175.758 56.7054C175.581 56.6755 175.454 56.6832 175.376 56.7276C175.298 56.7724 175.212 56.8812 175.118 57.054L174.812 57.0019ZM175.564 55.3033L177.86 55.692L177.993 54.9107C178.047 54.5911 177.989 54.3197 177.819 54.0957C177.65 53.8726 177.396 53.7318 177.061 53.6754C176.667 53.6149 176.355 53.6699 176.124 53.841C175.893 54.0121 175.738 54.3189 175.656 54.7618L175.564 55.3033Z" fill="#F5F5F5"/>
    <path d="M182.02 50.0195C182.034 49.8893 182.006 49.7515 181.937 49.6043C181.867 49.458 181.769 49.3108 181.641 49.1636L178.868 46.117C178.811 46.056 178.747 46.0031 178.674 45.9587C178.602 45.9143 178.516 45.8691 178.416 45.823C178.352 45.7974 178.291 45.8175 178.234 45.8823C178.178 45.9472 178.133 46.0376 178.1 46.1537L177.81 46.0393C177.884 45.8042 177.92 45.5845 177.916 45.3797C177.913 45.1753 177.871 44.9863 177.791 44.8126L177.909 44.5109L183.188 44.0544C183.533 44.0288 183.81 43.9887 184.022 43.9328C184.232 43.8773 184.399 43.7898 184.52 43.6699L184.811 43.7843L183.867 46.1801L183.577 46.0658C183.635 45.9339 183.636 45.8068 183.578 45.6839C183.521 45.5614 183.428 45.4748 183.299 45.424C183.278 45.4155 183.235 45.41 183.171 45.4074C183.106 45.4048 183.057 45.4027 183.02 45.401L182.394 45.4543L181.342 48.1267L181.731 48.5316C181.923 48.7364 182.094 48.8196 182.242 48.7812C182.39 48.7428 182.532 48.6084 182.666 48.3772L182.956 48.4915L182.309 50.1334L182.02 50.0195ZM179.194 45.7616L180.981 47.6945L181.014 47.7073L181.871 45.5294L181.847 45.52L179.206 45.7287L179.194 45.7616Z" fill="#F5F5F5"/>
    <path d="M180.917 38.4778L182.079 36.5603L182.346 36.722C182.291 36.8569 182.279 36.9797 182.31 37.0898C182.341 37.1999 182.44 37.3019 182.606 37.3953L186.277 39.6205C186.442 39.7272 186.581 39.769 186.692 39.7455C186.805 39.7221 186.905 39.6534 186.995 39.539L187.262 39.7003L186.1 41.6179L185.833 41.4566C185.895 41.3324 185.91 41.2134 185.877 41.0994C185.846 40.9851 185.746 40.8771 185.578 40.7756L181.906 38.5504C181.74 38.4569 181.599 38.4211 181.485 38.4429C181.371 38.4646 181.27 38.5303 181.184 38.6391L180.917 38.4778Z" fill="#F5F5F5"/>
    <path d="M184.26 33.2886L185.376 32.0038L190.474 32.0081L190.539 31.9334L188.265 29.9578C188.147 29.8558 188.028 29.8102 187.908 29.8209C187.788 29.8315 187.658 29.8955 187.518 30.0124L187.282 29.8081L188.292 28.6458L188.527 28.8501C188.426 29.0012 188.381 29.139 188.392 29.2636C188.403 29.3882 188.464 29.4991 188.577 29.5977L192.519 33.0206L192.206 33.3807L186.001 33.3696L185.942 33.4379L188.85 35.9639C188.964 36.0625 189.081 36.1094 189.204 36.1043C189.326 36.0996 189.458 36.0343 189.597 35.9089L189.832 36.1132L188.823 37.2756L188.588 37.0712C188.688 36.9201 188.734 36.7823 188.723 36.6581C188.712 36.534 188.65 36.4226 188.537 36.324L185.23 33.452C185.082 33.3317 184.948 33.2749 184.828 33.2813C184.707 33.2881 184.596 33.359 184.495 33.4934L184.26 33.2886Z" fill="#F5F5F5"/>
    <path d="M191.212 26.0456L192.948 24.6277L193.145 24.8692C193.048 24.978 192.996 25.0898 192.989 25.2037C192.981 25.3181 193.04 25.4469 193.165 25.5907L195.881 28.9163C196 29.0721 196.117 29.1579 196.23 29.1732C196.344 29.189 196.461 29.1574 196.583 29.0798L196.781 29.3213L195.045 30.7392L194.848 30.4977C194.947 30.4012 195.001 30.2941 195.009 30.1759C195.017 30.0577 194.959 29.9225 194.835 29.7706L192.119 26.445C191.994 26.3016 191.874 26.2205 191.758 26.203C191.643 26.1855 191.527 26.2133 191.409 26.2875L191.212 26.0456Z" fill="#F5F5F5"/>
    <path d="M198.591 27.4701C198.684 27.3779 198.749 27.2534 198.788 27.0959C198.827 26.9385 198.843 26.7618 198.836 26.5668L198.606 22.4535C198.601 22.3703 198.585 22.2888 198.556 22.2086C198.529 22.1284 198.49 22.0392 198.441 21.9406C198.408 21.88 198.348 21.8574 198.263 21.8719C198.179 21.8864 198.087 21.9283 197.988 21.997L197.835 21.7256C198.041 21.5899 198.207 21.4414 198.334 21.281C198.46 21.1205 198.547 20.9473 198.594 20.7617L198.876 20.6025L203.259 23.5783C203.543 23.7763 203.784 23.9205 203.983 24.0101C204.182 24.1001 204.366 24.1372 204.536 24.1206L204.689 24.3924L202.445 25.6558L202.293 25.3845C202.421 25.3187 202.502 25.2206 202.534 25.0892C202.567 24.9582 202.55 24.8319 202.482 24.7116C202.47 24.6915 202.441 24.6599 202.392 24.6177C202.345 24.575 202.307 24.5417 202.279 24.5174L201.76 24.1641L199.258 25.5735L199.304 26.1333C199.324 26.4136 199.403 26.5856 199.543 26.6496C199.683 26.7136 199.877 26.6982 200.127 26.6039L200.28 26.8753L198.742 27.7415L198.591 27.4701ZM199.084 22.3835L199.252 25.0115L199.269 25.0418L201.309 23.8932L201.296 23.8706L199.116 22.3665L199.084 22.3835Z" fill="#F5F5F5"/>
    <path d="M205.146 17.6879L206.775 17.195L211.087 19.9152L211.182 19.8866L210.31 17.0035C210.265 16.8541 210.188 16.7521 210.081 16.6975C209.973 16.6429 209.829 16.6275 209.648 16.6519L209.558 16.3536L211.031 15.9077L211.122 16.206C210.956 16.2802 210.845 16.3728 210.787 16.4833C210.73 16.5943 210.723 16.7214 210.766 16.8652L212.278 21.8617L211.821 22L206.576 18.6846L206.49 18.7111L207.605 22.3981C207.649 22.5419 207.723 22.6443 207.83 22.7053C207.936 22.7668 208.082 22.7817 208.267 22.7497L208.357 23.0479L206.883 23.4934L206.793 23.1951C206.958 23.1209 207.07 23.0283 207.127 22.9174C207.185 22.8069 207.191 22.6793 207.148 22.5355L205.88 18.3428C205.819 18.1623 205.736 18.0429 205.63 17.9844C205.525 17.926 205.393 17.9264 205.235 17.9861L205.146 17.6879Z" fill="#F5F5F5"/>
    <path d="M235.975 22.0699L236.145 22.4735C235.601 22.7018 235.117 22.8358 234.695 22.8751C234.273 22.9139 233.864 22.8746 233.467 22.7556C232.57 22.4872 231.929 21.9803 231.544 21.2353C231.16 20.4907 231.097 19.6868 231.355 18.8245C231.615 17.9566 232.101 17.3281 232.813 16.9389C233.525 16.5498 234.289 16.4773 235.105 16.7218C235.278 16.7734 235.436 16.8314 235.579 16.8954C235.723 16.9594 235.872 17.0388 236.025 17.1331C236.156 17.2206 236.26 17.2846 236.339 17.3264C236.417 17.3678 236.491 17.3964 236.562 17.4113C236.583 17.4237 236.612 17.4279 236.647 17.4232C236.683 17.4185 236.729 17.407 236.785 17.3878C236.798 17.3857 236.812 17.381 236.827 17.3733C236.842 17.3656 236.857 17.358 236.871 17.3507L237.182 17.4437L236.772 18.8121L236.462 18.7191C236.435 18.3914 236.295 18.0846 236.042 17.7983C235.79 17.512 235.48 17.3132 235.111 17.2031C234.979 17.1634 234.841 17.1433 234.697 17.1425C234.553 17.1416 234.402 17.1655 234.243 17.2142C233.92 17.3102 233.648 17.5013 233.428 17.7876C233.207 18.0739 232.984 18.5962 232.757 19.3532C232.515 20.1605 232.488 20.7954 232.675 21.2579C232.862 21.7204 233.275 22.0477 233.913 22.2389C234.212 22.3285 234.528 22.3613 234.861 22.3374C235.194 22.3131 235.565 22.2239 235.975 22.0699Z" fill="#F5F5F5"/>
    <path d="M239.06 24.3459C239.187 24.3792 239.328 24.3728 239.483 24.3262C239.639 24.2797 239.799 24.2042 239.964 24.0997L243.392 21.8156C243.461 21.7691 243.523 21.7132 243.578 21.6483C243.633 21.5835 243.69 21.5054 243.751 21.4132C243.785 21.3531 243.775 21.2904 243.719 21.2251C243.664 21.1598 243.581 21.1013 243.472 21.051L243.628 20.7817C243.85 20.8901 244.062 20.9584 244.264 20.9861C244.467 21.0134 244.66 21.0006 244.844 20.9473L245.124 21.1099L244.782 26.397C244.755 26.7417 244.754 27.0225 244.777 27.2397C244.8 27.4569 244.862 27.6344 244.962 27.7726L244.806 28.0419L242.579 26.7494L242.735 26.4798C242.857 26.5574 242.983 26.577 243.112 26.5386C243.242 26.5007 243.342 26.4217 243.411 26.3018C243.422 26.2822 243.435 26.2404 243.447 26.1772C243.459 26.1145 243.469 26.065 243.476 26.0287L243.517 25.4019L241.033 23.9601L240.574 24.2844C240.343 24.444 240.235 24.5998 240.251 24.7521C240.266 24.9044 240.378 25.0644 240.586 25.2321L240.43 25.5018L238.904 24.616L239.06 24.3459ZM243.694 22.1911L241.515 23.6683L241.498 23.6982L243.522 24.8733L243.535 24.8507L243.725 22.209L243.694 22.1911Z" fill="#F5F5F5"/>
    <path d="M251.404 25.3167L251.667 25.5633C251.692 25.6503 251.731 25.7297 251.783 25.8022C251.834 25.8743 251.908 25.9554 252.004 26.0459L254.999 28.8543C255.078 28.9367 255.158 29.0011 255.238 29.0481C255.317 29.095 255.407 29.1342 255.509 29.1662L255.765 29.4065L254.699 30.5432L254.463 30.3213C254.57 29.9787 254.596 29.6685 254.54 29.3907C254.484 29.1125 254.342 28.8667 254.114 28.6529L253.681 28.2463L250.376 31.7695C250.273 31.8706 250.222 31.9713 250.223 32.0711C250.224 32.171 250.272 32.293 250.367 32.4377L250.154 32.6651L248.519 31.1316L248.732 30.9042C248.899 30.9895 249.026 31.0275 249.113 31.0181C249.201 31.0087 249.293 30.9515 249.391 30.8461L252.696 27.3229L252.329 26.9782C252.053 26.7196 251.772 26.5647 251.486 26.5144C251.2 26.464 250.896 26.5178 250.576 26.6752L250.339 26.4534L251.404 25.3167Z" fill="#F5F5F5"/>
    <path d="M259.978 34.9748L259.718 35.1468C259.627 35.0409 259.524 34.9778 259.41 34.9565C259.295 34.9351 259.178 34.9641 259.058 35.0439L257.47 36.0953L259.2 38.7079L260.787 37.6565C260.903 37.5802 260.975 37.4876 261.003 37.3788C261.031 37.27 261.016 37.1492 260.956 37.0161L261.215 36.8441L262.453 38.7135L262.193 38.8854C262.084 38.763 261.976 38.696 261.868 38.6849C261.76 38.6733 261.648 38.7062 261.533 38.7826L257.823 41.239C257.703 41.3188 257.63 41.3995 257.604 41.481C257.579 41.5625 257.595 41.6952 257.655 41.8791L257.396 42.051L256.163 40.1894L256.422 40.0174C256.565 40.139 256.68 40.2047 256.767 40.2158C256.853 40.2265 256.957 40.1924 257.078 40.1126L258.817 38.9605L257.087 36.3487L255.348 37.5004C255.224 37.575 255.151 37.6608 255.129 37.7585C255.107 37.8558 255.126 37.9855 255.185 38.1481L254.925 38.32L253.688 36.4507L253.948 36.2788C254.083 36.3901 254.197 36.4541 254.287 36.4699C254.377 36.4861 254.482 36.4541 254.603 36.3743L258.312 33.9179C258.428 33.8415 258.498 33.7464 258.523 33.6324C258.548 33.5189 258.534 33.4003 258.48 33.2774L258.74 33.1055L259.978 34.9748Z" fill="#F5F5F5"/>
    <path d="M265.854 46.233C266.155 47.0813 266.12 47.8946 265.751 48.6724C265.38 49.4503 264.782 49.9858 263.955 50.2793C263.139 50.5686 262.346 50.5302 261.576 50.1637C260.806 49.7968 260.269 49.1836 259.964 48.3238C259.657 47.4585 259.687 46.6418 260.055 45.8746C260.422 45.1074 261.014 44.5788 261.83 44.2895C262.655 43.9904 263.454 44.0266 264.229 44.3978C265.004 44.7686 265.545 45.3805 265.854 46.233ZM265.421 46.3862C265.207 45.7999 264.858 45.459 264.374 45.3634C263.89 45.2679 263.208 45.3792 262.329 45.6975C261.454 46.0082 260.86 46.3508 260.549 46.7259C260.238 47.1005 260.187 47.5818 260.396 48.1702C260.603 48.7526 260.945 49.0931 261.424 49.1909C261.902 49.2886 262.58 49.1819 263.456 48.8713C264.336 48.5585 264.935 48.2125 265.25 47.8331C265.566 47.4538 265.623 46.9708 265.421 46.3862Z" fill="#F5F5F5"/>
    <path d="M267.901 54.167L268.154 56.4127L267.844 56.4476C267.803 56.2953 267.737 56.1895 267.643 56.1306C267.549 56.0717 267.411 56.0525 267.227 56.0734L262.539 56.6013L262.767 58.6319C262.804 58.96 262.936 59.2395 263.162 59.4707C263.389 59.702 263.663 59.8296 263.985 59.8535L264.021 60.1756L262.499 60.3472L261.88 54.845L262.19 54.81C262.218 54.9576 262.28 55.0656 262.378 55.133C262.476 55.2004 262.619 55.2265 262.81 55.2115L267.076 54.7315C267.254 54.7114 267.381 54.6624 267.457 54.5843C267.532 54.5062 267.577 54.3791 267.592 54.202L267.901 54.167Z" fill="#F5F5F5"/>
    <path d="M268.477 64.3968L268.329 66.6335L268.018 66.613C268.005 66.468 267.959 66.3536 267.881 66.27C267.803 66.1864 267.668 66.1415 267.478 66.1351L263.193 65.8514C262.998 65.8326 262.856 65.8591 262.767 65.9316C262.679 66.0037 262.621 66.1113 262.594 66.2538L262.283 66.2333L262.431 63.9966L262.742 64.0171C262.745 64.1557 262.786 64.268 262.868 64.355C262.948 64.4416 263.087 64.4911 263.283 64.5043L267.567 64.7881C267.757 64.7945 267.898 64.7616 267.99 64.69C268.082 64.6178 268.141 64.5133 268.167 64.3768L268.477 64.3968Z" fill="#F5F5F5"/>
    <path d="M261.759 75.4966L261.362 75.6835C261.112 75.1485 260.959 74.671 260.902 74.2511C260.845 73.8309 260.869 73.4204 260.971 73.0189C261.203 72.1117 261.684 71.4508 262.412 71.036C263.14 70.6213 263.941 70.5257 264.813 70.7484C265.691 70.9729 266.339 71.4328 266.757 72.1279C267.175 72.823 267.278 73.5838 267.067 74.4094C267.023 74.584 266.971 74.7444 266.913 74.8903C266.855 75.0363 266.782 75.1881 266.694 75.3452C266.612 75.4792 266.552 75.5858 266.514 75.666C266.475 75.7458 266.45 75.8218 266.438 75.893C266.426 75.9148 266.423 75.9434 266.429 75.9792C266.435 76.0146 266.448 76.0599 266.47 76.1149C266.473 76.1281 266.478 76.1418 266.486 76.1563C266.495 76.1708 266.503 76.1849 266.511 76.1998L266.431 76.5139L265.047 76.1602L265.127 75.8461C265.453 75.8056 265.755 75.6532 266.03 75.3895C266.306 75.1259 266.492 74.8075 266.587 74.4355C266.621 74.3015 266.636 74.1628 266.631 74.019C266.626 73.8752 266.596 73.725 266.541 73.5684C266.432 73.2493 266.23 72.9856 265.935 72.7769C265.639 72.5683 265.109 72.366 264.343 72.1702C263.526 71.9615 262.891 71.9602 262.436 72.1659C261.981 72.3716 261.672 72.7974 261.506 73.443C261.429 73.7451 261.409 74.0621 261.446 74.3941C261.484 74.726 261.588 75.0934 261.759 75.4966Z" fill="#F5F5F5"/>
</svg>
