<?xml version="1.0" standalone="no"?>
<!DOCTYPE svg PUBLIC "-//W3C//DTD SVG 20010904//EN"
 "http://www.w3.org/TR/2001/REC-SVG-20010904/DTD/svg10.dtd">
<svg version="1.0" xmlns="http://www.w3.org/2000/svg"
 width="512.000000pt" height="512.000000pt" viewBox="0 0 512.000000 512.000000"
 preserveAspectRatio="xMidYMid meet">
<metadata>
Created by potrace 1.14, written by Peter Selinger 2001-2017
</metadata>
<g transform="translate(0.000000,512.000000) scale(0.100000,-0.100000)"
fill="#000000" stroke="none">
<path d="M2248 5045 c-566 -78 -1062 -321 -1458 -715 -378 -377 -613 -839
-706 -1390 -22 -129 -30 -504 -15 -641 67 -583 315 -1101 721 -1509 404 -405
929 -656 1505 -720 132 -15 443 -12 569 5 571 76 1070 319 1466 715 379 379
613 840 706 1390 22 129 30 504 15 641 -67 583 -315 1101 -721 1509 -404 405
-929 656 -1505 720 -124 14 -460 11 -577 -5z m388 -1166 l-7 -42 46 6 45 7 0
-33 c0 -32 0 -32 -45 -29 -49 4 -50 3 -36 -46 10 -32 9 -32 -26 -32 l-35 0 7
41 7 41 -41 -4 c-40 -3 -41 -3 -41 28 0 32 0 32 42 27 l41 -6 -7 41 c-6 42 -6
42 25 42 31 0 32 0 25 -41z m-273 -224 c31 -8 74 -26 96 -39 37 -24 101 -92
101 -108 0 -5 -19 -8 -43 -8 -34 0 -49 6 -68 26 -80 85 -212 92 -386 18 -254
-106 -340 -124 -609 -124 -230 0 -244 3 -244 44 l0 31 232 0 c271 0 303 6 519
92 204 81 294 96 402 68z m676 4 c36 -5 125 -35 199 -65 221 -90 267 -99 540
-99 l232 0 0 -32 c0 -30 -2 -32 -45 -39 -25 -3 -138 -4 -252 -1 -245 6 -300
17 -498 101 -137 58 -232 80 -300 69 -49 -7 -111 -37 -146 -70 -21 -19 -35
-24 -68 -21 l-41 3 25 37 c33 49 101 95 167 112 65 18 104 19 187 5z m971
-444 l0 -35 -1400 0 -1400 0 0 35 0 35 1400 0 1400 0 0 -35z m-1683 -361 c76
-48 74 -160 -3 -211 -16 -10 -54 -18 -104 -21 l-79 -5 -3 -61 c-3 -58 -4 -61
-28 -61 l-25 0 -3 145 c-4 188 9 216 108 234 39 6 113 -4 137 -20z m-879 -6
c11 -13 46 -94 78 -181 53 -147 56 -159 40 -175 -14 -14 -18 -14 -30 -2 -8 8
-23 38 -33 65 l-19 50 -93 0 -93 0 -23 -60 c-22 -61 -42 -77 -63 -52 -9 11 1
50 47 176 32 89 67 171 76 181 26 28 85 27 113 -2z m473 -1 c59 -40 74 -95 41
-156 -27 -51 -73 -71 -159 -71 l-72 0 -3 -67 c-3 -60 -5 -68 -23 -68 -27 0
-33 30 -34 173 -1 178 22 211 150 212 53 0 73 -5 100 -23z m637 -128 c2 -120
5 -149 19 -160 9 -8 52 -16 102 -19 78 -4 86 -7 86 -25 0 -18 -8 -20 -97 -23
-95 -3 -98 -2 -130 27 l-33 29 -3 147 c-2 81 -1 153 2 162 4 8 15 13 28 11 23
-3 23 -6 26 -149z m342 -39 l0 -190 -25 0 -25 0 0 190 0 190 25 0 25 0 0 -190z
m425 165 c0 -19 -8 -20 -107 -23 l-108 -3 0 -54 0 -54 93 -3 c84 -3 92 -5 92
-23 0 -18 -8 -20 -92 -23 l-93 -3 0 -43 c0 -60 15 -70 124 -76 83 -5 91 -7 91
-25 0 -19 -8 -20 -103 -23 l-103 -3 -35 35 -34 34 0 149 c0 82 3 153 7 157 4
3 66 5 137 4 123 -3 131 -4 131 -23z m374 5 c60 -30 85 -80 85 -165 1 -82 -20
-134 -68 -168 -27 -19 -46 -22 -143 -25 l-113 -4 0 191 0 191 100 0 c81 0 109
-4 139 -20z m-2306 -473 c18 -8 38 -22 46 -31 12 -15 12 -19 -2 -33 -14 -14
-19 -14 -52 7 -27 17 -44 21 -70 16 -40 -8 -49 -19 -41 -50 4 -17 27 -33 81
-59 117 -57 143 -117 81 -185 -34 -36 -36 -37 -104 -37 -77 0 -124 23 -130 62
-4 30 27 38 53 13 62 -58 181 -18 145 50 -6 11 -42 36 -79 55 -83 41 -115 77
-107 119 8 37 23 56 61 72 39 17 78 17 118 1z m396 -12 c25 -25 -2 -39 -74
-40 -57 0 -68 -3 -92 -28 -26 -25 -28 -34 -28 -103 0 -73 1 -77 34 -106 32
-28 38 -30 92 -25 45 4 61 1 71 -10 32 -39 -77 -69 -149 -42 -152 57 -150 309
2 365 47 17 122 11 144 -11z m145 19 c23 -9 24 -372 1 -380 -8 -4 -22 -1 -30
6 -12 10 -15 44 -15 184 0 120 4 176 12 184 14 14 12 14 32 6z m376 -9 c10
-12 10 -18 0 -30 -9 -11 -34 -15 -96 -15 l-84 0 0 -50 0 -50 69 0 c72 0 97
-13 85 -44 -5 -13 -21 -16 -80 -16 l-74 0 0 -36 c0 -65 11 -74 94 -74 81 0
110 -16 86 -45 -17 -21 -140 -20 -180 0 -51 26 -60 58 -60 213 0 94 4 142 12
150 19 19 212 16 228 -3z m172 1 c7 -7 54 -70 103 -139 l90 -126 5 137 c5 129
6 137 25 137 19 0 20 -7 20 -190 0 -243 -1 -243 -135 -56 l-95 133 -3 -131
c-2 -106 -6 -133 -17 -138 -9 -3 -22 0 -30 7 -12 10 -15 44 -15 184 0 120 4
176 12 184 15 15 24 15 40 -2z m606 -9 c7 -8 10 -21 6 -30 -5 -14 -15 -16 -58
-11 -66 8 -112 -13 -132 -61 -28 -69 -10 -158 40 -191 20 -13 39 -15 81 -11
41 4 57 2 67 -10 10 -13 8 -19 -12 -35 -33 -26 -127 -22 -168 9 -69 51 -96
141 -68 235 17 61 47 93 103 114 43 16 120 11 141 -9z m351 9 c6 -7 9 -21 5
-30 -5 -13 -22 -16 -95 -16 l-89 0 0 -50 0 -50 68 0 c75 0 96 -9 90 -36 -3
-16 -14 -19 -81 -22 l-77 -3 0 -39 c0 -57 19 -70 99 -70 72 0 97 -13 85 -44
-5 -13 -21 -16 -78 -16 -89 0 -136 22 -153 71 -15 42 -17 273 -3 300 10 17 22
19 114 19 76 0 107 -4 115 -14z m274 1 c18 -8 38 -22 46 -31 12 -15 12 -19 -2
-33 -14 -14 -19 -14 -52 7 -27 17 -44 21 -70 16 -40 -8 -49 -19 -41 -50 4 -15
28 -34 82 -60 117 -59 142 -116 80 -184 -34 -36 -36 -37 -104 -37 -77 0 -124
23 -130 62 -4 30 27 38 53 13 62 -58 181 -18 145 50 -6 11 -42 36 -79 55 -83
41 -115 77 -107 119 8 37 23 56 61 72 39 17 78 17 118 1z m-2248 -507 c0 -24
-2 -25 -85 -30 -47 -3 -91 -9 -97 -13 -7 -5 -13 -26 -13 -48 l0 -39 78 0 c85
0 106 -8 100 -36 -3 -17 -14 -19 -91 -22 l-87 -3 0 -72 c0 -83 -8 -102 -39
-92 -20 6 -21 12 -21 151 0 210 19 236 175 231 78 -2 80 -3 80 -27z m299 8
c29 -27 142 -329 132 -354 -3 -9 -15 -14 -27 -12 -16 2 -27 18 -43 63 l-21 60
-92 3 -92 3 -22 -62 c-24 -64 -42 -81 -64 -58 -11 12 -5 39 44 172 32 91 67
169 80 183 29 30 72 31 105 2z m466 6 c32 -13 40 -21 38 -38 -2 -16 -9 -20
-28 -18 -14 2 -51 4 -82 5 -50 2 -61 -1 -85 -25 -21 -22 -27 -39 -31 -86 -7
-104 40 -160 126 -148 98 12 97 12 100 -11 4 -26 -20 -41 -80 -49 -93 -13
-174 38 -197 123 -48 172 84 309 239 247z m190 -125 c5 -149 10 -162 68 -186
25 -10 42 -11 71 -3 68 18 75 34 81 189 5 128 6 136 25 136 19 0 20 -8 23
-140 2 -125 0 -143 -18 -173 -29 -48 -75 -72 -138 -72 -61 0 -99 17 -136 60
-25 31 -26 35 -26 174 0 79 3 146 7 150 4 4 14 5 23 4 12 -3 16 -27 20 -139z
m428 129 c8 -8 12 -57 12 -154 0 -104 3 -144 13 -152 7 -6 56 -13 108 -14 93
-3 94 -3 94 -28 0 -25 -1 -25 -89 -28 -99 -3 -136 7 -166 46 -18 22 -20 41
-20 177 0 83 3 155 7 158 10 11 28 8 41 -5z m560 -15 c3 -21 -1 -22 -70 -25
l-73 -3 -3 -163 c-2 -133 -5 -164 -17 -169 -9 -3 -22 0 -30 7 -12 10 -15 43
-15 171 l0 159 -69 0 c-70 0 -88 8 -77 36 5 12 33 14 178 12 170 -3 173 -3
176 -25z m156 -58 c31 -47 60 -83 65 -81 4 3 32 42 61 86 35 54 59 80 72 80
37 0 28 -30 -41 -133 -69 -104 -70 -106 -73 -178 -3 -66 -5 -74 -23 -74 -18 0
-21 8 -25 75 -5 73 -7 78 -74 177 -69 101 -78 133 -38 133 13 0 38 -29 76 -85z"/>
<path d="M2162 2804 c-18 -12 -22 -25 -22 -70 l0 -54 70 0 c62 0 74 3 95 25
14 13 25 34 25 45 0 12 -11 32 -25 45 -19 20 -34 25 -72 25 -28 0 -58 -7 -71
-16z"/>
<path d="M1365 2793 c-4 -10 -15 -42 -25 -70 l-19 -53 70 0 c79 0 75 -7 40 85
-20 54 -52 72 -66 38z"/>
<path d="M1780 2813 c-41 -8 -50 -22 -50 -79 l0 -54 75 0 c83 0 115 18 115 64
0 52 -65 84 -140 69z"/>
<path d="M3514 2807 c-2 -7 -3 -69 -2 -138 l3 -124 57 -3 c76 -4 124 17 143
62 35 82 7 182 -55 203 -49 17 -139 17 -146 0z"/>
<path d="M1693 1828 c-12 -16 -43 -100 -43 -116 0 -8 21 -12 66 -12 59 0 65 2
59 18 -4 9 -16 41 -27 70 -19 51 -37 64 -55 40z"/>
</g>
</svg>
