<?xml version="1.0" standalone="no"?>
<!DOCTYPE svg PUBLIC "-//W3C//DTD SVG 20010904//EN"
 "http://www.w3.org/TR/2001/REC-SVG-20010904/DTD/svg10.dtd">
<svg version="1.0" xmlns="http://www.w3.org/2000/svg"
 width="512.000000pt" height="512.000000pt" viewBox="0 0 512.000000 512.000000"
 preserveAspectRatio="xMidYMid meet">
<metadata>
Created by potrace 1.14, written by Peter Selinger 2001-2017
</metadata>
<g transform="translate(0.000000,512.000000) scale(0.100000,-0.100000)"
fill="#000000" stroke="none">
<path d="M0 2560 l0 -2560 2560 0 2560 0 0 2560 0 2560 -2560 0 -2560 0 0
-2560z m2579 1188 c-14 -49 -12 -51 36 -46 l45 6 0 -38 0 -38 -45 6 c-48 5
-50 3 -36 -46 l10 -32 -41 0 -40 0 7 41 7 42 -41 -6 -41 -5 0 37 0 37 41 -4
41 -4 -7 41 -7 41 40 0 41 0 -10 -32z m-250 -243 c69 -24 148 -90 167 -139 5
-13 -2 -16 -43 -16 -42 0 -54 5 -78 30 -72 75 -214 81 -370 16 -269 -112 -350
-130 -610 -130 -99 0 -197 3 -217 7 -35 7 -38 11 -38 42 0 19 3 36 8 38 4 2
66 0 137 -5 155 -10 329 3 434 32 41 12 123 41 183 66 60 24 132 51 161 59 70
19 213 19 266 0z m781 -29 c168 -67 283 -105 355 -117 74 -13 401 -16 454 -4
31 7 31 6 31 -33 0 -48 1 -48 -170 -57 -145 -8 -326 7 -438 37 -42 11 -135 45
-207 76 -120 51 -137 56 -221 60 -81 4 -95 2 -140 -21 -27 -14 -58 -34 -68
-46 -14 -16 -31 -21 -68 -21 l-49 0 15 29 c23 44 104 110 155 126 32 10 79 14
151 12 94 -3 115 -7 200 -41z m840 -406 l0 -40 -1405 0 -1405 0 0 33 c0 19 3
37 7 40 3 4 636 7 1405 7 l1398 0 0 -40z m-2566 -365 c13 -13 49 -97 81 -185
54 -151 57 -163 41 -178 -24 -25 -46 -6 -71 62 l-20 57 -90 -3 -90 -3 -19 -55
c-11 -30 -25 -58 -30 -62 -18 -13 -35 -9 -45 10 -13 26 99 330 134 360 35 30
80 29 109 -3z m465 7 c38 -20 71 -73 71 -112 0 -39 -33 -92 -71 -112 -24 -13
-55 -18 -106 -18 l-73 0 0 -64 c0 -57 -3 -65 -21 -71 -39 -13 -44 8 -44 170
l0 154 29 30 c32 33 46 38 126 40 37 1 67 -5 89 -17z m406 4 c63 -26 89 -128
48 -184 -31 -43 -79 -62 -155 -62 l-68 0 0 -60 c0 -65 -18 -88 -53 -69 -15 9
-17 28 -17 155 0 160 8 192 58 218 35 19 142 20 187 2z m239 -2 c3 -9 6 -75 6
-147 0 -73 5 -139 10 -147 7 -11 34 -16 96 -20 70 -4 89 -9 98 -23 9 -15 7
-21 -9 -33 -15 -12 -39 -15 -101 -12 -144 7 -164 37 -164 241 0 136 5 157 41
157 9 0 20 -7 23 -16z m344 -180 c2 -170 1 -192 -14 -198 -39 -15 -44 8 -44
199 0 100 3 185 7 189 4 4 16 6 28 4 19 -3 20 -10 23 -194z m428 174 c11 -36
-19 -48 -123 -48 l-93 0 0 -45 0 -44 86 -3 c68 -2 89 -7 97 -20 8 -12 7 -21
-2 -32 -10 -12 -33 -16 -97 -16 l-84 0 0 -40 c0 -51 17 -60 118 -60 60 0 83
-4 93 -16 9 -11 10 -20 2 -32 -8 -14 -28 -17 -106 -17 -104 0 -137 14 -164 66
-17 33 -18 300 -1 317 8 8 54 12 139 12 122 0 128 -1 135 -22z m345 11 c77
-26 112 -84 113 -184 1 -88 -29 -148 -88 -178 -41 -22 -172 -35 -220 -23 l-26
6 0 189 c0 103 3 191 7 194 11 11 178 8 214 -4z m-2255 -497 c29 -15 36 -36
19 -58 -13 -18 -15 -18 -59 5 -57 28 -101 19 -101 -20 0 -20 13 -31 68 -60 94
-49 122 -79 122 -129 0 -32 -7 -47 -33 -73 -31 -30 -36 -32 -106 -32 -85 0
-131 23 -131 66 0 32 43 38 70 9 36 -40 135 -18 135 30 0 23 -24 42 -95 78
-76 38 -99 63 -99 108 0 82 119 125 210 76z m2320 0 c29 -15 36 -36 19 -58
-13 -18 -15 -18 -59 5 -57 28 -101 19 -101 -20 0 -20 13 -31 68 -60 94 -49
122 -79 122 -129 0 -32 -7 -47 -33 -73 -31 -30 -36 -32 -106 -32 -85 0 -131
23 -131 66 0 32 43 38 70 9 25 -28 95 -28 120 0 29 32 7 64 -72 104 -84 42
-107 66 -107 112 0 82 119 125 210 76z m-1969 12 c26 -7 38 -33 23 -48 -6 -6
-40 -11 -75 -11 -57 0 -68 -3 -92 -27 -23 -23 -28 -38 -31 -90 -6 -107 43
-153 150 -141 54 6 70 -15 37 -48 -18 -18 -30 -21 -85 -17 -44 3 -72 10 -91
24 -67 50 -95 136 -74 227 14 61 40 99 83 120 33 16 113 22 155 11z m178 -189
c0 -175 -1 -190 -18 -193 -42 -8 -47 11 -47 188 0 93 3 176 6 185 4 10 16 15
33 13 l26 -3 0 -190z m363 168 c-3 -28 -3 -28 -90 -31 l-88 -3 0 -49 0 -50 74
0 c56 0 75 -4 80 -15 13 -35 -4 -45 -80 -45 l-74 0 0 -39 c0 -52 18 -64 103
-70 69 -6 72 -7 72 -31 0 -24 -2 -25 -77 -28 -145 -5 -168 26 -168 227 0 71 3
136 6 145 5 13 26 16 126 16 l119 0 -3 -27z m263 -104 l94 -131 5 129 5 128
25 0 25 0 0 -190 c0 -187 0 -190 -22 -193 -17 -3 -39 21 -115 128 l-93 131 -2
-108 c-4 -138 -7 -153 -37 -153 -13 0 -27 7 -30 16 -8 20 -8 338 0 358 3 9 16
16 28 16 17 0 45 -31 117 -131z m496 125 c25 -7 35 -27 26 -50 -4 -12 -16 -14
-58 -9 -91 12 -145 -36 -145 -127 0 -93 65 -151 145 -129 57 16 88 -22 43 -53
-26 -18 -103 -21 -145 -5 -133 50 -149 285 -24 357 36 21 110 29 158 16z m377
-10 c13 -33 -13 -44 -100 -44 l-84 0 0 -50 0 -49 78 -3 c75 -3 77 -4 77 -28 0
-24 -2 -25 -78 -28 l-78 -3 3 -42 c4 -52 28 -67 114 -67 48 0 63 -4 68 -16 12
-31 -13 -44 -84 -44 -142 0 -162 24 -168 197 -3 67 -1 138 2 158 l7 35 118 0
c101 0 120 -3 125 -16z m-1986 -473 c8 -4 12 -19 10 -32 -3 -23 -8 -24 -88
-29 -47 -3 -91 -9 -97 -13 -7 -5 -13 -26 -13 -47 l0 -39 88 -3 c85 -3 87 -3
87 -28 0 -25 -2 -25 -87 -28 l-88 -3 0 -72 c0 -75 -9 -97 -42 -97 -26 0 -30
30 -26 189 3 136 4 141 29 167 15 14 42 30 60 34 46 11 151 12 167 1z m286 -2
c14 -7 32 -27 41 -45 36 -77 115 -310 109 -326 -3 -11 -15 -18 -29 -18 -19 0
-27 10 -44 55 -12 31 -21 60 -21 66 0 6 -35 9 -91 7 l-92 -3 -21 -60 c-18 -52
-25 -60 -46 -60 -18 0 -26 6 -28 21 -3 23 90 294 114 332 25 38 66 50 108 31z
m499 -16 c20 -10 27 -20 25 -36 -2 -18 -9 -21 -33 -19 -108 11 -134 8 -162
-20 -51 -51 -41 -187 16 -218 25 -13 92 -13 127 0 30 12 54 -1 54 -30 0 -23
-66 -50 -120 -50 -110 0 -173 71 -174 195 -1 111 41 173 131 194 44 10 96 4
136 -16z m165 15 c8 -8 12 -51 12 -129 0 -65 4 -129 10 -143 17 -47 90 -69
145 -44 45 20 55 55 55 191 0 106 2 126 16 131 37 14 44 -11 44 -154 0 -126
-2 -140 -23 -170 -32 -49 -79 -73 -142 -73 -63 0 -110 24 -142 73 -21 30 -23
44 -23 176 0 137 2 149 31 153 3 1 10 -4 17 -11z m436 -4 c13 -13 16 -42 16
-159 0 -121 2 -144 16 -149 9 -3 50 -6 93 -6 84 0 116 -13 109 -46 -3 -17 -13
-19 -103 -22 -86 -2 -105 1 -133 18 -18 11 -37 32 -42 46 -6 14 -10 90 -10
169 0 127 2 145 18 154 9 6 18 11 19 11 1 0 9 -7 17 -16z m564 -13 c5 -32 -12
-41 -85 -41 l-62 0 -3 -156 c-3 -134 -5 -158 -20 -167 -12 -8 -21 -7 -32 2
-13 11 -16 39 -16 167 l0 154 -63 0 c-36 0 -68 5 -75 12 -16 16 -15 45 1 51 6
3 89 5 182 4 l170 -2 3 -24z m148 -56 c32 -47 60 -85 63 -85 3 1 31 38 61 83
56 83 82 100 103 66 8 -13 -5 -37 -59 -115 -68 -98 -68 -99 -74 -179 -5 -77
-6 -80 -30 -80 -24 0 -25 3 -28 74 -3 73 -4 75 -72 176 -39 56 -70 106 -70
112 0 13 22 33 37 33 7 0 38 -38 69 -85z m436 -106 c60 -43 61 -137 2 -188
-109 -96 -262 39 -181 160 39 59 118 71 179 28z"/>
<path d="M1310 2658 c0 -2 -11 -32 -24 -66 l-25 -62 64 0 64 0 -22 62 c-14 40
-28 64 -40 66 -9 2 -17 2 -17 0z"/>
<path d="M1682 2648 c-7 -7 -12 -36 -12 -66 l0 -54 69 4 c79 4 111 24 111 68
0 43 -28 60 -96 60 -33 0 -65 -5 -72 -12z"/>
<path d="M2110 2658 c-21 -11 -25 -22 -28 -66 l-3 -52 70 0 c58 0 75 4 91 20
25 25 25 51 2 80 -22 27 -95 37 -132 18z"/>
<path d="M3450 2529 l0 -131 75 4 c65 3 78 7 102 30 51 51 41 187 -16 218 -11
5 -51 10 -90 10 l-71 0 0 -131z"/>
<path d="M1633 1678 c-14 -18 -43 -95 -43 -113 0 -12 14 -15 61 -15 68 0 66
-6 29 90 -19 48 -31 58 -47 38z"/>
</g>
</svg>
