<?xml version="1.0" encoding="UTF-8"?>
<!DOCTYPE svg PUBLIC "-//W3C//DTD SVG 1.1//EN" "http://www.w3.org/Graphics/SVG/1.1/DTD/svg11.dtd">
<!-- Creator: CorelDRAW 2020 -->
<svg xmlns="http://www.w3.org/2000/svg" xml:space="preserve" width="560px" height="380px" version="1.1" style="shape-rendering:geometricPrecision; text-rendering:geometricPrecision; image-rendering:optimizeQuality; fill-rule:evenodd; clip-rule:evenodd"
viewBox="0 0 560 380"
 xmlns:xlink="http://www.w3.org/1999/xlink"
 xmlns:xodm="http://www.corel.com/coreldraw/odm/2003">
 <defs>
  <style type="text/css">
   <![CDATA[
    .str1 {stroke:#72348A;stroke-width:6.25;stroke-miterlimit:22.9256}
    .str0 {stroke:#8EC11C;stroke-width:6.25;stroke-miterlimit:22.9256}
    .fil2 {fill:#FEFEFE}
    .fil0 {fill:#69737C}
    .fil3 {fill:#69737C;fill-rule:nonzero}
    .fil5 {fill:#72348A;fill-rule:nonzero}
    .fil4 {fill:#8EC11C;fill-rule:nonzero}
    .fil1 {fill:#95C33F;fill-rule:nonzero}
   ]]>
  </style>
 </defs>
 <g id="Слой_x0020_1">
  <metadata id="CorelCorpID_0Corel-Layer"/>
  <g id="_1826196336">
   <path class="fil0" d="M8.32 15.98c2.42,0 4.39,1.96 4.39,4.39 0,2.43 -1.97,4.39 -4.39,4.39 -2.43,0 -4.4,-1.96 -4.4,-4.39 0,-2.43 1.97,-4.39 4.4,-4.39z"/>
   <path class="fil0" d="M8.32 62.08c2.42,0 4.39,1.96 4.39,4.39 0,2.43 -1.97,4.39 -4.39,4.39 -2.43,0 -4.4,-1.96 -4.4,-4.39 0,-2.43 1.97,-4.39 4.4,-4.39z"/>
   <path class="fil0" d="M8.32 108.17c2.42,0 4.39,1.97 4.39,4.4 0,2.42 -1.97,4.39 -4.39,4.39 -2.43,0 -4.4,-1.97 -4.4,-4.39 0,-2.43 1.97,-4.4 4.4,-4.4z"/>
   <path class="fil0" d="M8.32 154.27c2.42,0 4.39,1.97 4.39,4.4 0,2.42 -1.97,4.39 -4.39,4.39 -2.43,0 -4.4,-1.97 -4.4,-4.39 0,-2.43 1.97,-4.4 4.4,-4.4z"/>
   <path class="fil0" d="M8.32 200.37c2.42,0 4.39,1.97 4.39,4.39 0,2.43 -1.97,4.4 -4.39,4.4 -2.43,0 -4.4,-1.97 -4.4,-4.4 0,-2.42 1.97,-4.39 4.4,-4.39z"/>
   <path class="fil0" d="M8.32 246.47c2.42,0 4.39,1.97 4.39,4.39 0,2.43 -1.97,4.4 -4.39,4.4 -2.43,0 -4.4,-1.97 -4.4,-4.4 0,-2.42 1.97,-4.39 4.4,-4.39z"/>
   <path class="fil0" d="M54.7 15.98c2.43,0 4.39,1.96 4.39,4.39 0,2.43 -1.96,4.39 -4.39,4.39 -2.43,0 -4.39,-1.96 -4.39,-4.39 0,-2.43 1.96,-4.39 4.39,-4.39z"/>
   <path class="fil1" d="M123.16 0.34l329.88 0c28.33,0 54.1,11.59 72.77,30.27 18.68,18.67 30.27,44.44 30.27,72.78l0 173.22c0,28.34 -11.59,54.11 -30.27,72.78 -18.67,18.68 -44.44,30.27 -72.77,30.27l-329.88 0c-28.34,0 -54.1,-11.59 -72.77,-30.27 -18.68,-18.67 -30.27,-44.44 -30.27,-72.78l0 -173.22c0,-28.34 11.59,-54.11 30.27,-72.78 18.67,-18.68 44.43,-30.27 72.77,-30.27zm329.88 2.36l-329.88 0c-27.69,0 -52.86,11.33 -71.1,29.58 -18.25,18.25 -29.58,43.42 -29.58,71.11l0 173.22c0,27.69 11.33,52.86 29.58,71.11 18.24,18.25 43.41,29.58 71.1,29.58l329.88 0c27.68,0 52.86,-11.33 71.1,-29.58 18.25,-18.25 29.58,-43.42 29.58,-71.11l0 -173.22c0,-27.69 -11.33,-52.86 -29.58,-71.11 -18.24,-18.25 -43.42,-29.58 -71.1,-29.58z"/>
   <path class="fil2" d="M453.04 2.7l-329.88 0c-27.69,0 -52.86,11.33 -71.1,29.58 -18.25,18.25 -29.58,43.42 -29.58,71.11l0 173.22c0,27.69 11.33,52.86 29.58,71.11 18.24,18.25 43.41,29.58 71.1,29.58l329.88 0c27.68,0 52.86,-11.33 71.1,-29.58 18.25,-18.25 29.58,-43.42 29.58,-71.11l0 -173.22c0,-27.69 -11.33,-52.86 -29.58,-71.11 -18.24,-18.25 -43.42,-29.58 -71.1,-29.58z"/>
   <path class="fil0" d="M8.32 15.98c2.42,0 4.39,1.96 4.39,4.39 0,2.43 -1.97,4.39 -4.39,4.39 -2.43,0 -4.4,-1.96 -4.4,-4.39 0,-2.43 1.97,-4.39 4.4,-4.39z"/>
   <path class="fil0" d="M8.32 62.08c2.42,0 4.39,1.96 4.39,4.39 0,2.43 -1.97,4.39 -4.39,4.39 -2.43,0 -4.4,-1.96 -4.4,-4.39 0,-2.43 1.97,-4.39 4.4,-4.39z"/>
   <path class="fil0" d="M8.32 108.17c2.42,0 4.39,1.97 4.39,4.4 0,2.42 -1.97,4.39 -4.39,4.39 -2.43,0 -4.4,-1.97 -4.4,-4.39 0,-2.43 1.97,-4.4 4.4,-4.4z"/>
   <path class="fil0" d="M8.32 154.27c2.42,0 4.39,1.97 4.39,4.4 0,2.42 -1.97,4.39 -4.39,4.39 -2.43,0 -4.4,-1.97 -4.4,-4.39 0,-2.43 1.97,-4.4 4.4,-4.4z"/>
   <path class="fil0" d="M8.32 200.37c2.42,0 4.39,1.97 4.39,4.39 0,2.43 -1.97,4.4 -4.39,4.4 -2.43,0 -4.4,-1.97 -4.4,-4.4 0,-2.42 1.97,-4.39 4.4,-4.39z"/>
   <path class="fil0" d="M8.32 246.47c2.42,0 4.39,1.97 4.39,4.39 0,2.43 -1.97,4.4 -4.39,4.4 -2.43,0 -4.4,-1.97 -4.4,-4.4 0,-2.42 1.97,-4.39 4.4,-4.39z"/>
   <path class="fil0" d="M54.7 15.98c2.43,0 4.39,1.96 4.39,4.39 0,2.43 -1.96,4.39 -4.39,4.39 -2.43,0 -4.39,-1.96 -4.39,-4.39 0,-2.43 1.96,-4.39 4.39,-4.39z"/>
   <path class="fil1" d="M123.16 0.34l329.88 0c28.33,0 54.1,11.59 72.77,30.27 18.68,18.67 30.27,44.44 30.27,72.78l0 173.22c0,28.34 -11.59,54.11 -30.27,72.78 -18.67,18.68 -44.44,30.27 -72.77,30.27l-329.88 0c-28.34,0 -54.1,-11.59 -72.77,-30.27 -18.68,-18.67 -30.27,-44.44 -30.27,-72.78l0 -173.22c0,-28.34 11.59,-54.11 30.27,-72.78 18.67,-18.68 44.43,-30.27 72.77,-30.27zm329.88 2.36l-329.88 0c-27.69,0 -52.86,11.33 -71.1,29.58 -18.25,18.25 -29.58,43.42 -29.58,71.11l0 173.22c0,27.69 11.33,52.86 29.58,71.11 18.24,18.25 43.41,29.58 71.1,29.58l329.88 0c27.68,0 52.86,-11.33 71.1,-29.58 18.25,-18.25 29.58,-43.42 29.58,-71.11l0 -173.22c0,-27.69 -11.33,-52.86 -29.58,-71.11 -18.24,-18.25 -43.42,-29.58 -71.1,-29.58z"/>
   <path class="fil2" d="M453.04 2.7l-329.88 0c-27.69,0 -52.86,11.33 -71.1,29.58 -18.25,18.25 -29.58,43.42 -29.58,71.11l0 173.22c0,27.69 11.33,52.86 29.58,71.11 18.24,18.25 43.41,29.58 71.1,29.58l329.88 0c27.68,0 52.86,-11.33 71.1,-29.58 18.25,-18.25 29.58,-43.42 29.58,-71.11l0 -173.22c0,-27.69 -11.33,-52.86 -29.58,-71.11 -18.24,-18.25 -43.42,-29.58 -71.1,-29.58z"/>
   <path class="fil3" d="M267.84 158.33c-0.37,1.18 -1,2.03 -1.89,2.56 -0.78,0.46 -1.8,0.68 -3.08,0.68 -1.85,0 -3.21,-0.5 -4.06,-1.51 -0.89,-1.05 -1.33,-2.76 -1.33,-5.13 0,-2.28 0.4,-3.94 1.22,-4.99 0.86,-1.1 2.25,-1.65 4.17,-1.65 1.28,0 2.3,0.23 3.08,0.69 0.89,0.52 1.52,1.38 1.89,2.55l-1.63 0.77c-0.21,-0.63 -0.55,-1.09 -1.02,-1.37 -0.53,-0.31 -1.3,-0.46 -2.32,-0.46 -1.43,0 -2.39,0.32 -2.9,0.96 -0.49,0.64 -0.74,1.8 -0.74,3.5 0,1.75 0.27,2.94 0.8,3.58 0.5,0.59 1.45,0.89 2.84,0.89 1.02,0 1.79,-0.15 2.32,-0.46 0.47,-0.27 0.81,-0.73 1.02,-1.38l1.63 0.77zm8.75 -10.04c1.86,0 3.21,0.51 4.06,1.53 0.89,1.05 1.33,2.76 1.33,5.11 0,2.37 -0.44,4.08 -1.33,5.13 -0.85,1.01 -2.2,1.51 -4.06,1.51 -1.85,0 -3.21,-0.5 -4.06,-1.51 -0.89,-1.05 -1.33,-2.76 -1.33,-5.13 0,-2.28 0.4,-3.94 1.22,-4.99 0.86,-1.1 2.25,-1.65 4.17,-1.65zm2.85 3.08c-0.52,-0.6 -1.46,-0.9 -2.85,-0.9 -1.43,0 -2.39,0.32 -2.9,0.96 -0.49,0.64 -0.74,1.8 -0.74,3.5 0,1.75 0.27,2.94 0.8,3.58 0.51,0.59 1.45,0.89 2.84,0.89 1.39,0 2.33,-0.3 2.85,-0.89 0.52,-0.64 0.78,-1.83 0.78,-3.58 0,-1.75 -0.26,-2.94 -0.78,-3.56zm7.55 -1.15c0.61,-1.3 1.73,-1.95 3.36,-1.95 1.79,0 3.05,0.93 3.77,2.79 0.67,-1.78 1.97,-2.71 3.9,-2.79 1.72,0 2.97,0.57 3.74,1.71 0.71,1.03 1.06,2.68 1.06,4.93l0 6.37 -1.76 0 0 -6.37c0,-1.74 -0.22,-2.92 -0.65,-3.55 -0.41,-0.61 -1.21,-0.92 -2.39,-0.92 -1.16,0 -1.95,0.28 -2.37,0.85 -0.46,0.63 -0.69,1.84 -0.69,3.62l0 6.37 -1.76 0 0 -6.37c0,-1.74 -0.22,-2.92 -0.65,-3.55 -0.42,-0.61 -1.22,-0.92 -2.41,-0.92 -1.15,0 -1.93,0.28 -2.35,0.85 -0.46,0.62 -0.69,1.8 -0.7,3.53l0 6.46 -1.75 0 0 -12.74 1.65 0 0 1.68zm24.59 11.33c-1.83,0 -3.04,-0.63 -3.65,-1.89l0 6.71 -1.75 0 0 -17.83 1.66 0 0 1.86c0.66,-1.42 1.91,-2.13 3.74,-2.13 1.86,0 3.21,0.51 4.06,1.52 0.88,1.06 1.33,2.76 1.33,5.12 0,2.28 -0.41,3.95 -1.23,5 -0.86,1.09 -2.25,1.64 -4.16,1.64zm-3.65 -6.56c0.02,1.7 0.28,2.87 0.81,3.49 0.5,0.6 1.45,0.9 2.84,0.9 1.42,0 2.39,-0.33 2.89,-0.97 0.5,-0.62 0.74,-1.79 0.74,-3.5 0,-1.75 -0.26,-2.94 -0.79,-3.56 -0.51,-0.61 -1.46,-0.91 -2.84,-0.91 -1.39,0 -2.34,0.3 -2.84,0.91 -0.53,0.61 -0.79,1.77 -0.81,3.47l0 0.17zm21.42 4.92c-0.59,1.09 -1.8,1.64 -3.63,1.64 -1.92,0 -3.31,-0.55 -4.17,-1.64 -0.82,-1.05 -1.23,-2.72 -1.23,-5l0 -6.37 1.75 0 0 6.37c0,1.71 0.25,2.88 0.74,3.5 0.51,0.64 1.48,0.97 2.91,0.97 1.38,0 2.33,-0.3 2.84,-0.9 0.52,-0.62 0.78,-1.79 0.79,-3.49l0 -6.45 1.76 0 0 12.74 -1.76 0 0 -1.37zm10.83 1.37c-0.26,0.03 -0.6,0.05 -1.03,0.05 -0.95,0 -1.67,-0.14 -2.15,-0.39 -1,-0.62 -1.53,-2.08 -1.59,-4.4l0 -5.84 -1.25 0 0 -2.16 1.25 0 0 -5.1 1.75 0 0 5.1 2.3 0 0 2.16 -2.3 0 0 6.1c0.03,1.81 0.77,2.72 2.23,2.72l0.21 0c0.23,0 0.43,-0.02 0.58,-0.06l0 1.82zm12.97 -3.07c-0.36,1.22 -0.99,2.11 -1.89,2.65 -0.77,0.48 -1.88,0.71 -3.32,0.71 -1.99,0 -3.41,-0.5 -4.26,-1.51 -0.89,-1.05 -1.34,-2.76 -1.34,-5.13 0,-2.28 0.41,-3.94 1.23,-4.99 0.86,-1.1 2.28,-1.65 4.27,-1.65 1.93,0 3.31,0.51 4.16,1.53 0.89,1.05 1.33,2.76 1.33,5.11l0 0.96 -9.22 0c0.04,1.16 0.3,2.03 0.79,2.62 0.5,0.59 1.52,0.89 3.04,0.89 1.17,0 2.02,-0.16 2.55,-0.48 0.47,-0.28 0.8,-0.77 1.01,-1.45l1.65 0.74zm-8.31 -6.78c-0.39,0.51 -0.63,1.35 -0.72,2.55l7.45 0c-0.11,-1.25 -0.37,-2.11 -0.78,-2.61 -0.52,-0.6 -1.5,-0.9 -2.95,-0.9 -1.49,0 -2.5,0.32 -3,0.96zm13.3 -1.03c0.67,-1.42 1.92,-2.13 3.74,-2.13 1.85,0 3.21,0.54 4.06,1.64 0.82,1.05 1.23,2.72 1.23,5l-1.75 0c0,-1.7 -0.25,-2.87 -0.74,-3.5 -0.51,-0.65 -1.44,-0.97 -2.8,-0.97 -1.38,0 -2.33,0.3 -2.84,0.91 -0.52,0.61 -0.79,1.77 -0.8,3.47l0 6.46 -1.75 0 0 -12.74 1.65 0 0 1.86zm17.85 7.3c0,0.59 0.19,0.99 0.57,1.21 0.56,0.33 1.58,0.49 3.07,0.49 1.49,0 2.52,-0.16 3.07,-0.49 0.38,-0.22 0.57,-0.62 0.57,-1.21 0,-0.7 -0.39,-1.17 -1.15,-1.41 -0.45,-0.16 -1.29,-0.24 -2.51,-0.28 -1.79,-0.05 -3.03,-0.24 -3.7,-0.56 -1.12,-0.55 -1.68,-1.65 -1.68,-3.29 0,-1.43 0.49,-2.46 1.46,-3.08 0.81,-0.53 2.13,-0.79 3.94,-0.79 1.75,0 3.03,0.24 3.83,0.73 1.04,0.61 1.56,1.66 1.56,3.14l-1.75 0c0,-0.58 -0.19,-0.98 -0.57,-1.2 -0.55,-0.33 -1.58,-0.49 -3.07,-0.49 -1.53,0 -2.58,0.17 -3.13,0.52 -0.34,0.22 -0.51,0.6 -0.51,1.17 0,0.7 0.38,1.18 1.15,1.42 0.46,0.15 1.3,0.24 2.51,0.27 1.79,0.06 3.02,0.25 3.69,0.58 1.12,0.54 1.68,1.63 1.68,3.27 0,1.49 -0.52,2.54 -1.56,3.16 -0.8,0.48 -2.08,0.71 -3.83,0.71 -1.75,0 -3.03,-0.23 -3.83,-0.71 -1.04,-0.62 -1.57,-1.67 -1.57,-3.16l1.76 0zm22.4 0.63c-0.37,1.18 -1,2.03 -1.89,2.56 -0.78,0.46 -1.8,0.68 -3.08,0.68 -1.85,0 -3.21,-0.5 -4.06,-1.51 -0.89,-1.05 -1.33,-2.76 -1.33,-5.13 0,-2.28 0.4,-3.94 1.22,-4.99 0.86,-1.1 2.25,-1.65 4.17,-1.65 1.28,0 2.3,0.23 3.08,0.69 0.89,0.52 1.52,1.38 1.89,2.55l-1.64 0.77c-0.2,-0.63 -0.54,-1.09 -1.01,-1.37 -0.53,-0.31 -1.3,-0.46 -2.32,-0.46 -1.43,0 -2.39,0.32 -2.9,0.96 -0.49,0.64 -0.74,1.8 -0.74,3.5 0,1.75 0.27,2.94 0.8,3.58 0.5,0.59 1.45,0.89 2.84,0.89 1.02,0 1.79,-0.15 2.32,-0.46 0.47,-0.27 0.81,-0.73 1.01,-1.38l1.64 0.77zm5.21 -9.79l0 12.74 -1.76 0 0 -12.74 1.76 0zm0 -5.1l0 2.18 -1.76 0 0 -2.18 1.76 0zm14.06 14.77c-0.36,1.22 -0.98,2.11 -1.88,2.65 -0.78,0.48 -1.89,0.71 -3.32,0.71 -2,0 -3.41,-0.5 -4.27,-1.51 -0.89,-1.05 -1.33,-2.76 -1.33,-5.13 0,-2.28 0.4,-3.94 1.23,-4.99 0.85,-1.1 2.27,-1.65 4.26,-1.65 1.93,0 3.31,0.51 4.16,1.53 0.89,1.05 1.33,2.76 1.33,5.11l0 0.96 -9.22 0c0.04,1.16 0.31,2.03 0.79,2.62 0.51,0.59 1.52,0.89 3.05,0.89 1.16,0 2.01,-0.16 2.54,-0.48 0.47,-0.28 0.81,-0.77 1.01,-1.45l1.65 0.74zm-8.31 -6.78c-0.39,0.51 -0.62,1.35 -0.72,2.55l7.45 0c-0.11,-1.25 -0.37,-2.11 -0.78,-2.61 -0.52,-0.6 -1.5,-0.9 -2.95,-0.9 -1.49,0 -2.49,0.32 -3,0.96zm13.3 -0.9c0.67,-1.51 1.92,-2.26 3.75,-2.26 1.91,0 3.3,0.54 4.16,1.64 0.82,1.05 1.22,2.72 1.22,5l0 6.37 -1.75 0 0 -6.37c0,-1.7 -0.25,-2.87 -0.74,-3.5 -0.51,-0.65 -1.47,-0.97 -2.89,-0.97 -1.39,0 -2.34,0.3 -2.85,0.91 -0.52,0.61 -0.78,1.77 -0.8,3.47l0 6.46 -1.75 0 0 -12.74 1.65 0 0 1.99zm22.85 7.8c-0.37,1.18 -1,2.03 -1.89,2.56 -0.78,0.46 -1.8,0.68 -3.07,0.68 -1.86,0 -3.22,-0.5 -4.07,-1.51 -0.89,-1.05 -1.33,-2.76 -1.33,-5.13 0,-2.28 0.41,-3.94 1.22,-4.99 0.86,-1.1 2.25,-1.65 4.18,-1.65 1.27,0 2.29,0.23 3.07,0.69 0.89,0.52 1.52,1.38 1.89,2.55l-1.63 0.77c-0.21,-0.63 -0.55,-1.09 -1.02,-1.37 -0.53,-0.31 -1.3,-0.46 -2.31,-0.46 -1.43,0 -2.4,0.32 -2.91,0.96 -0.49,0.64 -0.74,1.8 -0.74,3.5 0,1.75 0.27,2.94 0.8,3.58 0.51,0.59 1.46,0.89 2.85,0.89 1.01,0 1.78,-0.15 2.31,-0.46 0.47,-0.27 0.81,-0.73 1.02,-1.38l1.63 0.77zm13.96 -0.12c-0.35,1.22 -0.98,2.11 -1.88,2.65 -0.78,0.48 -1.89,0.71 -3.32,0.71 -1.99,0 -3.41,-0.5 -4.26,-1.51 -0.9,-1.05 -1.34,-2.76 -1.34,-5.13 0,-2.28 0.41,-3.94 1.23,-4.99 0.85,-1.1 2.28,-1.65 4.26,-1.65 1.93,0 3.31,0.51 4.17,1.53 0.88,1.05 1.32,2.76 1.32,5.11l0 0.96 -9.22 0c0.04,1.16 0.31,2.03 0.79,2.62 0.51,0.59 1.52,0.89 3.05,0.89 1.16,0 2.01,-0.16 2.54,-0.48 0.47,-0.28 0.81,-0.77 1.01,-1.45l1.65 0.74zm-8.31 -6.78c-0.38,0.51 -0.62,1.35 -0.72,2.55l7.46 0c-0.12,-1.25 -0.38,-2.11 -0.79,-2.61 -0.51,-0.6 -1.49,-0.9 -2.95,-0.9 -1.49,0 -2.49,0.32 -3,0.96zm13.06 6.27c0,0.59 0.19,0.99 0.56,1.21 0.56,0.33 1.59,0.49 3.08,0.49 1.49,0 2.51,-0.16 3.06,-0.49 0.38,-0.22 0.57,-0.62 0.57,-1.21 0,-0.7 -0.38,-1.17 -1.15,-1.41 -0.45,-0.16 -1.28,-0.24 -2.5,-0.28 -1.8,-0.05 -3.03,-0.24 -3.71,-0.56 -1.11,-0.55 -1.67,-1.65 -1.67,-3.29 0,-1.43 0.49,-2.46 1.46,-3.08 0.81,-0.53 2.12,-0.79 3.94,-0.79 1.75,0 3.02,0.24 3.83,0.73 1.04,0.61 1.55,1.66 1.55,3.14l-1.75 0c0,-0.58 -0.19,-0.98 -0.57,-1.2 -0.55,-0.33 -1.57,-0.49 -3.06,-0.49 -1.54,0 -2.58,0.17 -3.14,0.52 -0.33,0.22 -0.5,0.6 -0.5,1.17 0,0.7 0.38,1.18 1.14,1.42 0.46,0.15 1.3,0.24 2.52,0.27 1.79,0.06 3.02,0.25 3.69,0.58 1.12,0.54 1.67,1.63 1.67,3.27 0,1.49 -0.51,2.54 -1.55,3.16 -0.81,0.48 -2.08,0.71 -3.83,0.71 -1.76,0 -3.03,-0.23 -3.83,-0.71 -1.05,-0.62 -1.57,-1.67 -1.57,-3.16l1.76 0z"/>
   <path class="fil4 str0" d="M133.2 207.17c0,8.31 3.79,14.16 11.38,17.61 8.14,3.7 22.3,5.55 42.52,5.55 19.55,0 33.42,-1.71 41.56,-5.16 8.2,-3.43 12.31,-9.43 12.31,-18 0,-8.56 -4.11,-14.57 -12.31,-18.06 -8.14,-3.38 -22.01,-5.07 -41.56,-5.07 -20.05,0 -34.33,-1.81 -42.87,-5.44 -9.09,-3.88 -13.64,-10.51 -13.64,-19.87 0,-9.09 4.2,-15.55 12.63,-19.39 8.54,-3.88 23.17,-5.82 43.88,-5.82 20.01,0 34.26,1.8 42.75,5.41 9.18,3.84 13.76,10.44 13.76,19.8l-2.64 0c0,-8.56 -4.11,-14.55 -12.31,-18 -8.14,-3.42 -22.01,-5.14 -41.56,-5.14 -20.22,0 -34.38,1.85 -42.52,5.55 -7.59,3.43 -11.38,9.3 -11.38,17.59 0,8.57 4.11,14.59 12.31,18.07 8.08,3.44 21.95,5.16 41.59,5.16 20.01,0 34.26,1.78 42.75,5.34 9.18,3.88 13.76,10.51 13.76,19.87 0,9.39 -4.58,16.01 -13.76,19.87 -8.49,3.59 -22.74,5.37 -42.75,5.37 -20.65,0 -35.28,-1.94 -43.88,-5.83 -8.43,-3.83 -12.63,-10.3 -12.63,-19.41l2.61 0z"/>
   <path class="fil3" d="M295.04 221.73c-1.86,4.12 -5.25,6.83 -10.13,8.16 -3.3,0.92 -6.65,0.96 -10.03,0.12 -3.61,-0.88 -6.63,-2.62 -9.05,-5.21 -3.34,-3.56 -5.01,-8.18 -5.01,-13.87 0,-5.69 1.64,-10.4 4.92,-14.13 3.23,-3.67 7.34,-5.5 12.34,-5.5 4.97,0 9.08,1.73 12.34,5.18 2.13,2.26 3.62,4.99 4.47,8.19 0.84,3.09 0.93,6.08 0.29,8.96 -0.77,3.47 -2.42,6.08 -4.95,7.81 -0.97,0.65 -1.96,0.9 -2.98,0.76 -0.65,-0.09 -1.23,-0.34 -1.77,-0.76 -0.53,-0.41 -0.96,-0.92 -1.3,-1.55 -0.13,-0.26 -0.25,-0.53 -0.34,-0.82l-0.01 0.02c-1.92,2.29 -4.14,3.43 -6.68,3.43 -0.19,0 -0.41,-0.01 -0.63,-0.02 -2.28,-0.22 -4.16,-1.35 -5.65,-3.43 -1.44,-2.02 -2.17,-4.44 -2.17,-7.24 0,-0.33 0.02,-0.68 0.03,-1.04 0.23,-3.12 1.26,-5.79 3.12,-8.02 1.93,-2.29 4.15,-3.43 6.67,-3.43 0.22,0 0.43,0.02 0.66,0.04 2.17,0.18 3.99,1.24 5.47,3.17l0.12 -1.67 2.94 0.28 -0.74 9.73 -0.01 0.18c-0.02,0.12 -0.03,0.27 -0.04,0.42 -0.17,2.29 -0.32,4.07 -0.45,5.33 -0.05,0.49 0.03,0.95 0.25,1.35 0.1,0.2 0.23,0.36 0.39,0.49 0.16,0.12 0.33,0.19 0.52,0.22 0.34,0.04 0.7,-0.06 1.08,-0.32 1.83,-1.25 3.04,-3.17 3.61,-5.75 0.51,-2.3 0.43,-4.69 -0.24,-7.17 -0.7,-2.6 -1.92,-4.84 -3.68,-6.69 -2.69,-2.86 -6.14,-4.28 -10.32,-4.28 -4.19,0 -7.61,1.5 -10.26,4.51 -2.69,3.07 -4.04,6.98 -4.04,11.75 0,4.72 1.36,8.54 4.08,11.45 2.02,2.15 4.56,3.6 7.64,4.34 2.96,0.73 5.87,0.71 8.74,-0.07 4,-1.1 6.73,-3.25 8.19,-6.44l2.61 1.52zm-11.01 -11.17c0,-0.17 0,-0.35 0,-0.54 0,-2.01 -0.5,-3.72 -1.5,-5.1 -0.95,-1.33 -2.14,-2.06 -3.59,-2.19 -0.13,-0.01 -0.26,-0.02 -0.42,-0.02 -1.68,0 -3.19,0.79 -4.52,2.36 -1.38,1.65 -2.16,3.65 -2.32,6 -0.03,0.24 -0.03,0.5 -0.03,0.76 0,2.02 0.49,3.73 1.49,5.13 0.96,1.33 2.17,2.06 3.6,2.19 0.12,0 0.26,0 0.41,0 1.7,0 3.21,-0.79 4.54,-2.37 1.29,-1.52 2.05,-3.38 2.29,-5.56l0.05 -0.66z"/>
   <path class="fil3" d="M309.14 189.47l6.49 0 0 26.41c0,2.6 0.2,4.41 0.6,5.44 0.41,1.02 1.11,1.85 2.1,2.48 1.04,0.65 2.29,1.11 3.73,1.37 1.46,0.26 3.95,0.39 7.49,0.39l6.12 0c3.56,0 6.08,-0.13 7.54,-0.39 1.46,-0.26 2.71,-0.72 3.76,-1.37 0.96,-0.61 1.64,-1.43 2.03,-2.45 0.39,-1.04 0.59,-2.85 0.59,-5.47l0 -26.41 6.48 0 0 26.96c0,5.13 -1.46,8.72 -4.4,10.74 -2.92,2.03 -8.1,3.04 -15.54,3.04l-7.05 0c-7.42,0 -12.61,-1.01 -15.53,-3.04 -2.94,-2.02 -4.41,-5.61 -4.41,-10.74l0 -26.96zm59.44 13.3c0,-5.16 1.43,-8.75 4.28,-10.77 2.86,-2.02 7.89,-3.03 15.13,-3.03l6.8 0c7.17,0 12.2,0.87 15.1,2.62 2.9,1.74 4.34,4.69 4.34,8.86l0 1.75 -6.65 0 0 -1.1c0,-3.05 -0.89,-5.12 -2.7,-6.24 -1.8,-1.12 -5.32,-1.68 -10.57,-1.68l-4.5 0c-3.51,0 -6.07,0.15 -7.68,0.44 -1.6,0.31 -2.94,0.81 -4.01,1.51 -1.07,0.68 -1.81,1.57 -2.25,2.68 -0.43,1.11 -0.64,3.13 -0.64,6.06l0 11.46c0,2.92 0.21,4.93 0.64,6.04 0.44,1.11 1.18,2.01 2.25,2.69 1.07,0.7 2.36,1.2 3.9,1.5 1.52,0.3 4.12,0.44 7.79,0.44l4.5 0c5.38,0 8.96,-0.58 10.73,-1.75 1.77,-1.17 2.66,-3.42 2.66,-6.73 0,-0.51 -0.01,-0.9 -0.02,-1.17 -0.02,-0.26 -0.03,-0.52 -0.06,-0.75l6.61 0 0 2.65c0,4.47 -1.4,7.59 -4.21,9.33 -2.8,1.76 -7.89,2.63 -15.23,2.63l-6.8 0c-7.24,0 -12.27,-1.01 -15.13,-3.03 -2.85,-2.02 -4.28,-5.61 -4.28,-10.77l0 -13.64zm56.8 -13.3l6.49 0 0 26.41c0,2.6 0.2,4.41 0.6,5.44 0.42,1.02 1.11,1.85 2.1,2.48 1.04,0.65 2.29,1.11 3.74,1.37 1.45,0.26 3.95,0.39 7.48,0.39l6.12 0c3.56,0 6.08,-0.13 7.54,-0.39 1.47,-0.26 2.71,-0.72 3.76,-1.37 0.96,-0.61 1.64,-1.43 2.03,-2.45 0.39,-1.04 0.59,-2.85 0.59,-5.47l0 -26.41 6.48 0 0 26.96c0,5.13 -1.46,8.72 -4.4,10.74 -2.92,2.03 -8.1,3.04 -15.54,3.04l-7.04 0c-7.43,0 -12.62,-1.01 -15.54,-3.04 -2.94,-2.02 -4.41,-5.61 -4.41,-10.74l0 -26.96z"/>
   <path class="fil5 str1" d="M221.05 127.59c-3.18,-4.5 -7.53,-7.81 -13.06,-9.91 -5.33,-2.05 -12.17,-3.11 -20.57,-3.2l-22.56 0c-14.77,0.16 -25.23,3.66 -31.4,10.44 -6.48,7.17 -9.76,19.48 -9.76,36.93 0,17.4 3.25,29.69 9.68,36.86 6.11,6.79 16.51,10.28 31.16,10.51l23.15 0c8.31,-0.14 15.11,-1.21 20.36,-3.22 5.5,-2.13 9.82,-5.44 13,-9.89l2.29 1c-3.39,4.87 -8.11,8.43 -14.1,10.72 -5.65,2.17 -12.84,3.33 -21.55,3.47l-23.24 0c-15.52,-0.23 -26.55,-4.02 -33.19,-11.38 -6.78,-7.53 -10.16,-20.23 -10.16,-38.07 0,-17.88 3.41,-30.6 10.25,-38.14 6.66,-7.35 17.84,-11.12 33.51,-11.31l22.65 0c8.72,0.1 15.93,1.22 21.64,3.41 6.02,2.28 10.74,5.87 14.19,10.78l-2.29 1z"/>
  </g>
 </g>
</svg>
