<?xml version="1.0" encoding="UTF-8"?>
<!DOCTYPE svg PUBLIC "-//W3C//DTD SVG 1.1//EN" "http://www.w3.org/Graphics/SVG/1.1/DTD/svg11.dtd">
<!-- Creator: CorelDRAW 2020 -->
<svg xmlns="http://www.w3.org/2000/svg" xml:space="preserve" width="560px" height="380px" version="1.1" style="shape-rendering:geometricPrecision; text-rendering:geometricPrecision; image-rendering:optimizeQuality; fill-rule:evenodd; clip-rule:evenodd"
viewBox="0 0 560 380"
 xmlns:xlink="http://www.w3.org/1999/xlink"
 xmlns:xodm="http://www.corel.com/coreldraw/odm/2003">
 <defs>
  <style type="text/css">
   <![CDATA[
    .fil2 {fill:#FEFEFE}
    .fil0 {fill:#69737C}
    .fil4 {fill:#95C33F}
    .fil3 {fill:#72348A;fill-rule:nonzero}
    .fil1 {fill:#95C33F;fill-rule:nonzero}
   ]]>
  </style>
 </defs>
 <g id="Слой_x0020_1">
  <metadata id="CorelCorpID_0Corel-Layer"/>
  <g id="_1313854848">
   <path class="fil0" d="M8.32 15.98c2.42,0 4.39,1.96 4.39,4.39 0,2.43 -1.97,4.39 -4.39,4.39 -2.43,0 -4.4,-1.96 -4.4,-4.39 0,-2.43 1.97,-4.39 4.4,-4.39z"/>
   <path class="fil0" d="M8.32 62.08c2.42,0 4.39,1.96 4.39,4.39 0,2.43 -1.97,4.39 -4.39,4.39 -2.43,0 -4.4,-1.96 -4.4,-4.39 0,-2.43 1.97,-4.39 4.4,-4.39z"/>
   <path class="fil0" d="M8.32 108.17c2.42,0 4.39,1.97 4.39,4.4 0,2.42 -1.97,4.39 -4.39,4.39 -2.43,0 -4.4,-1.97 -4.4,-4.39 0,-2.43 1.97,-4.4 4.4,-4.4z"/>
   <path class="fil0" d="M8.32 154.27c2.42,0 4.39,1.97 4.39,4.4 0,2.42 -1.97,4.39 -4.39,4.39 -2.43,0 -4.4,-1.97 -4.4,-4.39 0,-2.43 1.97,-4.4 4.4,-4.4z"/>
   <path class="fil0" d="M8.32 200.37c2.42,0 4.39,1.97 4.39,4.39 0,2.43 -1.97,4.4 -4.39,4.4 -2.43,0 -4.4,-1.97 -4.4,-4.4 0,-2.42 1.97,-4.39 4.4,-4.39z"/>
   <path class="fil0" d="M8.32 246.47c2.42,0 4.39,1.97 4.39,4.39 0,2.43 -1.97,4.4 -4.39,4.4 -2.43,0 -4.4,-1.97 -4.4,-4.4 0,-2.42 1.97,-4.39 4.4,-4.39z"/>
   <path class="fil0" d="M54.7 15.98c2.43,0 4.39,1.96 4.39,4.39 0,2.43 -1.96,4.39 -4.39,4.39 -2.43,0 -4.39,-1.96 -4.39,-4.39 0,-2.43 1.96,-4.39 4.39,-4.39z"/>
   <path class="fil0" d="M8.32 15.98c2.42,0 4.39,1.96 4.39,4.39 0,2.43 -1.97,4.39 -4.39,4.39 -2.43,0 -4.4,-1.96 -4.4,-4.39 0,-2.43 1.97,-4.39 4.4,-4.39z"/>
   <path class="fil0" d="M8.32 62.08c2.42,0 4.39,1.96 4.39,4.39 0,2.43 -1.97,4.39 -4.39,4.39 -2.43,0 -4.4,-1.96 -4.4,-4.39 0,-2.43 1.97,-4.39 4.4,-4.39z"/>
   <path class="fil0" d="M8.32 108.17c2.42,0 4.39,1.97 4.39,4.4 0,2.42 -1.97,4.39 -4.39,4.39 -2.43,0 -4.4,-1.97 -4.4,-4.39 0,-2.43 1.97,-4.4 4.4,-4.4z"/>
   <path class="fil0" d="M8.32 154.27c2.42,0 4.39,1.97 4.39,4.4 0,2.42 -1.97,4.39 -4.39,4.39 -2.43,0 -4.4,-1.97 -4.4,-4.39 0,-2.43 1.97,-4.4 4.4,-4.4z"/>
   <path class="fil0" d="M8.32 200.37c2.42,0 4.39,1.97 4.39,4.39 0,2.43 -1.97,4.4 -4.39,4.4 -2.43,0 -4.4,-1.97 -4.4,-4.4 0,-2.42 1.97,-4.39 4.4,-4.39z"/>
   <path class="fil0" d="M8.32 246.47c2.42,0 4.39,1.97 4.39,4.39 0,2.43 -1.97,4.4 -4.39,4.4 -2.43,0 -4.4,-1.97 -4.4,-4.4 0,-2.42 1.97,-4.39 4.4,-4.39z"/>
   <path class="fil0" d="M54.7 15.98c2.43,0 4.39,1.96 4.39,4.39 0,2.43 -1.96,4.39 -4.39,4.39 -2.43,0 -4.39,-1.96 -4.39,-4.39 0,-2.43 1.96,-4.39 4.39,-4.39z"/>
  </g>
  <path class="fil1" d="M123.16 0.34l329.88 0c28.33,0 54.1,11.59 72.77,30.27 18.68,18.67 30.27,44.44 30.27,72.78l0 173.22c0,28.34 -11.59,54.11 -30.27,72.78 -18.67,18.68 -44.44,30.27 -72.77,30.27l-329.88 0c-28.34,0 -54.1,-11.59 -72.77,-30.27 -18.68,-18.67 -30.27,-44.44 -30.27,-72.78l0 -173.22c0,-28.34 11.59,-54.11 30.27,-72.78 18.67,-18.68 44.43,-30.27 72.77,-30.27zm329.88 2.36l-329.88 0c-27.69,0 -52.86,11.33 -71.1,29.58 -18.25,18.25 -29.58,43.42 -29.58,71.11l0 173.22c0,27.69 11.33,52.86 29.58,71.11 18.24,18.25 43.41,29.58 71.1,29.58l329.88 0c27.68,0 52.86,-11.33 71.1,-29.58 18.25,-18.25 29.58,-43.42 29.58,-71.11l0 -173.22c0,-27.69 -11.33,-52.86 -29.58,-71.11 -18.24,-18.25 -43.42,-29.58 -71.1,-29.58z"/>
  <path class="fil2" d="M453.04 2.7l-329.88 0c-27.69,0 -52.86,11.33 -71.1,29.58 -18.25,18.25 -29.58,43.42 -29.58,71.11l0 173.22c0,27.69 11.33,52.86 29.58,71.11 18.24,18.25 43.41,29.58 71.1,29.58l329.88 0c27.68,0 52.86,-11.33 71.1,-29.58 18.25,-18.25 29.58,-43.42 29.58,-71.11l0 -173.22c0,-27.69 -11.33,-52.86 -29.58,-71.11 -18.24,-18.25 -43.42,-29.58 -71.1,-29.58z"/>
  <path class="fil3" d="M87.29 188.34l1.41 -1.5c0.3,-0.32 0.66,-0.47 1.06,-0.47 0.39,0 0.79,0.15 1.18,0.47 1.93,1.6 3.73,2.4 5.39,2.4 1.31,0 2.35,-0.32 3.15,-0.95 0.79,-0.62 1.18,-1.48 1.18,-2.56 0,-1.06 -0.46,-1.98 -1.38,-2.77 -0.92,-0.78 -2.04,-1.46 -3.37,-2.03 -1.33,-0.57 -2.65,-1.2 -3.97,-1.88 -1.31,-0.69 -2.43,-1.67 -3.35,-2.94 -0.92,-1.27 -1.38,-2.8 -1.38,-4.6 0,-2.34 0.85,-4.31 2.55,-5.91 1.64,-1.57 3.87,-2.35 6.7,-2.35 2.58,0 4.94,0.61 7.09,1.84 0.51,0.28 0.76,0.74 0.76,1.37 0,0.26 -0.07,0.5 -0.21,0.73l-0.8 1.41c-0.34,0.57 -0.81,0.86 -1.4,0.86 -0.32,0 -0.57,-0.06 -0.77,-0.18 -1.53,-0.74 -2.94,-1.11 -4.24,-1.11 -1.28,0 -2.29,0.3 -3.04,0.9 -0.75,0.6 -1.12,1.4 -1.12,2.4 0,0.97 0.33,1.81 0.99,2.52 0.67,0.72 1.5,1.28 2.49,1.69 0.99,0.42 2.07,0.91 3.25,1.48 1.17,0.57 2.25,1.17 3.24,1.78 0.99,0.61 1.82,1.5 2.48,2.65 0.67,1.16 1,2.52 1,4.09 0,2.49 -0.95,4.51 -2.84,6.08 -1.93,1.6 -4.29,2.4 -7.09,2.4 -3.28,0 -6.21,-1.21 -8.79,-3.64 -0.37,-0.29 -0.55,-0.7 -0.55,-1.24 0,-0.37 0.13,-0.69 0.38,-0.94zm43.44 -18.71c-1.84,-0.97 -3.59,-1.46 -5.26,-1.46 -2.8,0 -5.11,0.96 -6.92,2.87 -1.84,1.94 -2.76,4.49 -2.76,7.66 0,3.11 0.96,5.64 2.89,7.58 1.89,1.97 4.35,2.96 7.38,2.96 1.73,0 3.51,-0.5 5.35,-1.5 0.34,-0.17 0.67,-0.26 0.98,-0.26 0.59,0 1.04,0.24 1.36,0.73l0.76 1.2c0.2,0.28 0.3,0.61 0.3,0.98 0,0.54 -0.2,0.94 -0.6,1.2 -2.57,1.71 -5.44,2.57 -8.61,2.57 -4.53,0 -8.22,-1.41 -11.08,-4.24 -2.83,-2.82 -4.25,-6.56 -4.25,-11.22 0,-4.45 1.35,-8.15 4.04,-11.09 2.65,-2.91 6.38,-4.36 11.16,-4.36 2.6,0 5.19,0.71 7.77,2.14 0.56,0.31 0.85,0.73 0.85,1.24 0,0.29 -0.09,0.57 -0.26,0.86l-0.89 1.58c-0.34,0.54 -0.76,0.81 -1.27,0.81 -0.32,0 -0.63,-0.08 -0.94,-0.25zm15.47 -4.33l0 26.8c0,0.43 -0.16,0.8 -0.47,1.12 -0.31,0.31 -0.68,0.47 -1.1,0.47l-2.08 0c-0.43,0 -0.79,-0.16 -1.11,-0.47 -0.31,-0.32 -0.46,-0.69 -0.46,-1.12l0 -26.8c0,-0.43 0.15,-0.8 0.46,-1.11 0.32,-0.31 0.68,-0.47 1.11,-0.47l2.08 0c0.42,0 0.79,0.16 1.1,0.47 0.31,0.31 0.47,0.68 0.47,1.11zm26.75 25.05l0 1.75c0,0.43 -0.15,0.8 -0.46,1.12 -0.31,0.31 -0.68,0.47 -1.11,0.47l-14.47 0c-0.42,0 -0.79,-0.16 -1.1,-0.47 -0.32,-0.32 -0.47,-0.69 -0.47,-1.12l0 -26.8c0,-0.43 0.15,-0.8 0.47,-1.11 0.31,-0.31 0.68,-0.47 1.1,-0.47l14.05 0c0.42,0 0.79,0.16 1.1,0.47 0.32,0.31 0.47,0.68 0.47,1.11l0 1.76c0,0.43 -0.15,0.8 -0.47,1.11 -0.31,0.31 -0.68,0.47 -1.1,0.47l-10.4 0 0 7.45 9.13 0c0.42,0 0.79,0.16 1.1,0.47 0.31,0.32 0.47,0.69 0.47,1.12l0 1.75c0,0.43 -0.16,0.8 -0.47,1.11 -0.31,0.32 -0.68,0.48 -1.1,0.48l-9.13 0 0 7.74 10.82 0c0.43,0 0.8,0.16 1.11,0.48 0.31,0.31 0.46,0.68 0.46,1.11zm29.14 -26.63l1.74 0c0.42,0 0.79,0.16 1.1,0.47 0.31,0.31 0.47,0.68 0.47,1.11l0 26.8c0,0.43 -0.16,0.8 -0.47,1.12 -0.31,0.31 -0.68,0.47 -1.1,0.47l-1.49 0c-0.7,0 -1.34,-0.34 -1.91,-1.03l-15.53 -19.74 0 19.18c0,0.43 -0.16,0.8 -0.47,1.12 -0.31,0.31 -0.68,0.47 -1.1,0.47l-1.74 0c-0.43,0 -0.79,-0.16 -1.11,-0.47 -0.31,-0.32 -0.46,-0.69 -0.46,-1.12l0 -26.8c0,-0.43 0.15,-0.8 0.46,-1.11 0.32,-0.31 0.68,-0.47 1.11,-0.47l1.48 0c0.71,0 1.35,0.34 1.91,1.03l15.54 19.82 0 -19.27c0,-0.43 0.15,-0.8 0.47,-1.11 0.31,-0.31 0.67,-0.47 1.1,-0.47zm30.07 5.91c-1.84,-0.97 -3.6,-1.46 -5.27,-1.46 -2.8,0 -5.11,0.96 -6.91,2.87 -1.85,1.94 -2.76,4.49 -2.76,7.66 0,3.11 0.96,5.64 2.88,7.58 1.9,1.97 4.36,2.96 7.39,2.96 1.72,0 3.51,-0.5 5.34,-1.5 0.35,-0.17 0.67,-0.26 0.98,-0.26 0.6,0 1.05,0.24 1.36,0.73l0.76 1.2c0.2,0.28 0.3,0.61 0.3,0.98 0,0.54 -0.2,0.94 -0.59,1.2 -2.58,1.71 -5.45,2.57 -8.62,2.57 -4.53,0 -8.22,-1.41 -11.08,-4.24 -2.83,-2.82 -4.24,-6.56 -4.24,-11.22 0,-4.45 1.34,-8.15 4.03,-11.09 2.66,-2.91 6.38,-4.36 11.16,-4.36 2.61,0 5.2,0.71 7.77,2.14 0.57,0.31 0.85,0.73 0.85,1.24 0,0.29 -0.09,0.57 -0.26,0.86l-0.89 1.58c-0.34,0.54 -0.76,0.81 -1.27,0.81 -0.31,0 -0.62,-0.08 -0.93,-0.25zm27.22 20.72l0 1.75c0,0.43 -0.15,0.8 -0.47,1.12 -0.31,0.31 -0.68,0.47 -1.1,0.47l-14.47 0c-0.43,0 -0.8,-0.16 -1.11,-0.47 -0.31,-0.32 -0.46,-0.69 -0.46,-1.12l0 -26.8c0,-0.43 0.15,-0.8 0.46,-1.11 0.31,-0.31 0.68,-0.47 1.11,-0.47l14.05 0c0.42,0 0.79,0.16 1.1,0.47 0.31,0.31 0.47,0.68 0.47,1.11l0 1.76c0,0.43 -0.16,0.8 -0.47,1.11 -0.31,0.31 -0.68,0.47 -1.1,0.47l-10.4 0 0 7.45 9.12 0c0.43,0 0.79,0.16 1.11,0.47 0.31,0.32 0.46,0.69 0.46,1.12l0 1.75c0,0.43 -0.15,0.8 -0.46,1.11 -0.32,0.32 -0.68,0.48 -1.11,0.48l-9.12 0 0 7.74 10.82 0c0.42,0 0.79,0.16 1.1,0.48 0.32,0.31 0.47,0.68 0.47,1.11zm5.24 -2.01l1.4 -1.5c0.31,-0.32 0.66,-0.47 1.06,-0.47 0.4,0 0.79,0.15 1.19,0.47 1.92,1.6 3.72,2.4 5.39,2.4 1.3,0 2.35,-0.32 3.14,-0.95 0.79,-0.62 1.19,-1.48 1.19,-2.56 0,-1.06 -0.46,-1.98 -1.38,-2.77 -0.92,-0.78 -2.05,-1.46 -3.38,-2.03 -1.33,-0.57 -2.65,-1.2 -3.96,-1.88 -1.32,-0.69 -2.44,-1.67 -3.36,-2.94 -0.92,-1.27 -1.38,-2.8 -1.38,-4.6 0,-2.34 0.85,-4.31 2.55,-5.91 1.64,-1.57 3.88,-2.35 6.71,-2.35 2.57,0 4.93,0.61 7.08,1.84 0.51,0.28 0.77,0.74 0.77,1.37 0,0.26 -0.07,0.5 -0.21,0.73l-0.81 1.41c-0.34,0.57 -0.81,0.86 -1.4,0.86 -0.31,0 -0.57,-0.06 -0.76,-0.18 -1.53,-0.74 -2.95,-1.11 -4.25,-1.11 -1.27,0 -2.29,0.3 -3.03,0.9 -0.75,0.6 -1.13,1.4 -1.13,2.4 0,0.97 0.33,1.81 1,2.52 0.66,0.72 1.49,1.28 2.48,1.69 0.99,0.42 2.07,0.91 3.25,1.48 1.17,0.57 2.26,1.17 3.25,1.78 0.99,0.61 1.81,1.5 2.48,2.65 0.66,1.16 1,2.52 1,4.09 0,2.49 -0.95,4.51 -2.85,6.08 -1.92,1.6 -4.29,2.4 -7.09,2.4 -3.28,0 -6.21,-1.21 -8.78,-3.64 -0.37,-0.29 -0.56,-0.7 -0.56,-1.24 0,-0.37 0.13,-0.69 0.39,-0.94z"/>
  <path class="fil3" d="M108.81 153.79l-2.63 -6.47 -12.69 0 -2.63 6.47c-0.28,0.8 -0.86,1.2 -1.74,1.2l-1.53 0c-0.48,0 -0.88,-0.17 -1.19,-0.5 -0.31,-0.32 -0.47,-0.72 -0.47,-1.17 0,-0.2 0.05,-0.4 0.13,-0.6l11.12 -26.59c0.34,-0.8 0.94,-1.2 1.79,-1.2l2.03 0c0.85,0 1.45,0.4 1.79,1.2l11.12 26.59c0.08,0.2 0.12,0.4 0.12,0.6 0,0.45 -0.15,0.85 -0.46,1.17 -0.31,0.33 -0.71,0.5 -1.19,0.5l-1.83 0c-0.87,0 -1.45,-0.4 -1.74,-1.2zm-4.62 -11.39l-4.33 -10.66 -4.37 10.66 8.7 0zm27.39 -17.47c2.1,0 3.92,0.26 5.46,0.79 1.54,0.53 2.73,1.26 3.58,2.19 0.85,0.92 1.47,1.94 1.87,3.04 0.4,1.1 0.6,2.3 0.6,3.61 0,2.72 -0.97,5.01 -2.89,6.9 -1.9,1.88 -4.56,2.82 -7.98,2.82 -1.73,0 -3.01,-0.04 -3.86,-0.13l0 9.25c0,0.43 -0.16,0.8 -0.47,1.11 -0.31,0.32 -0.68,0.48 -1.1,0.48l-2.08 0c-0.43,0 -0.8,-0.16 -1.11,-0.48 -0.31,-0.31 -0.47,-0.68 -0.47,-1.11l0 -26.8c0,-0.43 0.15,-0.8 0.45,-1.11 0.3,-0.32 0.67,-0.47 1.13,-0.47 3.79,-0.06 6.08,-0.09 6.87,-0.09zm-3.22 5.01l0 9.2c1.5,0.15 2.73,0.22 3.69,0.22 1.67,0 3.01,-0.41 4.01,-1.24 1,-0.83 1.51,-2.03 1.51,-3.6 0,-3.11 -1.83,-4.67 -5.48,-4.67l-3.73 0.09zm33.25 -5.01c2.09,0 3.91,0.26 5.45,0.79 1.55,0.53 2.74,1.26 3.59,2.19 0.85,0.92 1.47,1.94 1.87,3.04 0.39,1.1 0.59,2.3 0.59,3.61 0,2.72 -0.96,5.01 -2.89,6.9 -1.89,1.88 -4.55,2.82 -7.98,2.82 -1.72,0 -3.01,-0.04 -3.86,-0.13l0 9.25c0,0.43 -0.15,0.8 -0.46,1.11 -0.32,0.32 -0.68,0.48 -1.11,0.48l-2.08 0c-0.42,0 -0.79,-0.16 -1.1,-0.48 -0.31,-0.31 -0.47,-0.68 -0.47,-1.11l0 -26.8c0,-0.43 0.15,-0.8 0.45,-1.11 0.3,-0.32 0.67,-0.47 1.12,-0.47 3.79,-0.06 6.09,-0.09 6.88,-0.09zm-3.23 5.01l0 9.2c1.5,0.15 2.73,0.22 3.69,0.22 1.67,0 3.01,-0.41 4.02,-1.24 1,-0.83 1.5,-2.03 1.5,-3.6 0,-3.11 -1.82,-4.67 -5.47,-4.67l-3.74 0.09zm43.4 21.71l0 1.75c0,0.43 -0.16,0.8 -0.47,1.11 -0.31,0.32 -0.68,0.48 -1.1,0.48l-15.45 0c-0.43,0 -0.79,-0.16 -1.11,-0.48 -0.31,-0.31 -0.46,-0.68 -0.46,-1.11l0 -26.8c0,-0.43 0.15,-0.8 0.46,-1.11 0.32,-0.32 0.68,-0.47 1.11,-0.47l2.08 0c0.42,0 0.79,0.15 1.1,0.47 0.31,0.31 0.47,0.68 0.47,1.11l0 23.46 11.8 0c0.42,0 0.79,0.16 1.1,0.47 0.31,0.32 0.47,0.69 0.47,1.12zm14.53 -25.05l0 26.8c0,0.43 -0.15,0.8 -0.46,1.11 -0.32,0.32 -0.68,0.48 -1.11,0.48l-2.08 0c-0.42,0 -0.79,-0.16 -1.1,-0.48 -0.31,-0.31 -0.47,-0.68 -0.47,-1.11l0 -26.8c0,-0.43 0.16,-0.8 0.47,-1.11 0.31,-0.32 0.68,-0.47 1.1,-0.47l2.08 0c0.43,0 0.79,0.15 1.11,0.47 0.31,0.31 0.46,0.68 0.46,1.11zm30.54 25.05l0 1.75c0,0.43 -0.16,0.8 -0.47,1.11 -0.31,0.32 -0.68,0.48 -1.1,0.48l-14.48 0c-0.42,0 -0.79,-0.16 -1.1,-0.48 -0.31,-0.31 -0.47,-0.68 -0.47,-1.11l0 -26.8c0,-0.43 0.16,-0.8 0.47,-1.11 0.31,-0.32 0.68,-0.47 1.1,-0.47l14.05 0c0.43,0 0.8,0.15 1.11,0.47 0.31,0.31 0.46,0.68 0.46,1.11l0 1.76c0,0.42 -0.15,0.8 -0.46,1.11 -0.31,0.31 -0.68,0.47 -1.11,0.47l-10.4 0 0 7.45 9.13 0c0.42,0 0.79,0.16 1.1,0.47 0.31,0.31 0.47,0.68 0.47,1.11l0 1.76c0,0.43 -0.16,0.8 -0.47,1.11 -0.31,0.32 -0.68,0.47 -1.1,0.47l-9.13 0 0 7.75 10.83 0c0.42,0 0.79,0.16 1.1,0.47 0.31,0.32 0.47,0.69 0.47,1.12zm12.41 -26.63c4.67,-0.09 7.06,-0.13 7.17,-0.13 2.89,0 5.42,0.39 7.6,1.18 2.18,0.78 3.92,1.87 5.22,3.27 1.3,1.4 2.27,2.96 2.91,4.69 0.63,1.73 0.95,3.62 0.95,5.67 0,4.45 -1.47,8.12 -4.41,11 -2.97,2.92 -7.17,4.37 -12.61,4.37 -0.25,0 -0.67,-0.01 -1.25,-0.02 -0.58,-0.01 -1.41,-0.03 -2.48,-0.04 -1.08,-0.02 -2.11,-0.02 -3.1,-0.02 -0.43,0 -0.79,-0.16 -1.1,-0.48 -0.32,-0.31 -0.47,-0.68 -0.47,-1.11l0 -26.8c0,-0.43 0.15,-0.8 0.44,-1.11 0.3,-0.32 0.68,-0.47 1.13,-0.47zm3.65 4.92l0 20.12c1.3,0.06 2.42,0.09 3.35,0.09 3.54,0 6.31,-0.94 8.32,-2.83 2.01,-1.88 3.02,-4.42 3.02,-7.62 0,-3.05 -1,-5.46 -3,-7.23 -1.99,-1.77 -4.74,-2.66 -8.25,-2.66 -1.11,0 -2.25,0.04 -3.44,0.13z"/>
  <path class="fil3" d="M103.25 222.55l-8.91 0 0 10.06c0,0.42 -0.16,0.8 -0.47,1.11 -0.31,0.31 -0.68,0.47 -1.1,0.47l-2.08 0c-0.43,0 -0.79,-0.16 -1.1,-0.47 -0.32,-0.31 -0.47,-0.69 -0.47,-1.11l0 -26.8c0,-0.43 0.15,-0.8 0.47,-1.12 0.31,-0.31 0.67,-0.47 1.1,-0.47l13.84 0c0.42,0 0.79,0.16 1.1,0.47 0.31,0.32 0.47,0.69 0.47,1.12l0 1.75c0,0.43 -0.16,0.8 -0.47,1.11 -0.31,0.32 -0.68,0.47 -1.1,0.47l-10.19 0 0 8.48 8.91 0c0.43,0 0.8,0.16 1.11,0.47 0.31,0.32 0.46,0.69 0.46,1.12l0 1.75c0,0.43 -0.15,0.8 -0.46,1.12 -0.31,0.31 -0.68,0.47 -1.11,0.47zm30.12 10.44l-2.63 -6.46 -12.7 0 -2.63 6.46c-0.28,0.8 -0.86,1.2 -1.74,1.2l-1.53 0c-0.48,0 -0.87,-0.16 -1.18,-0.49 -0.32,-0.33 -0.47,-0.72 -0.47,-1.18 0,-0.2 0.04,-0.4 0.13,-0.6l11.12 -26.59c0.34,-0.79 0.93,-1.19 1.78,-1.19l2.04 0c0.85,0 1.44,0.4 1.78,1.19l11.12 26.59c0.08,0.2 0.13,0.4 0.13,0.6 0,0.46 -0.16,0.85 -0.47,1.18 -0.31,0.33 -0.71,0.49 -1.19,0.49l-1.82 0c-0.88,0 -1.46,-0.4 -1.74,-1.2zm-4.63 -11.39l-4.33 -10.66 -4.37 10.66 8.7 0zm35.46 -11.47c-1.84,-0.97 -3.59,-1.46 -5.26,-1.46 -2.8,0 -5.11,0.96 -6.92,2.87 -1.84,1.94 -2.76,4.5 -2.76,7.67 0,3.11 0.96,5.63 2.89,7.57 1.89,1.97 4.35,2.96 7.38,2.96 1.73,0 3.51,-0.5 5.35,-1.5 0.34,-0.17 0.67,-0.26 0.98,-0.26 0.59,0 1.04,0.25 1.36,0.73l0.76 1.2c0.2,0.29 0.3,0.61 0.3,0.98 0,0.55 -0.2,0.95 -0.6,1.2 -2.57,1.72 -5.44,2.57 -8.61,2.57 -4.53,0 -8.23,-1.41 -11.08,-4.24 -2.83,-2.82 -4.25,-6.56 -4.25,-11.21 0,-4.46 1.35,-8.15 4.04,-11.09 2.65,-2.91 6.38,-4.37 11.16,-4.37 2.6,0 5.19,0.71 7.77,2.14 0.56,0.31 0.85,0.73 0.85,1.24 0,0.29 -0.09,0.57 -0.26,0.86l-0.89 1.58c-0.34,0.55 -0.76,0.82 -1.27,0.82 -0.32,0 -0.63,-0.09 -0.94,-0.26zm31.52 10.57l0 -14.89c0,-0.43 0.15,-0.8 0.46,-1.12 0.31,-0.31 0.68,-0.47 1.11,-0.47l2.03 0c0.43,0 0.8,0.16 1.11,0.47 0.31,0.32 0.46,0.69 0.46,1.12l0 15.97c0,4.3 -1.11,7.53 -3.35,9.67 -2.26,2.14 -5.08,3.21 -8.45,3.21 -3.79,0 -6.84,-1.14 -9.17,-3.42 -2.32,-2.26 -3.47,-5.51 -3.47,-9.76l0 -15.67c0,-0.43 0.15,-0.8 0.46,-1.12 0.31,-0.31 0.68,-0.47 1.11,-0.47l2.07 0c0.43,0 0.8,0.16 1.11,0.47 0.31,0.32 0.46,0.69 0.46,1.12l0 14.55c0,2.97 0.64,5.27 1.89,6.92 1.26,1.64 3.11,2.46 5.54,2.46 4.42,0 6.63,-3.01 6.63,-9.04zm34.91 10.15l0 1.76c0,0.42 -0.16,0.8 -0.47,1.11 -0.31,0.31 -0.68,0.47 -1.11,0.47l-15.45 0c-0.42,0 -0.79,-0.16 -1.1,-0.47 -0.31,-0.31 -0.47,-0.69 -0.47,-1.11l0 -26.8c0,-0.43 0.16,-0.8 0.47,-1.12 0.31,-0.31 0.68,-0.47 1.1,-0.47l2.08 0c0.43,0 0.8,0.16 1.11,0.47 0.31,0.32 0.46,0.69 0.46,1.12l0 23.46 11.8 0c0.43,0 0.8,0.15 1.11,0.47 0.31,0.31 0.47,0.68 0.47,1.11zm13.09 3.34l-2.08 0c-0.43,0 -0.79,-0.16 -1.11,-0.47 -0.31,-0.31 -0.46,-0.69 -0.46,-1.11l0 -23.47 -8.07 0c-0.42,0 -0.79,-0.15 -1.1,-0.47 -0.31,-0.31 -0.47,-0.68 -0.47,-1.11l0 -1.75c0,-0.43 0.16,-0.8 0.47,-1.12 0.31,-0.31 0.68,-0.47 1.1,-0.47l21.35 0c0.43,0 0.79,0.16 1.11,0.47 0.31,0.32 0.46,0.69 0.46,1.12l0 1.75c0,0.43 -0.15,0.8 -0.46,1.11 -0.32,0.32 -0.68,0.47 -1.11,0.47l-8.06 0 0 23.47c0,0.42 -0.16,0.8 -0.47,1.11 -0.31,0.31 -0.68,0.47 -1.1,0.47zm21.54 -28.86l6.7 11.44 6.67 -11.44c0.42,-0.74 1.06,-1.11 1.91,-1.11l1.52 0c0.43,0 0.8,0.17 1.11,0.49 0.31,0.33 0.46,0.71 0.46,1.14 0,0.31 -0.07,0.58 -0.21,0.81l-9.08 15.03 0 10.92c0,0.42 -0.16,0.8 -0.47,1.11 -0.31,0.31 -0.68,0.47 -1.1,0.47l-2.08 0c-0.43,0 -0.79,-0.16 -1.1,-0.47 -0.32,-0.31 -0.47,-0.69 -0.47,-1.11l0 -10.92 -9 -15.03c-0.17,-0.26 -0.26,-0.54 -0.26,-0.85 0,-0.43 0.16,-0.8 0.47,-1.12 0.31,-0.31 0.7,-0.47 1.15,-0.47l1.82 0c0.82,0 1.47,0.37 1.96,1.11z"/>
  <path class="fil4" d="M303.31 214.31c5.3,0 9.6,4.29 9.6,9.6 0,5.3 -4.3,9.6 -9.6,9.6 -5.3,0 -9.6,-4.3 -9.6,-9.6 0,-5.31 4.3,-9.6 9.6,-9.6z"/>
  <path class="fil1" d="M333.37 123.35c16.9,-0.31 25.55,-0.47 25.96,-0.47 10.45,0 19.61,1.43 27.5,4.27 7.88,2.84 14.18,6.79 18.89,11.85 4.71,5.06 8.22,10.71 10.52,16.96 2.3,6.25 3.46,13.1 3.46,20.53 0,16.11 -5.33,29.39 -15.98,39.82 -10.75,10.53 -25.96,15.8 -45.62,15.8 -0.92,0 -2.43,-0.02 -4.53,-0.07 -2.1,-0.06 -5.09,-0.11 -8.99,-0.16 -3.89,-0.05 -7.62,-0.08 -11.21,-0.08 -1.53,0 -2.87,-0.57 -3.99,-1.7 -1.13,-1.14 -1.69,-2.48 -1.69,-4.03l0 -96.99c0,-1.55 0.54,-2.89 1.61,-4.03 1.08,-1.13 2.43,-1.7 4.07,-1.7zm13.21 17.82l0 72.82c4.71,0.2 8.76,0.31 12.14,0.31 12.8,0 22.83,-3.41 30.1,-10.23 7.27,-6.82 10.91,-16.01 10.91,-27.58 0,-11.05 -3.61,-19.78 -10.83,-26.18 -7.22,-6.41 -17.18,-9.61 -29.88,-9.61 -3.99,0 -8.14,0.16 -12.44,0.47zm73.34 71.27l5.07 -5.43c1.13,-1.13 2.41,-1.7 3.84,-1.7 1.44,0 2.87,0.57 4.3,1.7 6.97,5.79 13.47,8.68 19.51,8.68 4.71,0 8.5,-1.14 11.37,-3.41 2.87,-2.27 4.3,-5.37 4.3,-9.3 0,-3.82 -1.66,-7.15 -4.99,-9.99 -3.33,-2.84 -7.4,-5.29 -12.21,-7.36 -4.82,-2.06 -9.6,-4.34 -14.37,-6.81 -4.76,-2.48 -8.8,-6.02 -12.13,-10.62 -3.33,-4.59 -4.99,-10.15 -4.99,-16.65 0,-8.47 3.07,-15.6 9.21,-21.38 5.94,-5.68 14.03,-8.52 24.27,-8.52 9.32,0 17.87,2.22 25.65,6.66 1.85,1.03 2.77,2.68 2.77,4.96 0,0.92 -0.26,1.8 -0.77,2.63l-2.92 5.11c-1.23,2.07 -2.92,3.1 -5.07,3.1 -1.12,0 -2.04,-0.21 -2.76,-0.62 -5.53,-2.68 -10.65,-4.03 -15.36,-4.03 -4.61,0 -8.27,1.09 -10.98,3.26 -2.72,2.17 -4.07,5.06 -4.07,8.67 0,3.51 1.2,6.56 3.61,9.14 2.4,2.59 5.4,4.63 8.98,6.12 3.58,1.5 7.5,3.28 11.75,5.35 4.25,2.06 8.17,4.21 11.75,6.43 3.59,2.22 6.58,5.42 8.99,9.6 2.4,4.19 3.61,9.12 3.61,14.8 0,8.99 -3.43,16.32 -10.29,22 -6.97,5.78 -15.52,8.68 -25.65,8.68 -11.88,0 -22.48,-4.39 -31.8,-13.17 -1.33,-1.04 -2,-2.53 -2,-4.5 0,-1.34 0.46,-2.47 1.38,-3.4z"/>
 </g>
</svg>
