<?xml version="1.0" encoding="UTF-8"?>
<!DOCTYPE svg PUBLIC "-//W3C//DTD SVG 1.1//EN" "http://www.w3.org/Graphics/SVG/1.1/DTD/svg11.dtd">
<!-- Creator: CorelDRAW 2020 -->
<svg xmlns="http://www.w3.org/2000/svg" xml:space="preserve" width="500px" height="140px" version="1.1" style="shape-rendering:geometricPrecision; text-rendering:geometricPrecision; image-rendering:optimizeQuality; fill-rule:evenodd; clip-rule:evenodd"
viewBox="0 0 500 140"
 xmlns:xlink="http://www.w3.org/1999/xlink"
 xmlns:xodm="http://www.corel.com/coreldraw/odm/2003">
 <defs>
  <style type="text/css">
   <![CDATA[
    .fil0 {fill:#2B2B2B}
   ]]>
  </style>
 </defs>
 <g id="Слой_x0020_1">
  <metadata id="CorelCorpID_0Corel-Layer"/>
  <g id="_1658540552">
   <path class="fil0" d="M320.42 84.68c4.78,-8.4 30.51,-40.12 37.14,-50.88l-26.62 0c-2.29,0.4 -23.87,30.26 -26.87,34.11 -4.02,5.16 -0.72,4.19 -10.24,4.19l0.01 -71.44 -23.78 -0.07 0.15 138.35 23.6 -0.21 0.25 -42.79 9.02 0.09 31.02 42.9 28.6 0.02c-0.84,-2.15 -3.59,-5.06 -5.13,-7.05l-37.15 -47.22z"/>
   <path class="fil0" d="M182.82 75.53c-1.12,-17.1 6.24,-24 22.65,-23.9 16.66,0.1 23.19,7.39 22.22,24.13l-44.87 -0.23zm-0.08 15.46c11.66,0 61.54,0.51 69.11,-0.15 0.63,-11.93 -0.52,-29.17 -5.93,-38.49 -10.69,-18.41 -33.37,-20.54 -53.43,-17.65 -11.08,1.6 -19.1,5.31 -24.31,11.52 -13.68,16.29 -16.05,68.86 3.65,84.94 13.59,11.1 54.74,10.43 68.7,1.44 8.83,-5.69 11.43,-13.17 11.44,-27.45l-24.5 0.04c0,13.7 -5.58,16.19 -22,16.19 -16.9,0 -22.72,-5.62 -22.72,-25.58l-0.01 -4.81z"/>
   <path class="fil0" d="M26.7 75.68c-1.01,-17.3 5.47,-24.05 22.22,-24.05 7.33,0 13.77,1.11 17.86,5.55 3.57,3.87 5.66,11.98 4.64,18.58l-44.72 -0.08zm19.34 45.7c-18.58,0 -19.42,-14.17 -19.42,-30.39l68.93 0c1.04,-16.22 -0.91,-36.6 -11.56,-46.63 -8.59,-8.09 -23.33,-10.56 -34.49,-10.56 -37.81,0 -47.64,17.14 -47.64,53.22 0,30.8 7.83,52.21 42.42,52.21 17.5,0 41.45,0.74 49.42,-17.25 1.98,-4.48 2.29,-11.55 2.29,-16.83l-24.19 -0.14c0,16.21 -9.32,16.37 -25.76,16.37z"/>
   <path class="fil0" d="M419 139.53c17.14,0 32.01,-3.57 38.03,-16.18 3.05,-6.37 4.26,-15.64 2.78,-23.38 -4.9,-25.57 -37.93,-21.19 -56.43,-24.59 -9.57,-1.76 -12.84,-4.56 -10.53,-16.17 1.5,-7.54 10.47,-8 18.67,-8 5.55,0 11.36,0.09 16.25,2.31 5.58,2.54 4.69,3.84 5.89,10.45l21.6 0.11c4.06,0 0.88,-12.38 -0.18,-14.89 -6.16,-14.43 -28.15,-14.34 -40.71,-14.93 -17.98,-0.84 -46.32,0.85 -46.32,25.86 0,10.56 -0.18,18.89 8.93,26.33 17.98,14.66 59.86,1.25 59.86,21.63 0,11.82 -7.69,14.32 -18.99,14.32 -16.54,0 -24.33,2.06 -25.33,-16.67l-24.62 0.14c0,5.93 -0.27,11.83 2.03,16.97 8.15,18.2 31.51,16.69 49.07,16.69z"/>
   <polygon class="fil0" points="114.68,138.95 138.7,138.95 138.71,0.46 114.53,0.46 "/>
   <path class="fil0" d="M477.87 5.01c7.82,-2.21 14.3,1.93 16.03,8.23 2.12,7.72 -2.74,14.31 -8,16.02 -16.65,5.42 -23.47,-19.9 -8.03,-24.25zm0.82 -4.27c-21.7,4.62 -14.84,37.49 6.32,32.87 15.02,-3.28 17.12,-22.4 6.5,-29.66 -3.47,-2.38 -7.76,-4.28 -12.82,-3.21z"/>
   <path class="fil0" d="M478.51 11.22c3.35,-0.2 6.26,-0.14 8.11,1.24 0.32,4.32 -2.17,4.22 -8.2,3.64l0.09 -4.88zm-3.81 14.84l3.55 0 0.23 -7.24 3.3 -0.1c1,1.45 3.24,5.56 4.11,7.34l3.77 0c-0.9,-2.78 -2.86,-4.81 -3.9,-7.6 2.53,-0.48 3.84,-0.73 4.46,-3 2.51,-9.22 -9.6,-7.27 -15.36,-7.27l-0.16 17.87z"/>
  </g>
 </g>
</svg>
