<?xml version="1.0" encoding="UTF-8"?>
<!DOCTYPE svg PUBLIC "-//W3C//DTD SVG 1.1//EN" "http://www.w3.org/Graphics/SVG/1.1/DTD/svg11.dtd">
<!-- Creator: CorelDRAW 2020 -->
<svg xmlns="http://www.w3.org/2000/svg" xml:space="preserve" width="520px" height="90px" version="1.1" style="shape-rendering:geometricPrecision; text-rendering:geometricPrecision; image-rendering:optimizeQuality; fill-rule:evenodd; clip-rule:evenodd"
viewBox="0 0 520 90"
 xmlns:xlink="http://www.w3.org/1999/xlink"
 xmlns:xodm="http://www.corel.com/coreldraw/odm/2003">
 <defs>
  <style type="text/css">
   <![CDATA[
    .fil0 {fill:#2B2B2B}
   ]]>
  </style>
 </defs>
 <g id="Слой_x0020_1">
  <metadata id="CorelCorpID_0Corel-Layer"/>
  <g id="_1204941984">
   <path class="fil0" d="M490.25 36.19c7.36,0 12.09,5.38 12.25,12.61l-26.72 0c0.29,-3.41 2.58,-6.9 4.54,-8.82 2.52,-2.48 6.46,-3.79 9.93,-3.79zm-30.8 17.07c0,7.56 -0.25,10.81 3.09,18.06 4.55,9.83 16.15,17.56 27.34,17.56 9.03,0 14.82,-0.59 22.8,-5.4 1.88,-1.14 3,-2.02 4.66,-3.14 -0.46,-1.96 -1.82,-3.65 -2.72,-5.43 -0.52,-1.02 -0.86,-1.83 -1.38,-2.71 -0.59,-1.01 -1.15,-1.62 -1.46,-2.99 -2.62,0.22 -9.78,8.67 -22.43,6.1 -7.49,-1.52 -13.94,-7.53 -13.94,-15.75l42.3 0 0.37 -8.16c0,-7.32 -3.59,-15.33 -7.32,-19.02 -6.92,-6.86 -12.24,-8.07 -21.99,-8.07 -8.38,0 -16.05,4.35 -20.32,8.63 -2.39,2.39 -4.62,5.31 -5.98,8.49 -1.29,3.01 -3.02,7.66 -3.02,11.83z"/>
   <path class="fil0" d="M306.2 36.19c2.87,0 6.83,1.67 8.59,3.65 1.75,1.95 3.2,5.43 3.28,8.96l-26.71 0c0.1,-1.25 1.07,-4.04 1.63,-5.04 1,-1.8 1.69,-2.61 3.09,-3.96 2.24,-2.17 5.87,-3.61 10.12,-3.61zm-0.74 52.69c7.54,0 10.34,0.1 17.6,-2.81 2.06,-0.82 3.41,-1.52 5.19,-2.59 1.88,-1.14 3.01,-2.02 4.67,-3.14 -0.51,-2.18 -5.16,-9.36 -5.57,-11.13 -2.55,0.21 -9.86,8.65 -22.42,6.1 -4.66,-0.95 -6.81,-2.48 -9.59,-5.26 -2.33,-2.32 -4.35,-5.95 -4.35,-10.49l42.3 0 0.37 -7.42c0,-10.98 -5.74,-21.11 -14.79,-25.28 -11.7,-5.38 -27.12,-2.36 -35.96,7.19l-3.31 4.48c-8.58,14.45 -5.58,34.06 8.15,44.31 4.13,3.09 11.85,6.04 17.71,6.04z"/>
   <path class="fil0" d="M414.93 87.39l18.55 0 22.26 -61.59 -16.7 0c-0.13,1.57 -1.17,4.09 -1.71,5.7l-5.66 16.98c-1.38,4.14 -7.03,19.85 -7.1,22.96 -0.98,-0.72 -0.79,-1.15 -1.12,-2.59 -0.95,-4.13 -5.09,-15.87 -6.53,-20.19l-7.56 -22.86 -16.33 0c0.12,1.46 2.05,6.09 2.65,7.74l13.82 38.13c0.64,1.83 5.3,14.26 5.43,15.72z"/>
   <path class="fil0" d="M249.05 69.95c0,2.89 -1.54,4.63 -4.3,5.35 -4.9,1.28 -10.33,-0.22 -14.63,-2.37 -3.45,-1.73 -3.32,-2.22 -5.56,-3.72 -1.49,1 -6.04,8.71 -7.42,10.76 4.33,2.9 2.12,2.48 9.52,6.07 5.56,2.7 10.6,2.84 16.83,2.84 20.54,0 31.57,-23.95 9.4,-35.01 -3.31,-1.65 -6.45,-2.92 -9.83,-4.27 -14.44,-5.76 -6.29,-11.93 -1.8,-11.93 8.69,0 10.23,0.86 16.7,5.2l5.7 -11.44c-2.78,-3.88 -12.96,-7.12 -19.06,-7.12 -6.37,0 -12.28,0.44 -17.52,4 -1.17,0.8 -2.63,1.78 -3.55,2.76 -3.98,4.24 -5.88,11.72 -2.9,18.33 2.31,5.11 8.23,8.77 13.47,11.01 4.02,1.73 14.95,5.15 14.95,9.54z"/>
   <path class="fil0" d="M65.74 56.22c0,-12.8 10.22,-23.37 23.01,-23.37 21.67,0 29.99,26.34 16.43,40.55 -13.68,14.33 -39.44,5.27 -39.44,-17.18zm-9.65 -0.37c0,5.12 0.99,10.04 2.84,13.86 3.47,7.14 7.92,12.4 15.21,15.96 12.42,6.07 28.21,3.54 37.9,-6.15 4.43,-4.43 9.36,-12.75 9.36,-21.44 0,-8.97 -0.94,-13.03 -5.71,-20.26 -0.69,-1.05 -0.78,-1.23 -1.62,-2.1 -3.32,-3.46 -5.93,-6.25 -10.85,-8.44 -22.05,-9.81 -47.13,4.95 -47.13,28.57z"/>
   <path class="fil0" d="M363.72 40.27c0,-1.88 0.37,-2.02 0.37,-4.08l0 -10.39 -15.22 0 0 61.59 15.59 0c0,-7.34 -0.56,-26.1 0.91,-32.49 1.72,-7.52 7.78,-14.63 15.79,-14.63l5.19 0 0 -15.22c-1.54,-0.03 -1.41,-0.37 -2.22,-0.37 -8.57,0 -15.55,5.32 -18.86,12.32 -0.28,0.59 -0.4,0.93 -0.68,1.55 -0.17,0.36 -0.19,0.44 -0.35,0.76l-0.52 0.96z"/>
   <path class="fil0" d="M4.14 40.27c0,15.9 13.63,16.98 25.11,22.76 3.05,1.53 7.55,3.76 7.55,8.04 0,11.04 -15.89,11.71 -26.13,4.6 -1.34,-0.93 -2.4,-1.97 -3.56,-2.75 -1.08,0.72 -4.3,5.34 -5.19,6.68 0.65,0.97 0.94,1.17 1.85,1.86 7.81,5.97 12.99,7.42 23.38,7.42 8.9,0 19.29,-6.91 19.29,-17.07 0,-21.46 -32.65,-17.21 -32.65,-30.43 0,-10.36 16.07,-10.37 23.91,-4.98 1.18,0.81 1.75,1.63 3.18,2.01 0.31,-1.14 3.31,-5.9 4.08,-7.05 -6.12,-6.45 -13.19,-7.05 -21.89,-7.05 -9.02,0 -18.93,7.09 -18.93,15.96z"/>
   <path class="fil0" d="M136.25 25.05l0 1.49 -8.17 0 0 8.16 8.17 0 0 52.69 9.64 0 0 -52.69 14.48 0c1.85,0 1.11,-3.16 1.11,-8.16l-15.59 0c0,-5.63 0.21,-12.47 6.17,-15.35 3.76,-1.82 5.67,-1.35 10.16,-1.35l0 -8.53c-3.77,0 -6.66,-1.3 -13.47,1.37 -3.42,1.33 -4.49,2.32 -6.85,4.65 -3.95,3.91 -5.65,10.02 -5.65,17.72z"/>
   <path class="fil0" d="M179.29 26.54l-8.16 0 0 8.16 8.16 0 0 32.66c0,11.89 8.04,21.52 19.67,21.52 8.37,0 6.68,1.88 6.68,-8.91 -2.35,0 -4.29,1.1 -9.24,-0.78 -1.61,-0.6 -2.88,-1.77 -4.04,-3.01 -2.13,-2.29 -3.42,-6.36 -3.42,-10.68l0 -30.8 15.58 0 0 -8.16 -15.58 0 0 -17.81 -9.65 0 0 17.81z"/>
  </g>
 </g>
</svg>
