<?xml version="1.0" encoding="UTF-8"?>
<!DOCTYPE svg PUBLIC "-//W3C//DTD SVG 1.1//EN" "http://www.w3.org/Graphics/SVG/1.1/DTD/svg11.dtd">
<!-- Creator: CorelDRAW 2020 -->
<svg xmlns="http://www.w3.org/2000/svg" xml:space="preserve" width="290px" height="290px" version="1.1" style="shape-rendering:geometricPrecision; text-rendering:geometricPrecision; image-rendering:optimizeQuality; fill-rule:evenodd; clip-rule:evenodd"
viewBox="0 0 290 290"
 xmlns:xlink="http://www.w3.org/1999/xlink"
 xmlns:xodm="http://www.corel.com/coreldraw/odm/2003">
 <defs>
  <style type="text/css">
   <![CDATA[
    .fil0 {fill:#2B2B2B}
   ]]>
  </style>
 </defs>
 <g id="Слой_x0020_1">
  <metadata id="CorelCorpID_0Corel-Layer"/>
  <path class="fil0" d="M122.47 287.93c0.34,-28.67 0.01,-58.81 0.01,-87.78 0,-2.59 -0.32,-10.82 0.15,-12.73l-36.57 -0.09 -0.07 -41.51 36.62 -0.03c-0.35,-1.48 -0.13,-18.87 -0.13,-21.88 0,-7.29 -0.21,-14.28 0.8,-21.39 3.52,-24.82 19.78,-40.84 44.74,-43.76 6.86,-0.8 14.23,-0.52 21.13,0 3.73,0.28 16.88,1.31 19.68,2.38l0.09 35.28c-14.98,0.24 -29.6,-2.28 -37.33,8 -5.41,7.19 -4.19,19.47 -4.19,29.83 0,3.56 -0.25,8.11 0.06,11.54l39.72 0 -6.31 41.5 -33.47 0.05 0 100.35c1.45,0 5.83,-0.85 7.33,-1.2l10.39 -2.59c1.26,-0.35 2.12,-0.69 3.32,-1.02l6.45 -2.2c15.88,-5.9 28.13,-13.29 40.95,-23.5 0.84,-0.67 1.54,-1.35 2.34,-1.99 3.18,-2.56 5.99,-5.31 8.88,-8.2l8.27 -9.05c17.14,-21.09 27.82,-43.95 31.84,-71.32l0.93 -7.73c0.38,-2.62 0.1,-5.63 0.48,-8.18 0.71,-4.69 -0.12,-8.78 -0.09,-12.61 0.05,-9.11 -3.08,-23.87 -5.68,-33.05 -2.54,-8.99 -5.95,-16.89 -9.8,-24.59 -2.71,-5.42 -6.2,-11.12 -9.64,-16.09 -1.26,-1.83 -2.29,-3.29 -3.61,-5.05l-4.78 -6.04c-0.41,-0.49 -0.61,-0.6 -1.03,-1.14 -1.79,-2.3 -8.62,-9.55 -10.58,-11.06 -1.76,-1.36 -6.01,-5.6 -9.13,-7.94 -7.59,-5.68 -14.93,-10.92 -23.52,-15.21 -5.86,-2.93 -8.71,-4.16 -14.83,-6.57 -16.48,-6.5 -37.32,-10.1 -55.07,-9.14 -1.37,0.08 -2.96,-0.12 -4.3,0.04 -2.49,0.28 -5.37,0.46 -7.95,0.7 -4.94,0.47 -10.19,1.47 -14.83,2.49 -9.68,2.13 -17.67,4.94 -25.97,8.42 -11.5,4.81 -26.66,14.1 -35.75,22.2 -0.51,0.45 -0.62,0.62 -1.15,1.02l-14.98 15.08c-0.7,0.82 -1.32,1.48 -2.02,2.31 -3.16,3.74 -8.28,10.94 -10.76,14.98 -1.97,3.21 -4.62,7.6 -6.31,11 -0.97,1.94 -1.8,3.8 -2.73,5.69 -2.23,4.52 -5.61,14.06 -7.06,18.92 -10.28,34.49 -6.65,70.88 7.47,101.17 0.98,2.11 1.72,3.85 2.8,5.86 0.56,1.03 0.96,1.69 1.52,2.8 0.48,0.96 1.03,1.87 1.57,2.76 1.11,1.83 2.1,3.63 3.27,5.39 1.2,1.78 2.26,3.42 3.47,5.19 2.53,3.73 4.79,6.36 7.51,9.81 0.39,0.49 0.53,0.57 0.91,1.01 0.46,0.51 0.48,0.67 0.97,1.2l4.1 4.55c1.94,2.33 4.48,4.28 6.61,6.38l4.56 4.09c1.48,1.38 3.03,2.57 4.6,3.83 1.66,1.32 3.21,2.39 4.98,3.67l10.46 6.86c5.37,3.08 8.67,4.69 14.09,7.31 6.3,3.05 15.69,6.06 22.4,7.91l14.17 3.07z"/>
 </g>
</svg>
