<svg width="121" height="121" viewBox="0 0 121 121" xmlns="http://www.w3.org/2000/svg">
<g clip-path="url(#clip0_2438_633)">
<path fill-rule="evenodd" clip-rule="evenodd" d="M22.6875 37.147C22.6875 38.5748 23.8854 39.9784 25.289 39.9784H42.0717V83.9377C42.0717 86.394 44.0682 87.9549 46.5608 87.9549H75.383C76.3994 87.9549 77.0407 86.4908 77.0407 85.3534V39.9784H95.711C96.9815 39.9784 98.3125 38.6111 98.3125 37.3769C98.3125 35.3199 94.0412 31.8109 91.9963 29.7539L89.5037 27.5154C86.2972 24.442 83.3206 21.3323 80.1746 18.1742L63.5129 1.9965C60.6936 -0.8349 60.3064 -0.5687 57.6081 1.8755C53.119 5.9532 44.0198 15.5001 42.229 16.9884C38.841 19.8198 34.9085 24.1395 31.6173 27.4065C29.7055 29.282 22.6875 35.1142 22.6875 37.147Z" fill="#58595B"/>
<path fill-rule="evenodd" clip-rule="evenodd" d="M43.0155 95.5174C43.0155 97.4413 43.6326 99.0627 46.3188 99.0627H74.6812C79.1582 99.0627 78.8315 93.3878 75.383 93.3878H45.617C44.2013 93.3878 43.0155 94.8156 43.0155 95.5174Z" fill="#58595B"/>
<path fill-rule="evenodd" clip-rule="evenodd" d="M43.0155 106.625C43.0155 108.912 43.56 110.171 47.2626 110.171H73.7374C80.0778 110.171 78.2507 104.496 75.625 104.496H45.375C43.8141 104.496 43.0155 106.299 43.0155 106.625Z" fill="#58595B"/>
<path fill-rule="evenodd" clip-rule="evenodd" d="M43.0155 117.975C43.0155 118.834 42.9187 119.536 43.9109 120.383C44.2618 120.685 44.9394 121.024 45.5565 121.036H75.4435C76.0606 121.024 76.7382 120.685 77.0891 120.383C78.7105 119.004 78.529 115.374 74.2093 115.374H46.7907C44.9152 115.374 43.0155 116.172 43.0155 117.975Z" fill="#58595B"/>
</g>
<defs>
<clipPath id="clip0_2438_633">
<rect width="121" height="121" fill="white"/>
</clipPath>
</defs>
</svg>
