<?xml version="1.0" encoding="UTF-8"?>
<!DOCTYPE svg PUBLIC "-//W3C//DTD SVG 1.1//EN" "http://www.w3.org/Graphics/SVG/1.1/DTD/svg11.dtd">
<!-- Creator: CorelDRAW 2020 -->
<svg xmlns="http://www.w3.org/2000/svg" xml:space="preserve" width="512px" height="512px" version="1.1" style="shape-rendering:geometricPrecision; text-rendering:geometricPrecision; image-rendering:optimizeQuality; fill-rule:evenodd; clip-rule:evenodd"
viewBox="0 0 512 512"
 xmlns:xlink="http://www.w3.org/1999/xlink"
 xmlns:xodm="http://www.corel.com/coreldraw/odm/2003">
 <defs>
  <style type="text/css">
   <![CDATA[
    .fil0 {fill:none}
    .fil2 {fill:#8BC751;fill-rule:nonzero}
    .fil1 {fill:white;fill-rule:nonzero}
   ]]>
  </style>
 </defs>
 <g id="Слой_x0020_1">
  <metadata id="CorelCorpID_0Corel-Layer"/>
  <rect class="fil0" width="512" height="512"/>
  <path class="fil1" d="M238.78 75.66c0.04,-0.01 3.34,-1.44 11.56,-1.83 -0.37,8.14 -1.78,11.46 -1.83,11.57l-0.95 2.05 11.77 0 2.25 -0.01 -0.94 -2.05c-0.02,-0.03 -1.49,-3.33 -1.87,-11.56 8.26,0.38 11.58,1.82 11.61,1.83l2.05 0.95 -0.01 -14 -2.04 0.94c-0.04,0 -3.37,1.48 -11.62,1.87 0.39,-8.25 1.86,-11.57 1.88,-11.6l0.97 -2.07 -14.01 0.01 0.91 2.04c0.01,0.04 1.45,3.36 1.83,11.61 -8.22,-0.4 -11.52,-1.86 -11.53,-1.86l-2.07 -0.98 0 14 2.04 -0.91z"/>
  <polygon class="fil1" points="483.12,161.52 26.05,161.52 26.05,174.36 483.12,174.36 "/>
  <path class="fil1" d="M199.7 106.35c21.22,0 31.81,14.9 31.81,14.9l15.98 0c0,0 -11.29,-27.9 -47.36,-27.9 -45.92,0 -56.92,29.48 -130,29.48 -18.28,0 -43.39,-2.17 -44.08,-2.17l-0.01 12.55c0,0 14.13,2.59 43.26,2.59 82.67,0 88.87,-29.45 130.4,-29.45z"/>
  <path class="fil1" d="M261.68 121.25l15.98 0c0,0 10.59,-14.9 31.8,-14.9 41.54,0 47.74,29.45 130.41,29.45 29.13,0 43.25,-2.6 43.25,-2.6l0 -12.54c-0.69,0 -25.81,2.17 -44.08,2.17 -73.09,0 -84.08,-29.48 -130,-29.48 -36.07,0 -47.36,27.9 -47.36,27.9z"/>
  <path class="fil1" d="M437.28 383.47l-17.63 26.51 -17.62 -26.51c-1.66,-2.44 -4.98,-3.07 -7.42,-1.41 -2.45,1.65 -3.07,4.98 -1.42,7.42l21.12 31.04 0 20.36c0,2.95 2.39,5.34 5.34,5.34 2.96,0 5.35,-2.39 5.35,-5.34l0 -20.36 21.11 -31.04c1.67,-2.44 1.03,-5.77 -1.41,-7.42 -2.43,-1.66 -5.76,-1.03 -7.42,1.41z"/>
  <path class="fil1" d="M263.22 381.59c-2.95,0 -5.34,2.39 -5.34,5.34 0,0 -0.02,27.96 -0.02,36.15 0,6.96 -7.35,13.07 -16.61,13.07 -9.97,0 -16.61,-6.82 -16.61,-13.19 0,-8.19 -0.02,-36.03 -0.02,-36.03 0,-2.95 -2.39,-5.34 -5.34,-5.34 -2.96,0 -5.34,2.39 -5.34,5.34 0,0 0.01,27.71 0.01,35.13 0,14.83 12.7,24.77 27.3,24.77 14.58,0 27.29,-9.91 27.29,-24.77 0,-3.06 0.02,-35.13 0.02,-35.13 0,-2.95 -2.39,-5.34 -5.34,-5.34z"/>
  <path class="fil1" d="M111.76 255.01c-0.05,-5.73 -0.08,-10.79 -0.08,-13.25 0.01,-1.99 0.02,-8.05 10.83,-8.13l6.3 -0.05 0.17 0c9.1,0 12.4,5.29 12.43,10.27 0.03,2.88 -1.06,5.5 -3.04,7.39 -2.49,2.36 -6.39,3.62 -11.27,3.66l-15.34 0.11zm33.96 3.99c4.17,-3.95 6.43,-9.36 6.39,-15.24 -0.09,-10.08 -7.35,-20.87 -23.13,-20.87l-0.25 0 -6.29 0.05c-13.2,0.09 -21.42,7.3 -21.45,18.8 -0.02,7.7 0.32,39.36 0.33,40.7 0.03,2.94 2.41,5.29 5.34,5.29l0.07 0c2.95,-0.03 5.32,-2.45 5.28,-5.4 0,-0.16 -0.16,-16.63 -0.16,-16.63l15.32 -0.11c7.64,-0.05 14.06,-2.33 18.55,-6.59z"/>
  <path class="fil1" d="M367.05 233.35c2.96,0 5.35,-2.4 5.35,-5.35 0,-2.95 -2.39,-5.35 -5.35,-5.35l-36.05 0c-2.95,0 -5.33,2.39 -5.34,5.34 0,1.34 -0.08,33 0,40.7 0.11,11.5 8.39,18.65 21.59,18.65l19.8 0c2.96,0 5.35,-2.4 5.35,-5.35 0,-2.96 -2.39,-5.35 -5.35,-5.35l-19.8 0c-10.82,0 -10.88,-6.06 -10.9,-8.06 -0.02,-1.81 -0.03,-5.06 -0.03,-8.94l25.7 0c2.95,0 5.35,-2.39 5.35,-5.35 0,-2.95 -2.4,-5.34 -5.35,-5.34l-25.7 0c0,-5.8 0.01,-11.59 0.01,-15.6l30.72 0z"/>
  <path class="fil1" d="M64.67 381.6l-17.36 0c-13.19,0 -21.46,7.14 -21.57,18.63 -0.08,7.69 0,39.33 0,40.67 0,2.94 2.39,5.33 5.34,5.33l0.01 0c2.95,-0.01 5.34,-2.41 5.33,-5.36 0,-0.19 -0.03,-11.29 -0.03,-22.05l25.07 0c2.96,0 5.35,-2.39 5.35,-5.34 0,-2.95 -2.39,-5.35 -5.35,-5.35l-25.07 0c0,-3.36 0.01,-6.16 0.03,-7.79 0.02,-1.99 0.08,-8.05 10.89,-8.05l17.36 0c2.95,0 5.34,-2.39 5.34,-5.34 0,-2.96 -2.39,-5.35 -5.34,-5.35z"/>
  <path class="fil1" d="M205 250.51c-2.47,2.51 -6.46,3.86 -11.52,3.9l-15.34 0.11c-0.05,-5.73 -0.07,-10.79 -0.07,-13.24 0,-2 0.02,-8.06 10.83,-8.14l6.3 -0.05 0.17 0c9.1,0 12.39,5.29 12.43,10.27 0.01,1.95 -0.46,4.77 -2.8,7.15zm-9.63 -28.11l-0.25 0 -6.29 0.05c-13.21,0.1 -21.43,7.3 -21.46,18.8 -0.01,7.71 0.32,39.36 0.34,40.71 0.03,2.93 2.41,5.29 5.34,5.29l0.06 0c2.95,-0.03 5.32,-2.45 5.29,-5.41 0,-0.16 -0.17,-16.63 -0.17,-16.63l15.33 -0.11c10.05,-0.07 15.91,-3.89 19.06,-7.09 3.83,-3.89 5.92,-9.12 5.87,-14.73 -0.08,-10.09 -7.35,-20.88 -23.12,-20.88z"/>
  <path class="fil1" d="M275.51 276.64l-17.68 0c-10.82,0 -10.88,-6.06 -10.9,-8.05 -0.08,-7.64 0,-40.25 0,-40.58 0.01,-2.95 -2.38,-5.35 -5.33,-5.36l-0.02 0c-2.94,0 -5.33,2.39 -5.34,5.34 -0.01,1.34 -0.08,33 0,40.71 0.11,11.49 8.39,18.64 21.59,18.64l17.68 0c2.95,0 5.34,-2.4 5.34,-5.35 0,-2.95 -2.39,-5.35 -5.34,-5.35z"/>
  <path class="fil1" d="M302.95 281.99l0 -53.99c0,-2.95 -2.39,-5.34 -5.34,-5.34 -2.95,0 -5.35,2.39 -5.35,5.34l0 53.99c0,2.95 2.4,5.34 5.35,5.34 2.95,0 5.34,-2.39 5.34,-5.34z"/>
  <path class="fil1" d="M201.75 312.62c2.95,0 5.34,-2.38 5.34,-5.33 0,-2.95 -2.39,-5.34 -5.34,-5.34l-30.35 0c-2.94,0 -5.33,2.39 -5.34,5.33 0,1.34 -0.07,32.94 0,40.63 0.12,11.47 8.38,18.6 21.56,18.6l14.13 0c2.95,0 5.34,-2.39 5.34,-5.33 0,-2.95 -2.39,-5.34 -5.34,-5.34l-14.13 0c-10.8,0 -10.86,-6.06 -10.89,-8.04 -0.01,-1.82 -0.02,-5.06 -0.03,-8.93l20.65 0c2.94,0 5.33,-2.39 5.33,-5.34 0,-2.94 -2.39,-5.33 -5.33,-5.33l-20.65 0c0.01,-5.79 0.02,-11.57 0.03,-15.58l25.02 0z"/>
  <path class="fil1" d="M142.23 301.95c-2.94,0 -5.33,2.39 -5.33,5.34l0 53.89c0,2.94 2.39,5.33 5.33,5.33 2.95,0 5.34,-2.39 5.34,-5.33l0 -53.89c0,-2.95 -2.39,-5.34 -5.34,-5.34z"/>
  <path class="fil1" d="M326.83 435.54l-20.8 0c-10.81,0 -10.88,-6.06 -10.9,-8.05 -0.07,-7.62 0,-40.21 0,-40.53 0.01,-2.95 -2.37,-5.35 -5.32,-5.36l-0.02 0c-2.94,0 -5.33,2.39 -5.34,5.33 0,1.35 -0.08,32.98 0,40.67 0.12,11.49 8.39,18.63 21.58,18.63l20.8 0c2.94,0 5.34,-2.39 5.34,-5.34 0,-2.96 -2.4,-5.35 -5.34,-5.35z"/>
  <path class="fil1" d="M416.83 276.64l-14.61 0 0 -43.29 14.61 0c12.95,0 19.52,7.28 19.52,21.65 0,14.36 -6.57,21.64 -19.52,21.64zm0 -53.98l-19.95 0c-2.96,0 -5.35,2.39 -5.35,5.34l0 53.99c0,2.95 2.39,5.35 5.35,5.35l19.95 0c18.92,0 30.21,-12.09 30.21,-32.34 0,-20.25 -11.29,-32.34 -30.21,-32.34z"/>
  <path class="fil1" d="M380.64 381l-50.09 0c-2.95,0 -5.34,2.39 -5.34,5.34 0,2.95 2.39,5.34 5.34,5.34l19.7 0 0 49.21c0,2.95 2.39,5.34 5.35,5.34 2.94,0 5.34,-2.39 5.34,-5.34l0 -49.21 19.7 0c2.95,0 5.33,-2.39 5.33,-5.34 0,-2.95 -2.38,-5.34 -5.33,-5.34z"/>
  <path class="fil1" d="M45.2 255.86c3.28,-9.12 6.08,-16.79 6.77,-18.5 1.57,-3.83 3.13,-3.83 3.81,-3.83 1.05,0 2.25,0 3.81,3.83 0.69,1.71 3.49,9.38 6.77,18.5l-21.16 0zm36.43 32.03c0.61,0 1.21,-0.1 1.82,-0.32 2.8,-1 4.27,-4.09 3.27,-6.9 -0.62,-1.74 -15.25,-42.77 -17.13,-47.39 -2.86,-7 -7.5,-10.55 -13.81,-10.55 -3.55,0 -10.06,1.37 -13.81,10.55 -1.88,4.62 -16.51,45.65 -17.13,47.39 -1,2.81 0.46,5.9 3.28,6.9 2.8,1 5.89,-0.46 6.89,-3.27 1.72,-4.83 3.99,-11.17 6.31,-17.64l28.92 0c2.32,6.47 4.59,12.81 6.31,17.64 0.79,2.21 2.86,3.59 5.08,3.59z"/>
  <path class="fil1" d="M107.99 312.61c3.67,0 7,1.38 7,1.38 2.71,1.17 5.85,-0.08 7.02,-2.79 1.16,-2.71 -0.09,-5.85 -2.8,-7.01 -0.53,-0.23 -5.39,-2.24 -11.22,-2.24 -18.88,0 -30.15,12.06 -30.15,32.27 0,20.21 11.27,32.28 30.15,32.28 5.83,0 10.69,-2.02 11.23,-2.25 2.69,-1.16 3.93,-4.28 2.78,-6.98 -1.15,-2.71 -4.27,-3.97 -6.98,-2.83 0,0 -3.36,1.39 -7.03,1.39 -12.92,0 -19.47,-7.27 -19.47,-21.61 0,-14.34 6.55,-21.61 19.47,-21.61z"/>
  <path class="fil1" d="M320.18 312.61c3.67,0 6.99,1.38 6.99,1.38 2.71,1.17 5.86,-0.08 7.02,-2.79 1.17,-2.7 -0.08,-5.85 -2.79,-7.01 -0.54,-0.23 -5.39,-2.25 -11.22,-2.25 -18.88,0 -30.14,12.07 -30.14,32.28 0,20.21 11.26,32.28 30.14,32.28 5.83,0 10.68,-2.02 11.22,-2.25 2.7,-1.16 3.94,-4.28 2.79,-6.98 -1.15,-2.71 -4.28,-3.97 -6.99,-2.83 0,0 -3.35,1.39 -7.02,1.39 -12.92,0 -19.48,-7.27 -19.48,-21.61 0,-14.33 6.56,-21.61 19.48,-21.61z"/>
  <path class="fil1" d="M181.49 392.28c5.36,0 10.46,2.89 10.46,2.89 2.58,1.5 5.85,0.65 7.34,-1.9 1.49,-2.55 0.63,-5.82 -1.92,-7.31 -0.76,-0.45 -7.71,-4.36 -15.88,-4.36 -18.9,0 -30.18,12.07 -30.18,32.31 0,20.23 11.28,32.31 30.18,32.31 8.11,0 15.09,-3.91 15.86,-4.35 2.55,-1.48 3.41,-4.73 1.95,-7.28 -1.46,-2.55 -4.73,-3.44 -7.29,-1.98 0,0 -5.2,2.93 -10.52,2.93 -12.94,0 -19.5,-7.28 -19.5,-21.63 0,-14.35 6.56,-21.63 19.5,-21.63z"/>
  <path class="fil1" d="M270.07 301.95c-2.95,0 -5.34,2.39 -5.34,5.34l0 23.56 0.37 16.09 -1.26 -2.06c-3.96,-5.5 -22.36,-31.11 -29.09,-40.52 -0.76,-1.07 -2.62,-2.41 -4.67,-2.41 -2.95,0 -5.34,2.39 -5.34,5.34l0 53.89c0,2.94 2.39,5.33 5.34,5.33 2.94,0 5.33,-2.39 5.33,-5.33l0 -25.04 -0.34 -14.56 1.27 2.06c4.05,5.63 22.42,31.2 29.05,40.47 0.76,1.07 2.7,2.4 4.68,2.4 2.94,0 5.33,-2.39 5.33,-5.33l0 -53.89c0,-2.95 -2.39,-5.34 -5.33,-5.34z"/>
  <path class="fil1" d="M97.45 414.47c3.29,-9.12 6.08,-16.78 6.78,-18.49 1.56,-3.83 3.13,-3.83 3.8,-3.83 1.05,0 2.24,0 3.81,3.83 0.69,1.71 3.48,9.37 6.76,18.49l-21.15 0zm24.37 -22.57c-2.85,-6.99 -7.49,-10.54 -13.79,-10.54 -3.55,0 -10.06,1.37 -13.8,10.54 -1.87,4.62 -16.49,45.61 -17.11,47.35 -1,2.81 0.46,5.89 3.26,6.89 2.81,1.01 5.9,-0.46 6.9,-3.26 1.72,-4.83 3.98,-11.16 6.3,-17.62l28.9 0c2.32,6.46 4.58,12.79 6.3,17.62 0.79,2.2 2.87,3.58 5.08,3.58 0.6,0 1.21,-0.1 1.81,-0.32 2.81,-1 4.27,-4.08 3.27,-6.89 -0.62,-1.74 -15.23,-42.73 -17.12,-47.35z"/>
  <path class="fil1" d="M386.3 312.63c2.95,0 5.34,-2.39 5.34,-5.34 0,-2.95 -2.39,-5.34 -5.34,-5.34l-30.35 0c-2.94,0 -5.33,2.38 -5.34,5.32 0,1.35 -0.08,32.95 0,40.63 0.12,11.48 8.38,18.61 21.56,18.61l14.13 0c2.95,0 5.34,-2.39 5.34,-5.33 0,-2.95 -2.39,-5.34 -5.34,-5.34l-14.13 0c-10.8,0 -10.86,-6.06 -10.88,-8.04 -0.02,-1.82 -0.04,-8.93 -0.04,-8.93l20.65 0c2.95,0 5.33,-2.39 5.33,-5.34 0,-2.94 -2.38,-5.33 -5.33,-5.33l-20.65 0 0.03 -15.57 25.02 0z"/>
  <path class="fil1" d="M424.18 356.82c-5.4,0 -9.97,-1.94 -12.52,-5.3 -1.11,-1.46 -2.64,-2.27 -4.31,-2.27 -2.74,0 -5.67,2.1 -5.67,5.22 0,4.38 7.49,12.19 22.42,12.19 14.9,0 22.94,-9.46 22.94,-18.36 0,-6.94 -4.58,-13.08 -12.87,-17.33 -2.11,-1.06 -4.77,-2.28 -7.34,-3.46l-0.42 -0.19c-2.27,-1.04 -4.42,-2.02 -6.08,-2.85 -3.57,-1.73 -5.79,-4.32 -5.79,-6.76 0,-3.18 3.41,-6.47 9.11,-6.47 4.17,0 7.47,1.22 9.81,3.62 1.31,1.38 2.93,2.14 4.55,2.14 2.97,0 5.49,-2.43 5.49,-5.29 0,-4.12 -6.87,-9.81 -19.76,-9.81 -12.91,0 -19.66,8.11 -19.66,16.14 0,6.49 4.35,12.2 11.66,15.28 4.56,1.92 9.11,4.25 13.35,6.48 4.31,2.24 7,5.61 7,8.81 0,2.13 -2.18,8.21 -11.91,8.21z"/>
  <path class="fil1" d="M46.11 356.82c-5.41,0 -9.97,-1.94 -12.53,-5.31 -1.11,-1.45 -2.64,-2.26 -4.31,-2.26 -2.73,0 -5.66,2.1 -5.66,5.22 0,4.38 7.49,12.19 22.41,12.19 14.91,0 22.94,-9.46 22.94,-18.36 0,-6.93 -4.57,-13.09 -12.87,-17.33 -2.26,-1.14 -5.22,-2.48 -7.59,-3.57l-0.14 -0.07c-2.29,-1.04 -4.43,-2.03 -6.1,-2.86 -3.57,-1.73 -5.79,-4.32 -5.79,-6.76 0,-3.18 3.41,-6.47 9.11,-6.47 4.16,0 7.47,1.22 9.8,3.62 1.32,1.38 2.93,2.14 4.55,2.14 2.97,0 5.49,-2.42 5.49,-5.29 0,-4.12 -6.87,-9.81 -19.75,-9.81 -12.91,0 -19.67,8.11 -19.67,16.14 0,6.49 4.36,12.2 11.67,15.28 4.54,1.91 9.1,4.24 13.34,6.48 4.32,2.24 7.01,5.61 7.01,8.81 0,2.13 -2.19,8.21 -11.91,8.21z"/>
  <path class="fil2" d="M467.72 407.15c-11.43,0 -20.68,9.25 -20.68,20.67 0,11.42 9.25,20.67 20.68,20.67 11.41,0 20.67,-9.25 20.67,-20.67 0,-11.42 -9.26,-20.67 -20.67,-20.67z"/>
 </g>
</svg>
