<svg width="88" height="68" viewBox="0 0 88 68" fill="none" xmlns="http://www.w3.org/2000/svg">
<path fill-rule="evenodd" clip-rule="evenodd" d="M1.32064 10.1502C1.79871 10.1502 2.18332 9.76576 2.18332 9.28793C2.18332 8.81009 1.79871 8.42566 1.32064 8.42566C0.842568 8.42566 0.454346 8.81009 0.454346 9.28793C0.454346 9.76576 0.842568 10.1502 1.32064 10.1502ZM1.32064 21.6721C1.79871 21.6721 2.18332 21.2841 2.18332 20.8063C2.18332 20.332 1.79871 19.944 1.32064 19.944C0.842568 19.944 0.454346 20.332 0.454346 20.8063C0.454346 21.2841 0.842568 21.6721 1.32064 21.6721ZM13.711 9.28793C13.711 9.76576 13.3228 10.1502 12.8447 10.1502C12.3702 10.1502 11.982 9.76576 11.982 9.28793C11.982 8.81009 12.3702 8.42566 12.8447 8.42566C13.3228 8.42566 13.711 8.81009 13.711 9.28793ZM12.8447 21.6721C13.3228 21.6721 13.711 21.2841 13.711 20.8063C13.711 20.332 13.3228 19.944 12.8447 19.944C12.3702 19.944 11.982 20.332 11.982 20.8063C11.982 21.2841 12.3702 21.6721 12.8447 21.6721ZM24.4191 10.1502H24.3724C23.8943 10.1502 23.5097 9.76576 23.5097 9.28793C23.5097 8.81009 23.8943 8.42566 24.3724 8.42566C24.7103 8.42566 25.0014 8.61608 25.1452 8.8999C24.8828 9.30229 24.642 9.71906 24.4191 10.1502ZM23.5097 20.8673C23.5205 21.0182 23.5708 21.1583 23.6463 21.2769C23.5996 21.1404 23.5528 21.0038 23.5097 20.8673ZM59.8145 9.28793C59.8145 9.76576 59.4299 10.1502 58.9518 10.1502C58.4737 10.1502 58.0855 9.76576 58.0855 9.28793C58.0855 8.81009 58.4737 8.42566 58.9518 8.42566C59.4299 8.42566 59.8145 8.81009 59.8145 9.28793ZM58.9518 21.6721C59.4299 21.6721 59.8145 21.2841 59.8145 20.8063C59.8145 20.332 59.4299 19.944 58.9518 19.944C58.4737 19.944 58.0855 20.332 58.0855 20.8063C58.0855 21.2841 58.4737 21.6721 58.9518 21.6721ZM2.18332 32.3282C2.18332 32.806 1.79871 33.1904 1.32064 33.1904C0.842568 33.1904 0.454346 32.806 0.454346 32.3282C0.454346 31.8503 0.842568 31.4623 1.32064 31.4623C1.79871 31.4623 2.18332 31.8503 2.18332 32.3282ZM12.8447 33.1904C13.3228 33.1904 13.711 32.806 13.711 32.3282C13.711 31.8503 13.3228 31.4623 12.8447 31.4623C12.3702 31.4623 11.982 31.8503 11.982 32.3282C11.982 32.806 12.3702 33.1904 12.8447 33.1904ZM25.2387 32.3282C25.2387 32.806 24.8505 33.1904 24.3724 33.1904C23.8943 33.1904 23.5097 32.806 23.5097 32.3282C23.5097 31.8503 23.8943 31.4623 24.3724 31.4623C24.8505 31.4623 25.2387 31.8503 25.2387 32.3282ZM35.9001 33.1904C36.3745 33.1904 36.7627 32.806 36.7627 32.3282C36.7627 31.8503 36.3745 31.4623 35.9001 31.4623C35.422 31.4623 35.0338 31.8503 35.0338 32.3282C35.0338 32.806 35.422 33.1904 35.9001 33.1904ZM2.18332 43.8465C2.18332 44.3243 1.79871 44.7123 1.32064 44.7123C0.842568 44.7123 0.454346 44.3243 0.454346 43.8465C0.454346 43.3687 0.842568 42.9842 1.32064 42.9842C1.79871 42.9842 2.18332 43.3687 2.18332 43.8465ZM12.8447 44.7123C13.3228 44.7123 13.711 44.3243 13.711 43.8465C13.711 43.3687 13.3228 42.9842 12.8447 42.9842C12.3702 42.9842 11.982 43.3687 11.982 43.8465C11.982 44.3243 12.3702 44.7123 12.8447 44.7123ZM25.2387 43.8465C25.2387 44.3243 24.8505 44.7123 24.3724 44.7123C23.8943 44.7123 23.5097 44.3243 23.5097 43.8465C23.5097 43.3687 23.8943 42.9842 24.3724 42.9842C24.8505 42.9842 25.2387 43.3687 25.2387 43.8465ZM35.9001 44.7123C36.3745 44.7123 36.7627 44.3243 36.7627 43.8465C36.7627 43.3687 36.3745 42.9842 35.9001 42.9842C35.422 42.9842 35.0338 43.3687 35.0338 43.8465C35.0338 44.3243 35.422 44.7123 35.9001 44.7123ZM2.18332 55.3684C2.18332 55.8463 1.79871 56.2343 1.32064 56.2343C0.842568 56.2343 0.454346 55.8463 0.454346 55.3684C0.454346 54.8906 0.842568 54.5061 1.32064 54.5061C1.79871 54.5061 2.18332 54.8906 2.18332 55.3684ZM12.8447 56.2343C13.3228 56.2343 13.711 55.8463 13.711 55.3684C13.711 54.8906 13.3228 54.5061 12.8447 54.5061C12.3702 54.5061 11.982 54.8906 11.982 55.3684C11.982 55.8463 12.3702 56.2343 12.8447 56.2343ZM25.2387 55.3684C25.2387 55.8463 24.8505 56.2343 24.3724 56.2343C23.8943 56.2343 23.5097 55.8463 23.5097 55.3684C23.5097 54.8906 23.8943 54.5061 24.3724 54.5061C24.8505 54.5061 25.2387 54.8906 25.2387 55.3684ZM35.9001 56.2343C36.3745 56.2343 36.7627 55.8463 36.7627 55.3684C36.7627 54.8906 36.3745 54.5061 35.9001 54.5061C35.422 54.5061 35.0338 54.8906 35.0338 55.3684C35.0338 55.8463 35.422 56.2343 35.9001 56.2343ZM48.2904 55.3684C48.2904 55.8463 47.9022 56.2343 47.4241 56.2343C46.9461 56.2343 46.5615 55.8463 46.5615 55.3684C46.5615 54.8906 46.9461 54.5061 47.4241 54.5061C47.9022 54.5061 48.2904 54.8906 48.2904 55.3684ZM58.9518 56.2343C59.4299 56.2343 59.8145 55.8463 59.8145 55.3684C59.8145 54.8906 59.4299 54.5061 58.9518 54.5061C58.4737 54.5061 58.0855 54.8906 58.0855 55.3684C58.0855 55.8463 58.4737 56.2343 58.9518 56.2343ZM2.18332 66.8867C2.18332 67.3646 1.79871 67.7526 1.32064 67.7526C0.842568 67.7526 0.454346 67.3646 0.454346 66.8867C0.454346 66.4125 0.842568 66.0245 1.32064 66.0245C1.79871 66.0245 2.18332 66.4125 2.18332 66.8867ZM12.8447 67.7526C13.3228 67.7526 13.711 67.3646 13.711 66.8867C13.711 66.4125 13.3228 66.0245 12.8447 66.0245C12.3702 66.0245 11.982 66.4125 11.982 66.8867C11.982 67.3646 12.3702 67.7526 12.8447 67.7526ZM25.2387 66.8867C25.2387 67.3646 24.8505 67.7526 24.3724 67.7526C23.8943 67.7526 23.5097 67.3646 23.5097 66.8867C23.5097 66.4125 23.8943 66.0245 24.3724 66.0245C24.8505 66.0245 25.2387 66.4125 25.2387 66.8867ZM35.9001 67.7526C36.3745 67.7526 36.7627 67.3646 36.7627 66.8867C36.7627 66.4125 36.3745 66.0245 35.9001 66.0245C35.422 66.0245 35.0338 66.4125 35.0338 66.8867C35.0338 67.3646 35.422 67.7526 35.9001 67.7526ZM48.2904 66.8867C48.2904 67.3646 47.9022 67.7526 47.4241 67.7526C46.9461 67.7526 46.5615 67.3646 46.5615 66.8867C46.5615 66.4125 46.9461 66.0245 47.4241 66.0245C47.9022 66.0245 48.2904 66.4125 48.2904 66.8867ZM58.9518 67.7526C59.4299 67.7526 59.8145 67.3646 59.8145 66.8867C59.8145 66.4125 59.4299 66.0245 58.9518 66.0245C58.4737 66.0245 58.0855 66.4125 58.0855 66.8867C58.0855 67.3646 58.4737 67.7526 58.9518 67.7526Z" fill="#828282"/>
<path d="M52.1796 45.1793C53.6605 45.1793 54.9833 44.5219 55.9395 43.4656C56.9279 42.3806 57.5318 40.8788 57.5318 39.2369C57.5318 37.5987 56.9279 36.0969 55.9395 35.0119C54.9833 33.9556 53.6605 33.2982 52.1796 33.2982C50.7022 33.2982 49.3794 33.9556 48.4197 35.0119C47.4348 36.0969 46.8309 37.5987 46.8309 39.2369C46.8309 40.8788 47.4348 42.3806 48.4197 43.4656C49.3794 44.5219 50.7022 45.1793 52.1796 45.1793Z" fill="#8BC34A"/>
<path d="M52.1796 56.4714C52.6973 56.4714 53.2616 56.4858 53.8439 56.5073C54.4154 56.5289 54.9474 56.554 55.4758 56.5792L56.0689 56.6079C56.698 56.6367 57.3126 56.6654 57.8734 56.6726C58.4377 56.6798 58.9841 56.6726 59.5017 56.6367C59.987 56.6007 60.4579 56.5397 60.882 56.4319C61.2846 56.3313 61.6476 56.1876 61.9496 55.99C62.2551 55.7852 62.4924 55.5301 62.6469 55.2211C62.8015 54.9121 62.8806 54.5385 62.8806 54.093C62.8806 53.2236 62.5679 52.4116 62.043 51.6787C61.432 50.8236 60.5333 50.0763 59.5017 49.4691C58.4809 48.8727 57.2947 48.3877 56.033 48.0608C54.7965 47.7374 53.4845 47.5578 52.1796 47.5578C50.8784 47.5578 49.5664 47.7374 48.3299 48.0608C47.0682 48.3877 45.882 48.8727 44.8612 49.4691C43.8295 50.0727 42.9309 50.8236 42.3198 51.6787C41.795 52.4116 41.4823 53.2272 41.4823 54.093C41.4823 54.5385 41.5614 54.9121 41.716 55.2211C41.8705 55.5301 42.1078 55.7852 42.4133 55.99C42.7152 56.1876 43.0783 56.3313 43.4809 56.4319C43.905 56.5397 44.3759 56.6007 44.8612 56.6367C45.3788 56.6726 45.9251 56.6798 46.4895 56.6726C47.0502 56.6654 47.6649 56.6367 48.2939 56.6079L48.8871 56.5792C49.4155 56.554 49.9474 56.5289 50.519 56.5073C51.1013 56.4858 51.662 56.4714 52.1796 56.4714Z" fill="#8BC34A"/>
<path d="M75.9971 24.4565C79.1238 24.4565 81.6585 21.6399 81.6585 18.1656C81.6585 14.6912 79.1238 11.8747 75.9971 11.8747C72.8704 11.8747 70.3357 14.6912 70.3357 18.1656C70.3357 21.6399 72.8704 24.4565 75.9971 24.4565Z" fill="#262F56"/>
<path d="M87.3235 33.8874C87.3235 37.71 81.5579 36.4059 75.9972 36.4059C70.4364 36.4059 64.6708 37.71 64.6708 33.8874C64.6708 30.0683 70.4364 26.9714 75.9972 26.9714C81.5579 26.9714 87.3235 30.0683 87.3235 33.8874Z" fill="#262F56"/>
<path d="M37.0791 14.0555C40.573 14.0555 43.3049 10.9298 43.3049 7.20409C43.3049 3.47841 40.573 0.352722 37.0791 0.352722C33.5852 0.352722 30.8534 3.47841 30.8534 7.20409C30.8534 10.9298 33.5852 14.0555 37.0791 14.0555Z" fill="#8BC34A"/>
<path d="M37.0792 26.0049C38.2366 26.0049 39.4048 26.0624 40.5407 26.1199C40.7492 26.127 40.9613 26.1378 41.1697 26.1486C42.4889 26.2097 43.7614 26.2564 44.8685 26.1774C45.9613 26.1019 46.9749 25.8971 47.7298 25.4013C48.5278 24.8732 48.9663 24.0541 48.9663 22.9259C48.9663 20.72 47.3164 18.841 45.113 17.5512C42.8843 16.247 39.9548 15.4459 37.0792 15.4459C34.2035 15.4459 31.274 16.247 29.0454 17.5512C26.8419 18.841 25.192 20.72 25.192 22.9259C25.192 24.0541 25.6306 24.8732 26.4321 25.4013C27.1834 25.8971 28.1971 26.1019 29.2934 26.1774C30.3969 26.2564 31.6694 26.2097 32.9922 26.1486C33.1971 26.1378 33.4091 26.127 33.6212 26.1199C34.7571 26.0624 35.9217 26.0049 37.0792 26.0049Z" fill="#8BC34A"/>
<path d="M49.7966 12.5645L57.4135 16.1824L56.7413 7.78253L49.7966 12.5645ZM65.4797 20.7128C65.6414 21.0829 66.0692 21.2553 66.4394 21.0936C66.8096 20.932 66.9786 20.5009 66.8204 20.1344L65.4797 20.7128ZM56.2489 12.7657C60.0663 13.2902 63.2762 15.6399 65.4797 20.7128L66.8204 20.1344C64.4552 14.6806 60.8607 11.925 56.4501 11.3178L56.2489 12.7657Z" fill="#262F56"/>
<path d="M81.2703 39.8477C81.3709 39.4561 81.1373 39.0574 80.7491 38.9568C80.3573 38.8526 79.9583 39.0861 79.8576 39.4777L81.2703 39.8477ZM65.918 52.2786L74.2969 53.2199L70.9216 45.4955L65.918 52.2786ZM79.8576 39.4777C79.0776 42.4417 78.0244 44.3423 76.7016 45.7255C75.3716 47.1194 73.7218 48.0464 71.6405 48.9841L72.2408 50.317C74.3724 49.3541 76.2307 48.3338 77.7584 46.735C79.2933 45.1255 80.4471 42.9806 81.2703 39.8477L79.8576 39.4777Z" fill="#262F56"/>
<path d="M32.1403 29.5546C32.1942 29.1558 31.9138 28.7857 31.5148 28.7318C31.1158 28.6744 30.7492 28.9546 30.6953 29.3534L32.1403 29.5546ZM41.6227 44.4501L37.2517 37.2431L33.1935 44.6333L41.6227 44.4501ZM30.6953 29.3534C30.2819 32.3461 30.476 34.7749 31.292 36.8263C32.1115 38.885 33.5278 40.4909 35.4329 41.8813L36.292 40.6993C34.5486 39.4274 33.3408 38.0263 32.6507 36.2874C31.9534 34.5413 31.7485 32.3821 32.1403 29.5546L30.6953 29.3534Z" fill="#262F56"/>
</svg>
