<svg width="96" height="66" viewBox="0 0 96 66" fill="none" xmlns="http://www.w3.org/2000/svg">
<path fill-rule="evenodd" clip-rule="evenodd" d="M1.28373 8.15019C1.76181 8.15019 2.14643 7.76576 2.14643 7.28793C2.14643 6.81009 1.76181 6.42566 1.28373 6.42566C0.80566 6.42566 0.41748 6.81009 0.41748 7.28793C0.41748 7.76576 0.80566 8.15019 1.28373 8.15019ZM1.28373 19.6721C1.76181 19.6721 2.14643 19.2841 2.14643 18.8063C2.14643 18.332 1.76181 17.944 1.28373 17.944C0.80566 17.944 0.41748 18.332 0.41748 18.8063C0.41748 19.2841 0.80566 19.6721 1.28373 19.6721ZM13.6742 7.28793C13.6742 7.76576 13.2859 8.15019 12.8079 8.15019C12.3298 8.15019 11.9452 7.76576 11.9452 7.28793C11.9452 6.81009 12.3298 6.42566 12.8079 6.42566C13.2859 6.42566 13.6742 6.81009 13.6742 7.28793ZM12.8079 19.6721C13.2859 19.6721 13.6742 19.2841 13.6742 18.8063C13.6742 18.332 13.2859 17.944 12.8079 17.944C12.3298 17.944 11.9452 18.332 11.9452 18.8063C11.9452 19.2841 12.3298 19.6721 12.8079 19.6721ZM25.1982 7.28793C25.1982 7.76576 24.8136 8.15019 24.3356 8.15019C23.8575 8.15019 23.4729 7.76576 23.4729 7.28793C23.4729 6.81009 23.8575 6.42566 24.3356 6.42566C24.8136 6.42566 25.1982 6.81009 25.1982 7.28793ZM24.3356 19.6721C24.8136 19.6721 25.1982 19.2841 25.1982 18.8063C25.1982 18.332 24.8136 17.944 24.3356 17.944C23.8575 17.944 23.4729 18.332 23.4729 18.8063C23.4729 19.2841 23.8575 19.6721 24.3356 19.6721ZM36.726 7.28793C36.726 7.76576 36.3378 8.15019 35.8597 8.15019C35.3852 8.15019 34.997 7.76576 34.997 7.28793C34.997 6.81009 35.3852 6.42566 35.8597 6.42566C36.3378 6.42566 36.726 6.81009 36.726 7.28793ZM35.8597 19.6721C36.3378 19.6721 36.726 19.2841 36.726 18.8063C36.726 18.332 36.3378 17.944 35.8597 17.944C35.3852 17.944 34.997 18.332 34.997 18.8063C34.997 19.2841 35.3852 19.6721 35.8597 19.6721ZM48.2501 7.28793C48.2501 7.76576 47.8654 8.15019 47.3874 8.15019C46.9093 8.15019 46.5211 7.76576 46.5211 7.28793C46.5211 6.81009 46.9093 6.42566 47.3874 6.42566C47.8654 6.42566 48.2501 6.81009 48.2501 7.28793ZM47.3874 19.6721C47.8654 19.6721 48.2501 19.2841 48.2501 18.8063C48.2501 18.332 47.8654 17.944 47.3874 17.944C46.9093 17.944 46.5211 18.332 46.5211 18.8063C46.5211 19.2841 46.9093 19.6721 47.3874 19.6721ZM59.7778 7.28793C59.7778 7.76576 59.3896 8.15019 58.9151 8.15019C58.437 8.15019 58.0488 7.76576 58.0488 7.28793C58.0488 6.81009 58.437 6.42566 58.9151 6.42566C59.3896 6.42566 59.7778 6.81009 59.7778 7.28793ZM58.9151 19.6721C59.3896 19.6721 59.7778 19.2841 59.7778 18.8063C59.7778 18.332 59.3896 17.944 58.9151 17.944C58.437 17.944 58.0488 18.332 58.0488 18.8063C58.0488 19.2841 58.437 19.6721 58.9151 19.6721ZM2.14643 30.3282C2.14643 30.806 1.76181 31.1904 1.28373 31.1904C0.80566 31.1904 0.41748 30.806 0.41748 30.3282C0.41748 29.8503 0.80566 29.4623 1.28373 29.4623C1.76181 29.4623 2.14643 29.8503 2.14643 30.3282ZM12.8079 31.1904C13.2859 31.1904 13.6742 30.806 13.6742 30.3282C13.6742 29.8503 13.2859 29.4623 12.8079 29.4623C12.3298 29.4623 11.9452 29.8503 11.9452 30.3282C11.9452 30.806 12.3298 31.1904 12.8079 31.1904ZM25.1982 30.3282C25.1982 30.806 24.8136 31.1904 24.3356 31.1904C23.8575 31.1904 23.4729 30.806 23.4729 30.3282C23.4729 29.8503 23.8575 29.4623 24.3356 29.4623C24.8136 29.4623 25.1982 29.8503 25.1982 30.3282ZM35.8597 31.1904C36.3378 31.1904 36.726 30.806 36.726 30.3282C36.726 29.8503 36.3378 29.4623 35.8597 29.4623C35.3852 29.4623 34.997 29.8503 34.997 30.3282C34.997 30.806 35.3852 31.1904 35.8597 31.1904ZM48.2501 30.3282C48.2501 30.806 47.8654 31.1904 47.3874 31.1904C46.9093 31.1904 46.5211 30.806 46.5211 30.3282C46.5211 29.8503 46.9093 29.4623 47.3874 29.4623C47.8654 29.4623 48.2501 29.8503 48.2501 30.3282ZM58.9151 31.1904C59.3896 31.1904 59.7778 30.806 59.7778 30.3282C59.7778 29.8503 59.3896 29.4623 58.9151 29.4623C58.437 29.4623 58.0488 29.8503 58.0488 30.3282C58.0488 30.806 58.437 31.1904 58.9151 31.1904ZM2.14643 41.8465C2.14643 42.3243 1.76181 42.7123 1.28373 42.7123C0.80566 42.7123 0.41748 42.3243 0.41748 41.8465C0.41748 41.3687 0.80566 40.9842 1.28373 40.9842C1.76181 40.9842 2.14643 41.3687 2.14643 41.8465ZM12.8079 42.7123C13.2859 42.7123 13.6742 42.3243 13.6742 41.8465C13.6742 41.3687 13.2859 40.9842 12.8079 40.9842C12.3298 40.9842 11.9452 41.3687 11.9452 41.8465C11.9452 42.3243 12.3298 42.7123 12.8079 42.7123ZM25.1982 41.8465C25.1982 42.3243 24.8136 42.7123 24.3356 42.7123C23.8575 42.7123 23.4729 42.3243 23.4729 41.8465C23.4729 41.3687 23.8575 40.9842 24.3356 40.9842C24.8136 40.9842 25.1982 41.3687 25.1982 41.8465ZM35.8597 42.7123C36.3378 42.7123 36.726 42.3243 36.726 41.8465C36.726 41.3687 36.3378 40.9842 35.8597 40.9842C35.3852 40.9842 34.997 41.3687 34.997 41.8465C34.997 42.3243 35.3852 42.7123 35.8597 42.7123ZM48.2501 41.8465C48.2501 42.3243 47.8654 42.7123 47.3874 42.7123C46.9093 42.7123 46.5211 42.3243 46.5211 41.8465C46.5211 41.3687 46.9093 40.9842 47.3874 40.9842C47.8654 40.9842 48.2501 41.3687 48.2501 41.8465ZM58.9151 42.7123C59.3896 42.7123 59.7778 42.3243 59.7778 41.8465C59.7778 41.3687 59.3896 40.9842 58.9151 40.9842C58.437 40.9842 58.0488 41.3687 58.0488 41.8465C58.0488 42.3243 58.437 42.7123 58.9151 42.7123ZM2.14643 53.3684C2.14643 53.8463 1.76181 54.2343 1.28373 54.2343C0.80566 54.2343 0.41748 53.8463 0.41748 53.3684C0.41748 52.8906 0.80566 52.5061 1.28373 52.5061C1.76181 52.5061 2.14643 52.8906 2.14643 53.3684ZM12.8079 54.2343C13.2859 54.2343 13.6742 53.8463 13.6742 53.3684C13.6742 52.8906 13.2859 52.5061 12.8079 52.5061C12.3298 52.5061 11.9452 52.8906 11.9452 53.3684C11.9452 53.8463 12.3298 54.2343 12.8079 54.2343ZM25.1982 53.3684C25.1982 53.8463 24.8136 54.2343 24.3356 54.2343C23.8575 54.2343 23.4729 53.8463 23.4729 53.3684C23.4729 52.8906 23.8575 52.5061 24.3356 52.5061C24.8136 52.5061 25.1982 52.8906 25.1982 53.3684ZM35.8597 54.2343C36.3378 54.2343 36.726 53.8463 36.726 53.3684C36.726 52.8906 36.3378 52.5061 35.8597 52.5061C35.3852 52.5061 34.997 52.8906 34.997 53.3684C34.997 53.8463 35.3852 54.2343 35.8597 54.2343ZM48.2501 53.3684C48.2501 53.8463 47.8654 54.2343 47.3874 54.2343C46.9093 54.2343 46.5211 53.8463 46.5211 53.3684C46.5211 52.8906 46.9093 52.5061 47.3874 52.5061C47.8654 52.5061 48.2501 52.8906 48.2501 53.3684ZM58.9151 54.2343C59.3896 54.2343 59.7778 53.8463 59.7778 53.3684C59.7778 52.8906 59.3896 52.5061 58.9151 52.5061C58.437 52.5061 58.0488 52.8906 58.0488 53.3684C58.0488 53.8463 58.437 54.2343 58.9151 54.2343ZM2.14643 64.8867C2.14643 65.3646 1.76181 65.7526 1.28373 65.7526C0.80566 65.7526 0.41748 65.3646 0.41748 64.8867C0.41748 64.4125 0.80566 64.0245 1.28373 64.0245C1.76181 64.0245 2.14643 64.4125 2.14643 64.8867ZM12.8079 65.7526C13.2859 65.7526 13.6742 65.3646 13.6742 64.8867C13.6742 64.4125 13.2859 64.0245 12.8079 64.0245C12.3298 64.0245 11.9452 64.4125 11.9452 64.8867C11.9452 65.3646 12.3298 65.7526 12.8079 65.7526ZM25.1982 64.8867C25.1982 65.3646 24.8136 65.7526 24.3356 65.7526C23.8575 65.7526 23.4729 65.3646 23.4729 64.8867C23.4729 64.4125 23.8575 64.0245 24.3356 64.0245C24.8136 64.0245 25.1982 64.4125 25.1982 64.8867ZM35.8597 65.7526C36.3378 65.7526 36.726 65.3646 36.726 64.8867C36.726 64.4125 36.3378 64.0245 35.8597 64.0245C35.3852 64.0245 34.997 64.4125 34.997 64.8867C34.997 65.3646 35.3852 65.7526 35.8597 65.7526ZM48.2501 64.8867C48.2501 65.3646 47.8654 65.7526 47.3874 65.7526C46.9093 65.7526 46.5211 65.3646 46.5211 64.8867C46.5211 64.4125 46.9093 64.0245 47.3874 64.0245C47.8654 64.0245 48.2501 64.4125 48.2501 64.8867ZM58.9151 65.7526C59.3896 65.7526 59.7778 65.3646 59.7778 64.8867C59.7778 64.4125 59.3896 64.0245 58.9151 64.0245C58.437 64.0245 58.0488 64.4125 58.0488 64.8867C58.0488 65.3646 58.437 65.7526 58.9151 65.7526Z" fill="#828282"/>
<path d="M73.2212 25.5426C79.3873 25.5426 84.3859 19.9916 84.3859 13.144C84.3859 6.2965 79.3873 0.745483 73.2212 0.745483C67.0552 0.745483 62.0566 6.2965 62.0566 13.144C62.0566 19.9916 67.0552 25.5426 73.2212 25.5426Z" fill="#8BC34A"/>
<path d="M95.5472 44.1351C95.5472 51.669 84.1812 49.0966 73.2215 49.0966C71.2409 49.0966 69.2531 49.1793 67.3156 49.2727C68.7607 48.4428 69.6018 47.0811 69.6018 44.8967C69.6018 41.4513 67.1755 38.3795 63.545 36.1628C62.1431 35.3041 60.5507 34.5712 58.8505 33.9928C62.9411 31.8228 68.1244 30.5006 73.2215 30.5006C84.1812 30.5006 95.5472 36.6047 95.5472 44.1351ZM52.596 47.9146C51.5104 47.0991 50.8958 45.8919 50.8958 44.1351C50.8958 40.8872 53.0094 37.9053 56.2948 35.5628C58.5306 36.1376 60.619 36.9999 62.3767 38.0741C65.3638 39.8956 67.3552 42.31 67.3552 44.8967C67.3552 47.656 64.5155 48.2164 60.5831 48.2164C59.0446 48.2164 57.445 48.1374 55.7843 48.0547C54.7347 48.0044 53.6635 47.9542 52.596 47.9146Z" fill="#8BC34A"/>
<path d="M50.0509 29.5449C55.139 29.5449 59.2637 24.9638 59.2637 19.3128C59.2637 13.6618 55.139 9.08069 50.0509 9.08069C44.9628 9.08069 40.8381 13.6618 40.8381 19.3128C40.8381 24.9638 44.9628 29.5449 50.0509 29.5449Z" fill="#262F56"/>
<path d="M60.5829 48.2164C64.5153 48.2164 67.3549 47.6559 67.3549 44.8967C67.3549 42.3099 65.3636 39.8956 62.3765 38.0741C59.0372 36.0334 54.5045 34.7615 50.0509 34.7615C45.5937 34.7615 41.0646 36.0334 37.7252 38.0741C34.7382 39.8956 32.7468 42.3099 32.7468 44.8967C32.7468 47.6559 35.5865 48.2164 39.5189 48.2164C41.0574 48.2164 42.657 48.1373 44.3176 48.0547C46.2084 47.9649 48.1781 47.8679 50.0509 47.8679C51.9236 47.8679 53.8934 47.9649 55.7841 48.0547C57.4448 48.1373 59.0444 48.2164 60.5829 48.2164Z" fill="#262F56"/>
</svg>
