<svg width="89" height="68" viewBox="0 0 89 68" fill="none" xmlns="http://www.w3.org/2000/svg">
<path fill-rule="evenodd" clip-rule="evenodd" d="M1.37111 10.1501C1.84918 10.1501 2.23739 9.7657 2.23739 9.28786C2.23739 8.81003 1.84918 8.4256 1.37111 8.4256C0.896632 8.4256 0.508423 8.81003 0.508423 9.28786C0.508423 9.7657 0.896632 10.1501 1.37111 10.1501ZM1.37111 21.672C1.84918 21.672 2.23739 21.284 2.23739 20.8062C2.23739 20.3319 1.84918 19.9439 1.37111 19.9439C0.896632 19.9439 0.508423 20.3319 0.508423 20.8062C0.508423 21.284 0.896632 21.672 1.37111 21.672ZM13.7615 9.28786C13.7615 9.7657 13.3733 10.1501 12.8988 10.1501C12.4207 10.1501 12.0325 9.7657 12.0325 9.28786C12.0325 8.81003 12.4207 8.4256 12.8988 8.4256C13.3733 8.4256 13.7615 8.81003 13.7615 9.28786ZM12.8988 21.672C13.3733 21.672 13.7615 21.284 13.7615 20.8062C13.7615 20.3319 13.3733 19.9439 12.8988 19.9439C12.4207 19.9439 12.0325 20.3319 12.0325 20.8062C12.0325 21.284 12.4207 21.672 12.8988 21.672ZM25.2892 9.28786C25.2892 9.7657 24.9009 10.1501 24.4229 10.1501C23.9448 10.1501 23.5602 9.7657 23.5602 9.28786C23.5602 8.81003 23.9448 8.4256 24.4229 8.4256C24.9009 8.4256 25.2892 8.81003 25.2892 9.28786ZM24.4229 21.672C24.9009 21.672 25.2892 21.284 25.2892 20.8062C25.2892 20.3319 24.9009 19.9439 24.4229 19.9439C23.9448 19.9439 23.5602 20.3319 23.5602 20.8062C23.5602 21.284 23.9448 21.672 24.4229 21.672ZM36.8132 9.28786C36.8132 9.7657 36.4286 10.1501 35.9505 10.1501C35.4725 10.1501 35.0879 9.7657 35.0879 9.28786C35.0879 8.81003 35.4725 8.4256 35.9505 8.4256C36.4286 8.4256 36.8132 8.81003 36.8132 9.28786ZM35.9505 21.672C36.4286 21.672 36.8132 21.284 36.8132 20.8062C36.8132 20.3319 36.4286 19.9439 35.9505 19.9439C35.4725 19.9439 35.0879 20.3319 35.0879 20.8062C35.0879 21.284 35.4725 21.672 35.9505 21.672ZM48.3409 9.28786C48.3409 9.7657 47.9527 10.1501 47.4746 10.1501C47.0002 10.1501 46.6119 9.7657 46.6119 9.28786C46.6119 8.81003 47.0002 8.4256 47.4746 8.4256C47.9527 8.4256 48.3409 8.81003 48.3409 9.28786ZM47.4746 21.672C47.9527 21.672 48.3409 21.284 48.3409 20.8062C48.3409 20.3319 47.9527 19.9439 47.4746 19.9439C47.0002 19.9439 46.6119 20.3319 46.6119 20.8062C46.6119 21.284 47.0002 21.672 47.4746 21.672ZM59.865 9.28786C59.865 9.7657 59.4804 10.1501 59.0023 10.1501C58.5242 10.1501 58.136 9.7657 58.136 9.28786C58.136 8.81003 58.5242 8.4256 59.0023 8.4256C59.4804 8.4256 59.865 8.81003 59.865 9.28786ZM59.0023 21.672C59.4804 21.672 59.865 21.284 59.865 20.8062C59.865 20.3319 59.4804 19.9439 59.0023 19.9439C58.5242 19.9439 58.136 20.3319 58.136 20.8062C58.136 21.284 58.5242 21.672 59.0023 21.672ZM2.23739 32.3281C2.23739 32.8059 1.84918 33.1904 1.37111 33.1904C0.896632 33.1904 0.508423 32.8059 0.508423 32.3281C0.508423 31.8503 0.896632 31.4622 1.37111 31.4622C1.84918 31.4622 2.23739 31.8503 2.23739 32.3281ZM12.8988 33.1904C13.3733 33.1904 13.7615 32.8059 13.7615 32.3281C13.7615 31.8503 13.3733 31.4622 12.8988 31.4622C12.4207 31.4622 12.0325 31.8503 12.0325 32.3281C12.0325 32.8059 12.4207 33.1904 12.8988 33.1904ZM25.2892 32.3281C25.2892 32.8059 24.9009 33.1904 24.4229 33.1904C23.9448 33.1904 23.5602 32.8059 23.5602 32.3281C23.5602 31.8503 23.9448 31.4622 24.4229 31.4622C24.9009 31.4622 25.2892 31.8503 25.2892 32.3281ZM35.9505 33.1904C36.4286 33.1904 36.8132 32.8059 36.8132 32.3281C36.8132 31.8503 36.4286 31.4622 35.9505 31.4622C35.4725 31.4622 35.0879 31.8503 35.0879 32.3281C35.0879 32.8059 35.4725 33.1904 35.9505 33.1904ZM48.3409 32.3281C48.3409 32.8059 47.9527 33.1904 47.4746 33.1904C47.0002 33.1904 46.6119 32.8059 46.6119 32.3281C46.6119 31.8503 47.0002 31.4622 47.4746 31.4622C47.9527 31.4622 48.3409 31.8503 48.3409 32.3281ZM59.0023 33.1904C59.4804 33.1904 59.865 32.8059 59.865 32.3281C59.865 31.8503 59.4804 31.4622 59.0023 31.4622C58.5242 31.4622 58.136 31.8503 58.136 32.3281C58.136 32.8059 58.5242 33.1904 59.0023 33.1904ZM2.23739 43.8464C2.23739 44.3243 1.84918 44.7123 1.37111 44.7123C0.896632 44.7123 0.508423 44.3243 0.508423 43.8464C0.508423 43.3686 0.896632 42.9842 1.37111 42.9842C1.84918 42.9842 2.23739 43.3686 2.23739 43.8464ZM12.8988 44.7123C13.3733 44.7123 13.7615 44.3243 13.7615 43.8464C13.7615 43.3686 13.3733 42.9842 12.8988 42.9842C12.4207 42.9842 12.0325 43.3686 12.0325 43.8464C12.0325 44.3243 12.4207 44.7123 12.8988 44.7123ZM25.2892 43.8464C25.2892 44.3243 24.9009 44.7123 24.4229 44.7123C23.9448 44.7123 23.5602 44.3243 23.5602 43.8464C23.5602 43.3686 23.9448 42.9842 24.4229 42.9842C24.9009 42.9842 25.2892 43.3686 25.2892 43.8464ZM35.9505 44.7123C36.4286 44.7123 36.8132 44.3243 36.8132 43.8464C36.8132 43.3686 36.4286 42.9842 35.9505 42.9842C35.4725 42.9842 35.0879 43.3686 35.0879 43.8464C35.0879 44.3243 35.4725 44.7123 35.9505 44.7123ZM48.3409 43.8464C48.3409 44.3243 47.9527 44.7123 47.4746 44.7123C47.0002 44.7123 46.6119 44.3243 46.6119 43.8464C46.6119 43.3686 47.0002 42.9842 47.4746 42.9842C47.9527 42.9842 48.3409 43.3686 48.3409 43.8464ZM59.0023 44.7123C59.4804 44.7123 59.865 44.3243 59.865 43.8464C59.865 43.3686 59.4804 42.9842 59.0023 42.9842C58.5242 42.9842 58.136 43.3686 58.136 43.8464C58.136 44.3243 58.5242 44.7123 59.0023 44.7123ZM2.23739 55.3684C2.23739 55.8462 1.84918 56.2342 1.37111 56.2342C0.896632 56.2342 0.508423 55.8462 0.508423 55.3684C0.508423 54.8905 0.896632 54.5061 1.37111 54.5061C1.84918 54.5061 2.23739 54.8905 2.23739 55.3684ZM12.8988 56.2342C13.3733 56.2342 13.7615 55.8462 13.7615 55.3684C13.7615 54.8905 13.3733 54.5061 12.8988 54.5061C12.4207 54.5061 12.0325 54.8905 12.0325 55.3684C12.0325 55.8462 12.4207 56.2342 12.8988 56.2342ZM25.2892 55.3684C25.2892 55.8462 24.9009 56.2342 24.4229 56.2342C23.9448 56.2342 23.5602 55.8462 23.5602 55.3684C23.5602 54.8905 23.9448 54.5061 24.4229 54.5061C24.9009 54.5061 25.2892 54.8905 25.2892 55.3684ZM35.9505 56.2342C36.4286 56.2342 36.8132 55.8462 36.8132 55.3684C36.8132 54.8905 36.4286 54.5061 35.9505 54.5061C35.4725 54.5061 35.0879 54.8905 35.0879 55.3684C35.0879 55.8462 35.4725 56.2342 35.9505 56.2342ZM48.3409 55.3684C48.3409 55.8462 47.9527 56.2342 47.4746 56.2342C47.0002 56.2342 46.6119 55.8462 46.6119 55.3684C46.6119 54.8905 47.0002 54.5061 47.4746 54.5061C47.9527 54.5061 48.3409 54.8905 48.3409 55.3684ZM59.0023 56.2342C59.4804 56.2342 59.865 55.8462 59.865 55.3684C59.865 54.8905 59.4804 54.5061 59.0023 54.5061C58.5242 54.5061 58.136 54.8905 58.136 55.3684C58.136 55.8462 58.5242 56.2342 59.0023 56.2342ZM2.23739 66.8867C2.23739 67.3645 1.84918 67.7525 1.37111 67.7525C0.896632 67.7525 0.508423 67.3645 0.508423 66.8867C0.508423 66.4124 0.896632 66.0244 1.37111 66.0244C1.84918 66.0244 2.23739 66.4124 2.23739 66.8867ZM12.8988 67.7525C13.3733 67.7525 13.7615 67.3645 13.7615 66.8867C13.7615 66.4124 13.3733 66.0244 12.8988 66.0244C12.4207 66.0244 12.0325 66.4124 12.0325 66.8867C12.0325 67.3645 12.4207 67.7525 12.8988 67.7525ZM25.2892 66.8867C25.2892 67.3645 24.9009 67.7525 24.4229 67.7525C23.9448 67.7525 23.5602 67.3645 23.5602 66.8867C23.5602 66.4124 23.9448 66.0244 24.4229 66.0244C24.9009 66.0244 25.2892 66.4124 25.2892 66.8867ZM35.9505 67.7525C36.4286 67.7525 36.8132 67.3645 36.8132 66.8867C36.8132 66.4124 36.4286 66.0244 35.9505 66.0244C35.4725 66.0244 35.0879 66.4124 35.0879 66.8867C35.0879 67.3645 35.4725 67.7525 35.9505 67.7525ZM48.3409 66.8867C48.3409 67.3645 47.9527 67.7525 47.4746 67.7525C47.0002 67.7525 46.6119 67.3645 46.6119 66.8867C46.6119 66.4124 47.0002 66.0244 47.4746 66.0244C47.9527 66.0244 48.3409 66.4124 48.3409 66.8867ZM59.0023 67.7525C59.4804 67.7525 59.865 67.3645 59.865 66.8867C59.865 66.4124 59.4804 66.0244 59.0023 66.0244C58.5242 66.0244 58.136 66.4124 58.136 66.8867C58.136 67.3645 58.5242 67.7525 59.0023 67.7525Z" fill="#828282"/>
<path fill-rule="evenodd" clip-rule="evenodd" d="M87.2301 27.2911C83.6463 37.5771 72.1654 45.1003 58.5529 45.1003C55.3717 45.1003 52.3056 44.6907 49.4299 43.9255C53.4702 47.802 59.6995 50.2882 66.6873 50.2882C70.3106 50.2882 73.7326 49.62 76.752 48.4344C78.4486 47.7661 84.7391 50.0367 87.4673 51.0822C87.9778 51.2798 88.5026 50.7984 88.3552 50.2703C87.5967 47.5973 86.0475 41.6477 86.8527 40.2645C88.0676 38.1771 88.7398 35.8634 88.7398 33.4311C88.7398 31.2647 88.2042 29.1952 87.2301 27.2911Z" fill="#262F56"/>
<path d="M56.3063 40.48C70.0985 40.48 81.5183 31.6383 81.5183 20.4684C81.5183 9.30219 70.0985 0.460449 56.3063 0.460449C42.514 0.460449 31.0978 9.30219 31.0978 20.4684C31.0978 23.7091 32.0683 26.7665 33.7793 29.4646C33.844 29.5652 33.9051 29.7449 33.9375 30.0359C33.9698 30.3233 33.9698 30.6754 33.9339 31.085C33.8692 31.9077 33.6715 32.9101 33.4127 33.97C32.8879 36.0825 32.115 38.3459 31.6154 39.7255C31.2739 40.674 32.1654 41.6333 33.1431 41.3243C34.7175 40.8249 37.4673 39.9878 40.0554 39.3627C41.3494 39.0465 42.5895 38.7914 43.6211 38.6549C44.1352 38.5866 44.5845 38.5507 44.9547 38.5507C45.3357 38.5507 45.5909 38.5902 45.7347 38.6441C48.9518 39.8225 52.5356 40.48 56.3063 40.48Z" fill="#8BC34A"/>
</svg>
