<svg width="77" height="69" viewBox="0 0 77 69" fill="none" xmlns="http://www.w3.org/2000/svg">
<path fill-rule="evenodd" clip-rule="evenodd" d="M1.78431 11.1502C2.26238 11.1502 2.64696 10.7658 2.64696 10.2879C2.64696 9.81009 2.26238 9.42566 1.78431 9.42566C1.30623 9.42566 0.917969 9.81009 0.917969 10.2879C0.917969 10.7658 1.30623 11.1502 1.78431 11.1502ZM1.78431 22.6721C2.26238 22.6721 2.64696 22.2841 2.64696 21.8063C2.64696 21.332 2.26238 20.944 1.78431 20.944C1.30623 20.944 0.917969 21.332 0.917969 21.8063C0.917969 22.2841 1.30623 22.6721 1.78431 22.6721ZM14.1747 10.2879C14.1747 10.7658 13.7864 11.1502 13.3083 11.1502C12.8302 11.1502 12.4457 10.7658 12.4457 10.2879C12.4457 9.81009 12.8302 9.42566 13.3083 9.42566C13.7864 9.42566 14.1747 9.81009 14.1747 10.2879ZM13.3083 22.6721C13.7864 22.6721 14.1747 22.2841 14.1747 21.8063C14.1747 21.332 13.7864 20.944 13.3083 20.944C12.8302 20.944 12.4457 21.332 12.4457 21.8063C12.4457 22.2841 12.8302 22.6721 13.3083 22.6721ZM25.6987 10.2879C25.6987 10.7658 25.3141 11.1502 24.836 11.1502C24.3579 11.1502 23.9698 10.7658 23.9698 10.2879C23.9698 9.81009 24.3579 9.42566 24.836 9.42566C25.3141 9.42566 25.6987 9.81009 25.6987 10.2879ZM24.836 22.6721C25.3141 22.6721 25.6987 22.2841 25.6987 21.8063C25.6987 21.332 25.3141 20.944 24.836 20.944C24.3579 20.944 23.9698 21.332 23.9698 21.8063C23.9698 22.2841 24.3579 22.6721 24.836 22.6721ZM37.2264 10.2879C37.2264 10.7658 36.8382 11.1502 36.3637 11.1502C35.8856 11.1502 35.4974 10.7658 35.4974 10.2879C35.4974 9.81009 35.8856 9.42566 36.3637 9.42566C36.8382 9.42566 37.2264 9.81009 37.2264 10.2879ZM36.3637 22.6721C36.8382 22.6721 37.2264 22.2841 37.2264 21.8063C37.2264 21.332 36.8382 20.944 36.3637 20.944C35.8856 20.944 35.4974 21.332 35.4974 21.8063C35.4974 22.2841 35.8856 22.6721 36.3637 22.6721ZM48.7505 10.2879C48.7505 10.7658 48.3659 11.1502 47.8878 11.1502C47.4097 11.1502 47.0215 10.7658 47.0215 10.2879C47.0215 9.81009 47.4097 9.42566 47.8878 9.42566C48.3659 9.42566 48.7505 9.81009 48.7505 10.2879ZM47.8878 22.6721C48.3659 22.6721 48.7505 22.2841 48.7505 21.8063C48.7505 21.332 48.3659 20.944 47.8878 20.944C47.4097 20.944 47.0215 21.332 47.0215 21.8063C47.0215 22.2841 47.4097 22.6721 47.8878 22.6721ZM60.2782 10.2879C60.2782 10.7658 59.8899 11.1502 59.4118 11.1502C58.9374 11.1502 58.5492 10.7658 58.5492 10.2879C58.5492 9.81009 58.9374 9.42566 59.4118 9.42566C59.8899 9.42566 60.2782 9.81009 60.2782 10.2879ZM59.4118 22.6721C59.8899 22.6721 60.2782 22.2841 60.2782 21.8063C60.2782 21.332 59.8899 20.944 59.4118 20.944C58.9374 20.944 58.5492 21.332 58.5492 21.8063C58.5492 22.2841 58.9374 22.6721 59.4118 22.6721ZM2.64696 33.3282C2.64696 33.806 2.26238 34.1904 1.78431 34.1904C1.30623 34.1904 0.917969 33.806 0.917969 33.3282C0.917969 32.8503 1.30623 32.4623 1.78431 32.4623C2.26238 32.4623 2.64696 32.8503 2.64696 33.3282ZM13.3083 34.1904C13.7864 34.1904 14.1747 33.806 14.1747 33.3282C14.1747 32.8503 13.7864 32.4623 13.3083 32.4623C12.8302 32.4623 12.4457 32.8503 12.4457 33.3282C12.4457 33.806 12.8302 34.1904 13.3083 34.1904ZM25.6987 33.3282C25.6987 33.806 25.3141 34.1904 24.836 34.1904C24.3579 34.1904 23.9698 33.806 23.9698 33.3282C23.9698 32.8503 24.3579 32.4623 24.836 32.4623C25.3141 32.4623 25.6987 32.8503 25.6987 33.3282ZM36.3637 34.1904C36.8382 34.1904 37.2264 33.806 37.2264 33.3282C37.2264 32.8503 36.8382 32.4623 36.3637 32.4623C35.8856 32.4623 35.4974 32.8503 35.4974 33.3282C35.4974 33.806 35.8856 34.1904 36.3637 34.1904ZM48.7505 33.3282C48.7505 33.806 48.3659 34.1904 47.8878 34.1904C47.4097 34.1904 47.0215 33.806 47.0215 33.3282C47.0215 32.8503 47.4097 32.4623 47.8878 32.4623C48.3659 32.4623 48.7505 32.8503 48.7505 33.3282ZM59.4118 34.1904C59.8899 34.1904 60.2782 33.806 60.2782 33.3282C60.2782 32.8503 59.8899 32.4623 59.4118 32.4623C58.9374 32.4623 58.5492 32.8503 58.5492 33.3282C58.5492 33.806 58.9374 34.1904 59.4118 34.1904ZM2.64696 44.8465C2.64696 45.3243 2.26238 45.7123 1.78431 45.7123C1.30623 45.7123 0.917969 45.3243 0.917969 44.8465C0.917969 44.3687 1.30623 43.9842 1.78431 43.9842C2.26238 43.9842 2.64696 44.3687 2.64696 44.8465ZM13.3083 45.7123C13.7864 45.7123 14.1747 45.3243 14.1747 44.8465C14.1747 44.3687 13.7864 43.9842 13.3083 43.9842C12.8302 43.9842 12.4457 44.3687 12.4457 44.8465C12.4457 45.3243 12.8302 45.7123 13.3083 45.7123ZM25.6987 44.8465C25.6987 45.3243 25.3141 45.7123 24.836 45.7123C24.3579 45.7123 23.9698 45.3243 23.9698 44.8465C23.9698 44.3687 24.3579 43.9842 24.836 43.9842C25.3141 43.9842 25.6987 44.3687 25.6987 44.8465ZM36.3637 45.7123C36.8382 45.7123 37.2264 45.3243 37.2264 44.8465C37.2264 44.3687 36.8382 43.9842 36.3637 43.9842C35.8856 43.9842 35.4974 44.3687 35.4974 44.8465C35.4974 45.3243 35.8856 45.7123 36.3637 45.7123ZM48.7505 44.8465C48.7505 45.3243 48.3659 45.7123 47.8878 45.7123C47.4097 45.7123 47.0215 45.3243 47.0215 44.8465C47.0215 44.3687 47.4097 43.9842 47.8878 43.9842C48.3659 43.9842 48.7505 44.3687 48.7505 44.8465ZM59.4118 45.7123C59.8899 45.7123 60.2782 45.3243 60.2782 44.8465C60.2782 44.3687 59.8899 43.9842 59.4118 43.9842C58.9374 43.9842 58.5492 44.3687 58.5492 44.8465C58.5492 45.3243 58.9374 45.7123 59.4118 45.7123ZM2.64696 56.3684C2.64696 56.8463 2.26238 57.2343 1.78431 57.2343C1.30623 57.2343 0.917969 56.8463 0.917969 56.3684C0.917969 55.8906 1.30623 55.5061 1.78431 55.5061C2.26238 55.5061 2.64696 55.8906 2.64696 56.3684ZM13.3083 57.2343C13.7864 57.2343 14.1747 56.8463 14.1747 56.3684C14.1747 55.8906 13.7864 55.5061 13.3083 55.5061C12.8302 55.5061 12.4457 55.8906 12.4457 56.3684C12.4457 56.8463 12.8302 57.2343 13.3083 57.2343ZM25.6987 56.3684C25.6987 56.8463 25.3141 57.2343 24.836 57.2343C24.3579 57.2343 23.9698 56.8463 23.9698 56.3684C23.9698 55.8906 24.3579 55.5061 24.836 55.5061C25.3141 55.5061 25.6987 55.8906 25.6987 56.3684ZM36.3637 57.2343C36.8382 57.2343 37.2264 56.8463 37.2264 56.3684C37.2264 55.8906 36.8382 55.5061 36.3637 55.5061C35.8856 55.5061 35.4974 55.8906 35.4974 56.3684C35.4974 56.8463 35.8856 57.2343 36.3637 57.2343ZM48.7505 56.3684C48.7505 56.8463 48.3659 57.2343 47.8878 57.2343C47.4097 57.2343 47.0215 56.8463 47.0215 56.3684C47.0215 55.8906 47.4097 55.5061 47.8878 55.5061C48.3659 55.5061 48.7505 55.8906 48.7505 56.3684ZM59.4118 57.2343C59.8899 57.2343 60.2782 56.8463 60.2782 56.3684C60.2782 55.8906 59.8899 55.5061 59.4118 55.5061C58.9374 55.5061 58.5492 55.8906 58.5492 56.3684C58.5492 56.8463 58.9374 57.2343 59.4118 57.2343ZM2.64696 67.8867C2.64696 68.3646 2.26238 68.7526 1.78431 68.7526C1.30623 68.7526 0.917969 68.3646 0.917969 67.8867C0.917969 67.4125 1.30623 67.0245 1.78431 67.0245C2.26238 67.0245 2.64696 67.4125 2.64696 67.8867ZM13.3083 68.7526C13.7864 68.7526 14.1747 68.3646 14.1747 67.8867C14.1747 67.4125 13.7864 67.0245 13.3083 67.0245C12.8302 67.0245 12.4457 67.4125 12.4457 67.8867C12.4457 68.3646 12.8302 68.7526 13.3083 68.7526ZM25.6987 67.8867C25.6987 68.3646 25.3141 68.7526 24.836 68.7526C24.3579 68.7526 23.9698 68.3646 23.9698 67.8867C23.9698 67.4125 24.3579 67.0245 24.836 67.0245C25.3141 67.0245 25.6987 67.4125 25.6987 67.8867ZM36.3637 68.7526C36.8382 68.7526 37.2264 68.3646 37.2264 67.8867C37.2264 67.4125 36.8382 67.0245 36.3637 67.0245C35.8856 67.0245 35.4974 67.4125 35.4974 67.8867C35.4974 68.3646 35.8856 68.7526 36.3637 68.7526ZM48.7505 67.8867C48.7505 68.3646 48.3659 68.7526 47.8878 68.7526C47.4097 68.7526 47.0215 68.3646 47.0215 67.8867C47.0215 67.4125 47.4097 67.0245 47.8878 67.0245C48.3659 67.0245 48.7505 67.4125 48.7505 67.8867ZM59.4118 68.7526C59.8899 68.7526 60.2782 68.3646 60.2782 67.8867C60.2782 67.4125 59.8899 67.0245 59.4118 67.0245C58.9374 67.0245 58.5492 67.4125 58.5492 67.8867C58.5492 68.3646 58.9374 68.7526 59.4118 68.7526Z" fill="#828282"/>
<path d="M35.9109 12.2604C35.9109 11.0209 36.9174 10.0149 38.1575 10.0149H52.6111V30.7845C52.6111 31.7869 53.028 32.624 53.6607 33.2096C53.9698 33.497 54.3328 33.7234 54.7246 33.8778C55.1164 34.0323 55.5335 34.1114 55.954 34.1114C56.8131 34.1114 57.6866 33.7809 58.3731 33.0443L64.8828 26.0385C65.0877 25.8517 65.3501 25.7583 65.6161 25.7583C65.8821 25.7583 66.1481 25.8517 66.353 26.0385L67.55 27.3283V55.8079C67.55 56.8283 66.2991 57.3205 65.6053 56.5732L52.5536 42.5256C52.1115 42.0477 51.353 42.0477 50.9073 42.5256L37.8591 56.5732C37.1618 57.3205 35.9109 56.8283 35.9109 55.8079V12.2604ZM54.8577 10.0149H65.3034C66.5435 10.0149 67.55 11.0209 67.55 12.2604V24.1343C66.9749 23.7176 66.2955 23.5092 65.6161 23.5092C64.8073 23.5092 63.995 23.8074 63.3587 24.4002L63.1826 24.5763L56.7304 31.5174C56.5076 31.7582 56.2272 31.8659 55.954 31.8659C55.8102 31.8659 55.67 31.8408 55.5406 31.7905C55.4076 31.7366 55.2854 31.6611 55.1847 31.5677C54.987 31.3845 54.8577 31.115 54.8577 30.7845V10.0149Z" fill="#8BC34A"/>
<path d="M55.8171 1.92758C55.224 2.52397 54.8574 3.34313 54.8574 4.2485V30.7845C54.8574 31.115 54.9868 31.3845 55.1845 31.5677C55.2851 31.6611 55.4074 31.7365 55.5404 31.7904C55.6698 31.8407 55.81 31.8659 55.9538 31.8659C56.227 31.8659 56.5073 31.7581 56.7302 31.5174L63.1824 24.5762L63.3585 24.4002C63.9947 23.8074 64.8071 23.5092 65.6159 23.5092C66.4246 23.5092 67.237 23.8074 67.8769 24.4002L68.053 24.5762L74.5016 31.5174C74.728 31.7617 75.0085 31.8695 75.2781 31.8695C75.4218 31.8659 75.5656 31.8407 75.695 31.7904C75.8244 31.7365 75.9466 31.6611 76.0473 31.5677C76.245 31.3845 76.3744 31.115 76.3744 30.7845V4.2485C76.3744 3.34313 76.0077 2.52397 75.4146 1.92758C74.8251 1.33478 74.002 0.968323 73.0925 0.968323H58.1392C57.2298 0.968323 56.4102 1.33478 55.8171 1.92758Z" fill="#262F56"/>
</svg>
