<svg width="100" height="68" viewBox="0 0 100 68" fill="none" xmlns="http://www.w3.org/2000/svg">
<path fill-rule="evenodd" clip-rule="evenodd" d="M1.24116 10.1502C1.71564 10.1502 2.10741 9.76576 2.10741 9.28793C2.10741 8.81009 1.71564 8.42566 1.24116 8.42566C0.759492 8.42566 0.378418 8.81009 0.378418 9.28793C0.378418 9.76576 0.759492 10.1502 1.24116 10.1502ZM1.24116 21.6721C1.71564 21.6721 2.10741 21.2841 2.10741 20.8063C2.10741 20.332 1.71564 19.944 1.24116 19.944C0.759492 19.944 0.378418 20.332 0.378418 20.8063C0.378418 21.2841 0.759492 21.6721 1.24116 21.6721ZM13.6315 9.28793C13.6315 9.76576 13.2397 10.1502 12.7688 10.1502C12.2835 10.1502 11.9025 9.76576 11.9025 9.28793C11.9025 8.81009 12.2835 8.42566 12.7688 8.42566C13.2397 8.42566 13.6315 8.81009 13.6315 9.28793ZM12.7688 21.6721C13.2397 21.6721 13.6315 21.2841 13.6315 20.8063C13.6315 20.332 13.2397 19.944 12.7688 19.944C12.2835 19.944 11.9025 20.332 11.9025 20.8063C11.9025 21.2841 12.2835 21.6721 12.7688 21.6721ZM25.1591 9.28793C25.1591 9.76576 24.7638 10.1502 24.2929 10.1502C23.8112 10.1502 23.4266 9.76576 23.4266 9.28793C23.4266 8.81009 23.8112 8.42566 24.2929 8.42566C24.7638 8.42566 25.1591 8.81009 25.1591 9.28793ZM24.2929 21.6721C24.7638 21.6721 25.1591 21.2841 25.1591 20.8063C25.1591 20.332 24.7638 19.944 24.2929 19.944C23.8112 19.944 23.4266 20.332 23.4266 20.8063C23.4266 21.2841 23.8112 21.6721 24.2929 21.6721ZM36.6833 9.28793C36.6833 9.76576 36.2915 10.1502 35.817 10.1502C35.3353 10.1502 34.9543 9.76576 34.9543 9.28793C34.9543 8.81009 35.3353 8.42566 35.817 8.42566C36.2915 8.42566 36.6833 8.81009 36.6833 9.28793ZM35.817 21.6721C36.2915 21.6721 36.6833 21.2841 36.6833 20.8063C36.6833 20.332 36.2915 19.944 35.817 19.944C35.3353 19.944 34.9543 20.332 34.9543 20.8063C34.9543 21.2841 35.3353 21.6721 35.817 21.6721ZM48.2074 9.28793C48.2074 9.76576 47.8264 10.1502 47.3447 10.1502C46.8702 10.1502 46.4784 9.76576 46.4784 9.28793C46.4784 8.81009 46.8702 8.42566 47.3447 8.42566C47.8264 8.42566 48.2074 8.81009 48.2074 9.28793ZM47.3447 21.6721C47.8264 21.6721 48.2074 21.2841 48.2074 20.8063C48.2074 20.332 47.8264 19.944 47.3447 19.944C46.8702 19.944 46.4784 20.332 46.4784 20.8063C46.4784 21.2841 46.8702 21.6721 47.3447 21.6721ZM59.7351 9.28793C59.7351 9.76576 59.3504 10.1502 58.8687 10.1502C58.3979 10.1502 58.0025 9.76576 58.0025 9.28793C58.0025 8.81009 58.3979 8.42566 58.8687 8.42566C59.3504 8.42566 59.7351 8.81009 59.7351 9.28793ZM58.8687 21.6721C59.3504 21.6721 59.7351 21.2841 59.7351 20.8063C59.7351 20.332 59.3504 19.944 58.8687 19.944C58.3979 19.944 58.0025 20.332 58.0025 20.8063C58.0025 21.2841 58.3979 21.6721 58.8687 21.6721ZM2.10741 32.3282C2.10741 32.806 1.71564 33.1904 1.24116 33.1904C0.759492 33.1904 0.378418 32.806 0.378418 32.3282C0.378418 31.8503 0.759492 31.4623 1.24116 31.4623C1.71564 31.4623 2.10741 31.8503 2.10741 32.3282ZM12.7688 33.1904C13.2397 33.1904 13.6315 32.806 13.6315 32.3282C13.6315 31.8503 13.2397 31.4623 12.7688 31.4623C12.2835 31.4623 11.9025 31.8503 11.9025 32.3282C11.9025 32.806 12.2835 33.1904 12.7688 33.1904ZM25.1591 32.3282C25.1591 32.806 24.7638 33.1904 24.2929 33.1904C23.8112 33.1904 23.4266 32.806 23.4266 32.3282C23.4266 31.8503 23.8112 31.4623 24.2929 31.4623C24.7638 31.4623 25.1591 31.8503 25.1591 32.3282ZM35.817 33.1904C36.2915 33.1904 36.6833 32.806 36.6833 32.3282C36.6833 31.8503 36.2915 31.4623 35.817 31.4623C35.3353 31.4623 34.9543 31.8503 34.9543 32.3282C34.9543 32.806 35.3353 33.1904 35.817 33.1904ZM48.2074 32.3282C48.2074 32.806 47.8264 33.1904 47.3447 33.1904C46.8702 33.1904 46.4784 32.806 46.4784 32.3282C46.4784 31.8503 46.8702 31.4623 47.3447 31.4623C47.8264 31.4623 48.2074 31.8503 48.2074 32.3282ZM58.8687 33.1904C59.3504 33.1904 59.7351 32.806 59.7351 32.3282C59.7351 31.8503 59.3504 31.4623 58.8687 31.4623C58.3979 31.4623 58.0025 31.8503 58.0025 32.3282C58.0025 32.806 58.3979 33.1904 58.8687 33.1904ZM2.10741 43.8465C2.10741 44.3243 1.71564 44.7123 1.24116 44.7123C0.759492 44.7123 0.378418 44.3243 0.378418 43.8465C0.378418 43.3687 0.759492 42.9842 1.24116 42.9842C1.71564 42.9842 2.10741 43.3687 2.10741 43.8465ZM12.7688 44.7123C13.2397 44.7123 13.6315 44.3243 13.6315 43.8465C13.6315 43.3687 13.2397 42.9842 12.7688 42.9842C12.2835 42.9842 11.9025 43.3687 11.9025 43.8465C11.9025 44.3243 12.2835 44.7123 12.7688 44.7123ZM25.1591 43.8465C25.1591 44.3243 24.7638 44.7123 24.2929 44.7123C23.8112 44.7123 23.4266 44.3243 23.4266 43.8465C23.4266 43.3687 23.8112 42.9842 24.2929 42.9842C24.7638 42.9842 25.1591 43.3687 25.1591 43.8465ZM35.817 44.7123C36.2915 44.7123 36.6833 44.3243 36.6833 43.8465C36.6833 43.3687 36.2915 42.9842 35.817 42.9842C35.3353 42.9842 34.9543 43.3687 34.9543 43.8465C34.9543 44.3243 35.3353 44.7123 35.817 44.7123ZM48.2074 43.8465C48.2074 44.3243 47.8264 44.7123 47.3447 44.7123C46.8702 44.7123 46.4784 44.3243 46.4784 43.8465C46.4784 43.3687 46.8702 42.9842 47.3447 42.9842C47.8264 42.9842 48.2074 43.3687 48.2074 43.8465ZM58.8687 44.7123C59.3504 44.7123 59.7351 44.3243 59.7351 43.8465C59.7351 43.3687 59.3504 42.9842 58.8687 42.9842C58.3979 42.9842 58.0025 43.3687 58.0025 43.8465C58.0025 44.3243 58.3979 44.7123 58.8687 44.7123ZM2.10741 55.3684C2.10741 55.8463 1.71564 56.2343 1.24116 56.2343C0.759492 56.2343 0.378418 55.8463 0.378418 55.3684C0.378418 54.8906 0.759492 54.5061 1.24116 54.5061C1.71564 54.5061 2.10741 54.8906 2.10741 55.3684ZM12.7688 56.2343C13.2397 56.2343 13.6315 55.8463 13.6315 55.3684C13.6315 54.8906 13.2397 54.5061 12.7688 54.5061C12.2835 54.5061 11.9025 54.8906 11.9025 55.3684C11.9025 55.8463 12.2835 56.2343 12.7688 56.2343ZM25.1591 55.3684C25.1591 55.8463 24.7638 56.2343 24.2929 56.2343C23.8112 56.2343 23.4266 55.8463 23.4266 55.3684C23.4266 54.8906 23.8112 54.5061 24.2929 54.5061C24.7638 54.5061 25.1591 54.8906 25.1591 55.3684ZM35.817 56.2343C36.2915 56.2343 36.6833 55.8463 36.6833 55.3684C36.6833 54.8906 36.2915 54.5061 35.817 54.5061C35.3353 54.5061 34.9543 54.8906 34.9543 55.3684C34.9543 55.8463 35.3353 56.2343 35.817 56.2343ZM48.2074 55.3684C48.2074 55.8463 47.8264 56.2343 47.3447 56.2343C46.8702 56.2343 46.4784 55.8463 46.4784 55.3684C46.4784 54.8906 46.8702 54.5061 47.3447 54.5061C47.8264 54.5061 48.2074 54.8906 48.2074 55.3684ZM58.8687 56.2343C59.3504 56.2343 59.7351 55.8463 59.7351 55.3684C59.7351 54.8906 59.3504 54.5061 58.8687 54.5061C58.3979 54.5061 58.0025 54.8906 58.0025 55.3684C58.0025 55.8463 58.3979 56.2343 58.8687 56.2343ZM2.10741 66.8867C2.10741 67.3646 1.71564 67.7526 1.24116 67.7526C0.759492 67.7526 0.378418 67.3646 0.378418 66.8867C0.378418 66.4125 0.759492 66.0245 1.24116 66.0245C1.71564 66.0245 2.10741 66.4125 2.10741 66.8867ZM12.7688 67.7526C13.2397 67.7526 13.6315 67.3646 13.6315 66.8867C13.6315 66.4125 13.2397 66.0245 12.7688 66.0245C12.2835 66.0245 11.9025 66.4125 11.9025 66.8867C11.9025 67.3646 12.2835 67.7526 12.7688 67.7526ZM25.1591 66.8867C25.1591 67.3646 24.7638 67.7526 24.2929 67.7526C23.8112 67.7526 23.4266 67.3646 23.4266 66.8867C23.4266 66.4125 23.8112 66.0245 24.2929 66.0245C24.7638 66.0245 25.1591 66.4125 25.1591 66.8867ZM35.817 67.7526C36.2915 67.7526 36.6833 67.3646 36.6833 66.8867C36.6833 66.4125 36.2915 66.0245 35.817 66.0245C35.3353 66.0245 34.9543 66.4125 34.9543 66.8867C34.9543 67.3646 35.3353 67.7526 35.817 67.7526ZM48.2074 66.8867C48.2074 67.3646 47.8264 67.7526 47.3447 67.7526C46.8702 67.7526 46.4784 67.3646 46.4784 66.8867C46.4784 66.4125 46.8702 66.0245 47.3447 66.0245C47.8264 66.0245 48.2074 66.4125 48.2074 66.8867ZM58.8687 67.7526C59.3504 67.7526 59.7351 67.3646 59.7351 66.8867C59.7351 66.4125 59.3504 66.0245 58.8687 66.0245C58.3979 66.0245 58.0025 66.4125 58.0025 66.8867C58.0025 67.3646 58.3979 67.7526 58.8687 67.7526Z" fill="#828282"/>
<path d="M67.3262 9.83048C67.4628 10.1107 67.5527 10.4053 67.5958 10.7107L68.3363 21.8051L68.7066 27.3774C68.7066 27.9523 68.7964 28.5199 68.9762 29.0696C69.4255 30.1295 70.4931 30.8049 71.6721 30.7582L89.5118 29.5942C90.2883 29.5798 91.0395 29.8672 91.5895 30.3953C92.0496 30.8336 92.3552 31.4085 92.4451 32.0264L92.4774 32.4037C91.7369 42.6214 84.2315 51.147 74.0229 53.3458C63.8216 55.5481 53.3506 50.8991 48.3182 41.9245C46.8588 39.3197 45.9494 36.4527 45.6474 33.4959C45.5108 32.6228 45.4569 31.739 45.4785 30.8552C45.4569 19.8974 53.2643 10.4233 64.1918 8.14188C65.5074 7.9371 66.7978 8.6305 67.3262 9.83048Z" fill="#8BC34A" stroke="#8BC34A" stroke-width="3.13" stroke-miterlimit="22.9256"/>
<path d="M74.6053 0.306087C86.8268 0.618656 97.1036 9.40291 99.0806 21.2374L99.059 21.3236L99.0052 21.4494L99.016 21.7979C98.9908 22.2613 98.811 22.7032 98.4983 23.0625C98.182 23.4362 97.747 23.6912 97.2618 23.7918L96.9706 23.8313L76.381 25.1643C75.6945 25.2325 75.0115 25.0134 74.5047 24.5571C74.0769 24.1798 73.8074 23.6661 73.7283 23.1164L72.348 2.56951C72.3264 2.50125 72.3264 2.42581 72.348 2.35395C72.3695 1.78989 72.6176 1.25457 73.0454 0.87015C73.4695 0.485727 74.0338 0.280938 74.6053 0.306087Z" fill="#262F56"/>
</svg>
