<svg width="464" height="462" viewBox="0 0 464 462" fill="none" xmlns="http://www.w3.org/2000/svg">
<path fill-rule="evenodd" clip-rule="evenodd" d="M46.1594 10.1187C47.0025 10.1187 47.6861 9.4356 47.6861 8.59297C47.6861 7.75035 47.0025 7.06726 46.1594 7.06726C45.3163 7.06726 44.6328 7.75035 44.6328 8.59297C44.6328 9.4356 45.3163 10.1187 46.1594 10.1187ZM46.1585 30.4624C47.0016 30.4624 47.6851 29.7793 47.6851 28.9367C47.6851 28.094 47.0016 27.4109 46.1585 27.4109C45.3154 27.4109 44.6318 28.094 44.6318 28.9367C44.6318 29.7793 45.3154 30.4624 46.1585 30.4624ZM68.0398 8.59324C68.0398 9.43589 67.3563 10.119 66.5131 10.119C65.67 10.119 64.9865 9.43589 64.9865 8.59324C64.9865 7.75059 65.67 7.06748 66.5131 7.06748C67.3563 7.06748 68.0398 7.75059 68.0398 8.59324ZM66.5131 30.4624C67.3563 30.4624 68.0398 29.7793 68.0398 28.9367C68.0398 28.094 67.3563 27.4109 66.5131 27.4109C65.67 27.4109 64.9865 28.094 64.9865 28.9367C64.9865 29.7793 65.67 30.4624 66.5131 30.4624ZM88.3956 8.59324C88.3956 9.43589 87.7121 10.119 86.8689 10.119C86.0258 10.119 85.3423 9.43589 85.3423 8.59324C85.3423 7.75059 86.0258 7.06748 86.8689 7.06748C87.7121 7.06748 88.3956 7.75059 88.3956 8.59324ZM86.8689 30.4624C87.7121 30.4624 88.3956 29.7793 88.3956 28.9367C88.3956 28.094 87.7121 27.4109 86.8689 27.4109C86.0258 27.4109 85.3423 28.094 85.3423 28.9367C85.3423 29.7793 86.0258 30.4624 86.8689 30.4624ZM108.752 8.59324C108.752 9.43589 108.067 10.119 107.224 10.119C106.382 10.119 105.698 9.43589 105.698 8.59324C105.698 7.75059 106.382 7.06748 107.224 7.06748C108.067 7.06748 108.752 7.75059 108.752 8.59324ZM107.224 30.4624C108.067 30.4624 108.752 29.7793 108.752 28.9367C108.752 28.094 108.067 27.4109 107.224 27.4109C106.382 27.4109 105.698 28.094 105.698 28.9367C105.698 29.7793 106.382 30.4624 107.224 30.4624ZM129.106 8.59324C129.106 9.43589 128.422 10.119 127.58 10.119C126.736 10.119 126.052 9.43589 126.052 8.59324C126.052 7.75059 126.736 7.06748 127.58 7.06748C128.422 7.06748 129.106 7.75059 129.106 8.59324ZM127.58 30.4624C128.422 30.4624 129.106 29.7793 129.106 28.9367C129.106 28.094 128.422 27.4109 127.58 27.4109C126.736 27.4109 126.052 28.094 126.052 28.9367C126.052 29.7793 126.736 30.4624 127.58 30.4624ZM149.462 8.59324C149.462 9.43589 148.779 10.119 147.935 10.119C147.092 10.119 146.409 9.43589 146.409 8.59324C146.409 7.75059 147.092 7.06748 147.935 7.06748C148.779 7.06748 149.462 7.75059 149.462 8.59324ZM147.935 30.4624C148.779 30.4624 149.462 29.7793 149.462 28.9367C149.462 28.094 148.779 27.4109 147.935 27.4109C147.092 27.4109 146.409 28.094 146.409 28.9367C146.409 29.7793 147.092 30.4624 147.935 30.4624ZM47.6851 49.2801C47.6851 50.1227 47.0016 50.8058 46.1585 50.8058C45.3154 50.8058 44.6318 50.1227 44.6318 49.2801C44.6318 48.4374 45.3154 47.7543 46.1585 47.7543C47.0016 47.7543 47.6851 48.4374 47.6851 49.2801ZM66.5131 50.8058C67.3563 50.8058 68.0398 50.1227 68.0398 49.2801C68.0398 48.4374 67.3563 47.7543 66.5131 47.7543C65.67 47.7543 64.9865 48.4374 64.9865 49.2801C64.9865 50.1227 65.67 50.8058 66.5131 50.8058ZM88.3956 49.2801C88.3956 50.1227 87.7121 50.8058 86.8689 50.8058C86.0258 50.8058 85.3423 50.1227 85.3423 49.2801C85.3423 48.4374 86.0258 47.7543 86.8689 47.7543C87.7121 47.7543 88.3956 48.4374 88.3956 49.2801ZM107.224 50.8058C108.067 50.8058 108.752 50.1227 108.752 49.2801C108.752 48.4374 108.067 47.7543 107.224 47.7543C106.382 47.7543 105.698 48.4374 105.698 49.2801C105.698 50.1227 106.382 50.8058 107.224 50.8058ZM129.106 49.2801C129.106 50.1227 128.422 50.8058 127.58 50.8058C126.736 50.8058 126.052 50.1227 126.052 49.2801C126.052 48.4374 126.736 47.7543 127.58 47.7543C128.422 47.7543 129.106 48.4374 129.106 49.2801ZM147.935 50.8058C148.779 50.8058 149.462 50.1227 149.462 49.2801C149.462 48.4374 148.779 47.7543 147.935 47.7543C147.092 47.7543 146.409 48.4374 146.409 49.2801C146.409 50.1227 147.092 50.8058 147.935 50.8058ZM47.6851 69.623C47.6851 70.4656 47.0016 71.1488 46.1585 71.1488C45.3154 71.1488 44.6318 70.4656 44.6318 69.623C44.6318 68.7803 45.3154 68.0972 46.1585 68.0972C47.0016 68.0972 47.6851 68.7803 47.6851 69.623ZM66.5131 71.1488C67.3563 71.1488 68.0398 70.4656 68.0398 69.623C68.0398 68.7803 67.3563 68.0972 66.5131 68.0972C65.67 68.0972 64.9865 68.7803 64.9865 69.623C64.9865 70.4656 65.67 71.1488 66.5131 71.1488ZM88.3956 69.623C88.3956 70.4656 87.7121 71.1488 86.8689 71.1488C86.0258 71.1488 85.3423 70.4656 85.3423 69.623C85.3423 68.7803 86.0258 68.0972 86.8689 68.0972C87.7121 68.0972 88.3956 68.7803 88.3956 69.623ZM107.224 71.1488C108.067 71.1488 108.752 70.4656 108.752 69.623C108.752 68.7803 108.067 68.0972 107.224 68.0972C106.382 68.0972 105.698 68.7803 105.698 69.623C105.698 70.4656 106.382 71.1488 107.224 71.1488ZM129.106 69.623C129.106 70.4656 128.422 71.1488 127.58 71.1488C126.736 71.1488 126.052 70.4656 126.052 69.623C126.052 68.7803 126.736 68.0972 127.58 68.0972C128.422 68.0972 129.106 68.7803 129.106 69.623ZM147.935 71.1488C148.779 71.1488 149.462 70.4656 149.462 69.623C149.462 68.7803 148.779 68.0972 147.935 68.0972C147.092 68.0972 146.409 68.7803 146.409 69.623C146.409 70.4656 147.092 71.1488 147.935 71.1488ZM47.6851 89.9665C47.6851 90.8091 47.0016 91.4922 46.1585 91.4922C45.3154 91.4922 44.6318 90.8091 44.6318 89.9665C44.6318 89.1238 45.3154 88.4406 46.1585 88.4406C47.0016 88.4406 47.6851 89.1238 47.6851 89.9665ZM66.5131 91.4922C67.3563 91.4922 68.0398 90.8091 68.0398 89.9665C68.0398 89.1238 67.3563 88.4406 66.5131 88.4406C65.67 88.4406 64.9865 89.1238 64.9865 89.9665C64.9865 90.8091 65.67 91.4922 66.5131 91.4922ZM88.3956 89.9665C88.3956 90.8091 87.7121 91.4922 86.8689 91.4922C86.0258 91.4922 85.3423 90.8091 85.3423 89.9665C85.3423 89.1238 86.0258 88.4406 86.8689 88.4406C87.7121 88.4406 88.3956 89.1238 88.3956 89.9665ZM107.224 91.4922C108.067 91.4922 108.752 90.8091 108.752 89.9665C108.752 89.1238 108.067 88.4406 107.224 88.4406C106.382 88.4406 105.698 89.1238 105.698 89.9665C105.698 90.8091 106.382 91.4922 107.224 91.4922ZM129.106 89.9665C129.106 90.8091 128.422 91.4922 127.58 91.4922C126.736 91.4922 126.052 90.8091 126.052 89.9665C126.052 89.1238 126.736 88.4406 127.58 88.4406C128.422 88.4406 129.106 89.1238 129.106 89.9665ZM147.935 91.4922C148.779 91.4922 149.462 90.8091 149.462 89.9665C149.462 89.1238 148.779 88.4406 147.935 88.4406C147.092 88.4406 146.409 89.1238 146.409 89.9665C146.409 90.8091 147.092 91.4922 147.935 91.4922ZM47.6851 110.31C47.6851 111.153 47.0016 111.836 46.1585 111.836C45.3154 111.836 44.6318 111.153 44.6318 110.31C44.6318 109.467 45.3154 108.785 46.1585 108.785C47.0016 108.785 47.6851 109.467 47.6851 110.31ZM66.5131 111.836C67.3563 111.836 68.0398 111.153 68.0398 110.31C68.0398 109.467 67.3563 108.785 66.5131 108.785C65.67 108.785 64.9865 109.467 64.9865 110.31C64.9865 111.153 65.67 111.836 66.5131 111.836ZM88.3956 110.31C88.3956 111.153 87.7121 111.836 86.8689 111.836C86.0258 111.836 85.3423 111.153 85.3423 110.31C85.3423 109.467 86.0258 108.785 86.8689 108.785C87.7121 108.785 88.3956 109.467 88.3956 110.31ZM107.224 111.836C108.067 111.836 108.752 111.153 108.752 110.31C108.752 109.467 108.067 108.785 107.224 108.785C106.382 108.785 105.698 109.467 105.698 110.31C105.698 111.153 106.382 111.836 107.224 111.836ZM129.106 110.31C129.106 111.153 128.422 111.836 127.58 111.836C126.736 111.836 126.052 111.153 126.052 110.31C126.052 109.467 126.736 108.785 127.58 108.785C128.422 108.785 129.106 109.467 129.106 110.31ZM147.935 111.836C148.779 111.836 149.462 111.153 149.462 110.31C149.462 109.467 148.779 108.785 147.935 108.785C147.092 108.785 146.409 109.467 146.409 110.31C146.409 111.153 147.092 111.836 147.935 111.836Z" fill="#5AD501"/>
<g opacity="0.33" filter="url(#filter0_f_2795_47)">
<path opacity="0.44" d="M244.086 421.585C311.03 421.585 365.298 367.349 365.298 300.444C365.298 233.54 311.03 179.304 244.086 179.304C177.143 179.304 122.874 233.54 122.874 300.444C122.874 367.349 177.143 421.585 244.086 421.585Z" fill="#662383"/>
</g>
<g filter="url(#filter1_d_2795_47)">
<path d="M323.559 19.9691H141.343C89.388 19.9691 47.2703 62.0621 47.2703 113.986V296.096C47.2703 348.02 89.388 390.113 141.343 390.113H323.559C375.514 390.113 417.632 348.02 417.632 296.096V113.986C417.632 62.0621 375.514 19.9691 323.559 19.9691Z" fill="white"/>
</g>
<g filter="url(#filter2_ddd_2795_47)">
<path d="M360.199 196.829C362.348 230.226 351.319 263.133 329.477 288.497C307.634 313.861 276.717 329.663 243.354 332.513C209.992 335.364 176.839 325.036 151.007 303.744C125.173 282.453 108.716 251.894 105.162 218.618L175.54 211.111C177.129 225.989 184.487 239.653 196.037 249.171C207.587 258.691 222.41 263.308 237.326 262.034C252.242 260.759 266.065 253.695 275.831 242.354C285.597 231.014 290.528 216.301 289.567 201.37L360.199 196.829Z" fill="white" stroke="#F3F3EC" stroke-width="1.82161"/>
<mask id="mask0_2795_47" style="mask-type:alpha" maskUnits="userSpaceOnUse" x="105" y="196" width="256" height="137">
<path d="M360.199 196.829C362.348 230.226 351.319 263.133 329.477 288.497C307.634 313.861 276.717 329.663 243.354 332.513C209.992 335.364 176.839 325.036 151.007 303.744C125.173 282.453 108.716 251.894 105.162 218.618L175.54 211.111C177.129 225.989 184.487 239.653 196.037 249.171C207.587 258.691 222.41 263.308 237.326 262.034C252.242 260.759 266.065 253.695 275.831 242.354C285.597 231.014 290.528 216.301 289.567 201.37L360.199 196.829Z" fill="white"/>
</mask>
<g mask="url(#mask0_2795_47)">
<path d="M360.199 196.829C362.348 230.226 351.319 263.133 329.477 288.497C307.634 313.861 276.717 329.663 243.354 332.513C209.992 335.364 176.839 325.036 151.007 303.744C125.173 282.453 108.716 251.894 105.162 218.618L175.54 211.111C177.129 225.989 184.487 239.653 196.037 249.171C207.587 258.691 222.41 263.308 237.326 262.034C252.242 260.759 266.065 253.695 275.831 242.354C285.597 231.014 290.528 216.301 289.567 201.37L360.199 196.829Z" fill="white" stroke="#9700D9" stroke-width="88.7223"/>
<path d="M220.598 292.241C220.598 292.63 220.93 292.961 221.32 292.961H222.118C222.507 292.961 222.839 292.63 222.839 292.241V279.975C222.839 279.586 222.605 279.295 222.216 279.295H221.728C221.397 279.295 221.027 279.45 220.618 279.742L218.105 281.65C217.93 281.786 217.833 281.981 217.833 282.194C217.833 282.351 217.892 282.487 217.988 282.623L218.476 283.207C218.631 283.382 218.826 283.46 219.06 283.46C219.215 283.46 219.352 283.422 219.488 283.324L220.598 282.487V292.241ZM230.548 284.842C229.516 284.842 228.756 284.025 228.756 283.091C228.756 282.078 229.516 281.358 230.684 281.358C231.873 281.358 232.671 282 232.671 283.091C232.671 284.025 231.931 284.842 230.919 284.842H230.548ZM230.919 287.081C232.165 287.081 233.042 287.782 233.061 289.009V289.047C233.061 290.157 232.243 290.936 230.704 290.936C229.282 290.936 228.386 290.118 228.386 289.009C228.386 287.841 229.399 287.081 230.587 287.081H230.919ZM230.704 279.119C229.477 279.119 228.464 279.45 227.626 280.112C226.789 280.793 226.38 281.65 226.38 282.701C226.38 284.239 227.217 285.466 228.327 285.952C226.944 286.478 225.99 287.743 225.99 289.437C225.99 290.566 226.438 291.461 227.334 292.143C228.231 292.825 229.361 293.174 230.724 293.174C232.087 293.174 233.217 292.825 234.113 292.123C234.99 291.423 235.438 290.469 235.438 289.242C235.438 287.529 234.366 286.264 232.964 285.933C234.269 285.368 235.068 284.044 235.068 282.701C235.068 281.65 234.658 280.793 233.821 280.112C232.983 279.45 231.931 279.119 230.704 279.119ZM246.3 289.807C246.69 289.807 247.021 289.476 247.021 289.087V288.289C247.021 287.899 246.69 287.568 246.3 287.568H245.267V284.92C245.267 284.531 244.936 284.2 244.547 284.2H243.748C243.358 284.2 243.027 284.531 243.027 284.92V287.568H239.696L244.04 280.287C244.099 280.19 244.138 280.092 244.138 279.956C244.138 279.626 243.865 279.333 243.495 279.333H242.696C242.268 279.333 241.917 279.547 241.664 279.975L237.183 287.51C236.892 288.016 236.736 288.425 236.736 288.756V289.145C236.736 289.476 237.067 289.807 237.456 289.807H243.027V292.241C243.027 292.63 243.358 292.961 243.748 292.961H244.547C244.936 292.961 245.267 292.63 245.267 292.241V289.807H246.3ZM231.084 297.828C231.22 297.906 231.376 297.945 231.513 297.945C231.746 297.945 231.941 297.828 232.097 297.575L232.506 296.855C232.584 296.719 232.623 296.602 232.623 296.466C232.623 296.213 232.487 296.037 232.233 295.9C231.065 295.258 229.877 294.927 228.668 294.927C226.487 294.927 224.772 295.589 223.545 296.913C222.319 298.237 221.695 299.911 221.695 301.955C221.695 304.077 222.337 305.771 223.643 307.056C224.948 308.341 226.643 308.983 228.727 308.983C230.188 308.983 231.493 308.594 232.681 307.815C232.856 307.699 232.954 307.524 232.954 307.27C232.954 307.095 232.916 306.959 232.818 306.822L232.467 306.278C232.33 306.063 232.136 305.947 231.844 305.947C231.707 305.947 231.551 305.985 231.396 306.063C230.558 306.511 229.74 306.744 228.941 306.744C227.558 306.744 226.428 306.297 225.552 305.401C224.675 304.525 224.228 303.377 224.228 301.955C224.228 300.496 224.656 299.347 225.493 298.47C226.331 297.595 227.383 297.166 228.668 297.166C229.429 297.166 230.227 297.381 231.084 297.828ZM234.54 306.336C234.422 306.453 234.364 306.589 234.364 306.764C234.364 306.998 234.442 307.193 234.618 307.329C235.805 308.439 237.15 308.983 238.65 308.983C239.954 308.983 241.026 308.613 241.903 307.893C242.779 307.173 243.208 306.258 243.208 305.129C243.208 300.593 237.033 301.488 237.033 298.665C237.033 297.75 237.774 297.166 238.942 297.166C239.546 297.166 240.209 297.342 240.89 297.672C240.988 297.731 241.104 297.75 241.241 297.75C241.514 297.75 241.727 297.614 241.883 297.361L242.253 296.719C242.312 296.621 242.351 296.504 242.351 296.388C242.351 296.095 242.234 295.9 242 295.765C241.006 295.2 239.936 294.927 238.747 294.927C237.461 294.927 236.429 295.278 235.67 295.998C234.89 296.719 234.5 297.614 234.5 298.685C234.5 303.104 240.675 302.481 240.675 305.148C240.675 306.16 239.858 306.744 238.689 306.744C237.929 306.744 237.091 306.375 236.215 305.654C236.04 305.518 235.865 305.44 235.67 305.44C235.494 305.44 235.319 305.518 235.182 305.654L234.54 306.336Z" fill="#E1E1E1"/>
<path d="M105.205 219.014C102.538 194.752 106.87 170.235 117.691 148.354C128.512 126.473 145.37 108.143 166.275 95.5258C187.18 82.9083 211.26 76.5306 235.674 77.1451C260.088 77.7596 283.816 85.3407 304.059 98.9941L264.467 157.627C255.416 151.523 244.808 148.134 233.892 147.859C222.976 147.584 212.21 150.435 202.864 156.077C193.517 161.718 185.98 169.913 181.142 179.697C176.304 189.479 174.367 200.442 175.559 211.288L105.205 219.014Z" fill="white" stroke="#F3F3EC" stroke-width="1.82161"/>
</g>
<mask id="mask1_2795_47" style="mask-type:alpha" maskUnits="userSpaceOnUse" x="104" y="77" width="201" height="143">
<path d="M105.205 219.014C102.538 194.752 106.87 170.235 117.691 148.354C128.512 126.473 145.37 108.143 166.275 95.5258C187.18 82.9083 211.26 76.5306 235.674 77.1451C260.088 77.7596 283.816 85.3407 304.059 98.9941L264.467 157.627C255.416 151.523 244.808 148.134 233.892 147.859C222.976 147.584 212.21 150.435 202.864 156.077C193.517 161.718 185.98 169.913 181.142 179.697C176.304 189.479 174.367 200.442 175.559 211.288L105.205 219.014Z" fill="white"/>
</mask>
<g mask="url(#mask1_2795_47)">
<path d="M105.205 219.014C102.538 194.752 106.87 170.235 117.691 148.354C128.512 126.473 145.37 108.143 166.275 95.5258C187.18 82.9083 211.26 76.5306 235.674 77.1451C260.088 77.7596 283.816 85.3407 304.059 98.9941L264.467 157.627C255.416 151.523 244.808 148.134 233.892 147.859C222.976 147.584 212.21 150.435 202.864 156.077C193.517 161.718 185.98 169.913 181.142 179.697C176.304 189.479 174.367 200.442 175.559 211.288L105.205 219.014Z" fill="white" stroke="#8B40AC" stroke-width="88.7223"/>
<path d="M168.176 139.427C168.434 139.719 168.902 139.747 169.193 139.489L169.79 138.959C170.082 138.7 170.111 138.233 169.852 137.942L161.71 128.765C161.452 128.473 161.084 128.41 160.792 128.668L160.427 128.991C160.18 129.21 160.006 129.573 159.894 130.062L159.28 133.155C159.239 133.374 159.295 133.584 159.438 133.744C159.541 133.861 159.676 133.924 159.839 133.962L160.59 134.075C160.824 134.104 161.021 134.033 161.196 133.878C161.313 133.774 161.389 133.654 161.427 133.491L161.702 132.129L168.176 139.427ZM166.24 123.606C165.278 124.459 164.696 125.651 164.495 127.156C164.454 127.374 164.525 127.572 164.68 127.747C164.797 127.877 164.943 127.955 165.108 127.965L165.712 128.029C165.945 128.057 166.155 128.001 166.33 127.846C166.462 127.729 166.539 127.582 166.576 127.419C166.742 126.519 167.071 125.863 167.566 125.424C168.426 124.661 169.29 124.755 169.961 125.513C170.724 126.372 170.488 127.543 169.57 128.357C169.22 128.668 169.192 129.135 169.45 129.426L169.98 130.023C170.238 130.315 170.706 130.342 170.998 130.085L171.187 129.917C172.368 128.87 173.534 128.748 174.361 129.679C175.084 130.496 175.017 131.622 173.967 132.552C173.399 133.056 172.54 133.349 171.348 133.443C171.18 133.461 171.025 133.52 170.909 133.624C170.748 133.765 170.667 133.968 170.667 134.202L170.718 134.963C170.71 135.101 170.769 135.256 170.899 135.401C171.067 135.591 171.241 135.671 171.463 135.656C173.205 135.596 174.288 135.261 175.556 134.136C176.518 133.285 177.074 132.298 177.21 131.188C177.358 130.094 177.02 129.067 176.206 128.149C175.107 126.911 173.515 126.553 172.068 127.418C172.69 126.035 172.491 124.754 171.47 123.603C170.061 122.015 168.004 122.044 166.24 123.606ZM179.275 126.73C179.054 126.745 178.856 126.815 178.711 126.945C178.551 127.087 178.485 127.248 178.486 127.455L178.477 128.061C178.467 128.254 178.539 128.424 178.668 128.569C178.785 128.7 178.959 128.78 179.152 128.791C180.723 128.831 182.003 128.425 182.965 127.573C183.97 126.682 184.53 125.639 184.644 124.419C184.759 123.198 184.345 122.057 183.402 120.993C182.536 120.017 181.532 119.502 180.404 119.434C179.262 119.379 178.231 119.772 177.313 120.586C177.138 120.741 176.962 120.924 176.782 121.161L175.277 118.877L178.09 116.384C178.382 116.127 178.41 115.659 178.151 115.368L177.621 114.771C177.363 114.48 176.896 114.451 176.604 114.71L172.858 118.029C172.552 118.3 172.496 118.766 172.724 119.11L175.783 123.528C175.796 123.543 175.86 123.643 175.872 123.657C176.183 124.007 176.623 124.034 176.988 123.711C177.001 123.698 177.047 123.632 177.09 123.592C177.3 123.329 177.564 123.07 177.899 122.772C179.241 121.585 180.743 121.605 181.674 122.655C182.565 123.659 182.498 124.993 181.522 125.859C180.924 126.388 180.175 126.688 179.275 126.73ZM160.113 151.411C159.855 151.12 159.387 151.092 159.096 151.35L158.381 151.983C158.09 152.241 158.062 152.709 158.32 153L166.409 162.119C166.668 162.41 167.135 162.439 167.427 162.18L168.141 161.548C168.433 161.289 168.461 160.821 168.203 160.531L160.113 151.411ZM175.016 155.455C175.308 155.197 175.336 154.73 175.078 154.439L167.996 146.455L170.765 144.002C171.057 143.743 171.086 143.277 170.827 142.985L170.297 142.388C170.039 142.096 169.571 142.068 169.279 142.326L161.948 148.823C161.656 149.081 161.628 149.549 161.886 149.839L162.416 150.437C162.674 150.729 163.142 150.756 163.434 150.498L166.203 148.044L173.285 156.027C173.543 156.319 174.011 156.347 174.302 156.089L175.016 155.455ZM183.452 137.184C183.233 136.936 182.767 136.88 182.49 137.126L181.907 137.642C181.6 137.914 181.56 138.366 181.816 138.685C182.545 139.653 183.022 140.66 183.291 141.697L179.021 140.876C179.529 140.009 179.377 138.635 178.589 137.747C177.994 137.076 177.283 136.744 176.44 136.763C175.61 136.795 174.861 137.095 174.205 137.676C173.549 138.258 173.162 138.965 173.029 139.784C172.911 140.618 173.155 141.364 173.75 142.034C174.576 142.967 175.552 143.274 176.647 142.953C176.356 144.122 176.255 145.122 176.315 145.953C176.374 146.812 176.739 147.606 177.425 148.378C178.187 149.238 179.128 149.653 180.233 149.637C181.351 149.635 182.427 149.175 183.447 148.271C184.73 147.135 185.374 145.836 185.394 144.362L186.607 144.614C186.961 144.69 187.27 144.598 187.577 144.327L188.276 143.707C188.552 143.462 188.55 143.048 188.33 142.8C188.227 142.684 188.108 142.607 187.97 142.599L185.486 142.146C185.34 140.427 184.681 138.774 183.478 137.213L183.452 137.184ZM183.198 143.94C183.277 144.91 182.88 145.782 182.02 146.544C181.131 147.332 179.811 147.253 179.022 146.364C178.364 145.621 178.296 144.694 178.593 142.946L183.198 143.94ZM175.309 140.653C174.883 140.171 174.925 139.457 175.407 139.031C175.873 138.617 176.603 138.648 177.029 139.128C177.442 139.594 177.4 140.309 176.918 140.736C176.438 141.161 175.723 141.119 175.309 140.653ZM190.557 127.896C189.213 126.381 187.287 126.293 184.969 128.347C184.707 128.579 183.918 129.304 182.603 130.521C182.324 130.794 182.296 131.261 182.567 131.568L190.631 140.658C190.889 140.949 191.357 140.977 191.662 140.733C192.358 140.168 193.144 139.499 194.004 138.736C196.277 136.721 196.876 134.344 195.079 132.32C193.942 131.037 192.477 130.852 191.167 131.518C191.73 130.187 191.526 128.989 190.557 127.896ZM190.28 134.099C191.403 133.105 192.447 132.961 193.209 133.82C194.075 134.796 193.887 135.847 192.648 136.944C192.27 137.28 191.85 137.6 191.404 137.918L189.012 135.223L190.28 134.099ZM185.342 131.085C185.637 130.772 186.004 130.422 186.426 130.048C187.417 129.17 188.43 129.079 189.153 129.895C189.942 130.783 189.729 131.805 188.84 132.592L187.63 133.664L185.342 131.085ZM206.507 126.825C206.855 127.011 207.16 126.974 207.467 126.704L208.093 126.148C208.428 125.851 208.428 125.383 208.158 125.076C208.093 125.003 208.027 124.958 207.933 124.911L196.089 119.249C195.727 119.075 195.406 119.124 195.115 119.383L194.416 120.003C194.124 120.262 194.036 120.573 194.165 120.953L198.371 133.384C198.407 133.481 198.443 133.553 198.509 133.626C198.78 133.932 199.245 133.987 199.58 133.69L200.105 133.226C200.412 132.954 200.485 132.655 200.342 132.288L199.294 129.287L203.651 125.426L206.507 126.825ZM201.481 124.358L198.493 127.005L196.777 122.048L201.481 124.358Z" fill="#E1E1E1"/>
<path d="M303.997 98.9517C320.325 109.95 333.894 124.564 343.648 141.658C353.403 158.751 359.082 177.864 360.24 197.508L289.586 201.673C289.067 192.89 286.529 184.345 282.167 176.703C277.806 169.06 271.739 162.526 264.439 157.608L303.997 98.9517Z" fill="white" stroke="#F3F3EC" stroke-width="1.82161"/>
</g>
<mask id="mask2_2795_47" style="mask-type:alpha" maskUnits="userSpaceOnUse" x="264" y="98" width="97" height="104">
<path d="M303.997 98.9517C320.325 109.95 333.894 124.564 343.648 141.658C353.403 158.751 359.082 177.864 360.24 197.508L289.586 201.673C289.067 192.89 286.529 184.345 282.167 176.703C277.806 169.06 271.739 162.526 264.439 157.608L303.997 98.9517Z" fill="white"/>
</mask>
<g mask="url(#mask2_2795_47)">
<path d="M303.997 98.9517C320.325 109.95 333.894 124.564 343.648 141.658C353.403 158.751 359.082 177.864 360.24 197.508L289.586 201.673C289.067 192.89 286.529 184.345 282.167 176.703C277.806 169.06 271.739 162.526 264.439 157.608L303.997 98.9517Z" fill="white" stroke="#D688FF" stroke-width="88.7223"/>
<path d="M314.542 150.211C314.572 149.991 314.542 149.783 314.446 149.615C314.338 149.429 314.192 149.333 313.99 149.293L313.397 149.163C313.211 149.113 313.03 149.15 312.861 149.248C312.71 149.335 312.596 149.491 312.546 149.676C312.193 151.207 312.335 152.541 312.977 153.654C313.65 154.817 314.558 155.574 315.732 155.931C316.905 156.287 318.108 156.111 319.339 155.4C320.47 154.748 321.176 153.869 321.469 152.778C321.751 151.671 321.572 150.582 320.959 149.52C320.842 149.319 320.699 149.109 320.502 148.885L323.042 147.869L324.921 151.123C325.116 151.461 325.568 151.581 325.906 151.387L326.598 150.987C326.935 150.793 327.056 150.341 326.862 150.003L324.358 145.671C324.154 145.317 323.708 145.169 323.324 145.323L318.381 147.433C318.364 147.443 318.253 147.485 318.236 147.495C317.832 147.728 317.717 148.154 317.961 148.576C317.971 148.592 318.026 148.65 318.056 148.7C318.271 148.958 318.474 149.268 318.698 149.657C319.594 151.207 319.272 152.674 318.057 153.376C316.893 154.047 315.599 153.714 314.947 152.585C314.547 151.893 314.403 151.1 314.542 150.211ZM323.569 165.252C323.763 165.589 324.216 165.71 324.553 165.515L325.245 165.116C325.582 164.922 325.703 164.469 325.508 164.132L324.992 163.239L327.287 161.915C327.624 161.72 327.745 161.268 327.551 160.931L327.151 160.239C326.956 159.902 326.504 159.782 326.167 159.977L323.872 161.3L322.207 158.416L330.689 158.536C330.801 158.538 330.905 158.523 331.024 158.455C331.31 158.29 331.427 157.908 331.242 157.588L330.843 156.896C330.628 156.525 330.267 156.329 329.77 156.324L321.001 156.213C320.416 156.213 319.984 156.282 319.697 156.448L319.36 156.643C319.073 156.808 318.952 157.26 319.146 157.597L321.932 162.419L319.824 163.636C319.486 163.831 319.365 164.283 319.56 164.62L319.959 165.311C320.154 165.649 320.607 165.769 320.944 165.575L323.052 164.358L323.569 165.252ZM309.379 151.359C309.174 151.005 308.732 150.9 308.394 151.095L297.834 157.188C297.497 157.383 297.375 157.835 297.57 158.172C298.4 159.65 298.901 160.553 299.104 160.906C300.351 163.065 301.889 164.403 303.718 164.921C305.52 165.432 307.312 165.185 309.067 164.173C312.188 162.373 313.803 158.9 311.075 154.179C311.047 154.128 310.484 153.194 309.379 151.359ZM308.277 153.928C308.583 154.381 308.863 154.826 309.116 155.265C310.723 158.047 310.212 160.589 307.8 161.981C305.287 163.432 302.71 162.67 301.083 159.855C300.792 159.349 300.556 158.901 300.348 158.503L308.277 153.928ZM306.119 168.104C305.959 168.061 305.812 168.078 305.66 168.166C305.458 168.283 305.328 168.448 305.298 168.667C304.93 170.251 305.13 171.687 305.88 172.985C306.533 174.114 307.389 174.857 308.451 175.256C309.513 175.654 310.521 175.568 311.499 175.003C315.43 172.735 311.567 167.838 314.013 166.426C314.805 165.969 315.681 166.318 316.266 167.33C316.568 167.852 316.747 168.513 316.801 169.268C316.799 169.382 316.841 169.493 316.909 169.611C317.046 169.847 317.271 169.965 317.568 169.973L318.31 169.972C318.423 169.973 318.544 169.949 318.645 169.89C318.898 169.744 319.008 169.546 319.01 169.276C319.002 168.134 318.703 167.07 318.108 166.041C317.466 164.929 316.646 164.21 315.642 163.913C314.628 163.599 313.658 163.709 312.729 164.245C308.899 166.454 312.528 171.487 310.216 172.821C309.338 173.327 308.424 172.911 307.84 171.899C307.459 171.242 307.361 170.332 307.547 169.213C307.578 168.993 307.557 168.803 307.46 168.634C307.372 168.483 307.217 168.37 307.031 168.32L306.119 168.104Z" fill="#EFEDED"/>
</g>
</g>
<path d="M232.451 264.432C265.271 264.432 291.878 237.842 291.878 205.041C291.878 172.24 265.271 145.649 232.451 145.649C199.631 145.649 173.025 172.24 173.025 205.041C173.025 237.842 199.631 264.432 232.451 264.432Z" fill="white"/>
<path d="M224.146 188.045C222.86 188.045 221.633 188.551 220.483 189.544C220.308 189.68 220.23 189.875 220.23 190.109C220.23 190.284 220.288 190.44 220.406 190.556L220.814 191.004C220.97 191.179 221.165 191.277 221.398 191.277C221.574 191.277 221.73 191.218 221.866 191.12C222.587 190.556 223.269 190.284 223.931 190.284C225.08 190.284 225.665 190.926 225.665 191.939C225.665 193.087 224.71 193.807 223.483 193.807C223.016 193.807 222.685 194.138 222.685 194.527V195.325C222.685 195.715 223.016 196.046 223.405 196.046H223.658C225.236 196.046 226.191 196.728 226.191 197.973C226.191 199.063 225.392 199.862 223.99 199.862C223.23 199.862 222.392 199.512 221.438 198.792C221.302 198.694 221.145 198.635 220.99 198.635C220.776 198.635 220.581 198.732 220.425 198.908L219.957 199.512C219.86 199.609 219.802 199.765 219.802 199.959C219.802 200.212 219.88 200.387 220.055 200.524C221.398 201.633 222.432 202.1 224.126 202.1C225.411 202.1 226.483 201.731 227.32 200.991C228.159 200.271 228.587 199.278 228.587 198.051C228.587 196.397 227.633 195.073 225.977 194.761C227.36 194.138 228.061 193.048 228.061 191.51C228.061 189.388 226.503 188.045 224.146 188.045ZM233.19 201.886C233.637 201.886 234.047 201.595 234.202 201.186L238.488 190.458C238.722 189.855 238.839 189.465 238.839 189.252V188.998C238.839 188.59 238.507 188.259 238.118 188.259H230.91C230.52 188.259 230.189 188.59 230.189 188.979V189.778C230.189 190.167 230.52 190.498 230.91 190.498H236.072L231.903 200.855C231.865 200.952 231.845 201.049 231.845 201.147C231.845 201.536 232.196 201.886 232.605 201.886H233.19ZM244.101 188.045C242.815 188.045 241.588 188.551 240.438 189.544C240.263 189.68 240.185 189.875 240.185 190.109C240.185 190.284 240.243 190.44 240.36 190.556L240.769 191.004C240.926 191.179 241.12 191.277 241.354 191.277C241.53 191.277 241.685 191.218 241.821 191.12C242.542 190.556 243.224 190.284 243.886 190.284C245.035 190.284 245.619 190.926 245.619 191.939C245.619 193.087 244.665 193.807 243.439 193.807C242.971 193.807 242.64 194.138 242.64 194.527V195.325C242.64 195.715 242.971 196.046 243.36 196.046H243.614C245.191 196.046 246.145 196.728 246.145 197.973C246.145 199.063 245.348 199.862 243.945 199.862C243.185 199.862 242.347 199.512 241.393 198.792C241.257 198.694 241.101 198.635 240.945 198.635C240.731 198.635 240.536 198.732 240.38 198.908L239.912 199.512C239.815 199.609 239.757 199.765 239.757 199.959C239.757 200.212 239.834 200.387 240.01 200.524C241.354 201.633 242.387 202.1 244.081 202.1C245.366 202.1 246.438 201.731 247.275 200.991C248.114 200.271 248.542 199.278 248.542 198.051C248.542 196.397 247.588 195.073 245.932 194.761C247.315 194.138 248.016 193.048 248.016 191.51C248.016 189.388 246.458 188.045 244.101 188.045ZM201.503 212.293C201.599 212.351 201.717 212.39 201.814 212.39C201.95 212.39 202.087 212.332 202.203 212.215C202.282 212.117 202.32 212.02 202.32 211.922C202.32 211.767 202.262 211.65 202.145 211.553C201.346 211.008 200.314 210.735 199.009 210.735C197.763 210.735 196.73 211.164 195.892 212.04C195.055 212.915 194.646 214.006 194.646 215.291C194.646 216.673 195.075 217.763 195.95 218.601C196.808 219.437 197.918 219.847 199.282 219.847C200.548 219.847 201.581 219.437 202.418 218.619C202.593 218.445 202.593 218.133 202.418 217.977C202.32 217.88 202.203 217.841 202.087 217.841C201.95 217.841 201.834 217.899 201.736 217.997C201.035 218.601 200.236 218.892 199.359 218.892C198.307 218.892 197.431 218.561 196.749 217.899C196.067 217.257 195.717 216.38 195.717 215.291C195.717 214.259 196.048 213.403 196.73 212.721C197.412 212.04 198.21 211.689 199.164 211.689C200.119 211.689 200.899 211.884 201.503 212.293ZM207.843 211.922H210.842C211.095 211.922 211.329 211.728 211.329 211.436C211.329 211.124 211.135 210.911 210.842 210.911H203.83C203.577 210.911 203.342 211.105 203.342 211.397C203.342 211.709 203.537 211.922 203.83 211.922H206.829V219.263C206.829 219.554 207.024 219.749 207.317 219.749C207.628 219.749 207.843 219.554 207.843 219.263V211.922ZM213.436 211.222C213.318 210.989 213.163 210.871 212.949 210.871C212.579 210.871 212.384 211.105 212.384 211.397C212.384 211.495 212.403 211.573 212.443 211.67L216.397 219.671L216.202 220.138C215.442 221.929 214.799 222.63 213.923 222.63C213.748 222.63 213.533 222.591 213.28 222.493C213.202 222.475 213.143 222.455 213.085 222.455C212.89 222.455 212.754 222.533 212.676 222.689C212.637 222.766 212.618 222.844 212.618 222.903C212.618 223.078 212.696 223.215 212.871 223.292C213.202 223.468 213.611 223.564 214.059 223.564C214.683 223.564 215.227 223.292 215.715 222.766C216.182 222.222 216.728 221.189 217.351 219.671L220.605 211.631C220.643 211.553 220.663 211.475 220.663 211.378C220.663 211.047 220.488 210.871 220.137 210.871C219.884 210.871 219.708 210.989 219.631 211.242L217.391 217.062C217.136 217.783 216.962 218.25 216.903 218.464L216.279 217.102L213.436 211.222ZM229.569 219.671V221.442C229.569 222.007 230.524 222.007 230.524 221.442V219.223C230.524 218.932 230.271 218.717 230.017 218.717H229.063V211.417C229.063 211.164 228.849 210.911 228.557 210.911H223.979C223.687 210.911 223.453 211.124 223.453 211.417L223.336 213.383C223.18 215.933 222.537 217.919 221.914 218.717H221.33C221.076 218.717 220.823 218.932 220.823 219.223V221.442C220.823 222.007 221.778 222.007 221.778 221.442V219.671H229.569ZM222.985 218.717C223.239 218.386 223.511 217.783 223.784 216.868C224.037 215.972 224.213 214.94 224.31 213.772L224.427 211.864H228.05V218.717H222.985ZM232.697 214.668C232.873 212.896 234.08 211.689 235.97 211.689C237.82 211.689 238.99 212.819 239.009 214.668H232.697ZM240.042 214.687C240.042 213.499 239.671 212.546 238.912 211.826C238.151 211.105 237.217 210.735 236.067 210.735C234.684 210.735 233.594 211.164 232.814 212.02C232.016 212.877 231.627 213.967 231.627 215.291C231.627 216.673 232.055 217.763 232.912 218.601C233.769 219.437 234.899 219.847 236.282 219.847C237.451 219.847 238.464 219.496 239.34 218.814C239.438 218.717 239.476 218.619 239.476 218.503C239.476 218.406 239.438 218.328 239.379 218.23C239.262 218.094 239.126 218.035 238.99 218.035C238.892 218.035 238.814 218.075 238.717 218.133C238.015 218.639 237.217 218.892 236.34 218.892C234.237 218.892 232.834 217.608 232.756 215.505H239.613C239.827 215.505 240.022 215.291 240.022 215.116C240.042 215.018 240.042 214.882 240.042 214.687ZM250.217 211.358C250.217 211.066 249.983 210.871 249.73 210.871C249.418 210.871 249.204 211.066 249.204 211.358V214.745H243.516V211.358C243.516 211.066 243.282 210.871 243.029 210.871C242.717 210.871 242.503 211.066 242.503 211.358V219.263C242.503 219.554 242.737 219.749 242.99 219.749C243.301 219.749 243.516 219.554 243.516 219.263V215.7H249.204V219.263C249.204 219.905 250.217 219.905 250.217 219.263V211.358ZM256.503 211.922H259.503C259.756 211.922 259.99 211.728 259.99 211.436C259.99 211.124 259.795 210.911 259.503 210.911H252.49C252.237 210.911 252.003 211.105 252.003 211.397C252.003 211.709 252.198 211.922 252.49 211.922H255.49V219.263C255.49 219.554 255.685 219.749 255.977 219.749C256.289 219.749 256.503 219.554 256.503 219.263V211.922ZM269.643 211.397C269.643 211.047 269.468 210.871 269.097 210.871C268.844 210.871 268.591 211.027 268.358 211.319L262.786 218.211V211.358C262.786 211.066 262.552 210.871 262.299 210.871C261.987 210.871 261.773 211.066 261.773 211.358V219.185C261.773 219.554 261.968 219.749 262.338 219.749C262.591 219.749 262.844 219.612 263.059 219.321L268.629 212.429V219.263C268.629 219.554 268.864 219.749 269.117 219.749C269.428 219.749 269.643 219.554 269.643 219.263V211.397Z" fill="#52616B"/>
<path d="M205.928 201.039C209.16 201.039 211.78 198.42 211.78 195.189C211.78 191.959 209.16 189.34 205.928 189.34C202.695 189.34 200.075 191.959 200.075 195.189C200.075 198.42 202.695 201.039 205.928 201.039Z" fill="#5AD501"/>
<defs>
<filter id="filter0_f_2795_47" x="82.874" y="139.304" width="322.424" height="322.282" filterUnits="userSpaceOnUse" color-interpolation-filters="sRGB">
<feFlood flood-opacity="0" result="BackgroundImageFix"/>
<feBlend mode="normal" in="SourceGraphic" in2="BackgroundImageFix" result="shape"/>
<feGaussianBlur stdDeviation="20" result="effect1_foregroundBlur_2795_47"/>
</filter>
<filter id="filter1_d_2795_47" x="8.41426" y="0.541056" width="448.074" height="447.856" filterUnits="userSpaceOnUse" color-interpolation-filters="sRGB">
<feFlood flood-opacity="0" result="BackgroundImageFix"/>
<feColorMatrix in="SourceAlpha" type="matrix" values="0 0 0 0 0 0 0 0 0 0 0 0 0 0 0 0 0 0 127 0" result="hardAlpha"/>
<feOffset dy="19.428"/>
<feGaussianBlur stdDeviation="19.428"/>
<feColorMatrix type="matrix" values="0 0 0 0 0 0 0 0 0 0 0 0 0 0 0 0 0 0 0.04 0"/>
<feBlend mode="normal" in2="BackgroundImageFix" result="effect1_dropShadow_2795_47"/>
<feBlend mode="normal" in="SourceGraphic" in2="effect1_dropShadow_2795_47" result="shape"/>
</filter>
<filter id="filter2_ddd_2795_47" x="83.1594" y="60.6586" width="299.214" height="301.16" filterUnits="userSpaceOnUse" color-interpolation-filters="sRGB">
<feFlood flood-opacity="0" result="BackgroundImageFix"/>
<feColorMatrix in="SourceAlpha" type="matrix" values="0 0 0 0 0 0 0 0 0 0 0 0 0 0 0 0 0 0 127 0" result="hardAlpha"/>
<feOffset dy="6.37564"/>
<feGaussianBlur stdDeviation="7"/>
<feColorMatrix type="matrix" values="0 0 0 0 0.529412 0 0 0 0 0.180392 0 0 0 0 0.678431 0 0 0 0.22 0"/>
<feBlend mode="normal" in2="BackgroundImageFix" result="effect1_dropShadow_2795_47"/>
<feColorMatrix in="SourceAlpha" type="matrix" values="0 0 0 0 0 0 0 0 0 0 0 0 0 0 0 0 0 0 127 0" result="hardAlpha"/>
<feOffset dy="4.55403"/>
<feGaussianBlur stdDeviation="10.5"/>
<feColorMatrix type="matrix" values="0 0 0 0 0.529412 0 0 0 0 0.180392 0 0 0 0 0.678431 0 0 0 0.12 0"/>
<feBlend mode="normal" in2="effect1_dropShadow_2795_47" result="effect2_dropShadow_2795_47"/>
<feColorMatrix in="SourceAlpha" type="matrix" values="0 0 0 0 0 0 0 0 0 0 0 0 0 0 0 0 0 0 127 0" result="hardAlpha"/>
<feOffset dy="10.9297"/>
<feGaussianBlur stdDeviation="8.5"/>
<feColorMatrix type="matrix" values="0 0 0 0 0.529412 0 0 0 0 0.180392 0 0 0 0 0.678431 0 0 0 0.14 0"/>
<feBlend mode="normal" in2="effect2_dropShadow_2795_47" result="effect3_dropShadow_2795_47"/>
<feBlend mode="normal" in="SourceGraphic" in2="effect3_dropShadow_2795_47" result="shape"/>
</filter>
</defs>
</svg>
