<svg width="91" height="67" viewBox="0 0 91 67" fill="none" xmlns="http://www.w3.org/2000/svg">
<path fill-rule="evenodd" clip-rule="evenodd" d="M1.09488 9.15019C1.57295 9.15019 1.96118 8.76576 1.96118 8.28793C1.96118 7.81009 1.57295 7.42566 1.09488 7.42566C0.616803 7.42566 0.232178 7.81009 0.232178 8.28793C0.232178 8.76576 0.616803 9.15019 1.09488 9.15019ZM1.09488 20.6721C1.57295 20.6721 1.96118 20.2841 1.96118 19.8063C1.96118 19.332 1.57295 18.944 1.09488 18.944C0.616803 18.944 0.232178 19.332 0.232178 19.8063C0.232178 20.2841 0.616803 20.6721 1.09488 20.6721ZM13.4853 8.28793C13.4853 8.76576 13.0971 9.15019 12.6226 9.15019C12.1445 9.15019 11.7563 8.76576 11.7563 8.28793C11.7563 7.81009 12.1445 7.42566 12.6226 7.42566C13.0971 7.42566 13.4853 7.81009 13.4853 8.28793ZM12.6226 20.6721C13.0971 20.6721 13.4853 20.2841 13.4853 19.8063C13.4853 19.332 13.0971 18.944 12.6226 18.944C12.1445 18.944 11.7563 19.332 11.7563 19.8063C11.7563 20.2841 12.1445 20.6721 12.6226 20.6721ZM25.013 8.28793C25.013 8.76576 24.6248 9.15019 24.1467 9.15019C23.6686 9.15019 23.284 8.76576 23.284 8.28793C23.284 7.81009 23.6686 7.42566 24.1467 7.42566C24.6248 7.42566 25.013 7.81009 25.013 8.28793ZM24.1467 20.6721C24.6248 20.6721 25.013 20.2841 25.013 19.8063C25.013 19.332 24.6248 18.944 24.1467 18.944C23.6686 18.944 23.284 19.332 23.284 19.8063C23.284 20.2841 23.6686 20.6721 24.1467 20.6721ZM36.5371 8.28793C36.5371 8.76576 36.1525 9.15019 35.6744 9.15019C35.1964 9.15019 34.8081 8.76576 34.8081 8.28793C34.8081 7.81009 35.1964 7.42566 35.6744 7.42566C36.1525 7.42566 36.5371 7.81009 36.5371 8.28793ZM35.6744 20.6721C36.1525 20.6721 36.5371 20.2841 36.5371 19.8063C36.5371 19.332 36.1525 18.944 35.6744 18.944C35.1964 18.944 34.8081 19.332 34.8081 19.8063C34.8081 20.2841 35.1964 20.6721 35.6744 20.6721ZM48.0648 8.28793C48.0648 8.76576 47.6766 9.15019 47.1985 9.15019C46.724 9.15019 46.3358 8.76576 46.3358 8.28793C46.3358 7.81009 46.724 7.42566 47.1985 7.42566C47.6766 7.42566 48.0648 7.81009 48.0648 8.28793ZM47.1985 20.6721C47.6766 20.6721 48.0648 20.2841 48.0648 19.8063C48.0648 19.332 47.6766 18.944 47.1985 18.944C46.724 18.944 46.3358 19.332 46.3358 19.8063C46.3358 20.2841 46.724 20.6721 47.1985 20.6721ZM58.7262 20.6721C59.2043 20.6721 59.5889 20.2841 59.5889 19.8063C59.5889 19.332 59.2043 18.944 58.7262 18.944C58.2482 18.944 57.8599 19.332 57.8599 19.8063C57.8599 20.2841 58.2482 20.6721 58.7262 20.6721ZM1.96118 31.3282C1.96118 31.806 1.57295 32.1904 1.09488 32.1904C0.616803 32.1904 0.232178 31.806 0.232178 31.3282C0.232178 30.8503 0.616803 30.4623 1.09488 30.4623C1.57295 30.4623 1.96118 30.8503 1.96118 31.3282ZM12.6226 32.1904C13.0971 32.1904 13.4853 31.806 13.4853 31.3282C13.4853 30.8503 13.0971 30.4623 12.6226 30.4623C12.1445 30.4623 11.7563 30.8503 11.7563 31.3282C11.7563 31.806 12.1445 32.1904 12.6226 32.1904ZM25.013 31.3282C25.013 31.806 24.6248 32.1904 24.1467 32.1904C23.6686 32.1904 23.284 31.806 23.284 31.3282C23.284 30.8503 23.6686 30.4623 24.1467 30.4623C24.6248 30.4623 25.013 30.8503 25.013 31.3282ZM35.6744 32.1904C36.1525 32.1904 36.5371 31.806 36.5371 31.3282C36.5371 30.8503 36.1525 30.4623 35.6744 30.4623C35.1964 30.4623 34.8081 30.8503 34.8081 31.3282C34.8081 31.806 35.1964 32.1904 35.6744 32.1904ZM48.0648 31.3282C48.0648 31.806 47.6766 32.1904 47.1985 32.1904C46.724 32.1904 46.3358 31.806 46.3358 31.3282C46.3358 30.8503 46.724 30.4623 47.1985 30.4623C47.6766 30.4623 48.0648 30.8503 48.0648 31.3282ZM58.7262 32.1904C59.2043 32.1904 59.5889 31.806 59.5889 31.3282C59.5889 30.8503 59.2043 30.4623 58.7262 30.4623C57.5904 30.4623 57.5868 32.1904 58.7262 32.1904ZM1.96118 42.8465C1.96118 43.3243 1.57295 43.7123 1.09488 43.7123C0.616803 43.7123 0.232178 43.3243 0.232178 42.8465C0.232178 42.3687 0.616803 41.9842 1.09488 41.9842C1.57295 41.9842 1.96118 42.3687 1.96118 42.8465ZM12.6226 43.7123C13.0971 43.7123 13.4853 43.3243 13.4853 42.8465C13.4853 42.3687 13.0971 41.9842 12.6226 41.9842C12.1445 41.9842 11.7563 42.3687 11.7563 42.8465C11.7563 43.3243 12.1445 43.7123 12.6226 43.7123ZM25.013 42.8465C25.013 43.3243 24.6248 43.7123 24.1467 43.7123C23.6686 43.7123 23.284 43.3243 23.284 42.8465C23.284 42.3687 23.6686 41.9842 24.1467 41.9842C24.6248 41.9842 25.013 42.3687 25.013 42.8465ZM35.6744 43.7123C36.1525 43.7123 36.5371 43.3243 36.5371 42.8465C36.5371 42.3687 36.1525 41.9842 35.6744 41.9842C35.1964 41.9842 34.8081 42.3687 34.8081 42.8465C34.8081 43.3243 35.1964 43.7123 35.6744 43.7123ZM48.0648 42.8465C48.0648 43.3243 47.6766 43.7123 47.1985 43.7123C46.724 43.7123 46.3358 43.3243 46.3358 42.8465C46.3358 42.3687 46.724 41.9842 47.1985 41.9842C47.6766 41.9842 48.0648 42.3687 48.0648 42.8465ZM58.7262 43.7123C59.2043 43.7123 59.5889 43.3243 59.5889 42.8465C59.5889 42.3687 59.2043 41.9842 58.7262 41.9842C58.2482 41.9842 57.8599 42.3687 57.8599 42.8465C57.8599 43.3243 58.2482 43.7123 58.7262 43.7123ZM1.96118 54.3684C1.96118 54.8463 1.57295 55.2343 1.09488 55.2343C0.616803 55.2343 0.232178 54.8463 0.232178 54.3684C0.232178 53.8906 0.616803 53.5061 1.09488 53.5061C1.57295 53.5061 1.96118 53.8906 1.96118 54.3684ZM12.6226 55.2343C13.0971 55.2343 13.4853 54.8463 13.4853 54.3684C13.4853 53.8906 13.0971 53.5061 12.6226 53.5061C12.1445 53.5061 11.7563 53.8906 11.7563 54.3684C11.7563 54.8463 12.1445 55.2343 12.6226 55.2343ZM25.013 54.3684C25.013 54.8463 24.6248 55.2343 24.1467 55.2343C23.6686 55.2343 23.284 54.8463 23.284 54.3684C23.284 53.8906 23.6686 53.5061 24.1467 53.5061C24.6248 53.5061 25.013 53.8906 25.013 54.3684ZM35.6744 55.2343C36.1525 55.2343 36.5371 54.8463 36.5371 54.3684C36.5371 53.8906 36.1525 53.5061 35.6744 53.5061C35.1964 53.5061 34.8081 53.8906 34.8081 54.3684C34.8081 54.8463 35.1964 55.2343 35.6744 55.2343ZM48.0648 54.3684C48.0648 54.8463 47.6766 55.2343 47.1985 55.2343C46.724 55.2343 46.3358 54.8463 46.3358 54.3684C46.3358 53.8906 46.724 53.5061 47.1985 53.5061C47.6766 53.5061 48.0648 53.8906 48.0648 54.3684ZM58.7262 55.2343C59.2043 55.2343 59.5889 54.8463 59.5889 54.3684C59.5889 53.8906 59.2043 53.5061 58.7262 53.5061C58.2482 53.5061 57.8599 53.8906 57.8599 54.3684C57.8599 54.8463 58.2482 55.2343 58.7262 55.2343ZM1.96118 65.8867C1.96118 66.3646 1.57295 66.7526 1.09488 66.7526C0.616803 66.7526 0.232178 66.3646 0.232178 65.8867C0.232178 65.4125 0.616803 65.0245 1.09488 65.0245C1.57295 65.0245 1.96118 65.4125 1.96118 65.8867ZM12.6226 66.7526C13.0971 66.7526 13.4853 66.3646 13.4853 65.8867C13.4853 65.4125 13.0971 65.0245 12.6226 65.0245C12.1445 65.0245 11.7563 65.4125 11.7563 65.8867C11.7563 66.3646 12.1445 66.7526 12.6226 66.7526ZM25.013 65.8867C25.013 66.3646 24.6248 66.7526 24.1467 66.7526C23.6686 66.7526 23.284 66.3646 23.284 65.8867C23.284 65.4125 23.6686 65.0245 24.1467 65.0245C24.6248 65.0245 25.013 65.4125 25.013 65.8867ZM35.6744 66.7526C36.1525 66.7526 36.5371 66.3646 36.5371 65.8867C36.5371 65.4125 36.1525 65.0245 35.6744 65.0245C35.1964 65.0245 34.8081 65.4125 34.8081 65.8867C34.8081 66.3646 35.1964 66.7526 35.6744 66.7526ZM48.0648 65.8867C48.0648 66.3646 47.6766 66.7526 47.1985 66.7526C46.724 66.7526 46.3358 66.3646 46.3358 65.8867C46.3358 65.4125 46.724 65.0245 47.1985 65.0245C47.6766 65.0245 48.0648 65.4125 48.0648 65.8867ZM58.7262 66.7526C59.2043 66.7526 59.5889 66.3646 59.5889 65.8867C59.5889 65.4125 59.2043 65.0245 58.7262 65.0245C58.2482 65.0245 57.8599 65.4125 57.8599 65.8867C57.8599 66.3646 58.2482 66.7526 58.7262 66.7526Z" fill="#828282"/>
<path fill-rule="evenodd" clip-rule="evenodd" d="M57.7126 1.79225C57.7126 1.17071 57.2093 0.667725 56.5911 0.667725H47.7341C45.0454 0.667725 42.8672 2.88806 42.8672 5.62573V45.2968C42.8672 48.0344 45.0454 50.2547 47.7341 50.2547H72.0727C74.7614 50.2547 76.9397 48.0344 76.9397 45.2968V21.3799C76.9397 20.7583 76.4364 20.2554 75.8182 20.2554H64.7686C60.8721 20.2554 57.7126 17.0363 57.7126 13.0663V1.79225V1.79225ZM53.8197 28.1881C52.6083 28.1881 51.627 29.1869 51.627 30.4228C51.627 31.6515 52.6083 32.6503 53.8197 32.6503H59.9016C61.113 32.6503 62.0943 31.6515 62.0943 30.4228C62.0943 29.1869 61.113 28.1881 59.9016 28.1881H53.8197ZM53.8197 36.8682C52.6083 36.8682 51.627 37.867 51.627 39.0993C51.627 40.3316 52.6083 41.3304 53.8197 41.3304H65.9872C67.1985 41.3304 68.1798 40.3316 68.1798 39.0993C68.1798 37.867 67.1985 36.8682 65.9872 36.8682H53.8197Z" fill="#8BC34A"/>
<path d="M73.4135 15.7932C73.9095 15.7932 74.1611 15.1932 73.8125 14.8375L63.0576 3.87966C62.7017 3.52038 62.0942 3.77189 62.0942 4.27487V13.0663C62.0942 14.5717 63.2912 15.7932 64.7686 15.7932H73.4135V15.7932Z" fill="#8BC34A"/>
<path fill-rule="evenodd" clip-rule="evenodd" d="M88.9849 41.9915C88.1617 42.8106 87.752 43.2238 87.2559 43.3136C87.0618 43.3495 86.8641 43.3495 86.67 43.3136C86.174 43.2238 85.7642 42.8106 84.941 41.9915L82.5147 39.5664C81.6915 38.7436 81.2818 38.3305 81.1919 37.8383C81.156 37.6443 81.156 37.4467 81.1919 37.2491C81.2818 36.7568 81.6915 36.3473 82.5147 35.5245C83.3378 34.7018 83.7476 34.2886 84.2437 34.1988C84.4378 34.1629 84.6355 34.1629 84.8296 34.1988C85.3256 34.2886 85.7354 34.7018 86.5585 35.5245L88.9849 37.9496C89.808 38.7724 90.2178 39.1819 90.3113 39.6741C90.3472 39.8717 90.3472 40.0694 90.3113 40.2634C90.2178 40.7556 89.808 41.1687 88.9849 41.9915ZM68.363 59.3659C66.8389 59.3659 66.0769 59.3659 65.6024 58.8953C65.128 58.421 65.1279 57.6594 65.1279 56.1361V54.2427C65.1279 53.5816 65.1279 53.2511 65.2501 52.9529C65.3759 52.6547 65.6096 52.4212 66.0769 51.9541L76.5873 41.4454C77.6657 40.3711 78.2048 39.8322 78.877 39.8322C79.5456 39.8322 80.0848 40.3711 81.1631 41.4454L83.0575 43.3387C84.1358 44.4202 84.675 44.9591 84.675 45.6273C84.675 46.2956 84.1358 46.8345 83.0575 47.9123L72.5435 58.421C72.0762 58.8881 71.8425 59.1216 71.5478 59.2438C71.2494 59.366 70.9187 59.3659 70.2573 59.3659H68.363V59.3659Z" fill="#262F56"/>
</svg>
