<svg width="66" height="96" viewBox="0 0 66 96" fill="none" xmlns="http://www.w3.org/2000/svg">
<path d="M34.5851 6.62383L3.39172 26.2294M19.7684 3.25024L34.5851 6.62383L19.7684 3.25024ZM34.5851 6.62383L31.2098 21.4367L34.5851 6.62383Z" stroke="#8BC34A" stroke-width="6" stroke-miterlimit="22.9256" stroke-linecap="round" stroke-linejoin="round"/>
<path d="M48.4601 19.1589H64.5888C65.2071 19.1589 65.7103 19.6619 65.7103 20.2835V94.0137C65.7103 94.6317 65.2071 95.1347 64.5888 95.1347H48.4601C47.8419 95.1347 47.3386 94.6317 47.3386 94.0137V20.2835C47.3386 19.6619 47.8419 19.1589 48.4637 19.1589H48.4601Z" fill="#8BC34A"/>
<path d="M26.1991 39.8639H37.8886C38.3379 39.8639 38.7045 40.2268 38.7045 40.6759V94.1251C38.7045 94.5742 38.3379 94.937 37.8886 94.937H26.1991C25.7498 94.937 25.3868 94.5742 25.3868 94.1251L25.3832 40.6759C25.3868 40.2268 25.7498 39.8639 26.1991 39.8639Z" fill="#8BC34A"/>
<path d="M25.4334 39.8639H41.5585C42.1803 39.8639 42.6836 40.2268 42.6836 40.6794V94.319C42.6836 94.7681 42.1803 95.1346 41.5621 95.1346H25.4334C24.8151 95.1346 24.3119 94.7681 24.3119 94.319V40.6794C24.3119 40.2268 24.8151 39.8639 25.4334 39.8639Z" fill="#8BC34A"/>
<path d="M3.01071 71.8429H19.1358C19.7576 71.8429 20.2609 71.9974 20.2609 72.1878V94.7897C20.2609 94.9801 19.7576 95.1346 19.1358 95.1346H3.01071C2.38886 95.1346 1.88562 94.9801 1.88562 94.7897V72.1878C1.88562 71.9974 2.38886 71.8429 3.01071 71.8429Z" fill="#8BC34A"/>
</svg>
