<svg width="560" height="380" viewBox="0 0 560 380" fill="none" xmlns="http://www.w3.org/2000/svg">
 <path fill-rule="evenodd" clip-rule="evenodd" d="M8.31998 15.98C10.74 15.98 12.71 17.94 12.71 20.37C12.71 22.8 10.74 24.76 8.31998 24.76C5.88998 24.76 3.91998 22.8 3.91998 20.37C3.91998 17.94 5.88998 15.98 8.31998 15.98Z" fill="#69737C"/>
 <path fill-rule="evenodd" clip-rule="evenodd" d="M8.31998 62.08C10.74 62.08 12.71 64.04 12.71 66.47C12.71 68.9 10.74 70.86 8.31998 70.86C5.88998 70.86 3.91998 68.9 3.91998 66.47C3.91998 64.04 5.88998 62.08 8.31998 62.08Z" fill="#69737C"/>
 <path fill-rule="evenodd" clip-rule="evenodd" d="M8.31998 108.17C10.74 108.17 12.71 110.14 12.71 112.57C12.71 114.99 10.74 116.96 8.31998 116.96C5.88998 116.96 3.91998 114.99 3.91998 112.57C3.91998 110.14 5.88998 108.17 8.31998 108.17Z" fill="#69737C"/>
 <path fill-rule="evenodd" clip-rule="evenodd" d="M8.31998 154.27C10.74 154.27 12.71 156.24 12.71 158.67C12.71 161.09 10.74 163.06 8.31998 163.06C5.88998 163.06 3.91998 161.09 3.91998 158.67C3.91998 156.24 5.88998 154.27 8.31998 154.27Z" fill="#69737C"/>
 <path fill-rule="evenodd" clip-rule="evenodd" d="M8.31998 200.37C10.74 200.37 12.71 202.34 12.71 204.76C12.71 207.19 10.74 209.16 8.31998 209.16C5.88998 209.16 3.91998 207.19 3.91998 204.76C3.91998 202.34 5.88998 200.37 8.31998 200.37Z" fill="#69737C"/>
 <path fill-rule="evenodd" clip-rule="evenodd" d="M8.31998 246.47C10.74 246.47 12.71 248.44 12.71 250.86C12.71 253.29 10.74 255.26 8.31998 255.26C5.88998 255.26 3.91998 253.29 3.91998 250.86C3.91998 248.44 5.88998 246.47 8.31998 246.47Z" fill="#69737C"/>
 <path fill-rule="evenodd" clip-rule="evenodd" d="M54.7 15.98C57.13 15.98 59.09 17.94 59.09 20.37C59.09 22.8 57.13 24.76 54.7 24.76C52.27 24.76 50.31 22.8 50.31 20.37C50.31 17.94 52.27 15.98 54.7 15.98Z" fill="#69737C"/>
 <path d="M123.16 0.339966H453.04C481.37 0.339966 507.14 11.93 525.81 30.61C544.49 49.28 556.08 75.05 556.08 103.39V276.61C556.08 304.95 544.49 330.72 525.81 349.39C507.14 368.07 481.37 379.66 453.04 379.66H123.16C94.82 379.66 69.06 368.07 50.39 349.39C31.71 330.72 20.12 304.95 20.12 276.61V103.39C20.12 75.05 31.71 49.28 50.39 30.61C69.06 11.93 94.82 0.339966 123.16 0.339966V0.339966ZM453.04 2.69997H123.16C95.47 2.69997 70.3 14.03 52.06 32.28C33.81 50.53 22.48 75.7 22.48 103.39V276.61C22.48 304.3 33.81 329.47 52.06 347.72C70.3 365.97 95.47 377.3 123.16 377.3H453.04C480.72 377.3 505.9 365.97 524.14 347.72C542.39 329.47 553.72 304.3 553.72 276.61V103.39C553.72 75.7 542.39 50.53 524.14 32.28C505.9 14.03 480.72 2.69997 453.04 2.69997V2.69997Z" fill="#95C33F"/>
 <path fill-rule="evenodd" clip-rule="evenodd" d="M453.04 2.69995H123.16C95.47 2.69995 70.3 14.0299 52.06 32.2799C33.81 50.5299 22.48 75.7 22.48 103.39V276.61C22.48 304.3 33.81 329.47 52.06 347.72C70.3 365.97 95.47 377.3 123.16 377.3H453.04C480.72 377.3 505.9 365.97 524.14 347.72C542.39 329.47 553.72 304.3 553.72 276.61V103.39C553.72 75.7 542.39 50.5299 524.14 32.2799C505.9 14.0299 480.72 2.69995 453.04 2.69995V2.69995Z" fill="#FEFEFE"/>
 <path fill-rule="evenodd" clip-rule="evenodd" d="M8.31998 15.98C10.74 15.98 12.71 17.94 12.71 20.37C12.71 22.8 10.74 24.76 8.31998 24.76C5.88998 24.76 3.91998 22.8 3.91998 20.37C3.91998 17.94 5.88998 15.98 8.31998 15.98Z" fill="#69737C"/>
 <path fill-rule="evenodd" clip-rule="evenodd" d="M8.31998 62.08C10.74 62.08 12.71 64.04 12.71 66.47C12.71 68.9 10.74 70.86 8.31998 70.86C5.88998 70.86 3.91998 68.9 3.91998 66.47C3.91998 64.04 5.88998 62.08 8.31998 62.08Z" fill="#69737C"/>
 <path fill-rule="evenodd" clip-rule="evenodd" d="M8.31998 108.17C10.74 108.17 12.71 110.14 12.71 112.57C12.71 114.99 10.74 116.96 8.31998 116.96C5.88998 116.96 3.91998 114.99 3.91998 112.57C3.91998 110.14 5.88998 108.17 8.31998 108.17Z" fill="#69737C"/>
 <path fill-rule="evenodd" clip-rule="evenodd" d="M8.31998 154.27C10.74 154.27 12.71 156.24 12.71 158.67C12.71 161.09 10.74 163.06 8.31998 163.06C5.88998 163.06 3.91998 161.09 3.91998 158.67C3.91998 156.24 5.88998 154.27 8.31998 154.27Z" fill="#69737C"/>
 <path fill-rule="evenodd" clip-rule="evenodd" d="M8.31998 200.37C10.74 200.37 12.71 202.34 12.71 204.76C12.71 207.19 10.74 209.16 8.31998 209.16C5.88998 209.16 3.91998 207.19 3.91998 204.76C3.91998 202.34 5.88998 200.37 8.31998 200.37Z" fill="#69737C"/>
 <path fill-rule="evenodd" clip-rule="evenodd" d="M8.31998 246.47C10.74 246.47 12.71 248.44 12.71 250.86C12.71 253.29 10.74 255.26 8.31998 255.26C5.88998 255.26 3.91998 253.29 3.91998 250.86C3.91998 248.44 5.88998 246.47 8.31998 246.47Z" fill="#69737C"/>
 <path fill-rule="evenodd" clip-rule="evenodd" d="M54.7 15.98C57.13 15.98 59.09 17.94 59.09 20.37C59.09 22.8 57.13 24.76 54.7 24.76C52.27 24.76 50.31 22.8 50.31 20.37C50.31 17.94 52.27 15.98 54.7 15.98Z" fill="#69737C"/>
 <path d="M123.16 0.339966H453.04C481.37 0.339966 507.14 11.93 525.81 30.61C544.49 49.28 556.08 75.05 556.08 103.39V276.61C556.08 304.95 544.49 330.72 525.81 349.39C507.14 368.07 481.37 379.66 453.04 379.66H123.16C94.82 379.66 69.06 368.07 50.39 349.39C31.71 330.72 20.12 304.95 20.12 276.61V103.39C20.12 75.05 31.71 49.28 50.39 30.61C69.06 11.93 94.82 0.339966 123.16 0.339966V0.339966ZM453.04 2.69997H123.16C95.47 2.69997 70.3 14.03 52.06 32.28C33.81 50.53 22.48 75.7 22.48 103.39V276.61C22.48 304.3 33.81 329.47 52.06 347.72C70.3 365.97 95.47 377.3 123.16 377.3H453.04C480.72 377.3 505.9 365.97 524.14 347.72C542.39 329.47 553.72 304.3 553.72 276.61V103.39C553.72 75.7 542.39 50.53 524.14 32.28C505.9 14.03 480.72 2.69997 453.04 2.69997V2.69997Z" fill="#95C33F"/>
 <path fill-rule="evenodd" clip-rule="evenodd" d="M453.04 2.69995H123.16C95.47 2.69995 70.3 14.0299 52.06 32.2799C33.81 50.5299 22.48 75.7 22.48 103.39V276.61C22.48 304.3 33.81 329.47 52.06 347.72C70.3 365.97 95.47 377.3 123.16 377.3H453.04C480.72 377.3 505.9 365.97 524.14 347.72C542.39 329.47 553.72 304.3 553.72 276.61V103.39C553.72 75.7 542.39 50.5299 524.14 32.2799C505.9 14.0299 480.72 2.69995 453.04 2.69995V2.69995Z" fill="#FEFEFE"/>
 <path d="M267.84 158.33C267.47 159.51 266.84 160.36 265.95 160.89C265.17 161.35 264.15 161.57 262.87 161.57C261.02 161.57 259.66 161.07 258.81 160.06C257.92 159.01 257.48 157.3 257.48 154.93C257.48 152.65 257.88 150.99 258.7 149.94C259.56 148.84 260.95 148.29 262.87 148.29C264.15 148.29 265.17 148.52 265.95 148.98C266.84 149.5 267.47 150.36 267.84 151.53L266.21 152.3C266 151.67 265.66 151.21 265.19 150.93C264.66 150.62 263.89 150.47 262.87 150.47C261.44 150.47 260.48 150.79 259.97 151.43C259.48 152.07 259.23 153.23 259.23 154.93C259.23 156.68 259.5 157.87 260.03 158.51C260.53 159.1 261.48 159.4 262.87 159.4C263.89 159.4 264.66 159.25 265.19 158.94C265.66 158.67 266 158.21 266.21 157.56L267.84 158.33V158.33ZM276.59 148.29C278.45 148.29 279.8 148.8 280.65 149.82C281.54 150.87 281.98 152.58 281.98 154.93C281.98 157.3 281.54 159.01 280.65 160.06C279.8 161.07 278.45 161.57 276.59 161.57C274.74 161.57 273.38 161.07 272.53 160.06C271.64 159.01 271.2 157.3 271.2 154.93C271.2 152.65 271.6 150.99 272.42 149.94C273.28 148.84 274.67 148.29 276.59 148.29V148.29ZM279.44 151.37C278.92 150.77 277.98 150.47 276.59 150.47C275.16 150.47 274.2 150.79 273.69 151.43C273.2 152.07 272.95 153.23 272.95 154.93C272.95 156.68 273.22 157.87 273.75 158.51C274.26 159.1 275.2 159.4 276.59 159.4C277.98 159.4 278.92 159.1 279.44 158.51C279.96 157.87 280.22 156.68 280.22 154.93C280.22 153.18 279.96 151.99 279.44 151.37ZM286.99 150.22C287.6 148.92 288.72 148.27 290.35 148.27C292.14 148.27 293.4 149.2 294.12 151.06C294.79 149.28 296.09 148.35 298.02 148.27C299.74 148.27 300.99 148.84 301.76 149.98C302.47 151.01 302.82 152.66 302.82 154.91V161.28H301.06V154.91C301.06 153.17 300.84 151.99 300.41 151.36C300 150.75 299.2 150.44 298.02 150.44C296.86 150.44 296.07 150.72 295.65 151.29C295.19 151.92 294.96 153.13 294.96 154.91V161.28H293.2V154.91C293.2 153.17 292.98 151.99 292.55 151.36C292.13 150.75 291.33 150.44 290.14 150.44C288.99 150.44 288.21 150.72 287.79 151.29C287.33 151.91 287.1 153.09 287.09 154.82V161.28H285.34V148.54H286.99V150.22V150.22ZM311.58 161.55C309.75 161.55 308.54 160.92 307.93 159.66V166.37H306.18V148.54H307.84V150.4C308.5 148.98 309.75 148.27 311.58 148.27C313.44 148.27 314.79 148.78 315.64 149.79C316.52 150.85 316.97 152.55 316.97 154.91C316.97 157.19 316.56 158.86 315.74 159.91C314.88 161 313.49 161.55 311.58 161.55V161.55ZM307.93 154.99C307.95 156.69 308.21 157.86 308.74 158.48C309.24 159.08 310.19 159.38 311.58 159.38C313 159.38 313.97 159.05 314.47 158.41C314.97 157.79 315.21 156.62 315.21 154.91C315.21 153.16 314.95 151.97 314.42 151.35C313.91 150.74 312.96 150.44 311.58 150.44C310.19 150.44 309.24 150.74 308.74 151.35C308.21 151.96 307.95 153.12 307.93 154.82V154.99ZM329.35 159.91C328.76 161 327.55 161.55 325.72 161.55C323.8 161.55 322.41 161 321.55 159.91C320.73 158.86 320.32 157.19 320.32 154.91V148.54H322.07V154.91C322.07 156.62 322.32 157.79 322.81 158.41C323.32 159.05 324.29 159.38 325.72 159.38C327.1 159.38 328.05 159.08 328.56 158.48C329.08 157.86 329.34 156.69 329.35 154.99V148.54H331.11V161.28H329.35V159.91ZM340.18 161.28C339.92 161.31 339.58 161.33 339.15 161.33C338.2 161.33 337.48 161.19 337 160.94C336 160.32 335.47 158.86 335.41 156.54V150.7H334.16V148.54H335.41V143.44H337.16V148.54H339.46V150.7H337.16V156.8C337.19 158.61 337.93 159.52 339.39 159.52H339.6C339.83 159.52 340.03 159.5 340.18 159.46V161.28V161.28ZM353.15 158.21C352.79 159.43 352.16 160.32 351.26 160.86C350.49 161.34 349.38 161.57 347.94 161.57C345.95 161.57 344.53 161.07 343.68 160.06C342.79 159.01 342.34 157.3 342.34 154.93C342.34 152.65 342.75 150.99 343.57 149.94C344.43 148.84 345.85 148.29 347.84 148.29C349.77 148.29 351.15 148.8 352 149.82C352.89 150.87 353.33 152.58 353.33 154.93V155.89H344.11C344.15 157.05 344.41 157.92 344.9 158.51C345.4 159.1 346.42 159.4 347.94 159.4C349.11 159.4 349.96 159.24 350.49 158.92C350.96 158.64 351.29 158.15 351.5 157.47L353.15 158.21V158.21ZM344.84 151.43C344.45 151.94 344.21 152.78 344.12 153.98H351.57C351.46 152.73 351.2 151.87 350.79 151.37C350.27 150.77 349.29 150.47 347.84 150.47C346.35 150.47 345.34 150.79 344.84 151.43ZM358.14 150.4C358.81 148.98 360.06 148.27 361.88 148.27C363.73 148.27 365.09 148.81 365.94 149.91C366.76 150.96 367.17 152.63 367.17 154.91H365.42C365.42 153.21 365.17 152.04 364.68 151.41C364.17 150.76 363.24 150.44 361.88 150.44C360.5 150.44 359.55 150.74 359.04 151.35C358.52 151.96 358.25 153.12 358.24 154.82V161.28H356.49V148.54H358.14V150.4ZM375.99 157.7C375.99 158.29 376.18 158.69 376.56 158.91C377.12 159.24 378.14 159.4 379.63 159.4C381.12 159.4 382.15 159.24 382.7 158.91C383.08 158.69 383.27 158.29 383.27 157.7C383.27 157 382.88 156.53 382.12 156.29C381.67 156.13 380.83 156.05 379.61 156.01C377.82 155.96 376.58 155.77 375.91 155.45C374.79 154.9 374.23 153.8 374.23 152.16C374.23 150.73 374.72 149.7 375.69 149.08C376.5 148.55 377.82 148.29 379.63 148.29C381.38 148.29 382.66 148.53 383.46 149.02C384.5 149.63 385.02 150.68 385.02 152.16H383.27C383.27 151.58 383.08 151.18 382.7 150.96C382.15 150.63 381.12 150.47 379.63 150.47C378.1 150.47 377.05 150.64 376.5 150.99C376.16 151.21 375.99 151.59 375.99 152.16C375.99 152.86 376.37 153.34 377.14 153.58C377.6 153.73 378.44 153.82 379.65 153.85C381.44 153.91 382.67 154.1 383.34 154.43C384.46 154.97 385.02 156.06 385.02 157.7C385.02 159.19 384.5 160.24 383.46 160.86C382.66 161.34 381.38 161.57 379.63 161.57C377.88 161.57 376.6 161.34 375.8 160.86C374.76 160.24 374.23 159.19 374.23 157.7H375.99ZM398.39 158.33C398.02 159.51 397.39 160.36 396.5 160.89C395.72 161.35 394.7 161.57 393.42 161.57C391.57 161.57 390.21 161.07 389.36 160.06C388.47 159.01 388.03 157.3 388.03 154.93C388.03 152.65 388.43 150.99 389.25 149.94C390.11 148.84 391.5 148.29 393.42 148.29C394.7 148.29 395.72 148.52 396.5 148.98C397.39 149.5 398.02 150.36 398.39 151.53L396.75 152.3C396.55 151.67 396.21 151.21 395.74 150.93C395.21 150.62 394.44 150.47 393.42 150.47C391.99 150.47 391.03 150.79 390.52 151.43C390.03 152.07 389.78 153.23 389.78 154.93C389.78 156.68 390.05 157.87 390.58 158.51C391.08 159.1 392.03 159.4 393.42 159.4C394.44 159.4 395.21 159.25 395.74 158.94C396.21 158.67 396.55 158.21 396.75 157.56L398.39 158.33V158.33ZM403.6 148.54V161.28H401.84V148.54H403.6ZM403.6 143.44V145.62H401.84V143.44H403.6ZM417.66 158.21C417.3 159.43 416.68 160.32 415.78 160.86C415 161.34 413.89 161.57 412.46 161.57C410.46 161.57 409.05 161.07 408.19 160.06C407.3 159.01 406.86 157.3 406.86 154.93C406.86 152.65 407.26 150.99 408.09 149.94C408.94 148.84 410.36 148.29 412.35 148.29C414.28 148.29 415.66 148.8 416.51 149.82C417.4 150.87 417.84 152.58 417.84 154.93V155.89H408.62C408.66 157.05 408.93 157.92 409.41 158.51C409.92 159.1 410.93 159.4 412.46 159.4C413.62 159.4 414.47 159.24 415 158.92C415.47 158.64 415.81 158.15 416.01 157.47L417.66 158.21V158.21ZM409.35 151.43C408.96 151.94 408.73 152.78 408.63 153.98H416.08C415.97 152.73 415.71 151.87 415.3 151.37C414.78 150.77 413.8 150.47 412.35 150.47C410.86 150.47 409.86 150.79 409.35 151.43ZM422.65 150.53C423.32 149.02 424.57 148.27 426.4 148.27C428.31 148.27 429.7 148.81 430.56 149.91C431.38 150.96 431.78 152.63 431.78 154.91V161.28H430.03V154.91C430.03 153.21 429.78 152.04 429.29 151.41C428.78 150.76 427.82 150.44 426.4 150.44C425.01 150.44 424.06 150.74 423.55 151.35C423.03 151.96 422.77 153.12 422.75 154.82V161.28H421V148.54H422.65V150.53ZM445.5 158.33C445.13 159.51 444.5 160.36 443.61 160.89C442.83 161.35 441.81 161.57 440.54 161.57C438.68 161.57 437.32 161.07 436.47 160.06C435.58 159.01 435.14 157.3 435.14 154.93C435.14 152.65 435.55 150.99 436.36 149.94C437.22 148.84 438.61 148.29 440.54 148.29C441.81 148.29 442.83 148.52 443.61 148.98C444.5 149.5 445.13 150.36 445.5 151.53L443.87 152.3C443.66 151.67 443.32 151.21 442.85 150.93C442.32 150.62 441.55 150.47 440.54 150.47C439.11 150.47 438.14 150.79 437.63 151.43C437.14 152.07 436.89 153.23 436.89 154.93C436.89 156.68 437.16 157.87 437.69 158.51C438.2 159.1 439.15 159.4 440.54 159.4C441.55 159.4 442.32 159.25 442.85 158.94C443.32 158.67 443.66 158.21 443.87 157.56L445.5 158.33V158.33ZM459.46 158.21C459.11 159.43 458.48 160.32 457.58 160.86C456.8 161.34 455.69 161.57 454.26 161.57C452.27 161.57 450.85 161.07 450 160.06C449.1 159.01 448.66 157.3 448.66 154.93C448.66 152.65 449.07 150.99 449.89 149.94C450.74 148.84 452.17 148.29 454.15 148.29C456.08 148.29 457.46 148.8 458.32 149.82C459.2 150.87 459.64 152.58 459.64 154.93V155.89H450.42C450.46 157.05 450.73 157.92 451.21 158.51C451.72 159.1 452.73 159.4 454.26 159.4C455.42 159.4 456.27 159.24 456.8 158.92C457.27 158.64 457.61 158.15 457.81 157.47L459.46 158.21V158.21ZM451.15 151.43C450.77 151.94 450.53 152.78 450.43 153.98H457.89C457.77 152.73 457.51 151.87 457.1 151.37C456.59 150.77 455.61 150.47 454.15 150.47C452.66 150.47 451.66 150.79 451.15 151.43V151.43ZM464.21 157.7C464.21 158.29 464.4 158.69 464.77 158.91C465.33 159.24 466.36 159.4 467.85 159.4C469.34 159.4 470.36 159.24 470.91 158.91C471.29 158.69 471.48 158.29 471.48 157.7C471.48 157 471.1 156.53 470.33 156.29C469.88 156.13 469.05 156.05 467.83 156.01C466.03 155.96 464.8 155.77 464.12 155.45C463.01 154.9 462.45 153.8 462.45 152.16C462.45 150.73 462.94 149.7 463.91 149.08C464.72 148.55 466.03 148.29 467.85 148.29C469.6 148.29 470.87 148.53 471.68 149.02C472.72 149.63 473.23 150.68 473.23 152.16H471.48C471.48 151.58 471.29 151.18 470.91 150.96C470.36 150.63 469.34 150.47 467.85 150.47C466.31 150.47 465.27 150.64 464.71 150.99C464.38 151.21 464.21 151.59 464.21 152.16C464.21 152.86 464.59 153.34 465.35 153.58C465.81 153.73 466.65 153.82 467.87 153.85C469.66 153.91 470.89 154.1 471.56 154.43C472.68 154.97 473.23 156.06 473.23 157.7C473.23 159.19 472.72 160.24 471.68 160.86C470.87 161.34 469.6 161.57 467.85 161.57C466.09 161.57 464.82 161.34 464.02 160.86C462.97 160.24 462.45 159.19 462.45 157.7H464.21Z" fill="#69737C"/>
 <path d="M133.2 207.17C133.2 215.48 136.99 221.33 144.58 224.78C152.72 228.48 166.88 230.33 187.1 230.33C206.65 230.33 220.52 228.62 228.66 225.17C236.86 221.74 240.97 215.74 240.97 207.17C240.97 198.61 236.86 192.6 228.66 189.11C220.52 185.73 206.65 184.04 187.1 184.04C167.05 184.04 152.77 182.23 144.23 178.6C135.14 174.72 130.59 168.09 130.59 158.73C130.59 149.64 134.79 143.18 143.22 139.34C151.76 135.46 166.39 133.52 187.1 133.52C207.11 133.52 221.36 135.32 229.85 138.93C239.03 142.77 243.61 149.37 243.61 158.73H240.97C240.97 150.17 236.86 144.18 228.66 140.73C220.52 137.31 206.65 135.59 187.1 135.59C166.88 135.59 152.72 137.44 144.58 141.14C136.99 144.57 133.2 150.44 133.2 158.73C133.2 167.3 137.31 173.32 145.51 176.8C153.59 180.24 167.46 181.96 187.1 181.96C207.11 181.96 221.36 183.74 229.85 187.3C239.03 191.18 243.61 197.81 243.61 207.17C243.61 216.56 239.03 223.18 229.85 227.04C221.36 230.63 207.11 232.41 187.1 232.41C166.45 232.41 151.82 230.47 143.22 226.58C134.79 222.75 130.59 216.28 130.59 207.17H133.2V207.17Z" fill="#8EC11C" stroke="#8EC11C" stroke-width="6.25" stroke-miterlimit="22.9256"/>
 <path d="M295.04 221.73C293.18 225.85 289.79 228.56 284.91 229.89C281.61 230.81 278.26 230.85 274.88 230.01C271.27 229.13 268.25 227.39 265.83 224.8C262.49 221.24 260.82 216.62 260.82 210.93C260.82 205.24 262.46 200.53 265.74 196.8C268.97 193.13 273.08 191.3 278.08 191.3C283.05 191.3 287.16 193.03 290.42 196.48C292.55 198.74 294.04 201.47 294.89 204.67C295.73 207.76 295.82 210.75 295.18 213.63C294.41 217.1 292.76 219.71 290.23 221.44C289.26 222.09 288.27 222.34 287.25 222.2C286.6 222.11 286.02 221.86 285.48 221.44C284.95 221.03 284.52 220.52 284.18 219.89C284.05 219.63 283.93 219.36 283.84 219.07L283.83 219.09C281.91 221.38 279.69 222.52 277.15 222.52C276.96 222.52 276.74 222.51 276.52 222.5C274.24 222.28 272.36 221.15 270.87 219.07C269.43 217.05 268.7 214.63 268.7 211.83C268.7 211.5 268.72 211.15 268.73 210.79C268.96 207.67 269.99 205 271.85 202.77C273.78 200.48 276 199.34 278.52 199.34C278.74 199.34 278.95 199.36 279.18 199.38C281.35 199.56 283.17 200.62 284.65 202.55L284.77 200.88L287.71 201.16L286.97 210.89L286.96 211.07C286.94 211.19 286.93 211.34 286.92 211.49C286.75 213.78 286.6 215.56 286.47 216.82C286.42 217.31 286.5 217.77 286.72 218.17C286.82 218.37 286.95 218.53 287.11 218.66C287.27 218.78 287.44 218.85 287.63 218.88C287.97 218.92 288.33 218.82 288.71 218.56C290.54 217.31 291.75 215.39 292.32 212.81C292.83 210.51 292.75 208.12 292.08 205.64C291.38 203.04 290.16 200.8 288.4 198.95C285.71 196.09 282.26 194.67 278.08 194.67C273.89 194.67 270.47 196.17 267.82 199.18C265.13 202.25 263.78 206.16 263.78 210.93C263.78 215.65 265.14 219.47 267.86 222.38C269.88 224.53 272.42 225.98 275.5 226.72C278.46 227.45 281.37 227.43 284.24 226.65C288.24 225.55 290.97 223.4 292.43 220.21L295.04 221.73V221.73ZM284.03 210.56C284.03 210.39 284.03 210.21 284.03 210.02C284.03 208.01 283.53 206.3 282.53 204.92C281.58 203.59 280.39 202.86 278.94 202.73C278.81 202.72 278.68 202.71 278.52 202.71C276.84 202.71 275.33 203.5 274 205.07C272.62 206.72 271.84 208.72 271.68 211.07C271.65 211.31 271.65 211.57 271.65 211.83C271.65 213.85 272.14 215.56 273.14 216.96C274.1 218.29 275.31 219.02 276.74 219.15C276.86 219.15 277 219.15 277.15 219.15C278.85 219.15 280.36 218.36 281.69 216.78C282.98 215.26 283.74 213.4 283.98 211.22L284.03 210.56V210.56Z" fill="#69737C"/>
 <path d="M309.14 189.47H315.63V215.88C315.63 218.48 315.83 220.29 316.23 221.32C316.64 222.34 317.34 223.17 318.33 223.8C319.37 224.45 320.62 224.91 322.06 225.17C323.52 225.43 326.01 225.56 329.55 225.56H335.67C339.23 225.56 341.75 225.43 343.21 225.17C344.67 224.91 345.92 224.45 346.97 223.8C347.93 223.19 348.61 222.37 349 221.35C349.39 220.31 349.59 218.5 349.59 215.88V189.47H356.07V216.43C356.07 221.56 354.61 225.15 351.67 227.17C348.75 229.2 343.57 230.21 336.13 230.21H329.08C321.66 230.21 316.47 229.2 313.55 227.17C310.61 225.15 309.14 221.56 309.14 216.43V189.47V189.47ZM368.58 202.77C368.58 197.61 370.01 194.02 372.86 192C375.72 189.98 380.75 188.97 387.99 188.97H394.79C401.96 188.97 406.99 189.84 409.89 191.59C412.79 193.33 414.23 196.28 414.23 200.45V202.2H407.58V201.1C407.58 198.05 406.69 195.98 404.88 194.86C403.08 193.74 399.56 193.18 394.31 193.18H389.81C386.3 193.18 383.74 193.33 382.13 193.62C380.53 193.93 379.19 194.43 378.12 195.13C377.05 195.81 376.31 196.7 375.87 197.81C375.44 198.92 375.23 200.94 375.23 203.87V215.33C375.23 218.25 375.44 220.26 375.87 221.37C376.31 222.48 377.05 223.38 378.12 224.06C379.19 224.76 380.48 225.26 382.02 225.56C383.54 225.86 386.14 226 389.81 226H394.31C399.69 226 403.27 225.42 405.04 224.25C406.81 223.08 407.7 220.83 407.7 217.52C407.7 217.01 407.69 216.62 407.68 216.35C407.66 216.09 407.65 215.83 407.62 215.6H414.23V218.25C414.23 222.72 412.83 225.84 410.02 227.58C407.22 229.34 402.13 230.21 394.79 230.21H387.99C380.75 230.21 375.72 229.2 372.86 227.18C370.01 225.16 368.58 221.57 368.58 216.41V202.77V202.77ZM425.38 189.47H431.87V215.88C431.87 218.48 432.07 220.29 432.47 221.32C432.89 222.34 433.58 223.17 434.57 223.8C435.61 224.45 436.86 224.91 438.31 225.17C439.76 225.43 442.26 225.56 445.79 225.56H451.91C455.47 225.56 457.99 225.43 459.45 225.17C460.92 224.91 462.16 224.45 463.21 223.8C464.17 223.19 464.85 222.37 465.24 221.35C465.63 220.31 465.83 218.5 465.83 215.88V189.47H472.31V216.43C472.31 221.56 470.85 225.15 467.91 227.17C464.99 229.2 459.81 230.21 452.37 230.21H445.33C437.9 230.21 432.71 229.2 429.79 227.17C426.85 225.15 425.38 221.56 425.38 216.43V189.47Z" fill="#69737C"/>
 <path d="M221.05 127.59C217.87 123.09 213.52 119.78 207.99 117.68C202.66 115.63 195.82 114.57 187.42 114.48H164.86C150.09 114.64 139.63 118.14 133.46 124.92C126.98 132.09 123.7 144.4 123.7 161.85C123.7 179.25 126.95 191.54 133.38 198.71C139.49 205.5 149.89 208.99 164.54 209.22H187.69C196 209.08 202.8 208.01 208.05 206C213.55 203.87 217.87 200.56 221.05 196.11L223.34 197.11C219.95 201.98 215.23 205.54 209.24 207.83C203.59 210 196.4 211.16 187.69 211.3H164.45C148.93 211.07 137.9 207.28 131.26 199.92C124.48 192.39 121.1 179.69 121.1 161.85C121.1 143.97 124.51 131.25 131.35 123.71C138.01 116.36 149.19 112.59 164.86 112.4H187.51C196.23 112.5 203.44 113.62 209.15 115.81C215.17 118.09 219.89 121.68 223.34 126.59L221.05 127.59V127.59Z" fill="#72348A" stroke="#72348A" stroke-width="6.25" stroke-miterlimit="22.9256"/>
</svg>
