<svg width="560" height="380" viewBox="0 0 560 380" fill="none" xmlns="http://www.w3.org/2000/svg">
 <path d="M8.91002 24.76C11.3345 24.76 13.3 22.7945 13.3 20.37C13.3 17.9455 11.3345 15.98 8.91002 15.98C6.48549 15.98 4.52002 17.9455 4.52002 20.37C4.52002 22.7945 6.48549 24.76 8.91002 24.76Z" fill="#69737C"/>
 <path d="M8.91002 70.86C11.3345 70.86 13.3 68.8945 13.3 66.47C13.3 64.0454 11.3345 62.08 8.91002 62.08C6.48549 62.08 4.52002 64.0454 4.52002 66.47C4.52002 68.8945 6.48549 70.86 8.91002 70.86Z" fill="#69737C"/>
 <path d="M8.91002 116.96C11.3345 116.96 13.3 114.994 13.3 112.57C13.3 110.145 11.3345 108.18 8.91002 108.18C6.48549 108.18 4.52002 110.145 4.52002 112.57C4.52002 114.994 6.48549 116.96 8.91002 116.96Z" fill="#69737C"/>
 <path d="M8.91002 163.06C11.3345 163.06 13.3 161.094 13.3 158.67C13.3 156.245 11.3345 154.28 8.91002 154.28C6.48549 154.28 4.52002 156.245 4.52002 158.67C4.52002 161.094 6.48549 163.06 8.91002 163.06Z" fill="#69737C"/>
 <path d="M8.91002 209.15C11.3345 209.15 13.3 207.185 13.3 204.76C13.3 202.335 11.3345 200.37 8.91002 200.37C6.48549 200.37 4.52002 202.335 4.52002 204.76C4.52002 207.185 6.48549 209.15 8.91002 209.15Z" fill="#69737C"/>
 <path d="M8.91002 255.25C11.3345 255.25 13.3 253.285 13.3 250.86C13.3 248.435 11.3345 246.47 8.91002 246.47C6.48549 246.47 4.52002 248.435 4.52002 250.86C4.52002 253.285 6.48549 255.25 8.91002 255.25Z" fill="#69737C"/>
 <path d="M55.29 24.76C57.7146 24.76 59.68 22.7945 59.68 20.37C59.68 17.9455 57.7146 15.98 55.29 15.98C52.8655 15.98 50.9 17.9455 50.9 20.37C50.9 22.7945 52.8655 24.76 55.29 24.76Z" fill="#69737C"/>
 <path d="M123.75 0.339966H453.63C481.97 0.339966 507.73 11.93 526.4 30.61C545.08 49.28 556.67 75.05 556.67 103.39V276.61C556.67 304.95 545.08 330.72 526.4 349.39C507.73 368.07 481.97 379.66 453.63 379.66H123.75C95.41 379.66 69.65 368.07 50.98 349.39C32.3 330.72 20.71 304.95 20.71 276.61V103.39C20.71 75.05 32.3 49.28 50.98 30.61C69.65 11.93 95.41 0.339966 123.75 0.339966V0.339966ZM453.63 2.69997H123.75C96.07 2.69997 70.89 14.03 52.65 32.28C34.4 50.53 23.07 75.7 23.07 103.39V276.61C23.07 304.3 34.4 329.47 52.65 347.72C70.89 365.97 96.07 377.3 123.75 377.3H453.63C481.31 377.3 506.49 365.97 524.73 347.72C542.98 329.47 554.31 304.3 554.31 276.61V103.39C554.31 75.7 542.98 50.53 524.73 32.28C506.49 14.03 481.31 2.69997 453.63 2.69997V2.69997Z" fill="#95C33F"/>
 <path fill-rule="evenodd" clip-rule="evenodd" d="M453.63 2.69995H123.75C96.07 2.69995 70.89 14.0299 52.65 32.2799C34.4 50.5299 23.07 75.7 23.07 103.39V276.61C23.07 304.3 34.4 329.47 52.65 347.72C70.89 365.97 96.07 377.3 123.75 377.3H453.63C481.31 377.3 506.49 365.97 524.73 347.72C542.98 329.47 554.31 304.3 554.31 276.61V103.39C554.31 75.7 542.98 50.5299 524.73 32.2799C506.49 14.0299 481.31 2.69995 453.63 2.69995V2.69995Z" fill="#FEFEFE"/>
 <path d="M172.174 178.223C171.938 176.225 170.978 174.675 169.296 173.571C167.614 172.467 165.551 171.915 163.107 171.915C161.319 171.915 159.755 172.204 158.415 172.782C157.088 173.36 156.05 174.155 155.3 175.167C154.564 176.179 154.197 177.329 154.197 178.617C154.197 179.695 154.453 180.621 154.965 181.397C155.491 182.159 156.161 182.796 156.976 183.309C157.791 183.808 158.645 184.222 159.539 184.551C160.432 184.866 161.254 185.122 162.003 185.319L166.103 186.423C167.154 186.699 168.324 187.08 169.612 187.567C170.913 188.053 172.155 188.716 173.337 189.557C174.533 190.385 175.519 191.45 176.294 192.751C177.07 194.052 177.457 195.649 177.457 197.541C177.457 199.723 176.886 201.694 175.742 203.455C174.612 205.216 172.956 206.615 170.775 207.654C168.606 208.692 165.971 209.211 162.87 209.211C159.979 209.211 157.475 208.744 155.36 207.811C153.257 206.878 151.601 205.577 150.392 203.908C149.196 202.239 148.519 200.301 148.362 198.093H153.408C153.539 199.617 154.052 200.879 154.946 201.878C155.852 202.863 156.996 203.599 158.376 204.086C159.769 204.559 161.267 204.795 162.87 204.795C164.736 204.795 166.412 204.493 167.897 203.888C169.382 203.271 170.558 202.417 171.425 201.326C172.293 200.222 172.726 198.934 172.726 197.462C172.726 196.122 172.352 195.031 171.603 194.19C170.854 193.349 169.868 192.665 168.646 192.14C167.424 191.614 166.103 191.154 164.684 190.76L159.716 189.341C156.562 188.434 154.065 187.139 152.225 185.457C150.385 183.775 149.466 181.574 149.466 178.854C149.466 176.593 150.077 174.622 151.299 172.94C152.534 171.245 154.19 169.93 156.266 168.997C158.356 168.051 160.689 167.578 163.264 167.578C165.866 167.578 168.179 168.045 170.203 168.978C172.227 169.898 173.83 171.159 175.013 172.762C176.209 174.366 176.84 176.186 176.905 178.223H172.174ZM217.981 180.746H213.092C212.803 179.34 212.297 178.105 211.575 177.04C210.865 175.976 209.998 175.082 208.973 174.359C207.961 173.623 206.837 173.071 205.602 172.703C204.366 172.335 203.079 172.151 201.738 172.151C199.294 172.151 197.079 172.769 195.095 174.004C193.124 175.24 191.553 177.06 190.384 179.465C189.227 181.87 188.649 184.82 188.649 188.316C188.649 191.811 189.227 194.762 190.384 197.166C191.553 199.571 193.124 201.392 195.095 202.627C197.079 203.862 199.294 204.48 201.738 204.48C203.079 204.48 204.366 204.296 205.602 203.928C206.837 203.56 207.961 203.015 208.973 202.292C209.998 201.556 210.865 200.656 211.575 199.591C212.297 198.514 212.803 197.278 213.092 195.885H217.981C217.613 197.948 216.943 199.795 215.97 201.424C214.998 203.054 213.789 204.44 212.343 205.584C210.898 206.714 209.275 207.575 207.474 208.166C205.687 208.757 203.775 209.053 201.738 209.053C198.295 209.053 195.233 208.212 192.552 206.53C189.871 204.848 187.762 202.456 186.224 199.355C184.687 196.253 183.918 192.573 183.918 188.316C183.918 184.058 184.687 180.378 186.224 177.277C187.762 174.175 189.871 171.783 192.552 170.101C195.233 168.419 198.295 167.578 201.738 167.578C203.775 167.578 205.687 167.874 207.474 168.465C209.275 169.057 210.898 169.924 212.343 171.067C213.789 172.197 214.998 173.577 215.97 175.207C216.943 176.823 217.613 178.67 217.981 180.746ZM230.77 168.13V208.501H225.881V168.13H230.77ZM240.572 208.501V168.13H264.936V172.467H245.46V186.108H263.675V190.445H245.46V204.164H265.252V208.501H240.572ZM305.761 168.13V208.501H301.03L279.031 176.804H278.636V208.501H273.748V168.13H278.479L300.557 199.907H300.951V168.13H305.761ZM348.029 180.746H343.141C342.851 179.34 342.345 178.105 341.623 177.04C340.913 175.976 340.046 175.082 339.021 174.359C338.009 173.623 336.885 173.071 335.65 172.703C334.415 172.335 333.127 172.151 331.786 172.151C329.342 172.151 327.127 172.769 325.143 174.004C323.172 175.24 321.601 177.06 320.432 179.465C319.275 181.87 318.697 184.82 318.697 188.316C318.697 191.811 319.275 194.762 320.432 197.166C321.601 199.571 323.172 201.392 325.143 202.627C327.127 203.862 329.342 204.48 331.786 204.48C333.127 204.48 334.415 204.296 335.65 203.928C336.885 203.56 338.009 203.015 339.021 202.292C340.046 201.556 340.913 200.656 341.623 199.591C342.345 198.514 342.851 197.278 343.141 195.885H348.029C347.661 197.948 346.991 199.795 346.019 201.424C345.046 203.054 343.837 204.44 342.391 205.584C340.946 206.714 339.323 207.575 337.523 208.166C335.735 208.757 333.823 209.053 331.786 209.053C328.343 209.053 325.281 208.212 322.6 206.53C319.919 204.848 317.81 202.456 316.272 199.355C314.735 196.253 313.966 192.573 313.966 188.316C313.966 184.058 314.735 180.378 316.272 177.277C317.81 174.175 319.919 171.783 322.6 170.101C325.281 168.419 328.343 167.578 331.786 167.578C333.823 167.578 335.735 167.874 337.523 168.465C339.323 169.057 340.946 169.924 342.391 171.067C343.837 172.197 345.046 173.577 346.019 175.207C346.991 176.823 347.661 178.67 348.029 180.746ZM355.929 208.501V168.13H380.294V172.467H360.818V186.108H379.032V190.445H360.818V204.164H380.609V208.501H355.929ZM411.183 178.223C410.947 176.225 409.987 174.675 408.305 173.571C406.623 172.467 404.56 171.915 402.115 171.915C400.328 171.915 398.764 172.204 397.424 172.782C396.096 173.36 395.058 174.155 394.309 175.167C393.573 176.179 393.205 177.329 393.205 178.617C393.205 179.695 393.462 180.621 393.974 181.397C394.5 182.159 395.17 182.796 395.985 183.309C396.8 183.808 397.654 184.222 398.547 184.551C399.441 184.866 400.262 185.122 401.011 185.319L405.112 186.423C406.163 186.699 407.333 187.08 408.62 187.567C409.921 188.053 411.163 188.716 412.346 189.557C413.542 190.385 414.528 191.45 415.303 192.751C416.078 194.052 416.466 195.649 416.466 197.541C416.466 199.723 415.894 201.694 414.751 203.455C413.621 205.216 411.965 206.615 409.783 207.654C407.615 208.692 404.98 209.211 401.879 209.211C398.988 209.211 396.484 208.744 394.368 207.811C392.266 206.878 390.61 205.577 389.401 203.908C388.205 202.239 387.528 200.301 387.37 198.093H392.417C392.548 199.617 393.061 200.879 393.954 201.878C394.861 202.863 396.004 203.599 397.384 204.086C398.777 204.559 400.275 204.795 401.879 204.795C403.745 204.795 405.42 204.493 406.905 203.888C408.39 203.271 409.567 202.417 410.434 201.326C411.301 200.222 411.735 198.934 411.735 197.462C411.735 196.122 411.36 195.031 410.611 194.19C409.862 193.349 408.877 192.665 407.655 192.14C406.432 191.614 405.112 191.154 403.692 190.76L398.725 189.341C395.571 188.434 393.074 187.139 391.234 185.457C389.394 183.775 388.474 181.574 388.474 178.854C388.474 176.593 389.085 174.622 390.308 172.94C391.543 171.245 393.199 169.93 395.275 168.997C397.365 168.051 399.697 167.578 402.273 167.578C404.875 167.578 407.188 168.045 409.212 168.978C411.236 169.898 412.839 171.159 414.022 172.762C415.218 174.366 415.848 176.186 415.914 178.223H411.183Z" fill="#72348A"/>
 <path d="M151.752 158.11H146.627L161.451 117.739H166.497L181.321 158.11H176.196L164.132 124.126H163.816L151.752 158.11ZM153.645 142.34H174.303V146.677H153.645V142.34ZM187.609 158.11V117.739H201.25C204.417 117.739 207.006 118.311 209.017 119.454C211.041 120.585 212.539 122.116 213.511 124.047C214.484 125.979 214.97 128.134 214.97 130.513C214.97 132.892 214.484 135.053 213.511 136.998C212.552 138.943 211.067 140.494 209.056 141.651C207.046 142.794 204.47 143.366 201.329 143.366H191.552V139.029H201.171C203.34 139.029 205.081 138.654 206.395 137.905C207.709 137.156 208.662 136.144 209.253 134.869C209.858 133.582 210.16 132.129 210.16 130.513C210.16 128.897 209.858 127.451 209.253 126.176C208.662 124.902 207.703 123.903 206.375 123.18C205.048 122.444 203.287 122.076 201.092 122.076H192.498V158.11H187.609ZM222.845 158.11V117.739H236.486C239.653 117.739 242.242 118.311 244.253 119.454C246.277 120.585 247.775 122.116 248.747 124.047C249.72 125.979 250.206 128.134 250.206 130.513C250.206 132.892 249.72 135.053 248.747 136.998C247.788 138.943 246.303 140.494 244.292 141.651C242.282 142.794 239.706 143.366 236.565 143.366H226.788V139.029H236.407C238.576 139.029 240.317 138.654 241.631 137.905C242.945 137.156 243.898 136.144 244.489 134.869C245.094 133.582 245.396 132.129 245.396 130.513C245.396 128.897 245.094 127.451 244.489 126.176C243.898 124.902 242.939 123.903 241.611 123.18C240.284 122.444 238.523 122.076 236.329 122.076H227.734V158.11H222.845ZM258.081 158.11V117.739H262.97V153.774H281.736V158.11H258.081ZM294.194 117.739V158.11H289.306V117.739H294.194ZM303.997 158.11V117.739H328.361V122.076H308.885V135.717H327.1V140.054H308.885V153.774H328.677V158.11H303.997ZM349.631 158.11H337.173V117.739H350.183C354.099 117.739 357.45 118.548 360.236 120.164C363.022 121.767 365.158 124.074 366.643 127.083C368.128 130.079 368.87 133.667 368.87 137.846C368.87 142.051 368.121 145.672 366.623 148.708C365.125 151.73 362.943 154.056 360.078 155.686C357.214 157.302 353.731 158.11 349.631 158.11ZM342.061 153.774H349.315C352.653 153.774 355.42 153.13 357.614 151.842C359.809 150.554 361.445 148.721 362.523 146.342C363.6 143.963 364.139 141.131 364.139 137.846C364.139 134.587 363.607 131.781 362.543 129.429C361.478 127.063 359.888 125.25 357.772 123.988C355.656 122.713 353.021 122.076 349.867 122.076H342.061V153.774Z" fill="#72348A"/>
 <path d="M150.096 261.236V220.865H174.303V225.202H154.985V238.843H172.49V243.18H154.985V261.236H150.096ZM179.291 261.236H174.165L188.989 220.865H194.035L208.859 261.236H203.734L191.67 227.252H191.355L179.291 261.236ZM181.183 245.466H201.842V249.803H181.183V245.466ZM245.736 233.481H240.848C240.559 232.075 240.053 230.84 239.33 229.775C238.62 228.711 237.753 227.817 236.728 227.094C235.716 226.358 234.592 225.806 233.357 225.438C232.122 225.071 230.834 224.887 229.493 224.887C227.049 224.887 224.835 225.504 222.85 226.74C220.879 227.975 219.308 229.795 218.139 232.2C216.982 234.605 216.404 237.555 216.404 241.051C216.404 244.546 216.982 247.497 218.139 249.902C219.308 252.307 220.879 254.127 222.85 255.362C224.835 256.597 227.049 257.215 229.493 257.215C230.834 257.215 232.122 257.031 233.357 256.663C234.592 256.295 235.716 255.75 236.728 255.027C237.753 254.291 238.62 253.391 239.33 252.326C240.053 251.249 240.559 250.013 240.848 248.62H245.736C245.368 250.684 244.698 252.53 243.726 254.16C242.753 255.789 241.544 257.176 240.099 258.319C238.653 259.449 237.03 260.31 235.23 260.901C233.442 261.493 231.53 261.788 229.493 261.788C226.05 261.788 222.988 260.947 220.307 259.265C217.626 257.583 215.517 255.191 213.98 252.09C212.442 248.988 211.673 245.309 211.673 241.051C211.673 236.793 212.442 233.113 213.98 230.012C215.517 226.91 217.626 224.519 220.307 222.836C222.988 221.154 226.05 220.313 229.493 220.313C231.53 220.313 233.442 220.609 235.23 221.2C237.03 221.792 238.653 222.659 240.099 223.802C241.544 224.933 242.753 226.312 243.726 227.942C244.698 229.558 245.368 231.405 245.736 233.481ZM280.13 220.865H285.018V247.595C285.018 250.355 284.368 252.819 283.067 254.987C281.779 257.143 279.959 258.845 277.606 260.093C275.254 261.328 272.494 261.946 269.327 261.946C266.16 261.946 263.4 261.328 261.048 260.093C258.696 258.845 256.869 257.143 255.568 254.987C254.28 252.819 253.636 250.355 253.636 247.595V220.865H258.525V247.201C258.525 249.172 258.958 250.927 259.826 252.464C260.693 253.989 261.928 255.191 263.532 256.072C265.148 256.939 267.08 257.373 269.327 257.373C271.574 257.373 273.506 256.939 275.123 256.072C276.739 255.191 277.974 253.989 278.829 252.464C279.696 250.927 280.13 249.172 280.13 247.201V220.865ZM294.781 261.236V220.865H299.67V256.9H318.436V261.236H294.781ZM318.431 225.202V220.865H348.709V225.202H336.014V261.236H331.126V225.202H318.431ZM352.785 220.865H358.383L369.58 239.71H370.053L381.25 220.865H386.848L372.261 244.599V261.236H367.372V244.599L352.785 220.865Z" fill="#72348A"/>
 <path d="M429.45 262.1C436.354 262.1 441.95 256.504 441.95 249.6C441.95 242.696 436.354 237.1 429.45 237.1C422.546 237.1 416.95 242.696 416.95 249.6C416.95 256.504 422.546 262.1 429.45 262.1Z" fill="#95C33F"/>
</svg>
