<svg width="560" height="380" viewBox="0 0 560 380" fill="none" xmlns="http://www.w3.org/2000/svg">
 <path fill-rule="evenodd" clip-rule="evenodd" d="M8.31998 15.98C10.74 15.98 12.71 17.94 12.71 20.37C12.71 22.8 10.74 24.76 8.31998 24.76C5.88998 24.76 3.91998 22.8 3.91998 20.37C3.91998 17.94 5.88998 15.98 8.31998 15.98Z" fill="#69737C"/>
 <path fill-rule="evenodd" clip-rule="evenodd" d="M8.31998 62.08C10.74 62.08 12.71 64.04 12.71 66.47C12.71 68.9 10.74 70.86 8.31998 70.86C5.88998 70.86 3.91998 68.9 3.91998 66.47C3.91998 64.04 5.88998 62.08 8.31998 62.08Z" fill="#69737C"/>
 <path fill-rule="evenodd" clip-rule="evenodd" d="M8.31998 108.17C10.74 108.17 12.71 110.14 12.71 112.57C12.71 114.99 10.74 116.96 8.31998 116.96C5.88998 116.96 3.91998 114.99 3.91998 112.57C3.91998 110.14 5.88998 108.17 8.31998 108.17Z" fill="#69737C"/>
 <path fill-rule="evenodd" clip-rule="evenodd" d="M8.31998 154.27C10.74 154.27 12.71 156.24 12.71 158.67C12.71 161.09 10.74 163.06 8.31998 163.06C5.88998 163.06 3.91998 161.09 3.91998 158.67C3.91998 156.24 5.88998 154.27 8.31998 154.27Z" fill="#69737C"/>
 <path fill-rule="evenodd" clip-rule="evenodd" d="M8.31998 200.37C10.74 200.37 12.71 202.34 12.71 204.76C12.71 207.19 10.74 209.16 8.31998 209.16C5.88998 209.16 3.91998 207.19 3.91998 204.76C3.91998 202.34 5.88998 200.37 8.31998 200.37Z" fill="#69737C"/>
 <path fill-rule="evenodd" clip-rule="evenodd" d="M8.31998 246.47C10.74 246.47 12.71 248.44 12.71 250.86C12.71 253.29 10.74 255.26 8.31998 255.26C5.88998 255.26 3.91998 253.29 3.91998 250.86C3.91998 248.44 5.88998 246.47 8.31998 246.47Z" fill="#69737C"/>
 <path fill-rule="evenodd" clip-rule="evenodd" d="M54.7 15.98C57.13 15.98 59.09 17.94 59.09 20.37C59.09 22.8 57.13 24.76 54.7 24.76C52.27 24.76 50.31 22.8 50.31 20.37C50.31 17.94 52.27 15.98 54.7 15.98Z" fill="#69737C"/>
 <path fill-rule="evenodd" clip-rule="evenodd" d="M8.31998 15.98C10.74 15.98 12.71 17.94 12.71 20.37C12.71 22.8 10.74 24.76 8.31998 24.76C5.88998 24.76 3.91998 22.8 3.91998 20.37C3.91998 17.94 5.88998 15.98 8.31998 15.98Z" fill="#69737C"/>
 <path fill-rule="evenodd" clip-rule="evenodd" d="M8.31998 62.08C10.74 62.08 12.71 64.04 12.71 66.47C12.71 68.9 10.74 70.86 8.31998 70.86C5.88998 70.86 3.91998 68.9 3.91998 66.47C3.91998 64.04 5.88998 62.08 8.31998 62.08Z" fill="#69737C"/>
 <path fill-rule="evenodd" clip-rule="evenodd" d="M8.31998 108.17C10.74 108.17 12.71 110.14 12.71 112.57C12.71 114.99 10.74 116.96 8.31998 116.96C5.88998 116.96 3.91998 114.99 3.91998 112.57C3.91998 110.14 5.88998 108.17 8.31998 108.17Z" fill="#69737C"/>
 <path fill-rule="evenodd" clip-rule="evenodd" d="M8.31998 154.27C10.74 154.27 12.71 156.24 12.71 158.67C12.71 161.09 10.74 163.06 8.31998 163.06C5.88998 163.06 3.91998 161.09 3.91998 158.67C3.91998 156.24 5.88998 154.27 8.31998 154.27Z" fill="#69737C"/>
 <path fill-rule="evenodd" clip-rule="evenodd" d="M8.31998 200.37C10.74 200.37 12.71 202.34 12.71 204.76C12.71 207.19 10.74 209.16 8.31998 209.16C5.88998 209.16 3.91998 207.19 3.91998 204.76C3.91998 202.34 5.88998 200.37 8.31998 200.37Z" fill="#69737C"/>
 <path fill-rule="evenodd" clip-rule="evenodd" d="M8.31998 246.47C10.74 246.47 12.71 248.44 12.71 250.86C12.71 253.29 10.74 255.26 8.31998 255.26C5.88998 255.26 3.91998 253.29 3.91998 250.86C3.91998 248.44 5.88998 246.47 8.31998 246.47Z" fill="#69737C"/>
 <path fill-rule="evenodd" clip-rule="evenodd" d="M54.7 15.98C57.13 15.98 59.09 17.94 59.09 20.37C59.09 22.8 57.13 24.76 54.7 24.76C52.27 24.76 50.31 22.8 50.31 20.37C50.31 17.94 52.27 15.98 54.7 15.98Z" fill="#69737C"/>
 <path d="M123.16 0.339966H453.04C481.37 0.339966 507.14 11.93 525.81 30.61C544.49 49.28 556.08 75.05 556.08 103.39V276.61C556.08 304.95 544.49 330.72 525.81 349.39C507.14 368.07 481.37 379.66 453.04 379.66H123.16C94.82 379.66 69.06 368.07 50.39 349.39C31.71 330.72 20.12 304.95 20.12 276.61V103.39C20.12 75.05 31.71 49.28 50.39 30.61C69.06 11.93 94.82 0.339966 123.16 0.339966V0.339966ZM453.04 2.69997H123.16C95.47 2.69997 70.3 14.03 52.06 32.28C33.81 50.53 22.48 75.7 22.48 103.39V276.61C22.48 304.3 33.81 329.47 52.06 347.72C70.3 365.97 95.47 377.3 123.16 377.3H453.04C480.72 377.3 505.9 365.97 524.14 347.72C542.39 329.47 553.72 304.3 553.72 276.61V103.39C553.72 75.7 542.39 50.53 524.14 32.28C505.9 14.03 480.72 2.69997 453.04 2.69997V2.69997Z" fill="#95C33F"/>
 <path fill-rule="evenodd" clip-rule="evenodd" d="M453.04 2.69995H123.16C95.47 2.69995 70.3 14.0299 52.06 32.2799C33.81 50.5299 22.48 75.7 22.48 103.39V276.61C22.48 304.3 33.81 329.47 52.06 347.72C70.3 365.97 95.47 377.3 123.16 377.3H453.04C480.72 377.3 505.9 365.97 524.14 347.72C542.39 329.47 553.72 304.3 553.72 276.61V103.39C553.72 75.7 542.39 50.5299 524.14 32.2799C505.9 14.0299 480.72 2.69995 453.04 2.69995V2.69995Z" fill="#FEFEFE"/>
 <path d="M87.29 188.34L88.7 186.84C89 186.52 89.36 186.37 89.76 186.37C90.15 186.37 90.55 186.52 90.94 186.84C92.87 188.44 94.67 189.24 96.33 189.24C97.64 189.24 98.68 188.92 99.48 188.29C100.27 187.67 100.66 186.81 100.66 185.73C100.66 184.67 100.2 183.75 99.28 182.96C98.36 182.18 97.24 181.5 95.91 180.93C94.58 180.36 93.26 179.73 91.94 179.05C90.63 178.36 89.51 177.38 88.59 176.11C87.67 174.84 87.21 173.31 87.21 171.51C87.21 169.17 88.06 167.2 89.76 165.6C91.4 164.03 93.63 163.25 96.46 163.25C99.04 163.25 101.4 163.86 103.55 165.09C104.06 165.37 104.31 165.83 104.31 166.46C104.31 166.72 104.24 166.96 104.1 167.19L103.3 168.6C102.96 169.17 102.49 169.46 101.9 169.46C101.58 169.46 101.33 169.4 101.13 169.28C99.6 168.54 98.19 168.17 96.89 168.17C95.61 168.17 94.6 168.47 93.85 169.07C93.1 169.67 92.73 170.47 92.73 171.47C92.73 172.44 93.06 173.28 93.72 173.99C94.39 174.71 95.22 175.27 96.21 175.68C97.2 176.1 98.28 176.59 99.46 177.16C100.63 177.73 101.71 178.33 102.7 178.94C103.69 179.55 104.52 180.44 105.18 181.59C105.85 182.75 106.18 184.11 106.18 185.68C106.18 188.17 105.23 190.19 103.34 191.76C101.41 193.36 99.05 194.16 96.25 194.16C92.97 194.16 90.04 192.95 87.46 190.52C87.09 190.23 86.91 189.82 86.91 189.28C86.91 188.91 87.04 188.59 87.29 188.34V188.34ZM130.73 169.63C128.89 168.66 127.14 168.17 125.47 168.17C122.67 168.17 120.36 169.13 118.55 171.04C116.71 172.98 115.79 175.53 115.79 178.7C115.79 181.81 116.75 184.34 118.68 186.28C120.57 188.25 123.03 189.24 126.06 189.24C127.79 189.24 129.57 188.74 131.41 187.74C131.75 187.57 132.08 187.48 132.39 187.48C132.98 187.48 133.43 187.72 133.75 188.21L134.51 189.41C134.71 189.69 134.81 190.02 134.81 190.39C134.81 190.93 134.61 191.33 134.21 191.59C131.64 193.3 128.77 194.16 125.6 194.16C121.07 194.16 117.38 192.75 114.52 189.92C111.69 187.1 110.27 183.36 110.27 178.7C110.27 174.25 111.62 170.55 114.31 167.61C116.96 164.7 120.69 163.25 125.47 163.25C128.07 163.25 130.66 163.96 133.24 165.39C133.8 165.7 134.09 166.12 134.09 166.63C134.09 166.92 134 167.2 133.83 167.49L132.94 169.07C132.6 169.61 132.18 169.88 131.67 169.88C131.35 169.88 131.04 169.8 130.73 169.63V169.63ZM146.2 165.3V192.1C146.2 192.53 146.04 192.9 145.73 193.22C145.42 193.53 145.05 193.69 144.63 193.69H142.55C142.12 193.69 141.76 193.53 141.44 193.22C141.13 192.9 140.98 192.53 140.98 192.1V165.3C140.98 164.87 141.13 164.5 141.44 164.19C141.76 163.88 142.12 163.72 142.55 163.72H144.63C145.05 163.72 145.42 163.88 145.73 164.19C146.04 164.5 146.2 164.87 146.2 165.3ZM172.95 190.35V192.1C172.95 192.53 172.8 192.9 172.49 193.22C172.18 193.53 171.81 193.69 171.38 193.69H156.91C156.49 193.69 156.12 193.53 155.81 193.22C155.49 192.9 155.34 192.53 155.34 192.1V165.3C155.34 164.87 155.49 164.5 155.81 164.19C156.12 163.88 156.49 163.72 156.91 163.72H170.96C171.38 163.72 171.75 163.88 172.06 164.19C172.38 164.5 172.53 164.87 172.53 165.3V167.06C172.53 167.49 172.38 167.86 172.06 168.17C171.75 168.48 171.38 168.64 170.96 168.64H160.56V176.09H169.69C170.11 176.09 170.48 176.25 170.79 176.56C171.1 176.88 171.26 177.25 171.26 177.68V179.43C171.26 179.86 171.1 180.23 170.79 180.54C170.48 180.86 170.11 181.02 169.69 181.02H160.56V188.76H171.38C171.81 188.76 172.18 188.92 172.49 189.24C172.8 189.55 172.95 189.92 172.95 190.35ZM202.09 163.72H203.83C204.25 163.72 204.62 163.88 204.93 164.19C205.24 164.5 205.4 164.87 205.4 165.3V192.1C205.4 192.53 205.24 192.9 204.93 193.22C204.62 193.53 204.25 193.69 203.83 193.69H202.34C201.64 193.69 201 193.35 200.43 192.66L184.9 172.92V192.1C184.9 192.53 184.74 192.9 184.43 193.22C184.12 193.53 183.75 193.69 183.33 193.69H181.59C181.16 193.69 180.8 193.53 180.48 193.22C180.17 192.9 180.02 192.53 180.02 192.1V165.3C180.02 164.87 180.17 164.5 180.48 164.19C180.8 163.88 181.16 163.72 181.59 163.72H183.07C183.78 163.72 184.42 164.06 184.98 164.75L200.52 184.57V165.3C200.52 164.87 200.67 164.5 200.99 164.19C201.3 163.88 201.66 163.72 202.09 163.72V163.72ZM232.16 169.63C230.32 168.66 228.56 168.17 226.89 168.17C224.09 168.17 221.78 169.13 219.98 171.04C218.13 172.98 217.22 175.53 217.22 178.7C217.22 181.81 218.18 184.34 220.1 186.28C222 188.25 224.46 189.24 227.49 189.24C229.21 189.24 231 188.74 232.83 187.74C233.18 187.57 233.5 187.48 233.81 187.48C234.41 187.48 234.86 187.72 235.17 188.21L235.93 189.41C236.13 189.69 236.23 190.02 236.23 190.39C236.23 190.93 236.03 191.33 235.64 191.59C233.06 193.3 230.19 194.16 227.02 194.16C222.49 194.16 218.8 192.75 215.94 189.92C213.11 187.1 211.7 183.36 211.7 178.7C211.7 174.25 213.04 170.55 215.73 167.61C218.39 164.7 222.11 163.25 226.89 163.25C229.5 163.25 232.09 163.96 234.66 165.39C235.23 165.7 235.51 166.12 235.51 166.63C235.51 166.92 235.42 167.2 235.25 167.49L234.36 169.07C234.02 169.61 233.6 169.88 233.09 169.88C232.78 169.88 232.47 169.8 232.16 169.63V169.63ZM259.38 190.35V192.1C259.38 192.53 259.23 192.9 258.91 193.22C258.6 193.53 258.23 193.69 257.81 193.69H243.34C242.91 193.69 242.54 193.53 242.23 193.22C241.92 192.9 241.77 192.53 241.77 192.1V165.3C241.77 164.87 241.92 164.5 242.23 164.19C242.54 163.88 242.91 163.72 243.34 163.72H257.39C257.81 163.72 258.18 163.88 258.49 164.19C258.8 164.5 258.96 164.87 258.96 165.3V167.06C258.96 167.49 258.8 167.86 258.49 168.17C258.18 168.48 257.81 168.64 257.39 168.64H246.99V176.09H256.11C256.54 176.09 256.9 176.25 257.22 176.56C257.53 176.88 257.68 177.25 257.68 177.68V179.43C257.68 179.86 257.53 180.23 257.22 180.54C256.9 180.86 256.54 181.02 256.11 181.02H246.99V188.76H257.81C258.23 188.76 258.6 188.92 258.91 189.24C259.23 189.55 259.38 189.92 259.38 190.35V190.35ZM264.62 188.34L266.02 186.84C266.33 186.52 266.68 186.37 267.08 186.37C267.48 186.37 267.87 186.52 268.27 186.84C270.19 188.44 271.99 189.24 273.66 189.24C274.96 189.24 276.01 188.92 276.8 188.29C277.59 187.67 277.99 186.81 277.99 185.73C277.99 184.67 277.53 183.75 276.61 182.96C275.69 182.18 274.56 181.5 273.23 180.93C271.9 180.36 270.58 179.73 269.27 179.05C267.95 178.36 266.83 177.38 265.91 176.11C264.99 174.84 264.53 173.31 264.53 171.51C264.53 169.17 265.38 167.2 267.08 165.6C268.72 164.03 270.96 163.25 273.79 163.25C276.36 163.25 278.72 163.86 280.87 165.09C281.38 165.37 281.64 165.83 281.64 166.46C281.64 166.72 281.57 166.96 281.43 167.19L280.62 168.6C280.28 169.17 279.81 169.46 279.22 169.46C278.91 169.46 278.65 169.4 278.46 169.28C276.93 168.54 275.51 168.17 274.21 168.17C272.94 168.17 271.92 168.47 271.18 169.07C270.43 169.67 270.05 170.47 270.05 171.47C270.05 172.44 270.38 173.28 271.05 173.99C271.71 174.71 272.54 175.27 273.53 175.68C274.52 176.1 275.6 176.59 276.78 177.16C277.95 177.73 279.04 178.33 280.03 178.94C281.02 179.55 281.84 180.44 282.51 181.59C283.17 182.75 283.51 184.11 283.51 185.68C283.51 188.17 282.56 190.19 280.66 191.76C278.74 193.36 276.37 194.16 273.57 194.16C270.29 194.16 267.36 192.95 264.79 190.52C264.42 190.23 264.23 189.82 264.23 189.28C264.23 188.91 264.36 188.59 264.62 188.34V188.34Z" fill="#72348A"/>
 <path d="M108.81 153.79L106.18 147.32H93.49L90.86 153.79C90.58 154.59 90 154.99 89.12 154.99H87.59C87.11 154.99 86.71 154.82 86.4 154.49C86.09 154.17 85.93 153.77 85.93 153.32C85.93 153.12 85.98 152.92 86.06 152.72L97.18 126.13C97.52 125.33 98.12 124.93 98.97 124.93H101C101.85 124.93 102.45 125.33 102.79 126.13L113.91 152.72C113.99 152.92 114.03 153.12 114.03 153.32C114.03 153.77 113.88 154.17 113.57 154.49C113.26 154.82 112.86 154.99 112.38 154.99H110.55C109.68 154.99 109.1 154.59 108.81 153.79V153.79ZM104.19 142.4L99.86 131.74L95.49 142.4H104.19ZM131.58 124.93C133.68 124.93 135.5 125.19 137.04 125.72C138.58 126.25 139.77 126.98 140.62 127.91C141.47 128.83 142.09 129.85 142.49 130.95C142.89 132.05 143.09 133.25 143.09 134.56C143.09 137.28 142.12 139.57 140.2 141.46C138.3 143.34 135.64 144.28 132.22 144.28C130.49 144.28 129.21 144.24 128.36 144.15V153.4C128.36 153.83 128.2 154.2 127.89 154.51C127.58 154.83 127.21 154.99 126.79 154.99H124.71C124.28 154.99 123.91 154.83 123.6 154.51C123.29 154.2 123.13 153.83 123.13 153.4V126.6C123.13 126.17 123.28 125.8 123.58 125.49C123.88 125.17 124.25 125.02 124.71 125.02C128.5 124.96 130.79 124.93 131.58 124.93V124.93ZM128.36 129.94V139.14C129.86 139.29 131.09 139.36 132.05 139.36C133.72 139.36 135.06 138.95 136.06 138.12C137.06 137.29 137.57 136.09 137.57 134.52C137.57 131.41 135.74 129.85 132.09 129.85L128.36 129.94ZM161.61 124.93C163.7 124.93 165.52 125.19 167.06 125.72C168.61 126.25 169.8 126.98 170.65 127.91C171.5 128.83 172.12 129.85 172.52 130.95C172.91 132.05 173.11 133.25 173.11 134.56C173.11 137.28 172.15 139.57 170.22 141.46C168.33 143.34 165.67 144.28 162.24 144.28C160.52 144.28 159.23 144.24 158.38 144.15V153.4C158.38 153.83 158.23 154.2 157.92 154.51C157.6 154.83 157.24 154.99 156.81 154.99H154.73C154.31 154.99 153.94 154.83 153.63 154.51C153.32 154.2 153.16 153.83 153.16 153.4V126.6C153.16 126.17 153.31 125.8 153.61 125.49C153.91 125.17 154.28 125.02 154.73 125.02C158.52 124.96 160.82 124.93 161.61 124.93V124.93ZM158.38 129.94V139.14C159.88 139.29 161.11 139.36 162.07 139.36C163.74 139.36 165.08 138.95 166.09 138.12C167.09 137.29 167.59 136.09 167.59 134.52C167.59 131.41 165.77 129.85 162.12 129.85L158.38 129.94ZM201.78 151.65V153.4C201.78 153.83 201.62 154.2 201.31 154.51C201 154.83 200.63 154.99 200.21 154.99H184.76C184.33 154.99 183.97 154.83 183.65 154.51C183.34 154.2 183.19 153.83 183.19 153.4V126.6C183.19 126.17 183.34 125.8 183.65 125.49C183.97 125.17 184.33 125.02 184.76 125.02H186.84C187.26 125.02 187.63 125.17 187.94 125.49C188.25 125.8 188.41 126.17 188.41 126.6V150.06H200.21C200.63 150.06 201 150.22 201.31 150.53C201.62 150.85 201.78 151.22 201.78 151.65V151.65ZM216.31 126.6V153.4C216.31 153.83 216.16 154.2 215.85 154.51C215.53 154.83 215.17 154.99 214.74 154.99H212.66C212.24 154.99 211.87 154.83 211.56 154.51C211.25 154.2 211.09 153.83 211.09 153.4V126.6C211.09 126.17 211.25 125.8 211.56 125.49C211.87 125.17 212.24 125.02 212.66 125.02H214.74C215.17 125.02 215.53 125.17 215.85 125.49C216.16 125.8 216.31 126.17 216.31 126.6ZM246.85 151.65V153.4C246.85 153.83 246.69 154.2 246.38 154.51C246.07 154.83 245.7 154.99 245.28 154.99H230.8C230.38 154.99 230.01 154.83 229.7 154.51C229.39 154.2 229.23 153.83 229.23 153.4V126.6C229.23 126.17 229.39 125.8 229.7 125.49C230.01 125.17 230.38 125.02 230.8 125.02H244.85C245.28 125.02 245.65 125.17 245.96 125.49C246.27 125.8 246.42 126.17 246.42 126.6V128.36C246.42 128.78 246.27 129.16 245.96 129.47C245.65 129.78 245.28 129.94 244.85 129.94H234.45V137.39H243.58C244 137.39 244.37 137.55 244.68 137.86C244.99 138.17 245.15 138.54 245.15 138.97V140.73C245.15 141.16 244.99 141.53 244.68 141.84C244.37 142.16 244 142.31 243.58 142.31H234.45V150.06H245.28C245.7 150.06 246.07 150.22 246.38 150.53C246.69 150.85 246.85 151.22 246.85 151.65V151.65ZM259.26 125.02C263.93 124.93 266.32 124.89 266.43 124.89C269.32 124.89 271.85 125.28 274.03 126.07C276.21 126.85 277.95 127.94 279.25 129.34C280.55 130.74 281.52 132.3 282.16 134.03C282.79 135.76 283.11 137.65 283.11 139.7C283.11 144.15 281.64 147.82 278.7 150.7C275.73 153.62 271.53 155.07 266.09 155.07C265.84 155.07 265.42 155.06 264.84 155.05C264.26 155.04 263.43 155.02 262.36 155.01C261.28 154.99 260.25 154.99 259.26 154.99C258.83 154.99 258.47 154.83 258.16 154.51C257.84 154.2 257.69 153.83 257.69 153.4V126.6C257.69 126.17 257.84 125.8 258.13 125.49C258.43 125.17 258.81 125.02 259.26 125.02V125.02ZM262.91 129.94V150.06C264.21 150.12 265.33 150.15 266.26 150.15C269.8 150.15 272.57 149.21 274.58 147.32C276.59 145.44 277.6 142.9 277.6 139.7C277.6 136.65 276.6 134.24 274.6 132.47C272.61 130.7 269.86 129.81 266.35 129.81C265.24 129.81 264.1 129.85 262.91 129.94Z" fill="#72348A"/>
 <path d="M103.25 222.55H94.34V232.61C94.34 233.03 94.18 233.41 93.87 233.72C93.56 234.03 93.19 234.19 92.77 234.19H90.69C90.26 234.19 89.9 234.03 89.59 233.72C89.27 233.41 89.12 233.03 89.12 232.61V205.81C89.12 205.38 89.27 205.01 89.59 204.69C89.9 204.38 90.26 204.22 90.69 204.22H104.53C104.95 204.22 105.32 204.38 105.63 204.69C105.94 205.01 106.1 205.38 106.1 205.81V207.56C106.1 207.99 105.94 208.36 105.63 208.67C105.32 208.99 104.95 209.14 104.53 209.14H94.34V217.62H103.25C103.68 217.62 104.05 217.78 104.36 218.09C104.67 218.41 104.82 218.78 104.82 219.21V220.96C104.82 221.39 104.67 221.76 104.36 222.08C104.05 222.39 103.68 222.55 103.25 222.55V222.55ZM133.37 232.99L130.74 226.53H118.04L115.41 232.99C115.13 233.79 114.55 234.19 113.67 234.19H112.14C111.66 234.19 111.27 234.03 110.96 233.7C110.64 233.37 110.49 232.98 110.49 232.52C110.49 232.32 110.53 232.12 110.62 231.92L121.74 205.33C122.08 204.54 122.67 204.14 123.52 204.14H125.56C126.41 204.14 127 204.54 127.34 205.33L138.46 231.92C138.54 232.12 138.59 232.32 138.59 232.52C138.59 232.98 138.43 233.37 138.12 233.7C137.81 234.03 137.41 234.19 136.93 234.19H135.11C134.23 234.19 133.65 233.79 133.37 232.99ZM128.74 221.6L124.41 210.94L120.04 221.6H128.74ZM164.2 210.13C162.36 209.16 160.61 208.67 158.94 208.67C156.14 208.67 153.83 209.63 152.02 211.54C150.18 213.48 149.26 216.04 149.26 219.21C149.26 222.32 150.22 224.84 152.15 226.78C154.04 228.75 156.5 229.74 159.53 229.74C161.26 229.74 163.04 229.24 164.88 228.24C165.22 228.07 165.55 227.98 165.86 227.98C166.45 227.98 166.9 228.23 167.22 228.71L167.98 229.91C168.18 230.2 168.28 230.52 168.28 230.89C168.28 231.44 168.08 231.84 167.68 232.09C165.11 233.81 162.24 234.66 159.07 234.66C154.54 234.66 150.84 233.25 147.99 230.42C145.16 227.6 143.74 223.86 143.74 219.21C143.74 214.75 145.09 211.06 147.78 208.12C150.43 205.21 154.16 203.75 158.94 203.75C161.54 203.75 164.13 204.46 166.71 205.89C167.27 206.2 167.56 206.62 167.56 207.13C167.56 207.42 167.47 207.7 167.3 207.99L166.41 209.57C166.07 210.12 165.65 210.39 165.14 210.39C164.82 210.39 164.51 210.3 164.2 210.13V210.13ZM195.72 220.7V205.81C195.72 205.38 195.87 205.01 196.18 204.69C196.49 204.38 196.86 204.22 197.29 204.22H199.32C199.75 204.22 200.12 204.38 200.43 204.69C200.74 205.01 200.89 205.38 200.89 205.81V221.78C200.89 226.08 199.78 229.31 197.54 231.45C195.28 233.59 192.46 234.66 189.09 234.66C185.3 234.66 182.25 233.52 179.92 231.24C177.6 228.98 176.45 225.73 176.45 221.48V205.81C176.45 205.38 176.6 205.01 176.91 204.69C177.22 204.38 177.59 204.22 178.02 204.22H180.09C180.52 204.22 180.89 204.38 181.2 204.69C181.51 205.01 181.66 205.38 181.66 205.81V220.36C181.66 223.33 182.3 225.63 183.55 227.28C184.81 228.92 186.66 229.74 189.09 229.74C193.51 229.74 195.72 226.73 195.72 220.7V220.7ZM230.63 230.85V232.61C230.63 233.03 230.47 233.41 230.16 233.72C229.85 234.03 229.48 234.19 229.05 234.19H213.6C213.18 234.19 212.81 234.03 212.5 233.72C212.19 233.41 212.03 233.03 212.03 232.61V205.81C212.03 205.38 212.19 205.01 212.5 204.69C212.81 204.38 213.18 204.22 213.6 204.22H215.68C216.11 204.22 216.48 204.38 216.79 204.69C217.1 205.01 217.25 205.38 217.25 205.81V229.27H229.05C229.48 229.27 229.85 229.42 230.16 229.74C230.47 230.05 230.63 230.42 230.63 230.85V230.85ZM243.72 234.19H241.64C241.21 234.19 240.85 234.03 240.53 233.72C240.22 233.41 240.07 233.03 240.07 232.61V209.14H232C231.58 209.14 231.21 208.99 230.9 208.67C230.59 208.36 230.43 207.99 230.43 207.56V205.81C230.43 205.38 230.59 205.01 230.9 204.69C231.21 204.38 231.58 204.22 232 204.22H253.35C253.78 204.22 254.14 204.38 254.46 204.69C254.77 205.01 254.92 205.38 254.92 205.81V207.56C254.92 207.99 254.77 208.36 254.46 208.67C254.14 208.99 253.78 209.14 253.35 209.14H245.29V232.61C245.29 233.03 245.13 233.41 244.82 233.72C244.51 234.03 244.14 234.19 243.72 234.19V234.19ZM265.26 205.33L271.96 216.77L278.63 205.33C279.05 204.59 279.69 204.22 280.54 204.22H282.06C282.49 204.22 282.86 204.39 283.17 204.71C283.48 205.04 283.63 205.42 283.63 205.85C283.63 206.16 283.56 206.43 283.42 206.66L274.34 221.69V232.61C274.34 233.03 274.18 233.41 273.87 233.72C273.56 234.03 273.19 234.19 272.77 234.19H270.69C270.26 234.19 269.9 234.03 269.59 233.72C269.27 233.41 269.12 233.03 269.12 232.61V221.69L260.12 206.66C259.95 206.4 259.86 206.12 259.86 205.81C259.86 205.38 260.02 205.01 260.33 204.69C260.64 204.38 261.03 204.22 261.48 204.22H263.3C264.12 204.22 264.77 204.59 265.26 205.33V205.33Z" fill="#72348A"/>
 <path fill-rule="evenodd" clip-rule="evenodd" d="M303.31 214.31C308.61 214.31 312.91 218.6 312.91 223.91C312.91 229.21 308.61 233.51 303.31 233.51C298.01 233.51 293.71 229.21 293.71 223.91C293.71 218.6 298.01 214.31 303.31 214.31Z" fill="#95C33F"/>
 <path d="M333.37 123.35C350.27 123.04 358.92 122.88 359.33 122.88C369.78 122.88 378.94 124.31 386.83 127.15C394.71 129.99 401.01 133.94 405.72 139C410.43 144.06 413.94 149.71 416.24 155.96C418.54 162.21 419.7 169.06 419.7 176.49C419.7 192.6 414.37 205.88 403.72 216.31C392.97 226.84 377.76 232.11 358.1 232.11C357.18 232.11 355.67 232.09 353.57 232.04C351.47 231.98 348.48 231.93 344.58 231.88C340.69 231.83 336.96 231.8 333.37 231.8C331.84 231.8 330.5 231.23 329.38 230.1C328.25 228.96 327.69 227.62 327.69 226.07V129.08C327.69 127.53 328.23 126.19 329.3 125.05C330.38 123.92 331.73 123.35 333.37 123.35V123.35ZM346.58 141.17V213.99C351.29 214.19 355.34 214.3 358.72 214.3C371.52 214.3 381.55 210.89 388.82 204.07C396.09 197.25 399.73 188.06 399.73 176.49C399.73 165.44 396.12 156.71 388.9 150.31C381.68 143.9 371.72 140.7 359.02 140.7C355.03 140.7 350.88 140.86 346.58 141.17V141.17ZM419.92 212.44L424.99 207.01C426.12 205.88 427.4 205.31 428.83 205.31C430.27 205.31 431.7 205.88 433.13 207.01C440.1 212.8 446.6 215.69 452.64 215.69C457.35 215.69 461.14 214.55 464.01 212.28C466.88 210.01 468.31 206.91 468.31 202.98C468.31 199.16 466.65 195.83 463.32 192.99C459.99 190.15 455.92 187.7 451.11 185.63C446.29 183.57 441.51 181.29 436.74 178.82C431.98 176.34 427.94 172.8 424.61 168.2C421.28 163.61 419.62 158.05 419.62 151.55C419.62 143.08 422.69 135.95 428.83 130.17C434.77 124.49 442.86 121.65 453.1 121.65C462.42 121.65 470.97 123.87 478.75 128.31C480.6 129.34 481.52 130.99 481.52 133.27C481.52 134.19 481.26 135.07 480.75 135.9L477.83 141.01C476.6 143.08 474.91 144.11 472.76 144.11C471.64 144.11 470.72 143.9 470 143.49C464.47 140.81 459.35 139.46 454.64 139.46C450.03 139.46 446.37 140.55 443.66 142.72C440.94 144.89 439.59 147.78 439.59 151.39C439.59 154.9 440.79 157.95 443.2 160.53C445.6 163.12 448.6 165.16 452.18 166.65C455.76 168.15 459.68 169.93 463.93 172C468.18 174.06 472.1 176.21 475.68 178.43C479.27 180.65 482.26 183.85 484.67 188.03C487.07 192.22 488.28 197.15 488.28 202.83C488.28 211.82 484.85 219.15 477.99 224.83C471.02 230.61 462.47 233.51 452.34 233.51C440.46 233.51 429.86 229.12 420.54 220.34C419.21 219.3 418.54 217.81 418.54 215.84C418.54 214.5 419 213.37 419.92 212.44V212.44Z" fill="#95C33F"/>
</svg>
