<svg width="500" height="140" viewBox="0 0 500 140" fill="none" xmlns="http://www.w3.org/2000/svg">
 <path fill-rule="evenodd" clip-rule="evenodd" d="M320.42 84.68C325.2 76.28 350.93 44.56 357.56 33.8H330.94C328.65 34.2 307.07 64.06 304.07 67.91C300.05 73.07 303.35 72.1 293.83 72.1L293.84 0.660027L270.06 0.590027L270.21 138.94L293.81 138.73L294.06 95.94L303.08 96.03L334.1 138.93L362.7 138.95C361.86 136.8 359.11 133.89 357.57 131.9L320.42 84.68V84.68Z" fill="#2B2B2B"/>
 <path fill-rule="evenodd" clip-rule="evenodd" d="M182.82 75.53C181.7 58.43 189.06 51.53 205.47 51.63C222.13 51.73 228.66 59.02 227.69 75.76L182.82 75.53ZM182.74 90.99C194.4 90.99 244.28 91.5 251.85 90.84C252.48 78.91 251.33 61.67 245.92 52.35C235.23 33.94 212.55 31.81 192.49 34.7C181.41 36.3 173.39 40.01 168.18 46.22C154.5 62.51 152.13 115.08 171.83 131.16C185.42 142.26 226.57 141.59 240.53 132.6C249.36 126.91 251.96 119.43 251.97 105.15L227.47 105.19C227.47 118.89 221.89 121.38 205.47 121.38C188.57 121.38 182.75 115.76 182.75 95.8L182.74 90.99V90.99Z" fill="#2B2B2B"/>
 <path fill-rule="evenodd" clip-rule="evenodd" d="M26.7 75.68C25.69 58.38 32.17 51.63 48.92 51.63C56.25 51.63 62.69 52.74 66.78 57.18C70.35 61.05 72.44 69.16 71.42 75.76L26.7 75.68V75.68ZM46.04 121.38C27.46 121.38 26.62 107.21 26.62 90.99H95.55C96.59 74.77 94.64 54.39 83.99 44.36C75.4 36.27 60.66 33.8 49.5 33.8C11.69 33.8 1.85999 50.94 1.85999 87.02C1.85999 117.82 9.68998 139.23 44.28 139.23C61.78 139.23 85.73 139.97 93.7 121.98C95.68 117.5 95.99 110.43 95.99 105.15L71.8 105.01C71.8 121.22 62.48 121.38 46.04 121.38V121.38Z" fill="#2B2B2B"/>
 <path fill-rule="evenodd" clip-rule="evenodd" d="M419 139.53C436.14 139.53 451.01 135.96 457.03 123.35C460.08 116.98 461.29 107.71 459.81 99.97C454.91 74.4 421.88 78.78 403.38 75.38C393.81 73.62 390.54 70.82 392.85 59.21C394.35 51.67 403.32 51.21 411.52 51.21C417.07 51.21 422.88 51.3 427.77 53.52C433.35 56.06 432.46 57.36 433.66 63.97L455.26 64.08C459.32 64.08 456.14 51.7 455.08 49.19C448.92 34.76 426.93 34.85 414.37 34.26C396.39 33.42 368.05 35.11 368.05 60.12C368.05 70.68 367.87 79.01 376.98 86.45C394.96 101.11 436.84 87.7 436.84 108.08C436.84 119.9 429.15 122.4 417.85 122.4C401.31 122.4 393.52 124.46 392.52 105.73L367.9 105.87C367.9 111.8 367.63 117.7 369.93 122.84C378.08 141.04 401.44 139.53 419 139.53V139.53Z" fill="#2B2B2B"/>
 <path fill-rule="evenodd" clip-rule="evenodd" d="M114.68 138.95H138.7L138.71 0.460022H114.53L114.68 138.95Z" fill="#2B2B2B"/>
 <path fill-rule="evenodd" clip-rule="evenodd" d="M477.87 5.01001C485.69 2.80001 492.17 6.94001 493.9 13.24C496.02 20.96 491.16 27.55 485.9 29.26C469.25 34.68 462.43 9.36001 477.87 5.01001V5.01001ZM478.69 0.74001C456.99 5.36001 463.85 38.23 485.01 33.61C500.03 30.33 502.13 11.21 491.51 3.95001C488.04 1.57001 483.75 -0.32999 478.69 0.74001V0.74001Z" fill="#2B2B2B"/>
 <path fill-rule="evenodd" clip-rule="evenodd" d="M478.51 11.22C481.86 11.02 484.77 11.08 486.62 12.46C486.94 16.78 484.45 16.68 478.42 16.1L478.51 11.22V11.22ZM474.7 26.06H478.25L478.48 18.82L481.78 18.72C482.78 20.17 485.02 24.28 485.89 26.06H489.66C488.76 23.28 486.8 21.25 485.76 18.46C488.29 17.98 489.6 17.73 490.22 15.46C492.73 6.24 480.62 8.19 474.86 8.19L474.7 26.06Z" fill="#2B2B2B"/>
</svg>
