<?xml version="1.0" encoding="UTF-8"?>
<!DOCTYPE svg PUBLIC "-//W3C//DTD SVG 1.1//EN" "http://www.w3.org/Graphics/SVG/1.1/DTD/svg11.dtd">
<!-- Creator: CorelDRAW 2020 -->
<svg xmlns="http://www.w3.org/2000/svg" xml:space="preserve" width="560px" height="380px" version="1.1" style="shape-rendering:geometricPrecision; text-rendering:geometricPrecision; image-rendering:optimizeQuality; fill-rule:evenodd; clip-rule:evenodd"
viewBox="0 0 560 380"
 xmlns:xlink="http://www.w3.org/1999/xlink"
 xmlns:xodm="http://www.corel.com/coreldraw/odm/2003">
 <defs>
  <style type="text/css">
   <![CDATA[
    .fil0 {fill:#69737C}
    .fil2 {fill:#72348A}
    .fil3 {fill:#FEFEFE;fill-rule:nonzero}
    .fil1 {fill:#95C33F;fill-rule:nonzero}
   ]]>
  </style>
 </defs>
 <g id="Слой_x0020_1">
  <metadata id="CorelCorpID_0Corel-Layer"/>
  <g id="_1310001336">
   <path class="fil0" d="M8.32 15.98c2.42,0 4.39,1.96 4.39,4.39 0,2.43 -1.97,4.39 -4.39,4.39 -2.43,0 -4.4,-1.96 -4.4,-4.39 0,-2.43 1.97,-4.39 4.4,-4.39z"/>
   <path class="fil0" d="M8.32 62.08c2.42,0 4.39,1.96 4.39,4.39 0,2.43 -1.97,4.39 -4.39,4.39 -2.43,0 -4.4,-1.96 -4.4,-4.39 0,-2.43 1.97,-4.39 4.4,-4.39z"/>
   <path class="fil0" d="M8.32 108.17c2.42,0 4.39,1.97 4.39,4.4 0,2.42 -1.97,4.39 -4.39,4.39 -2.43,0 -4.4,-1.97 -4.4,-4.39 0,-2.43 1.97,-4.4 4.4,-4.4z"/>
   <path class="fil0" d="M8.32 154.27c2.42,0 4.39,1.97 4.39,4.4 0,2.42 -1.97,4.39 -4.39,4.39 -2.43,0 -4.4,-1.97 -4.4,-4.39 0,-2.43 1.97,-4.4 4.4,-4.4z"/>
   <path class="fil0" d="M8.32 200.37c2.42,0 4.39,1.97 4.39,4.39 0,2.43 -1.97,4.4 -4.39,4.4 -2.43,0 -4.4,-1.97 -4.4,-4.4 0,-2.42 1.97,-4.39 4.4,-4.39z"/>
   <path class="fil0" d="M8.32 246.47c2.42,0 4.39,1.97 4.39,4.39 0,2.43 -1.97,4.4 -4.39,4.4 -2.43,0 -4.4,-1.97 -4.4,-4.4 0,-2.42 1.97,-4.39 4.4,-4.39z"/>
   <path class="fil0" d="M54.7 15.98c2.43,0 4.39,1.96 4.39,4.39 0,2.43 -1.96,4.39 -4.39,4.39 -2.43,0 -4.39,-1.96 -4.39,-4.39 0,-2.43 1.96,-4.39 4.39,-4.39z"/>
   <path class="fil0" d="M8.32 15.98c2.42,0 4.39,1.96 4.39,4.39 0,2.43 -1.97,4.39 -4.39,4.39 -2.43,0 -4.4,-1.96 -4.4,-4.39 0,-2.43 1.97,-4.39 4.4,-4.39z"/>
   <path class="fil0" d="M8.32 62.08c2.42,0 4.39,1.96 4.39,4.39 0,2.43 -1.97,4.39 -4.39,4.39 -2.43,0 -4.4,-1.96 -4.4,-4.39 0,-2.43 1.97,-4.39 4.4,-4.39z"/>
   <path class="fil0" d="M8.32 108.17c2.42,0 4.39,1.97 4.39,4.4 0,2.42 -1.97,4.39 -4.39,4.39 -2.43,0 -4.4,-1.97 -4.4,-4.39 0,-2.43 1.97,-4.4 4.4,-4.4z"/>
   <path class="fil0" d="M8.32 154.27c2.42,0 4.39,1.97 4.39,4.4 0,2.42 -1.97,4.39 -4.39,4.39 -2.43,0 -4.4,-1.97 -4.4,-4.39 0,-2.43 1.97,-4.4 4.4,-4.4z"/>
   <path class="fil0" d="M8.32 200.37c2.42,0 4.39,1.97 4.39,4.39 0,2.43 -1.97,4.4 -4.39,4.4 -2.43,0 -4.4,-1.97 -4.4,-4.4 0,-2.42 1.97,-4.39 4.4,-4.39z"/>
   <path class="fil0" d="M8.32 246.47c2.42,0 4.39,1.97 4.39,4.39 0,2.43 -1.97,4.4 -4.39,4.4 -2.43,0 -4.4,-1.97 -4.4,-4.4 0,-2.42 1.97,-4.39 4.4,-4.39z"/>
   <path class="fil0" d="M54.7 15.98c2.43,0 4.39,1.96 4.39,4.39 0,2.43 -1.96,4.39 -4.39,4.39 -2.43,0 -4.39,-1.96 -4.39,-4.39 0,-2.43 1.96,-4.39 4.39,-4.39z"/>
  </g>
  <path class="fil1" d="M123.16 0.34l329.88 0c28.33,0 54.1,11.59 72.77,30.27 18.68,18.67 30.27,44.44 30.27,72.78l0 173.22c0,28.34 -11.59,54.11 -30.27,72.78 -18.67,18.68 -44.44,30.27 -72.77,30.27l-329.88 0c-28.34,0 -54.1,-11.59 -72.77,-30.27 -18.68,-18.67 -30.27,-44.44 -30.27,-72.78l0 -173.22c0,-28.34 11.59,-54.11 30.27,-72.78 18.67,-18.68 44.43,-30.27 72.77,-30.27zm329.88 2.36l-329.88 0c-27.69,0 -52.86,11.33 -71.1,29.58 -18.25,18.25 -29.58,43.42 -29.58,71.11l0 173.22c0,27.69 11.33,52.86 29.58,71.11 18.24,18.25 43.41,29.58 71.1,29.58l329.88 0c27.68,0 52.86,-11.33 71.1,-29.58 18.25,-18.25 29.58,-43.42 29.58,-71.11l0 -173.22c0,-27.69 -11.33,-52.86 -29.58,-71.11 -18.24,-18.25 -43.42,-29.58 -71.1,-29.58z"/>
  <path class="fil2" d="M441.54 99.37l-306.88 0c-28.53,0 -51.87,23.35 -51.87,51.88l0 77.5c0,28.53 23.34,51.88 51.87,51.88l306.88 0c28.53,0 51.87,-23.35 51.87,-51.88l0 -77.5c0,-28.53 -23.34,-51.88 -51.87,-51.88z"/>
  <path class="fil3" d="M189.1 136.49l-15.58 -20.29 0 34.17c0,0.43 -0.16,0.81 -0.47,1.13 -0.32,0.31 -0.69,0.47 -1.12,0.47 -0.47,0 -0.86,-0.16 -1.18,-0.47 -0.31,-0.32 -0.47,-0.7 -0.47,-1.13l0 -38.62c0,-0.43 0.16,-0.83 0.47,-1.18 0.32,-0.36 0.69,-0.54 1.12,-0.54 0.63,0 1.37,0.56 2.24,1.66l16.05 21.24 15.29 -21.12c0.83,-1.19 1.59,-1.78 2.3,-1.78 0.39,0 0.73,0.15 1.02,0.45 0.3,0.29 0.45,0.68 0.45,1.15l0 38.74c0,0.43 -0.16,0.81 -0.47,1.13 -0.32,0.31 -0.71,0.47 -1.18,0.47 -0.43,0 -0.8,-0.16 -1.12,-0.47 -0.31,-0.32 -0.47,-0.7 -0.47,-1.13l0 -34.17 -14.88 20.23c-0.27,0.36 -0.63,0.53 -1.06,0.53 -0.39,0 -0.7,-0.15 -0.94,-0.47zm57.7 14.59l-5.76 -13.52 -19.76 0 -5.76 13.52c-0.32,0.6 -0.77,0.89 -1.36,0.89 -0.43,0 -0.79,-0.15 -1.08,-0.44 -0.3,-0.3 -0.45,-0.67 -0.45,-1.1 0,-0.08 0.04,-0.28 0.12,-0.59l16.82 -38.74c0.35,-0.79 0.9,-1.19 1.65,-1.19 0.78,0 1.35,0.4 1.7,1.19l16.76 38.68c0.08,0.31 0.12,0.51 0.12,0.59 0,0.4 -0.16,0.76 -0.5,1.1 -0.33,0.33 -0.69,0.5 -1.09,0.5 -0.62,0 -1.09,-0.29 -1.41,-0.89zm-7.05 -16.61l-8.59 -20.05 -8.59 20.05 17.18 0zm38.7 -19.28c-2.63,-1.66 -5.88,-2.49 -9.76,-2.49 -4.94,0 -8.98,1.7 -12.12,5.1 -3.13,3.48 -4.7,7.85 -4.7,13.11 0,5.38 1.62,9.77 4.88,13.17 3.21,3.36 7.41,5.04 12.58,5.04 3.73,0 7.02,-1 9.88,-3.02 0.32,-0.2 0.61,-0.3 0.89,-0.3 0.39,0 0.76,0.2 1.11,0.6 0.2,0.31 0.3,0.59 0.3,0.83 0,0.43 -0.18,0.81 -0.53,1.12 -3.26,2.57 -7.22,3.86 -11.88,3.86 -6.12,0 -11.1,-1.94 -14.94,-5.81 -3.8,-3.84 -5.7,-9 -5.7,-15.49 0,-6.09 1.84,-11.17 5.52,-15.24 3.69,-4.04 8.57,-6.05 14.65,-6.05 4.7,0 8.49,1.02 11.35,3.08 0.43,0.32 0.65,0.73 0.65,1.25 0,0.23 -0.08,0.49 -0.24,0.77 -0.27,0.47 -0.69,0.71 -1.23,0.71 -0.2,0 -0.44,-0.08 -0.71,-0.24zm39 -3.62l0 38.8c0,0.43 -0.16,0.81 -0.47,1.13 -0.32,0.31 -0.69,0.47 -1.12,0.47 -0.47,0 -0.86,-0.16 -1.18,-0.47 -0.31,-0.32 -0.47,-0.7 -0.47,-1.13l0 -18.33 -25.7 0 0 18.33c0,0.43 -0.15,0.81 -0.47,1.13 -0.31,0.31 -0.7,0.47 -1.17,0.47 -0.44,0 -0.81,-0.16 -1.12,-0.47 -0.32,-0.32 -0.47,-0.7 -0.47,-1.13l0 -38.8c0,-0.43 0.15,-0.8 0.47,-1.09 0.31,-0.3 0.72,-0.45 1.23,-0.45 0.39,0 0.75,0.16 1.06,0.48 0.32,0.31 0.47,0.67 0.47,1.06l0 17.39 25.7 0 0 -17.39c0,-0.43 0.16,-0.8 0.47,-1.09 0.32,-0.3 0.73,-0.45 1.24,-0.45 0.39,0 0.74,0.16 1.06,0.48 0.31,0.31 0.47,0.67 0.47,1.06zm13 0l0 38.8c0,0.43 -0.15,0.81 -0.47,1.13 -0.31,0.31 -0.69,0.47 -1.12,0.47 -0.47,0 -0.86,-0.16 -1.17,-0.47 -0.32,-0.32 -0.47,-0.7 -0.47,-1.13l0 -38.8c0,-0.43 0.15,-0.8 0.47,-1.09 0.31,-0.3 0.72,-0.45 1.23,-0.45 0.39,0 0.75,0.16 1.06,0.48 0.32,0.31 0.47,0.67 0.47,1.06zm13.12 -0.41l27.41 34.82 0 -34.46c0,-0.44 0.14,-0.8 0.44,-1.07 0.29,-0.28 0.68,-0.42 1.15,-0.42 0.98,0 1.47,0.5 1.47,1.49l0 38.91c0,1.03 -0.47,1.54 -1.42,1.54 -0.62,0 -1.21,-0.35 -1.76,-1.07l-27.58 -35.05 0 34.64c0,0.43 -0.15,0.79 -0.44,1.07 -0.3,0.27 -0.68,0.41 -1.15,0.41 -0.39,0 -0.74,-0.15 -1.03,-0.44 -0.29,-0.3 -0.44,-0.65 -0.44,-1.04l0 -38.97c0,-0.44 0.15,-0.8 0.44,-1.07 0.29,-0.28 0.66,-0.42 1.09,-0.42 0.63,0 1.23,0.38 1.82,1.13zm42.06 21l0 16.43 18.64 0c0.43,0 0.79,0.15 1.06,0.45 0.27,0.29 0.41,0.68 0.41,1.15 0,0.99 -0.49,1.49 -1.47,1.49l-20.17 0c-0.47,0 -0.87,-0.17 -1.21,-0.51 -0.33,-0.34 -0.5,-0.74 -0.5,-1.22l0 -38.08c0,-0.47 0.17,-0.88 0.5,-1.22 0.34,-0.33 0.74,-0.5 1.21,-0.5l19.58 0c0.44,0 0.79,0.15 1.06,0.45 0.28,0.29 0.41,0.68 0.41,1.15 0,0.99 -0.49,1.48 -1.47,1.48l-18.05 0 0 15.84 16.29 0c0.43,0 0.78,0.15 1.06,0.45 0.27,0.3 0.41,0.68 0.41,1.16 0,0.39 -0.14,0.74 -0.41,1.03 -0.28,0.3 -0.63,0.45 -1.06,0.45l-16.29 0zm-222.14 38.5l0 37.02 20.23 0c0.43,0 0.78,0.15 1.06,0.44 0.27,0.3 0.41,0.69 0.41,1.16 0,0.43 -0.15,0.79 -0.44,1.07 -0.3,0.27 -0.64,0.41 -1.03,0.41l-21.76 0c-0.47,0 -0.87,-0.17 -1.21,-0.5 -0.33,-0.34 -0.5,-0.74 -0.5,-1.22l0 -38.38c0,-0.43 0.16,-0.8 0.47,-1.1 0.32,-0.29 0.73,-0.44 1.24,-0.44 0.39,0 0.74,0.16 1.06,0.47 0.31,0.32 0.47,0.68 0.47,1.07zm27.76 20.59l0 16.43 18.65 0c0.43,0 0.78,0.15 1.05,0.44 0.28,0.3 0.41,0.69 0.41,1.16 0,0.99 -0.48,1.48 -1.46,1.48l-20.18 0c-0.47,0 -0.87,-0.17 -1.2,-0.5 -0.34,-0.34 -0.5,-0.74 -0.5,-1.22l0 -38.08c0,-0.48 0.16,-0.88 0.5,-1.22 0.33,-0.33 0.73,-0.5 1.2,-0.5l19.59 0c0.43,0 0.78,0.15 1.05,0.44 0.28,0.3 0.42,0.69 0.42,1.16 0,0.99 -0.49,1.48 -1.47,1.48l-18.06 0 0 15.84 16.29 0c0.43,0 0.79,0.15 1.06,0.45 0.27,0.29 0.41,0.68 0.41,1.15 0,0.4 -0.14,0.74 -0.41,1.04 -0.27,0.3 -0.63,0.45 -1.06,0.45l-16.29 0zm55.11 18.92l-5.76 -13.53 -19.76 0 -5.76 13.53c-0.32,0.59 -0.77,0.89 -1.36,0.89 -0.43,0 -0.79,-0.15 -1.08,-0.45 -0.3,-0.29 -0.45,-0.66 -0.45,-1.09 0,-0.08 0.04,-0.28 0.12,-0.6l16.82 -38.73c0.35,-0.79 0.9,-1.19 1.65,-1.19 0.78,0 1.35,0.4 1.7,1.19l16.77 38.67c0.07,0.32 0.11,0.52 0.11,0.6 0,0.39 -0.16,0.76 -0.5,1.09 -0.33,0.34 -0.69,0.51 -1.09,0.51 -0.62,0 -1.09,-0.3 -1.41,-0.89zm-7.05 -16.61l-8.59 -20.05 -8.59 20.05 17.18 0zm38.05 16.73l-13.35 -16.97 -8 0 0 16.14c0,0.43 -0.15,0.81 -0.47,1.12 -0.31,0.32 -0.7,0.48 -1.17,0.48 -0.43,0 -0.81,-0.16 -1.12,-0.48 -0.31,-0.31 -0.47,-0.69 -0.47,-1.12l0 -38.5c0,-0.48 0.17,-0.88 0.5,-1.22 0.33,-0.33 0.74,-0.5 1.21,-0.5 5.01,-0.08 7.74,-0.12 8.17,-0.12 9.61,0 14.41,3.99 14.41,11.98 0,2.89 -0.92,5.38 -2.77,7.48 -1.8,2.13 -4.13,3.5 -6.99,4.09l12.7 15.9c0.23,0.27 0.35,0.59 0.35,0.95 0,0.39 -0.14,0.75 -0.44,1.06 -0.29,0.32 -0.67,0.48 -1.15,0.48 -0.54,0 -1.01,-0.26 -1.41,-0.77zm-21.35 -37.97l0 17.92 7.12 0c2.71,0 5.16,-0.87 7.35,-2.61 2.12,-1.74 3.18,-3.92 3.18,-6.53 0,-5.93 -3.73,-8.9 -11.18,-8.9 -0.86,0 -3.01,0.04 -6.47,0.12zm32.06 -2.07l27.41 34.82 0 -34.47c0,-0.43 0.15,-0.79 0.44,-1.07 0.29,-0.27 0.68,-0.41 1.15,-0.41 0.98,0 1.47,0.49 1.47,1.48l0 38.92c0,1.03 -0.47,1.54 -1.41,1.54 -0.63,0 -1.22,-0.36 -1.77,-1.07l-27.58 -35.06 0 34.65c0,0.43 -0.15,0.79 -0.44,1.06 -0.3,0.28 -0.68,0.42 -1.15,0.42 -0.39,0 -0.73,-0.15 -1.03,-0.45 -0.29,-0.29 -0.44,-0.64 -0.44,-1.03l0 -38.98c0,-0.43 0.15,-0.79 0.44,-1.07 0.3,-0.27 0.66,-0.41 1.09,-0.41 0.63,0 1.23,0.37 1.82,1.13zm43.47 0.41l0 38.8c0,0.43 -0.16,0.81 -0.47,1.12 -0.31,0.32 -0.69,0.48 -1.12,0.48 -0.47,0 -0.86,-0.16 -1.17,-0.48 -0.32,-0.31 -0.48,-0.69 -0.48,-1.12l0 -38.8c0,-0.43 0.16,-0.8 0.48,-1.1 0.31,-0.29 0.72,-0.44 1.23,-0.44 0.39,0 0.75,0.16 1.06,0.47 0.31,0.32 0.47,0.68 0.47,1.07zm13.12 -0.41l27.41 34.82 0 -34.47c0,-0.43 0.14,-0.79 0.44,-1.07 0.29,-0.27 0.67,-0.41 1.15,-0.41 0.98,0 1.47,0.49 1.47,1.48l0 38.92c0,1.03 -0.47,1.54 -1.42,1.54 -0.62,0 -1.21,-0.36 -1.76,-1.07l-27.58 -35.06 0 34.65c0,0.43 -0.15,0.79 -0.44,1.06 -0.3,0.28 -0.68,0.42 -1.15,0.42 -0.39,0 -0.74,-0.15 -1.03,-0.45 -0.29,-0.29 -0.44,-0.64 -0.44,-1.03l0 -38.98c0,-0.43 0.15,-0.79 0.44,-1.07 0.29,-0.27 0.66,-0.41 1.09,-0.41 0.63,0 1.23,0.37 1.82,1.13zm38.88 19.75c0,5.5 1.59,9.91 4.77,13.23 3.09,3.32 7.21,4.98 12.35,4.98 2.31,0 4.6,-0.39 6.88,-1.18 2.27,-0.8 4.06,-1.84 5.35,-3.15l0 -10.14 -10.59 0c-0.43,0 -0.78,-0.15 -1.06,-0.45 -0.27,-0.29 -0.41,-0.68 -0.41,-1.15 0,-0.4 0.14,-0.75 0.41,-1.04 0.28,-0.3 0.63,-0.45 1.06,-0.45l11.94 0c0.47,0 0.87,0.17 1.21,0.51 0.33,0.33 0.5,0.74 0.5,1.21l0 12.34c0,0.63 -0.24,1.15 -0.71,1.54 -1.76,1.55 -4.04,2.77 -6.82,3.68 -2.67,0.91 -5.29,1.37 -7.88,1.37 -6.16,0 -11.1,-1.94 -14.82,-5.82 -3.73,-3.87 -5.59,-9.03 -5.59,-15.48 0,-6.05 1.86,-11.13 5.59,-15.25 3.72,-4.03 8.52,-6.05 14.41,-6.05 4.62,0 8.49,1.03 11.58,3.09 0.47,0.35 0.71,0.79 0.71,1.3 0,0.04 -0.1,0.3 -0.3,0.77 -0.31,0.48 -0.7,0.72 -1.17,0.72 -0.2,0 -0.43,-0.08 -0.71,-0.24 -2.51,-1.7 -5.76,-2.55 -9.76,-2.55 -5.02,0 -9.1,1.7 -12.23,5.1 -3.14,3.4 -4.71,7.77 -4.71,13.11zm-202.37 39.75l0 37.01 20.23 0c0.43,0 0.78,0.15 1.06,0.45 0.27,0.3 0.41,0.68 0.41,1.16 0,0.43 -0.15,0.79 -0.44,1.06 -0.29,0.28 -0.64,0.42 -1.03,0.42l-21.76 0c-0.47,0 -0.87,-0.17 -1.21,-0.5 -0.33,-0.34 -0.5,-0.75 -0.5,-1.22l0 -38.38c0,-0.44 0.16,-0.8 0.47,-1.1 0.32,-0.3 0.73,-0.44 1.24,-0.44 0.39,0 0.74,0.15 1.06,0.47 0.31,0.32 0.47,0.67 0.47,1.07zm53.76 39.51l-5.76 -13.53 -19.77 0 -5.76 13.53c-0.31,0.59 -0.77,0.89 -1.35,0.89 -0.43,0 -0.8,-0.15 -1.09,-0.45 -0.29,-0.3 -0.44,-0.66 -0.44,-1.1 0,-0.08 0.04,-0.27 0.12,-0.59l16.82 -38.74c0.35,-0.79 0.9,-1.18 1.64,-1.18 0.79,0 1.36,0.39 1.71,1.18l16.76 38.68c0.08,0.32 0.12,0.52 0.12,0.59 0,0.4 -0.17,0.77 -0.5,1.1 -0.33,0.34 -0.7,0.51 -1.09,0.51 -0.63,0 -1.1,-0.3 -1.41,-0.89zm-7.06 -16.61l-8.59 -20.05 -8.58 20.05 17.17 0zm37.29 -14.24c0,2.53 -0.72,4.64 -2.17,6.32 -1.45,1.68 -3.39,2.83 -5.83,3.47 3.06,0.39 5.43,1.45 7.09,3.17 1.67,1.72 2.5,4.01 2.5,6.85 0,3.88 -1.3,6.81 -3.91,8.81 -2.61,2 -6.19,3 -10.73,3 -3.45,0 -6.47,-0.06 -9.06,-0.18 -0.47,0 -0.87,-0.18 -1.21,-0.53 -0.33,-0.36 -0.5,-0.78 -0.5,-1.25l0 -37.97c0,-0.47 0.17,-0.88 0.5,-1.21 0.34,-0.34 0.74,-0.53 1.21,-0.57 5.06,-0.11 8.1,-0.17 9.11,-0.17 8.67,0 13,3.42 13,10.26zm-12.76 11.69l-7.82 0 0 16.61c3.92,0.15 6.47,0.23 7.65,0.23 3.64,0 6.43,-0.75 8.38,-2.25 1.94,-1.5 2.91,-3.72 2.91,-6.65 0,-2.53 -0.96,-4.48 -2.89,-5.87 -1.92,-1.38 -4.66,-2.07 -8.23,-2.07zm-7.82 -18.69l0 15.78 8 0c2.7,0 4.94,-0.74 6.7,-2.23 1.77,-1.48 2.65,-3.45 2.65,-5.9 0,-5.22 -3.3,-7.83 -9.88,-7.83 -1.69,0 -4.18,0.06 -7.47,0.18zm75.34 20.35l0 -22.01c0,-0.44 0.15,-0.8 0.47,-1.1 0.31,-0.3 0.7,-0.44 1.17,-0.44 0.43,0 0.81,0.14 1.12,0.44 0.31,0.3 0.47,0.66 0.47,1.1l0 22.72c0,5.97 -1.47,10.44 -4.41,13.41 -2.94,2.96 -6.66,4.44 -11.17,4.44 -4.98,0 -9,-1.58 -12.06,-4.74 -3.1,-3.13 -4.65,-7.63 -4.65,-13.53l0 -22.3c0,-0.44 0.16,-0.8 0.48,-1.1 0.31,-0.3 0.72,-0.44 1.23,-0.44 0.39,0 0.74,0.15 1.06,0.47 0.31,0.32 0.47,0.67 0.47,1.07l0 21.71c0,4.94 1.2,8.81 3.62,11.6 2.41,2.79 5.69,4.18 9.85,4.18 3.84,0 6.86,-1.33 9.05,-3.98 2.2,-2.64 3.3,-6.48 3.3,-11.5zm37.64 -18.39c-2.62,-1.66 -5.88,-2.49 -9.76,-2.49 -4.94,0 -8.98,1.7 -12.12,5.1 -3.13,3.48 -4.7,7.85 -4.7,13.11 0,5.38 1.63,9.77 4.88,13.17 3.22,3.36 7.41,5.04 12.59,5.04 3.72,0 7.02,-1.01 9.88,-3.03 0.31,-0.19 0.61,-0.29 0.88,-0.29 0.39,0 0.76,0.19 1.12,0.59 0.19,0.32 0.29,0.59 0.29,0.83 0,0.43 -0.17,0.81 -0.53,1.13 -3.25,2.57 -7.21,3.85 -11.88,3.85 -6.11,0 -11.09,-1.93 -14.94,-5.81 -3.8,-3.84 -5.7,-9 -5.7,-15.48 0,-6.09 1.84,-11.18 5.53,-15.25 3.68,-4.03 8.56,-6.05 14.64,-6.05 4.71,0 8.49,1.03 11.35,3.09 0.43,0.31 0.65,0.73 0.65,1.24 0,0.24 -0.08,0.5 -0.24,0.77 -0.27,0.48 -0.68,0.71 -1.23,0.71 -0.2,0 -0.43,-0.07 -0.71,-0.23zm35.3 18.39l0 -22.01c0,-0.44 0.15,-0.8 0.47,-1.1 0.31,-0.3 0.7,-0.44 1.17,-0.44 0.43,0 0.81,0.14 1.12,0.44 0.31,0.3 0.47,0.66 0.47,1.1l0 22.72c0,5.97 -1.47,10.44 -4.41,13.41 -2.94,2.96 -6.67,4.44 -11.17,4.44 -4.98,0 -9,-1.58 -12.06,-4.74 -3.1,-3.13 -4.65,-7.63 -4.65,-13.53l0 -22.3c0,-0.44 0.16,-0.8 0.47,-1.1 0.32,-0.3 0.73,-0.44 1.24,-0.44 0.39,0 0.74,0.15 1.06,0.47 0.31,0.32 0.47,0.67 0.47,1.07l0 21.71c0,4.94 1.2,8.81 3.61,11.6 2.42,2.79 5.7,4.18 9.86,4.18 3.84,0 6.86,-1.33 9.05,-3.98 2.2,-2.64 3.3,-6.48 3.3,-11.5z"/>
 </g>
</svg>
