<svg width="560" height="380" viewBox="0 0 560 380" fill="none" xmlns="http://www.w3.org/2000/svg">
 <path fill-rule="evenodd" clip-rule="evenodd" d="M8.31998 15.98C10.74 15.98 12.71 17.94 12.71 20.37C12.71 22.8 10.74 24.76 8.31998 24.76C5.88998 24.76 3.91998 22.8 3.91998 20.37C3.91998 17.94 5.88998 15.98 8.31998 15.98Z" fill="#69737C"/>
 <path fill-rule="evenodd" clip-rule="evenodd" d="M8.31998 62.08C10.74 62.08 12.71 64.04 12.71 66.47C12.71 68.9 10.74 70.86 8.31998 70.86C5.88998 70.86 3.91998 68.9 3.91998 66.47C3.91998 64.04 5.88998 62.08 8.31998 62.08Z" fill="#69737C"/>
 <path fill-rule="evenodd" clip-rule="evenodd" d="M8.31998 108.17C10.74 108.17 12.71 110.14 12.71 112.57C12.71 114.99 10.74 116.96 8.31998 116.96C5.88998 116.96 3.91998 114.99 3.91998 112.57C3.91998 110.14 5.88998 108.17 8.31998 108.17Z" fill="#69737C"/>
 <path fill-rule="evenodd" clip-rule="evenodd" d="M8.31998 154.27C10.74 154.27 12.71 156.24 12.71 158.67C12.71 161.09 10.74 163.06 8.31998 163.06C5.88998 163.06 3.91998 161.09 3.91998 158.67C3.91998 156.24 5.88998 154.27 8.31998 154.27Z" fill="#69737C"/>
 <path fill-rule="evenodd" clip-rule="evenodd" d="M8.31998 200.37C10.74 200.37 12.71 202.34 12.71 204.76C12.71 207.19 10.74 209.16 8.31998 209.16C5.88998 209.16 3.91998 207.19 3.91998 204.76C3.91998 202.34 5.88998 200.37 8.31998 200.37Z" fill="#69737C"/>
 <path fill-rule="evenodd" clip-rule="evenodd" d="M8.31998 246.47C10.74 246.47 12.71 248.44 12.71 250.86C12.71 253.29 10.74 255.26 8.31998 255.26C5.88998 255.26 3.91998 253.29 3.91998 250.86C3.91998 248.44 5.88998 246.47 8.31998 246.47Z" fill="#69737C"/>
 <path fill-rule="evenodd" clip-rule="evenodd" d="M54.7 15.98C57.13 15.98 59.09 17.94 59.09 20.37C59.09 22.8 57.13 24.76 54.7 24.76C52.27 24.76 50.31 22.8 50.31 20.37C50.31 17.94 52.27 15.98 54.7 15.98Z" fill="#69737C"/>
 <path fill-rule="evenodd" clip-rule="evenodd" d="M8.31998 15.98C10.74 15.98 12.71 17.94 12.71 20.37C12.71 22.8 10.74 24.76 8.31998 24.76C5.88998 24.76 3.91998 22.8 3.91998 20.37C3.91998 17.94 5.88998 15.98 8.31998 15.98Z" fill="#69737C"/>
 <path fill-rule="evenodd" clip-rule="evenodd" d="M8.31998 62.08C10.74 62.08 12.71 64.04 12.71 66.47C12.71 68.9 10.74 70.86 8.31998 70.86C5.88998 70.86 3.91998 68.9 3.91998 66.47C3.91998 64.04 5.88998 62.08 8.31998 62.08Z" fill="#69737C"/>
 <path fill-rule="evenodd" clip-rule="evenodd" d="M8.31998 108.17C10.74 108.17 12.71 110.14 12.71 112.57C12.71 114.99 10.74 116.96 8.31998 116.96C5.88998 116.96 3.91998 114.99 3.91998 112.57C3.91998 110.14 5.88998 108.17 8.31998 108.17Z" fill="#69737C"/>
 <path fill-rule="evenodd" clip-rule="evenodd" d="M8.31998 154.27C10.74 154.27 12.71 156.24 12.71 158.67C12.71 161.09 10.74 163.06 8.31998 163.06C5.88998 163.06 3.91998 161.09 3.91998 158.67C3.91998 156.24 5.88998 154.27 8.31998 154.27Z" fill="#69737C"/>
 <path fill-rule="evenodd" clip-rule="evenodd" d="M8.31998 200.37C10.74 200.37 12.71 202.34 12.71 204.76C12.71 207.19 10.74 209.16 8.31998 209.16C5.88998 209.16 3.91998 207.19 3.91998 204.76C3.91998 202.34 5.88998 200.37 8.31998 200.37Z" fill="#69737C"/>
 <path fill-rule="evenodd" clip-rule="evenodd" d="M8.31998 246.47C10.74 246.47 12.71 248.44 12.71 250.86C12.71 253.29 10.74 255.26 8.31998 255.26C5.88998 255.26 3.91998 253.29 3.91998 250.86C3.91998 248.44 5.88998 246.47 8.31998 246.47Z" fill="#69737C"/>
 <path fill-rule="evenodd" clip-rule="evenodd" d="M54.7 15.98C57.13 15.98 59.09 17.94 59.09 20.37C59.09 22.8 57.13 24.76 54.7 24.76C52.27 24.76 50.31 22.8 50.31 20.37C50.31 17.94 52.27 15.98 54.7 15.98Z" fill="#69737C"/>
 <path d="M123.16 0.340027H453.04C481.37 0.340027 507.14 11.93 525.81 30.61C544.49 49.28 556.08 75.05 556.08 103.39V276.61C556.08 304.95 544.49 330.72 525.81 349.39C507.14 368.07 481.37 379.66 453.04 379.66H123.16C94.82 379.66 69.06 368.07 50.39 349.39C31.71 330.72 20.12 304.95 20.12 276.61V103.39C20.12 75.05 31.71 49.28 50.39 30.61C69.06 11.93 94.82 0.340027 123.16 0.340027V0.340027ZM453.04 2.70003H123.16C95.47 2.70003 70.3 14.03 52.06 32.28C33.81 50.53 22.48 75.7 22.48 103.39V276.61C22.48 304.3 33.81 329.47 52.06 347.72C70.3 365.97 95.47 377.3 123.16 377.3H453.04C480.72 377.3 505.9 365.97 524.14 347.72C542.39 329.47 553.72 304.3 553.72 276.61V103.39C553.72 75.7 542.39 50.53 524.14 32.28C505.9 14.03 480.72 2.70003 453.04 2.70003V2.70003Z" fill="#95C33F"/>
 <path fill-rule="evenodd" clip-rule="evenodd" d="M441.54 99.3701H134.66C106.13 99.3701 82.79 122.72 82.79 151.25V228.75C82.79 257.28 106.13 280.63 134.66 280.63H441.54C470.07 280.63 493.41 257.28 493.41 228.75V151.25C493.41 122.72 470.07 99.3701 441.54 99.3701Z" fill="#72348A"/>
 <path d="M189.1 136.49L173.52 116.2V150.37C173.52 150.8 173.36 151.18 173.05 151.5C172.73 151.81 172.36 151.97 171.93 151.97C171.46 151.97 171.07 151.81 170.75 151.5C170.44 151.18 170.28 150.8 170.28 150.37V111.75C170.28 111.32 170.44 110.92 170.75 110.57C171.07 110.21 171.44 110.03 171.87 110.03C172.5 110.03 173.24 110.59 174.11 111.69L190.16 132.93L205.45 111.81C206.28 110.62 207.04 110.03 207.75 110.03C208.14 110.03 208.48 110.18 208.77 110.48C209.07 110.77 209.22 111.16 209.22 111.63V150.37C209.22 150.8 209.06 151.18 208.75 151.5C208.43 151.81 208.04 151.97 207.57 151.97C207.14 151.97 206.77 151.81 206.45 151.5C206.14 151.18 205.98 150.8 205.98 150.37V116.2L191.1 136.43C190.83 136.79 190.47 136.96 190.04 136.96C189.65 136.96 189.34 136.81 189.1 136.49V136.49ZM246.8 151.08L241.04 137.56H221.28L215.52 151.08C215.2 151.68 214.75 151.97 214.16 151.97C213.73 151.97 213.37 151.82 213.08 151.53C212.78 151.23 212.63 150.86 212.63 150.43C212.63 150.35 212.67 150.15 212.75 149.84L229.57 111.1C229.92 110.31 230.47 109.91 231.22 109.91C232 109.91 232.57 110.31 232.92 111.1L249.68 149.78C249.76 150.09 249.8 150.29 249.8 150.37C249.8 150.77 249.64 151.13 249.3 151.47C248.97 151.8 248.61 151.97 248.21 151.97C247.59 151.97 247.12 151.68 246.8 151.08ZM239.75 134.47L231.16 114.42L222.57 134.47H239.75ZM278.45 115.19C275.82 113.53 272.57 112.7 268.69 112.7C263.75 112.7 259.71 114.4 256.57 117.8C253.44 121.28 251.87 125.65 251.87 130.91C251.87 136.29 253.49 140.68 256.75 144.08C259.96 147.44 264.16 149.12 269.33 149.12C273.06 149.12 276.35 148.12 279.21 146.1C279.53 145.9 279.82 145.8 280.1 145.8C280.49 145.8 280.86 146 281.21 146.4C281.41 146.71 281.51 146.99 281.51 147.23C281.51 147.66 281.33 148.04 280.98 148.35C277.72 150.92 273.76 152.21 269.1 152.21C262.98 152.21 258 150.27 254.16 146.4C250.36 142.56 248.46 137.4 248.46 130.91C248.46 124.82 250.3 119.74 253.98 115.67C257.67 111.63 262.55 109.62 268.63 109.62C273.33 109.62 277.12 110.64 279.98 112.7C280.41 113.02 280.63 113.43 280.63 113.95C280.63 114.18 280.55 114.44 280.39 114.72C280.12 115.19 279.7 115.43 279.16 115.43C278.96 115.43 278.72 115.35 278.45 115.19V115.19ZM317.45 111.57V150.37C317.45 150.8 317.29 151.18 316.98 151.5C316.66 151.81 316.29 151.97 315.86 151.97C315.39 151.97 315 151.81 314.68 151.5C314.37 151.18 314.21 150.8 314.21 150.37V132.04H288.51V150.37C288.51 150.8 288.36 151.18 288.04 151.5C287.73 151.81 287.34 151.97 286.87 151.97C286.43 151.97 286.06 151.81 285.75 151.5C285.43 151.18 285.28 150.8 285.28 150.37V111.57C285.28 111.14 285.43 110.77 285.75 110.48C286.06 110.18 286.47 110.03 286.98 110.03C287.37 110.03 287.73 110.19 288.04 110.51C288.36 110.82 288.51 111.18 288.51 111.57V128.96H314.21V111.57C314.21 111.14 314.37 110.77 314.68 110.48C315 110.18 315.41 110.03 315.92 110.03C316.31 110.03 316.66 110.19 316.98 110.51C317.29 110.82 317.45 111.18 317.45 111.57V111.57ZM330.45 111.57V150.37C330.45 150.8 330.3 151.18 329.98 151.5C329.67 151.81 329.29 151.97 328.86 151.97C328.39 151.97 328 151.81 327.69 151.5C327.37 151.18 327.22 150.8 327.22 150.37V111.57C327.22 111.14 327.37 110.77 327.69 110.48C328 110.18 328.41 110.03 328.92 110.03C329.31 110.03 329.67 110.19 329.98 110.51C330.3 110.82 330.45 111.18 330.45 111.57V111.57ZM343.57 111.16L370.98 145.98V111.52C370.98 111.08 371.12 110.72 371.42 110.45C371.71 110.17 372.1 110.03 372.57 110.03C373.55 110.03 374.04 110.53 374.04 111.52V150.43C374.04 151.46 373.57 151.97 372.62 151.97C372 151.97 371.41 151.62 370.86 150.9L343.28 115.85V150.49C343.28 150.92 343.13 151.28 342.84 151.56C342.54 151.83 342.16 151.97 341.69 151.97C341.3 151.97 340.95 151.82 340.66 151.53C340.37 151.23 340.22 150.88 340.22 150.49V111.52C340.22 111.08 340.37 110.72 340.66 110.45C340.95 110.17 341.32 110.03 341.75 110.03C342.38 110.03 342.98 110.41 343.57 111.16V111.16ZM385.63 132.16V148.59H404.27C404.7 148.59 405.06 148.74 405.33 149.04C405.6 149.33 405.74 149.72 405.74 150.19C405.74 151.18 405.25 151.68 404.27 151.68H384.1C383.63 151.68 383.23 151.51 382.89 151.17C382.56 150.83 382.39 150.43 382.39 149.95V111.87C382.39 111.4 382.56 110.99 382.89 110.65C383.23 110.32 383.63 110.15 384.1 110.15H403.68C404.12 110.15 404.47 110.3 404.74 110.6C405.02 110.89 405.15 111.28 405.15 111.75C405.15 112.74 404.66 113.23 403.68 113.23H385.63V129.07H401.92C402.35 129.07 402.7 129.22 402.98 129.52C403.25 129.82 403.39 130.2 403.39 130.68C403.39 131.07 403.25 131.42 402.98 131.71C402.7 132.01 402.35 132.16 401.92 132.16H385.63V132.16ZM163.49 170.66V207.68H183.72C184.15 207.68 184.5 207.83 184.78 208.12C185.05 208.42 185.19 208.81 185.19 209.28C185.19 209.71 185.04 210.07 184.75 210.35C184.45 210.62 184.11 210.76 183.72 210.76H161.96C161.49 210.76 161.09 210.59 160.75 210.26C160.42 209.92 160.25 209.52 160.25 209.04V170.66C160.25 170.23 160.41 169.86 160.72 169.56C161.04 169.27 161.45 169.12 161.96 169.12C162.35 169.12 162.7 169.28 163.02 169.59C163.33 169.91 163.49 170.27 163.49 170.66ZM191.25 191.25V207.68H209.9C210.33 207.68 210.68 207.83 210.95 208.12C211.23 208.42 211.36 208.81 211.36 209.28C211.36 210.27 210.88 210.76 209.9 210.76H189.72C189.25 210.76 188.85 210.59 188.52 210.26C188.18 209.92 188.02 209.52 188.02 209.04V170.96C188.02 170.48 188.18 170.08 188.52 169.74C188.85 169.41 189.25 169.24 189.72 169.24H209.31C209.74 169.24 210.09 169.39 210.36 169.68C210.64 169.98 210.78 170.37 210.78 170.84C210.78 171.83 210.29 172.32 209.31 172.32H191.25V188.16H207.54C207.97 188.16 208.33 188.31 208.6 188.61C208.87 188.9 209.01 189.29 209.01 189.76C209.01 190.16 208.87 190.5 208.6 190.8C208.33 191.1 207.97 191.25 207.54 191.25H191.25V191.25ZM246.36 210.17L240.6 196.64H220.84L215.08 210.17C214.76 210.76 214.31 211.06 213.72 211.06C213.29 211.06 212.93 210.91 212.64 210.61C212.34 210.32 212.19 209.95 212.19 209.52C212.19 209.44 212.23 209.24 212.31 208.92L229.13 170.19C229.48 169.4 230.03 169 230.78 169C231.56 169 232.13 169.4 232.48 170.19L249.25 208.86C249.32 209.18 249.36 209.38 249.36 209.46C249.36 209.85 249.2 210.22 248.86 210.55C248.53 210.89 248.17 211.06 247.77 211.06C247.15 211.06 246.68 210.76 246.36 210.17V210.17ZM239.31 193.56L230.72 173.51L222.13 193.56H239.31ZM277.36 210.29L264.01 193.32H256.01V209.46C256.01 209.89 255.86 210.27 255.54 210.58C255.23 210.9 254.84 211.06 254.37 211.06C253.94 211.06 253.56 210.9 253.25 210.58C252.94 210.27 252.78 209.89 252.78 209.46V170.96C252.78 170.48 252.95 170.08 253.28 169.74C253.61 169.41 254.02 169.24 254.49 169.24C259.5 169.16 262.23 169.12 262.66 169.12C272.27 169.12 277.07 173.11 277.07 181.1C277.07 183.99 276.15 186.48 274.3 188.58C272.5 190.71 270.17 192.08 267.31 192.67L280.01 208.57C280.24 208.84 280.36 209.16 280.36 209.52C280.36 209.91 280.22 210.27 279.92 210.58C279.63 210.9 279.25 211.06 278.77 211.06C278.23 211.06 277.76 210.8 277.36 210.29V210.29ZM256.01 172.32V190.24H263.13C265.84 190.24 268.29 189.37 270.48 187.63C272.6 185.89 273.66 183.71 273.66 181.1C273.66 175.17 269.93 172.2 262.48 172.2C261.62 172.2 259.47 172.24 256.01 172.32ZM288.07 170.25L315.48 205.07V170.6C315.48 170.17 315.63 169.81 315.92 169.53C316.21 169.26 316.6 169.12 317.07 169.12C318.05 169.12 318.54 169.61 318.54 170.6V209.52C318.54 210.55 318.07 211.06 317.13 211.06C316.5 211.06 315.91 210.7 315.36 209.99L287.78 174.93V209.58C287.78 210.01 287.63 210.37 287.34 210.64C287.04 210.92 286.66 211.06 286.19 211.06C285.8 211.06 285.46 210.91 285.16 210.61C284.87 210.32 284.72 209.97 284.72 209.58V170.6C284.72 170.17 284.87 169.81 285.16 169.53C285.46 169.26 285.82 169.12 286.25 169.12C286.88 169.12 287.48 169.49 288.07 170.25V170.25ZM331.54 170.66V209.46C331.54 209.89 331.38 210.27 331.07 210.58C330.76 210.9 330.38 211.06 329.95 211.06C329.48 211.06 329.09 210.9 328.78 210.58C328.46 210.27 328.3 209.89 328.3 209.46V170.66C328.3 170.23 328.46 169.86 328.78 169.56C329.09 169.27 329.5 169.12 330.01 169.12C330.4 169.12 330.76 169.28 331.07 169.59C331.38 169.91 331.54 170.27 331.54 170.66V170.66ZM344.66 170.25L372.07 205.07V170.6C372.07 170.17 372.21 169.81 372.51 169.53C372.8 169.26 373.18 169.12 373.66 169.12C374.64 169.12 375.13 169.61 375.13 170.6V209.52C375.13 210.55 374.66 211.06 373.71 211.06C373.09 211.06 372.5 210.7 371.95 209.99L344.37 174.93V209.58C344.37 210.01 344.22 210.37 343.93 210.64C343.63 210.92 343.25 211.06 342.78 211.06C342.39 211.06 342.04 210.91 341.75 210.61C341.46 210.32 341.31 209.97 341.31 209.58V170.6C341.31 170.17 341.46 169.81 341.75 169.53C342.04 169.26 342.41 169.12 342.84 169.12C343.47 169.12 344.07 169.49 344.66 170.25V170.25ZM383.54 190C383.54 195.5 385.13 199.91 388.31 203.23C391.4 206.55 395.52 208.21 400.66 208.21C402.97 208.21 405.26 207.82 407.54 207.03C409.81 206.23 411.6 205.19 412.89 203.88V193.74H402.3C401.87 193.74 401.52 193.59 401.24 193.29C400.97 193 400.83 192.61 400.83 192.14C400.83 191.74 400.97 191.39 401.24 191.1C401.52 190.8 401.87 190.65 402.3 190.65H414.24C414.71 190.65 415.11 190.82 415.45 191.16C415.78 191.49 415.95 191.9 415.95 192.37V204.71C415.95 205.34 415.71 205.86 415.24 206.25C413.48 207.8 411.2 209.02 408.42 209.93C405.75 210.84 403.13 211.3 400.54 211.3C394.38 211.3 389.44 209.36 385.72 205.48C381.99 201.61 380.13 196.45 380.13 190C380.13 183.95 381.99 178.87 385.72 174.75C389.44 170.72 394.24 168.7 400.13 168.7C404.75 168.7 408.62 169.73 411.71 171.79C412.18 172.14 412.42 172.58 412.42 173.09C412.42 173.13 412.32 173.39 412.12 173.86C411.81 174.34 411.42 174.58 410.95 174.58C410.75 174.58 410.52 174.5 410.24 174.34C407.73 172.64 404.48 171.79 400.48 171.79C395.46 171.79 391.38 173.49 388.25 176.89C385.11 180.29 383.54 184.66 383.54 190V190ZM181.17 229.75V266.76H201.4C201.83 266.76 202.18 266.91 202.46 267.21C202.73 267.51 202.87 267.89 202.87 268.37C202.87 268.8 202.72 269.16 202.43 269.43C202.14 269.71 201.79 269.85 201.4 269.85H179.64C179.17 269.85 178.77 269.68 178.43 269.35C178.1 269.01 177.93 268.6 177.93 268.13V229.75C177.93 229.31 178.09 228.95 178.4 228.65C178.72 228.35 179.13 228.21 179.64 228.21C180.03 228.21 180.38 228.36 180.7 228.68C181.01 229 181.17 229.35 181.17 229.75ZM234.93 269.26L229.17 255.73H209.4L203.64 269.26C203.33 269.85 202.87 270.15 202.29 270.15C201.86 270.15 201.49 270 201.2 269.7C200.91 269.4 200.76 269.04 200.76 268.6C200.76 268.52 200.8 268.33 200.88 268.01L217.7 229.27C218.05 228.48 218.6 228.09 219.34 228.09C220.13 228.09 220.7 228.48 221.05 229.27L237.81 267.95C237.89 268.27 237.93 268.47 237.93 268.54C237.93 268.94 237.76 269.31 237.43 269.64C237.1 269.98 236.73 270.15 236.34 270.15C235.71 270.15 235.24 269.85 234.93 269.26ZM227.87 252.65L219.28 232.6L210.7 252.65H227.87ZM265.16 238.41C265.16 240.94 264.44 243.05 262.99 244.73C261.54 246.41 259.6 247.56 257.16 248.2C260.22 248.59 262.59 249.65 264.25 251.37C265.92 253.09 266.75 255.38 266.75 258.22C266.75 262.1 265.45 265.03 262.84 267.03C260.23 269.03 256.65 270.03 252.11 270.03C248.66 270.03 245.64 269.97 243.05 269.85C242.58 269.85 242.18 269.67 241.84 269.32C241.51 268.96 241.34 268.54 241.34 268.07V230.1C241.34 229.63 241.51 229.22 241.84 228.89C242.18 228.55 242.58 228.36 243.05 228.32C248.11 228.21 251.15 228.15 252.16 228.15C260.83 228.15 265.16 231.57 265.16 238.41V238.41ZM252.4 250.1H244.58V266.71C248.5 266.86 251.05 266.94 252.23 266.94C255.87 266.94 258.66 266.19 260.61 264.69C262.55 263.19 263.52 260.97 263.52 258.04C263.52 255.51 262.56 253.56 260.63 252.17C258.71 250.79 255.97 250.1 252.4 250.1V250.1ZM244.58 231.41V247.19H252.58C255.28 247.19 257.52 246.45 259.28 244.96C261.05 243.48 261.93 241.51 261.93 239.06C261.93 233.84 258.63 231.23 252.05 231.23C250.36 231.23 247.87 231.29 244.58 231.41V231.41ZM319.92 251.76V229.75C319.92 229.31 320.07 228.95 320.39 228.65C320.7 228.35 321.09 228.21 321.56 228.21C321.99 228.21 322.37 228.35 322.68 228.65C322.99 228.95 323.15 229.31 323.15 229.75V252.47C323.15 258.44 321.68 262.91 318.74 265.88C315.8 268.84 312.08 270.32 307.57 270.32C302.59 270.32 298.57 268.74 295.51 265.58C292.41 262.45 290.86 257.95 290.86 252.05V229.75C290.86 229.31 291.02 228.95 291.34 228.65C291.65 228.35 292.06 228.21 292.57 228.21C292.96 228.21 293.31 228.36 293.63 228.68C293.94 229 294.1 229.35 294.1 229.75V251.46C294.1 256.4 295.3 260.27 297.72 263.06C300.13 265.85 303.41 267.24 307.57 267.24C311.41 267.24 314.43 265.91 316.62 263.26C318.82 260.62 319.92 256.78 319.92 251.76V251.76ZM357.56 233.37C354.94 231.71 351.68 230.88 347.8 230.88C342.86 230.88 338.82 232.58 335.68 235.98C332.55 239.46 330.98 243.83 330.98 249.09C330.98 254.47 332.61 258.86 335.86 262.26C339.08 265.62 343.27 267.3 348.45 267.3C352.17 267.3 355.47 266.29 358.33 264.27C358.64 264.08 358.94 263.98 359.21 263.98C359.6 263.98 359.97 264.17 360.33 264.57C360.52 264.89 360.62 265.16 360.62 265.4C360.62 265.83 360.45 266.21 360.09 266.53C356.84 269.1 352.88 270.38 348.21 270.38C342.1 270.38 337.12 268.45 333.27 264.57C329.47 260.73 327.57 255.57 327.57 249.09C327.57 243 329.41 237.91 333.1 233.84C336.78 229.81 341.66 227.79 347.74 227.79C352.45 227.79 356.23 228.82 359.09 230.88C359.52 231.19 359.74 231.61 359.74 232.12C359.74 232.36 359.66 232.62 359.5 232.89C359.23 233.37 358.82 233.6 358.27 233.6C358.07 233.6 357.84 233.53 357.56 233.37V233.37ZM392.86 251.76V229.75C392.86 229.31 393.01 228.95 393.33 228.65C393.64 228.35 394.03 228.21 394.5 228.21C394.93 228.21 395.31 228.35 395.62 228.65C395.93 228.95 396.09 229.31 396.09 229.75V252.47C396.09 258.44 394.62 262.91 391.68 265.88C388.74 268.84 385.01 270.32 380.51 270.32C375.53 270.32 371.51 268.74 368.45 265.58C365.35 262.45 363.8 257.95 363.8 252.05V229.75C363.8 229.31 363.96 228.95 364.27 228.65C364.59 228.35 365 228.21 365.51 228.21C365.9 228.21 366.25 228.36 366.57 228.68C366.88 229 367.04 229.35 367.04 229.75V251.46C367.04 256.4 368.24 260.27 370.65 263.06C373.07 265.85 376.35 267.24 380.51 267.24C384.35 267.24 387.37 265.91 389.56 263.26C391.76 260.62 392.86 256.78 392.86 251.76V251.76Z" fill="#FEFEFE"/>
</svg>
