<svg width="290" height="290" viewBox="0 0 290 290" fill="none" xmlns="http://www.w3.org/2000/svg">
 <path fill-rule="evenodd" clip-rule="evenodd" d="M122.47 287.93C122.81 259.26 122.48 229.12 122.48 200.15C122.48 197.56 122.16 189.33 122.63 187.42L86.06 187.33L85.99 145.82L122.61 145.79C122.26 144.31 122.48 126.92 122.48 123.91C122.48 116.62 122.27 109.63 123.28 102.52C126.8 77.7 143.06 61.68 168.02 58.76C174.88 57.96 182.25 58.24 189.15 58.76C192.88 59.04 206.03 60.07 208.83 61.14L208.92 96.42C193.94 96.66 179.32 94.14 171.59 104.42C166.18 111.61 167.4 123.89 167.4 134.25C167.4 137.81 167.15 142.36 167.46 145.79H207.18L200.87 187.29L167.4 187.34V287.69C168.85 287.69 173.23 286.84 174.73 286.49L185.12 283.9C186.38 283.55 187.24 283.21 188.44 282.88L194.89 280.68C210.77 274.78 223.02 267.39 235.84 257.18C236.68 256.51 237.38 255.83 238.18 255.19C241.36 252.63 244.17 249.88 247.06 246.99L255.33 237.94C272.47 216.85 283.15 193.99 287.17 166.62L288.1 158.89C288.48 156.27 288.2 153.26 288.58 150.71C289.29 146.02 288.46 141.93 288.49 138.1C288.54 128.99 285.41 114.23 282.81 105.05C280.27 96.06 276.86 88.16 273.01 80.46C270.3 75.04 266.81 69.34 263.37 64.37C262.11 62.54 261.08 61.08 259.76 59.32L254.98 53.28C254.57 52.79 254.37 52.68 253.95 52.14C252.16 49.84 245.33 42.59 243.37 41.08C241.61 39.72 237.36 35.48 234.24 33.14C226.65 27.46 219.31 22.22 210.72 17.93C204.86 15 202.01 13.77 195.89 11.36C179.41 4.85998 158.57 1.25998 140.82 2.21998C139.45 2.29998 137.86 2.09998 136.52 2.25998C134.03 2.53998 131.15 2.71998 128.57 2.95998C123.63 3.42998 118.38 4.42998 113.74 5.44998C104.06 7.57998 96.07 10.39 87.77 13.87C76.27 18.68 61.11 27.97 52.02 36.07C51.51 36.52 51.4 36.69 50.87 37.09L35.89 52.17C35.19 52.99 34.57 53.65 33.87 54.48C30.71 58.22 25.59 65.42 23.11 69.46C21.14 72.67 18.49 77.06 16.8 80.46C15.83 82.4 15 84.26 14.07 86.15C11.84 90.67 8.46001 100.21 7.01001 105.07C-3.26999 139.56 0.36001 175.95 14.48 206.24C15.46 208.35 16.2 210.09 17.28 212.1C17.84 213.13 18.24 213.79 18.8 214.9C19.28 215.86 19.83 216.77 20.37 217.66C21.48 219.49 22.47 221.29 23.64 223.05C24.84 224.83 25.9 226.47 27.11 228.24C29.64 231.97 31.9 234.6 34.62 238.05C35.01 238.54 35.15 238.62 35.53 239.06C35.99 239.57 36.01 239.73 36.5 240.26L40.6 244.81C42.54 247.14 45.08 249.09 47.21 251.19L51.77 255.28C53.25 256.66 54.8 257.85 56.37 259.11C58.03 260.43 59.58 261.5 61.35 262.78L71.81 269.64C77.18 272.72 80.48 274.33 85.9 276.95C92.2 280 101.59 283.01 108.3 284.86L122.47 287.93V287.93Z" fill="#2B2B2B"/>
</svg>
