<svg width="554" height="380" viewBox="0 0 554 380" fill="none" xmlns="http://www.w3.org/2000/svg">
 <path fill-rule="evenodd" clip-rule="evenodd" d="M5.31998 15.98C7.73998 15.98 9.70998 17.94 9.70998 20.37C9.70998 22.8 7.73998 24.76 5.31998 24.76C2.88998 24.76 0.919983 22.8 0.919983 20.37C0.919983 17.94 2.88998 15.98 5.31998 15.98Z" fill="#69737C"/>
 <path fill-rule="evenodd" clip-rule="evenodd" d="M5.31998 62.08C7.73998 62.08 9.70998 64.04 9.70998 66.47C9.70998 68.9 7.73998 70.86 5.31998 70.86C2.88998 70.86 0.919983 68.9 0.919983 66.47C0.919983 64.04 2.88998 62.08 5.31998 62.08Z" fill="#69737C"/>
 <path fill-rule="evenodd" clip-rule="evenodd" d="M5.31998 108.17C7.73998 108.17 9.70998 110.14 9.70998 112.57C9.70998 114.99 7.73998 116.96 5.31998 116.96C2.88998 116.96 0.919983 114.99 0.919983 112.57C0.919983 110.14 2.88998 108.17 5.31998 108.17Z" fill="#69737C"/>
 <path fill-rule="evenodd" clip-rule="evenodd" d="M5.31998 154.27C7.73998 154.27 9.70998 156.24 9.70998 158.67C9.70998 161.09 7.73998 163.06 5.31998 163.06C2.88998 163.06 0.919983 161.09 0.919983 158.67C0.919983 156.24 2.88998 154.27 5.31998 154.27Z" fill="#69737C"/>
 <path fill-rule="evenodd" clip-rule="evenodd" d="M5.31998 200.37C7.73998 200.37 9.70998 202.34 9.70998 204.76C9.70998 207.19 7.73998 209.16 5.31998 209.16C2.88998 209.16 0.919983 207.19 0.919983 204.76C0.919983 202.34 2.88998 200.37 5.31998 200.37Z" fill="#69737C"/>
 <path fill-rule="evenodd" clip-rule="evenodd" d="M5.31998 246.47C7.73998 246.47 9.70998 248.44 9.70998 250.86C9.70998 253.29 7.73998 255.26 5.31998 255.26C2.88998 255.26 0.919983 253.29 0.919983 250.86C0.919983 248.44 2.88998 246.47 5.31998 246.47Z" fill="#69737C"/>
 <path fill-rule="evenodd" clip-rule="evenodd" d="M51.7 15.98C54.13 15.98 56.09 17.94 56.09 20.37C56.09 22.8 54.13 24.76 51.7 24.76C49.27 24.76 47.31 22.8 47.31 20.37C47.31 17.94 49.27 15.98 51.7 15.98Z" fill="#69737C"/>
 <path fill-rule="evenodd" clip-rule="evenodd" d="M5.31998 15.98C7.73998 15.98 9.70998 17.94 9.70998 20.37C9.70998 22.8 7.73998 24.76 5.31998 24.76C2.88998 24.76 0.919983 22.8 0.919983 20.37C0.919983 17.94 2.88998 15.98 5.31998 15.98Z" fill="#69737C"/>
 <path fill-rule="evenodd" clip-rule="evenodd" d="M5.31998 62.08C7.73998 62.08 9.70998 64.04 9.70998 66.47C9.70998 68.9 7.73998 70.86 5.31998 70.86C2.88998 70.86 0.919983 68.9 0.919983 66.47C0.919983 64.04 2.88998 62.08 5.31998 62.08Z" fill="#69737C"/>
 <path fill-rule="evenodd" clip-rule="evenodd" d="M5.31998 108.17C7.73998 108.17 9.70998 110.14 9.70998 112.57C9.70998 114.99 7.73998 116.96 5.31998 116.96C2.88998 116.96 0.919983 114.99 0.919983 112.57C0.919983 110.14 2.88998 108.17 5.31998 108.17Z" fill="#69737C"/>
 <path fill-rule="evenodd" clip-rule="evenodd" d="M5.31998 154.27C7.73998 154.27 9.70998 156.24 9.70998 158.67C9.70998 161.09 7.73998 163.06 5.31998 163.06C2.88998 163.06 0.919983 161.09 0.919983 158.67C0.919983 156.24 2.88998 154.27 5.31998 154.27Z" fill="#69737C"/>
 <path fill-rule="evenodd" clip-rule="evenodd" d="M5.31998 200.37C7.73998 200.37 9.70998 202.34 9.70998 204.76C9.70998 207.19 7.73998 209.16 5.31998 209.16C2.88998 209.16 0.919983 207.19 0.919983 204.76C0.919983 202.34 2.88998 200.37 5.31998 200.37Z" fill="#69737C"/>
 <path fill-rule="evenodd" clip-rule="evenodd" d="M5.31998 246.47C7.73998 246.47 9.70998 248.44 9.70998 250.86C9.70998 253.29 7.73998 255.26 5.31998 255.26C2.88998 255.26 0.919983 253.29 0.919983 250.86C0.919983 248.44 2.88998 246.47 5.31998 246.47Z" fill="#69737C"/>
 <path fill-rule="evenodd" clip-rule="evenodd" d="M51.7 15.98C54.13 15.98 56.09 17.94 56.09 20.37C56.09 22.8 54.13 24.76 51.7 24.76C49.27 24.76 47.31 22.8 47.31 20.37C47.31 17.94 49.27 15.98 51.7 15.98Z" fill="#69737C"/>
 <path d="M120.16 0.339996H450.04C478.37 0.339996 504.14 11.93 522.81 30.61C541.49 49.28 553.08 75.05 553.08 103.39V276.61C553.08 304.95 541.49 330.72 522.81 349.39C504.14 368.07 478.37 379.66 450.04 379.66H120.16C91.82 379.66 66.06 368.07 47.39 349.39C28.71 330.72 17.12 304.95 17.12 276.61V103.39C17.12 75.05 28.71 49.28 47.39 30.61C66.06 11.93 91.82 0.339996 120.16 0.339996V0.339996ZM450.04 2.7H120.16C92.47 2.7 67.3 14.03 49.06 32.28C30.81 50.53 19.48 75.7 19.48 103.39V276.61C19.48 304.3 30.81 329.47 49.06 347.72C67.3 365.97 92.47 377.3 120.16 377.3H450.04C477.72 377.3 502.9 365.97 521.14 347.72C539.39 329.47 550.72 304.3 550.72 276.61V103.39C550.72 75.7 539.39 50.53 521.14 32.28C502.9 14.03 477.72 2.7 450.04 2.7V2.7Z" fill="#95C33F"/>
 <path fill-rule="evenodd" clip-rule="evenodd" d="M450.04 2.69998H120.16C92.47 2.69998 67.3 14.03 49.06 32.28C30.81 50.53 19.48 75.7 19.48 103.39V276.61C19.48 304.3 30.81 329.47 49.06 347.72C67.3 365.97 92.47 377.3 120.16 377.3H450.04C477.72 377.3 502.9 365.97 521.14 347.72C539.39 329.47 550.72 304.3 550.72 276.61V103.39C550.72 75.7 539.39 50.53 521.14 32.28C502.9 14.03 477.72 2.69998 450.04 2.69998V2.69998Z" fill="#FEFEFE"/>
 <path d="M84.29 188.34L85.7 186.84C86 186.52 86.36 186.37 86.76 186.37C87.15 186.37 87.55 186.52 87.94 186.84C89.87 188.44 91.67 189.24 93.33 189.24C94.64 189.24 95.68 188.92 96.48 188.29C97.27 187.67 97.66 186.81 97.66 185.73C97.66 184.67 97.2 183.75 96.28 182.96C95.36 182.18 94.24 181.5 92.91 180.93C91.58 180.36 90.26 179.73 88.94 179.05C87.63 178.36 86.51 177.38 85.59 176.11C84.67 174.84 84.21 173.31 84.21 171.51C84.21 169.17 85.06 167.2 86.76 165.6C88.4 164.03 90.63 163.25 93.46 163.25C96.04 163.25 98.4 163.86 100.55 165.09C101.06 165.37 101.31 165.83 101.31 166.46C101.31 166.72 101.24 166.96 101.1 167.19L100.3 168.6C99.96 169.17 99.49 169.46 98.9 169.46C98.58 169.46 98.33 169.4 98.13 169.28C96.6 168.54 95.19 168.17 93.89 168.17C92.61 168.17 91.6 168.47 90.85 169.07C90.1 169.67 89.73 170.47 89.73 171.47C89.73 172.44 90.06 173.28 90.72 173.99C91.39 174.71 92.22 175.27 93.21 175.68C94.2 176.1 95.28 176.59 96.46 177.16C97.63 177.73 98.71 178.33 99.7 178.94C100.69 179.55 101.52 180.44 102.18 181.59C102.85 182.75 103.18 184.11 103.18 185.68C103.18 188.17 102.23 190.19 100.34 191.76C98.41 193.36 96.05 194.16 93.25 194.16C89.97 194.16 87.04 192.95 84.46 190.52C84.09 190.23 83.91 189.82 83.91 189.28C83.91 188.91 84.04 188.59 84.29 188.34ZM127.73 169.63C125.89 168.66 124.14 168.17 122.47 168.17C119.67 168.17 117.36 169.13 115.55 171.04C113.71 172.98 112.79 175.53 112.79 178.7C112.79 181.81 113.75 184.34 115.68 186.28C117.57 188.25 120.03 189.24 123.06 189.24C124.79 189.24 126.57 188.74 128.41 187.74C128.75 187.57 129.08 187.48 129.39 187.48C129.98 187.48 130.43 187.72 130.75 188.21L131.51 189.41C131.71 189.69 131.81 190.02 131.81 190.39C131.81 190.93 131.61 191.33 131.21 191.59C128.64 193.3 125.77 194.16 122.6 194.16C118.07 194.16 114.38 192.75 111.52 189.92C108.69 187.1 107.27 183.36 107.27 178.7C107.27 174.25 108.62 170.55 111.31 167.61C113.96 164.7 117.69 163.25 122.47 163.25C125.07 163.25 127.66 163.96 130.24 165.39C130.8 165.7 131.09 166.12 131.09 166.63C131.09 166.92 131 167.2 130.83 167.49L129.94 169.07C129.6 169.61 129.18 169.88 128.67 169.88C128.35 169.88 128.04 169.8 127.73 169.63ZM143.2 165.3V192.1C143.2 192.53 143.04 192.9 142.73 193.22C142.42 193.53 142.05 193.69 141.63 193.69H139.55C139.12 193.69 138.76 193.53 138.44 193.22C138.13 192.9 137.98 192.53 137.98 192.1V165.3C137.98 164.87 138.13 164.5 138.44 164.19C138.76 163.88 139.12 163.72 139.55 163.72H141.63C142.05 163.72 142.42 163.88 142.73 164.19C143.04 164.5 143.2 164.87 143.2 165.3ZM169.95 190.35V192.1C169.95 192.53 169.8 192.9 169.49 193.22C169.18 193.53 168.81 193.69 168.38 193.69H153.91C153.49 193.69 153.12 193.53 152.81 193.22C152.49 192.9 152.34 192.53 152.34 192.1V165.3C152.34 164.87 152.49 164.5 152.81 164.19C153.12 163.88 153.49 163.72 153.91 163.72H167.96C168.38 163.72 168.75 163.88 169.06 164.19C169.38 164.5 169.53 164.87 169.53 165.3V167.06C169.53 167.49 169.38 167.86 169.06 168.17C168.75 168.48 168.38 168.64 167.96 168.64H157.56V176.09H166.69C167.11 176.09 167.48 176.25 167.79 176.56C168.1 176.88 168.26 177.25 168.26 177.68V179.43C168.26 179.86 168.1 180.23 167.79 180.54C167.48 180.86 167.11 181.02 166.69 181.02H157.56V188.76H168.38C168.81 188.76 169.18 188.92 169.49 189.24C169.8 189.55 169.95 189.92 169.95 190.35ZM199.09 163.72H200.83C201.25 163.72 201.62 163.88 201.93 164.19C202.24 164.5 202.4 164.87 202.4 165.3V192.1C202.4 192.53 202.24 192.9 201.93 193.22C201.62 193.53 201.25 193.69 200.83 193.69H199.34C198.64 193.69 198 193.35 197.43 192.66L181.9 172.92V192.1C181.9 192.53 181.74 192.9 181.43 193.22C181.12 193.53 180.75 193.69 180.33 193.69H178.59C178.16 193.69 177.8 193.53 177.48 193.22C177.17 192.9 177.02 192.53 177.02 192.1V165.3C177.02 164.87 177.17 164.5 177.48 164.19C177.8 163.88 178.16 163.72 178.59 163.72H180.07C180.78 163.72 181.42 164.06 181.98 164.75L197.52 184.57V165.3C197.52 164.87 197.67 164.5 197.99 164.19C198.3 163.88 198.66 163.72 199.09 163.72ZM229.16 169.63C227.32 168.66 225.56 168.17 223.89 168.17C221.09 168.17 218.78 169.13 216.98 171.04C215.13 172.98 214.22 175.53 214.22 178.7C214.22 181.81 215.18 184.34 217.1 186.28C219 188.25 221.46 189.24 224.49 189.24C226.21 189.24 228 188.74 229.83 187.74C230.18 187.57 230.5 187.48 230.81 187.48C231.41 187.48 231.86 187.72 232.17 188.21L232.93 189.41C233.13 189.69 233.23 190.02 233.23 190.39C233.23 190.93 233.03 191.33 232.64 191.59C230.06 193.3 227.19 194.16 224.02 194.16C219.49 194.16 215.8 192.75 212.94 189.92C210.11 187.1 208.7 183.36 208.7 178.7C208.7 174.25 210.04 170.55 212.73 167.61C215.39 164.7 219.11 163.25 223.89 163.25C226.5 163.25 229.09 163.96 231.66 165.39C232.23 165.7 232.51 166.12 232.51 166.63C232.51 166.92 232.42 167.2 232.25 167.49L231.36 169.07C231.02 169.61 230.6 169.88 230.09 169.88C229.78 169.88 229.47 169.8 229.16 169.63ZM256.38 190.35V192.1C256.38 192.53 256.23 192.9 255.91 193.22C255.6 193.53 255.23 193.69 254.81 193.69H240.34C239.91 193.69 239.54 193.53 239.23 193.22C238.92 192.9 238.77 192.53 238.77 192.1V165.3C238.77 164.87 238.92 164.5 239.23 164.19C239.54 163.88 239.91 163.72 240.34 163.72H254.39C254.81 163.72 255.18 163.88 255.49 164.19C255.8 164.5 255.96 164.87 255.96 165.3V167.06C255.96 167.49 255.8 167.86 255.49 168.17C255.18 168.48 254.81 168.64 254.39 168.64H243.99V176.09H253.11C253.54 176.09 253.9 176.25 254.22 176.56C254.53 176.88 254.68 177.25 254.68 177.68V179.43C254.68 179.86 254.53 180.23 254.22 180.54C253.9 180.86 253.54 181.02 253.11 181.02H243.99V188.76H254.81C255.23 188.76 255.6 188.92 255.91 189.24C256.23 189.55 256.38 189.92 256.38 190.35ZM261.62 188.34L263.02 186.84C263.33 186.52 263.68 186.37 264.08 186.37C264.48 186.37 264.87 186.52 265.27 186.84C267.19 188.44 268.99 189.24 270.66 189.24C271.96 189.24 273.01 188.92 273.8 188.29C274.59 187.67 274.99 186.81 274.99 185.73C274.99 184.67 274.53 183.75 273.61 182.96C272.69 182.18 271.56 181.5 270.23 180.93C268.9 180.36 267.58 179.73 266.27 179.05C264.95 178.36 263.83 177.38 262.91 176.11C261.99 174.84 261.53 173.31 261.53 171.51C261.53 169.17 262.38 167.2 264.08 165.6C265.72 164.03 267.96 163.25 270.79 163.25C273.36 163.25 275.72 163.86 277.87 165.09C278.38 165.37 278.64 165.83 278.64 166.46C278.64 166.72 278.57 166.96 278.43 167.19L277.62 168.6C277.28 169.17 276.81 169.46 276.22 169.46C275.91 169.46 275.65 169.4 275.46 169.28C273.93 168.54 272.51 168.17 271.21 168.17C269.94 168.17 268.92 168.47 268.18 169.07C267.43 169.67 267.05 170.47 267.05 171.47C267.05 172.44 267.38 173.28 268.05 173.99C268.71 174.71 269.54 175.27 270.53 175.68C271.52 176.1 272.6 176.59 273.78 177.16C274.95 177.73 276.04 178.33 277.03 178.94C278.02 179.55 278.84 180.44 279.51 181.59C280.17 182.75 280.51 184.11 280.51 185.68C280.51 188.17 279.56 190.19 277.66 191.76C275.74 193.36 273.37 194.16 270.57 194.16C267.29 194.16 264.36 192.95 261.79 190.52C261.42 190.23 261.23 189.82 261.23 189.28C261.23 188.91 261.36 188.59 261.62 188.34Z" fill="#72348A"/>
 <path d="M105.81 153.79L103.18 147.32H90.49L87.86 153.79C87.58 154.59 87 154.99 86.12 154.99H84.59C84.11 154.99 83.71 154.82 83.4 154.49C83.09 154.17 82.93 153.77 82.93 153.32C82.93 153.12 82.98 152.92 83.06 152.72L94.18 126.13C94.52 125.33 95.12 124.93 95.97 124.93H98C98.85 124.93 99.45 125.33 99.79 126.13L110.91 152.72C110.99 152.92 111.03 153.12 111.03 153.32C111.03 153.77 110.88 154.17 110.57 154.49C110.26 154.82 109.86 154.99 109.38 154.99H107.55C106.68 154.99 106.1 154.59 105.81 153.79V153.79ZM101.19 142.4L96.86 131.74L92.49 142.4H101.19ZM128.58 124.93C130.68 124.93 132.5 125.19 134.04 125.72C135.58 126.25 136.77 126.98 137.62 127.91C138.47 128.83 139.09 129.85 139.49 130.95C139.89 132.05 140.09 133.25 140.09 134.56C140.09 137.28 139.12 139.57 137.2 141.46C135.3 143.34 132.64 144.28 129.22 144.28C127.49 144.28 126.21 144.24 125.36 144.15V153.4C125.36 153.83 125.2 154.2 124.89 154.51C124.58 154.83 124.21 154.99 123.79 154.99H121.71C121.28 154.99 120.91 154.83 120.6 154.51C120.29 154.2 120.13 153.83 120.13 153.4V126.6C120.13 126.17 120.28 125.8 120.58 125.49C120.88 125.17 121.25 125.02 121.71 125.02C125.5 124.96 127.79 124.93 128.58 124.93V124.93ZM125.36 129.94V139.14C126.86 139.29 128.09 139.36 129.05 139.36C130.72 139.36 132.06 138.95 133.06 138.12C134.06 137.29 134.57 136.09 134.57 134.52C134.57 131.41 132.74 129.85 129.09 129.85L125.36 129.94ZM158.61 124.93C160.7 124.93 162.52 125.19 164.06 125.72C165.61 126.25 166.8 126.98 167.65 127.91C168.5 128.83 169.12 129.85 169.52 130.95C169.91 132.05 170.11 133.25 170.11 134.56C170.11 137.28 169.15 139.57 167.22 141.46C165.33 143.34 162.67 144.28 159.24 144.28C157.52 144.28 156.23 144.24 155.38 144.15V153.4C155.38 153.83 155.23 154.2 154.92 154.51C154.6 154.83 154.24 154.99 153.81 154.99H151.73C151.31 154.99 150.94 154.83 150.63 154.51C150.32 154.2 150.16 153.83 150.16 153.4V126.6C150.16 126.17 150.31 125.8 150.61 125.49C150.91 125.17 151.28 125.02 151.73 125.02C155.52 124.96 157.82 124.93 158.61 124.93V124.93ZM155.38 129.94V139.14C156.88 139.29 158.11 139.36 159.07 139.36C160.74 139.36 162.08 138.95 163.09 138.12C164.09 137.29 164.59 136.09 164.59 134.52C164.59 131.41 162.77 129.85 159.12 129.85L155.38 129.94ZM198.78 151.65V153.4C198.78 153.83 198.62 154.2 198.31 154.51C198 154.83 197.63 154.99 197.21 154.99H181.76C181.33 154.99 180.97 154.83 180.65 154.51C180.34 154.2 180.19 153.83 180.19 153.4V126.6C180.19 126.17 180.34 125.8 180.65 125.49C180.97 125.17 181.33 125.02 181.76 125.02H183.84C184.26 125.02 184.63 125.17 184.94 125.49C185.25 125.8 185.41 126.17 185.41 126.6V150.06H197.21C197.63 150.06 198 150.22 198.31 150.53C198.62 150.85 198.78 151.22 198.78 151.65V151.65ZM213.31 126.6V153.4C213.31 153.83 213.16 154.2 212.85 154.51C212.53 154.83 212.17 154.99 211.74 154.99H209.66C209.24 154.99 208.87 154.83 208.56 154.51C208.25 154.2 208.09 153.83 208.09 153.4V126.6C208.09 126.17 208.25 125.8 208.56 125.49C208.87 125.17 209.24 125.02 209.66 125.02H211.74C212.17 125.02 212.53 125.17 212.85 125.49C213.16 125.8 213.31 126.17 213.31 126.6ZM243.85 151.65V153.4C243.85 153.83 243.69 154.2 243.38 154.51C243.07 154.83 242.7 154.99 242.28 154.99H227.8C227.38 154.99 227.01 154.83 226.7 154.51C226.39 154.2 226.23 153.83 226.23 153.4V126.6C226.23 126.17 226.39 125.8 226.7 125.49C227.01 125.17 227.38 125.02 227.8 125.02H241.85C242.28 125.02 242.65 125.17 242.96 125.49C243.27 125.8 243.42 126.17 243.42 126.6V128.36C243.42 128.78 243.27 129.16 242.96 129.47C242.65 129.78 242.28 129.94 241.85 129.94H231.45V137.39H240.58C241 137.39 241.37 137.55 241.68 137.86C241.99 138.17 242.15 138.54 242.15 138.97V140.73C242.15 141.16 241.99 141.53 241.68 141.84C241.37 142.16 241 142.31 240.58 142.31H231.45V150.06H242.28C242.7 150.06 243.07 150.22 243.38 150.53C243.69 150.85 243.85 151.22 243.85 151.65V151.65ZM256.26 125.02C260.93 124.93 263.32 124.89 263.43 124.89C266.32 124.89 268.85 125.28 271.03 126.07C273.21 126.85 274.95 127.94 276.25 129.34C277.55 130.74 278.52 132.3 279.16 134.03C279.79 135.76 280.11 137.65 280.11 139.7C280.11 144.15 278.64 147.82 275.7 150.7C272.73 153.62 268.53 155.07 263.09 155.07C262.84 155.07 262.42 155.06 261.84 155.05C261.26 155.04 260.43 155.02 259.36 155.01C258.28 154.99 257.25 154.99 256.26 154.99C255.83 154.99 255.47 154.83 255.16 154.51C254.84 154.2 254.69 153.83 254.69 153.4V126.6C254.69 126.17 254.84 125.8 255.13 125.49C255.43 125.17 255.81 125.02 256.26 125.02V125.02ZM259.91 129.94V150.06C261.21 150.12 262.33 150.15 263.26 150.15C266.8 150.15 269.57 149.21 271.58 147.32C273.59 145.44 274.6 142.9 274.6 139.7C274.6 136.65 273.6 134.24 271.6 132.47C269.61 130.7 266.86 129.81 263.35 129.81C262.24 129.81 261.1 129.85 259.91 129.94Z" fill="#72348A"/>
 <path d="M100.25 222.55H91.34V232.61C91.34 233.03 91.18 233.41 90.87 233.72C90.56 234.03 90.19 234.19 89.77 234.19H87.69C87.26 234.19 86.9 234.03 86.59 233.72C86.27 233.41 86.12 233.03 86.12 232.61V205.81C86.12 205.38 86.27 205.01 86.59 204.69C86.9 204.38 87.26 204.22 87.69 204.22H101.53C101.95 204.22 102.32 204.38 102.63 204.69C102.94 205.01 103.1 205.38 103.1 205.81V207.56C103.1 207.99 102.94 208.36 102.63 208.67C102.32 208.99 101.95 209.14 101.53 209.14H91.34V217.62H100.25C100.68 217.62 101.05 217.78 101.36 218.09C101.67 218.41 101.82 218.78 101.82 219.21V220.96C101.82 221.39 101.67 221.76 101.36 222.08C101.05 222.39 100.68 222.55 100.25 222.55V222.55ZM130.37 232.99L127.74 226.53H115.04L112.41 232.99C112.13 233.79 111.55 234.19 110.67 234.19H109.14C108.66 234.19 108.27 234.03 107.96 233.7C107.64 233.37 107.49 232.98 107.49 232.52C107.49 232.32 107.53 232.12 107.62 231.92L118.74 205.33C119.08 204.54 119.67 204.14 120.52 204.14H122.56C123.41 204.14 124 204.54 124.34 205.33L135.46 231.92C135.54 232.12 135.59 232.32 135.59 232.52C135.59 232.98 135.43 233.37 135.12 233.7C134.81 234.03 134.41 234.19 133.93 234.19H132.11C131.23 234.19 130.65 233.79 130.37 232.99ZM125.74 221.6L121.41 210.94L117.04 221.6H125.74ZM161.2 210.13C159.36 209.16 157.61 208.67 155.94 208.67C153.14 208.67 150.83 209.63 149.02 211.54C147.18 213.48 146.26 216.04 146.26 219.21C146.26 222.32 147.22 224.84 149.15 226.78C151.04 228.75 153.5 229.74 156.53 229.74C158.26 229.74 160.04 229.24 161.88 228.24C162.22 228.07 162.55 227.98 162.86 227.98C163.45 227.98 163.9 228.23 164.22 228.71L164.98 229.91C165.18 230.2 165.28 230.52 165.28 230.89C165.28 231.44 165.08 231.84 164.68 232.09C162.11 233.81 159.24 234.66 156.07 234.66C151.54 234.66 147.84 233.25 144.99 230.42C142.16 227.6 140.74 223.86 140.74 219.21C140.74 214.75 142.09 211.06 144.78 208.12C147.43 205.21 151.16 203.75 155.94 203.75C158.54 203.75 161.13 204.46 163.71 205.89C164.27 206.2 164.56 206.62 164.56 207.13C164.56 207.42 164.47 207.7 164.3 207.99L163.41 209.57C163.07 210.12 162.65 210.39 162.14 210.39C161.82 210.39 161.51 210.3 161.2 210.13V210.13ZM192.72 220.7V205.81C192.72 205.38 192.87 205.01 193.18 204.69C193.49 204.38 193.86 204.22 194.29 204.22H196.32C196.75 204.22 197.12 204.38 197.43 204.69C197.74 205.01 197.89 205.38 197.89 205.81V221.78C197.89 226.08 196.78 229.31 194.54 231.45C192.28 233.59 189.46 234.66 186.09 234.66C182.3 234.66 179.25 233.52 176.92 231.24C174.6 228.98 173.45 225.73 173.45 221.48V205.81C173.45 205.38 173.6 205.01 173.91 204.69C174.22 204.38 174.59 204.22 175.02 204.22H177.09C177.52 204.22 177.89 204.38 178.2 204.69C178.51 205.01 178.66 205.38 178.66 205.81V220.36C178.66 223.33 179.3 225.63 180.55 227.28C181.81 228.92 183.66 229.74 186.09 229.74C190.51 229.74 192.72 226.73 192.72 220.7V220.7ZM227.63 230.85V232.61C227.63 233.03 227.47 233.41 227.16 233.72C226.85 234.03 226.48 234.19 226.05 234.19H210.6C210.18 234.19 209.81 234.03 209.5 233.72C209.19 233.41 209.03 233.03 209.03 232.61V205.81C209.03 205.38 209.19 205.01 209.5 204.69C209.81 204.38 210.18 204.22 210.6 204.22H212.68C213.11 204.22 213.48 204.38 213.79 204.69C214.1 205.01 214.25 205.38 214.25 205.81V229.27H226.05C226.48 229.27 226.85 229.42 227.16 229.74C227.47 230.05 227.63 230.42 227.63 230.85V230.85ZM240.72 234.19H238.64C238.21 234.19 237.85 234.03 237.53 233.72C237.22 233.41 237.07 233.03 237.07 232.61V209.14H229C228.58 209.14 228.21 208.99 227.9 208.67C227.59 208.36 227.43 207.99 227.43 207.56V205.81C227.43 205.38 227.59 205.01 227.9 204.69C228.21 204.38 228.58 204.22 229 204.22H250.35C250.78 204.22 251.14 204.38 251.46 204.69C251.77 205.01 251.92 205.38 251.92 205.81V207.56C251.92 207.99 251.77 208.36 251.46 208.67C251.14 208.99 250.78 209.14 250.35 209.14H242.29V232.61C242.29 233.03 242.13 233.41 241.82 233.72C241.51 234.03 241.14 234.19 240.72 234.19V234.19ZM262.26 205.33L268.96 216.77L275.63 205.33C276.05 204.59 276.69 204.22 277.54 204.22H279.06C279.49 204.22 279.86 204.39 280.17 204.71C280.48 205.04 280.63 205.42 280.63 205.85C280.63 206.16 280.56 206.43 280.42 206.66L271.34 221.69V232.61C271.34 233.03 271.18 233.41 270.87 233.72C270.56 234.03 270.19 234.19 269.77 234.19H267.69C267.26 234.19 266.9 234.03 266.59 233.72C266.27 233.41 266.12 233.03 266.12 232.61V221.69L257.12 206.66C256.95 206.4 256.86 206.12 256.86 205.81C256.86 205.38 257.02 205.01 257.33 204.69C257.64 204.38 258.03 204.22 258.48 204.22H260.3C261.12 204.22 261.77 204.59 262.26 205.33V205.33Z" fill="#72348A"/>
 <path fill-rule="evenodd" clip-rule="evenodd" d="M300.31 214.31C305.61 214.31 309.91 218.6 309.91 223.91C309.91 229.21 305.61 233.51 300.31 233.51C295.01 233.51 290.71 229.21 290.71 223.91C290.71 218.6 295.01 214.31 300.31 214.31Z" fill="#95C33F"/>
 <path d="M330.44 123.37C347.33 123.06 355.99 122.91 356.4 122.91C366.84 122.91 376.01 124.33 383.89 127.17C391.78 130.01 398.07 133.96 402.78 139.02C407.49 144.08 411 149.74 413.31 155.99C415.61 162.24 416.76 169.08 416.76 176.52C416.76 192.63 411.44 205.9 400.79 216.33C390.04 226.87 374.83 232.14 355.17 232.14C354.25 232.14 352.73 232.11 350.63 232.06C348.54 232.01 345.54 231.95 341.65 231.9C337.76 231.85 334.02 231.83 330.44 231.83C328.9 231.83 327.57 231.26 326.44 230.12C325.32 228.99 324.75 227.64 324.75 226.09V129.11C324.75 127.56 325.29 126.21 326.37 125.08C327.44 123.94 328.8 123.37 330.44 123.37V123.37ZM343.65 141.19V214.01C348.36 214.22 352.4 214.32 355.78 214.32C368.58 214.32 378.62 210.91 385.89 204.09C393.16 197.28 396.79 188.08 396.79 176.52C396.79 165.46 393.18 156.74 385.96 150.33C378.74 143.93 368.79 140.73 356.09 140.73C352.09 140.73 347.95 140.88 343.65 141.19V141.19ZM487.34 219.74V226.09C487.34 227.64 486.78 228.99 485.65 230.12C484.52 231.26 483.19 231.83 481.66 231.83H429.28C427.74 231.83 426.41 231.26 425.28 230.12C424.16 228.99 423.59 227.64 423.59 226.09V129.11C423.59 127.56 424.16 126.21 425.28 125.08C426.41 123.94 427.74 123.37 429.28 123.37H480.12C481.66 123.37 482.99 123.94 484.11 125.08C485.24 126.21 485.8 127.56 485.8 129.11V135.46C485.8 137.01 485.24 138.35 484.11 139.49C482.99 140.62 481.66 141.19 480.12 141.19H442.49V168.15H475.51C477.05 168.15 478.38 168.72 479.51 169.85C480.63 170.99 481.2 172.33 481.2 173.88V180.23C481.2 181.78 480.63 183.13 479.51 184.26C478.38 185.4 477.05 185.97 475.51 185.97H442.49V214.01H481.66C483.19 214.01 484.52 214.58 485.65 215.71C486.78 216.85 487.34 218.19 487.34 219.74V219.74Z" fill="#95C33F"/>
</svg>
