<svg width="560" height="380" viewBox="0 0 560 380" fill="none" xmlns="http://www.w3.org/2000/svg">
 <path d="M8.31999 24.76C10.7445 24.76 12.71 22.7946 12.71 20.37C12.71 17.9455 10.7445 15.98 8.31999 15.98C5.89546 15.98 3.92999 17.9455 3.92999 20.37C3.92999 22.7946 5.89546 24.76 8.31999 24.76Z" fill="#69737C"/>
 <path d="M8.31999 70.86C10.7445 70.86 12.71 68.8945 12.71 66.47C12.71 64.0455 10.7445 62.08 8.31999 62.08C5.89546 62.08 3.92999 64.0455 3.92999 66.47C3.92999 68.8945 5.89546 70.86 8.31999 70.86Z" fill="#69737C"/>
 <path d="M8.31999 116.96C10.7445 116.96 12.71 114.995 12.71 112.57C12.71 110.146 10.7445 108.18 8.31999 108.18C5.89546 108.18 3.92999 110.146 3.92999 112.57C3.92999 114.995 5.89546 116.96 8.31999 116.96Z" fill="#69737C"/>
 <path d="M8.31999 163.06C10.7445 163.06 12.71 161.095 12.71 158.67C12.71 156.245 10.7445 154.28 8.31999 154.28C5.89546 154.28 3.92999 156.245 3.92999 158.67C3.92999 161.095 5.89546 163.06 8.31999 163.06Z" fill="#69737C"/>
 <path d="M8.31999 209.15C10.7445 209.15 12.71 207.185 12.71 204.76C12.71 202.336 10.7445 200.37 8.31999 200.37C5.89546 200.37 3.92999 202.336 3.92999 204.76C3.92999 207.185 5.89546 209.15 8.31999 209.15Z" fill="#69737C"/>
 <path d="M8.31999 255.25C10.7445 255.25 12.71 253.285 12.71 250.86C12.71 248.436 10.7445 246.47 8.31999 246.47C5.89546 246.47 3.92999 248.436 3.92999 250.86C3.92999 253.285 5.89546 255.25 8.31999 255.25Z" fill="#69737C"/>
 <path d="M54.7 24.76C57.1245 24.76 59.09 22.7946 59.09 20.37C59.09 17.9455 57.1245 15.98 54.7 15.98C52.2755 15.98 50.31 17.9455 50.31 20.37C50.31 22.7946 52.2755 24.76 54.7 24.76Z" fill="#69737C"/>
 <path d="M8.31999 24.76C10.7445 24.76 12.71 22.7946 12.71 20.37C12.71 17.9455 10.7445 15.98 8.31999 15.98C5.89546 15.98 3.92999 17.9455 3.92999 20.37C3.92999 22.7946 5.89546 24.76 8.31999 24.76Z" fill="#69737C"/>
 <path d="M8.31999 70.86C10.7445 70.86 12.71 68.8945 12.71 66.47C12.71 64.0455 10.7445 62.08 8.31999 62.08C5.89546 62.08 3.92999 64.0455 3.92999 66.47C3.92999 68.8945 5.89546 70.86 8.31999 70.86Z" fill="#69737C"/>
 <path d="M8.31999 116.96C10.7445 116.96 12.71 114.995 12.71 112.57C12.71 110.146 10.7445 108.18 8.31999 108.18C5.89546 108.18 3.92999 110.146 3.92999 112.57C3.92999 114.995 5.89546 116.96 8.31999 116.96Z" fill="#69737C"/>
 <path d="M8.31999 163.06C10.7445 163.06 12.71 161.095 12.71 158.67C12.71 156.245 10.7445 154.28 8.31999 154.28C5.89546 154.28 3.92999 156.245 3.92999 158.67C3.92999 161.095 5.89546 163.06 8.31999 163.06Z" fill="#69737C"/>
 <path d="M8.31999 209.15C10.7445 209.15 12.71 207.185 12.71 204.76C12.71 202.336 10.7445 200.37 8.31999 200.37C5.89546 200.37 3.92999 202.336 3.92999 204.76C3.92999 207.185 5.89546 209.15 8.31999 209.15Z" fill="#69737C"/>
 <path d="M8.31999 255.25C10.7445 255.25 12.71 253.285 12.71 250.86C12.71 248.436 10.7445 246.47 8.31999 246.47C5.89546 246.47 3.92999 248.436 3.92999 250.86C3.92999 253.285 5.89546 255.25 8.31999 255.25Z" fill="#69737C"/>
 <path d="M54.7 24.76C57.1245 24.76 59.09 22.7946 59.09 20.37C59.09 17.9455 57.1245 15.98 54.7 15.98C52.2755 15.98 50.31 17.9455 50.31 20.37C50.31 22.7946 52.2755 24.76 54.7 24.76Z" fill="#69737C"/>
 <path d="M123.16 0.340027H453.04C481.37 0.340027 507.14 11.93 525.81 30.61C544.49 49.28 556.08 75.05 556.08 103.39V276.61C556.08 304.95 544.49 330.72 525.81 349.39C507.14 368.07 481.37 379.66 453.04 379.66H123.16C94.82 379.66 69.06 368.07 50.39 349.39C31.71 330.72 20.12 304.95 20.12 276.61V103.39C20.12 75.05 31.71 49.28 50.39 30.61C69.06 11.93 94.82 0.340027 123.16 0.340027V0.340027ZM453.04 2.70003H123.16C95.47 2.70003 70.3 14.03 52.06 32.28C33.81 50.53 22.48 75.7 22.48 103.39V276.61C22.48 304.3 33.81 329.47 52.06 347.72C70.3 365.97 95.47 377.3 123.16 377.3H453.04C480.72 377.3 505.9 365.97 524.14 347.72C542.39 329.47 553.72 304.3 553.72 276.61V103.39C553.72 75.7 542.39 50.53 524.14 32.28C505.9 14.03 480.72 2.70003 453.04 2.70003V2.70003Z" fill="#95C33F"/>
 <path fill-rule="evenodd" clip-rule="evenodd" d="M453.04 2.70001H123.16C95.47 2.70001 70.3 14.03 52.06 32.28C33.81 50.53 22.48 75.7 22.48 103.39V276.61C22.48 304.3 33.81 329.47 52.06 347.72C70.3 365.97 95.47 377.3 123.16 377.3H453.04C480.72 377.3 505.9 365.97 524.14 347.72C542.39 329.47 553.72 304.3 553.72 276.61V103.39C553.72 75.7 542.39 50.53 524.14 32.28C505.9 14.03 480.72 2.70001 453.04 2.70001V2.70001Z" fill="#FEFEFE"/>
 <path d="M94.3041 169.628C94.1224 168.094 93.3857 166.903 92.094 166.055C90.8023 165.208 89.218 164.784 87.341 164.784C85.9686 164.784 84.7677 165.006 83.7384 165.45C82.7192 165.894 81.9219 166.505 81.3467 167.282C80.7816 168.059 80.4991 168.942 80.4991 169.931C80.4991 170.758 80.6958 171.47 81.0894 172.065C81.4931 172.65 82.0077 173.14 82.6334 173.533C83.259 173.917 83.915 174.235 84.6012 174.487C85.2874 174.729 85.9181 174.926 86.4933 175.077L89.6418 175.925C90.4491 176.137 91.3473 176.429 92.3362 176.803C93.3353 177.176 94.2889 177.686 95.1971 178.332C96.1155 178.967 96.8723 179.785 97.4677 180.784C98.0631 181.783 98.3608 183.009 98.3608 184.462C98.3608 186.137 97.9218 187.651 97.0439 189.003C96.176 190.356 94.9045 191.43 93.2293 192.227C91.5642 193.025 89.5409 193.423 87.1594 193.423C84.9393 193.423 83.0169 193.065 81.3921 192.349C79.7775 191.632 78.506 190.633 77.5776 189.351C76.6593 188.07 76.1396 186.581 76.0185 184.886H79.8936C79.9945 186.057 80.3881 187.025 81.0743 187.792C81.7706 188.549 82.6485 189.114 83.7081 189.488C84.7778 189.851 85.9282 190.033 87.1594 190.033C88.5923 190.033 89.879 189.8 91.0193 189.336C92.1596 188.862 93.0628 188.206 93.7288 187.368C94.3949 186.521 94.7279 185.532 94.7279 184.402C94.7279 183.372 94.4403 182.535 93.8651 181.889C93.2899 181.243 92.533 180.718 91.5945 180.315C90.656 179.911 89.6418 179.558 88.552 179.255L84.7374 178.165C82.3155 177.469 80.3981 176.475 78.9853 175.183C77.5726 173.891 76.8662 172.201 76.8662 170.112C76.8662 168.377 77.3354 166.863 78.2739 165.571C79.2225 164.269 80.494 163.26 82.0884 162.544C83.693 161.817 85.4842 161.454 87.4621 161.454C89.4602 161.454 91.2363 161.812 92.7903 162.529C94.3444 163.235 95.5756 164.204 96.4838 165.435C97.4021 166.666 97.8865 168.064 97.9369 169.628H94.3041ZM129.479 171.565H125.725C125.503 170.486 125.114 169.537 124.559 168.72C124.014 167.902 123.348 167.216 122.561 166.661C121.784 166.096 120.921 165.672 119.973 165.389C119.024 165.107 118.035 164.966 117.006 164.966C115.129 164.966 113.428 165.44 111.905 166.389C110.391 167.337 109.185 168.735 108.287 170.581C107.399 172.428 106.955 174.694 106.955 177.378C106.955 180.062 107.399 182.328 108.287 184.175C109.185 186.021 110.391 187.419 111.905 188.368C113.428 189.316 115.129 189.79 117.006 189.79C118.035 189.79 119.024 189.649 119.973 189.367C120.921 189.084 121.784 188.665 122.561 188.11C123.348 187.545 124.014 186.854 124.559 186.036C125.114 185.209 125.503 184.26 125.725 183.191H129.479C129.196 184.775 128.682 186.193 127.935 187.444C127.188 188.695 126.26 189.76 125.15 190.638C124.04 191.506 122.793 192.167 121.411 192.621C120.038 193.075 118.57 193.302 117.006 193.302C114.362 193.302 112.011 192.656 109.952 191.365C107.893 190.073 106.274 188.236 105.093 185.855C103.912 183.473 103.322 180.648 103.322 177.378C103.322 174.108 103.912 171.283 105.093 168.901C106.274 166.52 107.893 164.683 109.952 163.391C112.011 162.1 114.362 161.454 117.006 161.454C118.57 161.454 120.038 161.681 121.411 162.135C122.793 162.589 124.04 163.255 125.15 164.133C126.26 165.001 127.188 166.061 127.935 167.312C128.682 168.553 129.196 169.971 129.479 171.565ZM139.299 161.878V192.878H135.545V161.878H139.299ZM146.826 192.878V161.878H165.535V165.208H150.58V175.683H164.566V179.013H150.58V189.548H165.777V192.878H146.826ZM196.884 161.878V192.878H193.251L176.358 168.538H176.056V192.878H172.302V161.878H175.934L192.888 186.279H193.191V161.878H196.884ZM229.342 171.565H225.588C225.366 170.486 224.977 169.537 224.422 168.72C223.877 167.902 223.211 167.216 222.424 166.661C221.647 166.096 220.784 165.672 219.836 165.389C218.887 165.107 217.898 164.966 216.869 164.966C214.992 164.966 213.291 165.44 211.768 166.389C210.254 167.337 209.048 168.735 208.15 170.581C207.262 172.428 206.818 174.694 206.818 177.378C206.818 180.062 207.262 182.328 208.15 184.175C209.048 186.021 210.254 187.419 211.768 188.368C213.291 189.316 214.992 189.79 216.869 189.79C217.898 189.79 218.887 189.649 219.836 189.367C220.784 189.084 221.647 188.665 222.424 188.11C223.211 187.545 223.877 186.854 224.422 186.036C224.977 185.209 225.366 184.26 225.588 183.191H229.342C229.059 184.775 228.545 186.193 227.798 187.444C227.051 188.695 226.123 189.76 225.013 190.638C223.902 191.506 222.656 192.167 221.274 192.621C219.901 193.075 218.433 193.302 216.869 193.302C214.225 193.302 211.874 192.656 209.815 191.365C207.756 190.073 206.137 188.236 204.956 185.855C203.775 183.473 203.185 180.648 203.185 177.378C203.185 174.108 203.775 171.283 204.956 168.901C206.137 166.52 207.756 164.683 209.815 163.391C211.874 162.1 214.225 161.454 216.869 161.454C218.433 161.454 219.901 161.681 221.274 162.135C222.656 162.589 223.902 163.255 225.013 164.133C226.123 165.001 227.051 166.061 227.798 167.312C228.545 168.553 229.059 169.971 229.342 171.565ZM235.408 192.878V161.878H254.117V165.208H239.162V175.683H253.149V179.013H239.162V189.548H254.36V192.878H235.408ZM277.837 169.628C277.655 168.094 276.919 166.903 275.627 166.055C274.335 165.208 272.751 164.784 270.874 164.784C269.502 164.784 268.301 165.006 267.271 165.45C266.252 165.894 265.455 166.505 264.88 167.282C264.315 168.059 264.032 168.942 264.032 169.931C264.032 170.758 264.229 171.47 264.622 172.065C265.026 172.65 265.541 173.14 266.166 173.533C266.792 173.917 267.448 174.235 268.134 174.487C268.82 174.729 269.451 174.926 270.026 175.077L273.175 175.925C273.982 176.137 274.88 176.429 275.869 176.803C276.868 177.176 277.822 177.686 278.73 178.332C279.648 178.967 280.405 179.785 281.001 180.784C281.596 181.783 281.894 183.009 281.894 184.462C281.894 186.137 281.455 187.651 280.577 189.003C279.709 190.356 278.438 191.43 276.762 192.227C275.097 193.025 273.074 193.423 270.692 193.423C268.472 193.423 266.55 193.065 264.925 192.349C263.311 191.632 262.039 190.633 261.111 189.351C260.192 188.07 259.673 186.581 259.552 184.886H263.427C263.528 186.057 263.921 187.025 264.607 187.792C265.304 188.549 266.182 189.114 267.241 189.488C268.311 189.851 269.461 190.033 270.692 190.033C272.125 190.033 273.412 189.8 274.552 189.336C275.693 188.862 276.596 188.206 277.262 187.368C277.928 186.521 278.261 185.532 278.261 184.402C278.261 183.372 277.973 182.535 277.398 181.889C276.823 181.243 276.066 180.718 275.128 180.315C274.189 179.911 273.175 179.558 272.085 179.255L268.27 178.165C265.849 177.469 263.931 176.475 262.518 175.183C261.106 173.891 260.399 172.201 260.399 170.112C260.399 168.377 260.868 166.863 261.807 165.571C262.756 164.269 264.027 163.26 265.621 162.544C267.226 161.817 269.017 161.454 270.995 161.454C272.993 161.454 274.769 161.812 276.323 162.529C277.877 163.235 279.109 164.204 280.017 165.435C280.935 166.666 281.42 168.064 281.47 169.628H277.837Z" fill="#72348A"/>
 <path d="M78.6221 154.176H74.6864L86.0695 123.176H89.9446L101.328 154.176H97.392L88.1281 128.08H87.8859L78.6221 154.176ZM80.0752 142.067H95.9389V145.397H80.0752V142.067ZM106.156 154.176V123.176H116.631C119.063 123.176 121.051 123.615 122.595 124.493C124.149 125.36 125.3 126.536 126.046 128.02C126.793 129.503 127.167 131.158 127.167 132.985C127.167 134.811 126.793 136.471 126.046 137.965C125.31 139.458 124.169 140.649 122.625 141.537C121.082 142.415 119.104 142.854 116.692 142.854H109.184V139.524H116.571C118.236 139.524 119.573 139.236 120.582 138.661C121.591 138.086 122.323 137.309 122.777 136.33C123.241 135.341 123.473 134.226 123.473 132.985C123.473 131.743 123.241 130.633 122.777 129.654C122.323 128.675 121.586 127.909 120.567 127.354C119.548 126.788 118.195 126.506 116.51 126.506H109.91V154.176H106.156ZM133.214 154.176V123.176H143.689C146.121 123.176 148.109 123.615 149.653 124.493C151.207 125.36 152.357 126.536 153.104 128.02C153.851 129.503 154.224 131.158 154.224 132.985C154.224 134.811 153.851 136.471 153.104 137.965C152.367 139.458 151.227 140.649 149.683 141.537C148.139 142.415 146.161 142.854 143.749 142.854H136.241V139.524H143.628C145.293 139.524 146.63 139.236 147.639 138.661C148.649 138.086 149.38 137.309 149.834 136.33C150.299 135.341 150.531 134.226 150.531 132.985C150.531 131.743 150.299 130.633 149.834 129.654C149.38 128.675 148.644 127.909 147.624 127.354C146.605 126.788 145.253 126.506 143.568 126.506H136.968V154.176H133.214ZM160.271 154.176V123.176H164.025V150.846H178.436V154.176H160.271ZM188.002 123.176V154.176H184.248V123.176H188.002ZM195.529 154.176V123.176H214.239V126.506H199.283V136.981H213.27V140.311H199.283V150.846H214.481V154.176H195.529ZM230.572 154.176H221.005V123.176H230.995C234.003 123.176 236.576 123.796 238.715 125.038C240.855 126.269 242.495 128.04 243.635 130.351C244.775 132.651 245.345 135.406 245.345 138.615C245.345 141.845 244.77 144.625 243.62 146.956C242.469 149.277 240.794 151.063 238.594 152.315C236.394 153.556 233.72 154.176 230.572 154.176ZM224.759 150.846H230.329C232.893 150.846 235.017 150.352 236.702 149.363C238.387 148.374 239.644 146.966 240.471 145.14C241.299 143.313 241.712 141.138 241.712 138.615C241.712 136.113 241.304 133.958 240.486 132.152C239.669 130.336 238.448 128.943 236.823 127.974C235.199 126.995 233.175 126.506 230.753 126.506H224.759V150.846Z" fill="#72348A"/>
 <path d="M77.3505 233.381V202.38H95.9389V205.71H81.1045V216.185H94.5462V219.515H81.1045V233.381H77.3505ZM99.7685 233.381H95.8329L107.216 202.38H111.091L122.474 233.381H118.538L109.275 207.285H109.032L99.7685 233.381ZM101.222 221.271H117.085V224.601H101.222V221.271ZM150.792 212.068H147.038C146.816 210.988 146.427 210.04 145.872 209.222C145.327 208.405 144.661 207.719 143.874 207.164C143.097 206.598 142.234 206.175 141.286 205.892C140.337 205.609 139.348 205.468 138.319 205.468C136.442 205.468 134.741 205.942 133.218 206.891C131.704 207.84 130.498 209.237 129.6 211.084C128.712 212.931 128.268 215.196 128.268 217.881C128.268 220.565 128.712 222.83 129.6 224.677C130.498 226.524 131.704 227.921 133.218 228.87C134.741 229.819 136.442 230.293 138.319 230.293C139.348 230.293 140.337 230.152 141.286 229.869C142.234 229.587 143.097 229.168 143.874 228.613C144.661 228.048 145.327 227.356 145.872 226.539C146.427 225.711 146.816 224.763 147.038 223.693H150.792C150.509 225.278 149.995 226.695 149.248 227.947C148.501 229.198 147.573 230.263 146.463 231.141C145.353 232.008 144.106 232.669 142.724 233.124C141.351 233.578 139.883 233.805 138.319 233.805C135.675 233.805 133.324 233.159 131.265 231.867C129.206 230.576 127.587 228.739 126.406 226.357C125.225 223.976 124.635 221.15 124.635 217.881C124.635 214.611 125.225 211.785 126.406 209.404C127.587 207.022 129.206 205.186 131.265 203.894C133.324 202.602 135.675 201.956 138.319 201.956C139.883 201.956 141.351 202.183 142.724 202.638C144.106 203.092 145.353 203.758 146.463 204.636C147.573 205.504 148.501 206.563 149.248 207.814C149.995 209.056 150.509 210.474 150.792 212.068ZM177.202 202.38H180.956V222.906C180.956 225.025 180.457 226.917 179.458 228.582C178.469 230.237 177.071 231.544 175.265 232.503C173.458 233.452 171.339 233.926 168.907 233.926C166.475 233.926 164.356 233.452 162.549 232.503C160.743 231.544 159.34 230.237 158.341 228.582C157.352 226.917 156.858 225.025 156.858 222.906V202.38H160.612V222.603C160.612 224.117 160.945 225.464 161.611 226.645C162.277 227.816 163.226 228.739 164.457 229.415C165.698 230.081 167.181 230.414 168.907 230.414C170.633 230.414 172.116 230.081 173.357 229.415C174.599 228.739 175.547 227.816 176.203 226.645C176.869 225.464 177.202 224.117 177.202 222.603V202.38ZM188.453 233.381V202.38H192.207V230.051H206.617V233.381H188.453ZM206.613 205.71V202.38H229.864V205.71H220.116V233.381H216.362V205.71H206.613ZM232.994 202.38H237.292L245.89 216.851H246.254L254.851 202.38H259.15L247.949 220.605V233.381H244.195V220.605L232.994 202.38Z" fill="#72348A"/>
 <path d="M291.9 233.51C297.202 233.51 301.5 229.212 301.5 223.91C301.5 218.608 297.202 214.31 291.9 214.31C286.598 214.31 282.3 218.608 282.3 223.91C282.3 229.212 286.598 233.51 291.9 233.51Z" fill="#95C33F"/>
 <path d="M349.657 226.897H315.035V114.705H351.191C362.074 114.705 371.387 116.951 379.129 121.443C386.871 125.899 392.806 132.308 396.933 140.671C401.06 148.998 403.123 158.968 403.123 170.582C403.123 182.268 401.041 192.33 396.878 200.766C392.715 209.166 386.652 215.63 378.691 220.159C370.729 224.651 361.051 226.897 349.657 226.897ZM328.621 214.845H348.78C358.056 214.845 365.744 213.056 371.843 209.476C377.942 205.897 382.489 200.803 385.484 194.193C388.478 187.582 389.976 179.712 389.976 170.582C389.976 161.525 388.497 153.727 385.538 147.19C382.58 140.616 378.161 135.577 372.281 132.071C366.401 128.528 359.079 126.757 350.314 126.757H328.621V214.845ZM425.241 226.897H410.998L452.193 114.705H466.217L507.413 226.897H493.17L459.644 132.454H458.767L425.241 226.897ZM430.5 183.072H487.911V195.124H430.5V183.072Z" fill="#95C33F"/>
</svg>
