<svg width="464" height="462" viewBox="0 0 464 462" fill="none" xmlns="http://www.w3.org/2000/svg">
<path fill-rule="evenodd" clip-rule="evenodd" d="M46.1594 10.1187C47.0025 10.1187 47.6861 9.4356 47.6861 8.59297C47.6861 7.75035 47.0025 7.06726 46.1594 7.06726C45.3163 7.06726 44.6328 7.75035 44.6328 8.59297C44.6328 9.4356 45.3163 10.1187 46.1594 10.1187ZM46.1585 30.4624C47.0016 30.4624 47.6851 29.7793 47.6851 28.9367C47.6851 28.094 47.0016 27.4109 46.1585 27.4109C45.3154 27.4109 44.6318 28.094 44.6318 28.9367C44.6318 29.7793 45.3154 30.4624 46.1585 30.4624ZM68.0398 8.59324C68.0398 9.43589 67.3563 10.119 66.5131 10.119C65.67 10.119 64.9865 9.43589 64.9865 8.59324C64.9865 7.75059 65.67 7.06748 66.5131 7.06748C67.3563 7.06748 68.0398 7.75059 68.0398 8.59324ZM66.5131 30.4624C67.3563 30.4624 68.0398 29.7793 68.0398 28.9367C68.0398 28.094 67.3563 27.4109 66.5131 27.4109C65.67 27.4109 64.9865 28.094 64.9865 28.9367C64.9865 29.7793 65.67 30.4624 66.5131 30.4624ZM88.3956 8.59324C88.3956 9.43589 87.7121 10.119 86.8689 10.119C86.0258 10.119 85.3423 9.43589 85.3423 8.59324C85.3423 7.75059 86.0258 7.06748 86.8689 7.06748C87.7121 7.06748 88.3956 7.75059 88.3956 8.59324ZM86.8689 30.4624C87.7121 30.4624 88.3956 29.7793 88.3956 28.9367C88.3956 28.094 87.7121 27.4109 86.8689 27.4109C86.0258 27.4109 85.3423 28.094 85.3423 28.9367C85.3423 29.7793 86.0258 30.4624 86.8689 30.4624ZM108.752 8.59324C108.752 9.43589 108.067 10.119 107.224 10.119C106.382 10.119 105.698 9.43589 105.698 8.59324C105.698 7.75059 106.382 7.06748 107.224 7.06748C108.067 7.06748 108.752 7.75059 108.752 8.59324ZM107.224 30.4624C108.067 30.4624 108.752 29.7793 108.752 28.9367C108.752 28.094 108.067 27.4109 107.224 27.4109C106.382 27.4109 105.698 28.094 105.698 28.9367C105.698 29.7793 106.382 30.4624 107.224 30.4624ZM129.106 8.59324C129.106 9.43589 128.422 10.119 127.58 10.119C126.736 10.119 126.052 9.43589 126.052 8.59324C126.052 7.75059 126.736 7.06748 127.58 7.06748C128.422 7.06748 129.106 7.75059 129.106 8.59324ZM127.58 30.4624C128.422 30.4624 129.106 29.7793 129.106 28.9367C129.106 28.094 128.422 27.4109 127.58 27.4109C126.736 27.4109 126.052 28.094 126.052 28.9367C126.052 29.7793 126.736 30.4624 127.58 30.4624ZM149.462 8.59324C149.462 9.43589 148.779 10.119 147.935 10.119C147.092 10.119 146.409 9.43589 146.409 8.59324C146.409 7.75059 147.092 7.06748 147.935 7.06748C148.779 7.06748 149.462 7.75059 149.462 8.59324ZM147.935 30.4624C148.779 30.4624 149.462 29.7793 149.462 28.9367C149.462 28.094 148.779 27.4109 147.935 27.4109C147.092 27.4109 146.409 28.094 146.409 28.9367C146.409 29.7793 147.092 30.4624 147.935 30.4624ZM47.6851 49.2801C47.6851 50.1227 47.0016 50.8058 46.1585 50.8058C45.3154 50.8058 44.6318 50.1227 44.6318 49.2801C44.6318 48.4374 45.3154 47.7543 46.1585 47.7543C47.0016 47.7543 47.6851 48.4374 47.6851 49.2801ZM66.5131 50.8058C67.3563 50.8058 68.0398 50.1227 68.0398 49.2801C68.0398 48.4374 67.3563 47.7543 66.5131 47.7543C65.67 47.7543 64.9865 48.4374 64.9865 49.2801C64.9865 50.1227 65.67 50.8058 66.5131 50.8058ZM88.3956 49.2801C88.3956 50.1227 87.7121 50.8058 86.8689 50.8058C86.0258 50.8058 85.3423 50.1227 85.3423 49.2801C85.3423 48.4374 86.0258 47.7543 86.8689 47.7543C87.7121 47.7543 88.3956 48.4374 88.3956 49.2801ZM107.224 50.8058C108.067 50.8058 108.752 50.1227 108.752 49.2801C108.752 48.4374 108.067 47.7543 107.224 47.7543C106.382 47.7543 105.698 48.4374 105.698 49.2801C105.698 50.1227 106.382 50.8058 107.224 50.8058ZM129.106 49.2801C129.106 50.1227 128.422 50.8058 127.58 50.8058C126.736 50.8058 126.052 50.1227 126.052 49.2801C126.052 48.4374 126.736 47.7543 127.58 47.7543C128.422 47.7543 129.106 48.4374 129.106 49.2801ZM147.935 50.8058C148.779 50.8058 149.462 50.1227 149.462 49.2801C149.462 48.4374 148.779 47.7543 147.935 47.7543C147.092 47.7543 146.409 48.4374 146.409 49.2801C146.409 50.1227 147.092 50.8058 147.935 50.8058ZM47.6851 69.623C47.6851 70.4656 47.0016 71.1488 46.1585 71.1488C45.3154 71.1488 44.6318 70.4656 44.6318 69.623C44.6318 68.7803 45.3154 68.0972 46.1585 68.0972C47.0016 68.0972 47.6851 68.7803 47.6851 69.623ZM66.5131 71.1488C67.3563 71.1488 68.0398 70.4656 68.0398 69.623C68.0398 68.7803 67.3563 68.0972 66.5131 68.0972C65.67 68.0972 64.9865 68.7803 64.9865 69.623C64.9865 70.4656 65.67 71.1488 66.5131 71.1488ZM88.3956 69.623C88.3956 70.4656 87.7121 71.1488 86.8689 71.1488C86.0258 71.1488 85.3423 70.4656 85.3423 69.623C85.3423 68.7803 86.0258 68.0972 86.8689 68.0972C87.7121 68.0972 88.3956 68.7803 88.3956 69.623ZM107.224 71.1488C108.067 71.1488 108.752 70.4656 108.752 69.623C108.752 68.7803 108.067 68.0972 107.224 68.0972C106.382 68.0972 105.698 68.7803 105.698 69.623C105.698 70.4656 106.382 71.1488 107.224 71.1488ZM129.106 69.623C129.106 70.4656 128.422 71.1488 127.58 71.1488C126.736 71.1488 126.052 70.4656 126.052 69.623C126.052 68.7803 126.736 68.0972 127.58 68.0972C128.422 68.0972 129.106 68.7803 129.106 69.623ZM147.935 71.1488C148.779 71.1488 149.462 70.4656 149.462 69.623C149.462 68.7803 148.779 68.0972 147.935 68.0972C147.092 68.0972 146.409 68.7803 146.409 69.623C146.409 70.4656 147.092 71.1488 147.935 71.1488ZM47.6851 89.9665C47.6851 90.8091 47.0016 91.4922 46.1585 91.4922C45.3154 91.4922 44.6318 90.8091 44.6318 89.9665C44.6318 89.1238 45.3154 88.4406 46.1585 88.4406C47.0016 88.4406 47.6851 89.1238 47.6851 89.9665ZM66.5131 91.4922C67.3563 91.4922 68.0398 90.8091 68.0398 89.9665C68.0398 89.1238 67.3563 88.4406 66.5131 88.4406C65.67 88.4406 64.9865 89.1238 64.9865 89.9665C64.9865 90.8091 65.67 91.4922 66.5131 91.4922ZM88.3956 89.9665C88.3956 90.8091 87.7121 91.4922 86.8689 91.4922C86.0258 91.4922 85.3423 90.8091 85.3423 89.9665C85.3423 89.1238 86.0258 88.4406 86.8689 88.4406C87.7121 88.4406 88.3956 89.1238 88.3956 89.9665ZM107.224 91.4922C108.067 91.4922 108.752 90.8091 108.752 89.9665C108.752 89.1238 108.067 88.4406 107.224 88.4406C106.382 88.4406 105.698 89.1238 105.698 89.9665C105.698 90.8091 106.382 91.4922 107.224 91.4922ZM129.106 89.9665C129.106 90.8091 128.422 91.4922 127.58 91.4922C126.736 91.4922 126.052 90.8091 126.052 89.9665C126.052 89.1238 126.736 88.4406 127.58 88.4406C128.422 88.4406 129.106 89.1238 129.106 89.9665ZM147.935 91.4922C148.779 91.4922 149.462 90.8091 149.462 89.9665C149.462 89.1238 148.779 88.4406 147.935 88.4406C147.092 88.4406 146.409 89.1238 146.409 89.9665C146.409 90.8091 147.092 91.4922 147.935 91.4922ZM47.6851 110.31C47.6851 111.153 47.0016 111.836 46.1585 111.836C45.3154 111.836 44.6318 111.153 44.6318 110.31C44.6318 109.467 45.3154 108.785 46.1585 108.785C47.0016 108.785 47.6851 109.467 47.6851 110.31ZM66.5131 111.836C67.3563 111.836 68.0398 111.153 68.0398 110.31C68.0398 109.467 67.3563 108.785 66.5131 108.785C65.67 108.785 64.9865 109.467 64.9865 110.31C64.9865 111.153 65.67 111.836 66.5131 111.836ZM88.3956 110.31C88.3956 111.153 87.7121 111.836 86.8689 111.836C86.0258 111.836 85.3423 111.153 85.3423 110.31C85.3423 109.467 86.0258 108.785 86.8689 108.785C87.7121 108.785 88.3956 109.467 88.3956 110.31ZM107.224 111.836C108.067 111.836 108.752 111.153 108.752 110.31C108.752 109.467 108.067 108.785 107.224 108.785C106.382 108.785 105.698 109.467 105.698 110.31C105.698 111.153 106.382 111.836 107.224 111.836ZM129.106 110.31C129.106 111.153 128.422 111.836 127.58 111.836C126.736 111.836 126.052 111.153 126.052 110.31C126.052 109.467 126.736 108.785 127.58 108.785C128.422 108.785 129.106 109.467 129.106 110.31ZM147.935 111.836C148.779 111.836 149.462 111.153 149.462 110.31C149.462 109.467 148.779 108.785 147.935 108.785C147.092 108.785 146.409 109.467 146.409 110.31C146.409 111.153 147.092 111.836 147.935 111.836Z" fill="#5AD501"/>
<g opacity="0.33" filter="url(#filter0_f_2795_47)">
<path opacity="0.44" d="M244.086 421.585C311.03 421.585 365.298 367.349 365.298 300.444C365.298 233.54 311.03 179.304 244.086 179.304C177.143 179.304 122.874 233.54 122.874 300.444C122.874 367.349 177.143 421.585 244.086 421.585Z" fill="#94C23E"/>
</g>
<g filter="url(#filter1_d_2795_47)">
<path d="M323.559 19.9691H141.343C89.388 19.9691 47.2703 62.0621 47.2703 113.986V296.096C47.2703 348.02 89.388 390.113 141.343 390.113H323.559C375.514 390.113 417.632 348.02 417.632 296.096V113.986C417.632 62.0621 375.514 19.9691 323.559 19.9691Z" fill="white"/>
</g>
<g filter="url(#filter2_ddd_2795_47)">
<path d="M361.201 199.061C363.363 232.668 352.346 265.796 330.487 291.416C308.629 317.035 277.649 333.131 244.12 336.288C210.591 339.444 177.151 329.414 150.895 308.325C124.639 287.235 107.632 256.746 103.483 223.325L174.53 214.505C176.385 229.447 183.989 243.079 195.728 252.508C207.467 261.937 222.418 266.421 237.409 265.01C252.4 263.598 266.251 256.402 276.024 244.948C285.797 233.493 290.722 218.682 289.756 203.656L361.201 199.061Z" fill="white" stroke="#F3F3EC" stroke-width="1.82161"/>
<mask id="mask0_2795_47" style="mask-type:alpha" maskUnits="userSpaceOnUse" x="103" y="203" width="259" height="134">
<path d="M361.403 203.267C362.456 236.459 350.716 268.787 328.609 293.568C306.503 318.35 275.72 333.69 242.624 336.42C209.527 339.149 176.648 329.058 150.78 308.232C124.913 287.407 108.036 257.439 103.637 224.523L174.599 215.04C176.566 229.757 184.112 243.155 195.677 252.466C207.242 261.777 221.943 266.289 236.74 265.069C251.537 263.849 265.3 256.99 275.184 245.91C285.068 234.83 290.317 220.376 289.846 205.536L361.403 203.267Z" fill="white"/>
</mask>
<g mask="url(#mask0_2795_47)">
<path d="M361.403 203.267C362.456 236.459 350.716 268.787 328.609 293.568C306.503 318.35 275.72 333.69 242.624 336.42C209.527 339.149 176.648 329.058 150.78 308.232C124.913 287.407 108.036 257.439 103.637 224.523L174.599 215.04C176.566 229.757 184.112 243.155 195.677 252.466C207.242 261.777 221.943 266.289 236.74 265.069C251.537 263.849 265.3 256.99 275.184 245.91C285.068 234.83 290.317 220.376 289.846 205.536L361.403 203.267Z" fill="white" stroke="#94C23E" stroke-width="88.7223"/>
<path d="M226.552 294.977C226.552 294.582 226.217 294.248 225.823 294.248H220.819C221.154 293.972 221.488 293.696 221.804 293.4C222.099 293.124 222.533 292.691 223.104 292.08C223.656 291.469 224.129 290.878 224.523 290.307C225.311 289.144 226.02 287.45 226.02 286.011C226.02 285.026 225.685 284.179 224.996 283.47C224.306 282.76 223.36 282.406 222.119 282.406C220.168 282.406 219.045 283.135 218.119 284.869C218.06 284.967 218.04 285.066 218.04 285.164C218.04 285.46 218.178 285.676 218.434 285.814L218.966 286.09C219.104 286.149 219.223 286.189 219.341 286.189C219.636 286.189 219.853 286.051 220.011 285.795C220.503 285.046 221.134 284.671 221.863 284.671C222.986 284.671 223.617 285.341 223.617 286.465C223.617 287.627 223.006 288.987 221.843 290.405C221.252 291.115 220.72 291.725 220.227 292.238C219.735 292.75 219.124 293.341 218.415 294.011C217.962 294.425 217.745 294.839 217.745 295.213V295.627C217.745 296.021 218.08 296.356 218.474 296.356H225.823C226.217 296.356 226.552 296.021 226.552 295.627V294.977ZM237.341 293.164C237.735 293.164 238.07 292.829 238.07 292.435V291.627C238.07 291.233 237.735 290.898 237.341 290.898H236.297V288.218C236.297 287.824 235.962 287.489 235.568 287.489H234.76C234.366 287.489 234.031 287.824 234.031 288.218V290.898H230.662L235.056 283.529C235.115 283.43 235.154 283.332 235.154 283.194C235.154 282.859 234.878 282.563 234.504 282.563H233.696C233.263 282.563 232.908 282.78 232.652 283.213L228.12 290.839C227.824 291.351 227.667 291.765 227.667 292.1V292.494C227.667 292.829 228.002 293.164 228.396 293.164H234.031V295.627C234.031 296.021 234.366 296.356 234.76 296.356H235.568C235.962 296.356 236.297 296.021 236.297 295.627V293.164H237.341ZM204.534 311.252C205.42 310.385 205.854 309.282 205.854 307.922C205.854 306.563 205.42 305.459 204.534 304.573C203.647 303.706 202.465 303.272 201.026 303.272C199.588 303.272 198.425 303.706 197.539 304.573C196.652 305.459 196.199 306.563 196.199 307.922C196.199 309.282 196.652 310.385 197.539 311.252C198.425 312.139 199.588 312.573 201.026 312.573C202.465 312.573 203.647 312.139 204.534 311.252ZM201.026 305.4C202.425 305.4 203.45 306.445 203.45 307.922C203.45 309.44 202.445 310.464 201.026 310.464C199.627 310.464 198.622 309.4 198.622 307.922C198.622 306.425 199.667 305.4 201.026 305.4ZM214.08 305.834C214.356 305.834 214.573 305.696 214.75 305.42L215.046 304.908C215.105 304.809 215.125 304.711 215.125 304.593C215.125 304.297 215.007 304.08 214.77 303.942C213.962 303.489 212.977 303.272 211.854 303.272C210.534 303.272 209.43 303.726 208.563 304.612C207.696 305.499 207.263 306.602 207.263 307.922C207.263 309.321 207.716 310.445 208.603 311.292C209.489 312.139 210.652 312.573 212.13 312.573C213.332 312.573 214.356 312.218 215.243 311.528C215.42 311.39 215.519 311.174 215.519 310.898C215.519 310.72 215.479 310.602 215.381 310.504L215.046 310.09C214.888 309.893 214.691 309.794 214.435 309.794C214.297 309.794 214.14 309.853 213.962 309.952C213.43 310.287 212.859 310.464 212.248 310.464C210.849 310.464 209.687 309.44 209.687 307.922C209.687 307.174 209.943 306.563 210.435 306.09C210.928 305.637 211.499 305.4 212.149 305.4C212.721 305.4 213.233 305.519 213.726 305.755C213.844 305.814 213.962 305.834 214.08 305.834ZM224.37 303.489C223.976 303.489 223.641 303.824 223.641 304.218V306.839H219.759V304.218C219.759 303.824 219.424 303.489 219.03 303.489H218.222C217.828 303.489 217.493 303.824 217.493 304.218V311.627C217.493 312.021 217.828 312.356 218.222 312.356H219.03C219.424 312.356 219.759 312.021 219.759 311.627V308.967H223.641V311.627C223.641 312.021 223.976 312.356 224.37 312.356H225.178C225.572 312.356 225.907 312.021 225.907 311.627V304.218C225.907 303.824 225.572 303.489 225.178 303.489H224.37ZM236.206 311.252C237.093 310.385 237.526 309.282 237.526 307.922C237.526 306.563 237.093 305.459 236.206 304.573C235.319 303.706 234.137 303.272 232.699 303.272C231.26 303.272 230.098 303.706 229.211 304.573C228.324 305.459 227.871 306.563 227.871 307.922C227.871 309.282 228.324 310.385 229.211 311.252C230.098 312.139 231.26 312.573 232.699 312.573C234.137 312.573 235.319 312.139 236.206 311.252ZM232.699 305.4C234.098 305.4 235.122 306.445 235.122 307.922C235.122 309.44 234.117 310.464 232.699 310.464C231.3 310.464 230.295 309.4 230.295 307.922C230.295 306.425 231.339 305.4 232.699 305.4ZM242.975 303.391C242.127 303.391 241.221 303.41 240.216 303.469C239.802 303.489 239.487 303.804 239.487 304.218V311.627C239.487 312.041 239.802 312.356 240.216 312.376C240.354 312.376 240.787 312.395 241.497 312.415C242.186 312.435 242.699 312.454 243.014 312.454C245.832 312.454 247.231 311.568 247.231 309.775C247.231 308.711 246.6 308.021 245.339 307.706C246.265 307.548 246.994 306.74 246.994 305.716C246.994 304.159 245.654 303.391 242.975 303.391ZM243.172 308.592C244.295 308.592 244.846 308.927 244.846 309.617C244.846 310.248 244.255 310.642 243.25 310.642C243.152 310.642 242.64 310.622 241.753 310.563V308.592H243.172ZM241.753 305.262C242.068 305.243 242.541 305.223 243.172 305.223C244.117 305.223 244.59 305.538 244.59 306.189C244.59 306.839 244.019 307.213 243.231 307.213H241.753V305.262ZM256.254 303.489C255.86 303.489 255.525 303.824 255.525 304.218V306.839H251.643V304.218C251.643 303.824 251.308 303.489 250.914 303.489H250.106C249.712 303.489 249.377 303.824 249.377 304.218V311.627C249.377 312.021 249.712 312.356 250.106 312.356H250.914C251.308 312.356 251.643 312.021 251.643 311.627V308.967H255.525V311.627C255.525 312.021 255.86 312.356 256.254 312.356H257.062C257.456 312.356 257.791 312.021 257.791 311.627V304.218C257.791 303.824 257.456 303.489 257.062 303.489H256.254ZM261.371 303.489C260.977 303.489 260.642 303.824 260.642 304.218V311.627C260.642 312.021 260.977 312.356 261.371 312.356H262.179C262.573 312.356 262.908 312.021 262.908 311.627V304.218C262.908 303.824 262.573 303.489 262.179 303.489H261.371ZM261.824 298.977C261.036 298.977 260.405 299.509 260.405 300.297C260.405 301.164 261.016 301.716 261.824 301.716C262.514 301.716 263.125 301.164 263.125 300.297C263.125 299.509 262.514 298.977 261.824 298.977Z" fill="#E1E1E1"/>
<path d="M103.271 221.513C101.373 204.244 102.97 186.77 107.967 170.131C112.963 153.492 121.257 138.029 132.354 124.662C143.451 111.295 157.124 100.298 172.56 92.3254C187.995 84.3528 204.877 79.5678 222.201 78.2555C239.524 76.9431 256.934 79.1302 273.395 84.6864C289.855 90.2426 305.029 99.0544 318.013 110.597C330.997 122.14 341.526 136.177 348.972 151.873C356.418 167.569 360.629 184.604 361.355 201.961L289.825 204.953C289.5 197.192 287.617 189.576 284.288 182.558C280.959 175.54 276.252 169.264 270.447 164.104C264.641 158.943 257.857 155.003 250.498 152.519C243.138 150.035 235.354 149.057 227.609 149.644C219.864 150.231 212.316 152.37 205.414 155.934C198.513 159.499 192.4 164.416 187.438 170.392C182.477 176.368 178.769 183.282 176.535 190.721C174.301 198.161 173.587 205.973 174.435 213.694L103.271 221.513Z" fill="white" stroke="#F3F3EC" stroke-width="1.82161"/>
</g>
<mask id="mask1_2795_47" style="mask-type:alpha" maskUnits="userSpaceOnUse" x="102" y="77" width="259" height="146">
<path d="M102.992 222.484C100.835 205.159 102.204 187.576 107.017 170.793C111.829 154.01 119.986 138.374 130.997 124.825C142.007 111.276 155.645 100.093 171.088 91.9491C186.531 83.8054 203.462 78.8689 220.863 77.4365C238.263 76.0041 255.773 78.1054 272.34 83.6139C288.908 89.1225 304.19 97.9246 317.268 109.491C330.347 121.057 340.951 135.149 348.443 150.919C355.935 166.689 360.161 183.811 360.866 201.256L289.332 204.147C289.017 196.348 287.127 188.693 283.778 181.642C280.428 174.591 275.687 168.291 269.839 163.12C263.992 157.948 257.159 154.013 249.752 151.55C242.345 149.087 234.516 148.148 226.736 148.788C218.957 149.428 211.387 151.636 204.482 155.277C197.577 158.918 191.48 163.917 186.557 169.975C181.634 176.033 177.987 183.024 175.836 190.528C173.684 198.031 173.072 205.893 174.036 213.639L102.992 222.484Z" fill="white"/>
</mask>
<g mask="url(#mask1_2795_47)">
<path d="M102.992 222.484C100.835 205.159 102.204 187.576 107.017 170.793C111.829 154.01 119.986 138.374 130.997 124.825C142.007 111.276 155.645 100.093 171.088 91.9491C186.531 83.8054 203.462 78.8689 220.863 77.4365C238.263 76.0041 255.773 78.1054 272.34 83.6139C288.908 89.1225 304.19 97.9246 317.268 109.491C330.347 121.057 340.951 135.149 348.443 150.919C355.935 166.689 360.161 183.811 360.866 201.256L289.332 204.147C289.017 196.348 287.127 188.693 283.778 181.642C280.428 174.591 275.687 168.291 269.839 163.12C263.992 157.948 257.159 154.013 249.752 151.55C242.345 149.087 234.516 148.148 226.736 148.788C218.957 149.428 211.387 151.636 204.482 155.277C197.577 158.918 191.48 163.917 186.557 169.975C181.634 176.033 177.987 183.024 175.836 190.528C173.684 198.031 173.072 205.893 174.036 213.639L102.992 222.484Z" fill="white" stroke="#B4DC7F" stroke-width="88.7223"/>
<path d="M228.753 115.469C228.753 115.075 228.418 114.74 228.024 114.74H223.019C223.354 114.464 223.689 114.189 224.004 113.893C224.3 113.617 224.733 113.184 225.305 112.573C225.856 111.962 226.329 111.371 226.723 110.8C227.511 109.637 228.221 107.943 228.221 106.504C228.221 105.519 227.886 104.672 227.196 103.962C226.507 103.253 225.561 102.898 224.319 102.898C222.369 102.898 221.246 103.627 220.32 105.361C220.26 105.46 220.241 105.558 220.241 105.657C220.241 105.952 220.379 106.169 220.635 106.307L221.167 106.583C221.305 106.642 221.423 106.681 221.541 106.681C221.837 106.681 222.053 106.544 222.211 106.287C222.704 105.539 223.334 105.164 224.063 105.164C225.186 105.164 225.817 105.834 225.817 106.957C225.817 108.12 225.206 109.479 224.044 110.898C223.452 111.607 222.92 112.218 222.428 112.731C221.935 113.243 221.324 113.834 220.615 114.504C220.162 114.918 219.945 115.331 219.945 115.706V116.12C219.945 116.514 220.28 116.849 220.674 116.849H228.024C228.418 116.849 228.753 116.514 228.753 116.12V115.469ZM233.236 109.598C233.847 107.312 235.522 105.617 237.571 104.77C237.906 104.632 238.084 104.416 238.084 104.081C238.084 104.002 238.064 103.903 238.024 103.805L237.808 103.233C237.709 102.977 237.492 102.839 237.158 102.839C237.039 102.839 236.921 102.859 236.803 102.898C235.246 103.47 233.788 104.553 232.567 106.051C231.345 107.568 230.557 109.696 230.557 111.962C230.557 113.4 231.01 114.602 231.897 115.588C232.783 116.573 233.985 117.065 235.483 117.065C236.665 117.065 237.709 116.652 238.596 115.824C239.483 115.016 239.936 113.913 239.936 112.533C239.936 111.292 239.561 110.287 238.813 109.499C238.064 108.711 237.158 108.317 236.074 108.317C234.793 108.317 233.847 108.75 233.236 109.598ZM232.961 111.982C233.374 111.115 234.182 110.425 235.305 110.425C236.724 110.425 237.532 111.371 237.532 112.691C237.532 113.854 236.704 114.799 235.502 114.799C233.906 114.799 232.961 113.617 232.961 111.982ZM185.338 124.652C185.102 124.79 184.983 125.007 184.983 125.302C184.983 125.42 185.023 125.539 185.082 125.637L185.22 125.854C185.358 126.11 185.575 126.248 185.85 126.248C185.969 126.248 186.087 126.208 186.225 126.149C186.993 125.775 187.604 125.598 188.097 125.598C189.141 125.598 189.653 125.913 189.653 126.563C189.653 127.174 189.18 127.647 188.471 127.647H187.643C187.249 127.647 186.914 127.982 186.914 128.396C186.914 128.809 187.249 129.164 187.643 129.164H188.57C189.417 129.164 189.909 129.558 189.909 130.169C189.909 130.819 189.259 131.253 188.097 131.253C187.486 131.253 186.836 131.036 186.166 130.602C186.028 130.504 185.87 130.464 185.712 130.464C185.456 130.464 185.259 130.563 185.102 130.78L184.865 131.036C184.767 131.134 184.727 131.292 184.727 131.469C184.727 131.726 184.806 131.923 184.983 132.041C185.949 132.849 186.855 133.065 188.294 133.065C190.717 133.065 192.313 132.041 192.313 130.386C192.313 129.341 191.643 128.533 190.441 128.277C191.466 127.903 192.077 127.154 192.077 126.287C192.077 124.711 190.835 123.765 188.53 123.765C187.427 123.765 186.363 124.061 185.338 124.652ZM196.665 132.967C197.867 132.967 198.753 132.592 199.285 131.824V132.12C199.285 132.514 199.62 132.849 200.014 132.849H200.527C200.921 132.849 201.256 132.514 201.256 132.12V127.45C201.256 125.007 200.231 123.765 197.709 123.765C196.862 123.765 195.995 123.962 195.148 124.356C194.872 124.494 194.734 124.711 194.734 124.987C194.734 125.066 194.753 125.164 194.813 125.302L194.931 125.539C195.069 125.814 195.285 125.952 195.601 125.952C195.719 125.952 195.837 125.933 195.955 125.893C196.428 125.736 196.941 125.657 197.473 125.657C198.674 125.657 199.128 126.307 199.128 127.667V127.942C198.596 127.568 197.926 127.371 197.118 127.371C195.226 127.371 193.886 128.376 193.886 130.248C193.886 131.923 195.01 132.967 196.665 132.967ZM199.128 130.248C198.753 130.78 198.182 131.056 197.413 131.056C196.684 131.056 196.152 130.662 196.152 130.011C196.152 129.302 196.763 128.908 197.571 128.908C198.221 128.908 198.753 129.046 199.128 129.341V130.248ZM204.308 123.982C203.914 123.982 203.579 124.317 203.579 124.711V132.12C203.579 132.514 203.914 132.849 204.308 132.849H205.115C205.51 132.849 205.845 132.514 205.845 132.12V126.11H209.628V132.12C209.628 132.514 209.963 132.849 210.357 132.849H211.165C211.559 132.849 211.894 132.514 211.894 132.12V124.711C211.894 124.317 211.559 123.982 211.165 123.982H204.308ZM223.436 128.277C223.436 126.957 223.062 125.873 222.333 125.026C221.604 124.179 220.619 123.765 219.417 123.765C218.333 123.765 217.249 124.199 216.678 124.77C216.678 124.317 216.343 123.982 215.949 123.982H215.141C214.747 123.982 214.412 124.317 214.412 124.711V136.06C214.412 136.454 214.747 136.789 215.141 136.789H215.949C216.343 136.789 216.678 136.454 216.678 136.06V132.632C217.17 132.927 217.86 133.065 218.747 133.065C220.146 133.065 221.269 132.612 222.136 131.706C223.003 130.799 223.436 129.657 223.436 128.277ZM216.678 126.859C217.249 126.208 217.939 125.893 218.707 125.893C220.185 125.893 221.032 126.898 221.032 128.336C221.032 129.854 220.067 130.957 218.55 130.957C217.821 130.957 217.21 130.78 216.678 130.445V126.859ZM233.182 131.745C234.069 130.878 234.502 129.775 234.502 128.415C234.502 127.056 234.069 125.952 233.182 125.066C232.295 124.199 231.113 123.765 229.675 123.765C228.236 123.765 227.074 124.199 226.187 125.066C225.301 125.952 224.847 127.056 224.847 128.415C224.847 129.775 225.301 130.878 226.187 131.745C227.074 132.632 228.236 133.065 229.675 133.065C231.113 133.065 232.295 132.632 233.182 131.745ZM229.675 125.893C231.074 125.893 232.098 126.937 232.098 128.415C232.098 129.932 231.093 130.957 229.675 130.957C228.276 130.957 227.271 129.893 227.271 128.415C227.271 126.918 228.315 125.893 229.675 125.893ZM246.749 123.982C246.355 123.982 246.02 124.317 246.02 124.711V130.74H243.497V124.711C243.497 124.317 243.162 123.982 242.768 123.982H241.961C241.566 123.982 241.232 124.317 241.232 124.711V130.74H238.729V124.711C238.729 124.317 238.394 123.982 238 123.982H237.192C236.798 123.982 236.463 124.317 236.463 124.711V132.12C236.463 132.514 236.798 132.849 237.192 132.849H247.556C247.951 132.849 248.285 132.514 248.285 132.12V124.711C248.285 124.317 247.951 123.982 247.556 123.982H246.749ZM252.513 127.588C252.769 126.307 253.557 125.657 254.838 125.657C256.099 125.657 256.867 126.445 256.867 127.548V127.588H252.513ZM255.252 131.174C253.833 131.174 252.769 130.425 252.592 129.105H258.345C258.68 129.105 259.094 128.731 259.113 128.396C259.133 128.297 259.133 128.12 259.133 127.883C259.133 126.681 258.719 125.676 257.912 124.908C257.104 124.14 256.099 123.765 254.936 123.765C253.518 123.765 252.375 124.199 251.528 125.085C250.68 125.972 250.247 127.095 250.247 128.415C250.247 129.814 250.68 130.937 251.567 131.785C252.434 132.632 253.577 133.065 255.015 133.065C256.119 133.065 257.104 132.79 257.99 132.238C258.207 132.1 258.306 131.903 258.306 131.647C258.306 131.509 258.266 131.371 258.187 131.253L258.01 130.996C257.852 130.78 257.655 130.662 257.439 130.662C257.32 130.662 257.163 130.701 256.985 130.799C256.453 131.056 255.882 131.174 255.252 131.174ZM267.989 123.982C267.595 123.982 267.26 124.317 267.26 124.711V127.332H263.378V124.711C263.378 124.317 263.043 123.982 262.649 123.982H261.841C261.447 123.982 261.112 124.317 261.112 124.711V132.12C261.112 132.514 261.447 132.849 261.841 132.849H262.649C263.043 132.849 263.378 132.514 263.378 132.12V129.46H267.26V132.12C267.26 132.514 267.595 132.849 267.989 132.849H268.797C269.191 132.849 269.526 132.514 269.526 132.12V124.711C269.526 124.317 269.191 123.982 268.797 123.982H267.989ZM273.106 123.982C272.712 123.982 272.377 124.317 272.377 124.711V132.12C272.377 132.514 272.712 132.849 273.106 132.849H273.914C274.308 132.849 274.643 132.514 274.643 132.12V124.711C274.643 124.317 274.308 123.982 273.914 123.982H273.106ZM273.559 119.47C272.771 119.47 272.14 120.002 272.14 120.79C272.14 121.657 272.751 122.209 273.559 122.209C274.248 122.209 274.859 121.657 274.859 120.79C274.859 120.002 274.248 119.47 273.559 119.47Z" fill="#F3F3F3"/>
</g>
</g>
<path d="M225.883 200.282C225.705 200.144 225.508 200.065 225.311 200.065C225.095 200.065 224.937 200.144 224.799 200.302L224.385 200.755C224.247 200.893 224.188 201.07 224.188 201.267C224.188 201.445 224.267 201.622 224.405 201.76C225.568 202.844 226.809 203.395 228.109 203.395C229.469 203.395 230.592 202.981 231.498 202.134C232.405 201.287 232.858 200.144 232.858 198.706C232.858 197.386 232.444 196.322 231.636 195.514C230.809 194.706 229.764 194.312 228.523 194.312C228.287 194.312 228.031 194.331 227.735 194.391L228.129 191.652H231.932C232.326 191.652 232.661 191.317 232.661 190.923V190.115C232.661 189.721 232.326 189.386 231.932 189.386H226.868C226.454 189.386 226.1 189.701 226.04 190.115L225.39 195.514C225.39 195.533 225.37 195.652 225.37 195.671C225.37 196.144 225.686 196.459 226.178 196.459C226.198 196.459 226.277 196.44 226.336 196.44C226.671 196.381 227.045 196.361 227.499 196.361C229.311 196.361 230.434 197.386 230.434 198.804C230.434 200.164 229.489 201.129 228.168 201.129C227.361 201.129 226.592 200.853 225.883 200.282ZM235.77 201.445C236.558 202.706 237.721 203.336 239.258 203.336C242.312 203.336 243.829 200.676 243.829 196.282C243.829 191.928 242.272 189.228 239.218 189.228C237.681 189.228 236.519 189.859 235.75 191.12C234.982 192.381 234.588 194.095 234.588 196.282C234.588 198.469 234.982 200.183 235.77 201.445ZM237.011 196.282C237.011 192.913 237.662 191.356 239.218 191.356C240.794 191.356 241.425 192.834 241.425 196.282C241.425 199.75 240.814 201.228 239.258 201.228C237.76 201.228 237.011 199.573 237.011 196.282ZM193.993 214.538C193.993 212.962 192.772 212.253 190.329 212.253C190.072 212.253 189.284 212.272 187.984 212.312C187.688 212.312 187.471 212.528 187.471 212.824V220.666C187.471 220.962 187.688 221.178 187.984 221.178C189.363 221.218 190.151 221.238 190.368 221.238C193.008 221.238 194.328 220.41 194.328 218.735C194.328 217.533 193.619 216.824 192.2 216.587C193.324 216.41 193.993 215.543 193.993 214.538ZM190.624 217.1C192.378 217.1 193.245 217.612 193.245 218.637C193.245 219.72 192.319 220.272 190.486 220.272C189.915 220.272 189.265 220.252 188.496 220.233V217.1H190.624ZM188.496 213.258C189.146 213.238 189.797 213.218 190.447 213.218C192.082 213.218 192.91 213.711 192.91 214.696C192.91 215.642 192.122 216.253 190.841 216.253H188.496V213.258ZM204.918 212.804C204.918 212.45 204.741 212.272 204.366 212.272C204.11 212.272 203.854 212.43 203.618 212.726L197.982 219.701V212.765C197.982 212.469 197.746 212.272 197.49 212.272C197.175 212.272 196.958 212.469 196.958 212.765V220.686C196.958 221.06 197.155 221.257 197.529 221.257C197.785 221.257 198.042 221.119 198.258 220.824L203.894 213.849V220.765C203.894 221.06 204.13 221.257 204.386 221.257C204.701 221.257 204.918 221.06 204.918 220.765V212.804ZM213.973 220.942C214.209 221.159 214.406 221.257 214.564 221.257C214.82 221.257 215.017 221.06 215.017 220.824C215.017 220.666 214.958 220.528 214.82 220.41L210.879 216.548L214.485 213.06C214.583 212.962 214.642 212.844 214.642 212.706C214.642 212.469 214.445 212.272 214.229 212.272C214.051 212.272 213.874 212.371 213.677 212.568L209.992 216.253C209.815 216.43 209.815 216.785 209.992 216.962L213.973 220.942ZM209.047 212.765C209.047 212.469 208.81 212.272 208.554 212.272C208.239 212.272 208.022 212.469 208.022 212.765V220.765C208.022 221.415 209.047 221.415 209.047 220.765V212.765ZM224.488 212.824C224.488 212.568 224.271 212.312 223.976 212.312H219.267C218.971 212.312 218.735 212.528 218.735 212.824L218.616 215.07C218.439 218.006 217.848 219.701 216.823 220.193C216.015 220.39 216.232 221.257 216.764 221.257H216.843C217.296 221.198 217.71 221.001 218.065 220.666C218.754 220.016 219.385 218.203 219.601 215.267L219.72 213.336H223.463V220.765C223.463 221.415 224.488 221.415 224.488 220.765V212.824ZM226.921 218.656C226.921 220.252 228.004 221.297 229.66 221.297C230.96 221.297 231.965 220.804 232.694 219.819V220.765C232.694 221.021 232.911 221.257 233.206 221.257C233.521 221.257 233.719 221.06 233.719 220.765V215.681C233.719 213.317 232.792 212.134 230.428 212.134C229.561 212.134 228.733 212.331 227.926 212.745C227.768 212.844 227.689 212.962 227.689 213.12C227.689 213.179 227.709 213.258 227.748 213.336C227.847 213.514 227.985 213.592 228.162 213.592C228.241 213.592 228.32 213.573 228.398 213.533C228.99 213.238 229.64 213.1 230.369 213.1C231.236 213.1 231.827 213.356 232.142 213.691C232.3 213.868 232.418 214.105 232.517 214.44C232.674 215.11 232.694 215.563 232.694 216.568C232.083 216.115 231.275 215.898 230.29 215.898C228.32 215.898 226.921 216.922 226.921 218.656ZM232.694 218.932C231.985 219.858 231.078 220.331 229.975 220.331C228.852 220.331 228.004 219.681 228.004 218.597C228.004 217.395 229.108 216.745 230.389 216.745C231.275 216.745 232.044 216.982 232.694 217.454V218.932ZM244.142 221.178V222.972C244.142 223.543 245.107 223.543 245.107 222.972V220.725C245.107 220.43 244.851 220.213 244.595 220.213H243.629V212.824C243.629 212.568 243.412 212.312 243.117 212.312H238.487C238.191 212.312 237.955 212.528 237.955 212.824L237.836 214.814C237.679 217.395 237.028 219.405 236.398 220.213H235.807C235.551 220.213 235.295 220.43 235.295 220.725V222.972C235.295 223.543 236.26 223.543 236.26 222.972V221.178H244.142ZM237.482 220.213C237.738 219.878 238.014 219.267 238.289 218.341C238.546 217.435 238.723 216.39 238.821 215.208L238.94 213.277H242.605V220.213H237.482ZM246.163 218.656C246.163 220.252 247.246 221.297 248.902 221.297C250.202 221.297 251.207 220.804 251.936 219.819V220.765C251.936 221.021 252.153 221.257 252.448 221.257C252.763 221.257 252.961 221.06 252.961 220.765V215.681C252.961 213.317 252.034 212.134 249.67 212.134C248.803 212.134 247.975 212.331 247.168 212.745C247.01 212.844 246.931 212.962 246.931 213.12C246.931 213.179 246.951 213.258 246.99 213.336C247.089 213.514 247.227 213.592 247.404 213.592C247.483 213.592 247.562 213.573 247.641 213.533C248.232 213.238 248.882 213.1 249.611 213.1C250.478 213.1 251.069 213.356 251.384 213.691C251.542 213.868 251.66 214.105 251.759 214.44C251.916 215.11 251.936 215.563 251.936 216.568C251.325 216.115 250.517 215.898 249.532 215.898C247.562 215.898 246.163 216.922 246.163 218.656ZM251.936 218.932C251.227 219.858 250.32 220.331 249.217 220.331C248.094 220.331 247.246 219.681 247.246 218.597C247.246 217.395 248.35 216.745 249.631 216.745C250.517 216.745 251.286 216.982 251.936 217.454V218.932ZM261.118 216.509C260.467 216.982 259.679 217.218 258.733 217.218C257.197 217.218 256.428 216.41 256.428 214.775V212.785C256.428 212.528 256.172 212.272 255.916 212.272C255.581 212.272 255.344 212.489 255.344 212.785V214.854C255.344 217.08 256.389 218.183 258.458 218.183C259.502 218.183 260.389 217.927 261.118 217.435V220.765C261.118 221.06 261.315 221.257 261.61 221.257C261.925 221.257 262.142 221.06 262.142 220.765V212.765C262.142 212.115 261.118 212.115 261.118 212.765V216.509ZM266.765 212.765C266.765 212.469 266.568 212.272 266.272 212.272C265.957 212.272 265.74 212.469 265.74 212.765V220.765C265.74 221.415 266.765 221.415 266.765 220.765V212.765ZM266.962 208.864C266.962 208.489 266.627 208.213 266.292 208.213C265.898 208.213 265.563 208.47 265.563 208.864C265.563 209.317 265.878 209.593 266.292 209.593C266.666 209.593 266.962 209.317 266.962 208.864ZM276.888 214.538C276.888 212.962 275.666 212.253 273.223 212.253C272.967 212.253 272.179 212.272 270.878 212.312C270.583 212.312 270.366 212.528 270.366 212.824V220.666C270.366 220.962 270.583 221.178 270.878 221.178C272.258 221.218 273.046 221.238 273.263 221.238C275.903 221.238 277.223 220.41 277.223 218.735C277.223 217.533 276.514 216.824 275.095 216.587C276.218 216.41 276.888 215.543 276.888 214.538ZM273.519 217.1C275.272 217.1 276.139 217.612 276.139 218.637C276.139 219.72 275.213 220.272 273.381 220.272C272.809 220.272 272.159 220.252 271.391 220.233V217.1H273.519ZM271.391 213.258C272.041 213.238 272.691 213.218 273.341 213.218C274.977 213.218 275.804 213.711 275.804 214.696C275.804 215.642 275.016 216.253 273.735 216.253H271.391V213.258Z" fill="#52616B"/>
<path d="M205.153 203.32C208.423 203.32 211.073 200.67 211.073 197.4C211.073 194.13 208.423 191.48 205.153 191.48C201.883 191.48 199.233 194.13 199.233 197.4C199.233 200.67 201.883 203.32 205.153 203.32Z" fill="#9700D9"/>
<defs>
<filter id="filter0_f_2795_47" x="82.874" y="139.304" width="322.424" height="322.282" filterUnits="userSpaceOnUse" color-interpolation-filters="sRGB">
<feFlood flood-opacity="0" result="BackgroundImageFix"/>
<feBlend mode="normal" in="SourceGraphic" in2="BackgroundImageFix" result="shape"/>
<feGaussianBlur stdDeviation="20" result="effect1_foregroundBlur_2795_47"/>
</filter>
<filter id="filter1_d_2795_47" x="8.41426" y="0.541056" width="448.074" height="447.856" filterUnits="userSpaceOnUse" color-interpolation-filters="sRGB">
<feFlood flood-opacity="0" result="BackgroundImageFix"/>
<feColorMatrix in="SourceAlpha" type="matrix" values="0 0 0 0 0 0 0 0 0 0 0 0 0 0 0 0 0 0 127 0" result="hardAlpha"/>
<feOffset dy="19.428"/>
<feGaussianBlur stdDeviation="19.428"/>
<feColorMatrix type="matrix" values="0 0 0 0 0 0 0 0 0 0 0 0 0 0 0 0 0 0 0.04 0"/>
<feBlend mode="normal" in2="BackgroundImageFix" result="effect1_dropShadow_2795_47"/>
<feBlend mode="normal" in="SourceGraphic" in2="effect1_dropShadow_2795_47" result="shape"/>
</filter>
<filter id="filter2_ddd_2795_47" x="81" y="60.554" width="302.379" height="305.145" filterUnits="userSpaceOnUse" color-interpolation-filters="sRGB">
<feFlood flood-opacity="0" result="BackgroundImageFix"/>
<feColorMatrix in="SourceAlpha" type="matrix" values="0 0 0 0 0 0 0 0 0 0 0 0 0 0 0 0 0 0 127 0" result="hardAlpha"/>
<feOffset dy="6.37564"/>
<feGaussianBlur stdDeviation="7"/>
<feColorMatrix type="matrix" values="0 0 0 0 0.580392 0 0 0 0 0.760784 0 0 0 0 0.243137 0 0 0 0.22 0"/>
<feBlend mode="normal" in2="BackgroundImageFix" result="effect1_dropShadow_2795_47"/>
<feColorMatrix in="SourceAlpha" type="matrix" values="0 0 0 0 0 0 0 0 0 0 0 0 0 0 0 0 0 0 127 0" result="hardAlpha"/>
<feOffset dy="4.55403"/>
<feGaussianBlur stdDeviation="10.5"/>
<feColorMatrix type="matrix" values="0 0 0 0 0.580392 0 0 0 0 0.760784 0 0 0 0 0.243137 0 0 0 0.12 0"/>
<feBlend mode="normal" in2="effect1_dropShadow_2795_47" result="effect2_dropShadow_2795_47"/>
<feColorMatrix in="SourceAlpha" type="matrix" values="0 0 0 0 0 0 0 0 0 0 0 0 0 0 0 0 0 0 127 0" result="hardAlpha"/>
<feOffset dy="10.9297"/>
<feGaussianBlur stdDeviation="8.5"/>
<feColorMatrix type="matrix" values="0 0 0 0 0.580392 0 0 0 0 0.760784 0 0 0 0 0.243137 0 0 0 0.14 0"/>
<feBlend mode="normal" in2="effect2_dropShadow_2795_47" result="effect3_dropShadow_2795_47"/>
<feBlend mode="normal" in="SourceGraphic" in2="effect3_dropShadow_2795_47" result="shape"/>
</filter>
</defs>
</svg>
